solid course_parking
  facet normal 0.00000000 0.00000000 1.00000000
    outer loop
      vertex -7.47516879 1.89857464 0.00000000
      vertex -7.47516879 -1.89857464 0.00000000
      vertex 7.47516879 -1.89857464 0.00000000
    endloop
  endfacet
  facet normal 0.00000000 -0.00000000 1.00000000
    outer loop
      vertex 7.47516879 -1.89857464 0.00000000
      vertex 7.47516879 1.89857464 0.00000000
      vertex -7.47516879 1.89857464 0.00000000
    endloop
  endfacet
endsolid course_parking
