mtllib curb_side_ring_03_visual.mtl
o curb_side_ring_03_visual
usemtl curb_marble
v -1.21175728 -9.46411431 0.20000000
v -1.20374260 -9.57210551 0.20000000
v -1.19274921 -9.67564201 0.20000000
v -1.17870315 -9.77606925 0.20000000
v -1.16163124 -9.87339418 0.20000000
v -1.14156095 -9.96762830 0.20000000
v -1.11851971 -10.05878814 0.20000000
v -1.09253408 -10.14689589 0.20000000
v -1.06362872 -10.23197963 0.20000000
v -1.03182520 -10.31407354 0.20000000
v -0.99714074 -10.39321771 0.20000000
v -0.95958698 -10.46945765 0.20000000
v -0.91916871 -10.54284338 0.20000000
v -0.87588295 -10.61342820 0.20000000
v -0.82971820 -10.68126710 0.20000000
v -0.78065422 -10.74641488 0.20000000
v -0.72866221 -10.80892424 0.20000000
v -0.67370555 -10.86884381 0.20000000
v -0.61574097 -10.92621642 0.20000000
v -0.55472014 -10.98107767 0.20000000
v -0.49059144 -11.03345500 0.20000000
v -0.42330194 -11.08336717 0.20000000
v -0.35279923 -11.13082432 0.20000000
v -0.27903309 -11.17582840 0.20000000
v -0.20195686 -11.21837402 0.20000000
v -0.12152850 -11.25844949 0.20000000
v -0.03771126 -11.29603801 0.20000000
v 0.04952603 -11.33111893 0.20000000
v 0.14020890 -11.36366893 0.20000000
v 0.23435744 -11.39366303 0.20000000
v 0.33198671 -11.42107555 0.20000000
v 0.43310723 -11.44588086 0.20000000
v 0.53904227 -11.46833302 0.20000000
v 0.93403651 -11.54575069 0.20000000
v 1.03963647 -11.56477265 0.20000000
v 1.13963430 -11.57944217 0.20000000
v 1.23528769 -11.59003872 0.20000000
v 1.32654999 -11.59661800 0.20000000
v 1.41337698 -11.59924873 0.20000000
v 1.49573063 -11.59801435 0.20000000
v 1.57358418 -11.59301401 0.20000000
v 1.64692885 -11.58436240 0.20000000
v 1.71578197 -11.57218745 0.20000000
v 1.78019596 -11.55662495 0.20000000
v 1.84026693 -11.53780930 0.20000000
v 1.89614066 -11.51585994 0.20000000
v 1.94801356 -11.49086433 0.20000000
v 1.99612575 -11.46285974 0.20000000
v 2.04074513 -11.43181784 0.20000000
v 2.08214344 -11.39763677 0.20000000
v 2.12056834 -11.36014422 0.20000000
v 2.15621773 -11.31911241 0.20000000
v 2.18922205 -11.27428211 0.20000000
v 2.21963818 -11.22539001 0.20000000
v 2.24745484 -11.17219338 0.20000000
v 2.27260614 -11.11448757 0.20000000
v 2.29498898 -11.05211479 0.20000000
v 2.31448002 -10.98496511 0.20000000
v 2.33094990 -10.91297181 0.20000000
v 2.34427328 -10.83610397 0.20000000
v 2.35433520 -10.75435799 0.20000000
v 2.36103419 -10.66774984 0.20000000
v 2.36428322 -10.57630840 0.20000000
v 2.36400923 -10.48007024 0.20000000
v 2.36015184 -10.37907578 0.20000000
v 2.35256811 -10.27204459 0.20000000
v 0.50087983 11.19113370 0.20000000
v 0.49714882 11.22762116 0.20000000
v 0.49262890 11.26083959 0.20000000
v 0.48722570 11.29214614 0.20000000
v 0.48099114 11.32153166 0.20000000
v 0.47398301 11.34899414 0.20000000
v 0.46626428 11.37454131 0.20000000
v 0.45790170 11.39819340 0.20000000
v 0.44896332 11.41998604 0.20000000
v 0.43951512 11.43997294 0.20000000
v 0.42961622 11.45822786 0.20000000
v 0.41931327 11.47484532 0.20000000
v 0.40863410 11.48993932 0.20000000
v 0.39758155 11.50363977 0.20000000
v 0.38612854 11.51608625 0.20000000
v 0.37421535 11.52741955 0.20000000
v 0.36175014 11.53777192 0.20000000
v 0.34861314 11.54725729 0.20000000
v 0.33466412 11.55596319 0.20000000
v 0.31975209 11.56394553 0.20000000
v 0.30372581 11.57122697 0.20000000
v 0.28644335 11.57779890 0.20000000
v 0.26777963 11.58362612 0.20000000
v 0.24763122 11.58865320 0.20000000
v 0.22591822 11.59281140 0.20000000
v 0.20258399 11.59602502 0.20000000
v 0.17759299 11.59821679 0.20000000
v 0.15092770 11.59931189 0.20000000
v 0.12258521 11.59924066 0.20000000
v 0.09257377 11.59794018 0.20000000
v 0.06090972 11.59535499 0.20000000
v 0.02761492 11.59143711 0.20000000
v -0.00864837 11.58593903 0.20000000
v -0.79378766 11.45414492 0.20000000
v -1.73542769 11.07021444 0.20000000
v -1.77997862 11.05126846 0.20000000
v -1.82154327 11.03205784 0.20000000
v -1.86134548 11.01208573 0.20000000
v -1.89940022 10.99137028 0.20000000
v -1.93572599 10.96992855 0.20000000
v -1.97034502 10.94777589 0.20000000
v -2.00328328 10.92492522 0.20000000
v -2.03457040 10.90138625 0.20000000
v -2.06423939 10.87716468 0.20000000
v -2.09232613 10.85226146 0.20000000
v -2.11886869 10.82667214 0.20000000
v -2.14390641 10.80038631 0.20000000
v -2.16747881 10.77338736 0.20000000
v -2.18962443 10.74565240 0.20000000
v -2.21037957 10.71715256 0.20000000
v -2.22977704 10.68785356 0.20000000
v -2.24784512 10.65771658 0.20000000
v -2.26460663 10.62669936 0.20000000
v -2.28007837 10.59475750 0.20000000
v -2.29427071 10.56184581 0.20000000
v -2.30718769 10.52791967 0.20000000
v -2.31882725 10.49293622 0.20000000
v -2.32918181 10.45685550 0.20000000
v -2.33823897 10.41964123 0.20000000
v -2.34598241 10.38126147 0.20000000
v -2.35239273 10.34168888 0.20000000
v -2.35744839 10.30090093 0.20000000
v -2.36112656 10.25887974 0.20000000
v -2.36340378 10.21561188 0.20000000
v -2.36425668 10.17108802 0.20000000
v -2.36366244 10.12530249 0.20000000
v -2.36154148 10.07693683 0.20000000
v -1.57097386 -9.48801077 0.20000000
v -1.56233285 -9.60444124 0.20000000
v -1.55010626 -9.71959213 0.20000000
v -1.53436805 -9.83211801 0.20000000
v -1.51509140 -9.94201189 0.20000000
v -1.49224885 -10.04926232 0.20000000
v -1.46581295 -10.15385274 0.20000000
v -1.43575714 -10.25576097 0.20000000
v -1.40205678 -10.35495893 0.20000000
v -1.36469029 -10.45141242 0.20000000
v -1.32364044 -10.54508138 0.20000000
v -1.27889562 -10.63592029 0.20000000
v -1.23045100 -10.72387912 0.20000000
v -1.17830959 -10.80890458 0.20000000
v -1.12248288 -10.89094168 0.20000000
v -1.06299111 -10.96993562 0.20000000
v -0.99986307 -11.04583369 0.20000000
v -0.93313540 -11.11858727 0.20000000
v -0.86285135 -11.18815353 0.20000000
v -0.78905927 -11.25449686 0.20000000
v -0.71181076 -11.31758984 0.20000000
v -0.63115877 -11.37741369 0.20000000
v -0.54715569 -11.43395827 0.20000000
v -0.45985176 -11.48722164 0.20000000
v -0.36929362 -11.53720919 0.20000000
v -0.27552332 -11.58393262 0.20000000
v -0.17857761 -11.62740871 0.20000000
v -0.07848767 -11.66765810 0.20000000
v 0.02472099 -11.70470415 0.20000000
v 0.13102827 -11.73857181 0.20000000
v 0.24041911 -11.76928676 0.20000000
v 0.35288299 -11.79687465 0.20000000
v 0.46709663 -11.82108139 0.20000000
v 0.86750162 -11.89955956 0.20000000
v 0.98158478 -11.92010962 0.20000000
v 1.09367461 -11.93655301 0.20000000
v 1.20251339 -11.94861025 0.20000000
v 1.30814779 -11.95622564 0.20000000
v 1.41062201 -11.95933046 0.20000000
v 1.50997410 -11.95784129 0.20000000
v 1.60623081 -11.95165896 0.20000000
v 1.69940092 -11.94066878 0.20000000
v 1.78946711 -11.92474283 0.20000000
v 1.87637694 -11.90374531 0.20000000
v 1.96003432 -11.87754183 0.20000000
v 2.04029346 -11.84601294 0.20000000
v 2.11695795 -11.80907119 0.20000000
v 2.18978766 -11.76667931 0.20000000
v 2.25851471 -11.71886561 0.20000000
v 2.32286736 -11.66573198 0.20000000
v 2.38259793 -11.60745071 0.20000000
v 2.43750854 -11.54424959 0.20000000
v 2.48746874 -11.47638783 0.20000000
v 2.53242165 -11.40412876 0.20000000
v 2.57237855 -11.32771511 0.20000000
v 2.60740532 -11.24735153 0.20000000
v 2.63760510 -11.16319580 0.20000000
v 2.66310117 -11.07535786 0.20000000
v 2.68402294 -10.98390441 0.20000000
v 2.70049573 -10.88886640 0.20000000
v 2.71263450 -10.79024741 0.20000000
v 2.72054073 -10.68803147 0.20000000
v 2.72430142 -10.58218971 0.20000000
v 2.72398967 -10.47268556 0.20000000
v 2.71966583 -10.35947859 0.20000000
v 2.71147287 -10.24384923 0.20000000
v 0.85930244 11.22491781 0.20000000
v 0.85467093 11.27021171 0.20000000
v 0.84847618 11.31573901 0.20000000
v 0.84081257 11.36014255 0.20000000
v 0.83162819 11.40343151 0.20000000
v 0.82086523 11.44560787 0.20000000
v 0.80846072 11.48666391 0.20000000
v 0.79434794 11.52657941 0.20000000
v 0.77845879 11.56531872 0.20000000
v 0.76072734 11.60282815 0.20000000
v 0.74109444 11.63903392 0.20000000
v 0.71951345 11.67384154 0.20000000
v 0.69595654 11.70713697 0.20000000
v 0.67042087 11.73879033 0.20000000
v 0.64293351 11.76866203 0.20000000
v 0.61355420 11.79661128 0.20000000
v 0.58237476 11.82250583 0.20000000
v 0.54951496 11.84623175 0.20000000
v 0.51511505 11.86770151 0.20000000
v 0.47932600 11.88685921 0.20000000
v 0.44229907 11.90368217 0.20000000
v 0.40417617 11.91817902 0.20000000
v 0.36508238 11.93038495 0.20000000
v 0.32512116 11.94035538 0.20000000
v 0.28437237 11.94815907 0.20000000
v 0.24289267 11.95387171 0.20000000
v 0.20071761 11.95757056 0.20000000
v 0.15786469 11.95933046 0.20000000
v 0.11433683 11.95922107 0.20000000
v 0.07012578 11.95730528 0.20000000
v 0.02521519 11.95363859 0.20000000
v -0.02041678 11.94826896 0.20000000
v -0.06543241 11.94144389 0.20000000
v -0.89274623 11.80257033 0.20000000
v -1.87383688 11.40255483 0.20000000
v -1.92597369 11.38038284 0.20000000
v -1.97782933 11.35641586 0.20000000
v -2.02817996 11.33115072 0.20000000
v -2.07701062 11.30456930 0.20000000
v -2.12430280 11.27665451 0.20000000
v -2.17003428 11.24739101 0.20000000
v -2.21417909 11.21676588 0.20000000
v -2.25670759 11.18476942 0.20000000
v -2.29758677 11.15139593 0.20000000
v -2.33678076 11.11664443 0.20000000
v -2.37425148 11.08051941 0.20000000
v -2.40995961 11.04303126 0.20000000
v -2.44386561 11.00419659 0.20000000
v -2.47593093 10.96403829 0.20000000
v -2.50611931 10.92258524 0.20000000
v -2.53439790 10.87987170 0.20000000
v -2.56073844 10.83593651 0.20000000
v -2.58511809 10.79082192 0.20000000
v -2.60752008 10.74457233 0.20000000
v -2.62793402 10.69723293 0.20000000
v -2.64635588 10.64884835 0.20000000
v -2.66278771 10.59946144 0.20000000
v -2.67723710 10.54911216 0.20000000
v -2.68971644 10.49783678 0.20000000
v -2.70024207 10.44566728 0.20000000
v -2.70883336 10.39263095 0.20000000
v -2.71551187 10.33875035 0.20000000
v -2.72030043 10.28404335 0.20000000
v -2.72322249 10.22852338 0.20000000
v -2.72430142 10.17219977 0.20000000
v -2.72356006 10.11507820 0.20000000
v -2.72107796 10.05847712 0.20000000
v -1.21175728 -9.46411431 0.00000000
v -1.20374260 -9.57210551 0.00000000
v -1.19274921 -9.67564201 0.00000000
v -1.17870315 -9.77606925 0.00000000
v -1.16163124 -9.87339418 0.00000000
v -1.14156095 -9.96762830 0.00000000
v -1.11851971 -10.05878814 0.00000000
v -1.09253408 -10.14689589 0.00000000
v -1.06362872 -10.23197963 0.00000000
v -1.03182520 -10.31407354 0.00000000
v -0.99714074 -10.39321771 0.00000000
v -0.95958698 -10.46945765 0.00000000
v -0.91916871 -10.54284338 0.00000000
v -0.87588295 -10.61342820 0.00000000
v -0.82971820 -10.68126710 0.00000000
v -0.78065422 -10.74641488 0.00000000
v -0.72866221 -10.80892424 0.00000000
v -0.67370555 -10.86884381 0.00000000
v -0.61574097 -10.92621642 0.00000000
v -0.55472014 -10.98107767 0.00000000
v -0.49059144 -11.03345500 0.00000000
v -0.42330194 -11.08336717 0.00000000
v -0.35279923 -11.13082432 0.00000000
v -0.27903309 -11.17582840 0.00000000
v -0.20195686 -11.21837402 0.00000000
v -0.12152850 -11.25844949 0.00000000
v -0.03771126 -11.29603801 0.00000000
v 0.04952603 -11.33111893 0.00000000
v 0.14020890 -11.36366893 0.00000000
v 0.23435744 -11.39366303 0.00000000
v 0.33198671 -11.42107555 0.00000000
v 0.43310723 -11.44588086 0.00000000
v 0.53904227 -11.46833302 0.00000000
v 0.93403651 -11.54575069 0.00000000
v 1.03963647 -11.56477265 0.00000000
v 1.13963430 -11.57944217 0.00000000
v 1.23528769 -11.59003872 0.00000000
v 1.32654999 -11.59661800 0.00000000
v 1.41337698 -11.59924873 0.00000000
v 1.49573063 -11.59801435 0.00000000
v 1.57358418 -11.59301401 0.00000000
v 1.64692885 -11.58436240 0.00000000
v 1.71578197 -11.57218745 0.00000000
v 1.78019596 -11.55662495 0.00000000
v 1.84026693 -11.53780930 0.00000000
v 1.89614066 -11.51585994 0.00000000
v 1.94801356 -11.49086433 0.00000000
v 1.99612575 -11.46285974 0.00000000
v 2.04074513 -11.43181784 0.00000000
v 2.08214344 -11.39763677 0.00000000
v 2.12056834 -11.36014422 0.00000000
v 2.15621773 -11.31911241 0.00000000
v 2.18922205 -11.27428211 0.00000000
v 2.21963818 -11.22539001 0.00000000
v 2.24745484 -11.17219338 0.00000000
v 2.27260614 -11.11448757 0.00000000
v 2.29498898 -11.05211479 0.00000000
v 2.31448002 -10.98496511 0.00000000
v 2.33094990 -10.91297181 0.00000000
v 2.34427328 -10.83610397 0.00000000
v 2.35433520 -10.75435799 0.00000000
v 2.36103419 -10.66774984 0.00000000
v 2.36428322 -10.57630840 0.00000000
v 2.36400923 -10.48007024 0.00000000
v 2.36015184 -10.37907578 0.00000000
v 2.35256811 -10.27204459 0.00000000
v 0.50087983 11.19113370 0.00000000
v 0.49714882 11.22762116 0.00000000
v 0.49262890 11.26083959 0.00000000
v 0.48722570 11.29214614 0.00000000
v 0.48099114 11.32153166 0.00000000
v 0.47398301 11.34899414 0.00000000
v 0.46626428 11.37454131 0.00000000
v 0.45790170 11.39819340 0.00000000
v 0.44896332 11.41998604 0.00000000
v 0.43951512 11.43997294 0.00000000
v 0.42961622 11.45822786 0.00000000
v 0.41931327 11.47484532 0.00000000
v 0.40863410 11.48993932 0.00000000
v 0.39758155 11.50363977 0.00000000
v 0.38612854 11.51608625 0.00000000
v 0.37421535 11.52741955 0.00000000
v 0.36175014 11.53777192 0.00000000
v 0.34861314 11.54725729 0.00000000
v 0.33466412 11.55596319 0.00000000
v 0.31975209 11.56394553 0.00000000
v 0.30372581 11.57122697 0.00000000
v 0.28644335 11.57779890 0.00000000
v 0.26777963 11.58362612 0.00000000
v 0.24763122 11.58865320 0.00000000
v 0.22591822 11.59281140 0.00000000
v 0.20258399 11.59602502 0.00000000
v 0.17759299 11.59821679 0.00000000
v 0.15092770 11.59931189 0.00000000
v 0.12258521 11.59924066 0.00000000
v 0.09257377 11.59794018 0.00000000
v 0.06090972 11.59535499 0.00000000
v 0.02761492 11.59143711 0.00000000
v -0.00864837 11.58593903 0.00000000
v -0.79378766 11.45414492 0.00000000
v -1.73542769 11.07021444 0.00000000
v -1.77997862 11.05126846 0.00000000
v -1.82154327 11.03205784 0.00000000
v -1.86134548 11.01208573 0.00000000
v -1.89940022 10.99137028 0.00000000
v -1.93572599 10.96992855 0.00000000
v -1.97034502 10.94777589 0.00000000
v -2.00328328 10.92492522 0.00000000
v -2.03457040 10.90138625 0.00000000
v -2.06423939 10.87716468 0.00000000
v -2.09232613 10.85226146 0.00000000
v -2.11886869 10.82667214 0.00000000
v -2.14390641 10.80038631 0.00000000
v -2.16747881 10.77338736 0.00000000
v -2.18962443 10.74565240 0.00000000
v -2.21037957 10.71715256 0.00000000
v -2.22977704 10.68785356 0.00000000
v -2.24784512 10.65771658 0.00000000
v -2.26460663 10.62669936 0.00000000
v -2.28007837 10.59475750 0.00000000
v -2.29427071 10.56184581 0.00000000
v -2.30718769 10.52791967 0.00000000
v -2.31882725 10.49293622 0.00000000
v -2.32918181 10.45685550 0.00000000
v -2.33823897 10.41964123 0.00000000
v -2.34598241 10.38126147 0.00000000
v -2.35239273 10.34168888 0.00000000
v -2.35744839 10.30090093 0.00000000
v -2.36112656 10.25887974 0.00000000
v -2.36340378 10.21561188 0.00000000
v -2.36425668 10.17108802 0.00000000
v -2.36366244 10.12530249 0.00000000
v -2.36154148 10.07693683 0.00000000
v -1.57097386 -9.48801077 0.00000000
v -1.56233285 -9.60444124 0.00000000
v -1.55010626 -9.71959213 0.00000000
v -1.53436805 -9.83211801 0.00000000
v -1.51509140 -9.94201189 0.00000000
v -1.49224885 -10.04926232 0.00000000
v -1.46581295 -10.15385274 0.00000000
v -1.43575714 -10.25576097 0.00000000
v -1.40205678 -10.35495893 0.00000000
v -1.36469029 -10.45141242 0.00000000
v -1.32364044 -10.54508138 0.00000000
v -1.27889562 -10.63592029 0.00000000
v -1.23045100 -10.72387912 0.00000000
v -1.17830959 -10.80890458 0.00000000
v -1.12248288 -10.89094168 0.00000000
v -1.06299111 -10.96993562 0.00000000
v -0.99986307 -11.04583369 0.00000000
v -0.93313540 -11.11858727 0.00000000
v -0.86285135 -11.18815353 0.00000000
v -0.78905927 -11.25449686 0.00000000
v -0.71181076 -11.31758984 0.00000000
v -0.63115877 -11.37741369 0.00000000
v -0.54715569 -11.43395827 0.00000000
v -0.45985176 -11.48722164 0.00000000
v -0.36929362 -11.53720919 0.00000000
v -0.27552332 -11.58393262 0.00000000
v -0.17857761 -11.62740871 0.00000000
v -0.07848767 -11.66765810 0.00000000
v 0.02472099 -11.70470415 0.00000000
v 0.13102827 -11.73857181 0.00000000
v 0.24041911 -11.76928676 0.00000000
v 0.35288299 -11.79687465 0.00000000
v 0.46709663 -11.82108139 0.00000000
v 0.86750162 -11.89955956 0.00000000
v 0.98158478 -11.92010962 0.00000000
v 1.09367461 -11.93655301 0.00000000
v 1.20251339 -11.94861025 0.00000000
v 1.30814779 -11.95622564 0.00000000
v 1.41062201 -11.95933046 0.00000000
v 1.50997410 -11.95784129 0.00000000
v 1.60623081 -11.95165896 0.00000000
v 1.69940092 -11.94066878 0.00000000
v 1.78946711 -11.92474283 0.00000000
v 1.87637694 -11.90374531 0.00000000
v 1.96003432 -11.87754183 0.00000000
v 2.04029346 -11.84601294 0.00000000
v 2.11695795 -11.80907119 0.00000000
v 2.18978766 -11.76667931 0.00000000
v 2.25851471 -11.71886561 0.00000000
v 2.32286736 -11.66573198 0.00000000
v 2.38259793 -11.60745071 0.00000000
v 2.43750854 -11.54424959 0.00000000
v 2.48746874 -11.47638783 0.00000000
v 2.53242165 -11.40412876 0.00000000
v 2.57237855 -11.32771511 0.00000000
v 2.60740532 -11.24735153 0.00000000
v 2.63760510 -11.16319580 0.00000000
v 2.66310117 -11.07535786 0.00000000
v 2.68402294 -10.98390441 0.00000000
v 2.70049573 -10.88886640 0.00000000
v 2.71263450 -10.79024741 0.00000000
v 2.72054073 -10.68803147 0.00000000
v 2.72430142 -10.58218971 0.00000000
v 2.72398967 -10.47268556 0.00000000
v 2.71966583 -10.35947859 0.00000000
v 2.71147287 -10.24384923 0.00000000
v 0.85930244 11.22491781 0.00000000
v 0.85467093 11.27021171 0.00000000
v 0.84847618 11.31573901 0.00000000
v 0.84081257 11.36014255 0.00000000
v 0.83162819 11.40343151 0.00000000
v 0.82086523 11.44560787 0.00000000
v 0.80846072 11.48666391 0.00000000
v 0.79434794 11.52657941 0.00000000
v 0.77845879 11.56531872 0.00000000
v 0.76072734 11.60282815 0.00000000
v 0.74109444 11.63903392 0.00000000
v 0.71951345 11.67384154 0.00000000
v 0.69595654 11.70713697 0.00000000
v 0.67042087 11.73879033 0.00000000
v 0.64293351 11.76866203 0.00000000
v 0.61355420 11.79661128 0.00000000
v 0.58237476 11.82250583 0.00000000
v 0.54951496 11.84623175 0.00000000
v 0.51511505 11.86770151 0.00000000
v 0.47932600 11.88685921 0.00000000
v 0.44229907 11.90368217 0.00000000
v 0.40417617 11.91817902 0.00000000
v 0.36508238 11.93038495 0.00000000
v 0.32512116 11.94035538 0.00000000
v 0.28437237 11.94815907 0.00000000
v 0.24289267 11.95387171 0.00000000
v 0.20071761 11.95757056 0.00000000
v 0.15786469 11.95933046 0.00000000
v 0.11433683 11.95922107 0.00000000
v 0.07012578 11.95730528 0.00000000
v 0.02521519 11.95363859 0.00000000
v -0.02041678 11.94826896 0.00000000
v -0.06543241 11.94144389 0.00000000
v -0.89274623 11.80257033 0.00000000
v -1.87383688 11.40255483 0.00000000
v -1.92597369 11.38038284 0.00000000
v -1.97782933 11.35641586 0.00000000
v -2.02817996 11.33115072 0.00000000
v -2.07701062 11.30456930 0.00000000
v -2.12430280 11.27665451 0.00000000
v -2.17003428 11.24739101 0.00000000
v -2.21417909 11.21676588 0.00000000
v -2.25670759 11.18476942 0.00000000
v -2.29758677 11.15139593 0.00000000
v -2.33678076 11.11664443 0.00000000
v -2.37425148 11.08051941 0.00000000
v -2.40995961 11.04303126 0.00000000
v -2.44386561 11.00419659 0.00000000
v -2.47593093 10.96403829 0.00000000
v -2.50611931 10.92258524 0.00000000
v -2.53439790 10.87987170 0.00000000
v -2.56073844 10.83593651 0.00000000
v -2.58511809 10.79082192 0.00000000
v -2.60752008 10.74457233 0.00000000
v -2.62793402 10.69723293 0.00000000
v -2.64635588 10.64884835 0.00000000
v -2.66278771 10.59946144 0.00000000
v -2.67723710 10.54911216 0.00000000
v -2.68971644 10.49783678 0.00000000
v -2.70024207 10.44566728 0.00000000
v -2.70883336 10.39263095 0.00000000
v -2.71551187 10.33875035 0.00000000
v -2.72030043 10.28404335 0.00000000
v -2.72322249 10.22852338 0.00000000
v -2.72430142 10.17219977 0.00000000
v -2.72356006 10.11507820 0.00000000
v -2.72107796 10.05847712 0.00000000
vt -1.61567637 -12.61881908
vt -1.60499013 -12.76280735
vt -1.59033228 -12.90085601
vt -1.57160420 -13.03475899
vt -1.54884166 -13.16452558
vt -1.52208126 -13.29017106
vt -1.49135961 -13.41171752
vt -1.45671211 -13.52919451
vt -1.41817163 -13.64263950
vt -1.37576693 -13.75209805
vt -1.32952099 -13.85762362
vt -1.27944931 -13.95927687
vt -1.22555829 -14.05712451
vt -1.16784393 -14.15123760
vt -1.10629093 -14.24168946
vt -1.04087229 -14.32855317
vt -0.97154961 -14.41189899
vt -0.89827407 -14.49179175
vt -0.82098797 -14.56828855
vt -0.73962685 -14.64143689
vt -0.65412192 -14.71127333
vt -0.56440259 -14.77782289
vt -0.47039898 -14.84109909
vt -0.37204411 -14.90110454
vt -0.26927581 -14.95783203
vt -0.16203800 -15.01126598
vt -0.05028168 -15.06138401
vt 0.06603471 -15.10815858
vt 0.18694520 -15.15155857
vt 0.31247658 -15.19155070
vt 0.44264895 -15.22810073
vt 0.57747630 -15.26117447
vt 0.71872303 -15.29111069
vt 1.24538201 -15.39433426
vt 1.38618196 -15.41969687
vt 1.51951240 -15.43925622
vt 1.64705026 -15.45338496
vt 1.76873332 -15.46215733
vt 1.88450264 -15.46566498
vt 1.99430751 -15.46401913
vt 2.09811224 -15.45735201
vt 2.19590513 -15.44581653
vt 2.28770929 -15.42958327
vt 2.37359462 -15.40883327
vt 2.45368923 -15.38374573
vt 2.52818754 -15.35447992
vt 2.59735141 -15.32115244
vt 2.66150100 -15.28381298
vt 2.72099351 -15.24242379
vt 2.77619125 -15.19684903
vt 2.82742445 -15.14685896
vt 2.87495697 -15.09214987
vt 2.91896273 -15.03237614
vt 2.95951757 -14.96718668
vt 2.99660645 -14.89625784
vt 3.03014153 -14.81931675
vt 3.05998530 -14.73615305
vt 3.08597337 -14.64662014
vt 3.10793320 -14.55062909
vt 3.12569771 -14.44813862
vt 3.13911360 -14.33914398
vt 3.14804558 -14.22366645
vt 3.15237763 -14.10174453
vt 3.15201231 -13.97342699
vt 3.14686912 -13.83876771
vt 3.13675747 -13.69605946
vt 0.66783978 14.92151160
vt 0.66286510 14.97016154
vt 0.65683854 15.01445278
vt 0.64963427 15.05619486
vt 0.64132152 15.09537554
vt 0.63197734 15.13199218
vt 0.62168571 15.16605508
vt 0.61053559 15.19759120
vt 0.59861777 15.22664805
vt 0.58602016 15.25329725
vt 0.57282163 15.27763715
vt 0.55908437 15.29979375
vt 0.54484546 15.31991909
vt 0.53010873 15.33818636
vt 0.51483805 15.35478166
vt 0.49895380 15.36989273
vt 0.48233352 15.38369589
vt 0.46481752 15.39634305
vt 0.44621882 15.40795092
vt 0.42633612 15.41859403
vt 0.40496774 15.42830262
vt 0.38192446 15.43706520
vt 0.35703951 15.44483482
vt 0.33017495 15.45153760
vt 0.30122430 15.45708186
vt 0.27011199 15.46136669
vt 0.23679065 15.46428906
vt 0.20123694 15.46574919
vt 0.16344695 15.46565421
vt 0.12343169 15.46392025
vt 0.08121296 15.46047332
vt 0.03681989 15.45524948
vt -0.01153116 15.44791871
vt -1.05838355 15.27219323
vt -2.31390359 14.76028592
vt -2.37330483 14.73502461
vt -2.42872436 14.70941045
vt -2.48179398 14.68278097
vt -2.53253363 14.65516037
vt -2.58096799 14.62657139
vt -2.62712669 14.59703452
vt -2.67104437 14.56656697
vt -2.71276053 14.53518167
vt -2.75231919 14.50288624
vt -2.78976818 14.46968195
vt -2.82515826 14.43556285
vt -2.85854188 14.40051508
vt -2.88997175 14.36451648
vt -2.91949924 14.32753653
vt -2.94717276 14.28953675
vt -2.97303605 14.25047141
vt -2.99712682 14.21028877
vt -3.01947551 14.16893247
vt -3.04010449 14.12634333
vt -3.05902761 14.08246109
vt -3.07625026 14.03722622
vt -3.09176967 13.99058163
vt -3.10557575 13.94247400
vt -3.11765197 13.89285498
vt -3.12797654 13.84168196
vt -3.13652364 13.78891851
vt -3.14326453 13.73453457
vt -3.14816874 13.67850631
vt -3.15120504 13.62081584
vt -3.15234223 13.56145070
vt -3.15154991 13.50040332
vt -3.14872197 13.43591578
vt -2.09463181 -12.65068103
vt -2.08311047 -12.80592166
vt -2.06680835 -12.95945618
vt -2.04582407 -13.10949067
vt -2.02012187 -13.25601586
vt -1.98966513 -13.39901643
vt -1.95441726 -13.53847031
vt -1.91434285 -13.67434796
vt -1.86940904 -13.80661190
vt -1.81958706 -13.93521656
vt -1.76485393 -14.06010850
vt -1.70519416 -14.18122705
vt -1.64060133 -14.29850549
vt -1.57107946 -14.41187277
vt -1.49664384 -14.52125558
vt -1.41732148 -14.62658082
vt -1.33315076 -14.72777825
vt -1.24418053 -14.82478303
vt -1.15046847 -14.91753804
vt -1.05207903 -15.00599582
vt -0.94908102 -15.09011979
vt -0.84154502 -15.16988491
vt -0.72954092 -15.24527770
vt -0.61313568 -15.31629552
vt -0.49239150 -15.38294559
vt -0.36736442 -15.44524349
vt -0.23810348 -15.50321161
vt -0.10465022 -15.55687747
vt 0.03296133 -15.60627219
vt 0.17470436 -15.65142908
vt 0.32055881 -15.69238235
vt 0.47051066 -15.72916619
vt 0.62279551 -15.76144186
vt 1.15666883 -15.86607942
vt 1.30877971 -15.89347949
vt 1.45823281 -15.91540401
vt 1.60335118 -15.93148033
vt 1.74419705 -15.94163419
vt 1.88082935 -15.94577395
vt 2.01329880 -15.94378839
vt 2.14164108 -15.93554528
vt 2.26586790 -15.92089171
vt 2.38595615 -15.89965711
vt 2.50183592 -15.87166042
vt 2.61337909 -15.83672244
vt 2.72039128 -15.79468393
vt 2.82261060 -15.74542826
vt 2.91971688 -15.68890575
vt 3.01135295 -15.62515415
vt 3.09715648 -15.55430930
vt 3.17679725 -15.47660095
vt 3.25001139 -15.39233278
vt 3.31662499 -15.30185044
vt 3.37656219 -15.20550502
vt 3.42983806 -15.10362015
vt 3.47654043 -14.99646871
vt 3.51680680 -14.88426106
vt 3.55080157 -14.76714381
vt 3.57869726 -14.64520588
vt 3.60066097 -14.51848854
vt 3.61684601 -14.38699655
vt 3.62738764 -14.25070863
vt 3.63240190 -14.10958628
vt 3.63198622 -13.96358074
vt 3.62622111 -13.81263812
vt 3.61529716 -13.65846564
vt 1.14573659 14.96655708
vt 1.13956124 15.02694895
vt 1.13130158 15.08765202
vt 1.12108343 15.14685674
vt 1.10883759 15.20457535
vt 1.09448698 15.26081050
vt 1.07794763 15.31555189
vt 1.05913059 15.36877254
vt 1.03794506 15.42042497
vt 1.01430312 15.47043753
vt 0.98812592 15.51871190
vt 0.95935126 15.56512205
vt 0.92794206 15.60951596
vt 0.89389449 15.65172044
vt 0.85724468 15.69154938
vt 0.81807226 15.72881504
vt 0.77649967 15.76334111
vt 0.73268662 15.79497567
vt 0.68682007 15.82360202
vt 0.63910134 15.84914562
vt 0.58973209 15.87157623
vt 0.53890156 15.89090535
vt 0.48677651 15.90717993
vt 0.43349488 15.92047384
vt 0.37916316 15.93087876
vt 0.32385690 15.93849561
vt 0.26762348 15.94342742
vt 0.21048625 15.94577395
vt 0.15244910 15.94562809
vt 0.09350104 15.94307371
vt 0.03362026 15.93818478
vt -0.02722237 15.93102527
vt -0.08724321 15.92192518
vt -1.19032831 15.73676044
vt -2.49844918 15.20340644
vt -2.56796492 15.17384379
vt -2.63710577 15.14188781
vt -2.70423994 15.10820097
vt -2.76934749 15.07275906
vt -2.83240373 15.03553935
vt -2.89337905 14.99652135
vt -2.95223879 14.95568784
vt -3.00894345 14.91302590
vt -3.06344903 14.86852790
vt -3.11570768 14.82219258
vt -3.16566864 14.77402589
vt -3.21327948 14.72404168
vt -3.25848747 14.67226212
vt -3.30124124 14.61871772
vt -3.34149241 14.56344698
vt -3.37919720 14.50649560
vt -3.41431792 14.44791535
vt -3.44682412 14.38776256
vt -3.47669345 14.32609644
vt -3.50391203 14.26297724
vt -3.52847451 14.19846447
vt -3.55038362 14.13261525
vt -3.56964947 14.06548288
vt -3.58628859 13.99711571
vt -3.60032276 13.92755637
vt -3.61177782 13.85684126
vt -3.62068249 13.78500047
vt -3.62706724 13.71205780
vt -3.63096332 13.63803118
vt -3.63240190 13.56293303
vt -3.63141341 13.48677094
vt -3.62810394 13.41130283
vt -1.61567637 -12.61881908
vt -1.60499013 -12.76280735
vt -1.59033228 -12.90085601
vt -1.57160420 -13.03475899
vt -1.54884166 -13.16452558
vt -1.52208126 -13.29017106
vt -1.49135961 -13.41171752
vt -1.45671211 -13.52919451
vt -1.41817163 -13.64263950
vt -1.37576693 -13.75209805
vt -1.32952099 -13.85762362
vt -1.27944931 -13.95927687
vt -1.22555829 -14.05712451
vt -1.16784393 -14.15123760
vt -1.10629093 -14.24168946
vt -1.04087229 -14.32855317
vt -0.97154961 -14.41189899
vt -0.89827407 -14.49179175
vt -0.82098797 -14.56828855
vt -0.73962685 -14.64143689
vt -0.65412192 -14.71127333
vt -0.56440259 -14.77782289
vt -0.47039898 -14.84109909
vt -0.37204411 -14.90110454
vt -0.26927581 -14.95783203
vt -0.16203800 -15.01126598
vt -0.05028168 -15.06138401
vt 0.06603471 -15.10815858
vt 0.18694520 -15.15155857
vt 0.31247658 -15.19155070
vt 0.44264895 -15.22810073
vt 0.57747630 -15.26117447
vt 0.71872303 -15.29111069
vt 1.24538201 -15.39433426
vt 1.38618196 -15.41969687
vt 1.51951240 -15.43925622
vt 1.64705026 -15.45338496
vt 1.76873332 -15.46215733
vt 1.88450264 -15.46566498
vt 1.99430751 -15.46401913
vt 2.09811224 -15.45735201
vt 2.19590513 -15.44581653
vt 2.28770929 -15.42958327
vt 2.37359462 -15.40883327
vt 2.45368923 -15.38374573
vt 2.52818754 -15.35447992
vt 2.59735141 -15.32115244
vt 2.66150100 -15.28381298
vt 2.72099351 -15.24242379
vt 2.77619125 -15.19684903
vt 2.82742445 -15.14685896
vt 2.87495697 -15.09214987
vt 2.91896273 -15.03237614
vt 2.95951757 -14.96718668
vt 2.99660645 -14.89625784
vt 3.03014153 -14.81931675
vt 3.05998530 -14.73615305
vt 3.08597337 -14.64662014
vt 3.10793320 -14.55062909
vt 3.12569771 -14.44813862
vt 3.13911360 -14.33914398
vt 3.14804558 -14.22366645
vt 3.15237763 -14.10174453
vt 3.15201231 -13.97342699
vt 3.14686912 -13.83876771
vt 3.13675747 -13.69605946
vt 0.66783978 14.92151160
vt 0.66286510 14.97016154
vt 0.65683854 15.01445278
vt 0.64963427 15.05619486
vt 0.64132152 15.09537554
vt 0.63197734 15.13199218
vt 0.62168571 15.16605508
vt 0.61053559 15.19759120
vt 0.59861777 15.22664805
vt 0.58602016 15.25329725
vt 0.57282163 15.27763715
vt 0.55908437 15.29979375
vt 0.54484546 15.31991909
vt 0.53010873 15.33818636
vt 0.51483805 15.35478166
vt 0.49895380 15.36989273
vt 0.48233352 15.38369589
vt 0.46481752 15.39634305
vt 0.44621882 15.40795092
vt 0.42633612 15.41859403
vt 0.40496774 15.42830262
vt 0.38192446 15.43706520
vt 0.35703951 15.44483482
vt 0.33017495 15.45153760
vt 0.30122430 15.45708186
vt 0.27011199 15.46136669
vt 0.23679065 15.46428906
vt 0.20123694 15.46574919
vt 0.16344695 15.46565421
vt 0.12343169 15.46392025
vt 0.08121296 15.46047332
vt 0.03681989 15.45524948
vt -0.01153116 15.44791871
vt -1.05838355 15.27219323
vt -2.31390359 14.76028592
vt -2.37330483 14.73502461
vt -2.42872436 14.70941045
vt -2.48179398 14.68278097
vt -2.53253363 14.65516037
vt -2.58096799 14.62657139
vt -2.62712669 14.59703452
vt -2.67104437 14.56656697
vt -2.71276053 14.53518167
vt -2.75231919 14.50288624
vt -2.78976818 14.46968195
vt -2.82515826 14.43556285
vt -2.85854188 14.40051508
vt -2.88997175 14.36451648
vt -2.91949924 14.32753653
vt -2.94717276 14.28953675
vt -2.97303605 14.25047141
vt -2.99712682 14.21028877
vt -3.01947551 14.16893247
vt -3.04010449 14.12634333
vt -3.05902761 14.08246109
vt -3.07625026 14.03722622
vt -3.09176967 13.99058163
vt -3.10557575 13.94247400
vt -3.11765197 13.89285498
vt -3.12797654 13.84168196
vt -3.13652364 13.78891851
vt -3.14326453 13.73453457
vt -3.14816874 13.67850631
vt -3.15120504 13.62081584
vt -3.15234223 13.56145070
vt -3.15154991 13.50040332
vt -3.14872197 13.43591578
vt -2.09463181 -12.65068103
vt -2.08311047 -12.80592166
vt -2.06680835 -12.95945618
vt -2.04582407 -13.10949067
vt -2.02012187 -13.25601586
vt -1.98966513 -13.39901643
vt -1.95441726 -13.53847031
vt -1.91434285 -13.67434796
vt -1.86940904 -13.80661190
vt -1.81958706 -13.93521656
vt -1.76485393 -14.06010850
vt -1.70519416 -14.18122705
vt -1.64060133 -14.29850549
vt -1.57107946 -14.41187277
vt -1.49664384 -14.52125558
vt -1.41732148 -14.62658082
vt -1.33315076 -14.72777825
vt -1.24418053 -14.82478303
vt -1.15046847 -14.91753804
vt -1.05207903 -15.00599582
vt -0.94908102 -15.09011979
vt -0.84154502 -15.16988491
vt -0.72954092 -15.24527770
vt -0.61313568 -15.31629552
vt -0.49239150 -15.38294559
vt -0.36736442 -15.44524349
vt -0.23810348 -15.50321161
vt -0.10465022 -15.55687747
vt 0.03296133 -15.60627219
vt 0.17470436 -15.65142908
vt 0.32055881 -15.69238235
vt 0.47051066 -15.72916619
vt 0.62279551 -15.76144186
vt 1.15666883 -15.86607942
vt 1.30877971 -15.89347949
vt 1.45823281 -15.91540401
vt 1.60335118 -15.93148033
vt 1.74419705 -15.94163419
vt 1.88082935 -15.94577395
vt 2.01329880 -15.94378839
vt 2.14164108 -15.93554528
vt 2.26586790 -15.92089171
vt 2.38595615 -15.89965711
vt 2.50183592 -15.87166042
vt 2.61337909 -15.83672244
vt 2.72039128 -15.79468393
vt 2.82261060 -15.74542826
vt 2.91971688 -15.68890575
vt 3.01135295 -15.62515415
vt 3.09715648 -15.55430930
vt 3.17679725 -15.47660095
vt 3.25001139 -15.39233278
vt 3.31662499 -15.30185044
vt 3.37656219 -15.20550502
vt 3.42983806 -15.10362015
vt 3.47654043 -14.99646871
vt 3.51680680 -14.88426106
vt 3.55080157 -14.76714381
vt 3.57869726 -14.64520588
vt 3.60066097 -14.51848854
vt 3.61684601 -14.38699655
vt 3.62738764 -14.25070863
vt 3.63240190 -14.10958628
vt 3.63198622 -13.96358074
vt 3.62622111 -13.81263812
vt 3.61529716 -13.65846564
vt 1.14573659 14.96655708
vt 1.13956124 15.02694895
vt 1.13130158 15.08765202
vt 1.12108343 15.14685674
vt 1.10883759 15.20457535
vt 1.09448698 15.26081050
vt 1.07794763 15.31555189
vt 1.05913059 15.36877254
vt 1.03794506 15.42042497
vt 1.01430312 15.47043753
vt 0.98812592 15.51871190
vt 0.95935126 15.56512205
vt 0.92794206 15.60951596
vt 0.89389449 15.65172044
vt 0.85724468 15.69154938
vt 0.81807226 15.72881504
vt 0.77649967 15.76334111
vt 0.73268662 15.79497567
vt 0.68682007 15.82360202
vt 0.63910134 15.84914562
vt 0.58973209 15.87157623
vt 0.53890156 15.89090535
vt 0.48677651 15.90717993
vt 0.43349488 15.92047384
vt 0.37916316 15.93087876
vt 0.32385690 15.93849561
vt 0.26762348 15.94342742
vt 0.21048625 15.94577395
vt 0.15244910 15.94562809
vt 0.09350104 15.94307371
vt 0.03362026 15.93818478
vt -0.02722237 15.93102527
vt -0.08724321 15.92192518
vt -1.19032831 15.73676044
vt -2.49844918 15.20340644
vt -2.56796492 15.17384379
vt -2.63710577 15.14188781
vt -2.70423994 15.10820097
vt -2.76934749 15.07275906
vt -2.83240373 15.03553935
vt -2.89337905 14.99652135
vt -2.95223879 14.95568784
vt -3.00894345 14.91302590
vt -3.06344903 14.86852790
vt -3.11570768 14.82219258
vt -3.16566864 14.77402589
vt -3.21327948 14.72404168
vt -3.25848747 14.67226212
vt -3.30124124 14.61871772
vt -3.34149241 14.56344698
vt -3.37919720 14.50649560
vt -3.41431792 14.44791535
vt -3.44682412 14.38776256
vt -3.47669345 14.32609644
vt -3.50391203 14.26297724
vt -3.52847451 14.19846447
vt -3.55038362 14.13261525
vt -3.56964947 14.06548288
vt -3.58628859 13.99711571
vt -3.60032276 13.92755637
vt -3.61177782 13.85684126
vt -3.62068249 13.78500047
vt -3.62706724 13.71205780
vt -3.63096332 13.63803118
vt -3.63240190 13.56293303
vt -3.63141341 13.48677094
vt -3.62810394 13.41130283
vn 0.00000000 0.00000000 1.00000000
f 1/1/1 135/135/1 2/2/1
f 1/1/1 134/134/1 135/135/1
f 267/267/1 268/268/1 401/401/1
f 267/267/1 401/401/1 400/400/1
f 1/1/1 268/268/1 2/2/1
f 1/1/1 267/267/1 268/268/1
f 134/134/1 135/135/1 401/401/1
f 134/134/1 401/401/1 400/400/1
f 2/2/1 136/136/1 3/3/1
f 2/2/1 135/135/1 136/136/1
f 268/268/1 269/269/1 402/402/1
f 268/268/1 402/402/1 401/401/1
f 2/2/1 269/269/1 3/3/1
f 2/2/1 268/268/1 269/269/1
f 135/135/1 136/136/1 402/402/1
f 135/135/1 402/402/1 401/401/1
f 3/3/1 137/137/1 4/4/1
f 3/3/1 136/136/1 137/137/1
f 269/269/1 270/270/1 403/403/1
f 269/269/1 403/403/1 402/402/1
f 3/3/1 270/270/1 4/4/1
f 3/3/1 269/269/1 270/270/1
f 136/136/1 137/137/1 403/403/1
f 136/136/1 403/403/1 402/402/1
f 4/4/1 138/138/1 5/5/1
f 4/4/1 137/137/1 138/138/1
f 270/270/1 271/271/1 404/404/1
f 270/270/1 404/404/1 403/403/1
f 4/4/1 271/271/1 5/5/1
f 4/4/1 270/270/1 271/271/1
f 137/137/1 138/138/1 404/404/1
f 137/137/1 404/404/1 403/403/1
f 5/5/1 139/139/1 6/6/1
f 5/5/1 138/138/1 139/139/1
f 271/271/1 272/272/1 405/405/1
f 271/271/1 405/405/1 404/404/1
f 5/5/1 272/272/1 6/6/1
f 5/5/1 271/271/1 272/272/1
f 138/138/1 139/139/1 405/405/1
f 138/138/1 405/405/1 404/404/1
f 6/6/1 140/140/1 7/7/1
f 6/6/1 139/139/1 140/140/1
f 272/272/1 273/273/1 406/406/1
f 272/272/1 406/406/1 405/405/1
f 6/6/1 273/273/1 7/7/1
f 6/6/1 272/272/1 273/273/1
f 139/139/1 140/140/1 406/406/1
f 139/139/1 406/406/1 405/405/1
f 7/7/1 141/141/1 8/8/1
f 7/7/1 140/140/1 141/141/1
f 273/273/1 274/274/1 407/407/1
f 273/273/1 407/407/1 406/406/1
f 7/7/1 274/274/1 8/8/1
f 7/7/1 273/273/1 274/274/1
f 140/140/1 141/141/1 407/407/1
f 140/140/1 407/407/1 406/406/1
f 8/8/1 142/142/1 9/9/1
f 8/8/1 141/141/1 142/142/1
f 274/274/1 275/275/1 408/408/1
f 274/274/1 408/408/1 407/407/1
f 8/8/1 275/275/1 9/9/1
f 8/8/1 274/274/1 275/275/1
f 141/141/1 142/142/1 408/408/1
f 141/141/1 408/408/1 407/407/1
f 9/9/1 143/143/1 10/10/1
f 9/9/1 142/142/1 143/143/1
f 275/275/1 276/276/1 409/409/1
f 275/275/1 409/409/1 408/408/1
f 9/9/1 276/276/1 10/10/1
f 9/9/1 275/275/1 276/276/1
f 142/142/1 143/143/1 409/409/1
f 142/142/1 409/409/1 408/408/1
f 10/10/1 144/144/1 11/11/1
f 10/10/1 143/143/1 144/144/1
f 276/276/1 277/277/1 410/410/1
f 276/276/1 410/410/1 409/409/1
f 10/10/1 277/277/1 11/11/1
f 10/10/1 276/276/1 277/277/1
f 143/143/1 144/144/1 410/410/1
f 143/143/1 410/410/1 409/409/1
f 11/11/1 145/145/1 12/12/1
f 11/11/1 144/144/1 145/145/1
f 277/277/1 278/278/1 411/411/1
f 277/277/1 411/411/1 410/410/1
f 11/11/1 278/278/1 12/12/1
f 11/11/1 277/277/1 278/278/1
f 144/144/1 145/145/1 411/411/1
f 144/144/1 411/411/1 410/410/1
f 12/12/1 146/146/1 13/13/1
f 12/12/1 145/145/1 146/146/1
f 278/278/1 279/279/1 412/412/1
f 278/278/1 412/412/1 411/411/1
f 12/12/1 279/279/1 13/13/1
f 12/12/1 278/278/1 279/279/1
f 145/145/1 146/146/1 412/412/1
f 145/145/1 412/412/1 411/411/1
f 13/13/1 147/147/1 14/14/1
f 13/13/1 146/146/1 147/147/1
f 279/279/1 280/280/1 413/413/1
f 279/279/1 413/413/1 412/412/1
f 13/13/1 280/280/1 14/14/1
f 13/13/1 279/279/1 280/280/1
f 146/146/1 147/147/1 413/413/1
f 146/146/1 413/413/1 412/412/1
f 14/14/1 148/148/1 15/15/1
f 14/14/1 147/147/1 148/148/1
f 280/280/1 281/281/1 414/414/1
f 280/280/1 414/414/1 413/413/1
f 14/14/1 281/281/1 15/15/1
f 14/14/1 280/280/1 281/281/1
f 147/147/1 148/148/1 414/414/1
f 147/147/1 414/414/1 413/413/1
f 15/15/1 149/149/1 16/16/1
f 15/15/1 148/148/1 149/149/1
f 281/281/1 282/282/1 415/415/1
f 281/281/1 415/415/1 414/414/1
f 15/15/1 282/282/1 16/16/1
f 15/15/1 281/281/1 282/282/1
f 148/148/1 149/149/1 415/415/1
f 148/148/1 415/415/1 414/414/1
f 16/16/1 150/150/1 17/17/1
f 16/16/1 149/149/1 150/150/1
f 282/282/1 283/283/1 416/416/1
f 282/282/1 416/416/1 415/415/1
f 16/16/1 283/283/1 17/17/1
f 16/16/1 282/282/1 283/283/1
f 149/149/1 150/150/1 416/416/1
f 149/149/1 416/416/1 415/415/1
f 17/17/1 151/151/1 18/18/1
f 17/17/1 150/150/1 151/151/1
f 283/283/1 284/284/1 417/417/1
f 283/283/1 417/417/1 416/416/1
f 17/17/1 284/284/1 18/18/1
f 17/17/1 283/283/1 284/284/1
f 150/150/1 151/151/1 417/417/1
f 150/150/1 417/417/1 416/416/1
f 18/18/1 152/152/1 19/19/1
f 18/18/1 151/151/1 152/152/1
f 284/284/1 285/285/1 418/418/1
f 284/284/1 418/418/1 417/417/1
f 18/18/1 285/285/1 19/19/1
f 18/18/1 284/284/1 285/285/1
f 151/151/1 152/152/1 418/418/1
f 151/151/1 418/418/1 417/417/1
f 19/19/1 153/153/1 20/20/1
f 19/19/1 152/152/1 153/153/1
f 285/285/1 286/286/1 419/419/1
f 285/285/1 419/419/1 418/418/1
f 19/19/1 286/286/1 20/20/1
f 19/19/1 285/285/1 286/286/1
f 152/152/1 153/153/1 419/419/1
f 152/152/1 419/419/1 418/418/1
f 20/20/1 154/154/1 21/21/1
f 20/20/1 153/153/1 154/154/1
f 286/286/1 287/287/1 420/420/1
f 286/286/1 420/420/1 419/419/1
f 20/20/1 287/287/1 21/21/1
f 20/20/1 286/286/1 287/287/1
f 153/153/1 154/154/1 420/420/1
f 153/153/1 420/420/1 419/419/1
f 21/21/1 155/155/1 22/22/1
f 21/21/1 154/154/1 155/155/1
f 287/287/1 288/288/1 421/421/1
f 287/287/1 421/421/1 420/420/1
f 21/21/1 288/288/1 22/22/1
f 21/21/1 287/287/1 288/288/1
f 154/154/1 155/155/1 421/421/1
f 154/154/1 421/421/1 420/420/1
f 22/22/1 156/156/1 23/23/1
f 22/22/1 155/155/1 156/156/1
f 288/288/1 289/289/1 422/422/1
f 288/288/1 422/422/1 421/421/1
f 22/22/1 289/289/1 23/23/1
f 22/22/1 288/288/1 289/289/1
f 155/155/1 156/156/1 422/422/1
f 155/155/1 422/422/1 421/421/1
f 23/23/1 157/157/1 24/24/1
f 23/23/1 156/156/1 157/157/1
f 289/289/1 290/290/1 423/423/1
f 289/289/1 423/423/1 422/422/1
f 23/23/1 290/290/1 24/24/1
f 23/23/1 289/289/1 290/290/1
f 156/156/1 157/157/1 423/423/1
f 156/156/1 423/423/1 422/422/1
f 24/24/1 158/158/1 25/25/1
f 24/24/1 157/157/1 158/158/1
f 290/290/1 291/291/1 424/424/1
f 290/290/1 424/424/1 423/423/1
f 24/24/1 291/291/1 25/25/1
f 24/24/1 290/290/1 291/291/1
f 157/157/1 158/158/1 424/424/1
f 157/157/1 424/424/1 423/423/1
f 25/25/1 159/159/1 26/26/1
f 25/25/1 158/158/1 159/159/1
f 291/291/1 292/292/1 425/425/1
f 291/291/1 425/425/1 424/424/1
f 25/25/1 292/292/1 26/26/1
f 25/25/1 291/291/1 292/292/1
f 158/158/1 159/159/1 425/425/1
f 158/158/1 425/425/1 424/424/1
f 26/26/1 160/160/1 27/27/1
f 26/26/1 159/159/1 160/160/1
f 292/292/1 293/293/1 426/426/1
f 292/292/1 426/426/1 425/425/1
f 26/26/1 293/293/1 27/27/1
f 26/26/1 292/292/1 293/293/1
f 159/159/1 160/160/1 426/426/1
f 159/159/1 426/426/1 425/425/1
f 27/27/1 161/161/1 28/28/1
f 27/27/1 160/160/1 161/161/1
f 293/293/1 294/294/1 427/427/1
f 293/293/1 427/427/1 426/426/1
f 27/27/1 294/294/1 28/28/1
f 27/27/1 293/293/1 294/294/1
f 160/160/1 161/161/1 427/427/1
f 160/160/1 427/427/1 426/426/1
f 28/28/1 162/162/1 29/29/1
f 28/28/1 161/161/1 162/162/1
f 294/294/1 295/295/1 428/428/1
f 294/294/1 428/428/1 427/427/1
f 28/28/1 295/295/1 29/29/1
f 28/28/1 294/294/1 295/295/1
f 161/161/1 162/162/1 428/428/1
f 161/161/1 428/428/1 427/427/1
f 29/29/1 163/163/1 30/30/1
f 29/29/1 162/162/1 163/163/1
f 295/295/1 296/296/1 429/429/1
f 295/295/1 429/429/1 428/428/1
f 29/29/1 296/296/1 30/30/1
f 29/29/1 295/295/1 296/296/1
f 162/162/1 163/163/1 429/429/1
f 162/162/1 429/429/1 428/428/1
f 30/30/1 164/164/1 31/31/1
f 30/30/1 163/163/1 164/164/1
f 296/296/1 297/297/1 430/430/1
f 296/296/1 430/430/1 429/429/1
f 30/30/1 297/297/1 31/31/1
f 30/30/1 296/296/1 297/297/1
f 163/163/1 164/164/1 430/430/1
f 163/163/1 430/430/1 429/429/1
f 31/31/1 165/165/1 32/32/1
f 31/31/1 164/164/1 165/165/1
f 297/297/1 298/298/1 431/431/1
f 297/297/1 431/431/1 430/430/1
f 31/31/1 298/298/1 32/32/1
f 31/31/1 297/297/1 298/298/1
f 164/164/1 165/165/1 431/431/1
f 164/164/1 431/431/1 430/430/1
f 32/32/1 166/166/1 33/33/1
f 32/32/1 165/165/1 166/166/1
f 298/298/1 299/299/1 432/432/1
f 298/298/1 432/432/1 431/431/1
f 32/32/1 299/299/1 33/33/1
f 32/32/1 298/298/1 299/299/1
f 165/165/1 166/166/1 432/432/1
f 165/165/1 432/432/1 431/431/1
f 33/33/1 167/167/1 34/34/1
f 33/33/1 166/166/1 167/167/1
f 299/299/1 300/300/1 433/433/1
f 299/299/1 433/433/1 432/432/1
f 33/33/1 300/300/1 34/34/1
f 33/33/1 299/299/1 300/300/1
f 166/166/1 167/167/1 433/433/1
f 166/166/1 433/433/1 432/432/1
f 34/34/1 168/168/1 35/35/1
f 34/34/1 167/167/1 168/168/1
f 300/300/1 301/301/1 434/434/1
f 300/300/1 434/434/1 433/433/1
f 34/34/1 301/301/1 35/35/1
f 34/34/1 300/300/1 301/301/1
f 167/167/1 168/168/1 434/434/1
f 167/167/1 434/434/1 433/433/1
f 35/35/1 169/169/1 36/36/1
f 35/35/1 168/168/1 169/169/1
f 301/301/1 302/302/1 435/435/1
f 301/301/1 435/435/1 434/434/1
f 35/35/1 302/302/1 36/36/1
f 35/35/1 301/301/1 302/302/1
f 168/168/1 169/169/1 435/435/1
f 168/168/1 435/435/1 434/434/1
f 36/36/1 170/170/1 37/37/1
f 36/36/1 169/169/1 170/170/1
f 302/302/1 303/303/1 436/436/1
f 302/302/1 436/436/1 435/435/1
f 36/36/1 303/303/1 37/37/1
f 36/36/1 302/302/1 303/303/1
f 169/169/1 170/170/1 436/436/1
f 169/169/1 436/436/1 435/435/1
f 37/37/1 171/171/1 38/38/1
f 37/37/1 170/170/1 171/171/1
f 303/303/1 304/304/1 437/437/1
f 303/303/1 437/437/1 436/436/1
f 37/37/1 304/304/1 38/38/1
f 37/37/1 303/303/1 304/304/1
f 170/170/1 171/171/1 437/437/1
f 170/170/1 437/437/1 436/436/1
f 38/38/1 172/172/1 39/39/1
f 38/38/1 171/171/1 172/172/1
f 304/304/1 305/305/1 438/438/1
f 304/304/1 438/438/1 437/437/1
f 38/38/1 305/305/1 39/39/1
f 38/38/1 304/304/1 305/305/1
f 171/171/1 172/172/1 438/438/1
f 171/171/1 438/438/1 437/437/1
f 39/39/1 173/173/1 40/40/1
f 39/39/1 172/172/1 173/173/1
f 305/305/1 306/306/1 439/439/1
f 305/305/1 439/439/1 438/438/1
f 39/39/1 306/306/1 40/40/1
f 39/39/1 305/305/1 306/306/1
f 172/172/1 173/173/1 439/439/1
f 172/172/1 439/439/1 438/438/1
f 40/40/1 174/174/1 41/41/1
f 40/40/1 173/173/1 174/174/1
f 306/306/1 307/307/1 440/440/1
f 306/306/1 440/440/1 439/439/1
f 40/40/1 307/307/1 41/41/1
f 40/40/1 306/306/1 307/307/1
f 173/173/1 174/174/1 440/440/1
f 173/173/1 440/440/1 439/439/1
f 41/41/1 175/175/1 42/42/1
f 41/41/1 174/174/1 175/175/1
f 307/307/1 308/308/1 441/441/1
f 307/307/1 441/441/1 440/440/1
f 41/41/1 308/308/1 42/42/1
f 41/41/1 307/307/1 308/308/1
f 174/174/1 175/175/1 441/441/1
f 174/174/1 441/441/1 440/440/1
f 42/42/1 176/176/1 43/43/1
f 42/42/1 175/175/1 176/176/1
f 308/308/1 309/309/1 442/442/1
f 308/308/1 442/442/1 441/441/1
f 42/42/1 309/309/1 43/43/1
f 42/42/1 308/308/1 309/309/1
f 175/175/1 176/176/1 442/442/1
f 175/175/1 442/442/1 441/441/1
f 43/43/1 177/177/1 44/44/1
f 43/43/1 176/176/1 177/177/1
f 309/309/1 310/310/1 443/443/1
f 309/309/1 443/443/1 442/442/1
f 43/43/1 310/310/1 44/44/1
f 43/43/1 309/309/1 310/310/1
f 176/176/1 177/177/1 443/443/1
f 176/176/1 443/443/1 442/442/1
f 44/44/1 178/178/1 45/45/1
f 44/44/1 177/177/1 178/178/1
f 310/310/1 311/311/1 444/444/1
f 310/310/1 444/444/1 443/443/1
f 44/44/1 311/311/1 45/45/1
f 44/44/1 310/310/1 311/311/1
f 177/177/1 178/178/1 444/444/1
f 177/177/1 444/444/1 443/443/1
f 45/45/1 179/179/1 46/46/1
f 45/45/1 178/178/1 179/179/1
f 311/311/1 312/312/1 445/445/1
f 311/311/1 445/445/1 444/444/1
f 45/45/1 312/312/1 46/46/1
f 45/45/1 311/311/1 312/312/1
f 178/178/1 179/179/1 445/445/1
f 178/178/1 445/445/1 444/444/1
f 46/46/1 180/180/1 47/47/1
f 46/46/1 179/179/1 180/180/1
f 312/312/1 313/313/1 446/446/1
f 312/312/1 446/446/1 445/445/1
f 46/46/1 313/313/1 47/47/1
f 46/46/1 312/312/1 313/313/1
f 179/179/1 180/180/1 446/446/1
f 179/179/1 446/446/1 445/445/1
f 47/47/1 181/181/1 48/48/1
f 47/47/1 180/180/1 181/181/1
f 313/313/1 314/314/1 447/447/1
f 313/313/1 447/447/1 446/446/1
f 47/47/1 314/314/1 48/48/1
f 47/47/1 313/313/1 314/314/1
f 180/180/1 181/181/1 447/447/1
f 180/180/1 447/447/1 446/446/1
f 48/48/1 182/182/1 49/49/1
f 48/48/1 181/181/1 182/182/1
f 314/314/1 315/315/1 448/448/1
f 314/314/1 448/448/1 447/447/1
f 48/48/1 315/315/1 49/49/1
f 48/48/1 314/314/1 315/315/1
f 181/181/1 182/182/1 448/448/1
f 181/181/1 448/448/1 447/447/1
f 49/49/1 183/183/1 50/50/1
f 49/49/1 182/182/1 183/183/1
f 315/315/1 316/316/1 449/449/1
f 315/315/1 449/449/1 448/448/1
f 49/49/1 316/316/1 50/50/1
f 49/49/1 315/315/1 316/316/1
f 182/182/1 183/183/1 449/449/1
f 182/182/1 449/449/1 448/448/1
f 50/50/1 184/184/1 51/51/1
f 50/50/1 183/183/1 184/184/1
f 316/316/1 317/317/1 450/450/1
f 316/316/1 450/450/1 449/449/1
f 50/50/1 317/317/1 51/51/1
f 50/50/1 316/316/1 317/317/1
f 183/183/1 184/184/1 450/450/1
f 183/183/1 450/450/1 449/449/1
f 51/51/1 185/185/1 52/52/1
f 51/51/1 184/184/1 185/185/1
f 317/317/1 318/318/1 451/451/1
f 317/317/1 451/451/1 450/450/1
f 51/51/1 318/318/1 52/52/1
f 51/51/1 317/317/1 318/318/1
f 184/184/1 185/185/1 451/451/1
f 184/184/1 451/451/1 450/450/1
f 52/52/1 186/186/1 53/53/1
f 52/52/1 185/185/1 186/186/1
f 318/318/1 319/319/1 452/452/1
f 318/318/1 452/452/1 451/451/1
f 52/52/1 319/319/1 53/53/1
f 52/52/1 318/318/1 319/319/1
f 185/185/1 186/186/1 452/452/1
f 185/185/1 452/452/1 451/451/1
f 53/53/1 187/187/1 54/54/1
f 53/53/1 186/186/1 187/187/1
f 319/319/1 320/320/1 453/453/1
f 319/319/1 453/453/1 452/452/1
f 53/53/1 320/320/1 54/54/1
f 53/53/1 319/319/1 320/320/1
f 186/186/1 187/187/1 453/453/1
f 186/186/1 453/453/1 452/452/1
f 54/54/1 188/188/1 55/55/1
f 54/54/1 187/187/1 188/188/1
f 320/320/1 321/321/1 454/454/1
f 320/320/1 454/454/1 453/453/1
f 54/54/1 321/321/1 55/55/1
f 54/54/1 320/320/1 321/321/1
f 187/187/1 188/188/1 454/454/1
f 187/187/1 454/454/1 453/453/1
f 55/55/1 189/189/1 56/56/1
f 55/55/1 188/188/1 189/189/1
f 321/321/1 322/322/1 455/455/1
f 321/321/1 455/455/1 454/454/1
f 55/55/1 322/322/1 56/56/1
f 55/55/1 321/321/1 322/322/1
f 188/188/1 189/189/1 455/455/1
f 188/188/1 455/455/1 454/454/1
f 56/56/1 190/190/1 57/57/1
f 56/56/1 189/189/1 190/190/1
f 322/322/1 323/323/1 456/456/1
f 322/322/1 456/456/1 455/455/1
f 56/56/1 323/323/1 57/57/1
f 56/56/1 322/322/1 323/323/1
f 189/189/1 190/190/1 456/456/1
f 189/189/1 456/456/1 455/455/1
f 57/57/1 191/191/1 58/58/1
f 57/57/1 190/190/1 191/191/1
f 323/323/1 324/324/1 457/457/1
f 323/323/1 457/457/1 456/456/1
f 57/57/1 324/324/1 58/58/1
f 57/57/1 323/323/1 324/324/1
f 190/190/1 191/191/1 457/457/1
f 190/190/1 457/457/1 456/456/1
f 58/58/1 192/192/1 59/59/1
f 58/58/1 191/191/1 192/192/1
f 324/324/1 325/325/1 458/458/1
f 324/324/1 458/458/1 457/457/1
f 58/58/1 325/325/1 59/59/1
f 58/58/1 324/324/1 325/325/1
f 191/191/1 192/192/1 458/458/1
f 191/191/1 458/458/1 457/457/1
f 59/59/1 193/193/1 60/60/1
f 59/59/1 192/192/1 193/193/1
f 325/325/1 326/326/1 459/459/1
f 325/325/1 459/459/1 458/458/1
f 59/59/1 326/326/1 60/60/1
f 59/59/1 325/325/1 326/326/1
f 192/192/1 193/193/1 459/459/1
f 192/192/1 459/459/1 458/458/1
f 60/60/1 194/194/1 61/61/1
f 60/60/1 193/193/1 194/194/1
f 326/326/1 327/327/1 460/460/1
f 326/326/1 460/460/1 459/459/1
f 60/60/1 327/327/1 61/61/1
f 60/60/1 326/326/1 327/327/1
f 193/193/1 194/194/1 460/460/1
f 193/193/1 460/460/1 459/459/1
f 61/61/1 195/195/1 62/62/1
f 61/61/1 194/194/1 195/195/1
f 327/327/1 328/328/1 461/461/1
f 327/327/1 461/461/1 460/460/1
f 61/61/1 328/328/1 62/62/1
f 61/61/1 327/327/1 328/328/1
f 194/194/1 195/195/1 461/461/1
f 194/194/1 461/461/1 460/460/1
f 62/62/1 196/196/1 63/63/1
f 62/62/1 195/195/1 196/196/1
f 328/328/1 329/329/1 462/462/1
f 328/328/1 462/462/1 461/461/1
f 62/62/1 329/329/1 63/63/1
f 62/62/1 328/328/1 329/329/1
f 195/195/1 196/196/1 462/462/1
f 195/195/1 462/462/1 461/461/1
f 63/63/1 197/197/1 64/64/1
f 63/63/1 196/196/1 197/197/1
f 329/329/1 330/330/1 463/463/1
f 329/329/1 463/463/1 462/462/1
f 63/63/1 330/330/1 64/64/1
f 63/63/1 329/329/1 330/330/1
f 196/196/1 197/197/1 463/463/1
f 196/196/1 463/463/1 462/462/1
f 64/64/1 198/198/1 65/65/1
f 64/64/1 197/197/1 198/198/1
f 330/330/1 331/331/1 464/464/1
f 330/330/1 464/464/1 463/463/1
f 64/64/1 331/331/1 65/65/1
f 64/64/1 330/330/1 331/331/1
f 197/197/1 198/198/1 464/464/1
f 197/197/1 464/464/1 463/463/1
f 65/65/1 199/199/1 66/66/1
f 65/65/1 198/198/1 199/199/1
f 331/331/1 332/332/1 465/465/1
f 331/331/1 465/465/1 464/464/1
f 65/65/1 332/332/1 66/66/1
f 65/65/1 331/331/1 332/332/1
f 198/198/1 199/199/1 465/465/1
f 198/198/1 465/465/1 464/464/1
f 66/66/1 200/200/1 67/67/1
f 66/66/1 199/199/1 200/200/1
f 332/332/1 333/333/1 466/466/1
f 332/332/1 466/466/1 465/465/1
f 66/66/1 333/333/1 67/67/1
f 66/66/1 332/332/1 333/333/1
f 199/199/1 200/200/1 466/466/1
f 199/199/1 466/466/1 465/465/1
f 67/67/1 201/201/1 68/68/1
f 67/67/1 200/200/1 201/201/1
f 333/333/1 334/334/1 467/467/1
f 333/333/1 467/467/1 466/466/1
f 67/67/1 334/334/1 68/68/1
f 67/67/1 333/333/1 334/334/1
f 200/200/1 201/201/1 467/467/1
f 200/200/1 467/467/1 466/466/1
f 68/68/1 202/202/1 69/69/1
f 68/68/1 201/201/1 202/202/1
f 334/334/1 335/335/1 468/468/1
f 334/334/1 468/468/1 467/467/1
f 68/68/1 335/335/1 69/69/1
f 68/68/1 334/334/1 335/335/1
f 201/201/1 202/202/1 468/468/1
f 201/201/1 468/468/1 467/467/1
f 69/69/1 203/203/1 70/70/1
f 69/69/1 202/202/1 203/203/1
f 335/335/1 336/336/1 469/469/1
f 335/335/1 469/469/1 468/468/1
f 69/69/1 336/336/1 70/70/1
f 69/69/1 335/335/1 336/336/1
f 202/202/1 203/203/1 469/469/1
f 202/202/1 469/469/1 468/468/1
f 70/70/1 204/204/1 71/71/1
f 70/70/1 203/203/1 204/204/1
f 336/336/1 337/337/1 470/470/1
f 336/336/1 470/470/1 469/469/1
f 70/70/1 337/337/1 71/71/1
f 70/70/1 336/336/1 337/337/1
f 203/203/1 204/204/1 470/470/1
f 203/203/1 470/470/1 469/469/1
f 71/71/1 205/205/1 72/72/1
f 71/71/1 204/204/1 205/205/1
f 337/337/1 338/338/1 471/471/1
f 337/337/1 471/471/1 470/470/1
f 71/71/1 338/338/1 72/72/1
f 71/71/1 337/337/1 338/338/1
f 204/204/1 205/205/1 471/471/1
f 204/204/1 471/471/1 470/470/1
f 72/72/1 206/206/1 73/73/1
f 72/72/1 205/205/1 206/206/1
f 338/338/1 339/339/1 472/472/1
f 338/338/1 472/472/1 471/471/1
f 72/72/1 339/339/1 73/73/1
f 72/72/1 338/338/1 339/339/1
f 205/205/1 206/206/1 472/472/1
f 205/205/1 472/472/1 471/471/1
f 73/73/1 207/207/1 74/74/1
f 73/73/1 206/206/1 207/207/1
f 339/339/1 340/340/1 473/473/1
f 339/339/1 473/473/1 472/472/1
f 73/73/1 340/340/1 74/74/1
f 73/73/1 339/339/1 340/340/1
f 206/206/1 207/207/1 473/473/1
f 206/206/1 473/473/1 472/472/1
f 74/74/1 208/208/1 75/75/1
f 74/74/1 207/207/1 208/208/1
f 340/340/1 341/341/1 474/474/1
f 340/340/1 474/474/1 473/473/1
f 74/74/1 341/341/1 75/75/1
f 74/74/1 340/340/1 341/341/1
f 207/207/1 208/208/1 474/474/1
f 207/207/1 474/474/1 473/473/1
f 75/75/1 209/209/1 76/76/1
f 75/75/1 208/208/1 209/209/1
f 341/341/1 342/342/1 475/475/1
f 341/341/1 475/475/1 474/474/1
f 75/75/1 342/342/1 76/76/1
f 75/75/1 341/341/1 342/342/1
f 208/208/1 209/209/1 475/475/1
f 208/208/1 475/475/1 474/474/1
f 76/76/1 210/210/1 77/77/1
f 76/76/1 209/209/1 210/210/1
f 342/342/1 343/343/1 476/476/1
f 342/342/1 476/476/1 475/475/1
f 76/76/1 343/343/1 77/77/1
f 76/76/1 342/342/1 343/343/1
f 209/209/1 210/210/1 476/476/1
f 209/209/1 476/476/1 475/475/1
f 77/77/1 211/211/1 78/78/1
f 77/77/1 210/210/1 211/211/1
f 343/343/1 344/344/1 477/477/1
f 343/343/1 477/477/1 476/476/1
f 77/77/1 344/344/1 78/78/1
f 77/77/1 343/343/1 344/344/1
f 210/210/1 211/211/1 477/477/1
f 210/210/1 477/477/1 476/476/1
f 78/78/1 212/212/1 79/79/1
f 78/78/1 211/211/1 212/212/1
f 344/344/1 345/345/1 478/478/1
f 344/344/1 478/478/1 477/477/1
f 78/78/1 345/345/1 79/79/1
f 78/78/1 344/344/1 345/345/1
f 211/211/1 212/212/1 478/478/1
f 211/211/1 478/478/1 477/477/1
f 79/79/1 213/213/1 80/80/1
f 79/79/1 212/212/1 213/213/1
f 345/345/1 346/346/1 479/479/1
f 345/345/1 479/479/1 478/478/1
f 79/79/1 346/346/1 80/80/1
f 79/79/1 345/345/1 346/346/1
f 212/212/1 213/213/1 479/479/1
f 212/212/1 479/479/1 478/478/1
f 80/80/1 214/214/1 81/81/1
f 80/80/1 213/213/1 214/214/1
f 346/346/1 347/347/1 480/480/1
f 346/346/1 480/480/1 479/479/1
f 80/80/1 347/347/1 81/81/1
f 80/80/1 346/346/1 347/347/1
f 213/213/1 214/214/1 480/480/1
f 213/213/1 480/480/1 479/479/1
f 81/81/1 215/215/1 82/82/1
f 81/81/1 214/214/1 215/215/1
f 347/347/1 348/348/1 481/481/1
f 347/347/1 481/481/1 480/480/1
f 81/81/1 348/348/1 82/82/1
f 81/81/1 347/347/1 348/348/1
f 214/214/1 215/215/1 481/481/1
f 214/214/1 481/481/1 480/480/1
f 82/82/1 216/216/1 83/83/1
f 82/82/1 215/215/1 216/216/1
f 348/348/1 349/349/1 482/482/1
f 348/348/1 482/482/1 481/481/1
f 82/82/1 349/349/1 83/83/1
f 82/82/1 348/348/1 349/349/1
f 215/215/1 216/216/1 482/482/1
f 215/215/1 482/482/1 481/481/1
f 83/83/1 217/217/1 84/84/1
f 83/83/1 216/216/1 217/217/1
f 349/349/1 350/350/1 483/483/1
f 349/349/1 483/483/1 482/482/1
f 83/83/1 350/350/1 84/84/1
f 83/83/1 349/349/1 350/350/1
f 216/216/1 217/217/1 483/483/1
f 216/216/1 483/483/1 482/482/1
f 84/84/1 218/218/1 85/85/1
f 84/84/1 217/217/1 218/218/1
f 350/350/1 351/351/1 484/484/1
f 350/350/1 484/484/1 483/483/1
f 84/84/1 351/351/1 85/85/1
f 84/84/1 350/350/1 351/351/1
f 217/217/1 218/218/1 484/484/1
f 217/217/1 484/484/1 483/483/1
f 85/85/1 219/219/1 86/86/1
f 85/85/1 218/218/1 219/219/1
f 351/351/1 352/352/1 485/485/1
f 351/351/1 485/485/1 484/484/1
f 85/85/1 352/352/1 86/86/1
f 85/85/1 351/351/1 352/352/1
f 218/218/1 219/219/1 485/485/1
f 218/218/1 485/485/1 484/484/1
f 86/86/1 220/220/1 87/87/1
f 86/86/1 219/219/1 220/220/1
f 352/352/1 353/353/1 486/486/1
f 352/352/1 486/486/1 485/485/1
f 86/86/1 353/353/1 87/87/1
f 86/86/1 352/352/1 353/353/1
f 219/219/1 220/220/1 486/486/1
f 219/219/1 486/486/1 485/485/1
f 87/87/1 221/221/1 88/88/1
f 87/87/1 220/220/1 221/221/1
f 353/353/1 354/354/1 487/487/1
f 353/353/1 487/487/1 486/486/1
f 87/87/1 354/354/1 88/88/1
f 87/87/1 353/353/1 354/354/1
f 220/220/1 221/221/1 487/487/1
f 220/220/1 487/487/1 486/486/1
f 88/88/1 222/222/1 89/89/1
f 88/88/1 221/221/1 222/222/1
f 354/354/1 355/355/1 488/488/1
f 354/354/1 488/488/1 487/487/1
f 88/88/1 355/355/1 89/89/1
f 88/88/1 354/354/1 355/355/1
f 221/221/1 222/222/1 488/488/1
f 221/221/1 488/488/1 487/487/1
f 89/89/1 223/223/1 90/90/1
f 89/89/1 222/222/1 223/223/1
f 355/355/1 356/356/1 489/489/1
f 355/355/1 489/489/1 488/488/1
f 89/89/1 356/356/1 90/90/1
f 89/89/1 355/355/1 356/356/1
f 222/222/1 223/223/1 489/489/1
f 222/222/1 489/489/1 488/488/1
f 90/90/1 224/224/1 91/91/1
f 90/90/1 223/223/1 224/224/1
f 356/356/1 357/357/1 490/490/1
f 356/356/1 490/490/1 489/489/1
f 90/90/1 357/357/1 91/91/1
f 90/90/1 356/356/1 357/357/1
f 223/223/1 224/224/1 490/490/1
f 223/223/1 490/490/1 489/489/1
f 91/91/1 225/225/1 92/92/1
f 91/91/1 224/224/1 225/225/1
f 357/357/1 358/358/1 491/491/1
f 357/357/1 491/491/1 490/490/1
f 91/91/1 358/358/1 92/92/1
f 91/91/1 357/357/1 358/358/1
f 224/224/1 225/225/1 491/491/1
f 224/224/1 491/491/1 490/490/1
f 92/92/1 226/226/1 93/93/1
f 92/92/1 225/225/1 226/226/1
f 358/358/1 359/359/1 492/492/1
f 358/358/1 492/492/1 491/491/1
f 92/92/1 359/359/1 93/93/1
f 92/92/1 358/358/1 359/359/1
f 225/225/1 226/226/1 492/492/1
f 225/225/1 492/492/1 491/491/1
f 93/93/1 227/227/1 94/94/1
f 93/93/1 226/226/1 227/227/1
f 359/359/1 360/360/1 493/493/1
f 359/359/1 493/493/1 492/492/1
f 93/93/1 360/360/1 94/94/1
f 93/93/1 359/359/1 360/360/1
f 226/226/1 227/227/1 493/493/1
f 226/226/1 493/493/1 492/492/1
f 94/94/1 228/228/1 95/95/1
f 94/94/1 227/227/1 228/228/1
f 360/360/1 361/361/1 494/494/1
f 360/360/1 494/494/1 493/493/1
f 94/94/1 361/361/1 95/95/1
f 94/94/1 360/360/1 361/361/1
f 227/227/1 228/228/1 494/494/1
f 227/227/1 494/494/1 493/493/1
f 95/95/1 229/229/1 96/96/1
f 95/95/1 228/228/1 229/229/1
f 361/361/1 362/362/1 495/495/1
f 361/361/1 495/495/1 494/494/1
f 95/95/1 362/362/1 96/96/1
f 95/95/1 361/361/1 362/362/1
f 228/228/1 229/229/1 495/495/1
f 228/228/1 495/495/1 494/494/1
f 96/96/1 230/230/1 97/97/1
f 96/96/1 229/229/1 230/230/1
f 362/362/1 363/363/1 496/496/1
f 362/362/1 496/496/1 495/495/1
f 96/96/1 363/363/1 97/97/1
f 96/96/1 362/362/1 363/363/1
f 229/229/1 230/230/1 496/496/1
f 229/229/1 496/496/1 495/495/1
f 97/97/1 231/231/1 98/98/1
f 97/97/1 230/230/1 231/231/1
f 363/363/1 364/364/1 497/497/1
f 363/363/1 497/497/1 496/496/1
f 97/97/1 364/364/1 98/98/1
f 97/97/1 363/363/1 364/364/1
f 230/230/1 231/231/1 497/497/1
f 230/230/1 497/497/1 496/496/1
f 98/98/1 232/232/1 99/99/1
f 98/98/1 231/231/1 232/232/1
f 364/364/1 365/365/1 498/498/1
f 364/364/1 498/498/1 497/497/1
f 98/98/1 365/365/1 99/99/1
f 98/98/1 364/364/1 365/365/1
f 231/231/1 232/232/1 498/498/1
f 231/231/1 498/498/1 497/497/1
f 99/99/1 233/233/1 100/100/1
f 99/99/1 232/232/1 233/233/1
f 365/365/1 366/366/1 499/499/1
f 365/365/1 499/499/1 498/498/1
f 99/99/1 366/366/1 100/100/1
f 99/99/1 365/365/1 366/366/1
f 232/232/1 233/233/1 499/499/1
f 232/232/1 499/499/1 498/498/1
f 100/100/1 234/234/1 101/101/1
f 100/100/1 233/233/1 234/234/1
f 366/366/1 367/367/1 500/500/1
f 366/366/1 500/500/1 499/499/1
f 100/100/1 367/367/1 101/101/1
f 100/100/1 366/366/1 367/367/1
f 233/233/1 234/234/1 500/500/1
f 233/233/1 500/500/1 499/499/1
f 101/101/1 235/235/1 102/102/1
f 101/101/1 234/234/1 235/235/1
f 367/367/1 368/368/1 501/501/1
f 367/367/1 501/501/1 500/500/1
f 101/101/1 368/368/1 102/102/1
f 101/101/1 367/367/1 368/368/1
f 234/234/1 235/235/1 501/501/1
f 234/234/1 501/501/1 500/500/1
f 102/102/1 236/236/1 103/103/1
f 102/102/1 235/235/1 236/236/1
f 368/368/1 369/369/1 502/502/1
f 368/368/1 502/502/1 501/501/1
f 102/102/1 369/369/1 103/103/1
f 102/102/1 368/368/1 369/369/1
f 235/235/1 236/236/1 502/502/1
f 235/235/1 502/502/1 501/501/1
f 103/103/1 237/237/1 104/104/1
f 103/103/1 236/236/1 237/237/1
f 369/369/1 370/370/1 503/503/1
f 369/369/1 503/503/1 502/502/1
f 103/103/1 370/370/1 104/104/1
f 103/103/1 369/369/1 370/370/1
f 236/236/1 237/237/1 503/503/1
f 236/236/1 503/503/1 502/502/1
f 104/104/1 238/238/1 105/105/1
f 104/104/1 237/237/1 238/238/1
f 370/370/1 371/371/1 504/504/1
f 370/370/1 504/504/1 503/503/1
f 104/104/1 371/371/1 105/105/1
f 104/104/1 370/370/1 371/371/1
f 237/237/1 238/238/1 504/504/1
f 237/237/1 504/504/1 503/503/1
f 105/105/1 239/239/1 106/106/1
f 105/105/1 238/238/1 239/239/1
f 371/371/1 372/372/1 505/505/1
f 371/371/1 505/505/1 504/504/1
f 105/105/1 372/372/1 106/106/1
f 105/105/1 371/371/1 372/372/1
f 238/238/1 239/239/1 505/505/1
f 238/238/1 505/505/1 504/504/1
f 106/106/1 240/240/1 107/107/1
f 106/106/1 239/239/1 240/240/1
f 372/372/1 373/373/1 506/506/1
f 372/372/1 506/506/1 505/505/1
f 106/106/1 373/373/1 107/107/1
f 106/106/1 372/372/1 373/373/1
f 239/239/1 240/240/1 506/506/1
f 239/239/1 506/506/1 505/505/1
f 107/107/1 241/241/1 108/108/1
f 107/107/1 240/240/1 241/241/1
f 373/373/1 374/374/1 507/507/1
f 373/373/1 507/507/1 506/506/1
f 107/107/1 374/374/1 108/108/1
f 107/107/1 373/373/1 374/374/1
f 240/240/1 241/241/1 507/507/1
f 240/240/1 507/507/1 506/506/1
f 108/108/1 242/242/1 109/109/1
f 108/108/1 241/241/1 242/242/1
f 374/374/1 375/375/1 508/508/1
f 374/374/1 508/508/1 507/507/1
f 108/108/1 375/375/1 109/109/1
f 108/108/1 374/374/1 375/375/1
f 241/241/1 242/242/1 508/508/1
f 241/241/1 508/508/1 507/507/1
f 109/109/1 243/243/1 110/110/1
f 109/109/1 242/242/1 243/243/1
f 375/375/1 376/376/1 509/509/1
f 375/375/1 509/509/1 508/508/1
f 109/109/1 376/376/1 110/110/1
f 109/109/1 375/375/1 376/376/1
f 242/242/1 243/243/1 509/509/1
f 242/242/1 509/509/1 508/508/1
f 110/110/1 244/244/1 111/111/1
f 110/110/1 243/243/1 244/244/1
f 376/376/1 377/377/1 510/510/1
f 376/376/1 510/510/1 509/509/1
f 110/110/1 377/377/1 111/111/1
f 110/110/1 376/376/1 377/377/1
f 243/243/1 244/244/1 510/510/1
f 243/243/1 510/510/1 509/509/1
f 111/111/1 245/245/1 112/112/1
f 111/111/1 244/244/1 245/245/1
f 377/377/1 378/378/1 511/511/1
f 377/377/1 511/511/1 510/510/1
f 111/111/1 378/378/1 112/112/1
f 111/111/1 377/377/1 378/378/1
f 244/244/1 245/245/1 511/511/1
f 244/244/1 511/511/1 510/510/1
f 112/112/1 246/246/1 113/113/1
f 112/112/1 245/245/1 246/246/1
f 378/378/1 379/379/1 512/512/1
f 378/378/1 512/512/1 511/511/1
f 112/112/1 379/379/1 113/113/1
f 112/112/1 378/378/1 379/379/1
f 245/245/1 246/246/1 512/512/1
f 245/245/1 512/512/1 511/511/1
f 113/113/1 247/247/1 114/114/1
f 113/113/1 246/246/1 247/247/1
f 379/379/1 380/380/1 513/513/1
f 379/379/1 513/513/1 512/512/1
f 113/113/1 380/380/1 114/114/1
f 113/113/1 379/379/1 380/380/1
f 246/246/1 247/247/1 513/513/1
f 246/246/1 513/513/1 512/512/1
f 114/114/1 248/248/1 115/115/1
f 114/114/1 247/247/1 248/248/1
f 380/380/1 381/381/1 514/514/1
f 380/380/1 514/514/1 513/513/1
f 114/114/1 381/381/1 115/115/1
f 114/114/1 380/380/1 381/381/1
f 247/247/1 248/248/1 514/514/1
f 247/247/1 514/514/1 513/513/1
f 115/115/1 249/249/1 116/116/1
f 115/115/1 248/248/1 249/249/1
f 381/381/1 382/382/1 515/515/1
f 381/381/1 515/515/1 514/514/1
f 115/115/1 382/382/1 116/116/1
f 115/115/1 381/381/1 382/382/1
f 248/248/1 249/249/1 515/515/1
f 248/248/1 515/515/1 514/514/1
f 116/116/1 250/250/1 117/117/1
f 116/116/1 249/249/1 250/250/1
f 382/382/1 383/383/1 516/516/1
f 382/382/1 516/516/1 515/515/1
f 116/116/1 383/383/1 117/117/1
f 116/116/1 382/382/1 383/383/1
f 249/249/1 250/250/1 516/516/1
f 249/249/1 516/516/1 515/515/1
f 117/117/1 251/251/1 118/118/1
f 117/117/1 250/250/1 251/251/1
f 383/383/1 384/384/1 517/517/1
f 383/383/1 517/517/1 516/516/1
f 117/117/1 384/384/1 118/118/1
f 117/117/1 383/383/1 384/384/1
f 250/250/1 251/251/1 517/517/1
f 250/250/1 517/517/1 516/516/1
f 118/118/1 252/252/1 119/119/1
f 118/118/1 251/251/1 252/252/1
f 384/384/1 385/385/1 518/518/1
f 384/384/1 518/518/1 517/517/1
f 118/118/1 385/385/1 119/119/1
f 118/118/1 384/384/1 385/385/1
f 251/251/1 252/252/1 518/518/1
f 251/251/1 518/518/1 517/517/1
f 119/119/1 253/253/1 120/120/1
f 119/119/1 252/252/1 253/253/1
f 385/385/1 386/386/1 519/519/1
f 385/385/1 519/519/1 518/518/1
f 119/119/1 386/386/1 120/120/1
f 119/119/1 385/385/1 386/386/1
f 252/252/1 253/253/1 519/519/1
f 252/252/1 519/519/1 518/518/1
f 120/120/1 254/254/1 121/121/1
f 120/120/1 253/253/1 254/254/1
f 386/386/1 387/387/1 520/520/1
f 386/386/1 520/520/1 519/519/1
f 120/120/1 387/387/1 121/121/1
f 120/120/1 386/386/1 387/387/1
f 253/253/1 254/254/1 520/520/1
f 253/253/1 520/520/1 519/519/1
f 121/121/1 255/255/1 122/122/1
f 121/121/1 254/254/1 255/255/1
f 387/387/1 388/388/1 521/521/1
f 387/387/1 521/521/1 520/520/1
f 121/121/1 388/388/1 122/122/1
f 121/121/1 387/387/1 388/388/1
f 254/254/1 255/255/1 521/521/1
f 254/254/1 521/521/1 520/520/1
f 122/122/1 256/256/1 123/123/1
f 122/122/1 255/255/1 256/256/1
f 388/388/1 389/389/1 522/522/1
f 388/388/1 522/522/1 521/521/1
f 122/122/1 389/389/1 123/123/1
f 122/122/1 388/388/1 389/389/1
f 255/255/1 256/256/1 522/522/1
f 255/255/1 522/522/1 521/521/1
f 123/123/1 257/257/1 124/124/1
f 123/123/1 256/256/1 257/257/1
f 389/389/1 390/390/1 523/523/1
f 389/389/1 523/523/1 522/522/1
f 123/123/1 390/390/1 124/124/1
f 123/123/1 389/389/1 390/390/1
f 256/256/1 257/257/1 523/523/1
f 256/256/1 523/523/1 522/522/1
f 124/124/1 258/258/1 125/125/1
f 124/124/1 257/257/1 258/258/1
f 390/390/1 391/391/1 524/524/1
f 390/390/1 524/524/1 523/523/1
f 124/124/1 391/391/1 125/125/1
f 124/124/1 390/390/1 391/391/1
f 257/257/1 258/258/1 524/524/1
f 257/257/1 524/524/1 523/523/1
f 125/125/1 259/259/1 126/126/1
f 125/125/1 258/258/1 259/259/1
f 391/391/1 392/392/1 525/525/1
f 391/391/1 525/525/1 524/524/1
f 125/125/1 392/392/1 126/126/1
f 125/125/1 391/391/1 392/392/1
f 258/258/1 259/259/1 525/525/1
f 258/258/1 525/525/1 524/524/1
f 126/126/1 260/260/1 127/127/1
f 126/126/1 259/259/1 260/260/1
f 392/392/1 393/393/1 526/526/1
f 392/392/1 526/526/1 525/525/1
f 126/126/1 393/393/1 127/127/1
f 126/126/1 392/392/1 393/393/1
f 259/259/1 260/260/1 526/526/1
f 259/259/1 526/526/1 525/525/1
f 127/127/1 261/261/1 128/128/1
f 127/127/1 260/260/1 261/261/1
f 393/393/1 394/394/1 527/527/1
f 393/393/1 527/527/1 526/526/1
f 127/127/1 394/394/1 128/128/1
f 127/127/1 393/393/1 394/394/1
f 260/260/1 261/261/1 527/527/1
f 260/260/1 527/527/1 526/526/1
f 128/128/1 262/262/1 129/129/1
f 128/128/1 261/261/1 262/262/1
f 394/394/1 395/395/1 528/528/1
f 394/394/1 528/528/1 527/527/1
f 128/128/1 395/395/1 129/129/1
f 128/128/1 394/394/1 395/395/1
f 261/261/1 262/262/1 528/528/1
f 261/261/1 528/528/1 527/527/1
f 129/129/1 263/263/1 130/130/1
f 129/129/1 262/262/1 263/263/1
f 395/395/1 396/396/1 529/529/1
f 395/395/1 529/529/1 528/528/1
f 129/129/1 396/396/1 130/130/1
f 129/129/1 395/395/1 396/396/1
f 262/262/1 263/263/1 529/529/1
f 262/262/1 529/529/1 528/528/1
f 130/130/1 264/264/1 131/131/1
f 130/130/1 263/263/1 264/264/1
f 396/396/1 397/397/1 530/530/1
f 396/396/1 530/530/1 529/529/1
f 130/130/1 397/397/1 131/131/1
f 130/130/1 396/396/1 397/397/1
f 263/263/1 264/264/1 530/530/1
f 263/263/1 530/530/1 529/529/1
f 131/131/1 265/265/1 132/132/1
f 131/131/1 264/264/1 265/265/1
f 397/397/1 398/398/1 531/531/1
f 397/397/1 531/531/1 530/530/1
f 131/131/1 398/398/1 132/132/1
f 131/131/1 397/397/1 398/398/1
f 264/264/1 265/265/1 531/531/1
f 264/264/1 531/531/1 530/530/1
f 132/132/1 266/266/1 133/133/1
f 132/132/1 265/265/1 266/266/1
f 398/398/1 399/399/1 532/532/1
f 398/398/1 532/532/1 531/531/1
f 132/132/1 399/399/1 133/133/1
f 132/132/1 398/398/1 399/399/1
f 265/265/1 266/266/1 532/532/1
f 265/265/1 532/532/1 531/531/1
f 133/133/1 134/134/1 1/1/1
f 133/133/1 266/266/1 134/134/1
f 399/399/1 267/267/1 400/400/1
f 399/399/1 400/400/1 532/532/1
f 133/133/1 267/267/1 1/1/1
f 133/133/1 399/399/1 267/267/1
f 266/266/1 134/134/1 400/400/1
f 266/266/1 400/400/1 532/532/1
f 2/2/1 135/135/1 1/1/1
f 135/135/1 134/134/1 1/1/1
f 401/401/1 268/268/1 267/267/1
f 400/400/1 401/401/1 267/267/1
f 2/2/1 268/268/1 1/1/1
f 268/268/1 267/267/1 1/1/1
f 401/401/1 135/135/1 134/134/1
f 400/400/1 401/401/1 134/134/1
f 3/3/1 136/136/1 2/2/1
f 136/136/1 135/135/1 2/2/1
f 402/402/1 269/269/1 268/268/1
f 401/401/1 402/402/1 268/268/1
f 3/3/1 269/269/1 2/2/1
f 269/269/1 268/268/1 2/2/1
f 402/402/1 136/136/1 135/135/1
f 401/401/1 402/402/1 135/135/1
f 4/4/1 137/137/1 3/3/1
f 137/137/1 136/136/1 3/3/1
f 403/403/1 270/270/1 269/269/1
f 402/402/1 403/403/1 269/269/1
f 4/4/1 270/270/1 3/3/1
f 270/270/1 269/269/1 3/3/1
f 403/403/1 137/137/1 136/136/1
f 402/402/1 403/403/1 136/136/1
f 5/5/1 138/138/1 4/4/1
f 138/138/1 137/137/1 4/4/1
f 404/404/1 271/271/1 270/270/1
f 403/403/1 404/404/1 270/270/1
f 5/5/1 271/271/1 4/4/1
f 271/271/1 270/270/1 4/4/1
f 404/404/1 138/138/1 137/137/1
f 403/403/1 404/404/1 137/137/1
f 6/6/1 139/139/1 5/5/1
f 139/139/1 138/138/1 5/5/1
f 405/405/1 272/272/1 271/271/1
f 404/404/1 405/405/1 271/271/1
f 6/6/1 272/272/1 5/5/1
f 272/272/1 271/271/1 5/5/1
f 405/405/1 139/139/1 138/138/1
f 404/404/1 405/405/1 138/138/1
f 7/7/1 140/140/1 6/6/1
f 140/140/1 139/139/1 6/6/1
f 406/406/1 273/273/1 272/272/1
f 405/405/1 406/406/1 272/272/1
f 7/7/1 273/273/1 6/6/1
f 273/273/1 272/272/1 6/6/1
f 406/406/1 140/140/1 139/139/1
f 405/405/1 406/406/1 139/139/1
f 8/8/1 141/141/1 7/7/1
f 141/141/1 140/140/1 7/7/1
f 407/407/1 274/274/1 273/273/1
f 406/406/1 407/407/1 273/273/1
f 8/8/1 274/274/1 7/7/1
f 274/274/1 273/273/1 7/7/1
f 407/407/1 141/141/1 140/140/1
f 406/406/1 407/407/1 140/140/1
f 9/9/1 142/142/1 8/8/1
f 142/142/1 141/141/1 8/8/1
f 408/408/1 275/275/1 274/274/1
f 407/407/1 408/408/1 274/274/1
f 9/9/1 275/275/1 8/8/1
f 275/275/1 274/274/1 8/8/1
f 408/408/1 142/142/1 141/141/1
f 407/407/1 408/408/1 141/141/1
f 10/10/1 143/143/1 9/9/1
f 143/143/1 142/142/1 9/9/1
f 409/409/1 276/276/1 275/275/1
f 408/408/1 409/409/1 275/275/1
f 10/10/1 276/276/1 9/9/1
f 276/276/1 275/275/1 9/9/1
f 409/409/1 143/143/1 142/142/1
f 408/408/1 409/409/1 142/142/1
f 11/11/1 144/144/1 10/10/1
f 144/144/1 143/143/1 10/10/1
f 410/410/1 277/277/1 276/276/1
f 409/409/1 410/410/1 276/276/1
f 11/11/1 277/277/1 10/10/1
f 277/277/1 276/276/1 10/10/1
f 410/410/1 144/144/1 143/143/1
f 409/409/1 410/410/1 143/143/1
f 12/12/1 145/145/1 11/11/1
f 145/145/1 144/144/1 11/11/1
f 411/411/1 278/278/1 277/277/1
f 410/410/1 411/411/1 277/277/1
f 12/12/1 278/278/1 11/11/1
f 278/278/1 277/277/1 11/11/1
f 411/411/1 145/145/1 144/144/1
f 410/410/1 411/411/1 144/144/1
f 13/13/1 146/146/1 12/12/1
f 146/146/1 145/145/1 12/12/1
f 412/412/1 279/279/1 278/278/1
f 411/411/1 412/412/1 278/278/1
f 13/13/1 279/279/1 12/12/1
f 279/279/1 278/278/1 12/12/1
f 412/412/1 146/146/1 145/145/1
f 411/411/1 412/412/1 145/145/1
f 14/14/1 147/147/1 13/13/1
f 147/147/1 146/146/1 13/13/1
f 413/413/1 280/280/1 279/279/1
f 412/412/1 413/413/1 279/279/1
f 14/14/1 280/280/1 13/13/1
f 280/280/1 279/279/1 13/13/1
f 413/413/1 147/147/1 146/146/1
f 412/412/1 413/413/1 146/146/1
f 15/15/1 148/148/1 14/14/1
f 148/148/1 147/147/1 14/14/1
f 414/414/1 281/281/1 280/280/1
f 413/413/1 414/414/1 280/280/1
f 15/15/1 281/281/1 14/14/1
f 281/281/1 280/280/1 14/14/1
f 414/414/1 148/148/1 147/147/1
f 413/413/1 414/414/1 147/147/1
f 16/16/1 149/149/1 15/15/1
f 149/149/1 148/148/1 15/15/1
f 415/415/1 282/282/1 281/281/1
f 414/414/1 415/415/1 281/281/1
f 16/16/1 282/282/1 15/15/1
f 282/282/1 281/281/1 15/15/1
f 415/415/1 149/149/1 148/148/1
f 414/414/1 415/415/1 148/148/1
f 17/17/1 150/150/1 16/16/1
f 150/150/1 149/149/1 16/16/1
f 416/416/1 283/283/1 282/282/1
f 415/415/1 416/416/1 282/282/1
f 17/17/1 283/283/1 16/16/1
f 283/283/1 282/282/1 16/16/1
f 416/416/1 150/150/1 149/149/1
f 415/415/1 416/416/1 149/149/1
f 18/18/1 151/151/1 17/17/1
f 151/151/1 150/150/1 17/17/1
f 417/417/1 284/284/1 283/283/1
f 416/416/1 417/417/1 283/283/1
f 18/18/1 284/284/1 17/17/1
f 284/284/1 283/283/1 17/17/1
f 417/417/1 151/151/1 150/150/1
f 416/416/1 417/417/1 150/150/1
f 19/19/1 152/152/1 18/18/1
f 152/152/1 151/151/1 18/18/1
f 418/418/1 285/285/1 284/284/1
f 417/417/1 418/418/1 284/284/1
f 19/19/1 285/285/1 18/18/1
f 285/285/1 284/284/1 18/18/1
f 418/418/1 152/152/1 151/151/1
f 417/417/1 418/418/1 151/151/1
f 20/20/1 153/153/1 19/19/1
f 153/153/1 152/152/1 19/19/1
f 419/419/1 286/286/1 285/285/1
f 418/418/1 419/419/1 285/285/1
f 20/20/1 286/286/1 19/19/1
f 286/286/1 285/285/1 19/19/1
f 419/419/1 153/153/1 152/152/1
f 418/418/1 419/419/1 152/152/1
f 21/21/1 154/154/1 20/20/1
f 154/154/1 153/153/1 20/20/1
f 420/420/1 287/287/1 286/286/1
f 419/419/1 420/420/1 286/286/1
f 21/21/1 287/287/1 20/20/1
f 287/287/1 286/286/1 20/20/1
f 420/420/1 154/154/1 153/153/1
f 419/419/1 420/420/1 153/153/1
f 22/22/1 155/155/1 21/21/1
f 155/155/1 154/154/1 21/21/1
f 421/421/1 288/288/1 287/287/1
f 420/420/1 421/421/1 287/287/1
f 22/22/1 288/288/1 21/21/1
f 288/288/1 287/287/1 21/21/1
f 421/421/1 155/155/1 154/154/1
f 420/420/1 421/421/1 154/154/1
f 23/23/1 156/156/1 22/22/1
f 156/156/1 155/155/1 22/22/1
f 422/422/1 289/289/1 288/288/1
f 421/421/1 422/422/1 288/288/1
f 23/23/1 289/289/1 22/22/1
f 289/289/1 288/288/1 22/22/1
f 422/422/1 156/156/1 155/155/1
f 421/421/1 422/422/1 155/155/1
f 24/24/1 157/157/1 23/23/1
f 157/157/1 156/156/1 23/23/1
f 423/423/1 290/290/1 289/289/1
f 422/422/1 423/423/1 289/289/1
f 24/24/1 290/290/1 23/23/1
f 290/290/1 289/289/1 23/23/1
f 423/423/1 157/157/1 156/156/1
f 422/422/1 423/423/1 156/156/1
f 25/25/1 158/158/1 24/24/1
f 158/158/1 157/157/1 24/24/1
f 424/424/1 291/291/1 290/290/1
f 423/423/1 424/424/1 290/290/1
f 25/25/1 291/291/1 24/24/1
f 291/291/1 290/290/1 24/24/1
f 424/424/1 158/158/1 157/157/1
f 423/423/1 424/424/1 157/157/1
f 26/26/1 159/159/1 25/25/1
f 159/159/1 158/158/1 25/25/1
f 425/425/1 292/292/1 291/291/1
f 424/424/1 425/425/1 291/291/1
f 26/26/1 292/292/1 25/25/1
f 292/292/1 291/291/1 25/25/1
f 425/425/1 159/159/1 158/158/1
f 424/424/1 425/425/1 158/158/1
f 27/27/1 160/160/1 26/26/1
f 160/160/1 159/159/1 26/26/1
f 426/426/1 293/293/1 292/292/1
f 425/425/1 426/426/1 292/292/1
f 27/27/1 293/293/1 26/26/1
f 293/293/1 292/292/1 26/26/1
f 426/426/1 160/160/1 159/159/1
f 425/425/1 426/426/1 159/159/1
f 28/28/1 161/161/1 27/27/1
f 161/161/1 160/160/1 27/27/1
f 427/427/1 294/294/1 293/293/1
f 426/426/1 427/427/1 293/293/1
f 28/28/1 294/294/1 27/27/1
f 294/294/1 293/293/1 27/27/1
f 427/427/1 161/161/1 160/160/1
f 426/426/1 427/427/1 160/160/1
f 29/29/1 162/162/1 28/28/1
f 162/162/1 161/161/1 28/28/1
f 428/428/1 295/295/1 294/294/1
f 427/427/1 428/428/1 294/294/1
f 29/29/1 295/295/1 28/28/1
f 295/295/1 294/294/1 28/28/1
f 428/428/1 162/162/1 161/161/1
f 427/427/1 428/428/1 161/161/1
f 30/30/1 163/163/1 29/29/1
f 163/163/1 162/162/1 29/29/1
f 429/429/1 296/296/1 295/295/1
f 428/428/1 429/429/1 295/295/1
f 30/30/1 296/296/1 29/29/1
f 296/296/1 295/295/1 29/29/1
f 429/429/1 163/163/1 162/162/1
f 428/428/1 429/429/1 162/162/1
f 31/31/1 164/164/1 30/30/1
f 164/164/1 163/163/1 30/30/1
f 430/430/1 297/297/1 296/296/1
f 429/429/1 430/430/1 296/296/1
f 31/31/1 297/297/1 30/30/1
f 297/297/1 296/296/1 30/30/1
f 430/430/1 164/164/1 163/163/1
f 429/429/1 430/430/1 163/163/1
f 32/32/1 165/165/1 31/31/1
f 165/165/1 164/164/1 31/31/1
f 431/431/1 298/298/1 297/297/1
f 430/430/1 431/431/1 297/297/1
f 32/32/1 298/298/1 31/31/1
f 298/298/1 297/297/1 31/31/1
f 431/431/1 165/165/1 164/164/1
f 430/430/1 431/431/1 164/164/1
f 33/33/1 166/166/1 32/32/1
f 166/166/1 165/165/1 32/32/1
f 432/432/1 299/299/1 298/298/1
f 431/431/1 432/432/1 298/298/1
f 33/33/1 299/299/1 32/32/1
f 299/299/1 298/298/1 32/32/1
f 432/432/1 166/166/1 165/165/1
f 431/431/1 432/432/1 165/165/1
f 34/34/1 167/167/1 33/33/1
f 167/167/1 166/166/1 33/33/1
f 433/433/1 300/300/1 299/299/1
f 432/432/1 433/433/1 299/299/1
f 34/34/1 300/300/1 33/33/1
f 300/300/1 299/299/1 33/33/1
f 433/433/1 167/167/1 166/166/1
f 432/432/1 433/433/1 166/166/1
f 35/35/1 168/168/1 34/34/1
f 168/168/1 167/167/1 34/34/1
f 434/434/1 301/301/1 300/300/1
f 433/433/1 434/434/1 300/300/1
f 35/35/1 301/301/1 34/34/1
f 301/301/1 300/300/1 34/34/1
f 434/434/1 168/168/1 167/167/1
f 433/433/1 434/434/1 167/167/1
f 36/36/1 169/169/1 35/35/1
f 169/169/1 168/168/1 35/35/1
f 435/435/1 302/302/1 301/301/1
f 434/434/1 435/435/1 301/301/1
f 36/36/1 302/302/1 35/35/1
f 302/302/1 301/301/1 35/35/1
f 435/435/1 169/169/1 168/168/1
f 434/434/1 435/435/1 168/168/1
f 37/37/1 170/170/1 36/36/1
f 170/170/1 169/169/1 36/36/1
f 436/436/1 303/303/1 302/302/1
f 435/435/1 436/436/1 302/302/1
f 37/37/1 303/303/1 36/36/1
f 303/303/1 302/302/1 36/36/1
f 436/436/1 170/170/1 169/169/1
f 435/435/1 436/436/1 169/169/1
f 38/38/1 171/171/1 37/37/1
f 171/171/1 170/170/1 37/37/1
f 437/437/1 304/304/1 303/303/1
f 436/436/1 437/437/1 303/303/1
f 38/38/1 304/304/1 37/37/1
f 304/304/1 303/303/1 37/37/1
f 437/437/1 171/171/1 170/170/1
f 436/436/1 437/437/1 170/170/1
f 39/39/1 172/172/1 38/38/1
f 172/172/1 171/171/1 38/38/1
f 438/438/1 305/305/1 304/304/1
f 437/437/1 438/438/1 304/304/1
f 39/39/1 305/305/1 38/38/1
f 305/305/1 304/304/1 38/38/1
f 438/438/1 172/172/1 171/171/1
f 437/437/1 438/438/1 171/171/1
f 40/40/1 173/173/1 39/39/1
f 173/173/1 172/172/1 39/39/1
f 439/439/1 306/306/1 305/305/1
f 438/438/1 439/439/1 305/305/1
f 40/40/1 306/306/1 39/39/1
f 306/306/1 305/305/1 39/39/1
f 439/439/1 173/173/1 172/172/1
f 438/438/1 439/439/1 172/172/1
f 41/41/1 174/174/1 40/40/1
f 174/174/1 173/173/1 40/40/1
f 440/440/1 307/307/1 306/306/1
f 439/439/1 440/440/1 306/306/1
f 41/41/1 307/307/1 40/40/1
f 307/307/1 306/306/1 40/40/1
f 440/440/1 174/174/1 173/173/1
f 439/439/1 440/440/1 173/173/1
f 42/42/1 175/175/1 41/41/1
f 175/175/1 174/174/1 41/41/1
f 441/441/1 308/308/1 307/307/1
f 440/440/1 441/441/1 307/307/1
f 42/42/1 308/308/1 41/41/1
f 308/308/1 307/307/1 41/41/1
f 441/441/1 175/175/1 174/174/1
f 440/440/1 441/441/1 174/174/1
f 43/43/1 176/176/1 42/42/1
f 176/176/1 175/175/1 42/42/1
f 442/442/1 309/309/1 308/308/1
f 441/441/1 442/442/1 308/308/1
f 43/43/1 309/309/1 42/42/1
f 309/309/1 308/308/1 42/42/1
f 442/442/1 176/176/1 175/175/1
f 441/441/1 442/442/1 175/175/1
f 44/44/1 177/177/1 43/43/1
f 177/177/1 176/176/1 43/43/1
f 443/443/1 310/310/1 309/309/1
f 442/442/1 443/443/1 309/309/1
f 44/44/1 310/310/1 43/43/1
f 310/310/1 309/309/1 43/43/1
f 443/443/1 177/177/1 176/176/1
f 442/442/1 443/443/1 176/176/1
f 45/45/1 178/178/1 44/44/1
f 178/178/1 177/177/1 44/44/1
f 444/444/1 311/311/1 310/310/1
f 443/443/1 444/444/1 310/310/1
f 45/45/1 311/311/1 44/44/1
f 311/311/1 310/310/1 44/44/1
f 444/444/1 178/178/1 177/177/1
f 443/443/1 444/444/1 177/177/1
f 46/46/1 179/179/1 45/45/1
f 179/179/1 178/178/1 45/45/1
f 445/445/1 312/312/1 311/311/1
f 444/444/1 445/445/1 311/311/1
f 46/46/1 312/312/1 45/45/1
f 312/312/1 311/311/1 45/45/1
f 445/445/1 179/179/1 178/178/1
f 444/444/1 445/445/1 178/178/1
f 47/47/1 180/180/1 46/46/1
f 180/180/1 179/179/1 46/46/1
f 446/446/1 313/313/1 312/312/1
f 445/445/1 446/446/1 312/312/1
f 47/47/1 313/313/1 46/46/1
f 313/313/1 312/312/1 46/46/1
f 446/446/1 180/180/1 179/179/1
f 445/445/1 446/446/1 179/179/1
f 48/48/1 181/181/1 47/47/1
f 181/181/1 180/180/1 47/47/1
f 447/447/1 314/314/1 313/313/1
f 446/446/1 447/447/1 313/313/1
f 48/48/1 314/314/1 47/47/1
f 314/314/1 313/313/1 47/47/1
f 447/447/1 181/181/1 180/180/1
f 446/446/1 447/447/1 180/180/1
f 49/49/1 182/182/1 48/48/1
f 182/182/1 181/181/1 48/48/1
f 448/448/1 315/315/1 314/314/1
f 447/447/1 448/448/1 314/314/1
f 49/49/1 315/315/1 48/48/1
f 315/315/1 314/314/1 48/48/1
f 448/448/1 182/182/1 181/181/1
f 447/447/1 448/448/1 181/181/1
f 50/50/1 183/183/1 49/49/1
f 183/183/1 182/182/1 49/49/1
f 449/449/1 316/316/1 315/315/1
f 448/448/1 449/449/1 315/315/1
f 50/50/1 316/316/1 49/49/1
f 316/316/1 315/315/1 49/49/1
f 449/449/1 183/183/1 182/182/1
f 448/448/1 449/449/1 182/182/1
f 51/51/1 184/184/1 50/50/1
f 184/184/1 183/183/1 50/50/1
f 450/450/1 317/317/1 316/316/1
f 449/449/1 450/450/1 316/316/1
f 51/51/1 317/317/1 50/50/1
f 317/317/1 316/316/1 50/50/1
f 450/450/1 184/184/1 183/183/1
f 449/449/1 450/450/1 183/183/1
f 52/52/1 185/185/1 51/51/1
f 185/185/1 184/184/1 51/51/1
f 451/451/1 318/318/1 317/317/1
f 450/450/1 451/451/1 317/317/1
f 52/52/1 318/318/1 51/51/1
f 318/318/1 317/317/1 51/51/1
f 451/451/1 185/185/1 184/184/1
f 450/450/1 451/451/1 184/184/1
f 53/53/1 186/186/1 52/52/1
f 186/186/1 185/185/1 52/52/1
f 452/452/1 319/319/1 318/318/1
f 451/451/1 452/452/1 318/318/1
f 53/53/1 319/319/1 52/52/1
f 319/319/1 318/318/1 52/52/1
f 452/452/1 186/186/1 185/185/1
f 451/451/1 452/452/1 185/185/1
f 54/54/1 187/187/1 53/53/1
f 187/187/1 186/186/1 53/53/1
f 453/453/1 320/320/1 319/319/1
f 452/452/1 453/453/1 319/319/1
f 54/54/1 320/320/1 53/53/1
f 320/320/1 319/319/1 53/53/1
f 453/453/1 187/187/1 186/186/1
f 452/452/1 453/453/1 186/186/1
f 55/55/1 188/188/1 54/54/1
f 188/188/1 187/187/1 54/54/1
f 454/454/1 321/321/1 320/320/1
f 453/453/1 454/454/1 320/320/1
f 55/55/1 321/321/1 54/54/1
f 321/321/1 320/320/1 54/54/1
f 454/454/1 188/188/1 187/187/1
f 453/453/1 454/454/1 187/187/1
f 56/56/1 189/189/1 55/55/1
f 189/189/1 188/188/1 55/55/1
f 455/455/1 322/322/1 321/321/1
f 454/454/1 455/455/1 321/321/1
f 56/56/1 322/322/1 55/55/1
f 322/322/1 321/321/1 55/55/1
f 455/455/1 189/189/1 188/188/1
f 454/454/1 455/455/1 188/188/1
f 57/57/1 190/190/1 56/56/1
f 190/190/1 189/189/1 56/56/1
f 456/456/1 323/323/1 322/322/1
f 455/455/1 456/456/1 322/322/1
f 57/57/1 323/323/1 56/56/1
f 323/323/1 322/322/1 56/56/1
f 456/456/1 190/190/1 189/189/1
f 455/455/1 456/456/1 189/189/1
f 58/58/1 191/191/1 57/57/1
f 191/191/1 190/190/1 57/57/1
f 457/457/1 324/324/1 323/323/1
f 456/456/1 457/457/1 323/323/1
f 58/58/1 324/324/1 57/57/1
f 324/324/1 323/323/1 57/57/1
f 457/457/1 191/191/1 190/190/1
f 456/456/1 457/457/1 190/190/1
f 59/59/1 192/192/1 58/58/1
f 192/192/1 191/191/1 58/58/1
f 458/458/1 325/325/1 324/324/1
f 457/457/1 458/458/1 324/324/1
f 59/59/1 325/325/1 58/58/1
f 325/325/1 324/324/1 58/58/1
f 458/458/1 192/192/1 191/191/1
f 457/457/1 458/458/1 191/191/1
f 60/60/1 193/193/1 59/59/1
f 193/193/1 192/192/1 59/59/1
f 459/459/1 326/326/1 325/325/1
f 458/458/1 459/459/1 325/325/1
f 60/60/1 326/326/1 59/59/1
f 326/326/1 325/325/1 59/59/1
f 459/459/1 193/193/1 192/192/1
f 458/458/1 459/459/1 192/192/1
f 61/61/1 194/194/1 60/60/1
f 194/194/1 193/193/1 60/60/1
f 460/460/1 327/327/1 326/326/1
f 459/459/1 460/460/1 326/326/1
f 61/61/1 327/327/1 60/60/1
f 327/327/1 326/326/1 60/60/1
f 460/460/1 194/194/1 193/193/1
f 459/459/1 460/460/1 193/193/1
f 62/62/1 195/195/1 61/61/1
f 195/195/1 194/194/1 61/61/1
f 461/461/1 328/328/1 327/327/1
f 460/460/1 461/461/1 327/327/1
f 62/62/1 328/328/1 61/61/1
f 328/328/1 327/327/1 61/61/1
f 461/461/1 195/195/1 194/194/1
f 460/460/1 461/461/1 194/194/1
f 63/63/1 196/196/1 62/62/1
f 196/196/1 195/195/1 62/62/1
f 462/462/1 329/329/1 328/328/1
f 461/461/1 462/462/1 328/328/1
f 63/63/1 329/329/1 62/62/1
f 329/329/1 328/328/1 62/62/1
f 462/462/1 196/196/1 195/195/1
f 461/461/1 462/462/1 195/195/1
f 64/64/1 197/197/1 63/63/1
f 197/197/1 196/196/1 63/63/1
f 463/463/1 330/330/1 329/329/1
f 462/462/1 463/463/1 329/329/1
f 64/64/1 330/330/1 63/63/1
f 330/330/1 329/329/1 63/63/1
f 463/463/1 197/197/1 196/196/1
f 462/462/1 463/463/1 196/196/1
f 65/65/1 198/198/1 64/64/1
f 198/198/1 197/197/1 64/64/1
f 464/464/1 331/331/1 330/330/1
f 463/463/1 464/464/1 330/330/1
f 65/65/1 331/331/1 64/64/1
f 331/331/1 330/330/1 64/64/1
f 464/464/1 198/198/1 197/197/1
f 463/463/1 464/464/1 197/197/1
f 66/66/1 199/199/1 65/65/1
f 199/199/1 198/198/1 65/65/1
f 465/465/1 332/332/1 331/331/1
f 464/464/1 465/465/1 331/331/1
f 66/66/1 332/332/1 65/65/1
f 332/332/1 331/331/1 65/65/1
f 465/465/1 199/199/1 198/198/1
f 464/464/1 465/465/1 198/198/1
f 67/67/1 200/200/1 66/66/1
f 200/200/1 199/199/1 66/66/1
f 466/466/1 333/333/1 332/332/1
f 465/465/1 466/466/1 332/332/1
f 67/67/1 333/333/1 66/66/1
f 333/333/1 332/332/1 66/66/1
f 466/466/1 200/200/1 199/199/1
f 465/465/1 466/466/1 199/199/1
f 68/68/1 201/201/1 67/67/1
f 201/201/1 200/200/1 67/67/1
f 467/467/1 334/334/1 333/333/1
f 466/466/1 467/467/1 333/333/1
f 68/68/1 334/334/1 67/67/1
f 334/334/1 333/333/1 67/67/1
f 467/467/1 201/201/1 200/200/1
f 466/466/1 467/467/1 200/200/1
f 69/69/1 202/202/1 68/68/1
f 202/202/1 201/201/1 68/68/1
f 468/468/1 335/335/1 334/334/1
f 467/467/1 468/468/1 334/334/1
f 69/69/1 335/335/1 68/68/1
f 335/335/1 334/334/1 68/68/1
f 468/468/1 202/202/1 201/201/1
f 467/467/1 468/468/1 201/201/1
f 70/70/1 203/203/1 69/69/1
f 203/203/1 202/202/1 69/69/1
f 469/469/1 336/336/1 335/335/1
f 468/468/1 469/469/1 335/335/1
f 70/70/1 336/336/1 69/69/1
f 336/336/1 335/335/1 69/69/1
f 469/469/1 203/203/1 202/202/1
f 468/468/1 469/469/1 202/202/1
f 71/71/1 204/204/1 70/70/1
f 204/204/1 203/203/1 70/70/1
f 470/470/1 337/337/1 336/336/1
f 469/469/1 470/470/1 336/336/1
f 71/71/1 337/337/1 70/70/1
f 337/337/1 336/336/1 70/70/1
f 470/470/1 204/204/1 203/203/1
f 469/469/1 470/470/1 203/203/1
f 72/72/1 205/205/1 71/71/1
f 205/205/1 204/204/1 71/71/1
f 471/471/1 338/338/1 337/337/1
f 470/470/1 471/471/1 337/337/1
f 72/72/1 338/338/1 71/71/1
f 338/338/1 337/337/1 71/71/1
f 471/471/1 205/205/1 204/204/1
f 470/470/1 471/471/1 204/204/1
f 73/73/1 206/206/1 72/72/1
f 206/206/1 205/205/1 72/72/1
f 472/472/1 339/339/1 338/338/1
f 471/471/1 472/472/1 338/338/1
f 73/73/1 339/339/1 72/72/1
f 339/339/1 338/338/1 72/72/1
f 472/472/1 206/206/1 205/205/1
f 471/471/1 472/472/1 205/205/1
f 74/74/1 207/207/1 73/73/1
f 207/207/1 206/206/1 73/73/1
f 473/473/1 340/340/1 339/339/1
f 472/472/1 473/473/1 339/339/1
f 74/74/1 340/340/1 73/73/1
f 340/340/1 339/339/1 73/73/1
f 473/473/1 207/207/1 206/206/1
f 472/472/1 473/473/1 206/206/1
f 75/75/1 208/208/1 74/74/1
f 208/208/1 207/207/1 74/74/1
f 474/474/1 341/341/1 340/340/1
f 473/473/1 474/474/1 340/340/1
f 75/75/1 341/341/1 74/74/1
f 341/341/1 340/340/1 74/74/1
f 474/474/1 208/208/1 207/207/1
f 473/473/1 474/474/1 207/207/1
f 76/76/1 209/209/1 75/75/1
f 209/209/1 208/208/1 75/75/1
f 475/475/1 342/342/1 341/341/1
f 474/474/1 475/475/1 341/341/1
f 76/76/1 342/342/1 75/75/1
f 342/342/1 341/341/1 75/75/1
f 475/475/1 209/209/1 208/208/1
f 474/474/1 475/475/1 208/208/1
f 77/77/1 210/210/1 76/76/1
f 210/210/1 209/209/1 76/76/1
f 476/476/1 343/343/1 342/342/1
f 475/475/1 476/476/1 342/342/1
f 77/77/1 343/343/1 76/76/1
f 343/343/1 342/342/1 76/76/1
f 476/476/1 210/210/1 209/209/1
f 475/475/1 476/476/1 209/209/1
f 78/78/1 211/211/1 77/77/1
f 211/211/1 210/210/1 77/77/1
f 477/477/1 344/344/1 343/343/1
f 476/476/1 477/477/1 343/343/1
f 78/78/1 344/344/1 77/77/1
f 344/344/1 343/343/1 77/77/1
f 477/477/1 211/211/1 210/210/1
f 476/476/1 477/477/1 210/210/1
f 79/79/1 212/212/1 78/78/1
f 212/212/1 211/211/1 78/78/1
f 478/478/1 345/345/1 344/344/1
f 477/477/1 478/478/1 344/344/1
f 79/79/1 345/345/1 78/78/1
f 345/345/1 344/344/1 78/78/1
f 478/478/1 212/212/1 211/211/1
f 477/477/1 478/478/1 211/211/1
f 80/80/1 213/213/1 79/79/1
f 213/213/1 212/212/1 79/79/1
f 479/479/1 346/346/1 345/345/1
f 478/478/1 479/479/1 345/345/1
f 80/80/1 346/346/1 79/79/1
f 346/346/1 345/345/1 79/79/1
f 479/479/1 213/213/1 212/212/1
f 478/478/1 479/479/1 212/212/1
f 81/81/1 214/214/1 80/80/1
f 214/214/1 213/213/1 80/80/1
f 480/480/1 347/347/1 346/346/1
f 479/479/1 480/480/1 346/346/1
f 81/81/1 347/347/1 80/80/1
f 347/347/1 346/346/1 80/80/1
f 480/480/1 214/214/1 213/213/1
f 479/479/1 480/480/1 213/213/1
f 82/82/1 215/215/1 81/81/1
f 215/215/1 214/214/1 81/81/1
f 481/481/1 348/348/1 347/347/1
f 480/480/1 481/481/1 347/347/1
f 82/82/1 348/348/1 81/81/1
f 348/348/1 347/347/1 81/81/1
f 481/481/1 215/215/1 214/214/1
f 480/480/1 481/481/1 214/214/1
f 83/83/1 216/216/1 82/82/1
f 216/216/1 215/215/1 82/82/1
f 482/482/1 349/349/1 348/348/1
f 481/481/1 482/482/1 348/348/1
f 83/83/1 349/349/1 82/82/1
f 349/349/1 348/348/1 82/82/1
f 482/482/1 216/216/1 215/215/1
f 481/481/1 482/482/1 215/215/1
f 84/84/1 217/217/1 83/83/1
f 217/217/1 216/216/1 83/83/1
f 483/483/1 350/350/1 349/349/1
f 482/482/1 483/483/1 349/349/1
f 84/84/1 350/350/1 83/83/1
f 350/350/1 349/349/1 83/83/1
f 483/483/1 217/217/1 216/216/1
f 482/482/1 483/483/1 216/216/1
f 85/85/1 218/218/1 84/84/1
f 218/218/1 217/217/1 84/84/1
f 484/484/1 351/351/1 350/350/1
f 483/483/1 484/484/1 350/350/1
f 85/85/1 351/351/1 84/84/1
f 351/351/1 350/350/1 84/84/1
f 484/484/1 218/218/1 217/217/1
f 483/483/1 484/484/1 217/217/1
f 86/86/1 219/219/1 85/85/1
f 219/219/1 218/218/1 85/85/1
f 485/485/1 352/352/1 351/351/1
f 484/484/1 485/485/1 351/351/1
f 86/86/1 352/352/1 85/85/1
f 352/352/1 351/351/1 85/85/1
f 485/485/1 219/219/1 218/218/1
f 484/484/1 485/485/1 218/218/1
f 87/87/1 220/220/1 86/86/1
f 220/220/1 219/219/1 86/86/1
f 486/486/1 353/353/1 352/352/1
f 485/485/1 486/486/1 352/352/1
f 87/87/1 353/353/1 86/86/1
f 353/353/1 352/352/1 86/86/1
f 486/486/1 220/220/1 219/219/1
f 485/485/1 486/486/1 219/219/1
f 88/88/1 221/221/1 87/87/1
f 221/221/1 220/220/1 87/87/1
f 487/487/1 354/354/1 353/353/1
f 486/486/1 487/487/1 353/353/1
f 88/88/1 354/354/1 87/87/1
f 354/354/1 353/353/1 87/87/1
f 487/487/1 221/221/1 220/220/1
f 486/486/1 487/487/1 220/220/1
f 89/89/1 222/222/1 88/88/1
f 222/222/1 221/221/1 88/88/1
f 488/488/1 355/355/1 354/354/1
f 487/487/1 488/488/1 354/354/1
f 89/89/1 355/355/1 88/88/1
f 355/355/1 354/354/1 88/88/1
f 488/488/1 222/222/1 221/221/1
f 487/487/1 488/488/1 221/221/1
f 90/90/1 223/223/1 89/89/1
f 223/223/1 222/222/1 89/89/1
f 489/489/1 356/356/1 355/355/1
f 488/488/1 489/489/1 355/355/1
f 90/90/1 356/356/1 89/89/1
f 356/356/1 355/355/1 89/89/1
f 489/489/1 223/223/1 222/222/1
f 488/488/1 489/489/1 222/222/1
f 91/91/1 224/224/1 90/90/1
f 224/224/1 223/223/1 90/90/1
f 490/490/1 357/357/1 356/356/1
f 489/489/1 490/490/1 356/356/1
f 91/91/1 357/357/1 90/90/1
f 357/357/1 356/356/1 90/90/1
f 490/490/1 224/224/1 223/223/1
f 489/489/1 490/490/1 223/223/1
f 92/92/1 225/225/1 91/91/1
f 225/225/1 224/224/1 91/91/1
f 491/491/1 358/358/1 357/357/1
f 490/490/1 491/491/1 357/357/1
f 92/92/1 358/358/1 91/91/1
f 358/358/1 357/357/1 91/91/1
f 491/491/1 225/225/1 224/224/1
f 490/490/1 491/491/1 224/224/1
f 93/93/1 226/226/1 92/92/1
f 226/226/1 225/225/1 92/92/1
f 492/492/1 359/359/1 358/358/1
f 491/491/1 492/492/1 358/358/1
f 93/93/1 359/359/1 92/92/1
f 359/359/1 358/358/1 92/92/1
f 492/492/1 226/226/1 225/225/1
f 491/491/1 492/492/1 225/225/1
f 94/94/1 227/227/1 93/93/1
f 227/227/1 226/226/1 93/93/1
f 493/493/1 360/360/1 359/359/1
f 492/492/1 493/493/1 359/359/1
f 94/94/1 360/360/1 93/93/1
f 360/360/1 359/359/1 93/93/1
f 493/493/1 227/227/1 226/226/1
f 492/492/1 493/493/1 226/226/1
f 95/95/1 228/228/1 94/94/1
f 228/228/1 227/227/1 94/94/1
f 494/494/1 361/361/1 360/360/1
f 493/493/1 494/494/1 360/360/1
f 95/95/1 361/361/1 94/94/1
f 361/361/1 360/360/1 94/94/1
f 494/494/1 228/228/1 227/227/1
f 493/493/1 494/494/1 227/227/1
f 96/96/1 229/229/1 95/95/1
f 229/229/1 228/228/1 95/95/1
f 495/495/1 362/362/1 361/361/1
f 494/494/1 495/495/1 361/361/1
f 96/96/1 362/362/1 95/95/1
f 362/362/1 361/361/1 95/95/1
f 495/495/1 229/229/1 228/228/1
f 494/494/1 495/495/1 228/228/1
f 97/97/1 230/230/1 96/96/1
f 230/230/1 229/229/1 96/96/1
f 496/496/1 363/363/1 362/362/1
f 495/495/1 496/496/1 362/362/1
f 97/97/1 363/363/1 96/96/1
f 363/363/1 362/362/1 96/96/1
f 496/496/1 230/230/1 229/229/1
f 495/495/1 496/496/1 229/229/1
f 98/98/1 231/231/1 97/97/1
f 231/231/1 230/230/1 97/97/1
f 497/497/1 364/364/1 363/363/1
f 496/496/1 497/497/1 363/363/1
f 98/98/1 364/364/1 97/97/1
f 364/364/1 363/363/1 97/97/1
f 497/497/1 231/231/1 230/230/1
f 496/496/1 497/497/1 230/230/1
f 99/99/1 232/232/1 98/98/1
f 232/232/1 231/231/1 98/98/1
f 498/498/1 365/365/1 364/364/1
f 497/497/1 498/498/1 364/364/1
f 99/99/1 365/365/1 98/98/1
f 365/365/1 364/364/1 98/98/1
f 498/498/1 232/232/1 231/231/1
f 497/497/1 498/498/1 231/231/1
f 100/100/1 233/233/1 99/99/1
f 233/233/1 232/232/1 99/99/1
f 499/499/1 366/366/1 365/365/1
f 498/498/1 499/499/1 365/365/1
f 100/100/1 366/366/1 99/99/1
f 366/366/1 365/365/1 99/99/1
f 499/499/1 233/233/1 232/232/1
f 498/498/1 499/499/1 232/232/1
f 101/101/1 234/234/1 100/100/1
f 234/234/1 233/233/1 100/100/1
f 500/500/1 367/367/1 366/366/1
f 499/499/1 500/500/1 366/366/1
f 101/101/1 367/367/1 100/100/1
f 367/367/1 366/366/1 100/100/1
f 500/500/1 234/234/1 233/233/1
f 499/499/1 500/500/1 233/233/1
f 102/102/1 235/235/1 101/101/1
f 235/235/1 234/234/1 101/101/1
f 501/501/1 368/368/1 367/367/1
f 500/500/1 501/501/1 367/367/1
f 102/102/1 368/368/1 101/101/1
f 368/368/1 367/367/1 101/101/1
f 501/501/1 235/235/1 234/234/1
f 500/500/1 501/501/1 234/234/1
f 103/103/1 236/236/1 102/102/1
f 236/236/1 235/235/1 102/102/1
f 502/502/1 369/369/1 368/368/1
f 501/501/1 502/502/1 368/368/1
f 103/103/1 369/369/1 102/102/1
f 369/369/1 368/368/1 102/102/1
f 502/502/1 236/236/1 235/235/1
f 501/501/1 502/502/1 235/235/1
f 104/104/1 237/237/1 103/103/1
f 237/237/1 236/236/1 103/103/1
f 503/503/1 370/370/1 369/369/1
f 502/502/1 503/503/1 369/369/1
f 104/104/1 370/370/1 103/103/1
f 370/370/1 369/369/1 103/103/1
f 503/503/1 237/237/1 236/236/1
f 502/502/1 503/503/1 236/236/1
f 105/105/1 238/238/1 104/104/1
f 238/238/1 237/237/1 104/104/1
f 504/504/1 371/371/1 370/370/1
f 503/503/1 504/504/1 370/370/1
f 105/105/1 371/371/1 104/104/1
f 371/371/1 370/370/1 104/104/1
f 504/504/1 238/238/1 237/237/1
f 503/503/1 504/504/1 237/237/1
f 106/106/1 239/239/1 105/105/1
f 239/239/1 238/238/1 105/105/1
f 505/505/1 372/372/1 371/371/1
f 504/504/1 505/505/1 371/371/1
f 106/106/1 372/372/1 105/105/1
f 372/372/1 371/371/1 105/105/1
f 505/505/1 239/239/1 238/238/1
f 504/504/1 505/505/1 238/238/1
f 107/107/1 240/240/1 106/106/1
f 240/240/1 239/239/1 106/106/1
f 506/506/1 373/373/1 372/372/1
f 505/505/1 506/506/1 372/372/1
f 107/107/1 373/373/1 106/106/1
f 373/373/1 372/372/1 106/106/1
f 506/506/1 240/240/1 239/239/1
f 505/505/1 506/506/1 239/239/1
f 108/108/1 241/241/1 107/107/1
f 241/241/1 240/240/1 107/107/1
f 507/507/1 374/374/1 373/373/1
f 506/506/1 507/507/1 373/373/1
f 108/108/1 374/374/1 107/107/1
f 374/374/1 373/373/1 107/107/1
f 507/507/1 241/241/1 240/240/1
f 506/506/1 507/507/1 240/240/1
f 109/109/1 242/242/1 108/108/1
f 242/242/1 241/241/1 108/108/1
f 508/508/1 375/375/1 374/374/1
f 507/507/1 508/508/1 374/374/1
f 109/109/1 375/375/1 108/108/1
f 375/375/1 374/374/1 108/108/1
f 508/508/1 242/242/1 241/241/1
f 507/507/1 508/508/1 241/241/1
f 110/110/1 243/243/1 109/109/1
f 243/243/1 242/242/1 109/109/1
f 509/509/1 376/376/1 375/375/1
f 508/508/1 509/509/1 375/375/1
f 110/110/1 376/376/1 109/109/1
f 376/376/1 375/375/1 109/109/1
f 509/509/1 243/243/1 242/242/1
f 508/508/1 509/509/1 242/242/1
f 111/111/1 244/244/1 110/110/1
f 244/244/1 243/243/1 110/110/1
f 510/510/1 377/377/1 376/376/1
f 509/509/1 510/510/1 376/376/1
f 111/111/1 377/377/1 110/110/1
f 377/377/1 376/376/1 110/110/1
f 510/510/1 244/244/1 243/243/1
f 509/509/1 510/510/1 243/243/1
f 112/112/1 245/245/1 111/111/1
f 245/245/1 244/244/1 111/111/1
f 511/511/1 378/378/1 377/377/1
f 510/510/1 511/511/1 377/377/1
f 112/112/1 378/378/1 111/111/1
f 378/378/1 377/377/1 111/111/1
f 511/511/1 245/245/1 244/244/1
f 510/510/1 511/511/1 244/244/1
f 113/113/1 246/246/1 112/112/1
f 246/246/1 245/245/1 112/112/1
f 512/512/1 379/379/1 378/378/1
f 511/511/1 512/512/1 378/378/1
f 113/113/1 379/379/1 112/112/1
f 379/379/1 378/378/1 112/112/1
f 512/512/1 246/246/1 245/245/1
f 511/511/1 512/512/1 245/245/1
f 114/114/1 247/247/1 113/113/1
f 247/247/1 246/246/1 113/113/1
f 513/513/1 380/380/1 379/379/1
f 512/512/1 513/513/1 379/379/1
f 114/114/1 380/380/1 113/113/1
f 380/380/1 379/379/1 113/113/1
f 513/513/1 247/247/1 246/246/1
f 512/512/1 513/513/1 246/246/1
f 115/115/1 248/248/1 114/114/1
f 248/248/1 247/247/1 114/114/1
f 514/514/1 381/381/1 380/380/1
f 513/513/1 514/514/1 380/380/1
f 115/115/1 381/381/1 114/114/1
f 381/381/1 380/380/1 114/114/1
f 514/514/1 248/248/1 247/247/1
f 513/513/1 514/514/1 247/247/1
f 116/116/1 249/249/1 115/115/1
f 249/249/1 248/248/1 115/115/1
f 515/515/1 382/382/1 381/381/1
f 514/514/1 515/515/1 381/381/1
f 116/116/1 382/382/1 115/115/1
f 382/382/1 381/381/1 115/115/1
f 515/515/1 249/249/1 248/248/1
f 514/514/1 515/515/1 248/248/1
f 117/117/1 250/250/1 116/116/1
f 250/250/1 249/249/1 116/116/1
f 516/516/1 383/383/1 382/382/1
f 515/515/1 516/516/1 382/382/1
f 117/117/1 383/383/1 116/116/1
f 383/383/1 382/382/1 116/116/1
f 516/516/1 250/250/1 249/249/1
f 515/515/1 516/516/1 249/249/1
f 118/118/1 251/251/1 117/117/1
f 251/251/1 250/250/1 117/117/1
f 517/517/1 384/384/1 383/383/1
f 516/516/1 517/517/1 383/383/1
f 118/118/1 384/384/1 117/117/1
f 384/384/1 383/383/1 117/117/1
f 517/517/1 251/251/1 250/250/1
f 516/516/1 517/517/1 250/250/1
f 119/119/1 252/252/1 118/118/1
f 252/252/1 251/251/1 118/118/1
f 518/518/1 385/385/1 384/384/1
f 517/517/1 518/518/1 384/384/1
f 119/119/1 385/385/1 118/118/1
f 385/385/1 384/384/1 118/118/1
f 518/518/1 252/252/1 251/251/1
f 517/517/1 518/518/1 251/251/1
f 120/120/1 253/253/1 119/119/1
f 253/253/1 252/252/1 119/119/1
f 519/519/1 386/386/1 385/385/1
f 518/518/1 519/519/1 385/385/1
f 120/120/1 386/386/1 119/119/1
f 386/386/1 385/385/1 119/119/1
f 519/519/1 253/253/1 252/252/1
f 518/518/1 519/519/1 252/252/1
f 121/121/1 254/254/1 120/120/1
f 254/254/1 253/253/1 120/120/1
f 520/520/1 387/387/1 386/386/1
f 519/519/1 520/520/1 386/386/1
f 121/121/1 387/387/1 120/120/1
f 387/387/1 386/386/1 120/120/1
f 520/520/1 254/254/1 253/253/1
f 519/519/1 520/520/1 253/253/1
f 122/122/1 255/255/1 121/121/1
f 255/255/1 254/254/1 121/121/1
f 521/521/1 388/388/1 387/387/1
f 520/520/1 521/521/1 387/387/1
f 122/122/1 388/388/1 121/121/1
f 388/388/1 387/387/1 121/121/1
f 521/521/1 255/255/1 254/254/1
f 520/520/1 521/521/1 254/254/1
f 123/123/1 256/256/1 122/122/1
f 256/256/1 255/255/1 122/122/1
f 522/522/1 389/389/1 388/388/1
f 521/521/1 522/522/1 388/388/1
f 123/123/1 389/389/1 122/122/1
f 389/389/1 388/388/1 122/122/1
f 522/522/1 256/256/1 255/255/1
f 521/521/1 522/522/1 255/255/1
f 124/124/1 257/257/1 123/123/1
f 257/257/1 256/256/1 123/123/1
f 523/523/1 390/390/1 389/389/1
f 522/522/1 523/523/1 389/389/1
f 124/124/1 390/390/1 123/123/1
f 390/390/1 389/389/1 123/123/1
f 523/523/1 257/257/1 256/256/1
f 522/522/1 523/523/1 256/256/1
f 125/125/1 258/258/1 124/124/1
f 258/258/1 257/257/1 124/124/1
f 524/524/1 391/391/1 390/390/1
f 523/523/1 524/524/1 390/390/1
f 125/125/1 391/391/1 124/124/1
f 391/391/1 390/390/1 124/124/1
f 524/524/1 258/258/1 257/257/1
f 523/523/1 524/524/1 257/257/1
f 126/126/1 259/259/1 125/125/1
f 259/259/1 258/258/1 125/125/1
f 525/525/1 392/392/1 391/391/1
f 524/524/1 525/525/1 391/391/1
f 126/126/1 392/392/1 125/125/1
f 392/392/1 391/391/1 125/125/1
f 525/525/1 259/259/1 258/258/1
f 524/524/1 525/525/1 258/258/1
f 127/127/1 260/260/1 126/126/1
f 260/260/1 259/259/1 126/126/1
f 526/526/1 393/393/1 392/392/1
f 525/525/1 526/526/1 392/392/1
f 127/127/1 393/393/1 126/126/1
f 393/393/1 392/392/1 126/126/1
f 526/526/1 260/260/1 259/259/1
f 525/525/1 526/526/1 259/259/1
f 128/128/1 261/261/1 127/127/1
f 261/261/1 260/260/1 127/127/1
f 527/527/1 394/394/1 393/393/1
f 526/526/1 527/527/1 393/393/1
f 128/128/1 394/394/1 127/127/1
f 394/394/1 393/393/1 127/127/1
f 527/527/1 261/261/1 260/260/1
f 526/526/1 527/527/1 260/260/1
f 129/129/1 262/262/1 128/128/1
f 262/262/1 261/261/1 128/128/1
f 528/528/1 395/395/1 394/394/1
f 527/527/1 528/528/1 394/394/1
f 129/129/1 395/395/1 128/128/1
f 395/395/1 394/394/1 128/128/1
f 528/528/1 262/262/1 261/261/1
f 527/527/1 528/528/1 261/261/1
f 130/130/1 263/263/1 129/129/1
f 263/263/1 262/262/1 129/129/1
f 529/529/1 396/396/1 395/395/1
f 528/528/1 529/529/1 395/395/1
f 130/130/1 396/396/1 129/129/1
f 396/396/1 395/395/1 129/129/1
f 529/529/1 263/263/1 262/262/1
f 528/528/1 529/529/1 262/262/1
f 131/131/1 264/264/1 130/130/1
f 264/264/1 263/263/1 130/130/1
f 530/530/1 397/397/1 396/396/1
f 529/529/1 530/530/1 396/396/1
f 131/131/1 397/397/1 130/130/1
f 397/397/1 396/396/1 130/130/1
f 530/530/1 264/264/1 263/263/1
f 529/529/1 530/530/1 263/263/1
f 132/132/1 265/265/1 131/131/1
f 265/265/1 264/264/1 131/131/1
f 531/531/1 398/398/1 397/397/1
f 530/530/1 531/531/1 397/397/1
f 132/132/1 398/398/1 131/131/1
f 398/398/1 397/397/1 131/131/1
f 531/531/1 265/265/1 264/264/1
f 530/530/1 531/531/1 264/264/1
f 133/133/1 266/266/1 132/132/1
f 266/266/1 265/265/1 132/132/1
f 532/532/1 399/399/1 398/398/1
f 531/531/1 532/532/1 398/398/1
f 133/133/1 399/399/1 132/132/1
f 399/399/1 398/398/1 132/132/1
f 532/532/1 266/266/1 265/265/1
f 531/531/1 532/532/1 265/265/1
f 1/1/1 134/134/1 133/133/1
f 134/134/1 266/266/1 133/133/1
f 400/400/1 267/267/1 399/399/1
f 532/532/1 400/400/1 399/399/1
f 1/1/1 267/267/1 133/133/1
f 267/267/1 399/399/1 133/133/1
f 400/400/1 134/134/1 266/266/1
f 532/532/1 400/400/1 266/266/1
