solid curb_side_ring_00
  facet normal -0.00000000 0.00000000 1.00000000
    outer loop
      vertex -3.30020383 -0.15764306 0.20000000
      vertex 3.69929282 -0.29440047 0.20000000
      vertex 3.22401337 0.05061183 0.20000000
    endloop
  endfacet
  facet normal 0.00000000 0.00000000 1.00000000
    outer loop
      vertex -3.30020383 -0.15764306 0.20000000
      vertex -3.69929282 -0.53056545 0.20000000
      vertex 3.69929282 -0.29440047 0.20000000
    endloop
  endfacet
  facet normal 0.00000000 0.00000000 -1.00000000
    outer loop
      vertex -3.30020383 -0.15764306 0.00000000
      vertex 3.22401337 0.05061183 0.00000000
      vertex 3.69929282 -0.29440047 0.00000000
    endloop
  endfacet
  facet normal 0.00000000 -0.00000000 -1.00000000
    outer loop
      vertex -3.30020383 -0.15764306 0.00000000
      vertex 3.69929282 -0.29440047 0.00000000
      vertex -3.69929282 -0.53056545 0.00000000
    endloop
  endfacet
  facet normal 0.03190404 -0.99949094 0.00000000
    outer loop
      vertex -3.30020383 -0.15764306 0.20000000
      vertex 3.22401337 0.05061183 0.00000000
      vertex 3.22401337 0.05061183 0.20000000
    endloop
  endfacet
  facet normal 0.03190404 -0.99949094 0.00000000
    outer loop
      vertex -3.30020383 -0.15764306 0.20000000
      vertex -3.30020383 -0.15764306 0.00000000
      vertex 3.22401337 0.05061183 0.00000000
    endloop
  endfacet
  facet normal -0.03190404 0.99949094 0.00000000
    outer loop
      vertex -3.69929282 -0.53056545 0.20000000
      vertex 3.69929282 -0.29440047 0.20000000
      vertex 3.69929282 -0.29440047 0.00000000
    endloop
  endfacet
  facet normal -0.03190404 0.99949094 0.00000000
    outer loop
      vertex -3.69929282 -0.53056545 0.20000000
      vertex 3.69929282 -0.29440047 0.00000000
      vertex -3.69929282 -0.53056545 0.00000000
    endloop
  endfacet
  facet normal 0.00000000 -0.00000000 1.00000000
    outer loop
      vertex 3.22401337 0.05061183 0.20000000
      vertex 3.45932402 0.53056545 0.20000000
      vertex 3.19136021 0.16286703 0.20000000
    endloop
  endfacet
  facet normal -0.00000000 0.00000000 1.00000000
    outer loop
      vertex 3.22401337 0.05061183 0.20000000
      vertex 3.69929282 -0.29440047 0.20000000
      vertex 3.45932402 0.53056545 0.20000000
    endloop
  endfacet
  facet normal 0.00000000 0.00000000 -1.00000000
    outer loop
      vertex 3.22401337 0.05061183 0.00000000
      vertex 3.19136021 0.16286703 0.00000000
      vertex 3.45932402 0.53056545 0.00000000
    endloop
  endfacet
  facet normal 0.00000000 0.00000000 -1.00000000
    outer loop
      vertex 3.22401337 0.05061183 0.00000000
      vertex 3.45932402 0.53056545 0.00000000
      vertex 3.69929282 -0.29440047 0.00000000
    endloop
  endfacet
  facet normal 0.96020194 0.27930669 0.00000000
    outer loop
      vertex 3.22401337 0.05061183 0.20000000
      vertex 3.19136021 0.16286703 0.00000000
      vertex 3.19136021 0.16286703 0.20000000
    endloop
  endfacet
  facet normal 0.96020194 0.27930669 0.00000000
    outer loop
      vertex 3.22401337 0.05061183 0.20000000
      vertex 3.22401337 0.05061183 0.00000000
      vertex 3.19136021 0.16286703 0.00000000
    endloop
  endfacet
  facet normal -0.96020194 -0.27930669 0.00000000
    outer loop
      vertex 3.69929282 -0.29440047 0.20000000
      vertex 3.45932402 0.53056545 0.20000000
      vertex 3.45932402 0.53056545 0.00000000
    endloop
  endfacet
  facet normal -0.96020194 -0.27930669 -0.00000000
    outer loop
      vertex 3.69929282 -0.29440047 0.20000000
      vertex 3.45932402 0.53056545 0.00000000
      vertex 3.69929282 -0.29440047 0.00000000
    endloop
  endfacet
  facet normal 0.00000000 0.00000000 1.00000000
    outer loop
      vertex 3.19136021 0.16286703 0.20000000
      vertex -3.61311819 0.33115508 0.20000000
      vertex -3.28641677 -0.01977651 0.20000000
    endloop
  endfacet
  facet normal 0.00000000 -0.00000000 1.00000000
    outer loop
      vertex 3.19136021 0.16286703 0.20000000
      vertex 3.45932402 0.53056545 0.20000000
      vertex -3.61311819 0.33115508 0.20000000
    endloop
  endfacet
  facet normal -0.00000000 0.00000000 -1.00000000
    outer loop
      vertex 3.19136021 0.16286703 0.00000000
      vertex -3.28641677 -0.01977651 0.00000000
      vertex -3.61311819 0.33115508 0.00000000
    endloop
  endfacet
  facet normal 0.00000000 0.00000000 -1.00000000
    outer loop
      vertex 3.19136021 0.16286703 0.00000000
      vertex -3.61311819 0.33115508 0.00000000
      vertex 3.45932402 0.53056545 0.00000000
    endloop
  endfacet
  facet normal -0.02818420 0.99960275 0.00000000
    outer loop
      vertex 3.19136021 0.16286703 0.20000000
      vertex -3.28641677 -0.01977651 0.00000000
      vertex -3.28641677 -0.01977651 0.20000000
    endloop
  endfacet
  facet normal -0.02818420 0.99960275 0.00000000
    outer loop
      vertex 3.19136021 0.16286703 0.20000000
      vertex 3.19136021 0.16286703 0.00000000
      vertex -3.28641677 -0.01977651 0.00000000
    endloop
  endfacet
  facet normal 0.02818420 -0.99960275 0.00000000
    outer loop
      vertex 3.45932402 0.53056545 0.20000000
      vertex -3.61311819 0.33115508 0.20000000
      vertex -3.61311819 0.33115508 0.00000000
    endloop
  endfacet
  facet normal 0.02818420 -0.99960275 0.00000000
    outer loop
      vertex 3.45932402 0.53056545 0.20000000
      vertex -3.61311819 0.33115508 0.00000000
      vertex 3.45932402 0.53056545 0.00000000
    endloop
  endfacet
  facet normal 0.00000000 0.00000000 1.00000000
    outer loop
      vertex -3.28641677 -0.01977651 0.20000000
      vertex -3.69929282 -0.53056545 0.20000000
      vertex -3.30020383 -0.15764306 0.20000000
    endloop
  endfacet
  facet normal 0.00000000 0.00000000 1.00000000
    outer loop
      vertex -3.28641677 -0.01977651 0.20000000
      vertex -3.61311819 0.33115508 0.20000000
      vertex -3.69929282 -0.53056545 0.20000000
    endloop
  endfacet
  facet normal 0.00000000 0.00000000 -1.00000000
    outer loop
      vertex -3.28641677 -0.01977651 0.00000000
      vertex -3.30020383 -0.15764306 0.00000000
      vertex -3.69929282 -0.53056545 0.00000000
    endloop
  endfacet
  facet normal -0.00000000 0.00000000 -1.00000000
    outer loop
      vertex -3.28641677 -0.01977651 0.00000000
      vertex -3.69929282 -0.53056545 0.00000000
      vertex -3.61311819 0.33115508 0.00000000
    endloop
  endfacet
  facet normal -0.99503690 0.09950666 0.00000000
    outer loop
      vertex -3.28641677 -0.01977651 0.20000000
      vertex -3.30020383 -0.15764306 0.00000000
      vertex -3.30020383 -0.15764306 0.20000000
    endloop
  endfacet
  facet normal -0.99503690 0.09950666 0.00000000
    outer loop
      vertex -3.28641677 -0.01977651 0.20000000
      vertex -3.28641677 -0.01977651 0.00000000
      vertex -3.30020383 -0.15764306 0.00000000
    endloop
  endfacet
  facet normal 0.99503690 -0.09950666 0.00000000
    outer loop
      vertex -3.61311819 0.33115508 0.20000000
      vertex -3.69929282 -0.53056545 0.20000000
      vertex -3.69929282 -0.53056545 0.00000000
    endloop
  endfacet
  facet normal 0.99503690 -0.09950666 0.00000000
    outer loop
      vertex -3.61311819 0.33115508 0.20000000
      vertex -3.69929282 -0.53056545 0.00000000
      vertex -3.61311819 0.33115508 0.00000000
    endloop
  endfacet
endsolid curb_side_ring_00
