mtllib curb_top_ring_04_visual.mtl
o curb_top_ring_04_visual
usemtl curb_marble
v 1.66609102 -11.91265108 0.20030000
v 1.92802952 -11.81045325 0.20030000
v 2.17929386 -11.70317077 0.20030000
v 2.42114388 -11.59033893 0.20030000
v 2.65359414 -11.47198025 0.20030000
v 2.87666350 -11.34811649 0.20030000
v 3.09037544 -11.21876786 0.20030000
v 3.29475829 -11.08395210 0.20030000
v 3.48984517 -10.94368347 0.20030000
v 3.67567379 -10.79797167 0.20030000
v 3.85228595 -10.64682079 0.20030000
v 4.01972668 -10.49022829 0.20030000
v 4.17804315 -10.32818424 0.20030000
v 4.32728325 -10.16067078 0.20030000
v 4.46749400 -9.98766194 0.20030000
v 4.59871983 -9.80912395 0.20030000
v 4.72100092 -9.62501596 0.20030000
v 4.83437164 -9.43529117 0.20030000
v 4.93885939 -9.23989838 0.20030000
v 5.03448370 -9.03878373 0.20030000
v 5.12125589 -8.83189256 0.20030000
v 5.19917909 -8.61917125 0.20030000
v 5.26824876 -8.40056890 0.20030000
v 5.32845355 -8.17603867 0.20030000
v 5.37977629 -7.94553881 0.20030000
v 5.42219529 -7.70903341 0.20030000
v 5.45568553 -7.46649260 0.20030000
v 5.48021985 -7.21789266 0.20030000
v 5.49577004 -6.96321569 0.20030000
v 5.50230773 -6.70244921 0.20030000
v 5.49980516 -6.43558558 0.20030000
v 5.48823572 -6.16262139 0.20030000
v 5.46747538 -5.88221958 0.20030000
v 4.05821125 9.88439755 0.20030000
v 4.04943328 9.96967999 0.20030000
v 4.03865749 10.05210093 0.20030000
v 4.02577298 10.13285141 0.20030000
v 4.01079043 10.21194023 0.20030000
v 3.99372000 10.28937794 0.20030000
v 3.97457111 10.36517685 0.20030000
v 3.95335217 10.43935099 0.20030000
v 3.93007033 10.51191612 0.20030000
v 3.90473122 10.58288952 0.20030000
v 3.87733869 10.65228992 0.20030000
v 3.84789459 10.72013719 0.20030000
v 3.81639858 10.78645208 0.20030000
v 3.78284801 10.85125591 0.20030000
v 3.74723782 10.91457018 0.20030000
v 3.70956057 10.97641620 0.20030000
v 3.66980646 11.03681464 0.20030000
v 3.62796349 11.09578520 0.20030000
v 3.58401767 11.15334621 0.20030000
v 3.53795328 11.20951430 0.20030000
v 3.48975318 11.26430415 0.20030000
v 3.43939917 11.31772828 0.20030000
v 3.38687236 11.36979690 0.20030000
v 3.33215353 11.42051785 0.20030000
v 3.27522348 11.46989663 0.20030000
v 3.21606338 11.51793645 0.20030000
v 3.15465507 11.56463835 0.20030000
v 3.09098129 11.61000137 0.20030000
v 3.02502590 11.65402278 0.20030000
v 2.95677400 11.69669827 0.20030000
v 2.88621209 11.73802220 0.20030000
v 2.81332808 11.77798782 0.20030000
v 2.73705248 11.81713090 0.20030000
v 1.63102635 12.36609470 0.20030000
v 1.60251198 12.38011205 0.20030000
v 1.57422897 12.39374811 0.20030000
v 1.54586903 12.40715449 0.20030000
v 1.51743197 12.42033135 0.20030000
v 1.48891758 12.43327883 0.20030000
v 1.46032566 12.44599706 0.20030000
v 1.43165601 12.45848619 0.20030000
v 1.40290841 12.47074634 0.20030000
v 1.37408266 12.48277764 0.20030000
v 1.34517854 12.49458022 0.20030000
v 1.31619583 12.50615418 0.20030000
v 1.28713429 12.51749965 0.20030000
v 1.25799372 12.52861673 0.20030000
v 1.22877387 12.53950551 0.20030000
v 1.19947452 12.55016611 0.20030000
v 1.17009543 12.56059860 0.20030000
v 1.14063637 12.57080308 0.20030000
v 1.11109709 12.58077963 0.20030000
v 1.08147736 12.59052831 0.20030000
v 1.05177694 12.60004921 0.20030000
v 1.02199558 12.60934238 0.20030000
v 0.99213304 12.61840788 0.20030000
v 0.96218908 12.62724576 0.20030000
v 0.93216345 12.63585607 0.20030000
v 0.90205590 12.64423885 0.20030000
v 0.87186619 12.65239414 0.20030000
v 0.84159407 12.66032195 0.20030000
v 0.81123931 12.66802233 0.20030000
v 0.78080164 12.67549527 0.20030000
v 0.75028084 12.68274080 0.20030000
v 0.71967665 12.68975892 0.20030000
v 0.68865361 12.69662380 0.20030000
v -0.43026227 12.93974347 0.20030000
v -0.51171083 12.95678815 0.20030000
v -0.59240151 12.97237990 0.20030000
v -0.67300830 12.98666070 0.20030000
v -0.75353285 12.99963176 0.20030000
v -0.83397693 13.01129423 0.20030000
v -0.91434237 13.02164918 0.20030000
v -0.99463108 13.03069760 0.20030000
v -1.07484507 13.03844041 0.20030000
v -1.15498640 13.04487842 0.20030000
v -1.23505721 13.05001235 0.20030000
v -1.31505970 13.05384285 0.20030000
v -1.39499609 13.05637041 0.20030000
v -1.47486867 13.05759547 0.20030000
v -1.55467976 13.05751831 0.20030000
v -1.63443169 13.05613914 0.20030000
v -1.71412681 13.05345801 0.20030000
v -1.79376747 13.04947491 0.20030000
v -1.87335602 13.04418966 0.20030000
v -1.95289481 13.03760199 0.20030000
v -2.03238613 13.02971153 0.20030000
v -2.11183228 13.02051778 0.20030000
v -2.19123549 13.01002014 0.20030000
v -2.27059795 12.99821789 0.20030000
v -2.34992178 12.98511024 0.20030000
v -2.42920906 12.97069629 0.20030000
v -2.50846178 12.95497504 0.20030000
v -2.58768186 12.93794541 0.20030000
v -2.66687111 12.91960627 0.20030000
v -2.74603130 12.89995638 0.20030000
v -2.82516406 12.87899447 0.20030000
v -2.90427094 12.85671917 0.20030000
v -2.98401174 12.83293274 0.20030000
v -3.89211596 12.55445195 0.20030000
v -3.99962819 12.51967399 0.20030000
v -4.10196927 12.48294930 0.20030000
v -4.20042826 12.44388791 0.20030000
v -4.29501829 12.40251404 0.20030000
v -4.38575698 12.35885150 0.20030000
v -4.47266687 12.31292283 0.20030000
v -4.55577568 12.26474843 0.20030000
v -4.63511639 12.21434540 0.20030000
v -4.71072713 12.16172648 0.20030000
v -4.78265068 12.10689881 0.20030000
v -4.85093369 12.04986286 0.20030000
v -4.91562559 11.99061146 0.20030000
v -4.97677710 11.92912919 0.20030000
v -5.03443856 11.86539204 0.20030000
v -5.08865812 11.79936762 0.20030000
v -5.13947986 11.73101581 0.20030000
v -5.18694213 11.66028993 0.20030000
v -5.23107615 11.58713821 0.20030000
v -5.27190501 11.51150572 0.20030000
v -5.30944317 11.43333627 0.20030000
v -5.34369645 11.35257438 0.20030000
v -5.37466246 11.26916709 0.20030000
v -5.40233145 11.18306543 0.20030000
v -5.42668740 11.09422556 0.20030000
v -5.44770930 11.00260955 0.20030000
v -5.46537242 10.90818571 0.20030000
v -5.47964961 10.81092866 0.20030000
v -5.49051241 10.71081909 0.20030000
v -5.49793203 10.60784327 0.20030000
v -5.50188015 10.50199253 0.20030000
v -5.50232955 10.39326260 0.20030000
v -5.49921746 10.28030818 0.20030000
v -5.27277892 4.99826392 0.20030000
v -5.26762042 4.91050423 0.20030000
v -5.25996646 4.82750943 0.20030000
v -5.24977596 4.74790655 0.20030000
v -5.23709361 4.67170015 0.20030000
v -5.22196831 4.59888812 0.20030000
v -5.20445229 4.52945979 0.20030000
v -5.18459986 4.46339398 0.20030000
v -5.16246534 4.40065705 0.20030000
v -5.13810040 4.34120121 0.20030000
v -5.11155057 4.28496357 0.20030000
v -5.08285132 4.23186600 0.20030000
v -5.05202382 4.18181641 0.20030000
v -5.01907097 4.13471151 0.20030000
v -4.98397428 4.09044112 0.20030000
v -4.94669216 4.04889385 0.20030000
v -4.90716020 4.00996353 0.20030000
v -4.86529360 3.97355565 0.20030000
v -4.82099158 3.93959296 0.20030000
v -4.77414333 3.90801945 0.20030000
v -4.72463457 3.87880225 0.20030000
v -4.67235403 3.85193144 0.20030000
v -4.61719894 3.82741787 0.20030000
v -4.55907912 3.80528977 0.20030000
v -4.49791943 3.78558853 0.20030000
v -4.43366066 3.76836441 0.20030000
v -4.36625917 3.75367260 0.20030000
v -4.29568561 3.74156988 0.20030000
v -4.22192304 3.73211201 0.20030000
v -4.14496488 3.72535190 0.20030000
v -4.06481280 3.72133846 0.20030000
v -3.98147478 3.72011591 0.20030000
v -3.89357879 3.72174929 0.20030000
v 2.87164288 3.95490312 0.20030000
v 3.48318346 -2.19068261 0.20030000
v -3.24427709 -3.10675166 0.20030000
v -3.33121617 -3.11999758 0.20030000
v -3.41323932 -3.13529622 0.20030000
v -3.49171087 -3.15281641 0.20030000
v -3.56663149 -3.17251469 0.20030000
v -3.63800873 -3.19434440 0.20030000
v -3.70585866 -3.21825664 0.20030000
v -3.77020766 -3.24420179 0.20030000
v -3.83109393 -3.27213156 0.20030000
v -3.88856872 -3.30200174 0.20030000
v -3.94269691 -3.33377545 0.20030000
v -3.99355660 -3.36742682 0.20030000
v -4.04123753 -3.40294475 0.20030000
v -4.08583810 -3.44033623 0.20030000
v -4.12746109 -3.47962878 0.20030000
v -4.16620832 -3.52087149 0.20030000
v -4.20217478 -3.56413417 0.20030000
v -4.23544292 -3.60950460 0.20030000
v -4.26607797 -3.65708404 0.20030000
v -4.29412464 -3.70698156 0.20030000
v -4.31960592 -3.75930782 0.20030000
v -4.34252363 -3.81416922 0.20030000
v -4.36286074 -3.87166291 0.20030000
v -4.38058472 -3.93187329 0.20030000
v -4.39565160 -3.99486987 0.20030000
v -4.40800986 -4.06070666 0.20030000
v -4.41760422 -4.12942269 0.20030000
v -4.42437856 -4.20104334 0.20030000
v -4.42827837 -4.27558217 0.20030000
v -4.42925229 -4.35304295 0.20030000
v -4.42725324 -4.43342172 0.20030000
v -4.42223887 -4.51670858 0.20030000
v -4.41404271 -4.60426816 0.20030000
v -3.72392259 -10.89923604 0.20030000
v -3.70045401 -11.08654736 0.20030000
v -3.67231323 -11.26383113 0.20030000
v -3.63938904 -11.43238638 0.20030000
v -3.60174634 -11.59218887 0.20030000
v -3.55946065 -11.74322097 0.20030000
v -3.51261833 -11.88547555 0.20030000
v -3.46131570 -12.01896071 0.20030000
v -3.40565668 -12.14370547 0.20030000
v -3.34574823 -12.25976597 0.20030000
v -3.28169297 -12.36723122 0.20030000
v -3.21357887 -12.46622737 0.20030000
v -3.14146627 -12.55691848 0.20030000
v -3.06537371 -12.63950208 0.20030000
v -2.98526516 -12.71419821 0.20030000
v -2.90104204 -12.78123208 0.20030000
v -2.81254319 -12.84081238 0.20030000
v -2.71955461 -12.89310944 0.20030000
v -2.62182798 -12.93823793 0.20030000
v -2.51910446 -12.97624805 0.20030000
v -2.41113856 -13.00712672 0.20030000
v -2.29771750 -13.03080726 0.20030000
v -2.17867314 -13.04718435 0.20030000
v -2.05388603 -13.05613039 0.20030000
v -1.92328297 -13.05751012 0.20030000
v -1.78683055 -13.05119185 0.20030000
v -1.64452668 -13.03705482 0.20030000
v -1.49639211 -13.01499314 0.20030000
v -1.34246288 -12.98491711 0.20030000
v -1.18278417 -12.94675280 0.20030000
v -1.01740563 -12.90044064 0.20030000
v -0.84637810 -12.84593355 0.20030000
v -0.66849106 -12.78274727 0.20030000
v 1.79438568 -12.24902588 0.20030000
v 2.06417029 -12.14376682 0.20030000
v 2.32611724 -12.03192318 0.20030000
v 2.57896673 -11.91395969 0.20030000
v 2.82270419 -11.78985381 0.20030000
v 3.05731075 -11.65958378 0.20030000
v 3.28276292 -11.52312941 0.20030000
v 3.49903240 -11.38047294 0.20030000
v 3.70608606 -11.23160013 0.20030000
v 3.90388617 -11.07650125 0.20030000
v 4.09239096 -10.91517224 0.20030000
v 4.27155538 -10.74761562 0.20030000
v 4.44133226 -10.57384132 0.20030000
v 4.60167371 -10.39386722 0.20030000
v 4.75253273 -10.20771928 0.20030000
v 4.89386486 -10.01543126 0.20030000
v 5.02562995 -9.81704402 0.20030000
v 5.14779361 -9.61260435 0.20030000
v 5.26032844 -9.40216346 0.20030000
v 5.36321491 -9.18577522 0.20030000
v 5.45644172 -8.96349427 0.20030000
v 5.54000572 -8.73537423 0.20030000
v 5.61391145 -8.50146601 0.20030000
v 5.67817027 -8.26181646 0.20030000
v 5.73279934 -8.01646730 0.20030000
v 5.77782036 -7.76545447 0.20030000
v 5.81325834 -7.50880782 0.20030000
v 5.83914045 -7.24655108 0.20030000
v 5.85549490 -6.97870215 0.20030000
v 5.86235004 -6.70527350 0.20030000
v 5.85973366 -6.42627278 0.20030000
v 5.84767234 -6.14170340 0.20030000
v 5.82629014 -5.85290242 0.20030000
v 4.41656666 9.91885383 0.20030000
v 4.40703566 10.01145234 0.20030000
v 4.39496100 10.10380794 0.20030000
v 4.38045359 10.19472959 0.20030000
v 4.36350275 10.28420848 0.20030000
v 4.34409832 10.37223407 0.20030000
v 4.32223088 10.45879405 0.20030000
v 4.29789202 10.54387437 0.20030000
v 4.27107458 10.62745931 0.20030000
v 4.24177294 10.70953154 0.20030000
v 4.20998325 10.79007237 0.20030000
v 4.17570366 10.86906191 0.20030000
v 4.13893451 10.94647942 0.20030000
v 4.09967844 11.02230357 0.20030000
v 4.05794052 11.09651286 0.20030000
v 4.01372819 11.16908600 0.20030000
v 3.96705125 11.24000230 0.20030000
v 3.91792169 11.30924206 0.20030000
v 3.86635352 11.37678696 0.20030000
v 3.81236244 11.44262036 0.20030000
v 3.75596560 11.50672759 0.20030000
v 3.69718119 11.56909613 0.20030000
v 3.63602812 11.62971576 0.20030000
v 3.57252560 11.68857865 0.20030000
v 3.50669282 11.74567929 0.20030000
v 3.43854861 11.80101448 0.20030000
v 3.36811115 11.85458317 0.20030000
v 3.29539768 11.90638633 0.20030000
v 3.22042436 11.95642668 0.20030000
v 3.14320607 12.00470854 0.20030000
v 3.06375632 12.05123755 0.20030000
v 2.98208719 12.09602045 0.20030000
v 2.89926819 12.13852147 0.20030000
v 1.79046245 12.68886490 0.20030000
v 1.76009596 12.70379273 0.20030000
v 1.72933099 12.71862542 0.20030000
v 1.69847585 12.73321134 0.20030000
v 1.66753073 12.74755035 0.20030000
v 1.63649584 12.76164231 0.20030000
v 1.60537136 12.77548707 0.20030000
v 1.57415751 12.78908451 0.20030000
v 1.54285449 12.80243449 0.20030000
v 1.51146253 12.81553688 0.20030000
v 1.47998183 12.82839156 0.20030000
v 1.44841262 12.84099841 0.20030000
v 1.41675513 12.85335733 0.20030000
v 1.38500957 12.86546820 0.20030000
v 1.35317617 12.87733093 0.20030000
v 1.32125518 12.88894541 0.20030000
v 1.28924681 12.90031156 0.20030000
v 1.25715132 12.91142929 0.20030000
v 1.22496893 12.92229851 0.20030000
v 1.19269989 12.93291916 0.20030000
v 1.16034444 12.94329117 0.20030000
v 1.12790281 12.95341446 0.20030000
v 1.09537526 12.96328899 0.20030000
v 1.06276203 12.97291470 0.20030000
v 1.03006337 12.98229154 0.20030000
v 0.99727951 12.99141948 0.20030000
v 0.96441071 13.00029848 0.20030000
v 0.93145721 13.00892852 0.20030000
v 0.89841926 13.01730956 0.20030000
v 0.86529709 13.02544159 0.20030000
v 0.83209097 13.03332460 0.20030000
v 0.79880112 13.04095859 0.20030000
v 0.76576302 13.04826938 0.20030000
v -0.35517250 13.29182788 0.20030000
v -0.44068735 13.30972351 0.20030000
v -0.52684716 13.32637205 0.20030000
v -0.61297793 13.34163151 0.20030000
v -0.69907800 13.35550069 0.20030000
v -0.78514563 13.36797844 0.20030000
v -0.87117897 13.37906369 0.20030000
v -0.95717610 13.38875544 0.20030000
v -1.04313503 13.39705279 0.20030000
v -1.12905368 13.40395491 0.20030000
v -1.21492992 13.40946107 0.20030000
v -1.30076157 13.41357066 0.20030000
v -1.38654638 13.41628315 0.20030000
v -1.47228207 13.41759814 0.20030000
v -1.55796632 13.41751530 0.20030000
v -1.64359681 13.41603447 0.20030000
v -1.72917118 13.41315555 0.20030000
v -1.81468707 13.40887861 0.20030000
v -1.90014215 13.40320378 0.20030000
v -1.98553406 13.39613134 0.20030000
v -2.07086051 13.38766167 0.20030000
v -2.15611920 13.37779528 0.20030000
v -2.24130791 13.36653275 0.20030000
v -2.32642444 13.35387480 0.20030000
v -2.41146666 13.33982223 0.20030000
v -2.49643251 13.32437595 0.20030000
v -2.58131999 13.30753693 0.20030000
v -2.66612719 13.28930627 0.20030000
v -2.75085227 13.26968510 0.20030000
v -2.83549350 13.24867466 0.20030000
v -2.92004923 13.22627622 0.20030000
v -3.00451790 13.20249113 0.20030000
v -3.08823973 13.17751717 0.20030000
v -4.00029555 12.89782457 0.20030000
v -4.11585359 12.86044397 0.20030000
v -4.22917866 12.81977772 0.20030000
v -4.33898172 12.77621582 0.20030000
v -4.44524963 12.72973402 0.20030000
v -4.54796477 12.68030853 0.20030000
v -4.64710461 12.62791679 0.20030000
v -4.74264142 12.57253843 0.20030000
v -4.83454221 12.51415633 0.20030000
v -4.92276888 12.45275775 0.20030000
v -5.00727863 12.38833556 0.20030000
v -5.08802480 12.32088928 0.20030000
v -5.16495798 12.25042608 0.20030000
v -5.23802744 12.17696139 0.20030000
v -5.30718284 12.10051921 0.20030000
v -5.37237604 12.02113194 0.20030000
v -5.43356294 11.93883969 0.20030000
v -5.49070521 11.85368915 0.20030000
v -5.54377163 11.76573207 0.20030000
v -5.59273909 11.67502340 0.20030000
v -5.63759315 11.58161933 0.20030000
v -5.67832798 11.48557533 0.20030000
v -5.71494597 11.38694436 0.20030000
v -5.74745688 11.28577540 0.20030000
v -5.77587671 11.18211228 0.20030000
v -5.80022649 11.07599294 0.20030000
v -5.82053094 10.96744906 0.20030000
v -5.83681721 10.85650602 0.20030000
v -5.84911377 10.74318315 0.20030000
v -5.85744940 10.62749415 0.20030000
v -5.86185241 10.50944770 0.20030000
v -5.86235004 10.38904808 0.20030000
v -5.85900506 10.26764058 0.20030000
v -5.63232623 4.97999120 0.20030000
v -5.62664889 4.88340477 0.20030000
v -5.61786068 4.78811078 0.20030000
v -5.60600266 4.69548218 0.20030000
v -5.59103014 4.60551444 0.20030000
v -5.57289425 4.51820967 0.20030000
v -5.55154272 4.43357851 0.20030000
v -5.52692127 4.35164216 0.20030000
v -5.49897556 4.27243427 0.20030000
v -5.46765394 4.19600260 0.20030000
v -5.43291085 4.12241007 0.20030000
v -5.39471085 4.05173480 0.20030000
v -5.35303275 3.98406886 0.20030000
v -5.30787366 3.91951558 0.20030000
v -5.25925208 3.85818511 0.20030000
v -5.20720958 3.80018885 0.20030000
v -5.15181058 3.74563296 0.20030000
v -5.09313987 3.69461196 0.20030000
v -5.03129824 3.64720310 0.20030000
v -4.96639650 3.60346239 0.20030000
v -4.89854893 3.56342269 0.20030000
v -4.82786680 3.52709394 0.20030000
v -4.75445287 3.49446527 0.20030000
v -4.67839733 3.46550846 0.20030000
v -4.59977532 3.44018212 0.20030000
v -4.51864605 3.41843598 0.20030000
v -4.43505315 3.40021486 0.20030000
v -4.34902599 3.38546198 0.20030000
v -4.26058149 3.37412159 0.20030000
v -4.16972624 3.36614075 0.20030000
v -4.07645856 3.36147057 0.20030000
v -3.98077050 3.36006684 0.20030000
v -3.88403405 3.36186450 0.20030000
v 2.54682333 3.58349494 0.20030000
v 3.09057157 -1.88082181 0.20030000
v -3.29567825 -2.75042867 0.20030000
v -3.39134816 -2.76500482 0.20030000
v -3.48548805 -2.78256342 0.20030000
v -3.57673359 -2.80293563 0.20030000
v -3.66508411 -2.82616493 0.20030000
v -3.75053207 -2.85229796 0.20030000
v -3.83306138 -2.88138364 0.20030000
v -3.91264568 -2.91347157 0.20030000
v -3.98924676 -2.94861005 0.20030000
v -4.06281336 -2.98684329 0.20030000
v -4.13328062 -3.02820817 0.20030000
v -4.20057043 -3.07273056 0.20030000
v -4.26459306 -3.12042156 0.20030000
v -4.32525009 -3.17127418 0.20030000
v -4.38243876 -3.22526089 0.20030000
v -4.43605723 -3.28233262 0.20030000
v -4.48601054 -3.34241954 0.20030000
v -4.53221620 -3.40543389 0.20030000
v -4.57460902 -3.47127439 0.20030000
v -4.61314425 -3.53983199 0.20030000
v -4.64779894 -3.61099601 0.20030000
v -4.67857124 -3.68466007 0.20030000
v -4.70547821 -3.76072699 0.20030000
v -4.72855234 -3.83911240 0.20030000
v -4.74783764 -3.91974678 0.20030000
v -4.76338559 -4.00257612 0.20030000
v -4.77525151 -4.08756139 0.20030000
v -4.78349149 -4.17467721 0.20030000
v -4.78816006 -4.26391002 0.20030000
v -4.78930857 -4.35525604 0.20030000
v -4.78698410 -4.44871925 0.20030000
v -4.78122900 -4.54430953 0.20030000
v -4.77220974 -4.64066226 0.20030000
v -4.08147547 -10.94123207 0.20030000
v -4.05692766 -11.13715716 0.20030000
v -4.02686048 -11.32657708 0.20030000
v -3.99138517 -11.50819278 0.20030000
v -3.95043682 -11.68202853 0.20030000
v -3.90393990 -11.84810192 0.20030000
v -3.85180807 -12.00642010 0.20030000
v -3.79394500 -12.15697497 0.20030000
v -3.73024676 -12.29973750 0.20030000
v -3.66060641 -12.43465157 0.20030000
v -3.58492131 -12.56162816 0.20030000
v -3.50310350 -12.68054111 0.20030000
v -3.41509265 -12.79122637 0.20030000
v -3.32087020 -12.89348642 0.20030000
v -3.22047218 -12.98710119 0.20030000
v -3.11399719 -13.07184550 0.20030000
v -3.00160638 -13.14751065 0.20030000
v -2.88351375 -13.21392630 0.20030000
v -2.75996761 -13.27097780 0.20030000
v -2.63122682 -13.31861493 0.20030000
v -2.49753686 -13.35685078 0.20030000
v -2.35911050 -13.38575203 0.20030000
v -2.21611589 -13.40542399 0.20030000
v -2.06867249 -13.41599427 0.20030000
v -1.91685348 -13.41759814 0.20030000
v -1.76069228 -13.41036727 0.20030000
v -1.60019098 -13.39442243 0.20030000
v -1.43532883 -13.36986951 0.20030000
v -1.26606979 -13.33679821 0.20030000
v -1.09236868 -13.29528245 0.20030000
v -0.91417584 -13.24538181 0.20030000
v -0.73144045 -13.18714338 0.20030000
v -0.54537302 -13.12105140 0.20030000
vt 2.22145470 -15.88353477
vt 2.57070603 -15.74727100
vt 2.90572515 -15.60422770
vt 3.22819184 -15.45378524
vt 3.53812552 -15.29597367
vt 3.83555133 -15.13082199
vt 4.12050059 -14.95835715
vt 4.39301106 -14.77860280
vt 4.65312689 -14.59157796
vt 4.90089839 -14.39729556
vt 5.13638126 -14.19576105
vt 5.35963557 -13.98697105
vt 5.57072420 -13.77091233
vt 5.76971100 -13.54756104
vt 5.95665867 -13.31688258
vt 6.13162644 -13.07883193
vt 6.29466789 -12.83335461
vt 6.44582885 -12.58038823
vt 6.58514585 -12.31986451
vt 6.71264494 -12.05171164
vt 6.82834118 -11.77585674
vt 6.93223878 -11.49222834
vt 7.02433169 -11.20075854
vt 7.10460473 -10.90138489
vt 7.17303505 -10.59405175
vt 7.22959372 -10.27871121
vt 7.27424737 -9.95532347
vt 7.30695980 -9.62385688
vt 7.32769338 -9.28428758
vt 7.33641031 -8.93659894
vt 7.33307355 -8.58078078
vt 7.31764763 -8.21682853
vt 7.28996717 -7.84295943
vt 5.41094833 13.17919673
vt 5.39924437 13.29290665
vt 5.38487665 13.40280124
vt 5.36769731 13.51046854
vt 5.34772058 13.61592031
vt 5.32496000 13.71917059
vt 5.29942815 13.82023580
vt 5.27113622 13.91913466
vt 5.24009377 14.01588815
vt 5.20630830 14.11051936
vt 5.16978492 14.20305323
vt 5.13052612 14.29351625
vt 5.08853144 14.38193610
vt 5.04379734 14.46834121
vt 4.99631710 14.55276025
vt 4.94608077 14.63522160
vt 4.89307528 14.71575286
vt 4.83728465 14.79438027
vt 4.77869023 14.87112828
vt 4.71727104 14.94601907
vt 4.65300424 15.01907221
vt 4.58586556 15.09030438
vt 4.51582982 15.15972920
vt 4.44287137 15.22735714
vt 4.36696463 15.29319551
vt 4.28808451 15.35724860
vt 4.20620676 15.41951780
vt 4.12130839 15.48000183
vt 4.03336786 15.53869704
vt 3.94236533 15.59559769
vt 3.84828279 15.65069626
vt 3.75110411 15.70398375
vt 3.64940331 15.75617453
vt 2.17470181 16.48812627
vt 2.13668264 16.50681607
vt 2.09897196 16.52499748
vt 2.06115871 16.54287266
vt 2.02324262 16.56044180
vt 1.98522344 16.57770510
vt 1.94710088 16.59466275
vt 1.90887468 16.61131492
vt 1.87054455 16.62766179
vt 1.83211022 16.64370352
vt 1.79357139 16.65944029
vt 1.75492777 16.67487224
vt 1.71617906 16.68999953
vt 1.67732496 16.70482230
vt 1.63836516 16.71934068
vt 1.59929936 16.73355481
vt 1.56012724 16.74746480
vt 1.52084849 16.76107078
vt 1.48146279 16.77437284
vt 1.44196981 16.78737108
vt 1.40236925 16.80006561
vt 1.36266077 16.81245650
vt 1.32284406 16.82454383
vt 1.28291877 16.83632768
vt 1.24288460 16.84780809
vt 1.20274120 16.85898513
vt 1.16248825 16.86985885
vt 1.12212543 16.88042927
vt 1.08165241 16.89069643
vt 1.04106886 16.90066036
vt 1.00037445 16.91032107
vt 0.95956886 16.91967856
vt 0.91820481 16.92883174
vt -0.57368303 17.25299130
vt -0.68228111 17.27571754
vt -0.78986868 17.29650653
vt -0.89734440 17.31554760
vt -1.00471047 17.33284235
vt -1.11196924 17.34839231
vt -1.21912315 17.36219891
vt -1.32617477 17.37426347
vt -1.43312675 17.38458721
vt -1.53998187 17.39317122
vt -1.64674295 17.40001647
vt -1.75341293 17.40512379
vt -1.85999479 17.40849388
vt -1.96649156 17.41012729
vt -2.07290635 17.41002442
vt -2.17924225 17.40818551
vt -2.28550241 17.40461069
vt -2.39168996 17.39929988
vt -2.49780803 17.39225288
vt -2.60385974 17.38346932
vt -2.70984818 17.37294871
vt -2.81577638 17.36069038
vt -2.92164732 17.34669352
vt -3.02746393 17.33095719
vt -3.13322904 17.31348032
vt -3.23894542 17.29426172
vt -3.34461571 17.27330005
vt -3.45024247 17.25059389
vt -3.55582815 17.22614169
vt -3.66137506 17.19994184
vt -3.76688541 17.17199262
vt -3.87236126 17.14229223
vt -3.97868232 17.11057699
vt -5.18948795 16.73926927
vt -5.33283759 16.69289865
vt -5.46929236 16.64393241
vt -5.60057102 16.59185054
vt -5.72669105 16.53668538
vt -5.84767598 16.47846866
vt -5.96355583 16.41723044
vt -6.07436757 16.35299790
vt -6.18015519 16.28579387
vt -6.28096951 16.21563531
vt -6.37686757 16.14253175
vt -6.46791159 16.06648381
vt -6.55416745 15.98748195
vt -6.63570280 15.90550559
vt -6.71258475 15.82052272
vt -6.78487750 15.73249016
vt -6.85263982 15.64135442
vt -6.91592285 15.54705324
vt -6.97476820 15.44951762
vt -7.02920668 15.34867430
vt -7.07925756 15.24444836
vt -7.12492860 15.13676584
vt -7.16621661 15.02555612
vt -7.20310860 14.91075391
vt -7.23558320 14.79230075
vt -7.26361240 14.67014606
vt -7.28716323 14.54424761
vt -7.30619948 14.41457155
vt -7.32068321 14.28109211
vt -7.33057603 14.14379102
vt -7.33584020 14.00265671
vt -7.33643940 13.85768347
vt -7.33228995 13.70707757
vt -7.03037189 6.66435189
vt -7.02349389 6.54733898
vt -7.01328861 6.43667924
vt -6.99970127 6.33054207
vt -6.98279149 6.22893354
vt -6.96262441 6.13185082
vt -6.93926972 6.03927972
vt -6.91279981 5.95119198
vt -6.88328712 5.86754273
vt -6.85080053 5.78826828
vt -6.81540076 5.71328476
vt -6.77713509 5.64248800
vt -6.73603176 5.57575522
vt -6.69209463 5.51294868
vt -6.64529904 5.45392149
vt -6.59558954 5.39852513
vt -6.54288026 5.34661804
vt -6.48705813 5.29807420
vt -6.42798878 5.25279062
vt -6.36552444 5.21069260
vt -6.29951276 5.17173634
vt -6.22980537 5.13590858
vt -6.15626525 5.10322382
vt -6.07877216 5.07371969
vt -5.99722591 5.04745137
vt -5.91154755 5.02448588
vt -5.82167890 5.00489680
vt -5.72758081 4.98875984
vt -5.62923072 4.97614934
vt -5.52661985 4.96713587
vt -5.41975040 4.96178462
vt -5.30863304 4.96015454
vt -5.19143839 4.96233238
vt 3.82885717 5.27320416
vt 4.64424461 -2.92091014
vt -4.32570279 -4.14233555
vt -4.44162156 -4.15999678
vt -4.55098576 -4.18039496
vt -4.65561449 -4.20375521
vt -4.75550866 -4.23001959
vt -4.85067830 -4.25912586
vt -4.94114488 -4.29100885
vt -5.02694355 -4.32560238
vt -5.10812523 -4.36284208
vt -5.18475829 -4.40266899
vt -5.25692921 -4.44503393
vt -5.32474213 -4.48990243
vt -5.38831670 -4.53725967
vt -5.44778413 -4.58711497
vt -5.50328145 -4.63950504
vt -5.55494443 -4.69449532
vt -5.60289970 -4.75217890
vt -5.64725723 -4.81267280
vt -5.68810396 -4.87611206
vt -5.72549953 -4.94264208
vt -5.75947456 -5.01241043
vt -5.79003151 -5.08555895
vt -5.81714765 -5.16221722
vt -5.84077963 -5.24249773
vt -5.86086879 -5.32649316
vt -5.87734649 -5.41427555
vt -5.89013896 -5.50589692
vt -5.89917142 -5.60139112
vt -5.90437115 -5.70077622
vt -5.90566972 -5.80405727
vt -5.90300431 -5.91122896
vt -5.89631849 -6.02227810
vt -5.88539028 -6.13902421
vt -4.96523012 -14.53231471
vt -4.93393868 -14.78206314
vt -4.89641765 -15.01844151
vt -4.85251873 -15.24318185
vt -4.80232845 -15.45625182
vt -4.74594754 -15.65762796
vt -4.68349111 -15.84730073
vt -4.61508760 -16.02528094
vt -4.54087557 -16.19160730
vt -4.46099764 -16.34635463
vt -4.37559062 -16.48964163
vt -4.28477182 -16.62163650
vt -4.18862169 -16.74255798
vt -4.08716494 -16.85266944
vt -3.98035355 -16.95226428
vt -3.86805606 -17.04164277
vt -3.75005759 -17.12108317
vt -3.62607281 -17.19081259
vt -3.49577064 -17.25098390
vt -3.35880595 -17.30166407
vt -3.21485142 -17.34283562
vt -3.06362334 -17.37440967
vt -2.90489753 -17.39624580
vt -2.73851470 -17.40817386
vt -2.56437730 -17.41001350
vt -2.38244074 -17.40158913
vt -2.19270224 -17.38273976
vt -1.99518948 -17.35332418
vt -1.78995051 -17.31322281
vt -1.57704555 -17.26233706
vt -1.35654084 -17.20058752
vt -1.12850414 -17.12791140
vt -0.89132141 -17.04366303
vt 2.39251425 -16.33203451
vt 2.75222705 -16.19168909
vt 3.10148966 -16.04256424
vt 3.43862231 -15.88527958
vt 3.76360558 -15.71980508
vt 4.07641433 -15.54611171
vt 4.37701723 -15.36417255
vt 4.66537654 -15.17396392
vt 4.94144808 -14.97546683
vt 5.20518157 -14.76866833
vt 5.45652128 -14.55356298
vt 5.69540717 -14.33015415
vt 5.92177635 -14.09845510
vt 6.13556495 -13.85848963
vt 6.33671030 -13.61029237
vt 6.52515315 -13.35390834
vt 6.70083994 -13.08939202
vt 6.86372481 -12.81680580
vt 7.01377126 -12.53621795
vt 7.15095322 -12.24770029
vt 7.27525563 -11.95132569
vt 7.38667430 -11.64716564
vt 7.48521526 -11.33528802
vt 7.57089370 -11.01575528
vt 7.64373246 -10.68862306
vt 7.70376048 -10.35393929
vt 7.75101112 -10.01174376
vt 7.78552060 -9.66206811
vt 7.80732653 -9.30493620
vt 7.81646673 -8.94036467
vt 7.81297821 -8.56836371
vt 7.79689645 -8.18893787
vt 7.76838685 -7.80386990
vt 5.88875554 13.22513843
vt 5.87604754 13.34860312
vt 5.85994800 13.47174392
vt 5.84060479 13.59297279
vt 5.81800367 13.71227798
vt 5.79213110 13.82964543
vt 5.76297451 13.94505873
vt 5.73052269 14.05849916
vt 5.69476611 14.16994574
vt 5.65569726 14.27937538
vt 5.61331100 14.38676315
vt 5.56760488 14.49208255
vt 5.51857934 14.59530589
vt 5.46623792 14.69640476
vt 5.41058736 14.79535048
vt 5.35163758 14.89211467
vt 5.28940166 14.98666973
vt 5.22389559 15.07898941
vt 5.15513803 15.16904928
vt 5.08314992 15.25682715
vt 5.00795413 15.34230345
vt 4.92957492 15.42546150
vt 4.84803749 15.50628768
vt 4.76336746 15.58477153
vt 4.67559043 15.66090571
vt 4.58473149 15.73468597
vt 4.49081487 15.80611090
vt 4.39386358 15.87518177
vt 4.29389915 15.94190224
vt 4.19094143 16.00627805
vt 4.08500842 16.06831673
vt 3.97611626 16.12802727
vt 3.86569091 16.18469530
vt 2.38728327 16.91848654
vt 2.34679461 16.93839031
vt 2.30577466 16.95816722
vt 2.26463447 16.97761512
vt 2.22337431 16.99673380
vt 2.18199445 17.01552308
vt 2.14049514 17.03398277
vt 2.09887668 17.05211268
vt 2.05713932 17.06991265
vt 2.01528337 17.08738250
vt 1.97330911 17.10452208
vt 1.93121683 17.12133122
vt 1.88900684 17.13780977
vt 1.84667942 17.15395760
vt 1.80423490 17.16977457
vt 1.76167357 17.18526055
vt 1.71899575 17.20041541
vt 1.67620176 17.21523905
vt 1.63329191 17.22973135
vt 1.59026652 17.24389222
vt 1.54712591 17.25772155
vt 1.50387042 17.27121928
vt 1.46050035 17.28438532
vt 1.41701604 17.29721960
vt 1.37341782 17.30972206
vt 1.32970601 17.32189264
vt 1.28588095 17.33373131
vt 1.24194295 17.34523802
vt 1.19789234 17.35641274
vt 1.15372946 17.36725545
vt 1.10945462 17.37776614
vt 1.06506816 17.38794479
vt 1.02101735 17.39769250
vt -0.47356333 17.72243717
vt -0.58758314 17.74629801
vt -0.70246288 17.76849607
vt -0.81730391 17.78884202
vt -0.93210401 17.80733426
vt -1.04686084 17.82397126
vt -1.16157196 17.83875159
vt -1.27623480 17.85167392
vt -1.39084670 17.86273705
vt -1.50540491 17.87193987
vt -1.61990657 17.87928143
vt -1.73434876 17.88476088
vt -1.84872850 17.88837754
vt -1.96304275 17.89013085
vt -2.07728843 17.89002040
vt -2.19146241 17.88804596
vt -2.30556157 17.88420741
vt -2.41958277 17.87850481
vt -2.53352286 17.87093837
vt -2.64737875 17.86150845
vt -2.76114734 17.85021556
vt -2.87482560 17.83706037
vt -2.98841054 17.82204367
vt -3.10189925 17.80516640
vt -3.21528888 17.78642964
vt -3.32857668 17.76583459
vt -3.44175998 17.74338258
vt -3.55483625 17.71907503
vt -3.66780303 17.69291347
vt -3.78065800 17.66489955
vt -3.89339897 17.63503496
vt -4.00602386 17.60332151
vt -4.11765297 17.57002289
vt -5.33372740 17.19709943
vt -5.48780478 17.14725862
vt -5.63890488 17.09303696
vt -5.78530896 17.03495442
vt -5.92699951 16.97297869
vt -6.06395303 16.90707804
vt -6.19613948 16.83722239
vt -6.32352189 16.76338458
vt -6.44605629 16.68554177
vt -6.56369184 16.60367700
vt -6.67637150 16.51778074
vt -6.78403307 16.42785237
vt -6.88661064 16.33390144
vt -6.98403659 16.23594852
vt -7.07624379 16.13402562
vt -7.16316805 16.02817592
vt -7.24475059 15.91845291
vt -7.32094029 15.80491886
vt -7.39169551 15.68764276
vt -7.45698546 15.56669787
vt -7.51679087 15.44215911
vt -7.57110398 15.31410044
vt -7.61992797 15.18259248
vt -7.66327584 15.04770054
vt -7.70116895 14.90948305
vt -7.73363532 14.76799059
vt -7.76070792 14.62326542
vt -7.78242295 14.47534136
vt -7.79881836 14.32424420
vt -7.80993253 14.16999220
vt -7.81580322 14.01259693
vt -7.81646673 13.85206410
vt -7.81200674 13.69018744
vt -7.50976830 6.63998827
vt -7.50219852 6.51120635
vt -7.49048090 6.38414770
vt -7.47467022 6.26064291
vt -7.45470686 6.14068592
vt -7.43052567 6.02427956
vt -7.40205697 5.91143802
vt -7.36922836 5.80218955
vt -7.33196741 5.69657902
vt -7.29020525 5.59467014
vt -7.24388114 5.49654676
vt -7.19294780 5.40231306
vt -7.13737701 5.31209182
vt -7.07716488 5.22602077
vt -7.01233610 5.14424681
vt -6.94294611 5.06691846
vt -6.86908077 4.99417728
vt -6.79085316 4.92614928
vt -6.70839765 4.86293746
vt -6.62186200 4.80461652
vt -6.53139857 4.75123026
vt -6.43715573 4.70279192
vt -6.33927049 4.65928703
vt -6.23786310 4.62067795
vt -6.13303376 4.58690949
vt -6.02486140 4.55791464
vt -5.91340420 4.53361981
vt -5.79870132 4.51394931
vt -5.68077532 4.49882878
vt -5.55963498 4.48818766
vt -5.43527808 4.48196076
vt -5.30769399 4.48008912
vt -5.17871206 4.48248600
vt 3.39576444 4.77799325
vt 4.12076210 -2.50776242
vt -4.39423767 -3.66723823
vt -4.52179755 -3.68667309
vt -4.64731740 -3.71008456
vt -4.76897812 -3.73724751
vt -4.88677881 -3.76821990
vt -5.00070942 -3.80306395
vt -5.11074850 -3.84184485
vt -5.21686090 -3.88462876
vt -5.31899567 -3.93148006
vt -5.41708448 -3.98245772
vt -5.51104083 -4.03761090
vt -5.60076058 -4.09697408
vt -5.68612408 -4.16056208
vt -5.76700013 -4.22836557
vt -5.84325168 -4.30034786
vt -5.91474298 -4.37644349
vt -5.98134738 -4.45655939
vt -6.04295493 -4.54057852
vt -6.09947869 -4.62836586
vt -6.15085900 -4.71977599
vt -6.19706525 -4.81466135
vt -6.23809499 -4.91288009
vt -6.27397094 -5.01430265
vt -6.30473645 -5.11881654
vt -6.33045018 -5.22632904
vt -6.35118079 -5.33676816
vt -6.36700201 -5.45008186
vt -6.37798865 -5.56623628
vt -6.38421342 -5.68521336
vt -6.38574476 -5.80700805
vt -6.38264547 -5.93162566
vt -6.37497199 -6.05907938
vt -6.36294632 -6.18754968
vt -5.44196730 -14.58830942
vt -5.40923688 -14.84954288
vt -5.36914730 -15.10210277
vt -5.32184689 -15.34425704
vt -5.26724909 -15.57603803
vt -5.20525320 -15.79746922
vt -5.13574410 -16.00856013
vt -5.05859334 -16.20929996
vt -4.97366235 -16.39965000
vt -4.88080855 -16.57953543
vt -4.77989509 -16.74883754
vt -4.67080467 -16.90738814
vt -4.55345686 -17.05496850
vt -4.42782693 -17.19131522
vt -4.29396291 -17.31613493
vt -4.15199626 -17.42912734
vt -4.00214184 -17.53001420
vt -3.84468500 -17.61856840
vt -3.67995682 -17.69463706
vt -3.50830243 -17.75815324
vt -3.33004914 -17.80913437
vt -3.14548066 -17.84766937
vt -2.95482119 -17.87389865
vt -2.75822999 -17.88799236
vt -2.55580464 -17.89013085
vt -2.34758970 -17.88048969
vt -2.13358797 -17.85922991
vt -1.91377177 -17.82649268
vt -1.68809305 -17.78239761
vt -1.45649157 -17.72704327
vt -1.21890112 -17.66050909
vt -0.97525393 -17.58285784
vt -0.72716402 -17.49473519
vn 0.00000000 0.00000000 1.00000000
f 1/1/1 268/268/1 2/2/1
f 1/1/1 267/267/1 268/268/1
f 2/2/1 269/269/1 3/3/1
f 2/2/1 268/268/1 269/269/1
f 3/3/1 270/270/1 4/4/1
f 3/3/1 269/269/1 270/270/1
f 4/4/1 271/271/1 5/5/1
f 4/4/1 270/270/1 271/271/1
f 5/5/1 272/272/1 6/6/1
f 5/5/1 271/271/1 272/272/1
f 6/6/1 273/273/1 7/7/1
f 6/6/1 272/272/1 273/273/1
f 7/7/1 274/274/1 8/8/1
f 7/7/1 273/273/1 274/274/1
f 8/8/1 275/275/1 9/9/1
f 8/8/1 274/274/1 275/275/1
f 9/9/1 276/276/1 10/10/1
f 9/9/1 275/275/1 276/276/1
f 10/10/1 277/277/1 11/11/1
f 10/10/1 276/276/1 277/277/1
f 11/11/1 278/278/1 12/12/1
f 11/11/1 277/277/1 278/278/1
f 12/12/1 279/279/1 13/13/1
f 12/12/1 278/278/1 279/279/1
f 13/13/1 280/280/1 14/14/1
f 13/13/1 279/279/1 280/280/1
f 14/14/1 281/281/1 15/15/1
f 14/14/1 280/280/1 281/281/1
f 15/15/1 282/282/1 16/16/1
f 15/15/1 281/281/1 282/282/1
f 16/16/1 283/283/1 17/17/1
f 16/16/1 282/282/1 283/283/1
f 17/17/1 284/284/1 18/18/1
f 17/17/1 283/283/1 284/284/1
f 18/18/1 285/285/1 19/19/1
f 18/18/1 284/284/1 285/285/1
f 19/19/1 286/286/1 20/20/1
f 19/19/1 285/285/1 286/286/1
f 20/20/1 287/287/1 21/21/1
f 20/20/1 286/286/1 287/287/1
f 21/21/1 288/288/1 22/22/1
f 21/21/1 287/287/1 288/288/1
f 22/22/1 289/289/1 23/23/1
f 22/22/1 288/288/1 289/289/1
f 23/23/1 290/290/1 24/24/1
f 23/23/1 289/289/1 290/290/1
f 24/24/1 291/291/1 25/25/1
f 24/24/1 290/290/1 291/291/1
f 25/25/1 292/292/1 26/26/1
f 25/25/1 291/291/1 292/292/1
f 26/26/1 293/293/1 27/27/1
f 26/26/1 292/292/1 293/293/1
f 27/27/1 294/294/1 28/28/1
f 27/27/1 293/293/1 294/294/1
f 28/28/1 295/295/1 29/29/1
f 28/28/1 294/294/1 295/295/1
f 29/29/1 296/296/1 30/30/1
f 29/29/1 295/295/1 296/296/1
f 30/30/1 297/297/1 31/31/1
f 30/30/1 296/296/1 297/297/1
f 31/31/1 298/298/1 32/32/1
f 31/31/1 297/297/1 298/298/1
f 32/32/1 299/299/1 33/33/1
f 32/32/1 298/298/1 299/299/1
f 33/33/1 300/300/1 34/34/1
f 33/33/1 299/299/1 300/300/1
f 34/34/1 301/301/1 35/35/1
f 34/34/1 300/300/1 301/301/1
f 35/35/1 302/302/1 36/36/1
f 35/35/1 301/301/1 302/302/1
f 36/36/1 303/303/1 37/37/1
f 36/36/1 302/302/1 303/303/1
f 37/37/1 304/304/1 38/38/1
f 37/37/1 303/303/1 304/304/1
f 38/38/1 305/305/1 39/39/1
f 38/38/1 304/304/1 305/305/1
f 39/39/1 306/306/1 40/40/1
f 39/39/1 305/305/1 306/306/1
f 40/40/1 307/307/1 41/41/1
f 40/40/1 306/306/1 307/307/1
f 41/41/1 308/308/1 42/42/1
f 41/41/1 307/307/1 308/308/1
f 42/42/1 309/309/1 43/43/1
f 42/42/1 308/308/1 309/309/1
f 43/43/1 310/310/1 44/44/1
f 43/43/1 309/309/1 310/310/1
f 44/44/1 311/311/1 45/45/1
f 44/44/1 310/310/1 311/311/1
f 45/45/1 312/312/1 46/46/1
f 45/45/1 311/311/1 312/312/1
f 46/46/1 313/313/1 47/47/1
f 46/46/1 312/312/1 313/313/1
f 47/47/1 314/314/1 48/48/1
f 47/47/1 313/313/1 314/314/1
f 48/48/1 315/315/1 49/49/1
f 48/48/1 314/314/1 315/315/1
f 49/49/1 316/316/1 50/50/1
f 49/49/1 315/315/1 316/316/1
f 50/50/1 317/317/1 51/51/1
f 50/50/1 316/316/1 317/317/1
f 51/51/1 318/318/1 52/52/1
f 51/51/1 317/317/1 318/318/1
f 52/52/1 319/319/1 53/53/1
f 52/52/1 318/318/1 319/319/1
f 53/53/1 320/320/1 54/54/1
f 53/53/1 319/319/1 320/320/1
f 54/54/1 321/321/1 55/55/1
f 54/54/1 320/320/1 321/321/1
f 55/55/1 322/322/1 56/56/1
f 55/55/1 321/321/1 322/322/1
f 56/56/1 323/323/1 57/57/1
f 56/56/1 322/322/1 323/323/1
f 57/57/1 324/324/1 58/58/1
f 57/57/1 323/323/1 324/324/1
f 58/58/1 325/325/1 59/59/1
f 58/58/1 324/324/1 325/325/1
f 59/59/1 326/326/1 60/60/1
f 59/59/1 325/325/1 326/326/1
f 60/60/1 327/327/1 61/61/1
f 60/60/1 326/326/1 327/327/1
f 61/61/1 328/328/1 62/62/1
f 61/61/1 327/327/1 328/328/1
f 62/62/1 329/329/1 63/63/1
f 62/62/1 328/328/1 329/329/1
f 63/63/1 330/330/1 64/64/1
f 63/63/1 329/329/1 330/330/1
f 64/64/1 331/331/1 65/65/1
f 64/64/1 330/330/1 331/331/1
f 65/65/1 332/332/1 66/66/1
f 65/65/1 331/331/1 332/332/1
f 66/66/1 333/333/1 67/67/1
f 66/66/1 332/332/1 333/333/1
f 67/67/1 334/334/1 68/68/1
f 67/67/1 333/333/1 334/334/1
f 68/68/1 335/335/1 69/69/1
f 68/68/1 334/334/1 335/335/1
f 69/69/1 336/336/1 70/70/1
f 69/69/1 335/335/1 336/336/1
f 70/70/1 337/337/1 71/71/1
f 70/70/1 336/336/1 337/337/1
f 71/71/1 338/338/1 72/72/1
f 71/71/1 337/337/1 338/338/1
f 72/72/1 339/339/1 73/73/1
f 72/72/1 338/338/1 339/339/1
f 73/73/1 340/340/1 74/74/1
f 73/73/1 339/339/1 340/340/1
f 74/74/1 341/341/1 75/75/1
f 74/74/1 340/340/1 341/341/1
f 75/75/1 342/342/1 76/76/1
f 75/75/1 341/341/1 342/342/1
f 76/76/1 343/343/1 77/77/1
f 76/76/1 342/342/1 343/343/1
f 77/77/1 344/344/1 78/78/1
f 77/77/1 343/343/1 344/344/1
f 78/78/1 345/345/1 79/79/1
f 78/78/1 344/344/1 345/345/1
f 79/79/1 346/346/1 80/80/1
f 79/79/1 345/345/1 346/346/1
f 80/80/1 347/347/1 81/81/1
f 80/80/1 346/346/1 347/347/1
f 81/81/1 348/348/1 82/82/1
f 81/81/1 347/347/1 348/348/1
f 82/82/1 349/349/1 83/83/1
f 82/82/1 348/348/1 349/349/1
f 83/83/1 350/350/1 84/84/1
f 83/83/1 349/349/1 350/350/1
f 84/84/1 351/351/1 85/85/1
f 84/84/1 350/350/1 351/351/1
f 85/85/1 352/352/1 86/86/1
f 85/85/1 351/351/1 352/352/1
f 86/86/1 353/353/1 87/87/1
f 86/86/1 352/352/1 353/353/1
f 87/87/1 354/354/1 88/88/1
f 87/87/1 353/353/1 354/354/1
f 88/88/1 355/355/1 89/89/1
f 88/88/1 354/354/1 355/355/1
f 89/89/1 356/356/1 90/90/1
f 89/89/1 355/355/1 356/356/1
f 90/90/1 357/357/1 91/91/1
f 90/90/1 356/356/1 357/357/1
f 91/91/1 358/358/1 92/92/1
f 91/91/1 357/357/1 358/358/1
f 92/92/1 359/359/1 93/93/1
f 92/92/1 358/358/1 359/359/1
f 93/93/1 360/360/1 94/94/1
f 93/93/1 359/359/1 360/360/1
f 94/94/1 361/361/1 95/95/1
f 94/94/1 360/360/1 361/361/1
f 95/95/1 362/362/1 96/96/1
f 95/95/1 361/361/1 362/362/1
f 96/96/1 363/363/1 97/97/1
f 96/96/1 362/362/1 363/363/1
f 97/97/1 364/364/1 98/98/1
f 97/97/1 363/363/1 364/364/1
f 98/98/1 365/365/1 99/99/1
f 98/98/1 364/364/1 365/365/1
f 99/99/1 366/366/1 100/100/1
f 99/99/1 365/365/1 366/366/1
f 100/100/1 367/367/1 101/101/1
f 100/100/1 366/366/1 367/367/1
f 101/101/1 368/368/1 102/102/1
f 101/101/1 367/367/1 368/368/1
f 102/102/1 369/369/1 103/103/1
f 102/102/1 368/368/1 369/369/1
f 103/103/1 370/370/1 104/104/1
f 103/103/1 369/369/1 370/370/1
f 104/104/1 371/371/1 105/105/1
f 104/104/1 370/370/1 371/371/1
f 105/105/1 372/372/1 106/106/1
f 105/105/1 371/371/1 372/372/1
f 106/106/1 373/373/1 107/107/1
f 106/106/1 372/372/1 373/373/1
f 107/107/1 374/374/1 108/108/1
f 107/107/1 373/373/1 374/374/1
f 108/108/1 375/375/1 109/109/1
f 108/108/1 374/374/1 375/375/1
f 109/109/1 376/376/1 110/110/1
f 109/109/1 375/375/1 376/376/1
f 110/110/1 377/377/1 111/111/1
f 110/110/1 376/376/1 377/377/1
f 111/111/1 378/378/1 112/112/1
f 111/111/1 377/377/1 378/378/1
f 112/112/1 379/379/1 113/113/1
f 112/112/1 378/378/1 379/379/1
f 113/113/1 380/380/1 114/114/1
f 113/113/1 379/379/1 380/380/1
f 114/114/1 381/381/1 115/115/1
f 114/114/1 380/380/1 381/381/1
f 115/115/1 382/382/1 116/116/1
f 115/115/1 381/381/1 382/382/1
f 116/116/1 383/383/1 117/117/1
f 116/116/1 382/382/1 383/383/1
f 117/117/1 384/384/1 118/118/1
f 117/117/1 383/383/1 384/384/1
f 118/118/1 385/385/1 119/119/1
f 118/118/1 384/384/1 385/385/1
f 119/119/1 386/386/1 120/120/1
f 119/119/1 385/385/1 386/386/1
f 120/120/1 387/387/1 121/121/1
f 120/120/1 386/386/1 387/387/1
f 121/121/1 388/388/1 122/122/1
f 121/121/1 387/387/1 388/388/1
f 122/122/1 389/389/1 123/123/1
f 122/122/1 388/388/1 389/389/1
f 123/123/1 390/390/1 124/124/1
f 123/123/1 389/389/1 390/390/1
f 124/124/1 391/391/1 125/125/1
f 124/124/1 390/390/1 391/391/1
f 125/125/1 392/392/1 126/126/1
f 125/125/1 391/391/1 392/392/1
f 126/126/1 393/393/1 127/127/1
f 126/126/1 392/392/1 393/393/1
f 127/127/1 394/394/1 128/128/1
f 127/127/1 393/393/1 394/394/1
f 128/128/1 395/395/1 129/129/1
f 128/128/1 394/394/1 395/395/1
f 129/129/1 396/396/1 130/130/1
f 129/129/1 395/395/1 396/396/1
f 130/130/1 397/397/1 131/131/1
f 130/130/1 396/396/1 397/397/1
f 131/131/1 398/398/1 132/132/1
f 131/131/1 397/397/1 398/398/1
f 132/132/1 399/399/1 133/133/1
f 132/132/1 398/398/1 399/399/1
f 133/133/1 400/400/1 134/134/1
f 133/133/1 399/399/1 400/400/1
f 134/134/1 401/401/1 135/135/1
f 134/134/1 400/400/1 401/401/1
f 135/135/1 402/402/1 136/136/1
f 135/135/1 401/401/1 402/402/1
f 136/136/1 403/403/1 137/137/1
f 136/136/1 402/402/1 403/403/1
f 137/137/1 404/404/1 138/138/1
f 137/137/1 403/403/1 404/404/1
f 138/138/1 405/405/1 139/139/1
f 138/138/1 404/404/1 405/405/1
f 139/139/1 406/406/1 140/140/1
f 139/139/1 405/405/1 406/406/1
f 140/140/1 407/407/1 141/141/1
f 140/140/1 406/406/1 407/407/1
f 141/141/1 408/408/1 142/142/1
f 141/141/1 407/407/1 408/408/1
f 142/142/1 409/409/1 143/143/1
f 142/142/1 408/408/1 409/409/1
f 143/143/1 410/410/1 144/144/1
f 143/143/1 409/409/1 410/410/1
f 144/144/1 411/411/1 145/145/1
f 144/144/1 410/410/1 411/411/1
f 145/145/1 412/412/1 146/146/1
f 145/145/1 411/411/1 412/412/1
f 146/146/1 413/413/1 147/147/1
f 146/146/1 412/412/1 413/413/1
f 147/147/1 414/414/1 148/148/1
f 147/147/1 413/413/1 414/414/1
f 148/148/1 415/415/1 149/149/1
f 148/148/1 414/414/1 415/415/1
f 149/149/1 416/416/1 150/150/1
f 149/149/1 415/415/1 416/416/1
f 150/150/1 417/417/1 151/151/1
f 150/150/1 416/416/1 417/417/1
f 151/151/1 418/418/1 152/152/1
f 151/151/1 417/417/1 418/418/1
f 152/152/1 419/419/1 153/153/1
f 152/152/1 418/418/1 419/419/1
f 153/153/1 420/420/1 154/154/1
f 153/153/1 419/419/1 420/420/1
f 154/154/1 421/421/1 155/155/1
f 154/154/1 420/420/1 421/421/1
f 155/155/1 422/422/1 156/156/1
f 155/155/1 421/421/1 422/422/1
f 156/156/1 423/423/1 157/157/1
f 156/156/1 422/422/1 423/423/1
f 157/157/1 424/424/1 158/158/1
f 157/157/1 423/423/1 424/424/1
f 158/158/1 425/425/1 159/159/1
f 158/158/1 424/424/1 425/425/1
f 159/159/1 426/426/1 160/160/1
f 159/159/1 425/425/1 426/426/1
f 160/160/1 427/427/1 161/161/1
f 160/160/1 426/426/1 427/427/1
f 161/161/1 428/428/1 162/162/1
f 161/161/1 427/427/1 428/428/1
f 162/162/1 429/429/1 163/163/1
f 162/162/1 428/428/1 429/429/1
f 163/163/1 430/430/1 164/164/1
f 163/163/1 429/429/1 430/430/1
f 164/164/1 431/431/1 165/165/1
f 164/164/1 430/430/1 431/431/1
f 165/165/1 432/432/1 166/166/1
f 165/165/1 431/431/1 432/432/1
f 166/166/1 433/433/1 167/167/1
f 166/166/1 432/432/1 433/433/1
f 167/167/1 434/434/1 168/168/1
f 167/167/1 433/433/1 434/434/1
f 168/168/1 435/435/1 169/169/1
f 168/168/1 434/434/1 435/435/1
f 169/169/1 436/436/1 170/170/1
f 169/169/1 435/435/1 436/436/1
f 170/170/1 437/437/1 171/171/1
f 170/170/1 436/436/1 437/437/1
f 171/171/1 438/438/1 172/172/1
f 171/171/1 437/437/1 438/438/1
f 172/172/1 439/439/1 173/173/1
f 172/172/1 438/438/1 439/439/1
f 173/173/1 440/440/1 174/174/1
f 173/173/1 439/439/1 440/440/1
f 174/174/1 441/441/1 175/175/1
f 174/174/1 440/440/1 441/441/1
f 175/175/1 442/442/1 176/176/1
f 175/175/1 441/441/1 442/442/1
f 176/176/1 443/443/1 177/177/1
f 176/176/1 442/442/1 443/443/1
f 177/177/1 444/444/1 178/178/1
f 177/177/1 443/443/1 444/444/1
f 178/178/1 445/445/1 179/179/1
f 178/178/1 444/444/1 445/445/1
f 179/179/1 446/446/1 180/180/1
f 179/179/1 445/445/1 446/446/1
f 180/180/1 447/447/1 181/181/1
f 180/180/1 446/446/1 447/447/1
f 181/181/1 448/448/1 182/182/1
f 181/181/1 447/447/1 448/448/1
f 182/182/1 449/449/1 183/183/1
f 182/182/1 448/448/1 449/449/1
f 183/183/1 450/450/1 184/184/1
f 183/183/1 449/449/1 450/450/1
f 184/184/1 451/451/1 185/185/1
f 184/184/1 450/450/1 451/451/1
f 185/185/1 452/452/1 186/186/1
f 185/185/1 451/451/1 452/452/1
f 186/186/1 453/453/1 187/187/1
f 186/186/1 452/452/1 453/453/1
f 187/187/1 454/454/1 188/188/1
f 187/187/1 453/453/1 454/454/1
f 188/188/1 455/455/1 189/189/1
f 188/188/1 454/454/1 455/455/1
f 189/189/1 456/456/1 190/190/1
f 189/189/1 455/455/1 456/456/1
f 190/190/1 457/457/1 191/191/1
f 190/190/1 456/456/1 457/457/1
f 191/191/1 458/458/1 192/192/1
f 191/191/1 457/457/1 458/458/1
f 192/192/1 459/459/1 193/193/1
f 192/192/1 458/458/1 459/459/1
f 193/193/1 460/460/1 194/194/1
f 193/193/1 459/459/1 460/460/1
f 194/194/1 461/461/1 195/195/1
f 194/194/1 460/460/1 461/461/1
f 195/195/1 462/462/1 196/196/1
f 195/195/1 461/461/1 462/462/1
f 196/196/1 463/463/1 197/197/1
f 196/196/1 462/462/1 463/463/1
f 197/197/1 464/464/1 198/198/1
f 197/197/1 463/463/1 464/464/1
f 198/198/1 465/465/1 199/199/1
f 198/198/1 464/464/1 465/465/1
f 199/199/1 466/466/1 200/200/1
f 199/199/1 465/465/1 466/466/1
f 200/200/1 467/467/1 201/201/1
f 200/200/1 466/466/1 467/467/1
f 201/201/1 468/468/1 202/202/1
f 201/201/1 467/467/1 468/468/1
f 202/202/1 469/469/1 203/203/1
f 202/202/1 468/468/1 469/469/1
f 203/203/1 470/470/1 204/204/1
f 203/203/1 469/469/1 470/470/1
f 204/204/1 471/471/1 205/205/1
f 204/204/1 470/470/1 471/471/1
f 205/205/1 472/472/1 206/206/1
f 205/205/1 471/471/1 472/472/1
f 206/206/1 473/473/1 207/207/1
f 206/206/1 472/472/1 473/473/1
f 207/207/1 474/474/1 208/208/1
f 207/207/1 473/473/1 474/474/1
f 208/208/1 475/475/1 209/209/1
f 208/208/1 474/474/1 475/475/1
f 209/209/1 476/476/1 210/210/1
f 209/209/1 475/475/1 476/476/1
f 210/210/1 477/477/1 211/211/1
f 210/210/1 476/476/1 477/477/1
f 211/211/1 478/478/1 212/212/1
f 211/211/1 477/477/1 478/478/1
f 212/212/1 479/479/1 213/213/1
f 212/212/1 478/478/1 479/479/1
f 213/213/1 480/480/1 214/214/1
f 213/213/1 479/479/1 480/480/1
f 214/214/1 481/481/1 215/215/1
f 214/214/1 480/480/1 481/481/1
f 215/215/1 482/482/1 216/216/1
f 215/215/1 481/481/1 482/482/1
f 216/216/1 483/483/1 217/217/1
f 216/216/1 482/482/1 483/483/1
f 217/217/1 484/484/1 218/218/1
f 217/217/1 483/483/1 484/484/1
f 218/218/1 485/485/1 219/219/1
f 218/218/1 484/484/1 485/485/1
f 219/219/1 486/486/1 220/220/1
f 219/219/1 485/485/1 486/486/1
f 220/220/1 487/487/1 221/221/1
f 220/220/1 486/486/1 487/487/1
f 221/221/1 488/488/1 222/222/1
f 221/221/1 487/487/1 488/488/1
f 222/222/1 489/489/1 223/223/1
f 222/222/1 488/488/1 489/489/1
f 223/223/1 490/490/1 224/224/1
f 223/223/1 489/489/1 490/490/1
f 224/224/1 491/491/1 225/225/1
f 224/224/1 490/490/1 491/491/1
f 225/225/1 492/492/1 226/226/1
f 225/225/1 491/491/1 492/492/1
f 226/226/1 493/493/1 227/227/1
f 226/226/1 492/492/1 493/493/1
f 227/227/1 494/494/1 228/228/1
f 227/227/1 493/493/1 494/494/1
f 228/228/1 495/495/1 229/229/1
f 228/228/1 494/494/1 495/495/1
f 229/229/1 496/496/1 230/230/1
f 229/229/1 495/495/1 496/496/1
f 230/230/1 497/497/1 231/231/1
f 230/230/1 496/496/1 497/497/1
f 231/231/1 498/498/1 232/232/1
f 231/231/1 497/497/1 498/498/1
f 232/232/1 499/499/1 233/233/1
f 232/232/1 498/498/1 499/499/1
f 233/233/1 500/500/1 234/234/1
f 233/233/1 499/499/1 500/500/1
f 234/234/1 501/501/1 235/235/1
f 234/234/1 500/500/1 501/501/1
f 235/235/1 502/502/1 236/236/1
f 235/235/1 501/501/1 502/502/1
f 236/236/1 503/503/1 237/237/1
f 236/236/1 502/502/1 503/503/1
f 237/237/1 504/504/1 238/238/1
f 237/237/1 503/503/1 504/504/1
f 238/238/1 505/505/1 239/239/1
f 238/238/1 504/504/1 505/505/1
f 239/239/1 506/506/1 240/240/1
f 239/239/1 505/505/1 506/506/1
f 240/240/1 507/507/1 241/241/1
f 240/240/1 506/506/1 507/507/1
f 241/241/1 508/508/1 242/242/1
f 241/241/1 507/507/1 508/508/1
f 242/242/1 509/509/1 243/243/1
f 242/242/1 508/508/1 509/509/1
f 243/243/1 510/510/1 244/244/1
f 243/243/1 509/509/1 510/510/1
f 244/244/1 511/511/1 245/245/1
f 244/244/1 510/510/1 511/511/1
f 245/245/1 512/512/1 246/246/1
f 245/245/1 511/511/1 512/512/1
f 246/246/1 513/513/1 247/247/1
f 246/246/1 512/512/1 513/513/1
f 247/247/1 514/514/1 248/248/1
f 247/247/1 513/513/1 514/514/1
f 248/248/1 515/515/1 249/249/1
f 248/248/1 514/514/1 515/515/1
f 249/249/1 516/516/1 250/250/1
f 249/249/1 515/515/1 516/516/1
f 250/250/1 517/517/1 251/251/1
f 250/250/1 516/516/1 517/517/1
f 251/251/1 518/518/1 252/252/1
f 251/251/1 517/517/1 518/518/1
f 252/252/1 519/519/1 253/253/1
f 252/252/1 518/518/1 519/519/1
f 253/253/1 520/520/1 254/254/1
f 253/253/1 519/519/1 520/520/1
f 254/254/1 521/521/1 255/255/1
f 254/254/1 520/520/1 521/521/1
f 255/255/1 522/522/1 256/256/1
f 255/255/1 521/521/1 522/522/1
f 256/256/1 523/523/1 257/257/1
f 256/256/1 522/522/1 523/523/1
f 257/257/1 524/524/1 258/258/1
f 257/257/1 523/523/1 524/524/1
f 258/258/1 525/525/1 259/259/1
f 258/258/1 524/524/1 525/525/1
f 259/259/1 526/526/1 260/260/1
f 259/259/1 525/525/1 526/526/1
f 260/260/1 527/527/1 261/261/1
f 260/260/1 526/526/1 527/527/1
f 261/261/1 528/528/1 262/262/1
f 261/261/1 527/527/1 528/528/1
f 262/262/1 529/529/1 263/263/1
f 262/262/1 528/528/1 529/529/1
f 263/263/1 530/530/1 264/264/1
f 263/263/1 529/529/1 530/530/1
f 264/264/1 531/531/1 265/265/1
f 264/264/1 530/530/1 531/531/1
f 265/265/1 532/532/1 266/266/1
f 265/265/1 531/531/1 532/532/1
f 266/266/1 267/267/1 1/1/1
f 266/266/1 532/532/1 267/267/1
f 2/2/1 268/268/1 1/1/1
f 268/268/1 267/267/1 1/1/1
f 3/3/1 269/269/1 2/2/1
f 269/269/1 268/268/1 2/2/1
f 4/4/1 270/270/1 3/3/1
f 270/270/1 269/269/1 3/3/1
f 5/5/1 271/271/1 4/4/1
f 271/271/1 270/270/1 4/4/1
f 6/6/1 272/272/1 5/5/1
f 272/272/1 271/271/1 5/5/1
f 7/7/1 273/273/1 6/6/1
f 273/273/1 272/272/1 6/6/1
f 8/8/1 274/274/1 7/7/1
f 274/274/1 273/273/1 7/7/1
f 9/9/1 275/275/1 8/8/1
f 275/275/1 274/274/1 8/8/1
f 10/10/1 276/276/1 9/9/1
f 276/276/1 275/275/1 9/9/1
f 11/11/1 277/277/1 10/10/1
f 277/277/1 276/276/1 10/10/1
f 12/12/1 278/278/1 11/11/1
f 278/278/1 277/277/1 11/11/1
f 13/13/1 279/279/1 12/12/1
f 279/279/1 278/278/1 12/12/1
f 14/14/1 280/280/1 13/13/1
f 280/280/1 279/279/1 13/13/1
f 15/15/1 281/281/1 14/14/1
f 281/281/1 280/280/1 14/14/1
f 16/16/1 282/282/1 15/15/1
f 282/282/1 281/281/1 15/15/1
f 17/17/1 283/283/1 16/16/1
f 283/283/1 282/282/1 16/16/1
f 18/18/1 284/284/1 17/17/1
f 284/284/1 283/283/1 17/17/1
f 19/19/1 285/285/1 18/18/1
f 285/285/1 284/284/1 18/18/1
f 20/20/1 286/286/1 19/19/1
f 286/286/1 285/285/1 19/19/1
f 21/21/1 287/287/1 20/20/1
f 287/287/1 286/286/1 20/20/1
f 22/22/1 288/288/1 21/21/1
f 288/288/1 287/287/1 21/21/1
f 23/23/1 289/289/1 22/22/1
f 289/289/1 288/288/1 22/22/1
f 24/24/1 290/290/1 23/23/1
f 290/290/1 289/289/1 23/23/1
f 25/25/1 291/291/1 24/24/1
f 291/291/1 290/290/1 24/24/1
f 26/26/1 292/292/1 25/25/1
f 292/292/1 291/291/1 25/25/1
f 27/27/1 293/293/1 26/26/1
f 293/293/1 292/292/1 26/26/1
f 28/28/1 294/294/1 27/27/1
f 294/294/1 293/293/1 27/27/1
f 29/29/1 295/295/1 28/28/1
f 295/295/1 294/294/1 28/28/1
f 30/30/1 296/296/1 29/29/1
f 296/296/1 295/295/1 29/29/1
f 31/31/1 297/297/1 30/30/1
f 297/297/1 296/296/1 30/30/1
f 32/32/1 298/298/1 31/31/1
f 298/298/1 297/297/1 31/31/1
f 33/33/1 299/299/1 32/32/1
f 299/299/1 298/298/1 32/32/1
f 34/34/1 300/300/1 33/33/1
f 300/300/1 299/299/1 33/33/1
f 35/35/1 301/301/1 34/34/1
f 301/301/1 300/300/1 34/34/1
f 36/36/1 302/302/1 35/35/1
f 302/302/1 301/301/1 35/35/1
f 37/37/1 303/303/1 36/36/1
f 303/303/1 302/302/1 36/36/1
f 38/38/1 304/304/1 37/37/1
f 304/304/1 303/303/1 37/37/1
f 39/39/1 305/305/1 38/38/1
f 305/305/1 304/304/1 38/38/1
f 40/40/1 306/306/1 39/39/1
f 306/306/1 305/305/1 39/39/1
f 41/41/1 307/307/1 40/40/1
f 307/307/1 306/306/1 40/40/1
f 42/42/1 308/308/1 41/41/1
f 308/308/1 307/307/1 41/41/1
f 43/43/1 309/309/1 42/42/1
f 309/309/1 308/308/1 42/42/1
f 44/44/1 310/310/1 43/43/1
f 310/310/1 309/309/1 43/43/1
f 45/45/1 311/311/1 44/44/1
f 311/311/1 310/310/1 44/44/1
f 46/46/1 312/312/1 45/45/1
f 312/312/1 311/311/1 45/45/1
f 47/47/1 313/313/1 46/46/1
f 313/313/1 312/312/1 46/46/1
f 48/48/1 314/314/1 47/47/1
f 314/314/1 313/313/1 47/47/1
f 49/49/1 315/315/1 48/48/1
f 315/315/1 314/314/1 48/48/1
f 50/50/1 316/316/1 49/49/1
f 316/316/1 315/315/1 49/49/1
f 51/51/1 317/317/1 50/50/1
f 317/317/1 316/316/1 50/50/1
f 52/52/1 318/318/1 51/51/1
f 318/318/1 317/317/1 51/51/1
f 53/53/1 319/319/1 52/52/1
f 319/319/1 318/318/1 52/52/1
f 54/54/1 320/320/1 53/53/1
f 320/320/1 319/319/1 53/53/1
f 55/55/1 321/321/1 54/54/1
f 321/321/1 320/320/1 54/54/1
f 56/56/1 322/322/1 55/55/1
f 322/322/1 321/321/1 55/55/1
f 57/57/1 323/323/1 56/56/1
f 323/323/1 322/322/1 56/56/1
f 58/58/1 324/324/1 57/57/1
f 324/324/1 323/323/1 57/57/1
f 59/59/1 325/325/1 58/58/1
f 325/325/1 324/324/1 58/58/1
f 60/60/1 326/326/1 59/59/1
f 326/326/1 325/325/1 59/59/1
f 61/61/1 327/327/1 60/60/1
f 327/327/1 326/326/1 60/60/1
f 62/62/1 328/328/1 61/61/1
f 328/328/1 327/327/1 61/61/1
f 63/63/1 329/329/1 62/62/1
f 329/329/1 328/328/1 62/62/1
f 64/64/1 330/330/1 63/63/1
f 330/330/1 329/329/1 63/63/1
f 65/65/1 331/331/1 64/64/1
f 331/331/1 330/330/1 64/64/1
f 66/66/1 332/332/1 65/65/1
f 332/332/1 331/331/1 65/65/1
f 67/67/1 333/333/1 66/66/1
f 333/333/1 332/332/1 66/66/1
f 68/68/1 334/334/1 67/67/1
f 334/334/1 333/333/1 67/67/1
f 69/69/1 335/335/1 68/68/1
f 335/335/1 334/334/1 68/68/1
f 70/70/1 336/336/1 69/69/1
f 336/336/1 335/335/1 69/69/1
f 71/71/1 337/337/1 70/70/1
f 337/337/1 336/336/1 70/70/1
f 72/72/1 338/338/1 71/71/1
f 338/338/1 337/337/1 71/71/1
f 73/73/1 339/339/1 72/72/1
f 339/339/1 338/338/1 72/72/1
f 74/74/1 340/340/1 73/73/1
f 340/340/1 339/339/1 73/73/1
f 75/75/1 341/341/1 74/74/1
f 341/341/1 340/340/1 74/74/1
f 76/76/1 342/342/1 75/75/1
f 342/342/1 341/341/1 75/75/1
f 77/77/1 343/343/1 76/76/1
f 343/343/1 342/342/1 76/76/1
f 78/78/1 344/344/1 77/77/1
f 344/344/1 343/343/1 77/77/1
f 79/79/1 345/345/1 78/78/1
f 345/345/1 344/344/1 78/78/1
f 80/80/1 346/346/1 79/79/1
f 346/346/1 345/345/1 79/79/1
f 81/81/1 347/347/1 80/80/1
f 347/347/1 346/346/1 80/80/1
f 82/82/1 348/348/1 81/81/1
f 348/348/1 347/347/1 81/81/1
f 83/83/1 349/349/1 82/82/1
f 349/349/1 348/348/1 82/82/1
f 84/84/1 350/350/1 83/83/1
f 350/350/1 349/349/1 83/83/1
f 85/85/1 351/351/1 84/84/1
f 351/351/1 350/350/1 84/84/1
f 86/86/1 352/352/1 85/85/1
f 352/352/1 351/351/1 85/85/1
f 87/87/1 353/353/1 86/86/1
f 353/353/1 352/352/1 86/86/1
f 88/88/1 354/354/1 87/87/1
f 354/354/1 353/353/1 87/87/1
f 89/89/1 355/355/1 88/88/1
f 355/355/1 354/354/1 88/88/1
f 90/90/1 356/356/1 89/89/1
f 356/356/1 355/355/1 89/89/1
f 91/91/1 357/357/1 90/90/1
f 357/357/1 356/356/1 90/90/1
f 92/92/1 358/358/1 91/91/1
f 358/358/1 357/357/1 91/91/1
f 93/93/1 359/359/1 92/92/1
f 359/359/1 358/358/1 92/92/1
f 94/94/1 360/360/1 93/93/1
f 360/360/1 359/359/1 93/93/1
f 95/95/1 361/361/1 94/94/1
f 361/361/1 360/360/1 94/94/1
f 96/96/1 362/362/1 95/95/1
f 362/362/1 361/361/1 95/95/1
f 97/97/1 363/363/1 96/96/1
f 363/363/1 362/362/1 96/96/1
f 98/98/1 364/364/1 97/97/1
f 364/364/1 363/363/1 97/97/1
f 99/99/1 365/365/1 98/98/1
f 365/365/1 364/364/1 98/98/1
f 100/100/1 366/366/1 99/99/1
f 366/366/1 365/365/1 99/99/1
f 101/101/1 367/367/1 100/100/1
f 367/367/1 366/366/1 100/100/1
f 102/102/1 368/368/1 101/101/1
f 368/368/1 367/367/1 101/101/1
f 103/103/1 369/369/1 102/102/1
f 369/369/1 368/368/1 102/102/1
f 104/104/1 370/370/1 103/103/1
f 370/370/1 369/369/1 103/103/1
f 105/105/1 371/371/1 104/104/1
f 371/371/1 370/370/1 104/104/1
f 106/106/1 372/372/1 105/105/1
f 372/372/1 371/371/1 105/105/1
f 107/107/1 373/373/1 106/106/1
f 373/373/1 372/372/1 106/106/1
f 108/108/1 374/374/1 107/107/1
f 374/374/1 373/373/1 107/107/1
f 109/109/1 375/375/1 108/108/1
f 375/375/1 374/374/1 108/108/1
f 110/110/1 376/376/1 109/109/1
f 376/376/1 375/375/1 109/109/1
f 111/111/1 377/377/1 110/110/1
f 377/377/1 376/376/1 110/110/1
f 112/112/1 378/378/1 111/111/1
f 378/378/1 377/377/1 111/111/1
f 113/113/1 379/379/1 112/112/1
f 379/379/1 378/378/1 112/112/1
f 114/114/1 380/380/1 113/113/1
f 380/380/1 379/379/1 113/113/1
f 115/115/1 381/381/1 114/114/1
f 381/381/1 380/380/1 114/114/1
f 116/116/1 382/382/1 115/115/1
f 382/382/1 381/381/1 115/115/1
f 117/117/1 383/383/1 116/116/1
f 383/383/1 382/382/1 116/116/1
f 118/118/1 384/384/1 117/117/1
f 384/384/1 383/383/1 117/117/1
f 119/119/1 385/385/1 118/118/1
f 385/385/1 384/384/1 118/118/1
f 120/120/1 386/386/1 119/119/1
f 386/386/1 385/385/1 119/119/1
f 121/121/1 387/387/1 120/120/1
f 387/387/1 386/386/1 120/120/1
f 122/122/1 388/388/1 121/121/1
f 388/388/1 387/387/1 121/121/1
f 123/123/1 389/389/1 122/122/1
f 389/389/1 388/388/1 122/122/1
f 124/124/1 390/390/1 123/123/1
f 390/390/1 389/389/1 123/123/1
f 125/125/1 391/391/1 124/124/1
f 391/391/1 390/390/1 124/124/1
f 126/126/1 392/392/1 125/125/1
f 392/392/1 391/391/1 125/125/1
f 127/127/1 393/393/1 126/126/1
f 393/393/1 392/392/1 126/126/1
f 128/128/1 394/394/1 127/127/1
f 394/394/1 393/393/1 127/127/1
f 129/129/1 395/395/1 128/128/1
f 395/395/1 394/394/1 128/128/1
f 130/130/1 396/396/1 129/129/1
f 396/396/1 395/395/1 129/129/1
f 131/131/1 397/397/1 130/130/1
f 397/397/1 396/396/1 130/130/1
f 132/132/1 398/398/1 131/131/1
f 398/398/1 397/397/1 131/131/1
f 133/133/1 399/399/1 132/132/1
f 399/399/1 398/398/1 132/132/1
f 134/134/1 400/400/1 133/133/1
f 400/400/1 399/399/1 133/133/1
f 135/135/1 401/401/1 134/134/1
f 401/401/1 400/400/1 134/134/1
f 136/136/1 402/402/1 135/135/1
f 402/402/1 401/401/1 135/135/1
f 137/137/1 403/403/1 136/136/1
f 403/403/1 402/402/1 136/136/1
f 138/138/1 404/404/1 137/137/1
f 404/404/1 403/403/1 137/137/1
f 139/139/1 405/405/1 138/138/1
f 405/405/1 404/404/1 138/138/1
f 140/140/1 406/406/1 139/139/1
f 406/406/1 405/405/1 139/139/1
f 141/141/1 407/407/1 140/140/1
f 407/407/1 406/406/1 140/140/1
f 142/142/1 408/408/1 141/141/1
f 408/408/1 407/407/1 141/141/1
f 143/143/1 409/409/1 142/142/1
f 409/409/1 408/408/1 142/142/1
f 144/144/1 410/410/1 143/143/1
f 410/410/1 409/409/1 143/143/1
f 145/145/1 411/411/1 144/144/1
f 411/411/1 410/410/1 144/144/1
f 146/146/1 412/412/1 145/145/1
f 412/412/1 411/411/1 145/145/1
f 147/147/1 413/413/1 146/146/1
f 413/413/1 412/412/1 146/146/1
f 148/148/1 414/414/1 147/147/1
f 414/414/1 413/413/1 147/147/1
f 149/149/1 415/415/1 148/148/1
f 415/415/1 414/414/1 148/148/1
f 150/150/1 416/416/1 149/149/1
f 416/416/1 415/415/1 149/149/1
f 151/151/1 417/417/1 150/150/1
f 417/417/1 416/416/1 150/150/1
f 152/152/1 418/418/1 151/151/1
f 418/418/1 417/417/1 151/151/1
f 153/153/1 419/419/1 152/152/1
f 419/419/1 418/418/1 152/152/1
f 154/154/1 420/420/1 153/153/1
f 420/420/1 419/419/1 153/153/1
f 155/155/1 421/421/1 154/154/1
f 421/421/1 420/420/1 154/154/1
f 156/156/1 422/422/1 155/155/1
f 422/422/1 421/421/1 155/155/1
f 157/157/1 423/423/1 156/156/1
f 423/423/1 422/422/1 156/156/1
f 158/158/1 424/424/1 157/157/1
f 424/424/1 423/423/1 157/157/1
f 159/159/1 425/425/1 158/158/1
f 425/425/1 424/424/1 158/158/1
f 160/160/1 426/426/1 159/159/1
f 426/426/1 425/425/1 159/159/1
f 161/161/1 427/427/1 160/160/1
f 427/427/1 426/426/1 160/160/1
f 162/162/1 428/428/1 161/161/1
f 428/428/1 427/427/1 161/161/1
f 163/163/1 429/429/1 162/162/1
f 429/429/1 428/428/1 162/162/1
f 164/164/1 430/430/1 163/163/1
f 430/430/1 429/429/1 163/163/1
f 165/165/1 431/431/1 164/164/1
f 431/431/1 430/430/1 164/164/1
f 166/166/1 432/432/1 165/165/1
f 432/432/1 431/431/1 165/165/1
f 167/167/1 433/433/1 166/166/1
f 433/433/1 432/432/1 166/166/1
f 168/168/1 434/434/1 167/167/1
f 434/434/1 433/433/1 167/167/1
f 169/169/1 435/435/1 168/168/1
f 435/435/1 434/434/1 168/168/1
f 170/170/1 436/436/1 169/169/1
f 436/436/1 435/435/1 169/169/1
f 171/171/1 437/437/1 170/170/1
f 437/437/1 436/436/1 170/170/1
f 172/172/1 438/438/1 171/171/1
f 438/438/1 437/437/1 171/171/1
f 173/173/1 439/439/1 172/172/1
f 439/439/1 438/438/1 172/172/1
f 174/174/1 440/440/1 173/173/1
f 440/440/1 439/439/1 173/173/1
f 175/175/1 441/441/1 174/174/1
f 441/441/1 440/440/1 174/174/1
f 176/176/1 442/442/1 175/175/1
f 442/442/1 441/441/1 175/175/1
f 177/177/1 443/443/1 176/176/1
f 443/443/1 442/442/1 176/176/1
f 178/178/1 444/444/1 177/177/1
f 444/444/1 443/443/1 177/177/1
f 179/179/1 445/445/1 178/178/1
f 445/445/1 444/444/1 178/178/1
f 180/180/1 446/446/1 179/179/1
f 446/446/1 445/445/1 179/179/1
f 181/181/1 447/447/1 180/180/1
f 447/447/1 446/446/1 180/180/1
f 182/182/1 448/448/1 181/181/1
f 448/448/1 447/447/1 181/181/1
f 183/183/1 449/449/1 182/182/1
f 449/449/1 448/448/1 182/182/1
f 184/184/1 450/450/1 183/183/1
f 450/450/1 449/449/1 183/183/1
f 185/185/1 451/451/1 184/184/1
f 451/451/1 450/450/1 184/184/1
f 186/186/1 452/452/1 185/185/1
f 452/452/1 451/451/1 185/185/1
f 187/187/1 453/453/1 186/186/1
f 453/453/1 452/452/1 186/186/1
f 188/188/1 454/454/1 187/187/1
f 454/454/1 453/453/1 187/187/1
f 189/189/1 455/455/1 188/188/1
f 455/455/1 454/454/1 188/188/1
f 190/190/1 456/456/1 189/189/1
f 456/456/1 455/455/1 189/189/1
f 191/191/1 457/457/1 190/190/1
f 457/457/1 456/456/1 190/190/1
f 192/192/1 458/458/1 191/191/1
f 458/458/1 457/457/1 191/191/1
f 193/193/1 459/459/1 192/192/1
f 459/459/1 458/458/1 192/192/1
f 194/194/1 460/460/1 193/193/1
f 460/460/1 459/459/1 193/193/1
f 195/195/1 461/461/1 194/194/1
f 461/461/1 460/460/1 194/194/1
f 196/196/1 462/462/1 195/195/1
f 462/462/1 461/461/1 195/195/1
f 197/197/1 463/463/1 196/196/1
f 463/463/1 462/462/1 196/196/1
f 198/198/1 464/464/1 197/197/1
f 464/464/1 463/463/1 197/197/1
f 199/199/1 465/465/1 198/198/1
f 465/465/1 464/464/1 198/198/1
f 200/200/1 466/466/1 199/199/1
f 466/466/1 465/465/1 199/199/1
f 201/201/1 467/467/1 200/200/1
f 467/467/1 466/466/1 200/200/1
f 202/202/1 468/468/1 201/201/1
f 468/468/1 467/467/1 201/201/1
f 203/203/1 469/469/1 202/202/1
f 469/469/1 468/468/1 202/202/1
f 204/204/1 470/470/1 203/203/1
f 470/470/1 469/469/1 203/203/1
f 205/205/1 471/471/1 204/204/1
f 471/471/1 470/470/1 204/204/1
f 206/206/1 472/472/1 205/205/1
f 472/472/1 471/471/1 205/205/1
f 207/207/1 473/473/1 206/206/1
f 473/473/1 472/472/1 206/206/1
f 208/208/1 474/474/1 207/207/1
f 474/474/1 473/473/1 207/207/1
f 209/209/1 475/475/1 208/208/1
f 475/475/1 474/474/1 208/208/1
f 210/210/1 476/476/1 209/209/1
f 476/476/1 475/475/1 209/209/1
f 211/211/1 477/477/1 210/210/1
f 477/477/1 476/476/1 210/210/1
f 212/212/1 478/478/1 211/211/1
f 478/478/1 477/477/1 211/211/1
f 213/213/1 479/479/1 212/212/1
f 479/479/1 478/478/1 212/212/1
f 214/214/1 480/480/1 213/213/1
f 480/480/1 479/479/1 213/213/1
f 215/215/1 481/481/1 214/214/1
f 481/481/1 480/480/1 214/214/1
f 216/216/1 482/482/1 215/215/1
f 482/482/1 481/481/1 215/215/1
f 217/217/1 483/483/1 216/216/1
f 483/483/1 482/482/1 216/216/1
f 218/218/1 484/484/1 217/217/1
f 484/484/1 483/483/1 217/217/1
f 219/219/1 485/485/1 218/218/1
f 485/485/1 484/484/1 218/218/1
f 220/220/1 486/486/1 219/219/1
f 486/486/1 485/485/1 219/219/1
f 221/221/1 487/487/1 220/220/1
f 487/487/1 486/486/1 220/220/1
f 222/222/1 488/488/1 221/221/1
f 488/488/1 487/487/1 221/221/1
f 223/223/1 489/489/1 222/222/1
f 489/489/1 488/488/1 222/222/1
f 224/224/1 490/490/1 223/223/1
f 490/490/1 489/489/1 223/223/1
f 225/225/1 491/491/1 224/224/1
f 491/491/1 490/490/1 224/224/1
f 226/226/1 492/492/1 225/225/1
f 492/492/1 491/491/1 225/225/1
f 227/227/1 493/493/1 226/226/1
f 493/493/1 492/492/1 226/226/1
f 228/228/1 494/494/1 227/227/1
f 494/494/1 493/493/1 227/227/1
f 229/229/1 495/495/1 228/228/1
f 495/495/1 494/494/1 228/228/1
f 230/230/1 496/496/1 229/229/1
f 496/496/1 495/495/1 229/229/1
f 231/231/1 497/497/1 230/230/1
f 497/497/1 496/496/1 230/230/1
f 232/232/1 498/498/1 231/231/1
f 498/498/1 497/497/1 231/231/1
f 233/233/1 499/499/1 232/232/1
f 499/499/1 498/498/1 232/232/1
f 234/234/1 500/500/1 233/233/1
f 500/500/1 499/499/1 233/233/1
f 235/235/1 501/501/1 234/234/1
f 501/501/1 500/500/1 234/234/1
f 236/236/1 502/502/1 235/235/1
f 502/502/1 501/501/1 235/235/1
f 237/237/1 503/503/1 236/236/1
f 503/503/1 502/502/1 236/236/1
f 238/238/1 504/504/1 237/237/1
f 504/504/1 503/503/1 237/237/1
f 239/239/1 505/505/1 238/238/1
f 505/505/1 504/504/1 238/238/1
f 240/240/1 506/506/1 239/239/1
f 506/506/1 505/505/1 239/239/1
f 241/241/1 507/507/1 240/240/1
f 507/507/1 506/506/1 240/240/1
f 242/242/1 508/508/1 241/241/1
f 508/508/1 507/507/1 241/241/1
f 243/243/1 509/509/1 242/242/1
f 509/509/1 508/508/1 242/242/1
f 244/244/1 510/510/1 243/243/1
f 510/510/1 509/509/1 243/243/1
f 245/245/1 511/511/1 244/244/1
f 511/511/1 510/510/1 244/244/1
f 246/246/1 512/512/1 245/245/1
f 512/512/1 511/511/1 245/245/1
f 247/247/1 513/513/1 246/246/1
f 513/513/1 512/512/1 246/246/1
f 248/248/1 514/514/1 247/247/1
f 514/514/1 513/513/1 247/247/1
f 249/249/1 515/515/1 248/248/1
f 515/515/1 514/514/1 248/248/1
f 250/250/1 516/516/1 249/249/1
f 516/516/1 515/515/1 249/249/1
f 251/251/1 517/517/1 250/250/1
f 517/517/1 516/516/1 250/250/1
f 252/252/1 518/518/1 251/251/1
f 518/518/1 517/517/1 251/251/1
f 253/253/1 519/519/1 252/252/1
f 519/519/1 518/518/1 252/252/1
f 254/254/1 520/520/1 253/253/1
f 520/520/1 519/519/1 253/253/1
f 255/255/1 521/521/1 254/254/1
f 521/521/1 520/520/1 254/254/1
f 256/256/1 522/522/1 255/255/1
f 522/522/1 521/521/1 255/255/1
f 257/257/1 523/523/1 256/256/1
f 523/523/1 522/522/1 256/256/1
f 258/258/1 524/524/1 257/257/1
f 524/524/1 523/523/1 257/257/1
f 259/259/1 525/525/1 258/258/1
f 525/525/1 524/524/1 258/258/1
f 260/260/1 526/526/1 259/259/1
f 526/526/1 525/525/1 259/259/1
f 261/261/1 527/527/1 260/260/1
f 527/527/1 526/526/1 260/260/1
f 262/262/1 528/528/1 261/261/1
f 528/528/1 527/527/1 261/261/1
f 263/263/1 529/529/1 262/262/1
f 529/529/1 528/528/1 262/262/1
f 264/264/1 530/530/1 263/263/1
f 530/530/1 529/529/1 263/263/1
f 265/265/1 531/531/1 264/264/1
f 531/531/1 530/530/1 264/264/1
f 266/266/1 532/532/1 265/265/1
f 532/532/1 531/531/1 265/265/1
f 1/1/1 267/267/1 266/266/1
f 267/267/1 532/532/1 266/266/1
