solid green_island_00
  facet normal -0.00000000 0.00000000 1.00000000
    outer loop
      vertex -3.24832154 -0.02238850 0.20000000
      vertex -3.26210860 -0.16025505 0.20000000
      vertex 3.26210860 0.04799984 0.20000000
    endloop
  endfacet
  facet normal 0.00000000 0.00000000 1.00000000
    outer loop
      vertex 3.26210860 0.04799984 0.20000000
      vertex 3.22945544 0.16025505 0.20000000
      vertex -3.24832154 -0.02238850 0.20000000
    endloop
  endfacet
  facet normal 0.00000000 0.00000000 -1.00000000
    outer loop
      vertex 3.26210860 0.04799984 0.00000000
      vertex -3.26210860 -0.16025505 0.00000000
      vertex -3.24832154 -0.02238850 0.00000000
    endloop
  endfacet
  facet normal 0.00000000 0.00000000 -1.00000000
    outer loop
      vertex -3.24832154 -0.02238850 0.00000000
      vertex 3.22945544 0.16025505 0.00000000
      vertex 3.26210860 0.04799984 0.00000000
    endloop
  endfacet
  facet normal -0.03190404 0.99949094 0.00000000
    outer loop
      vertex -3.26210860 -0.16025505 0.20000000
      vertex 3.26210860 0.04799984 0.20000000
      vertex 3.26210860 0.04799984 0.00000000
    endloop
  endfacet
  facet normal -0.03190404 0.99949094 0.00000000
    outer loop
      vertex -3.26210860 -0.16025505 0.20000000
      vertex 3.26210860 0.04799984 0.00000000
      vertex -3.26210860 -0.16025505 0.00000000
    endloop
  endfacet
  facet normal -0.96020194 -0.27930669 0.00000000
    outer loop
      vertex 3.26210860 0.04799984 0.20000000
      vertex 3.22945544 0.16025505 0.20000000
      vertex 3.22945544 0.16025505 0.00000000
    endloop
  endfacet
  facet normal -0.96020194 -0.27930669 -0.00000000
    outer loop
      vertex 3.26210860 0.04799984 0.20000000
      vertex 3.22945544 0.16025505 0.00000000
      vertex 3.26210860 0.04799984 0.00000000
    endloop
  endfacet
  facet normal 0.02818420 -0.99960275 0.00000000
    outer loop
      vertex 3.22945544 0.16025505 0.20000000
      vertex -3.24832154 -0.02238850 0.20000000
      vertex -3.24832154 -0.02238850 0.00000000
    endloop
  endfacet
  facet normal 0.02818420 -0.99960275 0.00000000
    outer loop
      vertex 3.22945544 0.16025505 0.20000000
      vertex -3.24832154 -0.02238850 0.00000000
      vertex 3.22945544 0.16025505 0.00000000
    endloop
  endfacet
  facet normal 0.99503690 -0.09950666 0.00000000
    outer loop
      vertex -3.24832154 -0.02238850 0.20000000
      vertex -3.26210860 -0.16025505 0.20000000
      vertex -3.26210860 -0.16025505 0.00000000
    endloop
  endfacet
  facet normal 0.99503690 -0.09950666 0.00000000
    outer loop
      vertex -3.24832154 -0.02238850 0.20000000
      vertex -3.26210860 -0.16025505 0.00000000
      vertex -3.24832154 -0.02238850 0.00000000
    endloop
  endfacet
  facet normal 0.00000000 0.00000000 -1.00000000
    outer loop
      vertex 3.26210860 0.04799984 0.20000000
      vertex -3.26210860 -0.16025505 0.20000000
      vertex -3.24832154 -0.02238850 0.20000000
    endloop
  endfacet
  facet normal 0.00000000 0.00000000 -1.00000000
    outer loop
      vertex -3.24832154 -0.02238850 0.20000000
      vertex 3.22945544 0.16025505 0.20000000
      vertex 3.26210860 0.04799984 0.20000000
    endloop
  endfacet
  facet normal -0.00000000 0.00000000 1.00000000
    outer loop
      vertex -3.24832154 -0.02238850 0.00000000
      vertex -3.26210860 -0.16025505 0.00000000
      vertex 3.26210860 0.04799984 0.00000000
    endloop
  endfacet
  facet normal 0.00000000 0.00000000 1.00000000
    outer loop
      vertex 3.26210860 0.04799984 0.00000000
      vertex 3.22945544 0.16025505 0.00000000
      vertex -3.24832154 -0.02238850 0.00000000
    endloop
  endfacet
  facet normal 0.03190404 -0.99949094 0.00000000
    outer loop
      vertex 3.26210860 0.04799984 0.00000000
      vertex 3.26210860 0.04799984 0.20000000
      vertex -3.26210860 -0.16025505 0.20000000
    endloop
  endfacet
  facet normal 0.03190404 -0.99949094 0.00000000
    outer loop
      vertex -3.26210860 -0.16025505 0.00000000
      vertex 3.26210860 0.04799984 0.00000000
      vertex -3.26210860 -0.16025505 0.20000000
    endloop
  endfacet
  facet normal 0.96020194 0.27930669 -0.00000000
    outer loop
      vertex 3.22945544 0.16025505 0.00000000
      vertex 3.22945544 0.16025505 0.20000000
      vertex 3.26210860 0.04799984 0.20000000
    endloop
  endfacet
  facet normal 0.96020194 0.27930669 -0.00000000
    outer loop
      vertex 3.26210860 0.04799984 0.00000000
      vertex 3.22945544 0.16025505 0.00000000
      vertex 3.26210860 0.04799984 0.20000000
    endloop
  endfacet
  facet normal -0.02818420 0.99960275 0.00000000
    outer loop
      vertex -3.24832154 -0.02238850 0.00000000
      vertex -3.24832154 -0.02238850 0.20000000
      vertex 3.22945544 0.16025505 0.20000000
    endloop
  endfacet
  facet normal -0.02818420 0.99960275 0.00000000
    outer loop
      vertex 3.22945544 0.16025505 0.00000000
      vertex -3.24832154 -0.02238850 0.00000000
      vertex 3.22945544 0.16025505 0.20000000
    endloop
  endfacet
  facet normal -0.99503690 0.09950666 0.00000000
    outer loop
      vertex -3.26210860 -0.16025505 0.00000000
      vertex -3.26210860 -0.16025505 0.20000000
      vertex -3.24832154 -0.02238850 0.20000000
    endloop
  endfacet
  facet normal -0.99503690 0.09950666 0.00000000
    outer loop
      vertex -3.24832154 -0.02238850 0.00000000
      vertex -3.26210860 -0.16025505 0.00000000
      vertex -3.24832154 -0.02238850 0.20000000
    endloop
  endfacet
endsolid green_island_00
