solid hatch_yellow_lines_02
  facet normal 0.00000000 0.00000000 1.00000000
    outer loop
      vertex 3.81950066 -2.02337320 0.00000000
      vertex 4.57693049 -1.54092621 0.00000000
      vertex 4.39853113 -1.38029471 0.00000000
    endloop
  endfacet
  facet normal -0.00000000 0.00000000 1.00000000
    outer loop
      vertex 3.81950066 -2.02337320 0.00000000
      vertex 3.99790002 -2.18400470 0.00000000
      vertex 4.57693049 -1.54092621 0.00000000
    endloop
  endfacet
  facet normal 0.00000000 0.00000000 1.00000000
    outer loop
      vertex 1.94955975 -2.23205729 0.00000000
      vertex 3.42554707 -0.95157136 0.00000000
      vertex 3.24714771 -0.79093986 0.00000000
    endloop
  endfacet
  facet normal -0.00000000 0.00000000 1.00000000
    outer loop
      vertex 1.94955975 -2.23205729 0.00000000
      vertex 2.12795911 -2.39268879 0.00000000
      vertex 3.42554707 -0.95157136 0.00000000
    endloop
  endfacet
  facet normal 0.00000000 0.00000000 1.00000000
    outer loop
      vertex 0.07961884 -2.44074138 0.00000000
      vertex 2.44585844 -0.17153013 0.00000000
      vertex 2.26745908 -0.01089863 0.00000000
    endloop
  endfacet
  facet normal -0.00000000 0.00000000 1.00000000
    outer loop
      vertex 0.07961884 -2.44074138 0.00000000
      vertex 0.25801819 -2.60137288 0.00000000
      vertex 2.44585844 -0.17153013 0.00000000
    endloop
  endfacet
  facet normal 0.00000000 0.00000000 1.00000000
    outer loop
      vertex -1.79032208 -2.64942547 0.00000000
      vertex 1.53762387 0.68786888 0.00000000
      vertex 1.35922451 0.84850038 0.00000000
    endloop
  endfacet
  facet normal -0.00000000 0.00000000 1.00000000
    outer loop
      vertex -1.79032208 -2.64942547 0.00000000
      vertex -1.61192272 -2.81005697 0.00000000
      vertex 1.53762387 0.68786888 0.00000000
    endloop
  endfacet
  facet normal 0.00000000 0.00000000 1.00000000
    outer loop
      vertex -3.66026299 -2.85810956 0.00000000
      vertex 0.75896050 1.69117128 0.00000000
      vertex 0.58056114 1.85180279 0.00000000
    endloop
  endfacet
  facet normal -0.00000000 0.00000000 1.00000000
    outer loop
      vertex -3.66026299 -2.85810956 0.00000000
      vertex -3.48186363 -3.01874107 0.00000000
      vertex 0.75896050 1.69117128 0.00000000
    endloop
  endfacet
  facet normal 0.00000000 0.00000000 1.00000000
    outer loop
      vertex -4.31973021 -1.72242643 0.00000000
      vertex -1.17749043 1.40862033 0.00000000
      vertex -1.35588979 1.56925183 0.00000000
    endloop
  endfacet
  facet normal -0.00000000 0.00000000 1.00000000
    outer loop
      vertex -4.31973021 -1.72242643 0.00000000
      vertex -4.14133085 -1.88305793 0.00000000
      vertex -1.17749043 1.40862033 0.00000000
    endloop
  endfacet
  facet normal -0.00000000 0.00000000 1.00000000
    outer loop
      vertex -0.18131998 2.87374377 0.00000000
      vertex 0.12763553 2.85810956 0.00000000
      vertex -0.05076383 3.01874107 0.00000000
    endloop
  endfacet
  facet normal 0.00000000 0.00000000 1.00000000
    outer loop
      vertex -0.18131998 2.87374377 0.00000000
      vertex -0.00292062 2.71311227 0.00000000
      vertex 0.12763553 2.85810956 0.00000000
    endloop
  endfacet
  facet normal 0.00000000 0.00000000 1.00000000
    outer loop
      vertex -4.57693049 -0.13998059 0.00000000
      vertex -3.23606118 0.99044158 0.00000000
      vertex -3.41446054 1.15107309 0.00000000
    endloop
  endfacet
  facet normal -0.00000000 0.00000000 1.00000000
    outer loop
      vertex -4.57693049 -0.13998059 0.00000000
      vertex -4.39853113 -0.30061209 0.00000000
      vertex -3.23606118 0.99044158 0.00000000
    endloop
  endfacet
endsolid hatch_yellow_lines_02
