solid hatch_yellow_lines_03
  facet normal 0.00000000 0.00000000 1.00000000
    outer loop
      vertex 2.67984169 -4.12068527 0.00000000
      vertex 3.28694063 -3.80519766 0.00000000
      vertex 3.10854127 -3.64456616 0.00000000
    endloop
  endfacet
  facet normal -0.00000000 0.00000000 1.00000000
    outer loop
      vertex 2.67984169 -4.12068527 0.00000000
      vertex 2.85824105 -4.28131677 0.00000000
      vertex 3.28694063 -3.80519766 0.00000000
    endloop
  endfacet
  facet normal 0.00000000 0.00000000 1.00000000
    outer loop
      vertex -3.28694063 -8.87937270 0.00000000
      vertex -2.71113801 -8.59864317 0.00000000
      vertex -2.88953737 -8.43801167 0.00000000
    endloop
  endfacet
  facet normal -0.00000000 0.00000000 1.00000000
    outer loop
      vertex -3.28694063 -8.87937270 0.00000000
      vertex -3.10854127 -9.04000421 0.00000000
      vertex -2.71113801 -8.59864317 0.00000000
    endloop
  endfacet
  facet normal 0.00000000 0.00000000 1.00000000
    outer loop
      vertex 0.40697901 -4.77685933 0.00000000
      vertex 2.83939671 -2.43414985 0.00000000
      vertex 2.66099735 -2.27351835 0.00000000
    endloop
  endfacet
  facet normal -0.00000000 0.00000000 1.00000000
    outer loop
      vertex 0.40697901 -4.77685933 0.00000000
      vertex 0.58537837 -4.93749083 0.00000000
      vertex 2.83939671 -2.43414985 0.00000000
    endloop
  endfacet
  facet normal 0.00000000 0.00000000 1.00000000
    outer loop
      vertex -3.18579307 -6.89894127 0.00000000
      vertex 3.27281200 -0.08469771 0.00000000
      vertex 3.09441265 0.07593379 0.00000000
    endloop
  endfacet
  facet normal -0.00000000 0.00000000 1.00000000
    outer loop
      vertex -3.18579307 -6.89894127 0.00000000
      vertex -3.00739371 -7.05957278 0.00000000
      vertex 3.27281200 -0.08469771 0.00000000
    endloop
  endfacet
  facet normal 0.00000000 0.00000000 1.00000000
    outer loop
      vertex -3.08464551 -4.91850984 0.00000000
      vertex 1.84468619 0.19730358 0.00000000
      vertex 1.66628684 0.35793508 0.00000000
    endloop
  endfacet
  facet normal -0.00000000 0.00000000 1.00000000
    outer loop
      vertex -3.08464551 -4.91850984 0.00000000
      vertex -2.90624615 -5.07914135 0.00000000
      vertex 1.84468619 0.19730358 0.00000000
    endloop
  endfacet
  facet normal 0.00000000 0.00000000 1.00000000
    outer loop
      vertex -2.98349796 -2.93807841 0.00000000
      vertex 0.84088823 0.95056868 0.00000000
      vertex 0.66248887 1.11120018 0.00000000
    endloop
  endfacet
  facet normal -0.00000000 0.00000000 1.00000000
    outer loop
      vertex -2.98349796 -2.93807841 0.00000000
      vertex -2.80509860 -3.09870992 0.00000000
      vertex 0.84088823 0.95056868 0.00000000
    endloop
  endfacet
  facet normal 0.00000000 0.00000000 1.00000000
    outer loop
      vertex -2.88235040 -0.95764698 0.00000000
      vertex -0.00768893 1.87622396 0.00000000
      vertex -0.18608829 2.03685546 0.00000000
    endloop
  endfacet
  facet normal -0.00000000 0.00000000 1.00000000
    outer loop
      vertex -2.88235040 -0.95764698 0.00000000
      vertex -2.70395104 -1.11827849 0.00000000
      vertex -0.00768893 1.87622396 0.00000000
    endloop
  endfacet
  facet normal 0.00000000 0.00000000 1.00000000
    outer loop
      vertex -2.78120284 1.02278445 0.00000000
      vertex -0.71240826 2.96164954 0.00000000
      vertex -0.89080762 3.12228104 0.00000000
    endloop
  endfacet
  facet normal -0.00000000 0.00000000 1.00000000
    outer loop
      vertex -2.78120284 1.02278445 0.00000000
      vertex -2.60280348 0.86215294 0.00000000
      vertex -0.71240826 2.96164954 0.00000000
    endloop
  endfacet
  facet normal 0.00000000 0.00000000 1.00000000
    outer loop
      vertex -2.68005529 3.00321588 0.00000000
      vertex -1.19156203 4.29759105 0.00000000
      vertex -1.36996139 4.45822255 0.00000000
    endloop
  endfacet
  facet normal -0.00000000 0.00000000 1.00000000
    outer loop
      vertex -2.68005529 3.00321588 0.00000000
      vertex -2.50165593 2.84258437 0.00000000
      vertex -1.19156203 4.29759105 0.00000000
    endloop
  endfacet
  facet normal 0.00000000 0.00000000 1.00000000
    outer loop
      vertex -2.57890773 4.98364731 0.00000000
      vertex -1.62891056 5.67996198 0.00000000
      vertex -1.80730992 5.84059349 0.00000000
    endloop
  endfacet
  facet normal -0.00000000 0.00000000 1.00000000
    outer loop
      vertex -2.57890773 4.98364731 0.00000000
      vertex -2.40050837 4.82301580 0.00000000
      vertex -1.62891056 5.67996198 0.00000000
    endloop
  endfacet
  facet normal 0.00000000 0.00000000 1.00000000
    outer loop
      vertex -2.47776017 6.96407874 0.00000000
      vertex -1.92457730 7.21968649 0.00000000
      vertex -2.10297666 7.38031800 0.00000000
    endloop
  endfacet
  facet normal -0.00000000 0.00000000 1.00000000
    outer loop
      vertex -2.47776017 6.96407874 0.00000000
      vertex -2.29936081 6.80344723 0.00000000
      vertex -1.92457730 7.21968649 0.00000000
    endloop
  endfacet
  facet normal -0.00000000 0.00000000 1.00000000
    outer loop
      vertex -2.41535362 8.90148392 0.00000000
      vertex -2.11223004 8.87937270 0.00000000
      vertex -2.29062939 9.04000421 0.00000000
    endloop
  endfacet
  facet normal 0.00000000 0.00000000 1.00000000
    outer loop
      vertex -2.41535362 8.90148392 0.00000000
      vertex -2.23695427 8.74085241 0.00000000
      vertex -2.11223004 8.87937270 0.00000000
    endloop
  endfacet
endsolid hatch_yellow_lines_03
