solid hatch_yellow_lines_05
  facet normal 0.00000000 0.00000000 1.00000000
    outer loop
      vertex 5.33246887 -6.04566973 0.00000000
      vertex 5.71002734 -5.98511263 0.00000000
      vertex 5.53162798 -5.82448112 0.00000000
    endloop
  endfacet
  facet normal -0.00000000 0.00000000 1.00000000
    outer loop
      vertex 5.33246887 -6.04566973 0.00000000
      vertex 5.51086823 -6.20630123 0.00000000
      vertex 5.71002734 -5.98511263 0.00000000
    endloop
  endfacet
  facet normal 0.00000000 0.00000000 1.00000000
    outer loop
      vertex 3.37606175 -6.35038427 0.00000000
      vertex 4.72327619 -5.21291512 0.00000000
      vertex 4.54487683 -5.05228362 0.00000000
    endloop
  endfacet
  facet normal -0.00000000 0.00000000 1.00000000
    outer loop
      vertex 3.37606175 -6.35038427 0.00000000
      vertex 3.55446111 -6.51101577 0.00000000
      vertex 4.72327619 -5.21291512 0.00000000
    endloop
  endfacet
  facet normal 0.00000000 0.00000000 1.00000000
    outer loop
      vertex 1.40572526 -6.67056895 0.00000000
      vertex 4.01592758 -4.13040965 0.00000000
      vertex 3.83752822 -3.96977815 0.00000000
    endloop
  endfacet
  facet normal -0.00000000 0.00000000 1.00000000
    outer loop
      vertex 1.40572526 -6.67056895 0.00000000
      vertex 1.58412461 -6.83120045 0.00000000
      vertex 4.01592758 -4.13040965 0.00000000
    endloop
  endfacet
  facet normal 0.00000000 0.00000000 1.00000000
    outer loop
      vertex -0.56461124 -6.99075363 0.00000000
      vertex 3.71660610 -2.59474414 0.00000000
      vertex 3.53820674 -2.43411264 0.00000000
    endloop
  endfacet
  facet normal -0.00000000 0.00000000 1.00000000
    outer loop
      vertex -0.56461124 -6.99075363 0.00000000
      vertex -0.38621188 -7.15138514 0.00000000
      vertex 3.71660610 -2.59474414 0.00000000
    endloop
  endfacet
  facet normal 0.00000000 0.00000000 1.00000000
    outer loop
      vertex -1.04455072 -5.65568474 0.00000000
      vertex 3.52151462 -0.94331950 0.00000000
      vertex 3.34311526 -0.78268799 0.00000000
    endloop
  endfacet
  facet normal -0.00000000 0.00000000 1.00000000
    outer loop
      vertex -1.04455072 -5.65568474 0.00000000
      vertex -0.86615136 -5.81631624 0.00000000
      vertex 3.52151462 -0.94331950 0.00000000
    endloop
  endfacet
  facet normal 0.00000000 0.00000000 1.00000000
    outer loop
      vertex -1.56531386 -4.36595511 0.00000000
      vertex 3.32642313 0.70810514 0.00000000
      vertex 3.14802377 0.86873665 0.00000000
    endloop
  endfacet
  facet normal -0.00000000 0.00000000 1.00000000
    outer loop
      vertex -1.56531386 -4.36595511 0.00000000
      vertex -1.38691450 -4.52658661 0.00000000
      vertex 3.32642313 0.70810514 0.00000000
    endloop
  endfacet
  facet normal 0.00000000 0.00000000 1.00000000
    outer loop
      vertex -2.36738817 -3.38865319 0.00000000
      vertex 0.56718614 -0.48824231 0.00000000
      vertex 0.38878678 -0.32761080 0.00000000
    endloop
  endfacet
  facet normal -0.00000000 0.00000000 1.00000000
    outer loop
      vertex -2.36738817 -3.38865319 0.00000000
      vertex -2.18898881 -3.54928470 0.00000000
      vertex 0.56718614 -0.48824231 0.00000000
    endloop
  endfacet
  facet normal 0.00000000 0.00000000 1.00000000
    outer loop
      vertex 1.56724247 0.98119684 0.00000000
      vertex 3.13133164 2.35952978 0.00000000
      vertex 2.95293229 2.52016129 0.00000000
    endloop
  endfacet
  facet normal -0.00000000 0.00000000 1.00000000
    outer loop
      vertex 1.56724247 0.98119684 0.00000000
      vertex 1.74564183 0.82056534 0.00000000
      vertex 3.13133164 2.35952978 0.00000000
    endloop
  endfacet
  facet normal 0.00000000 0.00000000 1.00000000
    outer loop
      vertex -3.20185145 -2.44732287 0.00000000
      vertex -1.48325353 -0.89739057 0.00000000
      vertex -1.66165289 -0.73675907 0.00000000
    endloop
  endfacet
  facet normal -0.00000000 0.00000000 1.00000000
    outer loop
      vertex -3.20185145 -2.44732287 0.00000000
      vertex -3.02345209 -2.60795437 0.00000000
      vertex -1.48325353 -0.89739057 0.00000000
    endloop
  endfacet
  facet normal 0.00000000 0.00000000 1.00000000
    outer loop
      vertex 1.65406077 2.94571402 0.00000000
      vertex 2.98178546 4.06153761 0.00000000
      vertex 2.80338611 4.22216912 0.00000000
    endloop
  endfacet
  facet normal -0.00000000 0.00000000 1.00000000
    outer loop
      vertex 1.65406077 2.94571402 0.00000000
      vertex 1.83246013 2.78508252 0.00000000
      vertex 2.98178546 4.06153761 0.00000000
    endloop
  endfacet
  facet normal 0.00000000 0.00000000 1.00000000
    outer loop
      vertex -4.26963989 -1.76512639 0.00000000
      vertex -3.35365273 -1.10658365 0.00000000
      vertex -3.53205209 -0.94595214 0.00000000
    endloop
  endfacet
  facet normal -0.00000000 0.00000000 1.00000000
    outer loop
      vertex -4.26963989 -1.76512639 0.00000000
      vertex -4.09124053 -1.92575789 0.00000000
      vertex -3.35365273 -1.10658365 0.00000000
    endloop
  endfacet
  facet normal 0.00000000 0.00000000 1.00000000
    outer loop
      vertex 1.52150539 4.66659204 0.00000000
      vertex 3.93722250 6.99075363 0.00000000
      vertex 3.75882315 7.15138514 0.00000000
    endloop
  endfacet
  facet normal -0.00000000 0.00000000 1.00000000
    outer loop
      vertex 1.52150539 4.66659204 0.00000000
      vertex 1.69990475 4.50596054 0.00000000
      vertex 3.93722250 6.99075363 0.00000000
    endloop
  endfacet
  facet normal 0.00000000 0.00000000 1.00000000
    outer loop
      vertex -5.71002734 -1.49674303 0.00000000
      vertex -5.22405193 -1.31577672 0.00000000
      vertex -5.40245129 -1.15514522 0.00000000
    endloop
  endfacet
  facet normal -0.00000000 0.00000000 1.00000000
    outer loop
      vertex -5.71002734 -1.49674303 0.00000000
      vertex -5.53162798 -1.65737453 0.00000000
      vertex -5.22405193 -1.31577672 0.00000000
    endloop
  endfacet
  facet normal 0.00000000 0.00000000 1.00000000
    outer loop
      vertex 0.85997856 5.79998775 0.00000000
      vertex 1.91807675 6.61636078 0.00000000
      vertex 1.73967739 6.77699228 0.00000000
    endloop
  endfacet
  facet normal -0.00000000 0.00000000 1.00000000
    outer loop
      vertex 0.85997856 5.79998775 0.00000000
      vertex 1.03837792 5.63935625 0.00000000
      vertex 1.91807675 6.61636078 0.00000000
    endloop
  endfacet
  facet normal -0.00000000 0.00000000 1.00000000
    outer loop
      vertex -0.36679286 6.30561574 0.00000000
      vertex -0.06266332 6.28462176 0.00000000
      vertex -0.24106268 6.44525326 0.00000000
    endloop
  endfacet
  facet normal 0.00000000 0.00000000 1.00000000
    outer loop
      vertex -0.36679286 6.30561574 0.00000000
      vertex -0.18839351 6.14498424 0.00000000
      vertex -0.06266332 6.28462176 0.00000000
    endloop
  endfacet
endsolid hatch_yellow_lines_05
