solid lane_yellow_line_42
  facet normal -0.00000000 0.00000000 1.00000000
    outer loop
      vertex -18.50351264 -3.35255143 0.00000000
      vertex -16.55715872 -3.40341663 0.00000000
      vertex -16.58068850 -3.16451249 0.00000000
    endloop
  endfacet
  facet normal 0.00000000 0.00000000 1.00000000
    outer loop
      vertex -18.50351264 -3.35255143 0.00000000
      vertex -18.48014789 -3.59147171 0.00000000
      vertex -16.55715872 -3.40341663 0.00000000
    endloop
  endfacet
  facet normal -0.00000000 0.00000000 1.00000000
    outer loop
      vertex -16.58068850 -3.16451249 0.00000000
      vertex -14.63423527 -3.21268592 0.00000000
      vertex -14.65809502 -2.97381451 0.00000000
    endloop
  endfacet
  facet normal 0.00000000 0.00000000 1.00000000
    outer loop
      vertex -16.58068850 -3.16451249 0.00000000
      vertex -16.55715872 -3.40341663 0.00000000
      vertex -14.63423527 -3.21268592 0.00000000
    endloop
  endfacet
  facet normal -0.00000000 0.00000000 1.00000000
    outer loop
      vertex -14.65809502 -2.97381451 0.00000000
      vertex -12.71146004 -3.01928765 0.00000000
      vertex -12.73564968 -2.78044942 0.00000000
    endloop
  endfacet
  facet normal 0.00000000 0.00000000 1.00000000
    outer loop
      vertex -14.65809502 -2.97381451 0.00000000
      vertex -14.63423527 -3.21268592 0.00000000
      vertex -12.71146004 -3.01928765 0.00000000
    endloop
  endfacet
  facet normal -0.00000000 0.00000000 1.00000000
    outer loop
      vertex -12.73564968 -2.78044942 0.00000000
      vertex -10.78883304 -2.82322182 0.00000000
      vertex -10.81335249 -2.58441723 0.00000000
    endloop
  endfacet
  facet normal 0.00000000 0.00000000 1.00000000
    outer loop
      vertex -12.73564968 -2.78044942 0.00000000
      vertex -12.71146004 -3.01928765 0.00000000
      vertex -10.78883304 -2.82322182 0.00000000
    endloop
  endfacet
  facet normal -0.00000000 0.00000000 1.00000000
    outer loop
      vertex -10.81335249 -2.58441723 0.00000000
      vertex -8.86635428 -2.62448843 0.00000000
      vertex -8.89120343 -2.38571792 0.00000000
    endloop
  endfacet
  facet normal 0.00000000 0.00000000 1.00000000
    outer loop
      vertex -10.81335249 -2.58441723 0.00000000
      vertex -10.78883304 -2.82322182 0.00000000
      vertex -8.86635428 -2.62448843 0.00000000
    endloop
  endfacet
  facet normal -0.00000000 0.00000000 1.00000000
    outer loop
      vertex -8.89120343 -2.38571792 0.00000000
      vertex -6.94402374 -2.42308749 0.00000000
      vertex -6.96920251 -2.18435151 0.00000000
    endloop
  endfacet
  facet normal 0.00000000 0.00000000 1.00000000
    outer loop
      vertex -8.89120343 -2.38571792 0.00000000
      vertex -8.86635428 -2.62448843 0.00000000
      vertex -6.94402374 -2.42308749 0.00000000
    endloop
  endfacet
  facet normal -0.00000000 0.00000000 1.00000000
    outer loop
      vertex -6.96920251 -2.18435151 0.00000000
      vertex -5.02184143 -2.21901898 0.00000000
      vertex -5.04734974 -1.98031799 0.00000000
    endloop
  endfacet
  facet normal 0.00000000 0.00000000 1.00000000
    outer loop
      vertex -6.96920251 -2.18435151 0.00000000
      vertex -6.94402374 -2.42308749 0.00000000
      vertex -5.02184143 -2.21901898 0.00000000
    endloop
  endfacet
  facet normal -0.00000000 0.00000000 1.00000000
    outer loop
      vertex -5.04734974 -1.98031799 0.00000000
      vertex -3.09980736 -2.01228292 0.00000000
      vertex -3.12564510 -1.77361736 0.00000000
    endloop
  endfacet
  facet normal 0.00000000 0.00000000 1.00000000
    outer loop
      vertex -5.04734974 -1.98031799 0.00000000
      vertex -5.02184143 -2.21901898 0.00000000
      vertex -3.09980736 -2.01228292 0.00000000
    endloop
  endfacet
  facet normal -0.00000000 0.00000000 1.00000000
    outer loop
      vertex -3.12564510 -1.77361736 0.00000000
      vertex -1.17792152 -1.80287930 0.00000000
      vertex -1.20408859 -1.56424962 0.00000000
    endloop
  endfacet
  facet normal 0.00000000 0.00000000 1.00000000
    outer loop
      vertex -3.12564510 -1.77361736 0.00000000
      vertex -3.09980736 -2.01228292 0.00000000
      vertex -1.17792152 -1.80287930 0.00000000
    endloop
  endfacet
  facet normal -0.00000000 0.00000000 1.00000000
    outer loop
      vertex -1.20408859 -1.56424962 0.00000000
      vertex 0.74381608 -1.59080812 0.00000000
      vertex 0.71731977 -1.35221478 0.00000000
    endloop
  endfacet
  facet normal 0.00000000 0.00000000 1.00000000
    outer loop
      vertex -1.20408859 -1.56424962 0.00000000
      vertex -1.17792152 -1.80287930 0.00000000
      vertex 0.74381608 -1.59080812 0.00000000
    endloop
  endfacet
  facet normal -0.00000000 0.00000000 1.00000000
    outer loop
      vertex 0.71731977 -1.35221478 0.00000000
      vertex 2.66540545 -1.37606938 0.00000000
      vertex 2.63858001 -1.13751282 0.00000000
    endloop
  endfacet
  facet normal 0.00000000 0.00000000 1.00000000
    outer loop
      vertex 0.71731977 -1.35221478 0.00000000
      vertex 0.74381608 -1.59080812 0.00000000
      vertex 2.66540545 -1.37606938 0.00000000
    endloop
  endfacet
  facet normal -0.00000000 0.00000000 1.00000000
    outer loop
      vertex 2.63858001 -1.13751282 0.00000000
      vertex 4.58684658 -1.15866309 0.00000000
      vertex 4.55969210 -0.92014375 0.00000000
    endloop
  endfacet
  facet normal 0.00000000 0.00000000 1.00000000
    outer loop
      vertex 2.63858001 -1.13751282 0.00000000
      vertex 2.66540545 -1.37606938 0.00000000
      vertex 4.58684658 -1.15866309 0.00000000
    endloop
  endfacet
  facet normal -0.00000000 0.00000000 1.00000000
    outer loop
      vertex 4.55969210 -0.92014375 0.00000000
      vertex 6.50813948 -0.93858923 0.00000000
      vertex 6.48065607 -0.70010758 0.00000000
    endloop
  endfacet
  facet normal 0.00000000 0.00000000 1.00000000
    outer loop
      vertex 4.55969210 -0.92014375 0.00000000
      vertex 4.58684658 -1.15866309 0.00000000
      vertex 6.50813948 -0.93858923 0.00000000
    endloop
  endfacet
  facet normal -0.00000000 0.00000000 1.00000000
    outer loop
      vertex 6.48065607 -0.70010758 0.00000000
      vertex 8.42928414 -0.71584782 0.00000000
      vertex 8.40147190 -0.47740429 0.00000000
    endloop
  endfacet
  facet normal 0.00000000 0.00000000 1.00000000
    outer loop
      vertex 6.48065607 -0.70010758 0.00000000
      vertex 6.50813948 -0.93858923 0.00000000
      vertex 8.42928414 -0.71584782 0.00000000
    endloop
  endfacet
  facet normal -0.00000000 0.00000000 1.00000000
    outer loop
      vertex 8.40147190 -0.47740429 0.00000000
      vertex 10.35028055 -0.49043886 0.00000000
      vertex 10.32213960 -0.25203390 0.00000000
    endloop
  endfacet
  facet normal 0.00000000 0.00000000 1.00000000
    outer loop
      vertex 8.40147190 -0.47740429 0.00000000
      vertex 8.42928414 -0.71584782 0.00000000
      vertex 10.35028055 -0.49043886 0.00000000
    endloop
  endfacet
  facet normal -0.00000000 0.00000000 1.00000000
    outer loop
      vertex 10.32213960 -0.25203390 0.00000000
      vertex 12.27112873 -0.26236234 0.00000000
      vertex 12.24265917 -0.02399639 0.00000000
    endloop
  endfacet
  facet normal 0.00000000 0.00000000 1.00000000
    outer loop
      vertex 10.32213960 -0.25203390 0.00000000
      vertex 10.35028055 -0.49043886 0.00000000
      vertex 12.27112873 -0.26236234 0.00000000
    endloop
  endfacet
  facet normal -0.00000000 0.00000000 1.00000000
    outer loop
      vertex 12.24265917 -0.02399639 0.00000000
      vertex 14.19182867 -0.03161826 0.00000000
      vertex 14.16303062 0.20670822 0.00000000
    endloop
  endfacet
  facet normal 0.00000000 0.00000000 1.00000000
    outer loop
      vertex 12.24265917 -0.02399639 0.00000000
      vertex 12.27112873 -0.26236234 0.00000000
      vertex 14.19182867 -0.03161826 0.00000000
    endloop
  endfacet
  facet normal -0.00000000 0.00000000 1.00000000
    outer loop
      vertex 14.16303062 0.20670822 0.00000000
      vertex 16.12638773 0.20349575 0.00000000
      vertex 16.06924657 0.43837758 0.00000000
    endloop
  endfacet
  facet normal 0.00000000 0.00000000 1.00000000
    outer loop
      vertex 14.16303062 0.20670822 0.00000000
      vertex 14.19182867 -0.03161826 0.00000000
      vertex 16.12638773 0.20349575 0.00000000
    endloop
  endfacet
  facet normal -0.00000000 0.00000000 1.00000000
    outer loop
      vertex 16.06924657 0.43837758 0.00000000
      vertex 16.36277136 0.29148493 0.00000000
      vertex 16.27176896 0.51376258 0.00000000
    endloop
  endfacet
  facet normal 0.00000000 0.00000000 1.00000000
    outer loop
      vertex 16.06924657 0.43837758 0.00000000
      vertex 16.12638773 0.20349575 0.00000000
      vertex 16.36277136 0.29148493 0.00000000
    endloop
  endfacet
  facet normal -0.00000000 0.00000000 1.00000000
    outer loop
      vertex 16.27176896 0.51376258 0.00000000
      vertex 16.57858313 0.38807844 0.00000000
      vertex 16.47311704 0.60388241 0.00000000
    endloop
  endfacet
  facet normal 0.00000000 0.00000000 1.00000000
    outer loop
      vertex 16.27176896 0.51376258 0.00000000
      vertex 16.36277136 0.29148493 0.00000000
      vertex 16.57858313 0.38807844 0.00000000
    endloop
  endfacet
  facet normal -0.00000000 0.00000000 1.00000000
    outer loop
      vertex 16.47311704 0.60388241 0.00000000
      vertex 16.78357875 0.49697667 0.00000000
      vertex 16.66353508 0.70503670 0.00000000
    endloop
  endfacet
  facet normal 0.00000000 0.00000000 1.00000000
    outer loop
      vertex 16.47311704 0.60388241 0.00000000
      vertex 16.57858313 0.38807844 0.00000000
      vertex 16.78357875 0.49697667 0.00000000
    endloop
  endfacet
  facet normal -0.00000000 0.00000000 1.00000000
    outer loop
      vertex 16.66353508 0.70503670 0.00000000
      vertex 16.97764090 0.61818735 0.00000000
      vertex 16.84314042 0.81721769 0.00000000
    endloop
  endfacet
  facet normal 0.00000000 0.00000000 1.00000000
    outer loop
      vertex 16.66353508 0.70503670 0.00000000
      vertex 16.78357875 0.49697667 0.00000000
      vertex 16.97764090 0.61818735 0.00000000
    endloop
  endfacet
  facet normal -0.00000000 0.00000000 1.00000000
    outer loop
      vertex 16.84314042 0.81721769 0.00000000
      vertex 17.16064296 0.75168956 0.00000000
      vertex 17.01205968 0.94044634 0.00000000
    endloop
  endfacet
  facet normal 0.00000000 0.00000000 1.00000000
    outer loop
      vertex 16.84314042 0.81721769 0.00000000
      vertex 16.97764090 0.61818735 0.00000000
      vertex 17.16064296 0.75168956 0.00000000
    endloop
  endfacet
  facet normal -0.00000000 0.00000000 1.00000000
    outer loop
      vertex 17.01205968 0.94044634 0.00000000
      vertex 17.33245836 0.89743143 0.00000000
      vertex 17.17041941 1.07477448 0.00000000
    endloop
  endfacet
  facet normal 0.00000000 0.00000000 1.00000000
    outer loop
      vertex 17.01205968 0.94044634 0.00000000
      vertex 17.16064296 0.75168956 0.00000000
      vertex 17.33245836 0.89743143 0.00000000
    endloop
  endfacet
  facet normal -0.00000000 0.00000000 1.00000000
    outer loop
      vertex 17.17041941 1.07477448 0.00000000
      vertex 17.49297105 1.05533173 0.00000000
      vertex 17.31833568 1.22028336 0.00000000
    endloop
  endfacet
  facet normal 0.00000000 0.00000000 1.00000000
    outer loop
      vertex 17.17041941 1.07477448 0.00000000
      vertex 17.33245836 0.89743143 0.00000000
      vertex 17.49297105 1.05533173 0.00000000
    endloop
  endfacet
  facet normal 0.00000000 0.00000000 1.00000000
    outer loop
      vertex 17.31833568 1.22028336 0.00000000
      vertex 17.64208515 1.22528539 0.00000000
      vertex 17.45590436 1.37707807 0.00000000
    endloop
  endfacet
  facet normal -0.00000000 0.00000000 1.00000000
    outer loop
      vertex 17.31833568 1.22028336 0.00000000
      vertex 17.49297105 1.05533173 0.00000000
      vertex 17.64208515 1.22528539 0.00000000
    endloop
  endfacet
  facet normal 0.00000000 0.00000000 1.00000000
    outer loop
      vertex 17.45590436 1.37707807 0.00000000
      vertex 17.77973204 1.40717214 0.00000000
      vertex 17.58319408 1.54527884 0.00000000
    endloop
  endfacet
  facet normal -0.00000000 0.00000000 1.00000000
    outer loop
      vertex 17.45590436 1.37707807 0.00000000
      vertex 17.64208515 1.22528539 0.00000000
      vertex 17.77973204 1.40717214 0.00000000
    endloop
  endfacet
  facet normal 0.00000000 0.00000000 1.00000000
    outer loop
      vertex 17.58319408 1.54527884 0.00000000
      vertex 17.90587375 1.60086677 0.00000000
      vertex 17.70024280 1.72501089 0.00000000
    endloop
  endfacet
  facet normal -0.00000000 0.00000000 1.00000000
    outer loop
      vertex 17.58319408 1.54527884 0.00000000
      vertex 17.77973204 1.40717214 0.00000000
      vertex 17.90587375 1.60086677 0.00000000
    endloop
  endfacet
  facet normal 0.00000000 0.00000000 1.00000000
    outer loop
      vertex 17.70024280 1.72501089 0.00000000
      vertex 18.02050232 1.80624896 0.00000000
      vertex 17.80705847 1.91639457 0.00000000
    endloop
  endfacet
  facet normal -0.00000000 0.00000000 1.00000000
    outer loop
      vertex 17.70024280 1.72501089 0.00000000
      vertex 17.90587375 1.60086677 0.00000000
      vertex 18.02050232 1.80624896 0.00000000
    endloop
  endfacet
  facet normal 0.00000000 0.00000000 1.00000000
    outer loop
      vertex 17.80705847 1.91639457 0.00000000
      vertex 18.12363592 2.02321122 0.00000000
      vertex 17.90362294 2.11953733 0.00000000
    endloop
  endfacet
  facet normal -0.00000000 0.00000000 1.00000000
    outer loop
      vertex 17.80705847 1.91639457 0.00000000
      vertex 18.02050232 1.80624896 0.00000000
      vertex 18.12363592 2.02321122 0.00000000
    endloop
  endfacet
  facet normal 0.00000000 0.00000000 1.00000000
    outer loop
      vertex 17.90362294 2.11953733 0.00000000
      vertex 18.21531288 2.25166405 0.00000000
      vertex 17.98989788 2.33452869 0.00000000
    endloop
  endfacet
  facet normal -0.00000000 0.00000000 1.00000000
    outer loop
      vertex 17.90362294 2.11953733 0.00000000
      vertex 18.12363592 2.02321122 0.00000000
      vertex 18.21531288 2.25166405 0.00000000
    endloop
  endfacet
  facet normal 0.00000000 0.00000000 1.00000000
    outer loop
      vertex 17.98989788 2.33452869 0.00000000
      vertex 18.29558505 2.49153821 0.00000000
      vertex 18.06583143 2.56143790 0.00000000
    endloop
  endfacet
  facet normal -0.00000000 0.00000000 1.00000000
    outer loop
      vertex 17.98989788 2.33452869 0.00000000
      vertex 18.21531288 2.25166405 0.00000000
      vertex 18.29558505 2.49153821 0.00000000
    endloop
  endfacet
  facet normal 0.00000000 0.00000000 1.00000000
    outer loop
      vertex 18.06583143 2.56143790 0.00000000
      vertex 18.36451160 2.74278445 0.00000000
      vertex 18.13136442 2.80031419 0.00000000
    endloop
  endfacet
  facet normal -0.00000000 0.00000000 1.00000000
    outer loop
      vertex 18.06583143 2.56143790 0.00000000
      vertex 18.29558505 2.49153821 0.00000000
      vertex 18.36451160 2.74278445 0.00000000
    endloop
  endfacet
  facet normal 0.00000000 0.00000000 1.00000000
    outer loop
      vertex 18.13136442 2.80031419 0.00000000
      vertex 18.42215385 3.00537167 0.00000000
      vertex 18.18643553 3.05118867 0.00000000
    endloop
  endfacet
  facet normal -0.00000000 0.00000000 1.00000000
    outer loop
      vertex 18.13136442 2.80031419 0.00000000
      vertex 18.36451160 2.74278445 0.00000000
      vertex 18.42215385 3.00537167 0.00000000
    endloop
  endfacet
  facet normal 0.00000000 0.00000000 1.00000000
    outer loop
      vertex 18.18643553 3.05118867 0.00000000
      vertex 18.46857150 3.27928400 0.00000000
      vertex 18.23098507 3.31407720 0.00000000
    endloop
  endfacet
  facet normal -0.00000000 0.00000000 1.00000000
    outer loop
      vertex 18.18643553 3.05118867 0.00000000
      vertex 18.42215385 3.00537167 0.00000000
      vertex 18.46857150 3.27928400 0.00000000
    endloop
  endfacet
  facet normal 0.00000000 0.00000000 1.00000000
    outer loop
      vertex 18.23098507 3.31407720 0.00000000
      vertex 18.50351264 3.56202953 0.00000000
      vertex 18.26526494 3.59147171 0.00000000
    endloop
  endfacet
  facet normal -0.00000000 0.00000000 1.00000000
    outer loop
      vertex 18.23098507 3.31407720 0.00000000
      vertex 18.46857150 3.27928400 0.00000000
      vertex 18.50351264 3.56202953 0.00000000
    endloop
  endfacet
endsolid lane_yellow_line_42
