solid lane_yellow_line_43
  facet normal 0.00000000 0.00000000 1.00000000
    outer loop
      vertex 3.50093751 -3.08181097 0.00000000
      vertex 3.02039092 -2.72788986 0.00000000
      vertex 2.96165382 -2.96073854 0.00000000
    endloop
  endfacet
  facet normal 0.00000000 -0.00000000 1.00000000
    outer loop
      vertex 3.50093751 -3.08181097 0.00000000
      vertex 3.55352348 -2.84758133 0.00000000
      vertex 3.02039092 -2.72788986 0.00000000
    endloop
  endfacet
  facet normal 0.00000000 0.00000000 1.00000000
    outer loop
      vertex 2.96165382 -2.96073854 0.00000000
      vertex 2.50789182 -2.58419904 0.00000000
      vertex 2.43678246 -2.81357888 0.00000000
    endloop
  endfacet
  facet normal 0.00000000 -0.00000000 1.00000000
    outer loop
      vertex 2.96165382 -2.96073854 0.00000000
      vertex 3.02039092 -2.72788986 0.00000000
      vertex 2.50789182 -2.58419904 0.00000000
    endloop
  endfacet
  facet normal 0.00000000 0.00000000 1.00000000
    outer loop
      vertex 2.43678246 -2.81357888 0.00000000
      vertex 2.01302719 -2.41587264 0.00000000
      vertex 1.92932243 -2.64096819 0.00000000
    endloop
  endfacet
  facet normal 0.00000000 -0.00000000 1.00000000
    outer loop
      vertex 2.43678246 -2.81357888 0.00000000
      vertex 2.50789182 -2.58419904 0.00000000
      vertex 2.01302719 -2.41587264 0.00000000
    endloop
  endfacet
  facet normal 0.00000000 0.00000000 1.00000000
    outer loop
      vertex 1.92932243 -2.64096819 0.00000000
      vertex 1.53573748 -2.22292768 0.00000000
      vertex 1.43933329 -2.44288947 0.00000000
    endloop
  endfacet
  facet normal 0.00000000 -0.00000000 1.00000000
    outer loop
      vertex 1.92932243 -2.64096819 0.00000000
      vertex 2.01302719 -2.41587264 0.00000000
      vertex 1.53573748 -2.22292768 0.00000000
    endloop
  endfacet
  facet normal 0.00000000 0.00000000 1.00000000
    outer loop
      vertex 1.43933329 -2.44288947 0.00000000
      vertex 1.07595598 -2.00537012 0.00000000
      vertex 0.96688173 -2.21933675 0.00000000
    endloop
  endfacet
  facet normal 0.00000000 -0.00000000 1.00000000
    outer loop
      vertex 1.43933329 -2.44288947 0.00000000
      vertex 1.53573748 -2.22292768 0.00000000
      vertex 1.07595598 -2.00537012 0.00000000
    endloop
  endfacet
  facet normal 0.00000000 0.00000000 1.00000000
    outer loop
      vertex 0.96688173 -2.21933675 0.00000000
      vertex 0.63361157 -1.76319304 0.00000000
      vertex 0.51203888 -1.97031696 0.00000000
    endloop
  endfacet
  facet normal 0.00000000 -0.00000000 1.00000000
    outer loop
      vertex 0.96688173 -2.21933675 0.00000000
      vertex 1.07595598 -2.00537012 0.00000000
      vertex 0.63361157 -1.76319304 0.00000000
    endloop
  endfacet
  facet normal 0.00000000 0.00000000 1.00000000
    outer loop
      vertex 0.51203888 -1.97031696 0.00000000
      vertex 0.20863228 -1.49637574 0.00000000
      vertex 0.07487671 -1.69585079 0.00000000
    endloop
  endfacet
  facet normal 0.00000000 -0.00000000 1.00000000
    outer loop
      vertex 0.51203888 -1.97031696 0.00000000
      vertex 0.63361157 -1.76319304 0.00000000
      vertex 0.20863228 -1.49637574 0.00000000
    endloop
  endfacet
  facet normal 0.00000000 0.00000000 1.00000000
    outer loop
      vertex 0.07487671 -1.69585079 0.00000000
      vertex -0.19905084 -1.20488395 0.00000000
      vertex -0.34453584 -1.39597252 0.00000000
    endloop
  endfacet
  facet normal 0.00000000 -0.00000000 1.00000000
    outer loop
      vertex 0.07487671 -1.69585079 0.00000000
      vertex 0.20863228 -1.49637574 0.00000000
      vertex -0.19905084 -1.20488395 0.00000000
    endloop
  endfacet
  facet normal 0.00000000 0.00000000 1.00000000
    outer loop
      vertex -0.34453584 -1.39597252 0.00000000
      vertex -0.58949994 -0.88867131 0.00000000
      vertex -0.74613659 -1.07072850 0.00000000
    endloop
  endfacet
  facet normal 0.00000000 -0.00000000 1.00000000
    outer loop
      vertex -0.34453584 -1.39597252 0.00000000
      vertex -0.19905084 -1.20488395 0.00000000
      vertex -0.58949994 -0.88867131 0.00000000
    endloop
  endfacet
  facet normal 0.00000000 0.00000000 1.00000000
    outer loop
      vertex -0.74613659 -1.07072850 0.00000000
      vertex -0.96276713 -0.54768185 0.00000000
      vertex -1.12987347 -0.72017470 0.00000000
    endloop
  endfacet
  facet normal 0.00000000 -0.00000000 1.00000000
    outer loop
      vertex -0.74613659 -1.07072850 0.00000000
      vertex -0.58949994 -0.88867131 0.00000000
      vertex -0.96276713 -0.54768185 0.00000000
    endloop
  endfacet
  facet normal 0.00000000 0.00000000 1.00000000
    outer loop
      vertex -1.12987347 -0.72017470 0.00000000
      vertex -1.31889213 -0.18185332 0.00000000
      vertex -1.49570674 -0.34437338 0.00000000
    endloop
  endfacet
  facet normal 0.00000000 -0.00000000 1.00000000
    outer loop
      vertex -1.12987347 -0.72017470 0.00000000
      vertex -0.96276713 -0.54768185 0.00000000
      vertex -1.31889213 -0.18185332 0.00000000
    endloop
  endfacet
  facet normal 0.00000000 0.00000000 1.00000000
    outer loop
      vertex -1.49570674 -0.34437338 0.00000000
      vertex -1.65790118 0.20887920 0.00000000
      vertex -1.84361016 0.05661055 0.00000000
    endloop
  endfacet
  facet normal 0.00000000 -0.00000000 1.00000000
    outer loop
      vertex -1.49570674 -0.34437338 0.00000000
      vertex -1.31889213 -0.18185332 0.00000000
      vertex -1.65790118 0.20887920 0.00000000
    endloop
  endfacet
  facet normal 0.00000000 0.00000000 1.00000000
    outer loop
      vertex -1.84361016 0.05661055 0.00000000
      vertex -1.97980706 0.62457977 0.00000000
      vertex -2.17357095 0.48271303 0.00000000
    endloop
  endfacet
  facet normal 0.00000000 -0.00000000 1.00000000
    outer loop
      vertex -1.84361016 0.05661055 0.00000000
      vertex -1.65790118 0.20887920 0.00000000
      vertex -1.97980706 0.62457977 0.00000000
    endloop
  endfacet
  facet normal 0.00000000 0.00000000 1.00000000
    outer loop
      vertex -2.17357095 0.48271303 0.00000000
      vertex -2.28461014 1.06530855 0.00000000
      vertex -2.48558874 0.93387388 0.00000000
    endloop
  endfacet
  facet normal 0.00000000 -0.00000000 1.00000000
    outer loop
      vertex -2.17357095 0.48271303 0.00000000
      vertex -1.97980706 0.62457977 0.00000000
      vertex -2.28461014 1.06530855 0.00000000
    endloop
  endfacet
  facet normal 0.00000000 0.00000000 1.00000000
    outer loop
      vertex -2.48558874 0.93387388 0.00000000
      vertex -2.57230022 1.53111954 0.00000000
      vertex -2.77967373 1.41003913 0.00000000
    endloop
  endfacet
  facet normal 0.00000000 -0.00000000 1.00000000
    outer loop
      vertex -2.48558874 0.93387388 0.00000000
      vertex -2.28461014 1.06530855 0.00000000
      vertex -2.57230022 1.53111954 0.00000000
    endloop
  endfacet
  facet normal 0.00000000 0.00000000 1.00000000
    outer loop
      vertex -2.77967373 1.41003913 0.00000000
      vertex -2.84285870 2.02205906 0.00000000
      vertex -3.05584453 1.91116244 0.00000000
    endloop
  endfacet
  facet normal 0.00000000 -0.00000000 1.00000000
    outer loop
      vertex -2.77967373 1.41003913 0.00000000
      vertex -2.57230022 1.53111954 0.00000000
      vertex -2.84285870 2.02205906 0.00000000
    endloop
  endfacet
  facet normal 0.00000000 0.00000000 1.00000000
    outer loop
      vertex -3.05584453 1.91116244 0.00000000
      vertex -3.09626090 2.53816515 0.00000000
      vertex -3.31412581 2.43720578 0.00000000
    endloop
  endfacet
  facet normal 0.00000000 -0.00000000 1.00000000
    outer loop
      vertex -3.05584453 1.91116244 0.00000000
      vertex -2.84285870 2.02205906 0.00000000
      vertex -3.09626090 2.53816515 0.00000000
    endloop
  endfacet
  facet normal 0.00000000 0.00000000 1.00000000
    outer loop
      vertex -3.31412581 2.43720578 0.00000000
      vertex -3.33350091 3.08181097 0.00000000
      vertex -3.55352348 2.98579597 0.00000000
    endloop
  endfacet
  facet normal 0.00000000 -0.00000000 1.00000000
    outer loop
      vertex -3.31412581 2.43720578 0.00000000
      vertex -3.09626090 2.53816515 0.00000000
      vertex -3.33350091 3.08181097 0.00000000
    endloop
  endfacet
endsolid lane_yellow_line_43
