solid lane_yellow_line_11
  facet normal 0.00000000 0.00000000 1.00000000
    outer loop
      vertex 0.16795487 0.50620905 0.00000000
      vertex -0.07639306 0.47072704 0.00000000
      vertex 0.16265174 0.44867273 0.00000000
    endloop
  endfacet
  facet normal 0.00000000 0.00000000 1.00000000
    outer loop
      vertex 0.16795487 0.50620905 0.00000000
      vertex -0.07109190 0.52824202 0.00000000
      vertex -0.07639306 0.47072704 0.00000000
    endloop
  endfacet
  facet normal 0.00000000 0.00000000 1.00000000
    outer loop
      vertex 0.16265174 0.44867273 0.00000000
      vertex -0.08170277 0.41323172 0.00000000
      vertex 0.15733809 0.39113471 0.00000000
    endloop
  endfacet
  facet normal 0.00000000 0.00000000 1.00000000
    outer loop
      vertex 0.16265174 0.44867273 0.00000000
      vertex -0.07639306 0.47072704 0.00000000
      vertex -0.08170277 0.41323172 0.00000000
    endloop
  endfacet
  facet normal 0.00000000 0.00000000 1.00000000
    outer loop
      vertex 0.15733809 0.39113471 0.00000000
      vertex -0.08702200 0.35574538 0.00000000
      vertex 0.15201491 0.33360566 0.00000000
    endloop
  endfacet
  facet normal 0.00000000 0.00000000 1.00000000
    outer loop
      vertex 0.15733809 0.39113471 0.00000000
      vertex -0.08170277 0.41323172 0.00000000
      vertex -0.08702200 0.35574538 0.00000000
    endloop
  endfacet
  facet normal 0.00000000 0.00000000 1.00000000
    outer loop
      vertex 0.15201491 0.33360566 0.00000000
      vertex -0.09235076 0.29826804 0.00000000
      vertex 0.14668218 0.27608560 0.00000000
    endloop
  endfacet
  facet normal 0.00000000 0.00000000 1.00000000
    outer loop
      vertex 0.15201491 0.33360566 0.00000000
      vertex -0.08702200 0.35574538 0.00000000
      vertex -0.09235076 0.29826804 0.00000000
    endloop
  endfacet
  facet normal 0.00000000 0.00000000 1.00000000
    outer loop
      vertex 0.14668218 0.27608560 0.00000000
      vertex -0.09768905 0.24079968 0.00000000
      vertex 0.14133992 0.21857451 0.00000000
    endloop
  endfacet
  facet normal 0.00000000 0.00000000 1.00000000
    outer loop
      vertex 0.14668218 0.27608560 0.00000000
      vertex -0.09235076 0.29826804 0.00000000
      vertex -0.09768905 0.24079968 0.00000000
    endloop
  endfacet
  facet normal 0.00000000 0.00000000 1.00000000
    outer loop
      vertex 0.14133992 0.21857451 0.00000000
      vertex -0.10303687 0.18334032 0.00000000
      vertex 0.13598813 0.16107239 0.00000000
    endloop
  endfacet
  facet normal 0.00000000 0.00000000 1.00000000
    outer loop
      vertex 0.14133992 0.21857451 0.00000000
      vertex -0.09768905 0.24079968 0.00000000
      vertex -0.10303687 0.18334032 0.00000000
    endloop
  endfacet
  facet normal 0.00000000 0.00000000 1.00000000
    outer loop
      vertex 0.13598813 0.16107239 0.00000000
      vertex -0.10839422 0.12588994 0.00000000
      vertex 0.13062680 0.10357926 0.00000000
    endloop
  endfacet
  facet normal 0.00000000 0.00000000 1.00000000
    outer loop
      vertex 0.13598813 0.16107239 0.00000000
      vertex -0.10303687 0.18334032 0.00000000
      vertex -0.10839422 0.12588994 0.00000000
    endloop
  endfacet
  facet normal 0.00000000 0.00000000 1.00000000
    outer loop
      vertex 0.13062680 0.10357926 0.00000000
      vertex -0.11376109 0.06844855 0.00000000
      vertex 0.12525593 0.04609510 0.00000000
    endloop
  endfacet
  facet normal 0.00000000 0.00000000 1.00000000
    outer loop
      vertex 0.13062680 0.10357926 0.00000000
      vertex -0.10839422 0.12588994 0.00000000
      vertex -0.11376109 0.06844855 0.00000000
    endloop
  endfacet
  facet normal 0.00000000 0.00000000 1.00000000
    outer loop
      vertex 0.12525593 0.04609510 0.00000000
      vertex -0.11913749 0.01101615 0.00000000
      vertex 0.11987552 -0.01138008 0.00000000
    endloop
  endfacet
  facet normal 0.00000000 0.00000000 1.00000000
    outer loop
      vertex 0.12525593 0.04609510 0.00000000
      vertex -0.11376109 0.06844855 0.00000000
      vertex -0.11913749 0.01101615 0.00000000
    endloop
  endfacet
  facet normal 0.00000000 0.00000000 1.00000000
    outer loop
      vertex 0.11987552 -0.01138008 0.00000000
      vertex -0.12452342 -0.04640727 0.00000000
      vertex 0.11448558 -0.06884628 0.00000000
    endloop
  endfacet
  facet normal 0.00000000 0.00000000 1.00000000
    outer loop
      vertex 0.11987552 -0.01138008 0.00000000
      vertex -0.11913749 0.01101615 0.00000000
      vertex -0.12452342 -0.04640727 0.00000000
    endloop
  endfacet
  facet normal 0.00000000 0.00000000 1.00000000
    outer loop
      vertex 0.11448558 -0.06884628 0.00000000
      vertex -0.12991887 -0.10382169 0.00000000
      vertex 0.10908610 -0.12630351 0.00000000
    endloop
  endfacet
  facet normal 0.00000000 0.00000000 1.00000000
    outer loop
      vertex 0.11448558 -0.06884628 0.00000000
      vertex -0.12452342 -0.04640727 0.00000000
      vertex -0.12991887 -0.10382169 0.00000000
    endloop
  endfacet
  facet normal 0.00000000 0.00000000 1.00000000
    outer loop
      vertex 0.10908610 -0.12630351 0.00000000
      vertex -0.13532386 -0.16122713 0.00000000
      vertex 0.10367709 -0.18375176 0.00000000
    endloop
  endfacet
  facet normal 0.00000000 0.00000000 1.00000000
    outer loop
      vertex 0.10908610 -0.12630351 0.00000000
      vertex -0.12991887 -0.10382169 0.00000000
      vertex -0.13532386 -0.16122713 0.00000000
    endloop
  endfacet
  facet normal 0.00000000 0.00000000 1.00000000
    outer loop
      vertex 0.10367709 -0.18375176 0.00000000
      vertex -0.14073837 -0.21862358 0.00000000
      vertex 0.09825854 -0.24119103 0.00000000
    endloop
  endfacet
  facet normal 0.00000000 0.00000000 1.00000000
    outer loop
      vertex 0.10367709 -0.18375176 0.00000000
      vertex -0.13532386 -0.16122713 0.00000000
      vertex -0.14073837 -0.21862358 0.00000000
    endloop
  endfacet
  facet normal 0.00000000 0.00000000 1.00000000
    outer loop
      vertex 0.09825854 -0.24119103 0.00000000
      vertex -0.14616241 -0.27601104 0.00000000
      vertex 0.09283045 -0.29862133 0.00000000
    endloop
  endfacet
  facet normal 0.00000000 0.00000000 1.00000000
    outer loop
      vertex 0.09825854 -0.24119103 0.00000000
      vertex -0.14073837 -0.21862358 0.00000000
      vertex -0.14616241 -0.27601104 0.00000000
    endloop
  endfacet
  facet normal 0.00000000 0.00000000 1.00000000
    outer loop
      vertex 0.09283045 -0.29862133 0.00000000
      vertex -0.15159598 -0.33338951 0.00000000
      vertex 0.08739282 -0.35604265 0.00000000
    endloop
  endfacet
  facet normal 0.00000000 0.00000000 1.00000000
    outer loop
      vertex 0.09283045 -0.29862133 0.00000000
      vertex -0.14616241 -0.27601104 0.00000000
      vertex -0.15159598 -0.33338951 0.00000000
    endloop
  endfacet
  facet normal 0.00000000 0.00000000 1.00000000
    outer loop
      vertex 0.08739282 -0.35604265 0.00000000
      vertex -0.15703907 -0.39075900 0.00000000
      vertex 0.08194566 -0.41345499 0.00000000
    endloop
  endfacet
  facet normal 0.00000000 0.00000000 1.00000000
    outer loop
      vertex 0.08739282 -0.35604265 0.00000000
      vertex -0.15159598 -0.33338951 0.00000000
      vertex -0.15703907 -0.39075900 0.00000000
    endloop
  endfacet
  facet normal 0.00000000 0.00000000 1.00000000
    outer loop
      vertex 0.08194566 -0.41345499 0.00000000
      vertex -0.16249170 -0.44811949 0.00000000
      vertex 0.07648896 -0.47085835 0.00000000
    endloop
  endfacet
  facet normal 0.00000000 0.00000000 1.00000000
    outer loop
      vertex 0.08194566 -0.41345499 0.00000000
      vertex -0.15703907 -0.39075900 0.00000000
      vertex -0.16249170 -0.44811949 0.00000000
    endloop
  endfacet
  facet normal 0.00000000 0.00000000 1.00000000
    outer loop
      vertex 0.07648896 -0.47085835 0.00000000
      vertex -0.16795487 -0.50548172 0.00000000
      vertex 0.07102375 -0.52824202 0.00000000
    endloop
  endfacet
  facet normal 0.00000000 0.00000000 1.00000000
    outer loop
      vertex 0.07648896 -0.47085835 0.00000000
      vertex -0.16249170 -0.44811949 0.00000000
      vertex -0.16795487 -0.50548172 0.00000000
    endloop
  endfacet
endsolid lane_yellow_line_11
