solid lane_yellow_line_08
  facet normal 0.00000000 0.00000000 1.00000000
    outer loop
      vertex 0.66726880 -0.01523345 0.00000000
      vertex 0.55745578 0.21035865 0.00000000
      vertex 0.59522618 -0.02671140 0.00000000
    endloop
  endfacet
  facet normal 0.00000000 0.00000000 1.00000000
    outer loop
      vertex 0.66726880 -0.01523345 0.00000000
      vertex 0.62949840 0.22183660 0.00000000
      vertex 0.55745578 0.21035865 0.00000000
    endloop
  endfacet
  facet normal 0.00000000 0.00000000 1.00000000
    outer loop
      vertex 0.59522618 -0.02671140 0.00000000
      vertex 0.48541315 0.19888070 0.00000000
      vertex 0.52318356 -0.03818935 0.00000000
    endloop
  endfacet
  facet normal 0.00000000 0.00000000 1.00000000
    outer loop
      vertex 0.59522618 -0.02671140 0.00000000
      vertex 0.55745578 0.21035865 0.00000000
      vertex 0.48541315 0.19888070 0.00000000
    endloop
  endfacet
  facet normal 0.00000000 0.00000000 1.00000000
    outer loop
      vertex 0.52318356 -0.03818935 0.00000000
      vertex 0.41337053 0.18740274 0.00000000
      vertex 0.45114094 -0.04966730 0.00000000
    endloop
  endfacet
  facet normal 0.00000000 0.00000000 1.00000000
    outer loop
      vertex 0.52318356 -0.03818935 0.00000000
      vertex 0.48541315 0.19888070 0.00000000
      vertex 0.41337053 0.18740274 0.00000000
    endloop
  endfacet
  facet normal 0.00000000 0.00000000 1.00000000
    outer loop
      vertex 0.45114094 -0.04966730 0.00000000
      vertex 0.34132791 0.17592479 0.00000000
      vertex 0.37909831 -0.06114526 0.00000000
    endloop
  endfacet
  facet normal 0.00000000 0.00000000 1.00000000
    outer loop
      vertex 0.45114094 -0.04966730 0.00000000
      vertex 0.41337053 0.18740274 0.00000000
      vertex 0.34132791 0.17592479 0.00000000
    endloop
  endfacet
  facet normal 0.00000000 0.00000000 1.00000000
    outer loop
      vertex 0.37909831 -0.06114526 0.00000000
      vertex 0.26928529 0.16444684 0.00000000
      vertex 0.30705569 -0.07262321 0.00000000
    endloop
  endfacet
  facet normal 0.00000000 0.00000000 1.00000000
    outer loop
      vertex 0.37909831 -0.06114526 0.00000000
      vertex 0.34132791 0.17592479 0.00000000
      vertex 0.26928529 0.16444684 0.00000000
    endloop
  endfacet
  facet normal 0.00000000 0.00000000 1.00000000
    outer loop
      vertex 0.30705569 -0.07262321 0.00000000
      vertex 0.19724267 0.15296888 0.00000000
      vertex 0.23501307 -0.08410116 0.00000000
    endloop
  endfacet
  facet normal 0.00000000 0.00000000 1.00000000
    outer loop
      vertex 0.30705569 -0.07262321 0.00000000
      vertex 0.26928529 0.16444684 0.00000000
      vertex 0.19724267 0.15296888 0.00000000
    endloop
  endfacet
  facet normal 0.00000000 0.00000000 1.00000000
    outer loop
      vertex 0.23501307 -0.08410116 0.00000000
      vertex 0.12520004 0.14149093 0.00000000
      vertex 0.16297045 -0.09557912 0.00000000
    endloop
  endfacet
  facet normal 0.00000000 0.00000000 1.00000000
    outer loop
      vertex 0.23501307 -0.08410116 0.00000000
      vertex 0.19724267 0.15296888 0.00000000
      vertex 0.12520004 0.14149093 0.00000000
    endloop
  endfacet
  facet normal 0.00000000 0.00000000 1.00000000
    outer loop
      vertex 0.16297045 -0.09557912 0.00000000
      vertex 0.05315742 0.13001298 0.00000000
      vertex 0.09092782 -0.10705707 0.00000000
    endloop
  endfacet
  facet normal 0.00000000 0.00000000 1.00000000
    outer loop
      vertex 0.16297045 -0.09557912 0.00000000
      vertex 0.12520004 0.14149093 0.00000000
      vertex 0.05315742 0.13001298 0.00000000
    endloop
  endfacet
  facet normal 0.00000000 0.00000000 1.00000000
    outer loop
      vertex 0.09092782 -0.10705707 0.00000000
      vertex -0.01888520 0.11853502 0.00000000
      vertex 0.01888520 -0.11853502 0.00000000
    endloop
  endfacet
  facet normal 0.00000000 0.00000000 1.00000000
    outer loop
      vertex 0.09092782 -0.10705707 0.00000000
      vertex 0.05315742 0.13001298 0.00000000
      vertex -0.01888520 0.11853502 0.00000000
    endloop
  endfacet
  facet normal 0.00000000 0.00000000 1.00000000
    outer loop
      vertex 0.01888520 -0.11853502 0.00000000
      vertex -0.09092782 0.10705707 0.00000000
      vertex -0.05315742 -0.13001298 0.00000000
    endloop
  endfacet
  facet normal 0.00000000 0.00000000 1.00000000
    outer loop
      vertex 0.01888520 -0.11853502 0.00000000
      vertex -0.01888520 0.11853502 0.00000000
      vertex -0.09092782 0.10705707 0.00000000
    endloop
  endfacet
  facet normal 0.00000000 0.00000000 1.00000000
    outer loop
      vertex -0.05315742 -0.13001298 0.00000000
      vertex -0.16297045 0.09557912 0.00000000
      vertex -0.12520004 -0.14149093 0.00000000
    endloop
  endfacet
  facet normal 0.00000000 0.00000000 1.00000000
    outer loop
      vertex -0.05315742 -0.13001298 0.00000000
      vertex -0.09092782 0.10705707 0.00000000
      vertex -0.16297045 0.09557912 0.00000000
    endloop
  endfacet
  facet normal 0.00000000 0.00000000 1.00000000
    outer loop
      vertex -0.12520004 -0.14149093 0.00000000
      vertex -0.23501307 0.08410116 0.00000000
      vertex -0.19724267 -0.15296888 0.00000000
    endloop
  endfacet
  facet normal 0.00000000 0.00000000 1.00000000
    outer loop
      vertex -0.12520004 -0.14149093 0.00000000
      vertex -0.16297045 0.09557912 0.00000000
      vertex -0.23501307 0.08410116 0.00000000
    endloop
  endfacet
  facet normal 0.00000000 0.00000000 1.00000000
    outer loop
      vertex -0.19724267 -0.15296888 0.00000000
      vertex -0.30705569 0.07262321 0.00000000
      vertex -0.26928529 -0.16444684 0.00000000
    endloop
  endfacet
  facet normal 0.00000000 0.00000000 1.00000000
    outer loop
      vertex -0.19724267 -0.15296888 0.00000000
      vertex -0.23501307 0.08410116 0.00000000
      vertex -0.30705569 0.07262321 0.00000000
    endloop
  endfacet
  facet normal 0.00000000 0.00000000 1.00000000
    outer loop
      vertex -0.26928529 -0.16444684 0.00000000
      vertex -0.37909831 0.06114526 0.00000000
      vertex -0.34132791 -0.17592479 0.00000000
    endloop
  endfacet
  facet normal 0.00000000 0.00000000 1.00000000
    outer loop
      vertex -0.26928529 -0.16444684 0.00000000
      vertex -0.30705569 0.07262321 0.00000000
      vertex -0.37909831 0.06114526 0.00000000
    endloop
  endfacet
  facet normal 0.00000000 0.00000000 1.00000000
    outer loop
      vertex -0.34132791 -0.17592479 0.00000000
      vertex -0.45114094 0.04966730 0.00000000
      vertex -0.41337053 -0.18740274 0.00000000
    endloop
  endfacet
  facet normal 0.00000000 0.00000000 1.00000000
    outer loop
      vertex -0.34132791 -0.17592479 0.00000000
      vertex -0.37909831 0.06114526 0.00000000
      vertex -0.45114094 0.04966730 0.00000000
    endloop
  endfacet
  facet normal 0.00000000 0.00000000 1.00000000
    outer loop
      vertex -0.41337053 -0.18740274 0.00000000
      vertex -0.52318356 0.03818935 0.00000000
      vertex -0.48541315 -0.19888070 0.00000000
    endloop
  endfacet
  facet normal 0.00000000 0.00000000 1.00000000
    outer loop
      vertex -0.41337053 -0.18740274 0.00000000
      vertex -0.45114094 0.04966730 0.00000000
      vertex -0.52318356 0.03818935 0.00000000
    endloop
  endfacet
  facet normal 0.00000000 0.00000000 1.00000000
    outer loop
      vertex -0.48541315 -0.19888070 0.00000000
      vertex -0.59522618 0.02671140 0.00000000
      vertex -0.55745578 -0.21035865 0.00000000
    endloop
  endfacet
  facet normal 0.00000000 0.00000000 1.00000000
    outer loop
      vertex -0.48541315 -0.19888070 0.00000000
      vertex -0.52318356 0.03818935 0.00000000
      vertex -0.59522618 0.02671140 0.00000000
    endloop
  endfacet
  facet normal 0.00000000 0.00000000 1.00000000
    outer loop
      vertex -0.55745578 -0.21035865 0.00000000
      vertex -0.66726880 0.01523345 0.00000000
      vertex -0.62949840 -0.22183660 0.00000000
    endloop
  endfacet
  facet normal 0.00000000 0.00000000 1.00000000
    outer loop
      vertex -0.55745578 -0.21035865 0.00000000
      vertex -0.59522618 0.02671140 0.00000000
      vertex -0.66726880 0.01523345 0.00000000
    endloop
  endfacet
endsolid lane_yellow_line_08
