solid lane_yellow_line_18
  facet normal -0.00000000 0.00000000 1.00000000
    outer loop
      vertex -4.52489090 10.37630414 0.00000000
      vertex -3.70784604 10.14518163 0.00000000
      vertex -3.70448034 10.38529293 0.00000000
    endloop
  endfacet
  facet normal 0.00000000 0.00000000 1.00000000
    outer loop
      vertex -4.52489090 10.37630414 0.00000000
      vertex -4.52226085 10.13625853 0.00000000
      vertex -3.70784604 10.14518163 0.00000000
    endloop
  endfacet
  facet normal 0.00000000 0.00000000 1.00000000
    outer loop
      vertex -3.70448034 10.38529293 0.00000000
      vertex -2.94137191 10.11528268 0.00000000
      vertex -2.92531806 10.35489903 0.00000000
    endloop
  endfacet
  facet normal 0.00000000 0.00000000 1.00000000
    outer loop
      vertex -3.70448034 10.38529293 0.00000000
      vertex -3.70784604 10.14518163 0.00000000
      vertex -2.94137191 10.11528268 0.00000000
    endloop
  endfacet
  facet normal 0.00000000 0.00000000 1.00000000
    outer loop
      vertex -2.92531806 10.35489903 0.00000000
      vertex -2.22021206 10.04670560 0.00000000
      vertex -2.19003048 10.28497851 0.00000000
    endloop
  endfacet
  facet normal 0.00000000 0.00000000 1.00000000
    outer loop
      vertex -2.92531806 10.35489903 0.00000000
      vertex -2.94137191 10.11528268 0.00000000
      vertex -2.22021206 10.04670560 0.00000000
    endloop
  endfacet
  facet normal 0.00000000 0.00000000 1.00000000
    outer loop
      vertex -2.19003048 10.28497851 0.00000000
      vertex -1.54440806 9.93959470 0.00000000
      vertex -1.49857599 10.17538710 0.00000000
    endloop
  endfacet
  facet normal 0.00000000 0.00000000 1.00000000
    outer loop
      vertex -2.19003048 10.28497851 0.00000000
      vertex -2.22021206 10.04670560 0.00000000
      vertex -1.54440806 9.93959470 0.00000000
    endloop
  endfacet
  facet normal 0.00000000 0.00000000 1.00000000
    outer loop
      vertex -1.49857599 10.17538710 0.00000000
      vertex -0.91396848 9.79412445 0.00000000
      vertex -0.85094605 10.02595028 0.00000000
    endloop
  endfacet
  facet normal 0.00000000 0.00000000 1.00000000
    outer loop
      vertex -1.49857599 10.17538710 0.00000000
      vertex -1.54440806 9.93959470 0.00000000
      vertex -0.91396848 9.79412445 0.00000000
    endloop
  endfacet
  facet normal 0.00000000 0.00000000 1.00000000
    outer loop
      vertex -0.85094605 10.02595028 0.00000000
      vertex -0.32884790 9.61049340 0.00000000
      vertex -0.24718607 9.83646954 0.00000000
    endloop
  endfacet
  facet normal 0.00000000 0.00000000 1.00000000
    outer loop
      vertex -0.85094605 10.02595028 0.00000000
      vertex -0.91396848 9.79412445 0.00000000
      vertex -0.32884790 9.61049340 0.00000000
    endloop
  endfacet
  facet normal 0.00000000 0.00000000 1.00000000
    outer loop
      vertex -0.24718607 9.83646954 0.00000000
      vertex 0.21107649 9.38890690 0.00000000
      vertex 0.31258112 9.60673950 0.00000000
    endloop
  endfacet
  facet normal 0.00000000 0.00000000 1.00000000
    outer loop
      vertex -0.24718607 9.83646954 0.00000000
      vertex -0.32884790 9.61049340 0.00000000
      vertex 0.21107649 9.38890690 0.00000000
    endloop
  endfacet
  facet normal 0.00000000 0.00000000 1.00000000
    outer loop
      vertex 0.31258112 9.60673950 0.00000000
      vertex 0.70602432 9.12954548 0.00000000
      vertex 0.82813592 9.33657966 0.00000000
    endloop
  endfacet
  facet normal 0.00000000 0.00000000 1.00000000
    outer loop
      vertex 0.31258112 9.60673950 0.00000000
      vertex 0.21107649 9.38890690 0.00000000
      vertex 0.70602432 9.12954548 0.00000000
    endloop
  endfacet
  facet normal 0.00000000 0.00000000 1.00000000
    outer loop
      vertex 0.82813592 9.33657966 0.00000000
      vertex 1.15631602 8.83251963 0.00000000
      vertex 1.29915788 9.02587950 0.00000000
    endloop
  endfacet
  facet normal 0.00000000 0.00000000 1.00000000
    outer loop
      vertex 0.82813592 9.33657966 0.00000000
      vertex 0.70602432 9.12954548 0.00000000
      vertex 1.15631602 8.83251963 0.00000000
    endloop
  endfacet
  facet normal 0.00000000 0.00000000 1.00000000
    outer loop
      vertex 1.29915788 9.02587950 0.00000000
      vertex 1.56234954 8.49782114 0.00000000
      vertex 1.72524905 8.67464725 0.00000000
    endloop
  endfacet
  facet normal 0.00000000 0.00000000 1.00000000
    outer loop
      vertex 1.29915788 9.02587950 0.00000000
      vertex 1.15631602 8.83251963 0.00000000
      vertex 1.56234954 8.49782114 0.00000000
    endloop
  endfacet
  facet normal 0.00000000 0.00000000 1.00000000
    outer loop
      vertex 1.72524905 8.67464725 0.00000000
      vertex 1.92454531 8.12529008 0.00000000
      vertex 2.10598902 8.28304283 0.00000000
    endloop
  endfacet
  facet normal 0.00000000 0.00000000 1.00000000
    outer loop
      vertex 1.72524905 8.67464725 0.00000000
      vertex 1.56234954 8.49782114 0.00000000
      vertex 1.92454531 8.12529008 0.00000000
    endloop
  endfacet
  facet normal 0.00000000 0.00000000 1.00000000
    outer loop
      vertex 2.10598902 8.28304283 0.00000000
      vertex 2.24327103 7.71461809 0.00000000
      vertex 2.44101007 7.85137461 0.00000000
    endloop
  endfacet
  facet normal 0.00000000 0.00000000 1.00000000
    outer loop
      vertex 2.10598902 8.28304283 0.00000000
      vertex 1.92454531 8.12529008 0.00000000
      vertex 2.24327103 7.71461809 0.00000000
    endloop
  endfacet
  facet normal 0.00000000 0.00000000 1.00000000
    outer loop
      vertex 2.44101007 7.85137461 0.00000000
      vertex 2.51877348 7.26539502 0.00000000
      vertex 2.73006543 7.38005272 0.00000000
    endloop
  endfacet
  facet normal 0.00000000 0.00000000 1.00000000
    outer loop
      vertex 2.44101007 7.85137461 0.00000000
      vertex 2.24327103 7.71461809 0.00000000
      vertex 2.51877348 7.26539502 0.00000000
    endloop
  endfacet
  facet normal 0.00000000 0.00000000 1.00000000
    outer loop
      vertex 2.73006543 7.38005272 0.00000000
      vertex 2.75114435 6.77718393 0.00000000
      vertex 2.97306340 6.86951412 0.00000000
    endloop
  endfacet
  facet normal 0.00000000 0.00000000 1.00000000
    outer loop
      vertex 2.73006543 7.38005272 0.00000000
      vertex 2.51877348 7.26539502 0.00000000
      vertex 2.75114435 6.77718393 0.00000000
    endloop
  endfacet
  facet normal 0.00000000 0.00000000 1.00000000
    outer loop
      vertex 2.97306340 6.86951412 0.00000000
      vertex 2.94032997 6.24959485 0.00000000
      vertex 3.17005766 6.32014879 0.00000000
    endloop
  endfacet
  facet normal 0.00000000 0.00000000 1.00000000
    outer loop
      vertex 2.97306340 6.86951412 0.00000000
      vertex 2.75114435 6.77718393 0.00000000
      vertex 2.94032997 6.24959485 0.00000000
    endloop
  endfacet
  facet normal 0.00000000 0.00000000 1.00000000
    outer loop
      vertex 3.17005766 6.32014879 0.00000000
      vertex 3.08617285 5.68233260 0.00000000
      vertex 3.32120569 5.73225188 0.00000000
    endloop
  endfacet
  facet normal 0.00000000 0.00000000 1.00000000
    outer loop
      vertex 3.17005766 6.32014879 0.00000000
      vertex 2.94032997 6.24959485 0.00000000
      vertex 3.08617285 5.68233260 0.00000000
    endloop
  endfacet
  facet normal 0.00000000 0.00000000 1.00000000
    outer loop
      vertex 3.32120569 5.73225188 0.00000000
      vertex 3.18846303 5.07521115 0.00000000
      vertex 3.42671746 5.10600943 0.00000000
    endloop
  endfacet
  facet normal 0.00000000 0.00000000 1.00000000
    outer loop
      vertex 3.32120569 5.73225188 0.00000000
      vertex 3.08617285 5.68233260 0.00000000
      vertex 3.18846303 5.07521115 0.00000000
    endloop
  endfacet
  facet normal 0.00000000 0.00000000 1.00000000
    outer loop
      vertex 3.42671746 5.10600943 0.00000000
      vertex 3.24724432 4.42523433 0.00000000
      vertex 3.48654916 4.44441762 0.00000000
    endloop
  endfacet
  facet normal 0.00000000 0.00000000 1.00000000
    outer loop
      vertex 3.42671746 5.10600943 0.00000000
      vertex 3.18846303 5.07521115 0.00000000
      vertex 3.24724432 4.42523433 0.00000000
    endloop
  endfacet
  facet normal 0.00000000 0.00000000 1.00000000
    outer loop
      vertex 3.48654916 4.44441762 0.00000000
      vertex 3.30468268 3.60358187 0.00000000
      vertex 3.54415808 3.62032531 0.00000000
    endloop
  endfacet
  facet normal 0.00000000 0.00000000 1.00000000
    outer loop
      vertex 3.48654916 4.44441762 0.00000000
      vertex 3.24724432 4.42523433 0.00000000
      vertex 3.30468268 3.60358187 0.00000000
    endloop
  endfacet
  facet normal 0.00000000 0.00000000 1.00000000
    outer loop
      vertex 3.54415808 3.62032531 0.00000000
      vertex 3.36222503 2.78070680 0.00000000
      vertex 3.60170006 2.79745561 0.00000000
    endloop
  endfacet
  facet normal 0.00000000 0.00000000 1.00000000
    outer loop
      vertex 3.54415808 3.62032531 0.00000000
      vertex 3.30468268 3.60358187 0.00000000
      vertex 3.36222503 2.78070680 0.00000000
    endloop
  endfacet
  facet normal 0.00000000 0.00000000 1.00000000
    outer loop
      vertex 3.60170006 2.79745561 0.00000000
      vertex 3.41978590 1.95783173 0.00000000
      vertex 3.65926056 1.97458590 0.00000000
    endloop
  endfacet
  facet normal 0.00000000 0.00000000 1.00000000
    outer loop
      vertex 3.60170006 2.79745561 0.00000000
      vertex 3.36222503 2.78070680 0.00000000
      vertex 3.41978590 1.95783173 0.00000000
    endloop
  endfacet
  facet normal 0.00000000 0.00000000 1.00000000
    outer loop
      vertex 3.65926056 1.97458590 0.00000000
      vertex 3.47736530 1.13495667 0.00000000
      vertex 3.71683958 1.15171620 0.00000000
    endloop
  endfacet
  facet normal 0.00000000 0.00000000 1.00000000
    outer loop
      vertex 3.65926056 1.97458590 0.00000000
      vertex 3.41978590 1.95783173 0.00000000
      vertex 3.47736530 1.13495667 0.00000000
    endloop
  endfacet
  facet normal 0.00000000 0.00000000 1.00000000
    outer loop
      vertex 3.71683958 1.15171620 0.00000000
      vertex 3.53496322 0.31208160 0.00000000
      vertex 3.77443712 0.32884650 0.00000000
    endloop
  endfacet
  facet normal 0.00000000 0.00000000 1.00000000
    outer loop
      vertex 3.71683958 1.15171620 0.00000000
      vertex 3.47736530 1.13495667 0.00000000
      vertex 3.53496322 0.31208160 0.00000000
    endloop
  endfacet
  facet normal 0.00000000 0.00000000 1.00000000
    outer loop
      vertex 3.77443712 0.32884650 0.00000000
      vertex 3.59257967 -0.51079347 0.00000000
      vertex 3.83205319 -0.49402321 0.00000000
    endloop
  endfacet
  facet normal 0.00000000 0.00000000 1.00000000
    outer loop
      vertex 3.77443712 0.32884650 0.00000000
      vertex 3.53496322 0.31208160 0.00000000
      vertex 3.59257967 -0.51079347 0.00000000
    endloop
  endfacet
  facet normal 0.00000000 0.00000000 1.00000000
    outer loop
      vertex 3.83205319 -0.49402321 0.00000000
      vertex 3.65021463 -1.33366853 0.00000000
      vertex 3.88968778 -1.31689291 0.00000000
    endloop
  endfacet
  facet normal 0.00000000 0.00000000 1.00000000
    outer loop
      vertex 3.83205319 -0.49402321 0.00000000
      vertex 3.59257967 -0.51079347 0.00000000
      vertex 3.65021463 -1.33366853 0.00000000
    endloop
  endfacet
  facet normal 0.00000000 0.00000000 1.00000000
    outer loop
      vertex 3.88968778 -1.31689291 0.00000000
      vertex 3.70786812 -2.15654360 0.00000000
      vertex 3.94734090 -2.13976261 0.00000000
    endloop
  endfacet
  facet normal 0.00000000 0.00000000 1.00000000
    outer loop
      vertex 3.88968778 -1.31689291 0.00000000
      vertex 3.65021463 -1.33366853 0.00000000
      vertex 3.70786812 -2.15654360 0.00000000
    endloop
  endfacet
  facet normal 0.00000000 0.00000000 1.00000000
    outer loop
      vertex 3.94734090 -2.13976261 0.00000000
      vertex 3.76554014 -2.97941867 0.00000000
      vertex 4.00501253 -2.96263231 0.00000000
    endloop
  endfacet
  facet normal 0.00000000 0.00000000 1.00000000
    outer loop
      vertex 3.94734090 -2.13976261 0.00000000
      vertex 3.70786812 -2.15654360 0.00000000
      vertex 3.76554014 -2.97941867 0.00000000
    endloop
  endfacet
  facet normal 0.00000000 0.00000000 1.00000000
    outer loop
      vertex 4.00501253 -2.96263231 0.00000000
      vertex 3.82323067 -3.80229374 0.00000000
      vertex 4.06270269 -3.78550202 0.00000000
    endloop
  endfacet
  facet normal 0.00000000 0.00000000 1.00000000
    outer loop
      vertex 4.00501253 -2.96263231 0.00000000
      vertex 3.76554014 -2.97941867 0.00000000
      vertex 3.82323067 -3.80229374 0.00000000
    endloop
  endfacet
  facet normal 0.00000000 0.00000000 1.00000000
    outer loop
      vertex 4.06270269 -3.78550202 0.00000000
      vertex 3.88093973 -4.62516880 0.00000000
      vertex 4.12041138 -4.60837172 0.00000000
    endloop
  endfacet
  facet normal 0.00000000 0.00000000 1.00000000
    outer loop
      vertex 4.06270269 -3.78550202 0.00000000
      vertex 3.82323067 -3.80229374 0.00000000
      vertex 3.88093973 -4.62516880 0.00000000
    endloop
  endfacet
  facet normal 0.00000000 0.00000000 1.00000000
    outer loop
      vertex 4.12041138 -4.60837172 0.00000000
      vertex 3.93866731 -5.44804387 0.00000000
      vertex 4.17813858 -5.43124142 0.00000000
    endloop
  endfacet
  facet normal 0.00000000 0.00000000 1.00000000
    outer loop
      vertex 4.12041138 -4.60837172 0.00000000
      vertex 3.88093973 -4.62516880 0.00000000
      vertex 3.93866731 -5.44804387 0.00000000
    endloop
  endfacet
  facet normal 0.00000000 0.00000000 1.00000000
    outer loop
      vertex 4.17813858 -5.43124142 0.00000000
      vertex 3.99641342 -6.27091894 0.00000000
      vertex 4.23588431 -6.25411112 0.00000000
    endloop
  endfacet
  facet normal 0.00000000 0.00000000 1.00000000
    outer loop
      vertex 4.17813858 -5.43124142 0.00000000
      vertex 3.93866731 -5.44804387 0.00000000
      vertex 3.99641342 -6.27091894 0.00000000
    endloop
  endfacet
  facet normal 0.00000000 0.00000000 1.00000000
    outer loop
      vertex 4.23588431 -6.25411112 0.00000000
      vertex 4.05417805 -7.09379400 0.00000000
      vertex 4.29364857 -7.07698083 0.00000000
    endloop
  endfacet
  facet normal 0.00000000 0.00000000 1.00000000
    outer loop
      vertex 4.23588431 -6.25411112 0.00000000
      vertex 3.99641342 -6.27091894 0.00000000
      vertex 4.05417805 -7.09379400 0.00000000
    endloop
  endfacet
  facet normal 0.00000000 0.00000000 1.00000000
    outer loop
      vertex 4.29364857 -7.07698083 0.00000000
      vertex 4.11196120 -7.91666907 0.00000000
      vertex 4.35143134 -7.89985053 0.00000000
    endloop
  endfacet
  facet normal 0.00000000 0.00000000 1.00000000
    outer loop
      vertex 4.29364857 -7.07698083 0.00000000
      vertex 4.05417805 -7.09379400 0.00000000
      vertex 4.11196120 -7.91666907 0.00000000
    endloop
  endfacet
  facet normal 0.00000000 0.00000000 1.00000000
    outer loop
      vertex 4.35143134 -7.89985053 0.00000000
      vertex 4.16976288 -8.73954414 0.00000000
      vertex 4.40923264 -8.72272023 0.00000000
    endloop
  endfacet
  facet normal 0.00000000 0.00000000 1.00000000
    outer loop
      vertex 4.35143134 -7.89985053 0.00000000
      vertex 4.11196120 -7.91666907 0.00000000
      vertex 4.16976288 -8.73954414 0.00000000
    endloop
  endfacet
  facet normal 0.00000000 0.00000000 1.00000000
    outer loop
      vertex 4.40923264 -8.72272023 0.00000000
      vertex 4.22758308 -9.56241920 0.00000000
      vertex 4.46705246 -9.54558993 0.00000000
    endloop
  endfacet
  facet normal 0.00000000 0.00000000 1.00000000
    outer loop
      vertex 4.40923264 -8.72272023 0.00000000
      vertex 4.16976288 -8.73954414 0.00000000
      vertex 4.22758308 -9.56241920 0.00000000
    endloop
  endfacet
  facet normal 0.00000000 0.00000000 1.00000000
    outer loop
      vertex 4.46705246 -9.54558993 0.00000000
      vertex 4.28542171 -10.38529293 0.00000000
      vertex 4.52489090 -10.36846098 0.00000000
    endloop
  endfacet
  facet normal 0.00000000 0.00000000 1.00000000
    outer loop
      vertex 4.46705246 -9.54558993 0.00000000
      vertex 4.22758308 -9.56241920 0.00000000
      vertex 4.28542171 -10.38529293 0.00000000
    endloop
  endfacet
endsolid lane_yellow_line_18
