solid lane_yellow_line_23
  facet normal -0.00000000 0.00000000 1.00000000
    outer loop
      vertex -12.51294020 10.92742558 0.00000000
      vertex -11.51621143 10.82368796 0.00000000
      vertex -11.54928262 11.06145909 0.00000000
    endloop
  endfacet
  facet normal 0.00000000 0.00000000 1.00000000
    outer loop
      vertex -12.51294020 10.92742558 0.00000000
      vertex -12.47986901 10.68965445 0.00000000
      vertex -11.51621143 10.82368796 0.00000000
    endloop
  endfacet
  facet normal -0.00000000 0.00000000 1.00000000
    outer loop
      vertex -11.54928262 11.06145909 0.00000000
      vertex -10.55255385 10.95772147 0.00000000
      vertex -10.58562504 11.19549260 0.00000000
    endloop
  endfacet
  facet normal 0.00000000 0.00000000 1.00000000
    outer loop
      vertex -11.54928262 11.06145909 0.00000000
      vertex -11.51621143 10.82368796 0.00000000
      vertex -10.55255385 10.95772147 0.00000000
    endloop
  endfacet
  facet normal -0.00000000 0.00000000 1.00000000
    outer loop
      vertex -10.58562504 11.19549260 0.00000000
      vertex -9.58889627 11.09175498 0.00000000
      vertex -9.62196746 11.32952610 0.00000000
    endloop
  endfacet
  facet normal 0.00000000 0.00000000 1.00000000
    outer loop
      vertex -10.58562504 11.19549260 0.00000000
      vertex -10.55255385 10.95772147 0.00000000
      vertex -9.58889627 11.09175498 0.00000000
    endloop
  endfacet
  facet normal -0.00000000 0.00000000 1.00000000
    outer loop
      vertex -9.62196746 11.32952610 0.00000000
      vertex -8.62523869 11.22578849 0.00000000
      vertex -8.65830987 11.46355961 0.00000000
    endloop
  endfacet
  facet normal 0.00000000 0.00000000 1.00000000
    outer loop
      vertex -9.62196746 11.32952610 0.00000000
      vertex -9.58889627 11.09175498 0.00000000
      vertex -8.62523869 11.22578849 0.00000000
    endloop
  endfacet
  facet normal -0.00000000 0.00000000 1.00000000
    outer loop
      vertex -8.65830987 11.46355961 0.00000000
      vertex -7.66158111 11.35982200 0.00000000
      vertex -7.69465229 11.59759312 0.00000000
    endloop
  endfacet
  facet normal 0.00000000 0.00000000 1.00000000
    outer loop
      vertex -8.65830987 11.46355961 0.00000000
      vertex -8.62523869 11.22578849 0.00000000
      vertex -7.66158111 11.35982200 0.00000000
    endloop
  endfacet
  facet normal -0.00000000 0.00000000 1.00000000
    outer loop
      vertex -7.69465229 11.59759312 0.00000000
      vertex -6.69792353 11.49385550 0.00000000
      vertex -6.73099471 11.73162663 0.00000000
    endloop
  endfacet
  facet normal 0.00000000 0.00000000 1.00000000
    outer loop
      vertex -7.69465229 11.59759312 0.00000000
      vertex -7.66158111 11.35982200 0.00000000
      vertex -6.69792353 11.49385550 0.00000000
    endloop
  endfacet
  facet normal -0.00000000 0.00000000 1.00000000
    outer loop
      vertex -6.73099471 11.73162663 0.00000000
      vertex -5.73426595 11.62788901 0.00000000
      vertex -5.76733713 11.86566014 0.00000000
    endloop
  endfacet
  facet normal 0.00000000 0.00000000 1.00000000
    outer loop
      vertex -6.73099471 11.73162663 0.00000000
      vertex -6.69792353 11.49385550 0.00000000
      vertex -5.73426595 11.62788901 0.00000000
    endloop
  endfacet
  facet normal -0.00000000 0.00000000 1.00000000
    outer loop
      vertex -5.76733713 11.86566014 0.00000000
      vertex -4.77060837 11.76192252 0.00000000
      vertex -4.80367955 11.99969365 0.00000000
    endloop
  endfacet
  facet normal 0.00000000 0.00000000 1.00000000
    outer loop
      vertex -5.76733713 11.86566014 0.00000000
      vertex -5.73426595 11.62788901 0.00000000
      vertex -4.77060837 11.76192252 0.00000000
    endloop
  endfacet
  facet normal -0.00000000 0.00000000 1.00000000
    outer loop
      vertex -4.80367955 11.99969365 0.00000000
      vertex -3.80695078 11.89595603 0.00000000
      vertex -3.84002197 12.13372715 0.00000000
    endloop
  endfacet
  facet normal 0.00000000 0.00000000 1.00000000
    outer loop
      vertex -4.80367955 11.99969365 0.00000000
      vertex -4.77060837 11.76192252 0.00000000
      vertex -3.80695078 11.89595603 0.00000000
    endloop
  endfacet
  facet normal -0.00000000 0.00000000 1.00000000
    outer loop
      vertex -3.84002197 12.13372715 0.00000000
      vertex -2.84329320 12.02998954 0.00000000
      vertex -2.87636439 12.26776066 0.00000000
    endloop
  endfacet
  facet normal 0.00000000 0.00000000 1.00000000
    outer loop
      vertex -3.84002197 12.13372715 0.00000000
      vertex -3.80695078 11.89595603 0.00000000
      vertex -2.84329320 12.02998954 0.00000000
    endloop
  endfacet
  facet normal -0.00000000 0.00000000 1.00000000
    outer loop
      vertex -2.87636439 12.26776066 0.00000000
      vertex -1.87963562 12.16402305 0.00000000
      vertex -1.91270681 12.40179417 0.00000000
    endloop
  endfacet
  facet normal 0.00000000 0.00000000 1.00000000
    outer loop
      vertex -2.87636439 12.26776066 0.00000000
      vertex -2.84329320 12.02998954 0.00000000
      vertex -1.87963562 12.16402305 0.00000000
    endloop
  endfacet
  facet normal -0.00000000 0.00000000 1.00000000
    outer loop
      vertex -1.91270681 12.40179417 0.00000000
      vertex -0.91597804 12.29805655 0.00000000
      vertex -0.94904923 12.53582768 0.00000000
    endloop
  endfacet
  facet normal 0.00000000 0.00000000 1.00000000
    outer loop
      vertex -1.91270681 12.40179417 0.00000000
      vertex -1.87963562 12.16402305 0.00000000
      vertex -0.91597804 12.29805655 0.00000000
    endloop
  endfacet
  facet normal -0.00000000 0.00000000 1.00000000
    outer loop
      vertex -0.94904923 12.53582768 0.00000000
      vertex 0.04767954 12.43209006 0.00000000
      vertex 0.01460835 12.66986119 0.00000000
    endloop
  endfacet
  facet normal 0.00000000 0.00000000 1.00000000
    outer loop
      vertex -0.94904923 12.53582768 0.00000000
      vertex -0.91597804 12.29805655 0.00000000
      vertex 0.04767954 12.43209006 0.00000000
    endloop
  endfacet
  facet normal -0.00000000 0.00000000 1.00000000
    outer loop
      vertex 0.01460835 12.66986119 0.00000000
      vertex 1.01133712 12.56612357 0.00000000
      vertex 0.97826594 12.80389470 0.00000000
    endloop
  endfacet
  facet normal 0.00000000 0.00000000 1.00000000
    outer loop
      vertex 0.01460835 12.66986119 0.00000000
      vertex 0.04767954 12.43209006 0.00000000
      vertex 1.01133712 12.56612357 0.00000000
    endloop
  endfacet
  facet normal -0.00000000 0.00000000 1.00000000
    outer loop
      vertex 0.97826594 12.80389470 0.00000000
      vertex 1.97499470 12.70015708 0.00000000
      vertex 1.94192352 12.93792820 0.00000000
    endloop
  endfacet
  facet normal 0.00000000 0.00000000 1.00000000
    outer loop
      vertex 0.97826594 12.80389470 0.00000000
      vertex 1.01133712 12.56612357 0.00000000
      vertex 1.97499470 12.70015708 0.00000000
    endloop
  endfacet
  facet normal -0.00000000 0.00000000 1.00000000
    outer loop
      vertex 1.94192352 12.93792820 0.00000000
      vertex 2.93865228 12.83419059 0.00000000
      vertex 2.90558110 13.07196171 0.00000000
    endloop
  endfacet
  facet normal 0.00000000 0.00000000 1.00000000
    outer loop
      vertex 1.94192352 12.93792820 0.00000000
      vertex 1.97499470 12.70015708 0.00000000
      vertex 2.93865228 12.83419059 0.00000000
    endloop
  endfacet
  facet normal -0.00000000 0.00000000 1.00000000
    outer loop
      vertex 2.90558110 13.07196171 0.00000000
      vertex 3.90230986 12.96822410 0.00000000
      vertex 3.86923868 13.20599522 0.00000000
    endloop
  endfacet
  facet normal 0.00000000 0.00000000 1.00000000
    outer loop
      vertex 2.90558110 13.07196171 0.00000000
      vertex 2.93865228 12.83419059 0.00000000
      vertex 3.90230986 12.96822410 0.00000000
    endloop
  endfacet
  facet normal -0.00000000 0.00000000 1.00000000
    outer loop
      vertex 3.86923868 13.20599522 0.00000000
      vertex 4.86146454 13.10163130 0.00000000
      vertex 4.83739916 13.34065503 0.00000000
    endloop
  endfacet
  facet normal 0.00000000 0.00000000 1.00000000
    outer loop
      vertex 3.86923868 13.20599522 0.00000000
      vertex 3.90230986 12.96822410 0.00000000
      vertex 4.86146454 13.10163130 0.00000000
    endloop
  endfacet
  facet normal -0.00000000 0.00000000 1.00000000
    outer loop
      vertex 4.83739916 13.34065503 0.00000000
      vertex 5.42334670 13.13678685 0.00000000
      vertex 5.41649670 13.37688770 0.00000000
    endloop
  endfacet
  facet normal 0.00000000 0.00000000 1.00000000
    outer loop
      vertex 4.83739916 13.34065503 0.00000000
      vertex 4.86146454 13.10163130 0.00000000
      vertex 5.42334670 13.13678685 0.00000000
    endloop
  endfacet
  facet normal 0.00000000 0.00000000 1.00000000
    outer loop
      vertex 5.41649670 13.37688770 0.00000000
      vertex 5.95590495 13.13388858 0.00000000
      vertex 5.96629237 13.37389562 0.00000000
    endloop
  endfacet
  facet normal 0.00000000 0.00000000 1.00000000
    outer loop
      vertex 5.41649670 13.37688770 0.00000000
      vertex 5.42334670 13.13678685 0.00000000
      vertex 5.95590495 13.13388858 0.00000000
    endloop
  endfacet
  facet normal 0.00000000 0.00000000 1.00000000
    outer loop
      vertex 5.96629237 13.37389562 0.00000000
      vertex 6.45823493 13.09307867 0.00000000
      vertex 6.48769054 13.33153658 0.00000000
    endloop
  endfacet
  facet normal 0.00000000 0.00000000 1.00000000
    outer loop
      vertex 5.96629237 13.37389562 0.00000000
      vertex 5.95590495 13.13388858 0.00000000
      vertex 6.45823493 13.09307867 0.00000000
    endloop
  endfacet
  facet normal 0.00000000 0.00000000 1.00000000
    outer loop
      vertex 6.48769054 13.33153658 0.00000000
      vertex 6.93039448 13.01458251 0.00000000
      vertex 6.98063337 13.24958522 0.00000000
    endloop
  endfacet
  facet normal 0.00000000 0.00000000 1.00000000
    outer loop
      vertex 6.48769054 13.33153658 0.00000000
      vertex 6.45823493 13.09307867 0.00000000
      vertex 6.93039448 13.01458251 0.00000000
    endloop
  endfacet
  facet normal 0.00000000 0.00000000 1.00000000
    outer loop
      vertex 6.98063337 13.24958522 0.00000000
      vertex 7.37253727 12.89862929 0.00000000
      vertex 7.44496721 13.12781234 0.00000000
    endloop
  endfacet
  facet normal 0.00000000 0.00000000 1.00000000
    outer loop
      vertex 6.98063337 13.24958522 0.00000000
      vertex 6.93039448 13.01458251 0.00000000
      vertex 7.37253727 12.89862929 0.00000000
    endloop
  endfacet
  facet normal 0.00000000 0.00000000 1.00000000
    outer loop
      vertex 7.44496721 13.12781234 0.00000000
      vertex 7.78493064 12.74541149 0.00000000
      vertex 7.88042469 12.96602546 0.00000000
    endloop
  endfacet
  facet normal 0.00000000 0.00000000 1.00000000
    outer loop
      vertex 7.44496721 13.12781234 0.00000000
      vertex 7.37253727 12.89862929 0.00000000
      vertex 7.78493064 12.74541149 0.00000000
    endloop
  endfacet
  facet normal 0.00000000 0.00000000 1.00000000
    outer loop
      vertex 7.88042469 12.96602546 0.00000000
      vertex 8.16795026 12.55503211 0.00000000
      vertex 8.28663015 12.76412159 0.00000000
    endloop
  endfacet
  facet normal 0.00000000 0.00000000 1.00000000
    outer loop
      vertex 7.88042469 12.96602546 0.00000000
      vertex 7.78493064 12.74541149 0.00000000
      vertex 8.16795026 12.55503211 0.00000000
    endloop
  endfacet
  facet normal 0.00000000 0.00000000 1.00000000
    outer loop
      vertex 8.28663015 12.76412159 0.00000000
      vertex 8.52204021 12.32745576 0.00000000
      vertex 8.66313952 12.52213610 0.00000000
    endloop
  endfacet
  facet normal 0.00000000 0.00000000 1.00000000
    outer loop
      vertex 8.28663015 12.76412159 0.00000000
      vertex 8.16795026 12.55503211 0.00000000
      vertex 8.52204021 12.32745576 0.00000000
    endloop
  endfacet
  facet normal 0.00000000 0.00000000 1.00000000
    outer loop
      vertex 8.66313952 12.52213610 0.00000000
      vertex 8.84764179 12.06248685 0.00000000
      vertex 9.00951149 12.24026460 0.00000000
    endloop
  endfacet
  facet normal 0.00000000 0.00000000 1.00000000
    outer loop
      vertex 8.66313952 12.52213610 0.00000000
      vertex 8.52204021 12.32745576 0.00000000
      vertex 8.84764179 12.06248685 0.00000000
    endloop
  endfacet
  facet normal 0.00000000 0.00000000 1.00000000
    outer loop
      vertex 9.00951149 12.24026460 0.00000000
      vertex 9.14511290 11.75979174 0.00000000
      vertex 9.32538816 11.91884071 0.00000000
    endloop
  endfacet
  facet normal 0.00000000 0.00000000 1.00000000
    outer loop
      vertex 9.00951149 12.24026460 0.00000000
      vertex 8.84764179 12.06248685 0.00000000
      vertex 9.14511290 11.75979174 0.00000000
    endloop
  endfacet
  facet normal 0.00000000 0.00000000 1.00000000
    outer loop
      vertex 9.32538816 11.91884071 0.00000000
      vertex 9.41466959 11.41896084 0.00000000
      vertex 9.61055348 11.55827405 0.00000000
    endloop
  endfacet
  facet normal 0.00000000 0.00000000 1.00000000
    outer loop
      vertex 9.32538816 11.91884071 0.00000000
      vertex 9.14511290 11.75979174 0.00000000
      vertex 9.41466959 11.41896084 0.00000000
    endloop
  endfacet
  facet normal 0.00000000 0.00000000 1.00000000
    outer loop
      vertex 9.61055348 11.55827405 0.00000000
      vertex 9.65637036 11.03958561 0.00000000
      vertex 9.86494896 11.15897312 0.00000000
    endloop
  endfacet
  facet normal 0.00000000 0.00000000 1.00000000
    outer loop
      vertex 9.61055348 11.55827405 0.00000000
      vertex 9.41466959 11.41896084 0.00000000
      vertex 9.65637036 11.03958561 0.00000000
    endloop
  endfacet
  facet normal 0.00000000 0.00000000 1.00000000
    outer loop
      vertex 9.86494896 11.15897312 0.00000000
      vertex 9.87014135 10.62132129 0.00000000
      vertex 10.08864845 10.72128272 0.00000000
    endloop
  endfacet
  facet normal 0.00000000 0.00000000 1.00000000
    outer loop
      vertex 9.86494896 11.15897312 0.00000000
      vertex 9.65637036 11.03958561 0.00000000
      vertex 9.87014135 10.62132129 0.00000000
    endloop
  endfacet
  facet normal 0.00000000 0.00000000 1.00000000
    outer loop
      vertex 10.08864845 10.72128272 0.00000000
      vertex 10.05582324 10.16391877 0.00000000
      vertex 10.28181127 10.24545193 0.00000000
    endloop
  endfacet
  facet normal 0.00000000 0.00000000 1.00000000
    outer loop
      vertex 10.08864845 10.72128272 0.00000000
      vertex 9.87014135 10.62132129 0.00000000
      vertex 10.05582324 10.16391877 0.00000000
    endloop
  endfacet
  facet normal 0.00000000 0.00000000 1.00000000
    outer loop
      vertex 10.28181127 10.24545193 0.00000000
      vertex 10.21321883 9.66722702 0.00000000
      vertex 10.44463463 9.73163179 0.00000000
    endloop
  endfacet
  facet normal 0.00000000 0.00000000 1.00000000
    outer loop
      vertex 10.28181127 10.24545193 0.00000000
      vertex 10.05582324 10.16391877 0.00000000
      vertex 10.21321883 9.66722702 0.00000000
    endloop
  endfacet
  facet normal 0.00000000 0.00000000 1.00000000
    outer loop
      vertex 10.44463463 9.73163179 0.00000000
      vertex 10.34212877 9.13117707 0.00000000
      vertex 10.57731786 9.17989128 0.00000000
    endloop
  endfacet
  facet normal 0.00000000 0.00000000 1.00000000
    outer loop
      vertex 10.44463463 9.73163179 0.00000000
      vertex 10.21321883 9.66722702 0.00000000
      vertex 10.34212877 9.13117707 0.00000000
    endloop
  endfacet
  facet normal 0.00000000 0.00000000 1.00000000
    outer loop
      vertex 10.57731786 9.17989128 0.00000000
      vertex 10.44237264 8.55575940 0.00000000
      vertex 10.68004139 8.59023990 0.00000000
    endloop
  endfacet
  facet normal 0.00000000 0.00000000 1.00000000
    outer loop
      vertex 10.57731786 9.17989128 0.00000000
      vertex 10.34212877 9.13117707 0.00000000
      vertex 10.44237264 8.55575940 0.00000000
    endloop
  endfacet
  facet normal 0.00000000 0.00000000 1.00000000
    outer loop
      vertex 10.68004139 8.59023990 0.00000000
      vertex 10.51391870 7.93996294 0.00000000
      vertex 10.75283698 7.96368873 0.00000000
    endloop
  endfacet
  facet normal 0.00000000 0.00000000 1.00000000
    outer loop
      vertex 10.68004139 8.59023990 0.00000000
      vertex 10.44237264 8.55575940 0.00000000
      vertex 10.51391870 7.93996294 0.00000000
    endloop
  endfacet
  facet normal 0.00000000 0.00000000 1.00000000
    outer loop
      vertex 10.75283698 7.96368873 0.00000000
      vertex 10.61144981 6.75750045 0.00000000
      vertex 10.85069730 6.77723492 0.00000000
    endloop
  endfacet
  facet normal 0.00000000 0.00000000 1.00000000
    outer loop
      vertex 10.75283698 7.96368873 0.00000000
      vertex 10.51391870 7.93996294 0.00000000
      vertex 10.61144981 6.75750045 0.00000000
    endloop
  endfacet
  facet normal 0.00000000 0.00000000 1.00000000
    outer loop
      vertex 10.85069730 6.77723492 0.00000000
      vertex 10.70915488 5.57305056 0.00000000
      vertex 10.94840220 5.59278704 0.00000000
    endloop
  endfacet
  facet normal 0.00000000 0.00000000 1.00000000
    outer loop
      vertex 10.85069730 6.77723492 0.00000000
      vertex 10.61144981 6.75750045 0.00000000
      vertex 10.70915488 5.57305056 0.00000000
    endloop
  endfacet
  facet normal 0.00000000 0.00000000 1.00000000
    outer loop
      vertex 10.94840220 5.59278704 0.00000000
      vertex 10.80686921 4.38860992 0.00000000
      vertex 11.04611636 4.40834841 0.00000000
    endloop
  endfacet
  facet normal 0.00000000 0.00000000 1.00000000
    outer loop
      vertex 10.94840220 5.59278704 0.00000000
      vertex 10.70915488 5.57305056 0.00000000
      vertex 10.80686921 4.38860992 0.00000000
    endloop
  endfacet
  facet normal 0.00000000 0.00000000 1.00000000
    outer loop
      vertex 11.04611636 4.40834841 0.00000000
      vertex 10.90459279 3.20417855 0.00000000
      vertex 11.14383979 3.22391905 0.00000000
    endloop
  endfacet
  facet normal 0.00000000 0.00000000 1.00000000
    outer loop
      vertex 11.04611636 4.40834841 0.00000000
      vertex 10.80686921 4.38860992 0.00000000
      vertex 10.90459279 3.20417855 0.00000000
    endloop
  endfacet
  facet normal 0.00000000 0.00000000 1.00000000
    outer loop
      vertex 11.14383979 3.22391905 0.00000000
      vertex 11.00232564 2.01975644 0.00000000
      vertex 11.24157247 2.03949895 0.00000000
    endloop
  endfacet
  facet normal 0.00000000 0.00000000 1.00000000
    outer loop
      vertex 11.14383979 3.22391905 0.00000000
      vertex 10.90459279 3.20417855 0.00000000
      vertex 11.00232564 2.01975644 0.00000000
    endloop
  endfacet
  facet normal 0.00000000 0.00000000 1.00000000
    outer loop
      vertex 11.24157247 2.03949895 0.00000000
      vertex 11.10006775 0.83534359 0.00000000
      vertex 11.33931441 0.85508812 0.00000000
    endloop
  endfacet
  facet normal 0.00000000 0.00000000 1.00000000
    outer loop
      vertex 11.24157247 2.03949895 0.00000000
      vertex 11.00232564 2.01975644 0.00000000
      vertex 11.10006775 0.83534359 0.00000000
    endloop
  endfacet
  facet normal 0.00000000 0.00000000 1.00000000
    outer loop
      vertex 11.33931441 0.85508812 0.00000000
      vertex 11.19781913 -0.34906000 0.00000000
      vertex 11.43706562 -0.32931346 0.00000000
    endloop
  endfacet
  facet normal 0.00000000 0.00000000 1.00000000
    outer loop
      vertex 11.33931441 0.85508812 0.00000000
      vertex 11.10006775 0.83534359 0.00000000
      vertex 11.19781913 -0.34906000 0.00000000
    endloop
  endfacet
  facet normal 0.00000000 0.00000000 1.00000000
    outer loop
      vertex 11.43706562 -0.32931346 0.00000000
      vertex 11.29557976 -1.53345433 0.00000000
      vertex 11.53482609 -1.51370577 0.00000000
    endloop
  endfacet
  facet normal 0.00000000 0.00000000 1.00000000
    outer loop
      vertex 11.43706562 -0.32931346 0.00000000
      vertex 11.19781913 -0.34906000 0.00000000
      vertex 11.29557976 -1.53345433 0.00000000
    endloop
  endfacet
  facet normal 0.00000000 0.00000000 1.00000000
    outer loop
      vertex 11.53482609 -1.51370577 0.00000000
      vertex 11.39334966 -2.71783939 0.00000000
      vertex 11.63259582 -2.69808883 0.00000000
    endloop
  endfacet
  facet normal 0.00000000 0.00000000 1.00000000
    outer loop
      vertex 11.53482609 -1.51370577 0.00000000
      vertex 11.29557976 -1.53345433 0.00000000
      vertex 11.39334966 -2.71783939 0.00000000
    endloop
  endfacet
  facet normal 0.00000000 0.00000000 1.00000000
    outer loop
      vertex 11.63259582 -2.69808883 0.00000000
      vertex 11.49112881 -3.90221519 0.00000000
      vertex 11.73037481 -3.88246262 0.00000000
    endloop
  endfacet
  facet normal 0.00000000 0.00000000 1.00000000
    outer loop
      vertex 11.63259582 -2.69808883 0.00000000
      vertex 11.39334966 -2.71783939 0.00000000
      vertex 11.49112881 -3.90221519 0.00000000
    endloop
  endfacet
  facet normal 0.00000000 0.00000000 1.00000000
    outer loop
      vertex 11.73037481 -3.88246262 0.00000000
      vertex 11.58891723 -5.08658174 0.00000000
      vertex 11.82816306 -5.06682715 0.00000000
    endloop
  endfacet
  facet normal 0.00000000 0.00000000 1.00000000
    outer loop
      vertex 11.73037481 -3.88246262 0.00000000
      vertex 11.49112881 -3.90221519 0.00000000
      vertex 11.58891723 -5.08658174 0.00000000
    endloop
  endfacet
  facet normal 0.00000000 0.00000000 1.00000000
    outer loop
      vertex 11.82816306 -5.06682715 0.00000000
      vertex 11.68671491 -6.27093902 0.00000000
      vertex 11.92596058 -6.25118242 0.00000000
    endloop
  endfacet
  facet normal 0.00000000 0.00000000 1.00000000
    outer loop
      vertex 11.82816306 -5.06682715 0.00000000
      vertex 11.58891723 -5.08658174 0.00000000
      vertex 11.68671491 -6.27093902 0.00000000
    endloop
  endfacet
  facet normal 0.00000000 0.00000000 1.00000000
    outer loop
      vertex 11.92596058 -6.25118242 0.00000000
      vertex 11.78452186 -7.45528703 0.00000000
      vertex 12.02376735 -7.43552842 0.00000000
    endloop
  endfacet
  facet normal 0.00000000 0.00000000 1.00000000
    outer loop
      vertex 11.92596058 -6.25118242 0.00000000
      vertex 11.68671491 -6.27093902 0.00000000
      vertex 11.78452186 -7.45528703 0.00000000
    endloop
  endfacet
  facet normal 0.00000000 0.00000000 1.00000000
    outer loop
      vertex 12.02376735 -7.43552842 0.00000000
      vertex 11.88233806 -8.63962579 0.00000000
      vertex 12.12158339 -8.61986517 0.00000000
    endloop
  endfacet
  facet normal 0.00000000 0.00000000 1.00000000
    outer loop
      vertex 12.02376735 -7.43552842 0.00000000
      vertex 11.78452186 -7.45528703 0.00000000
      vertex 11.88233806 -8.63962579 0.00000000
    endloop
  endfacet
  facet normal 0.00000000 0.00000000 1.00000000
    outer loop
      vertex 12.12158339 -8.61986517 0.00000000
      vertex 11.98016353 -9.82395529 0.00000000
      vertex 12.21940869 -9.80419265 0.00000000
    endloop
  endfacet
  facet normal 0.00000000 0.00000000 1.00000000
    outer loop
      vertex 12.12158339 -8.61986517 0.00000000
      vertex 11.88233806 -8.63962579 0.00000000
      vertex 11.98016353 -9.82395529 0.00000000
    endloop
  endfacet
  facet normal 0.00000000 0.00000000 1.00000000
    outer loop
      vertex 12.21940869 -9.80419265 0.00000000
      vertex 12.07799825 -11.00827552 0.00000000
      vertex 12.31724325 -10.98851088 0.00000000
    endloop
  endfacet
  facet normal 0.00000000 0.00000000 1.00000000
    outer loop
      vertex 12.21940869 -9.80419265 0.00000000
      vertex 11.98016353 -9.82395529 0.00000000
      vertex 12.07799825 -11.00827552 0.00000000
    endloop
  endfacet
  facet normal 0.00000000 0.00000000 1.00000000
    outer loop
      vertex 12.31724325 -10.98851088 0.00000000
      vertex 12.17584224 -12.19258649 0.00000000
      vertex 12.41508707 -12.17281984 0.00000000
    endloop
  endfacet
  facet normal 0.00000000 0.00000000 1.00000000
    outer loop
      vertex 12.31724325 -10.98851088 0.00000000
      vertex 12.07799825 -11.00827552 0.00000000
      vertex 12.17584224 -12.19258649 0.00000000
    endloop
  endfacet
  facet normal 0.00000000 0.00000000 1.00000000
    outer loop
      vertex 12.41508707 -12.17281984 0.00000000
      vertex 12.27369545 -13.37688770 0.00000000
      vertex 12.51294020 -13.35712004 0.00000000
    endloop
  endfacet
  facet normal 0.00000000 0.00000000 1.00000000
    outer loop
      vertex 12.41508707 -12.17281984 0.00000000
      vertex 12.17584224 -12.19258649 0.00000000
      vertex 12.27369545 -13.37688770 0.00000000
    endloop
  endfacet
endsolid lane_yellow_line_23
