solid lane_yellow_line_01
  facet normal 0.00000000 0.00000000 1.00000000
    outer loop
      vertex -0.56339110 8.29812619 0.00000000
      vertex -0.77265770 7.78993687 0.00000000
      vertex -0.53305018 7.80466950 0.00000000
    endloop
  endfacet
  facet normal 0.00000000 0.00000000 1.00000000
    outer loop
      vertex -0.56339110 8.29812619 0.00000000
      vertex -0.80299861 8.28339357 0.00000000
      vertex -0.77265770 7.78993687 0.00000000
    endloop
  endfacet
  facet normal 0.00000000 0.00000000 1.00000000
    outer loop
      vertex -0.53305018 7.80466950 0.00000000
      vertex -0.74231678 7.29648017 0.00000000
      vertex -0.50270926 7.31121280 0.00000000
    endloop
  endfacet
  facet normal 0.00000000 0.00000000 1.00000000
    outer loop
      vertex -0.53305018 7.80466950 0.00000000
      vertex -0.77265770 7.78993687 0.00000000
      vertex -0.74231678 7.29648017 0.00000000
    endloop
  endfacet
  facet normal 0.00000000 0.00000000 1.00000000
    outer loop
      vertex -0.50270926 7.31121280 0.00000000
      vertex -0.71197586 6.80302348 0.00000000
      vertex -0.47236835 6.81775610 0.00000000
    endloop
  endfacet
  facet normal 0.00000000 0.00000000 1.00000000
    outer loop
      vertex -0.50270926 7.31121280 0.00000000
      vertex -0.74231678 7.29648017 0.00000000
      vertex -0.71197586 6.80302348 0.00000000
    endloop
  endfacet
  facet normal 0.00000000 0.00000000 1.00000000
    outer loop
      vertex -0.47236835 6.81775610 0.00000000
      vertex -0.68163494 6.30956678 0.00000000
      vertex -0.44202743 6.32429940 0.00000000
    endloop
  endfacet
  facet normal 0.00000000 0.00000000 1.00000000
    outer loop
      vertex -0.47236835 6.81775610 0.00000000
      vertex -0.71197586 6.80302348 0.00000000
      vertex -0.68163494 6.30956678 0.00000000
    endloop
  endfacet
  facet normal 0.00000000 0.00000000 1.00000000
    outer loop
      vertex -0.44202743 6.32429940 0.00000000
      vertex -0.65129402 5.81611008 0.00000000
      vertex -0.41168651 5.83084271 0.00000000
    endloop
  endfacet
  facet normal 0.00000000 0.00000000 1.00000000
    outer loop
      vertex -0.44202743 6.32429940 0.00000000
      vertex -0.68163494 6.30956678 0.00000000
      vertex -0.65129402 5.81611008 0.00000000
    endloop
  endfacet
  facet normal 0.00000000 0.00000000 1.00000000
    outer loop
      vertex -0.41168651 5.83084271 0.00000000
      vertex -0.62095310 5.32265338 0.00000000
      vertex -0.38134559 5.33738601 0.00000000
    endloop
  endfacet
  facet normal 0.00000000 0.00000000 1.00000000
    outer loop
      vertex -0.41168651 5.83084271 0.00000000
      vertex -0.65129402 5.81611008 0.00000000
      vertex -0.62095310 5.32265338 0.00000000
    endloop
  endfacet
  facet normal 0.00000000 0.00000000 1.00000000
    outer loop
      vertex -0.38134559 5.33738601 0.00000000
      vertex -0.59061218 4.82919669 0.00000000
      vertex -0.35100467 4.84392931 0.00000000
    endloop
  endfacet
  facet normal 0.00000000 0.00000000 1.00000000
    outer loop
      vertex -0.38134559 5.33738601 0.00000000
      vertex -0.62095310 5.32265338 0.00000000
      vertex -0.59061218 4.82919669 0.00000000
    endloop
  endfacet
  facet normal 0.00000000 0.00000000 1.00000000
    outer loop
      vertex -0.35100467 4.84392931 0.00000000
      vertex -0.56027127 4.33573999 0.00000000
      vertex -0.32066375 4.35047261 0.00000000
    endloop
  endfacet
  facet normal 0.00000000 0.00000000 1.00000000
    outer loop
      vertex -0.35100467 4.84392931 0.00000000
      vertex -0.59061218 4.82919669 0.00000000
      vertex -0.56027127 4.33573999 0.00000000
    endloop
  endfacet
  facet normal 0.00000000 0.00000000 1.00000000
    outer loop
      vertex -0.32066375 4.35047261 0.00000000
      vertex -0.52993035 3.84228329 0.00000000
      vertex -0.29032283 3.85701592 0.00000000
    endloop
  endfacet
  facet normal 0.00000000 0.00000000 1.00000000
    outer loop
      vertex -0.32066375 4.35047261 0.00000000
      vertex -0.56027127 4.33573999 0.00000000
      vertex -0.52993035 3.84228329 0.00000000
    endloop
  endfacet
  facet normal 0.00000000 0.00000000 1.00000000
    outer loop
      vertex -0.29032283 3.85701592 0.00000000
      vertex -0.49958943 3.34882659 0.00000000
      vertex -0.25998192 3.36355922 0.00000000
    endloop
  endfacet
  facet normal 0.00000000 0.00000000 1.00000000
    outer loop
      vertex -0.29032283 3.85701592 0.00000000
      vertex -0.52993035 3.84228329 0.00000000
      vertex -0.49958943 3.34882659 0.00000000
    endloop
  endfacet
  facet normal 0.00000000 0.00000000 1.00000000
    outer loop
      vertex -0.25998192 3.36355922 0.00000000
      vertex -0.46924851 2.85536990 0.00000000
      vertex -0.22964100 2.87010252 0.00000000
    endloop
  endfacet
  facet normal 0.00000000 0.00000000 1.00000000
    outer loop
      vertex -0.25998192 3.36355922 0.00000000
      vertex -0.49958943 3.34882659 0.00000000
      vertex -0.46924851 2.85536990 0.00000000
    endloop
  endfacet
  facet normal 0.00000000 0.00000000 1.00000000
    outer loop
      vertex -0.22964100 2.87010252 0.00000000
      vertex -0.43890759 2.36191320 0.00000000
      vertex -0.19930008 2.37664582 0.00000000
    endloop
  endfacet
  facet normal 0.00000000 0.00000000 1.00000000
    outer loop
      vertex -0.22964100 2.87010252 0.00000000
      vertex -0.46924851 2.85536990 0.00000000
      vertex -0.43890759 2.36191320 0.00000000
    endloop
  endfacet
  facet normal 0.00000000 0.00000000 1.00000000
    outer loop
      vertex -0.19930008 2.37664582 0.00000000
      vertex -0.40856667 1.86845650 0.00000000
      vertex -0.16895916 1.88318913 0.00000000
    endloop
  endfacet
  facet normal 0.00000000 0.00000000 1.00000000
    outer loop
      vertex -0.19930008 2.37664582 0.00000000
      vertex -0.43890759 2.36191320 0.00000000
      vertex -0.40856667 1.86845650 0.00000000
    endloop
  endfacet
  facet normal 0.00000000 0.00000000 1.00000000
    outer loop
      vertex -0.16895916 1.88318913 0.00000000
      vertex -0.37822575 1.37499980 0.00000000
      vertex -0.13861824 1.38973243 0.00000000
    endloop
  endfacet
  facet normal 0.00000000 0.00000000 1.00000000
    outer loop
      vertex -0.16895916 1.88318913 0.00000000
      vertex -0.40856667 1.86845650 0.00000000
      vertex -0.37822575 1.37499980 0.00000000
    endloop
  endfacet
  facet normal 0.00000000 0.00000000 1.00000000
    outer loop
      vertex -0.13861824 1.38973243 0.00000000
      vertex -0.34788484 0.88154311 0.00000000
      vertex -0.10827732 0.89627573 0.00000000
    endloop
  endfacet
  facet normal 0.00000000 0.00000000 1.00000000
    outer loop
      vertex -0.13861824 1.38973243 0.00000000
      vertex -0.37822575 1.37499980 0.00000000
      vertex -0.34788484 0.88154311 0.00000000
    endloop
  endfacet
  facet normal 0.00000000 0.00000000 1.00000000
    outer loop
      vertex -0.10827732 0.89627573 0.00000000
      vertex -0.31754392 0.38808641 0.00000000
      vertex -0.07793640 0.40281903 0.00000000
    endloop
  endfacet
  facet normal 0.00000000 0.00000000 1.00000000
    outer loop
      vertex -0.10827732 0.89627573 0.00000000
      vertex -0.34788484 0.88154311 0.00000000
      vertex -0.31754392 0.38808641 0.00000000
    endloop
  endfacet
  facet normal 0.00000000 0.00000000 1.00000000
    outer loop
      vertex -0.07793640 0.40281903 0.00000000
      vertex -0.28720300 -0.10537029 0.00000000
      vertex -0.04759549 -0.09063766 0.00000000
    endloop
  endfacet
  facet normal 0.00000000 0.00000000 1.00000000
    outer loop
      vertex -0.07793640 0.40281903 0.00000000
      vertex -0.31754392 0.38808641 0.00000000
      vertex -0.28720300 -0.10537029 0.00000000
    endloop
  endfacet
  facet normal 0.00000000 0.00000000 1.00000000
    outer loop
      vertex -0.04759549 -0.09063766 0.00000000
      vertex -0.25669716 -0.60150916 0.00000000
      vertex -0.01741948 -0.58141219 0.00000000
    endloop
  endfacet
  facet normal 0.00000000 0.00000000 1.00000000
    outer loop
      vertex -0.04759549 -0.09063766 0.00000000
      vertex -0.28720300 -0.10537029 0.00000000
      vertex -0.25669716 -0.60150916 0.00000000
    endloop
  endfacet
  facet normal 0.00000000 0.00000000 1.00000000
    outer loop
      vertex -0.01741948 -0.58141219 0.00000000
      vertex -0.21073885 -1.03272421 0.00000000
      vertex 0.02796911 -1.00728178 0.00000000
    endloop
  endfacet
  facet normal 0.00000000 0.00000000 1.00000000
    outer loop
      vertex -0.01741948 -0.58141219 0.00000000
      vertex -0.25669716 -0.60150916 0.00000000
      vertex -0.21073885 -1.03272421 0.00000000
    endloop
  endfacet
  facet normal 0.00000000 0.00000000 1.00000000
    outer loop
      vertex 0.02796911 -1.00728178 0.00000000
      vertex -0.16507452 -1.46113813 0.00000000
      vertex 0.07363317 -1.43569318 0.00000000
    endloop
  endfacet
  facet normal 0.00000000 0.00000000 1.00000000
    outer loop
      vertex 0.02796911 -1.00728178 0.00000000
      vertex -0.21073885 -1.03272421 0.00000000
      vertex -0.16507452 -1.46113813 0.00000000
    endloop
  endfacet
  facet normal 0.00000000 0.00000000 1.00000000
    outer loop
      vertex 0.07363317 -1.43569318 0.00000000
      vertex -0.11941946 -1.88942238 0.00000000
      vertex 0.11928797 -1.86397492 0.00000000
    endloop
  endfacet
  facet normal 0.00000000 0.00000000 1.00000000
    outer loop
      vertex 0.07363317 -1.43569318 0.00000000
      vertex -0.16507452 -1.46113813 0.00000000
      vertex -0.11941946 -1.88942238 0.00000000
    endloop
  endfacet
  facet normal 0.00000000 0.00000000 1.00000000
    outer loop
      vertex 0.11928797 -1.86397492 0.00000000
      vertex -0.07377365 -2.31757697 0.00000000
      vertex 0.16493351 -2.29212700 0.00000000
    endloop
  endfacet
  facet normal 0.00000000 0.00000000 1.00000000
    outer loop
      vertex 0.11928797 -1.86397492 0.00000000
      vertex -0.11941946 -1.88942238 0.00000000
      vertex -0.07377365 -2.31757697 0.00000000
    endloop
  endfacet
  facet normal 0.00000000 0.00000000 1.00000000
    outer loop
      vertex 0.16493351 -2.29212700 0.00000000
      vertex -0.02813711 -2.74560190 0.00000000
      vertex 0.21056978 -2.72014941 0.00000000
    endloop
  endfacet
  facet normal 0.00000000 0.00000000 1.00000000
    outer loop
      vertex 0.16493351 -2.29212700 0.00000000
      vertex -0.07377365 -2.31757697 0.00000000
      vertex -0.02813711 -2.74560190 0.00000000
    endloop
  endfacet
  facet normal 0.00000000 0.00000000 1.00000000
    outer loop
      vertex 0.21056978 -2.72014941 0.00000000
      vertex 0.01749017 -3.17349717 0.00000000
      vertex 0.25619680 -3.14804216 0.00000000
    endloop
  endfacet
  facet normal 0.00000000 0.00000000 1.00000000
    outer loop
      vertex 0.21056978 -2.72014941 0.00000000
      vertex -0.02813711 -2.74560190 0.00000000
      vertex 0.01749017 -3.17349717 0.00000000
    endloop
  endfacet
  facet normal 0.00000000 0.00000000 1.00000000
    outer loop
      vertex 0.25619680 -3.14804216 0.00000000
      vertex 0.06310819 -3.60126278 0.00000000
      vertex 0.30181455 -3.57580525 0.00000000
    endloop
  endfacet
  facet normal 0.00000000 0.00000000 1.00000000
    outer loop
      vertex 0.25619680 -3.14804216 0.00000000
      vertex 0.01749017 -3.17349717 0.00000000
      vertex 0.06310819 -3.60126278 0.00000000
    endloop
  endfacet
  facet normal 0.00000000 0.00000000 1.00000000
    outer loop
      vertex 0.30181455 -3.57580525 0.00000000
      vertex 0.10871695 -4.02889873 0.00000000
      vertex 0.34742304 -4.00343868 0.00000000
    endloop
  endfacet
  facet normal 0.00000000 0.00000000 1.00000000
    outer loop
      vertex 0.30181455 -3.57580525 0.00000000
      vertex 0.06310819 -3.60126278 0.00000000
      vertex 0.10871695 -4.02889873 0.00000000
    endloop
  endfacet
  facet normal 0.00000000 0.00000000 1.00000000
    outer loop
      vertex 0.34742304 -4.00343868 0.00000000
      vertex 0.15431645 -4.45640501 0.00000000
      vertex 0.39302227 -4.43094244 0.00000000
    endloop
  endfacet
  facet normal 0.00000000 0.00000000 1.00000000
    outer loop
      vertex 0.34742304 -4.00343868 0.00000000
      vertex 0.10871695 -4.02889873 0.00000000
      vertex 0.15431645 -4.45640501 0.00000000
    endloop
  endfacet
  facet normal 0.00000000 0.00000000 1.00000000
    outer loop
      vertex 0.39302227 -4.43094244 0.00000000
      vertex 0.19990668 -4.88378164 0.00000000
      vertex 0.43861223 -4.85831654 0.00000000
    endloop
  endfacet
  facet normal 0.00000000 0.00000000 1.00000000
    outer loop
      vertex 0.39302227 -4.43094244 0.00000000
      vertex 0.15431645 -4.45640501 0.00000000
      vertex 0.19990668 -4.88378164 0.00000000
    endloop
  endfacet
  facet normal 0.00000000 0.00000000 1.00000000
    outer loop
      vertex 0.43861223 -4.85831654 0.00000000
      vertex 0.24548766 -5.31102860 0.00000000
      vertex 0.48419294 -5.28556098 0.00000000
    endloop
  endfacet
  facet normal 0.00000000 0.00000000 1.00000000
    outer loop
      vertex 0.43861223 -4.85831654 0.00000000
      vertex 0.19990668 -4.88378164 0.00000000
      vertex 0.24548766 -5.31102860 0.00000000
    endloop
  endfacet
  facet normal 0.00000000 0.00000000 1.00000000
    outer loop
      vertex 0.48419294 -5.28556098 0.00000000
      vertex 0.29105937 -5.73814590 0.00000000
      vertex 0.52976438 -5.71267575 0.00000000
    endloop
  endfacet
  facet normal 0.00000000 0.00000000 1.00000000
    outer loop
      vertex 0.48419294 -5.28556098 0.00000000
      vertex 0.24548766 -5.31102860 0.00000000
      vertex 0.29105937 -5.73814590 0.00000000
    endloop
  endfacet
  facet normal 0.00000000 0.00000000 1.00000000
    outer loop
      vertex 0.52976438 -5.71267575 0.00000000
      vertex 0.33662182 -6.16513354 0.00000000
      vertex 0.57532656 -6.13966086 0.00000000
    endloop
  endfacet
  facet normal 0.00000000 0.00000000 1.00000000
    outer loop
      vertex 0.52976438 -5.71267575 0.00000000
      vertex 0.29105937 -5.73814590 0.00000000
      vertex 0.33662182 -6.16513354 0.00000000
    endloop
  endfacet
  facet normal 0.00000000 0.00000000 1.00000000
    outer loop
      vertex 0.57532656 -6.13966086 0.00000000
      vertex 0.38217501 -6.59199152 0.00000000
      vertex 0.62087948 -6.56651631 0.00000000
    endloop
  endfacet
  facet normal 0.00000000 0.00000000 1.00000000
    outer loop
      vertex 0.57532656 -6.13966086 0.00000000
      vertex 0.33662182 -6.16513354 0.00000000
      vertex 0.38217501 -6.59199152 0.00000000
    endloop
  endfacet
  facet normal 0.00000000 0.00000000 1.00000000
    outer loop
      vertex 0.62087948 -6.56651631 0.00000000
      vertex 0.42771894 -7.01871984 0.00000000
      vertex 0.66642314 -6.99324210 0.00000000
    endloop
  endfacet
  facet normal 0.00000000 0.00000000 1.00000000
    outer loop
      vertex 0.62087948 -6.56651631 0.00000000
      vertex 0.38217501 -6.59199152 0.00000000
      vertex 0.42771894 -7.01871984 0.00000000
    endloop
  endfacet
  facet normal 0.00000000 0.00000000 1.00000000
    outer loop
      vertex 0.66642314 -6.99324210 0.00000000
      vertex 0.47325361 -7.44531850 0.00000000
      vertex 0.71195754 -7.41983822 0.00000000
    endloop
  endfacet
  facet normal 0.00000000 0.00000000 1.00000000
    outer loop
      vertex 0.66642314 -6.99324210 0.00000000
      vertex 0.42771894 -7.01871984 0.00000000
      vertex 0.47325361 -7.44531850 0.00000000
    endloop
  endfacet
  facet normal 0.00000000 0.00000000 1.00000000
    outer loop
      vertex 0.71195754 -7.41983822 0.00000000
      vertex 0.51877901 -7.87178749 0.00000000
      vertex 0.75748267 -7.84630468 0.00000000
    endloop
  endfacet
  facet normal 0.00000000 0.00000000 1.00000000
    outer loop
      vertex 0.71195754 -7.41983822 0.00000000
      vertex 0.47325361 -7.44531850 0.00000000
      vertex 0.51877901 -7.87178749 0.00000000
    endloop
  endfacet
  facet normal 0.00000000 0.00000000 1.00000000
    outer loop
      vertex 0.75748267 -7.84630468 0.00000000
      vertex 0.56429509 -8.29812619 0.00000000
      vertex 0.80299861 -8.27264212 0.00000000
    endloop
  endfacet
  facet normal 0.00000000 0.00000000 1.00000000
    outer loop
      vertex 0.75748267 -7.84630468 0.00000000
      vertex 0.51877901 -7.87178749 0.00000000
      vertex 0.56429509 -8.29812619 0.00000000
    endloop
  endfacet
endsolid lane_yellow_line_01
