solid lane_yellow_line_24
  facet normal 0.00000000 0.00000000 1.00000000
    outer loop
      vertex 11.14081007 -12.32159376 0.00000000
      vertex 10.15241324 -12.17959291 0.00000000
      vertex 10.17640230 -12.41845131 0.00000000
    endloop
  endfacet
  facet normal 0.00000000 0.00000000 1.00000000
    outer loop
      vertex 11.14081007 -12.32159376 0.00000000
      vertex 11.11682100 -12.08273536 0.00000000
      vertex 10.15241324 -12.17959291 0.00000000
    endloop
  endfacet
  facet normal 0.00000000 0.00000000 1.00000000
    outer loop
      vertex 10.17640230 -12.41845131 0.00000000
      vertex 9.18800547 -12.27645046 0.00000000
      vertex 9.21199453 -12.51530886 0.00000000
    endloop
  endfacet
  facet normal 0.00000000 0.00000000 1.00000000
    outer loop
      vertex 10.17640230 -12.41845131 0.00000000
      vertex 10.15241324 -12.17959291 0.00000000
      vertex 9.18800547 -12.27645046 0.00000000
    endloop
  endfacet
  facet normal 0.00000000 0.00000000 1.00000000
    outer loop
      vertex 9.21199453 -12.51530886 0.00000000
      vertex 8.22359770 -12.37330800 0.00000000
      vertex 8.24758676 -12.61216640 0.00000000
    endloop
  endfacet
  facet normal 0.00000000 0.00000000 1.00000000
    outer loop
      vertex 9.21199453 -12.51530886 0.00000000
      vertex 9.18800547 -12.27645046 0.00000000
      vertex 8.22359770 -12.37330800 0.00000000
    endloop
  endfacet
  facet normal 0.00000000 0.00000000 1.00000000
    outer loop
      vertex 8.24758676 -12.61216640 0.00000000
      vertex 7.25918993 -12.47016555 0.00000000
      vertex 7.28317899 -12.70902395 0.00000000
    endloop
  endfacet
  facet normal 0.00000000 0.00000000 1.00000000
    outer loop
      vertex 8.24758676 -12.61216640 0.00000000
      vertex 8.22359770 -12.37330800 0.00000000
      vertex 7.25918993 -12.47016555 0.00000000
    endloop
  endfacet
  facet normal 0.00000000 0.00000000 1.00000000
    outer loop
      vertex 7.28317899 -12.70902395 0.00000000
      vertex 6.29478216 -12.56702310 0.00000000
      vertex 6.31877122 -12.80588150 0.00000000
    endloop
  endfacet
  facet normal 0.00000000 0.00000000 1.00000000
    outer loop
      vertex 7.28317899 -12.70902395 0.00000000
      vertex 7.25918993 -12.47016555 0.00000000
      vertex 6.29478216 -12.56702310 0.00000000
    endloop
  endfacet
  facet normal 0.00000000 0.00000000 1.00000000
    outer loop
      vertex 6.31877122 -12.80588150 0.00000000
      vertex 5.33037439 -12.66388065 0.00000000
      vertex 5.35436346 -12.90273905 0.00000000
    endloop
  endfacet
  facet normal 0.00000000 0.00000000 1.00000000
    outer loop
      vertex 6.31877122 -12.80588150 0.00000000
      vertex 6.29478216 -12.56702310 0.00000000
      vertex 5.33037439 -12.66388065 0.00000000
    endloop
  endfacet
  facet normal 0.00000000 0.00000000 1.00000000
    outer loop
      vertex 5.35436346 -12.90273905 0.00000000
      vertex 4.36596662 -12.76073819 0.00000000
      vertex 4.38995569 -12.99959660 0.00000000
    endloop
  endfacet
  facet normal 0.00000000 0.00000000 1.00000000
    outer loop
      vertex 5.35436346 -12.90273905 0.00000000
      vertex 5.33037439 -12.66388065 0.00000000
      vertex 4.36596662 -12.76073819 0.00000000
    endloop
  endfacet
  facet normal 0.00000000 0.00000000 1.00000000
    outer loop
      vertex 4.38995569 -12.99959660 0.00000000
      vertex 3.40155886 -12.85759574 0.00000000
      vertex 3.42554792 -13.09645414 0.00000000
    endloop
  endfacet
  facet normal 0.00000000 0.00000000 1.00000000
    outer loop
      vertex 4.38995569 -12.99959660 0.00000000
      vertex 4.36596662 -12.76073819 0.00000000
      vertex 3.40155886 -12.85759574 0.00000000
    endloop
  endfacet
  facet normal 0.00000000 0.00000000 1.00000000
    outer loop
      vertex 3.42554792 -13.09645414 0.00000000
      vertex 2.43715109 -12.95445329 0.00000000
      vertex 2.46114015 -13.19331169 0.00000000
    endloop
  endfacet
  facet normal 0.00000000 0.00000000 1.00000000
    outer loop
      vertex 3.42554792 -13.09645414 0.00000000
      vertex 3.40155886 -12.85759574 0.00000000
      vertex 2.43715109 -12.95445329 0.00000000
    endloop
  endfacet
  facet normal 0.00000000 0.00000000 1.00000000
    outer loop
      vertex 2.46114015 -13.19331169 0.00000000
      vertex 1.47274332 -13.05131084 0.00000000
      vertex 1.49673238 -13.29016924 0.00000000
    endloop
  endfacet
  facet normal 0.00000000 0.00000000 1.00000000
    outer loop
      vertex 2.46114015 -13.19331169 0.00000000
      vertex 2.43715109 -12.95445329 0.00000000
      vertex 1.47274332 -13.05131084 0.00000000
    endloop
  endfacet
  facet normal 0.00000000 0.00000000 1.00000000
    outer loop
      vertex 1.49673238 -13.29016924 0.00000000
      vertex 0.50833555 -13.14816839 0.00000000
      vertex 0.53232461 -13.38702679 0.00000000
    endloop
  endfacet
  facet normal 0.00000000 0.00000000 1.00000000
    outer loop
      vertex 1.49673238 -13.29016924 0.00000000
      vertex 1.47274332 -13.05131084 0.00000000
      vertex 0.50833555 -13.14816839 0.00000000
    endloop
  endfacet
  facet normal 0.00000000 0.00000000 1.00000000
    outer loop
      vertex 0.53232461 -13.38702679 0.00000000
      vertex -0.45607222 -13.24502593 0.00000000
      vertex -0.43208316 -13.48388433 0.00000000
    endloop
  endfacet
  facet normal 0.00000000 0.00000000 1.00000000
    outer loop
      vertex 0.53232461 -13.38702679 0.00000000
      vertex 0.50833555 -13.14816839 0.00000000
      vertex -0.45607222 -13.24502593 0.00000000
    endloop
  endfacet
  facet normal 0.00000000 0.00000000 1.00000000
    outer loop
      vertex -0.43208316 -13.48388433 0.00000000
      vertex -1.42047999 -13.34188348 0.00000000
      vertex -1.39649092 -13.58074188 0.00000000
    endloop
  endfacet
  facet normal 0.00000000 0.00000000 1.00000000
    outer loop
      vertex -0.43208316 -13.48388433 0.00000000
      vertex -0.45607222 -13.24502593 0.00000000
      vertex -1.42047999 -13.34188348 0.00000000
    endloop
  endfacet
  facet normal 0.00000000 0.00000000 1.00000000
    outer loop
      vertex -1.39649092 -13.58074188 0.00000000
      vertex -2.38488776 -13.43874103 0.00000000
      vertex -2.36089869 -13.67759943 0.00000000
    endloop
  endfacet
  facet normal 0.00000000 0.00000000 1.00000000
    outer loop
      vertex -1.39649092 -13.58074188 0.00000000
      vertex -1.42047999 -13.34188348 0.00000000
      vertex -2.38488776 -13.43874103 0.00000000
    endloop
  endfacet
  facet normal 0.00000000 0.00000000 1.00000000
    outer loop
      vertex -2.36089869 -13.67759943 0.00000000
      vertex -3.34929552 -13.53559858 0.00000000
      vertex -3.32530646 -13.77445698 0.00000000
    endloop
  endfacet
  facet normal 0.00000000 0.00000000 1.00000000
    outer loop
      vertex -2.36089869 -13.67759943 0.00000000
      vertex -2.38488776 -13.43874103 0.00000000
      vertex -3.34929552 -13.53559858 0.00000000
    endloop
  endfacet
  facet normal 0.00000000 0.00000000 1.00000000
    outer loop
      vertex -3.32530646 -13.77445698 0.00000000
      vertex -4.31370329 -13.63245612 0.00000000
      vertex -4.28971423 -13.87131452 0.00000000
    endloop
  endfacet
  facet normal 0.00000000 0.00000000 1.00000000
    outer loop
      vertex -3.32530646 -13.77445698 0.00000000
      vertex -3.34929552 -13.53559858 0.00000000
      vertex -4.31370329 -13.63245612 0.00000000
    endloop
  endfacet
  facet normal 0.00000000 0.00000000 1.00000000
    outer loop
      vertex -4.28971423 -13.87131452 0.00000000
      vertex -5.27811106 -13.72931367 0.00000000
      vertex -5.25412200 -13.96817207 0.00000000
    endloop
  endfacet
  facet normal 0.00000000 0.00000000 1.00000000
    outer loop
      vertex -4.28971423 -13.87131452 0.00000000
      vertex -4.31370329 -13.63245612 0.00000000
      vertex -5.27811106 -13.72931367 0.00000000
    endloop
  endfacet
  facet normal 0.00000000 0.00000000 1.00000000
    outer loop
      vertex -5.25412200 -13.96817207 0.00000000
      vertex -6.23096241 -13.82501058 0.00000000
      vertex -6.23008619 -14.06619026 0.00000000
    endloop
  endfacet
  facet normal 0.00000000 0.00000000 1.00000000
    outer loop
      vertex -5.25412200 -13.96817207 0.00000000
      vertex -5.27811106 -13.72931367 0.00000000
      vertex -6.23096241 -13.82501058 0.00000000
    endloop
  endfacet
  facet normal 0.00000000 0.00000000 1.00000000
    outer loop
      vertex -6.23008619 -14.06619026 0.00000000
      vertex -6.44279221 -13.80528964 0.00000000
      vertex -6.47328681 -14.04354875 0.00000000
    endloop
  endfacet
  facet normal 0.00000000 0.00000000 1.00000000
    outer loop
      vertex -6.23008619 -14.06619026 0.00000000
      vertex -6.23096241 -13.82501058 0.00000000
      vertex -6.44279221 -13.80528964 0.00000000
    endloop
  endfacet
  facet normal 0.00000000 0.00000000 1.00000000
    outer loop
      vertex -6.47328681 -14.04354875 0.00000000
      vertex -6.65210638 -13.77113171 0.00000000
      vertex -6.69949819 -14.00663337 0.00000000
    endloop
  endfacet
  facet normal 0.00000000 -0.00000000 1.00000000
    outer loop
      vertex -6.47328681 -14.04354875 0.00000000
      vertex -6.44279221 -13.80528964 0.00000000
      vertex -6.65210638 -13.77113171 0.00000000
    endloop
  endfacet
  facet normal 0.00000000 0.00000000 1.00000000
    outer loop
      vertex -6.69949819 -14.00663337 0.00000000
      vertex -6.85126407 -13.72336294 0.00000000
      vertex -6.91636117 -13.95461792 0.00000000
    endloop
  endfacet
  facet normal 0.00000000 -0.00000000 1.00000000
    outer loop
      vertex -6.69949819 -14.00663337 0.00000000
      vertex -6.65210638 -13.77113171 0.00000000
      vertex -6.85126407 -13.72336294 0.00000000
    endloop
  endfacet
  facet normal 0.00000000 0.00000000 1.00000000
    outer loop
      vertex -6.91636117 -13.95461792 0.00000000
      vertex -7.04040231 -13.66207072 0.00000000
      vertex -7.12373873 -13.88741506 0.00000000
    endloop
  endfacet
  facet normal 0.00000000 -0.00000000 1.00000000
    outer loop
      vertex -6.91636117 -13.95461792 0.00000000
      vertex -6.85126407 -13.72336294 0.00000000
      vertex -7.04040231 -13.66207072 0.00000000
    endloop
  endfacet
  facet normal 0.00000000 0.00000000 1.00000000
    outer loop
      vertex -7.12373873 -13.88741506 0.00000000
      vertex -7.21969806 -13.58730800 0.00000000
      vertex -7.32145390 -13.80497181 0.00000000
    endloop
  endfacet
  facet normal 0.00000000 -0.00000000 1.00000000
    outer loop
      vertex -7.12373873 -13.88741506 0.00000000
      vertex -7.04040231 -13.66207072 0.00000000
      vertex -7.21969806 -13.58730800 0.00000000
    endloop
  endfacet
  facet normal 0.00000000 0.00000000 1.00000000
    outer loop
      vertex -7.32145390 -13.80497181 0.00000000
      vertex -7.38935689 -13.49907891 0.00000000
      vertex -7.50930111 -13.70728406 0.00000000
    endloop
  endfacet
  facet normal 0.00000000 -0.00000000 1.00000000
    outer loop
      vertex -7.32145390 -13.80497181 0.00000000
      vertex -7.21969806 -13.58730800 0.00000000
      vertex -7.38935689 -13.49907891 0.00000000
    endloop
  endfacet
  facet normal 0.00000000 0.00000000 1.00000000
    outer loop
      vertex -7.50930111 -13.70728406 0.00000000
      vertex -7.54959395 -13.39732980 0.00000000
      vertex -7.68706522 -13.59440543 0.00000000
    endloop
  endfacet
  facet normal 0.00000000 -0.00000000 1.00000000
    outer loop
      vertex -7.50930111 -13.70728406 0.00000000
      vertex -7.38935689 -13.49907891 0.00000000
      vertex -7.54959395 -13.39732980 0.00000000
    endloop
  endfacet
  facet normal 0.00000000 0.00000000 1.00000000
    outer loop
      vertex -7.68706522 -13.59440543 0.00000000
      vertex -7.70061057 -13.28194957 0.00000000
      vertex -7.85454489 -13.46644705 0.00000000
    endloop
  endfacet
  facet normal 0.00000000 -0.00000000 1.00000000
    outer loop
      vertex -7.68706522 -13.59440543 0.00000000
      vertex -7.54959395 -13.39732980 0.00000000
      vertex -7.70061057 -13.28194957 0.00000000
    endloop
  endfacet
  facet normal 0.00000000 -0.00000000 1.00000000
    outer loop
      vertex -7.85454489 -13.46644705 0.00000000
      vertex -7.84257194 -13.15278025 0.00000000
      vertex -8.01157493 -13.32356688 0.00000000
    endloop
  endfacet
  facet normal 0.00000000 0.00000000 1.00000000
    outer loop
      vertex -7.85454489 -13.46644705 0.00000000
      vertex -7.70061057 -13.28194957 0.00000000
      vertex -7.84257194 -13.15278025 0.00000000
    endloop
  endfacet
  facet normal 0.00000000 -0.00000000 1.00000000
    outer loop
      vertex -8.01157493 -13.32356688 0.00000000
      vertex -7.97559131 -13.00963577 0.00000000
      vertex -8.15804210 -13.16595098 0.00000000
    endloop
  endfacet
  facet normal 0.00000000 0.00000000 1.00000000
    outer loop
      vertex -8.01157493 -13.32356688 0.00000000
      vertex -7.84257194 -13.15278025 0.00000000
      vertex -7.97559131 -13.00963577 0.00000000
    endloop
  endfacet
  facet normal 0.00000000 -0.00000000 1.00000000
    outer loop
      vertex -8.15804210 -13.16595098 0.00000000
      vertex -8.09972408 -12.85232398 0.00000000
      vertex -8.29389099 -12.99379151 0.00000000
    endloop
  endfacet
  facet normal 0.00000000 0.00000000 1.00000000
    outer loop
      vertex -8.15804210 -13.16595098 0.00000000
      vertex -7.97559131 -13.00963577 0.00000000
      vertex -8.09972408 -12.85232398 0.00000000
    endloop
  endfacet
  facet normal 0.00000000 -0.00000000 1.00000000
    outer loop
      vertex -8.29389099 -12.99379151 0.00000000
      vertex -8.21497169 -12.68066651 0.00000000
      vertex -8.41912017 -12.80726685 0.00000000
    endloop
  endfacet
  facet normal 0.00000000 0.00000000 1.00000000
    outer loop
      vertex -8.29389099 -12.99379151 0.00000000
      vertex -8.09972408 -12.85232398 0.00000000
      vertex -8.21497169 -12.68066651 0.00000000
    endloop
  endfacet
  facet normal 0.00000000 -0.00000000 1.00000000
    outer loop
      vertex -8.41912017 -12.80726685 0.00000000
      vertex -8.32129246 -12.49451270 0.00000000
      vertex -8.53377131 -12.60652764 0.00000000
    endloop
  endfacet
  facet normal 0.00000000 0.00000000 1.00000000
    outer loop
      vertex -8.41912017 -12.80726685 0.00000000
      vertex -8.21497169 -12.68066651 0.00000000
      vertex -8.32129246 -12.49451270 0.00000000
    endloop
  endfacet
  facet normal 0.00000000 -0.00000000 1.00000000
    outer loop
      vertex -8.53377131 -12.60652764 0.00000000
      vertex -8.41861539 -12.29374642 0.00000000
      vertex -8.63791542 -12.39169002 0.00000000
    endloop
  endfacet
  facet normal 0.00000000 0.00000000 1.00000000
    outer loop
      vertex -8.53377131 -12.60652764 0.00000000
      vertex -8.32129246 -12.49451270 0.00000000
      vertex -8.41861539 -12.29374642 0.00000000
    endloop
  endfacet
  facet normal 0.00000000 -0.00000000 1.00000000
    outer loop
      vertex -8.63791542 -12.39169002 0.00000000
      vertex -8.50685357 -12.07828662 0.00000000
      vertex -8.73163939 -12.16283504 0.00000000
    endloop
  endfacet
  facet normal 0.00000000 0.00000000 1.00000000
    outer loop
      vertex -8.63791542 -12.39169002 0.00000000
      vertex -8.41861539 -12.29374642 0.00000000
      vertex -8.50685357 -12.07828662 0.00000000
    endloop
  endfacet
  facet normal 0.00000000 -0.00000000 1.00000000
    outer loop
      vertex -8.73163939 -12.16283504 0.00000000
      vertex -8.58591512 -11.84808368 0.00000000
      vertex -8.81503512 -11.92001231 0.00000000
    endloop
  endfacet
  facet normal 0.00000000 0.00000000 1.00000000
    outer loop
      vertex -8.73163939 -12.16283504 0.00000000
      vertex -8.50685357 -12.07828662 0.00000000
      vertex -8.58591512 -11.84808368 0.00000000
    endloop
  endfacet
  facet normal 0.00000000 -0.00000000 1.00000000
    outer loop
      vertex -8.81503512 -11.92001231 0.00000000
      vertex -8.65571083 -11.60311363 0.00000000
      vertex -8.88819181 -11.66324582 0.00000000
    endloop
  endfacet
  facet normal 0.00000000 0.00000000 1.00000000
    outer loop
      vertex -8.81503512 -11.92001231 0.00000000
      vertex -8.58591512 -11.84808368 0.00000000
      vertex -8.65571083 -11.60311363 0.00000000
    endloop
  endfacet
  facet normal 0.00000000 -0.00000000 1.00000000
    outer loop
      vertex -8.88819181 -11.66324582 0.00000000
      vertex -8.71482293 -11.34911212 0.00000000
      vertex -8.95252724 -11.38679990 0.00000000
    endloop
  endfacet
  facet normal 0.00000000 0.00000000 1.00000000
    outer loop
      vertex -8.88819181 -11.66324582 0.00000000
      vertex -8.65571083 -11.60311363 0.00000000
      vertex -8.71482293 -11.34911212 0.00000000
    endloop
  endfacet
  facet normal 0.00000000 -0.00000000 1.00000000
    outer loop
      vertex -8.95252724 -11.38679990 0.00000000
      vertex -8.83561728 -9.94515165 0.00000000
      vertex -9.07479366 -9.96573004 0.00000000
    endloop
  endfacet
  facet normal 0.00000000 0.00000000 1.00000000
    outer loop
      vertex -8.95252724 -11.38679990 0.00000000
      vertex -8.71482293 -11.34911212 0.00000000
      vertex -8.83561728 -9.94515165 0.00000000
    endloop
  endfacet
  facet normal 0.00000000 -0.00000000 1.00000000
    outer loop
      vertex -9.07479366 -9.96573004 0.00000000
      vertex -8.95714767 -8.53264568 0.00000000
      vertex -9.19632404 -8.55322420 0.00000000
    endloop
  endfacet
  facet normal 0.00000000 0.00000000 1.00000000
    outer loop
      vertex -9.07479366 -9.96573004 0.00000000
      vertex -8.83561728 -9.94515165 0.00000000
      vertex -8.95714767 -8.53264568 0.00000000
    endloop
  endfacet
  facet normal 0.00000000 -0.00000000 1.00000000
    outer loop
      vertex -9.19632404 -8.55322420 0.00000000
      vertex -9.07867806 -7.12014897 0.00000000
      vertex -9.31785441 -7.14072763 0.00000000
    endloop
  endfacet
  facet normal 0.00000000 0.00000000 1.00000000
    outer loop
      vertex -9.19632404 -8.55322420 0.00000000
      vertex -8.95714767 -8.53264568 0.00000000
      vertex -9.07867806 -7.12014897 0.00000000
    endloop
  endfacet
  facet normal 0.00000000 -0.00000000 1.00000000
    outer loop
      vertex -9.31785441 -7.14072763 0.00000000
      vertex -9.20020844 -5.70766152 0.00000000
      vertex -9.43938479 -5.72824031 0.00000000
    endloop
  endfacet
  facet normal 0.00000000 0.00000000 1.00000000
    outer loop
      vertex -9.31785441 -7.14072763 0.00000000
      vertex -9.07867806 -7.12014897 0.00000000
      vertex -9.20020844 -5.70766152 0.00000000
    endloop
  endfacet
  facet normal 0.00000000 -0.00000000 1.00000000
    outer loop
      vertex -9.43938479 -5.72824031 0.00000000
      vertex -9.32173883 -4.29518333 0.00000000
      vertex -9.56091517 -4.31576226 0.00000000
    endloop
  endfacet
  facet normal 0.00000000 0.00000000 1.00000000
    outer loop
      vertex -9.43938479 -5.72824031 0.00000000
      vertex -9.20020844 -5.70766152 0.00000000
      vertex -9.32173883 -4.29518333 0.00000000
    endloop
  endfacet
  facet normal 0.00000000 -0.00000000 1.00000000
    outer loop
      vertex -9.56091517 -4.31576226 0.00000000
      vertex -9.44326922 -2.88271441 0.00000000
      vertex -9.68244554 -2.90329347 0.00000000
    endloop
  endfacet
  facet normal 0.00000000 0.00000000 1.00000000
    outer loop
      vertex -9.56091517 -4.31576226 0.00000000
      vertex -9.32173883 -4.29518333 0.00000000
      vertex -9.44326922 -2.88271441 0.00000000
    endloop
  endfacet
  facet normal 0.00000000 -0.00000000 1.00000000
    outer loop
      vertex -9.68244554 -2.90329347 0.00000000
      vertex -9.56479961 -1.47025474 0.00000000
      vertex -9.80397592 -1.49083394 0.00000000
    endloop
  endfacet
  facet normal 0.00000000 0.00000000 1.00000000
    outer loop
      vertex -9.68244554 -2.90329347 0.00000000
      vertex -9.44326922 -2.88271441 0.00000000
      vertex -9.56479961 -1.47025474 0.00000000
    endloop
  endfacet
  facet normal 0.00000000 -0.00000000 1.00000000
    outer loop
      vertex -9.80397592 -1.49083394 0.00000000
      vertex -9.68633000 -0.05780434 0.00000000
      vertex -9.92550630 -0.07838367 0.00000000
    endloop
  endfacet
  facet normal 0.00000000 0.00000000 1.00000000
    outer loop
      vertex -9.80397592 -1.49083394 0.00000000
      vertex -9.56479961 -1.47025474 0.00000000
      vertex -9.68633000 -0.05780434 0.00000000
    endloop
  endfacet
  facet normal 0.00000000 -0.00000000 1.00000000
    outer loop
      vertex -9.92550630 -0.07838367 0.00000000
      vertex -9.80786039 1.35463680 0.00000000
      vertex -10.04703667 1.33405733 0.00000000
    endloop
  endfacet
  facet normal 0.00000000 0.00000000 1.00000000
    outer loop
      vertex -9.92550630 -0.07838367 0.00000000
      vertex -9.68633000 -0.05780434 0.00000000
      vertex -9.80786039 1.35463680 0.00000000
    endloop
  endfacet
  facet normal 0.00000000 -0.00000000 1.00000000
    outer loop
      vertex -10.04703667 1.33405733 0.00000000
      vertex -9.92939077 2.76706868 0.00000000
      vertex -10.16856705 2.74648908 0.00000000
    endloop
  endfacet
  facet normal 0.00000000 0.00000000 1.00000000
    outer loop
      vertex -10.04703667 1.33405733 0.00000000
      vertex -9.80786039 1.35463680 0.00000000
      vertex -9.92939077 2.76706868 0.00000000
    endloop
  endfacet
  facet normal 0.00000000 -0.00000000 1.00000000
    outer loop
      vertex -10.16856705 2.74648908 0.00000000
      vertex -10.05092116 4.17949129 0.00000000
      vertex -10.29009743 4.15891156 0.00000000
    endloop
  endfacet
  facet normal 0.00000000 0.00000000 1.00000000
    outer loop
      vertex -10.16856705 2.74648908 0.00000000
      vertex -9.92939077 2.76706868 0.00000000
      vertex -10.05092116 4.17949129 0.00000000
    endloop
  endfacet
  facet normal 0.00000000 -0.00000000 1.00000000
    outer loop
      vertex -10.29009743 4.15891156 0.00000000
      vertex -10.17245155 5.59190465 0.00000000
      vertex -10.41162780 5.57132478 0.00000000
    endloop
  endfacet
  facet normal 0.00000000 0.00000000 1.00000000
    outer loop
      vertex -10.29009743 4.15891156 0.00000000
      vertex -10.05092116 4.17949129 0.00000000
      vertex -10.17245155 5.59190465 0.00000000
    endloop
  endfacet
  facet normal 0.00000000 -0.00000000 1.00000000
    outer loop
      vertex -10.41162780 5.57132478 0.00000000
      vertex -10.29398194 7.00430874 0.00000000
      vertex -10.53315818 6.98372874 0.00000000
    endloop
  endfacet
  facet normal 0.00000000 0.00000000 1.00000000
    outer loop
      vertex -10.41162780 5.57132478 0.00000000
      vertex -10.17245155 5.59190465 0.00000000
      vertex -10.29398194 7.00430874 0.00000000
    endloop
  endfacet
  facet normal 0.00000000 -0.00000000 1.00000000
    outer loop
      vertex -10.53315818 6.98372874 0.00000000
      vertex -10.41551233 8.41670358 0.00000000
      vertex -10.65468856 8.39612344 0.00000000
    endloop
  endfacet
  facet normal 0.00000000 0.00000000 1.00000000
    outer loop
      vertex -10.53315818 6.98372874 0.00000000
      vertex -10.29398194 7.00430874 0.00000000
      vertex -10.41551233 8.41670358 0.00000000
    endloop
  endfacet
  facet normal 0.00000000 -0.00000000 1.00000000
    outer loop
      vertex -10.65468856 8.39612344 0.00000000
      vertex -10.53704272 9.82908915 0.00000000
      vertex -10.77621893 9.80850888 0.00000000
    endloop
  endfacet
  facet normal 0.00000000 0.00000000 1.00000000
    outer loop
      vertex -10.65468856 8.39612344 0.00000000
      vertex -10.41551233 8.41670358 0.00000000
      vertex -10.53704272 9.82908915 0.00000000
    endloop
  endfacet
  facet normal 0.00000000 -0.00000000 1.00000000
    outer loop
      vertex -10.77621893 9.80850888 0.00000000
      vertex -10.65857310 11.24146546 0.00000000
      vertex -10.89774931 11.22088505 0.00000000
    endloop
  endfacet
  facet normal 0.00000000 0.00000000 1.00000000
    outer loop
      vertex -10.77621893 9.80850888 0.00000000
      vertex -10.53704272 9.82908915 0.00000000
      vertex -10.65857310 11.24146546 0.00000000
    endloop
  endfacet
  facet normal 0.00000000 -0.00000000 1.00000000
    outer loop
      vertex -10.89774931 11.22088505 0.00000000
      vertex -10.78010349 12.65383250 0.00000000
      vertex -11.01927969 12.63325197 0.00000000
    endloop
  endfacet
  facet normal 0.00000000 0.00000000 1.00000000
    outer loop
      vertex -10.89774931 11.22088505 0.00000000
      vertex -10.65857310 11.24146546 0.00000000
      vertex -10.78010349 12.65383250 0.00000000
    endloop
  endfacet
  facet normal 0.00000000 -0.00000000 1.00000000
    outer loop
      vertex -11.01927969 12.63325197 0.00000000
      vertex -10.90163388 14.06619026 0.00000000
      vertex -11.14081007 14.04560965 0.00000000
    endloop
  endfacet
  facet normal 0.00000000 0.00000000 1.00000000
    outer loop
      vertex -11.01927969 12.63325197 0.00000000
      vertex -10.78010349 12.65383250 0.00000000
      vertex -10.90163388 14.06619026 0.00000000
    endloop
  endfacet
endsolid lane_yellow_line_24
