solid lane_yellow_line_35
  facet normal -0.00000000 0.00000000 1.00000000
    outer loop
      vertex -0.54972944 0.02129186 0.00000000
      vertex -0.44789236 -0.20311971 0.00000000
      vertex -0.49485106 0.03230282 0.00000000
    endloop
  endfacet
  facet normal 0.00000000 0.00000000 1.00000000
    outer loop
      vertex -0.54972944 0.02129186 0.00000000
      vertex -0.50250432 -0.21407721 0.00000000
      vertex -0.44789236 -0.20311971 0.00000000
    endloop
  endfacet
  facet normal -0.00000000 0.00000000 1.00000000
    outer loop
      vertex -0.49485106 0.03230282 0.00000000
      vertex -0.39294857 -0.19222496 0.00000000
      vertex -0.43937837 0.04330244 0.00000000
    endloop
  endfacet
  facet normal 0.00000000 0.00000000 1.00000000
    outer loop
      vertex -0.49485106 0.03230282 0.00000000
      vertex -0.44789236 -0.20311971 0.00000000
      vertex -0.39294857 -0.19222496 0.00000000
    endloop
  endfacet
  facet normal -0.00000000 0.00000000 1.00000000
    outer loop
      vertex -0.43937837 0.04330244 0.00000000
      vertex -0.33753765 -0.18136586 0.00000000
      vertex -0.38344663 0.05426361 0.00000000
    endloop
  endfacet
  facet normal 0.00000000 0.00000000 1.00000000
    outer loop
      vertex -0.43937837 0.04330244 0.00000000
      vertex -0.39294857 -0.19222496 0.00000000
      vertex -0.33753765 -0.18136586 0.00000000
    endloop
  endfacet
  facet normal -0.00000000 0.00000000 1.00000000
    outer loop
      vertex -0.38344663 0.05426361 0.00000000
      vertex -0.28165971 -0.17054245 0.00000000
      vertex -0.32705577 0.06518637 0.00000000
    endloop
  endfacet
  facet normal 0.00000000 0.00000000 1.00000000
    outer loop
      vertex -0.38344663 0.05426361 0.00000000
      vertex -0.33753765 -0.18136586 0.00000000
      vertex -0.28165971 -0.17054245 0.00000000
    endloop
  endfacet
  facet normal -0.00000000 0.00000000 1.00000000
    outer loop
      vertex -0.32705577 0.06518637 0.00000000
      vertex -0.22531482 -0.15975477 0.00000000
      vertex -0.27020569 0.07607077 0.00000000
    endloop
  endfacet
  facet normal 0.00000000 0.00000000 1.00000000
    outer loop
      vertex -0.32705577 0.06518637 0.00000000
      vertex -0.28165971 -0.17054245 0.00000000
      vertex -0.22531482 -0.15975477 0.00000000
    endloop
  endfacet
  facet normal -0.00000000 0.00000000 1.00000000
    outer loop
      vertex -0.27020569 0.07607077 0.00000000
      vertex -0.16850307 -0.14900286 0.00000000
      vertex -0.21289632 0.08691686 0.00000000
    endloop
  endfacet
  facet normal 0.00000000 0.00000000 1.00000000
    outer loop
      vertex -0.27020569 0.07607077 0.00000000
      vertex -0.22531482 -0.15975477 0.00000000
      vertex -0.16850307 -0.14900286 0.00000000
    endloop
  endfacet
  facet normal -0.00000000 0.00000000 1.00000000
    outer loop
      vertex -0.21289632 0.08691686 0.00000000
      vertex -0.11122454 -0.13828677 0.00000000
      vertex -0.15512756 0.09772467 0.00000000
    endloop
  endfacet
  facet normal 0.00000000 0.00000000 1.00000000
    outer loop
      vertex -0.21289632 0.08691686 0.00000000
      vertex -0.16850307 -0.14900286 0.00000000
      vertex -0.11122454 -0.13828677 0.00000000
    endloop
  endfacet
  facet normal -0.00000000 0.00000000 1.00000000
    outer loop
      vertex -0.15512756 0.09772467 0.00000000
      vertex -0.05347931 -0.12760653 0.00000000
      vertex -0.09689935 0.10849423 0.00000000
    endloop
  endfacet
  facet normal 0.00000000 0.00000000 1.00000000
    outer loop
      vertex -0.15512756 0.09772467 0.00000000
      vertex -0.11122454 -0.13828677 0.00000000
      vertex -0.05347931 -0.12760653 0.00000000
    endloop
  endfacet
  facet normal -0.00000000 0.00000000 1.00000000
    outer loop
      vertex -0.09689935 0.10849423 0.00000000
      vertex 0.00473254 -0.11696218 0.00000000
      vertex -0.03821161 0.11922560 0.00000000
    endloop
  endfacet
  facet normal 0.00000000 0.00000000 1.00000000
    outer loop
      vertex -0.09689935 0.10849423 0.00000000
      vertex -0.05347931 -0.12760653 0.00000000
      vertex 0.00473254 -0.11696218 0.00000000
    endloop
  endfacet
  facet normal -0.00000000 0.00000000 1.00000000
    outer loop
      vertex -0.03821161 0.11922560 0.00000000
      vertex 0.06341094 -0.10635376 0.00000000
      vertex 0.02093574 0.12991880 0.00000000
    endloop
  endfacet
  facet normal 0.00000000 0.00000000 1.00000000
    outer loop
      vertex -0.03821161 0.11922560 0.00000000
      vertex 0.00473254 -0.11696218 0.00000000
      vertex 0.06341094 -0.10635376 0.00000000
    endloop
  endfacet
  facet normal -0.00000000 0.00000000 1.00000000
    outer loop
      vertex 0.02093574 0.12991880 0.00000000
      vertex 0.12255582 -0.09578130 0.00000000
      vertex 0.08054277 0.14057387 0.00000000
    endloop
  endfacet
  facet normal 0.00000000 0.00000000 1.00000000
    outer loop
      vertex 0.02093574 0.12991880 0.00000000
      vertex 0.06341094 -0.10635376 0.00000000
      vertex 0.12255582 -0.09578130 0.00000000
    endloop
  endfacet
  facet normal -0.00000000 0.00000000 1.00000000
    outer loop
      vertex 0.08054277 0.14057387 0.00000000
      vertex 0.18216710 -0.08524484 0.00000000
      vertex 0.14060956 0.15119085 0.00000000
    endloop
  endfacet
  facet normal 0.00000000 0.00000000 1.00000000
    outer loop
      vertex 0.08054277 0.14057387 0.00000000
      vertex 0.12255582 -0.09578130 0.00000000
      vertex 0.18216710 -0.08524484 0.00000000
    endloop
  endfacet
  facet normal -0.00000000 0.00000000 1.00000000
    outer loop
      vertex 0.14060956 0.15119085 0.00000000
      vertex 0.24224472 -0.07474440 0.00000000
      vertex 0.20113616 0.16176976 0.00000000
    endloop
  endfacet
  facet normal 0.00000000 0.00000000 1.00000000
    outer loop
      vertex 0.14060956 0.15119085 0.00000000
      vertex 0.18216710 -0.08524484 0.00000000
      vertex 0.24224472 -0.07474440 0.00000000
    endloop
  endfacet
  facet normal -0.00000000 0.00000000 1.00000000
    outer loop
      vertex 0.20113616 0.16176976 0.00000000
      vertex 0.30278862 -0.06428003 0.00000000
      vertex 0.26212265 0.17231063 0.00000000
    endloop
  endfacet
  facet normal 0.00000000 0.00000000 1.00000000
    outer loop
      vertex 0.20113616 0.16176976 0.00000000
      vertex 0.24224472 -0.07474440 0.00000000
      vertex 0.30278862 -0.06428003 0.00000000
    endloop
  endfacet
  facet normal -0.00000000 0.00000000 1.00000000
    outer loop
      vertex 0.26212265 0.17231063 0.00000000
      vertex 0.36379871 -0.05385174 0.00000000
      vertex 0.32356909 0.18281350 0.00000000
    endloop
  endfacet
  facet normal 0.00000000 0.00000000 1.00000000
    outer loop
      vertex 0.26212265 0.17231063 0.00000000
      vertex 0.30278862 -0.06428003 0.00000000
      vertex 0.36379871 -0.05385174 0.00000000
    endloop
  endfacet
  facet normal -0.00000000 0.00000000 1.00000000
    outer loop
      vertex 0.32356909 0.18281350 0.00000000
      vertex 0.42527495 -0.04345957 0.00000000
      vertex 0.38547555 0.19327840 0.00000000
    endloop
  endfacet
  facet normal 0.00000000 0.00000000 1.00000000
    outer loop
      vertex 0.32356909 0.18281350 0.00000000
      vertex 0.36379871 -0.05385174 0.00000000
      vertex 0.42527495 -0.04345957 0.00000000
    endloop
  endfacet
  facet normal -0.00000000 0.00000000 1.00000000
    outer loop
      vertex 0.38547555 0.19327840 0.00000000
      vertex 0.48721727 -0.03310355 0.00000000
      vertex 0.44784209 0.20370535 0.00000000
    endloop
  endfacet
  facet normal 0.00000000 0.00000000 1.00000000
    outer loop
      vertex 0.38547555 0.19327840 0.00000000
      vertex 0.42527495 -0.04345957 0.00000000
      vertex 0.48721727 -0.03310355 0.00000000
    endloop
  endfacet
  facet normal -0.00000000 0.00000000 1.00000000
    outer loop
      vertex 0.44784209 0.20370535 0.00000000
      vertex 0.54972944 -0.02276652 0.00000000
      vertex 0.51056493 0.21407721 0.00000000
    endloop
  endfacet
  facet normal 0.00000000 0.00000000 1.00000000
    outer loop
      vertex 0.44784209 0.20370535 0.00000000
      vertex 0.48721727 -0.03310355 0.00000000
      vertex 0.54972944 -0.02276652 0.00000000
    endloop
  endfacet
endsolid lane_yellow_line_35
