solid lane_yellow_line_29
  facet normal -0.00000000 0.00000000 1.00000000
    outer loop
      vertex -1.16421347 0.02674982 0.00000000
      vertex -1.01279321 -0.20279275 0.00000000
      vertex -1.03054543 0.03661000 0.00000000
    endloop
  endfacet
  facet normal 0.00000000 0.00000000 1.00000000
    outer loop
      vertex -1.16421347 0.02674982 0.00000000
      vertex -1.14655313 -0.21265971 0.00000000
      vertex -1.01279321 -0.20279275 0.00000000
    endloop
  endfacet
  facet normal -0.00000000 0.00000000 1.00000000
    outer loop
      vertex -1.03054543 0.03661000 0.00000000
      vertex -0.87962595 -0.19286672 0.00000000
      vertex -0.89756282 0.04652227 0.00000000
    endloop
  endfacet
  facet normal 0.00000000 0.00000000 1.00000000
    outer loop
      vertex -1.03054543 0.03661000 0.00000000
      vertex -1.01279321 -0.20279275 0.00000000
      vertex -0.87962595 -0.19286672 0.00000000
    endloop
  endfacet
  facet normal -0.00000000 0.00000000 1.00000000
    outer loop
      vertex -0.89756282 0.04652227 0.00000000
      vertex -0.74709687 -0.18288498 0.00000000
      vertex -0.76522012 0.05648997 0.00000000
    endloop
  endfacet
  facet normal 0.00000000 0.00000000 1.00000000
    outer loop
      vertex -0.89756282 0.04652227 0.00000000
      vertex -0.87962595 -0.19286672 0.00000000
      vertex -0.74709687 -0.18288498 0.00000000
    endloop
  endfacet
  facet normal -0.00000000 0.00000000 1.00000000
    outer loop
      vertex -0.76522012 0.05648997 0.00000000
      vertex -0.61520595 -0.17284754 0.00000000
      vertex -0.63351737 0.06651309 0.00000000
    endloop
  endfacet
  facet normal 0.00000000 0.00000000 1.00000000
    outer loop
      vertex -0.76522012 0.05648997 0.00000000
      vertex -0.74709687 -0.18288498 0.00000000
      vertex -0.61520595 -0.17284754 0.00000000
    endloop
  endfacet
  facet normal -0.00000000 0.00000000 1.00000000
    outer loop
      vertex -0.63351737 0.06651309 0.00000000
      vertex -0.48395318 -0.16275438 0.00000000
      vertex -0.50245457 0.07659164 0.00000000
    endloop
  endfacet
  facet normal 0.00000000 0.00000000 1.00000000
    outer loop
      vertex -0.63351737 0.06651309 0.00000000
      vertex -0.61520595 -0.17284754 0.00000000
      vertex -0.48395318 -0.16275438 0.00000000
    endloop
  endfacet
  facet normal -0.00000000 0.00000000 1.00000000
    outer loop
      vertex -0.50245457 0.07659164 0.00000000
      vertex -0.35333853 -0.15260550 0.00000000
      vertex -0.37203173 0.08672562 0.00000000
    endloop
  endfacet
  facet normal 0.00000000 0.00000000 1.00000000
    outer loop
      vertex -0.50245457 0.07659164 0.00000000
      vertex -0.48395318 -0.16275438 0.00000000
      vertex -0.35333853 -0.15260550 0.00000000
    endloop
  endfacet
  facet normal -0.00000000 0.00000000 1.00000000
    outer loop
      vertex -0.37203173 0.08672562 0.00000000
      vertex -0.22336201 -0.14240091 0.00000000
      vertex -0.24224886 0.09691501 0.00000000
    endloop
  endfacet
  facet normal 0.00000000 0.00000000 1.00000000
    outer loop
      vertex -0.37203173 0.08672562 0.00000000
      vertex -0.35333853 -0.15260550 0.00000000
      vertex -0.22336201 -0.14240091 0.00000000
    endloop
  endfacet
  facet normal -0.00000000 0.00000000 1.00000000
    outer loop
      vertex -0.24224886 0.09691501 0.00000000
      vertex -0.09402360 -0.13214059 0.00000000
      vertex -0.11310599 0.10715981 0.00000000
    endloop
  endfacet
  facet normal 0.00000000 0.00000000 1.00000000
    outer loop
      vertex -0.24224886 0.09691501 0.00000000
      vertex -0.22336201 -0.14240091 0.00000000
      vertex -0.09402360 -0.13214059 0.00000000
    endloop
  endfacet
  facet normal -0.00000000 0.00000000 1.00000000
    outer loop
      vertex -0.11310599 0.10715981 0.00000000
      vertex 0.03467672 -0.12182454 0.00000000
      vertex 0.01539688 0.11746003 0.00000000
    endloop
  endfacet
  facet normal 0.00000000 0.00000000 1.00000000
    outer loop
      vertex -0.11310599 0.10715981 0.00000000
      vertex -0.09402360 -0.13214059 0.00000000
      vertex 0.03467672 -0.12182454 0.00000000
    endloop
  endfacet
  facet normal -0.00000000 0.00000000 1.00000000
    outer loop
      vertex 0.01539688 0.11746003 0.00000000
      vertex 0.16273896 -0.11145277 0.00000000
      vertex 0.14325974 0.12781566 0.00000000
    endloop
  endfacet
  facet normal 0.00000000 0.00000000 1.00000000
    outer loop
      vertex 0.01539688 0.11746003 0.00000000
      vertex 0.03467672 -0.12182454 0.00000000
      vertex 0.16273896 -0.11145277 0.00000000
    endloop
  endfacet
  facet normal -0.00000000 0.00000000 1.00000000
    outer loop
      vertex 0.14325974 0.12781566 0.00000000
      vertex 0.29016313 -0.10102526 0.00000000
      vertex 0.27048256 0.13822669 0.00000000
    endloop
  endfacet
  facet normal 0.00000000 0.00000000 1.00000000
    outer loop
      vertex 0.14325974 0.12781566 0.00000000
      vertex 0.16273896 -0.11145277 0.00000000
      vertex 0.29016313 -0.10102526 0.00000000
    endloop
  endfacet
  facet normal -0.00000000 0.00000000 1.00000000
    outer loop
      vertex 0.27048256 0.13822669 0.00000000
      vertex 0.41694925 -0.09054201 0.00000000
      vertex 0.39706534 0.14869313 0.00000000
    endloop
  endfacet
  facet normal 0.00000000 0.00000000 1.00000000
    outer loop
      vertex 0.27048256 0.13822669 0.00000000
      vertex 0.29016313 -0.10102526 0.00000000
      vertex 0.41694925 -0.09054201 0.00000000
    endloop
  endfacet
  facet normal -0.00000000 0.00000000 1.00000000
    outer loop
      vertex 0.39706534 0.14869313 0.00000000
      vertex 0.54309734 -0.08000302 0.00000000
      vertex 0.52300805 0.15921496 0.00000000
    endloop
  endfacet
  facet normal 0.00000000 0.00000000 1.00000000
    outer loop
      vertex 0.39706534 0.14869313 0.00000000
      vertex 0.41694925 -0.09054201 0.00000000
      vertex 0.54309734 -0.08000302 0.00000000
    endloop
  endfacet
  facet normal -0.00000000 0.00000000 1.00000000
    outer loop
      vertex 0.52300805 0.15921496 0.00000000
      vertex 0.66860740 -0.06940829 0.00000000
      vertex 0.64831069 0.16979218 0.00000000
    endloop
  endfacet
  facet normal 0.00000000 0.00000000 1.00000000
    outer loop
      vertex 0.52300805 0.15921496 0.00000000
      vertex 0.54309734 -0.08000302 0.00000000
      vertex 0.66860740 -0.06940829 0.00000000
    endloop
  endfacet
  facet normal -0.00000000 0.00000000 1.00000000
    outer loop
      vertex 0.64831069 0.16979218 0.00000000
      vertex 0.79347945 -0.05875780 0.00000000
      vertex 0.77297324 0.18042480 0.00000000
    endloop
  endfacet
  facet normal 0.00000000 0.00000000 1.00000000
    outer loop
      vertex 0.64831069 0.16979218 0.00000000
      vertex 0.66860740 -0.06940829 0.00000000
      vertex 0.79347945 -0.05875780 0.00000000
    endloop
  endfacet
  facet normal -0.00000000 0.00000000 1.00000000
    outer loop
      vertex 0.77297324 0.18042480 0.00000000
      vertex 0.91771352 -0.04805157 0.00000000
      vertex 0.89699569 0.19111280 0.00000000
    endloop
  endfacet
  facet normal 0.00000000 0.00000000 1.00000000
    outer loop
      vertex 0.77297324 0.18042480 0.00000000
      vertex 0.79347945 -0.05875780 0.00000000
      vertex 0.91771352 -0.04805157 0.00000000
    endloop
  endfacet
  facet normal -0.00000000 0.00000000 1.00000000
    outer loop
      vertex 0.89699569 0.19111280 0.00000000
      vertex 1.04130961 -0.03728957 0.00000000
      vertex 1.02037801 0.20185618 0.00000000
    endloop
  endfacet
  facet normal 0.00000000 0.00000000 1.00000000
    outer loop
      vertex 0.89699569 0.19111280 0.00000000
      vertex 0.91771352 -0.04805157 0.00000000
      vertex 1.04130961 -0.03728957 0.00000000
    endloop
  endfacet
  facet normal -0.00000000 0.00000000 1.00000000
    outer loop
      vertex 1.02037801 0.20185618 0.00000000
      vertex 1.16421347 -0.02647659 0.00000000
      vertex 1.14317446 0.21265971 0.00000000
    endloop
  endfacet
  facet normal 0.00000000 0.00000000 1.00000000
    outer loop
      vertex 1.02037801 0.20185618 0.00000000
      vertex 1.04130961 -0.03728957 0.00000000
      vertex 1.16421347 -0.02647659 0.00000000
    endloop
  endfacet
endsolid lane_yellow_line_29
