solid lane_yellow_line_44
  facet normal 0.00000000 -0.00000000 1.00000000
    outer loop
      vertex 0.20414002 -1.98195907 0.00000000
      vertex 0.40517898 -1.72496766 0.00000000
      vertex 0.16829772 -1.76390456 0.00000000
    endloop
  endfacet
  facet normal 0.00000000 0.00000000 1.00000000
    outer loop
      vertex 0.20414002 -1.98195907 0.00000000
      vertex 0.44102127 -1.94302217 0.00000000
      vertex 0.40517898 -1.72496766 0.00000000
    endloop
  endfacet
  facet normal 0.00000000 -0.00000000 1.00000000
    outer loop
      vertex 0.16829772 -1.76390456 0.00000000
      vertex 0.36933668 -1.50691314 0.00000000
      vertex 0.13245543 -1.54585005 0.00000000
    endloop
  endfacet
  facet normal 0.00000000 0.00000000 1.00000000
    outer loop
      vertex 0.16829772 -1.76390456 0.00000000
      vertex 0.40517898 -1.72496766 0.00000000
      vertex 0.36933668 -1.50691314 0.00000000
    endloop
  endfacet
  facet normal 0.00000000 -0.00000000 1.00000000
    outer loop
      vertex 0.13245543 -1.54585005 0.00000000
      vertex 0.33349439 -1.28885863 0.00000000
      vertex 0.09661314 -1.32779553 0.00000000
    endloop
  endfacet
  facet normal 0.00000000 0.00000000 1.00000000
    outer loop
      vertex 0.13245543 -1.54585005 0.00000000
      vertex 0.36933668 -1.50691314 0.00000000
      vertex 0.33349439 -1.28885863 0.00000000
    endloop
  endfacet
  facet normal 0.00000000 -0.00000000 1.00000000
    outer loop
      vertex 0.09661314 -1.32779553 0.00000000
      vertex 0.29765210 -1.07080412 0.00000000
      vertex 0.06077084 -1.10974102 0.00000000
    endloop
  endfacet
  facet normal 0.00000000 0.00000000 1.00000000
    outer loop
      vertex 0.09661314 -1.32779553 0.00000000
      vertex 0.33349439 -1.28885863 0.00000000
      vertex 0.29765210 -1.07080412 0.00000000
    endloop
  endfacet
  facet normal 0.00000000 -0.00000000 1.00000000
    outer loop
      vertex 0.06077084 -1.10974102 0.00000000
      vertex 0.26180980 -0.85274960 0.00000000
      vertex 0.02492855 -0.89168651 0.00000000
    endloop
  endfacet
  facet normal 0.00000000 0.00000000 1.00000000
    outer loop
      vertex 0.06077084 -1.10974102 0.00000000
      vertex 0.29765210 -1.07080412 0.00000000
      vertex 0.26180980 -0.85274960 0.00000000
    endloop
  endfacet
  facet normal 0.00000000 -0.00000000 1.00000000
    outer loop
      vertex 0.02492855 -0.89168651 0.00000000
      vertex 0.22596751 -0.63469509 0.00000000
      vertex -0.01091375 -0.67363199 0.00000000
    endloop
  endfacet
  facet normal 0.00000000 0.00000000 1.00000000
    outer loop
      vertex 0.02492855 -0.89168651 0.00000000
      vertex 0.26180980 -0.85274960 0.00000000
      vertex 0.22596751 -0.63469509 0.00000000
    endloop
  endfacet
  facet normal 0.00000000 -0.00000000 1.00000000
    outer loop
      vertex -0.01091375 -0.67363199 0.00000000
      vertex 0.19012521 -0.41664058 0.00000000
      vertex -0.04675604 -0.45557748 0.00000000
    endloop
  endfacet
  facet normal 0.00000000 0.00000000 1.00000000
    outer loop
      vertex -0.01091375 -0.67363199 0.00000000
      vertex 0.22596751 -0.63469509 0.00000000
      vertex 0.19012521 -0.41664058 0.00000000
    endloop
  endfacet
  facet normal 0.00000000 -0.00000000 1.00000000
    outer loop
      vertex -0.04675604 -0.45557748 0.00000000
      vertex 0.15428292 -0.19858606 0.00000000
      vertex -0.08259833 -0.23752297 0.00000000
    endloop
  endfacet
  facet normal 0.00000000 0.00000000 1.00000000
    outer loop
      vertex -0.04675604 -0.45557748 0.00000000
      vertex 0.19012521 -0.41664058 0.00000000
      vertex 0.15428292 -0.19858606 0.00000000
    endloop
  endfacet
  facet normal 0.00000000 -0.00000000 1.00000000
    outer loop
      vertex -0.08259833 -0.23752297 0.00000000
      vertex 0.11844063 0.01946845 0.00000000
      vertex -0.11844063 -0.01946845 0.00000000
    endloop
  endfacet
  facet normal 0.00000000 0.00000000 1.00000000
    outer loop
      vertex -0.08259833 -0.23752297 0.00000000
      vertex 0.15428292 -0.19858606 0.00000000
      vertex 0.11844063 0.01946845 0.00000000
    endloop
  endfacet
  facet normal 0.00000000 -0.00000000 1.00000000
    outer loop
      vertex -0.11844063 -0.01946845 0.00000000
      vertex 0.08259833 0.23752297 0.00000000
      vertex -0.15428292 0.19858606 0.00000000
    endloop
  endfacet
  facet normal 0.00000000 0.00000000 1.00000000
    outer loop
      vertex -0.11844063 -0.01946845 0.00000000
      vertex 0.11844063 0.01946845 0.00000000
      vertex 0.08259833 0.23752297 0.00000000
    endloop
  endfacet
  facet normal 0.00000000 -0.00000000 1.00000000
    outer loop
      vertex -0.15428292 0.19858606 0.00000000
      vertex 0.04675604 0.45557748 0.00000000
      vertex -0.19012521 0.41664058 0.00000000
    endloop
  endfacet
  facet normal 0.00000000 0.00000000 1.00000000
    outer loop
      vertex -0.15428292 0.19858606 0.00000000
      vertex 0.08259833 0.23752297 0.00000000
      vertex 0.04675604 0.45557748 0.00000000
    endloop
  endfacet
  facet normal 0.00000000 -0.00000000 1.00000000
    outer loop
      vertex -0.19012521 0.41664058 0.00000000
      vertex 0.01091375 0.67363199 0.00000000
      vertex -0.22596751 0.63469509 0.00000000
    endloop
  endfacet
  facet normal 0.00000000 0.00000000 1.00000000
    outer loop
      vertex -0.19012521 0.41664058 0.00000000
      vertex 0.04675604 0.45557748 0.00000000
      vertex 0.01091375 0.67363199 0.00000000
    endloop
  endfacet
  facet normal 0.00000000 -0.00000000 1.00000000
    outer loop
      vertex -0.22596751 0.63469509 0.00000000
      vertex -0.02492855 0.89168651 0.00000000
      vertex -0.26180980 0.85274960 0.00000000
    endloop
  endfacet
  facet normal 0.00000000 0.00000000 1.00000000
    outer loop
      vertex -0.22596751 0.63469509 0.00000000
      vertex 0.01091375 0.67363199 0.00000000
      vertex -0.02492855 0.89168651 0.00000000
    endloop
  endfacet
  facet normal 0.00000000 -0.00000000 1.00000000
    outer loop
      vertex -0.26180980 0.85274960 0.00000000
      vertex -0.06077084 1.10974102 0.00000000
      vertex -0.29765210 1.07080412 0.00000000
    endloop
  endfacet
  facet normal 0.00000000 0.00000000 1.00000000
    outer loop
      vertex -0.26180980 0.85274960 0.00000000
      vertex -0.02492855 0.89168651 0.00000000
      vertex -0.06077084 1.10974102 0.00000000
    endloop
  endfacet
  facet normal 0.00000000 -0.00000000 1.00000000
    outer loop
      vertex -0.29765210 1.07080412 0.00000000
      vertex -0.09661314 1.32779553 0.00000000
      vertex -0.33349439 1.28885863 0.00000000
    endloop
  endfacet
  facet normal 0.00000000 0.00000000 1.00000000
    outer loop
      vertex -0.29765210 1.07080412 0.00000000
      vertex -0.06077084 1.10974102 0.00000000
      vertex -0.09661314 1.32779553 0.00000000
    endloop
  endfacet
  facet normal 0.00000000 -0.00000000 1.00000000
    outer loop
      vertex -0.33349439 1.28885863 0.00000000
      vertex -0.13245543 1.54585005 0.00000000
      vertex -0.36933668 1.50691314 0.00000000
    endloop
  endfacet
  facet normal 0.00000000 0.00000000 1.00000000
    outer loop
      vertex -0.33349439 1.28885863 0.00000000
      vertex -0.09661314 1.32779553 0.00000000
      vertex -0.13245543 1.54585005 0.00000000
    endloop
  endfacet
  facet normal 0.00000000 -0.00000000 1.00000000
    outer loop
      vertex -0.36933668 1.50691314 0.00000000
      vertex -0.16829772 1.76390456 0.00000000
      vertex -0.40517898 1.72496766 0.00000000
    endloop
  endfacet
  facet normal 0.00000000 0.00000000 1.00000000
    outer loop
      vertex -0.36933668 1.50691314 0.00000000
      vertex -0.13245543 1.54585005 0.00000000
      vertex -0.16829772 1.76390456 0.00000000
    endloop
  endfacet
  facet normal 0.00000000 -0.00000000 1.00000000
    outer loop
      vertex -0.40517898 1.72496766 0.00000000
      vertex -0.20414002 1.98195907 0.00000000
      vertex -0.44102127 1.94302217 0.00000000
    endloop
  endfacet
  facet normal 0.00000000 0.00000000 1.00000000
    outer loop
      vertex -0.40517898 1.72496766 0.00000000
      vertex -0.16829772 1.76390456 0.00000000
      vertex -0.20414002 1.98195907 0.00000000
    endloop
  endfacet
endsolid lane_yellow_line_44
