solid lane_yellow_line_10
  facet normal 0.00000000 0.00000000 1.00000000
    outer loop
      vertex 0.17200606 0.60071654 0.00000000
      vertex -0.07299932 0.55334956 0.00000000
      vertex 0.16618214 0.53283030 0.00000000
    endloop
  endfacet
  facet normal 0.00000000 0.00000000 1.00000000
    outer loop
      vertex 0.17200606 0.60071654 0.00000000
      vertex -0.06717540 0.62123580 0.00000000
      vertex -0.07299932 0.55334956 0.00000000
    endloop
  endfacet
  facet normal 0.00000000 0.00000000 1.00000000
    outer loop
      vertex 0.16618214 0.53283030 0.00000000
      vertex -0.07882325 0.48546331 0.00000000
      vertex 0.16035821 0.46494406 0.00000000
    endloop
  endfacet
  facet normal 0.00000000 0.00000000 1.00000000
    outer loop
      vertex 0.16618214 0.53283030 0.00000000
      vertex -0.07299932 0.55334956 0.00000000
      vertex -0.07882325 0.48546331 0.00000000
    endloop
  endfacet
  facet normal 0.00000000 0.00000000 1.00000000
    outer loop
      vertex 0.16035821 0.46494406 0.00000000
      vertex -0.08464718 0.41757707 0.00000000
      vertex 0.15453428 0.39705782 0.00000000
    endloop
  endfacet
  facet normal 0.00000000 0.00000000 1.00000000
    outer loop
      vertex 0.16035821 0.46494406 0.00000000
      vertex -0.07882325 0.48546331 0.00000000
      vertex -0.08464718 0.41757707 0.00000000
    endloop
  endfacet
  facet normal 0.00000000 0.00000000 1.00000000
    outer loop
      vertex 0.15453428 0.39705782 0.00000000
      vertex -0.09047110 0.34969083 0.00000000
      vertex 0.14871036 0.32917158 0.00000000
    endloop
  endfacet
  facet normal 0.00000000 0.00000000 1.00000000
    outer loop
      vertex 0.15453428 0.39705782 0.00000000
      vertex -0.08464718 0.41757707 0.00000000
      vertex -0.09047110 0.34969083 0.00000000
    endloop
  endfacet
  facet normal 0.00000000 0.00000000 1.00000000
    outer loop
      vertex 0.14871036 0.32917158 0.00000000
      vertex -0.09629503 0.28180459 0.00000000
      vertex 0.14288643 0.26128534 0.00000000
    endloop
  endfacet
  facet normal 0.00000000 0.00000000 1.00000000
    outer loop
      vertex 0.14871036 0.32917158 0.00000000
      vertex -0.09047110 0.34969083 0.00000000
      vertex -0.09629503 0.28180459 0.00000000
    endloop
  endfacet
  facet normal 0.00000000 0.00000000 1.00000000
    outer loop
      vertex 0.14288643 0.26128534 0.00000000
      vertex -0.10211895 0.21391835 0.00000000
      vertex 0.13706251 0.19339910 0.00000000
    endloop
  endfacet
  facet normal 0.00000000 0.00000000 1.00000000
    outer loop
      vertex 0.14288643 0.26128534 0.00000000
      vertex -0.09629503 0.28180459 0.00000000
      vertex -0.10211895 0.21391835 0.00000000
    endloop
  endfacet
  facet normal 0.00000000 0.00000000 1.00000000
    outer loop
      vertex 0.13706251 0.19339910 0.00000000
      vertex -0.10794288 0.14603211 0.00000000
      vertex 0.13123858 0.12551285 0.00000000
    endloop
  endfacet
  facet normal 0.00000000 0.00000000 1.00000000
    outer loop
      vertex 0.13706251 0.19339910 0.00000000
      vertex -0.10211895 0.21391835 0.00000000
      vertex -0.10794288 0.14603211 0.00000000
    endloop
  endfacet
  facet normal 0.00000000 0.00000000 1.00000000
    outer loop
      vertex 0.13123858 0.12551285 0.00000000
      vertex -0.11376680 0.07814587 0.00000000
      vertex 0.12541466 0.05762661 0.00000000
    endloop
  endfacet
  facet normal 0.00000000 0.00000000 1.00000000
    outer loop
      vertex 0.13123858 0.12551285 0.00000000
      vertex -0.10794288 0.14603211 0.00000000
      vertex -0.11376680 0.07814587 0.00000000
    endloop
  endfacet
  facet normal 0.00000000 0.00000000 1.00000000
    outer loop
      vertex 0.12541466 0.05762661 0.00000000
      vertex -0.11959073 0.01025963 0.00000000
      vertex 0.11959073 -0.01025963 0.00000000
    endloop
  endfacet
  facet normal 0.00000000 0.00000000 1.00000000
    outer loop
      vertex 0.12541466 0.05762661 0.00000000
      vertex -0.11376680 0.07814587 0.00000000
      vertex -0.11959073 0.01025963 0.00000000
    endloop
  endfacet
  facet normal 0.00000000 0.00000000 1.00000000
    outer loop
      vertex 0.11959073 -0.01025963 0.00000000
      vertex -0.12541466 -0.05762661 0.00000000
      vertex 0.11376680 -0.07814587 0.00000000
    endloop
  endfacet
  facet normal 0.00000000 0.00000000 1.00000000
    outer loop
      vertex 0.11959073 -0.01025963 0.00000000
      vertex -0.11959073 0.01025963 0.00000000
      vertex -0.12541466 -0.05762661 0.00000000
    endloop
  endfacet
  facet normal 0.00000000 0.00000000 1.00000000
    outer loop
      vertex 0.11376680 -0.07814587 0.00000000
      vertex -0.13123858 -0.12551285 0.00000000
      vertex 0.10794288 -0.14603211 0.00000000
    endloop
  endfacet
  facet normal 0.00000000 0.00000000 1.00000000
    outer loop
      vertex 0.11376680 -0.07814587 0.00000000
      vertex -0.12541466 -0.05762661 0.00000000
      vertex -0.13123858 -0.12551285 0.00000000
    endloop
  endfacet
  facet normal 0.00000000 0.00000000 1.00000000
    outer loop
      vertex 0.10794288 -0.14603211 0.00000000
      vertex -0.13706251 -0.19339910 0.00000000
      vertex 0.10211895 -0.21391835 0.00000000
    endloop
  endfacet
  facet normal 0.00000000 0.00000000 1.00000000
    outer loop
      vertex 0.10794288 -0.14603211 0.00000000
      vertex -0.13123858 -0.12551285 0.00000000
      vertex -0.13706251 -0.19339910 0.00000000
    endloop
  endfacet
  facet normal 0.00000000 0.00000000 1.00000000
    outer loop
      vertex 0.10211895 -0.21391835 0.00000000
      vertex -0.14288643 -0.26128534 0.00000000
      vertex 0.09629503 -0.28180459 0.00000000
    endloop
  endfacet
  facet normal 0.00000000 0.00000000 1.00000000
    outer loop
      vertex 0.10211895 -0.21391835 0.00000000
      vertex -0.13706251 -0.19339910 0.00000000
      vertex -0.14288643 -0.26128534 0.00000000
    endloop
  endfacet
  facet normal 0.00000000 0.00000000 1.00000000
    outer loop
      vertex 0.09629503 -0.28180459 0.00000000
      vertex -0.14871036 -0.32917158 0.00000000
      vertex 0.09047110 -0.34969083 0.00000000
    endloop
  endfacet
  facet normal 0.00000000 0.00000000 1.00000000
    outer loop
      vertex 0.09629503 -0.28180459 0.00000000
      vertex -0.14288643 -0.26128534 0.00000000
      vertex -0.14871036 -0.32917158 0.00000000
    endloop
  endfacet
  facet normal 0.00000000 0.00000000 1.00000000
    outer loop
      vertex 0.09047110 -0.34969083 0.00000000
      vertex -0.15453428 -0.39705782 0.00000000
      vertex 0.08464718 -0.41757707 0.00000000
    endloop
  endfacet
  facet normal 0.00000000 0.00000000 1.00000000
    outer loop
      vertex 0.09047110 -0.34969083 0.00000000
      vertex -0.14871036 -0.32917158 0.00000000
      vertex -0.15453428 -0.39705782 0.00000000
    endloop
  endfacet
  facet normal 0.00000000 0.00000000 1.00000000
    outer loop
      vertex 0.08464718 -0.41757707 0.00000000
      vertex -0.16035821 -0.46494406 0.00000000
      vertex 0.07882325 -0.48546331 0.00000000
    endloop
  endfacet
  facet normal 0.00000000 0.00000000 1.00000000
    outer loop
      vertex 0.08464718 -0.41757707 0.00000000
      vertex -0.15453428 -0.39705782 0.00000000
      vertex -0.16035821 -0.46494406 0.00000000
    endloop
  endfacet
  facet normal 0.00000000 0.00000000 1.00000000
    outer loop
      vertex 0.07882325 -0.48546331 0.00000000
      vertex -0.16618214 -0.53283030 0.00000000
      vertex 0.07299932 -0.55334956 0.00000000
    endloop
  endfacet
  facet normal 0.00000000 0.00000000 1.00000000
    outer loop
      vertex 0.07882325 -0.48546331 0.00000000
      vertex -0.16035821 -0.46494406 0.00000000
      vertex -0.16618214 -0.53283030 0.00000000
    endloop
  endfacet
  facet normal 0.00000000 0.00000000 1.00000000
    outer loop
      vertex 0.07299932 -0.55334956 0.00000000
      vertex -0.17200606 -0.60071654 0.00000000
      vertex 0.06717540 -0.62123580 0.00000000
    endloop
  endfacet
  facet normal 0.00000000 0.00000000 1.00000000
    outer loop
      vertex 0.07299932 -0.55334956 0.00000000
      vertex -0.16618214 -0.53283030 0.00000000
      vertex -0.17200606 -0.60071654 0.00000000
    endloop
  endfacet
endsolid lane_yellow_line_10
