solid lane_yellow_line_17
  facet normal 0.00000000 0.00000000 1.00000000
    outer loop
      vertex 8.48890315 8.30679855 0.00000000
      vertex 7.29426071 8.34914150 0.00000000
      vertex 7.33411021 8.11241206 0.00000000
    endloop
  endfacet
  facet normal 0.00000000 0.00000000 1.00000000
    outer loop
      vertex 8.48890315 8.30679855 0.00000000
      vertex 8.44905442 8.54352812 0.00000000
      vertex 7.29426071 8.34914150 0.00000000
    endloop
  endfacet
  facet normal 0.00000000 0.00000000 1.00000000
    outer loop
      vertex 7.33411021 8.11241206 0.00000000
      vertex 6.13945735 8.15474555 0.00000000
      vertex 6.17930839 7.91801636 0.00000000
    endloop
  endfacet
  facet normal 0.00000000 0.00000000 1.00000000
    outer loop
      vertex 7.33411021 8.11241206 0.00000000
      vertex 7.29426071 8.34914150 0.00000000
      vertex 6.13945735 8.15474555 0.00000000
    endloop
  endfacet
  facet normal 0.00000000 0.00000000 1.00000000
    outer loop
      vertex 6.17930839 7.91801636 0.00000000
      vertex 4.98464473 7.96034033 0.00000000
      vertex 5.02449730 7.72361141 0.00000000
    endloop
  endfacet
  facet normal 0.00000000 0.00000000 1.00000000
    outer loop
      vertex 6.17930839 7.91801636 0.00000000
      vertex 6.13945735 8.15474555 0.00000000
      vertex 4.98464473 7.96034033 0.00000000
    endloop
  endfacet
  facet normal 0.00000000 0.00000000 1.00000000
    outer loop
      vertex 5.02449730 7.72361141 0.00000000
      vertex 3.82982285 7.76592586 0.00000000
      vertex 3.86967696 7.52919720 0.00000000
    endloop
  endfacet
  facet normal 0.00000000 0.00000000 1.00000000
    outer loop
      vertex 5.02449730 7.72361141 0.00000000
      vertex 4.98464473 7.96034033 0.00000000
      vertex 3.82982285 7.76592586 0.00000000
    endloop
  endfacet
  facet normal 0.00000000 0.00000000 1.00000000
    outer loop
      vertex 3.86967696 7.52919720 0.00000000
      vertex 2.67499171 7.57150213 0.00000000
      vertex 2.71484735 7.33477372 0.00000000
    endloop
  endfacet
  facet normal 0.00000000 0.00000000 1.00000000
    outer loop
      vertex 3.86967696 7.52919720 0.00000000
      vertex 3.82982285 7.76592586 0.00000000
      vertex 2.67499171 7.57150213 0.00000000
    endloop
  endfacet
  facet normal 0.00000000 0.00000000 1.00000000
    outer loop
      vertex 2.71484735 7.33477372 0.00000000
      vertex 1.52015131 7.37706913 0.00000000
      vertex 1.56000848 7.14034098 0.00000000
    endloop
  endfacet
  facet normal 0.00000000 0.00000000 1.00000000
    outer loop
      vertex 2.71484735 7.33477372 0.00000000
      vertex 2.67499171 7.57150213 0.00000000
      vertex 1.52015131 7.37706913 0.00000000
    endloop
  endfacet
  facet normal 0.00000000 0.00000000 1.00000000
    outer loop
      vertex 1.56000848 7.14034098 0.00000000
      vertex 0.36530164 7.18262687 0.00000000
      vertex 0.40516035 6.94589898 0.00000000
    endloop
  endfacet
  facet normal 0.00000000 0.00000000 1.00000000
    outer loop
      vertex 1.56000848 7.14034098 0.00000000
      vertex 1.52015131 7.37706913 0.00000000
      vertex 0.36530164 7.18262687 0.00000000
    endloop
  endfacet
  facet normal 0.00000000 0.00000000 1.00000000
    outer loop
      vertex 0.40516035 6.94589898 0.00000000
      vertex -0.78955728 6.98817535 0.00000000
      vertex -0.74969704 6.75144772 0.00000000
    endloop
  endfacet
  facet normal 0.00000000 0.00000000 1.00000000
    outer loop
      vertex 0.40516035 6.94589898 0.00000000
      vertex 0.36530164 7.18262687 0.00000000
      vertex -0.78955728 6.98817535 0.00000000
    endloop
  endfacet
  facet normal 0.00000000 0.00000000 1.00000000
    outer loop
      vertex -0.74969704 6.75144772 0.00000000
      vertex -1.94442547 6.79371457 0.00000000
      vertex -1.90456369 6.55698720 0.00000000
    endloop
  endfacet
  facet normal 0.00000000 0.00000000 1.00000000
    outer loop
      vertex -0.74969704 6.75144772 0.00000000
      vertex -0.78955728 6.98817535 0.00000000
      vertex -1.94442547 6.79371457 0.00000000
    endloop
  endfacet
  facet normal 0.00000000 0.00000000 1.00000000
    outer loop
      vertex -1.90456369 6.55698720 0.00000000
      vertex -3.09930292 6.59924453 0.00000000
      vertex -3.05943961 6.36251741 0.00000000
    endloop
  endfacet
  facet normal 0.00000000 0.00000000 1.00000000
    outer loop
      vertex -1.90456369 6.55698720 0.00000000
      vertex -1.94442547 6.79371457 0.00000000
      vertex -3.09930292 6.59924453 0.00000000
    endloop
  endfacet
  facet normal 0.00000000 0.00000000 1.00000000
    outer loop
      vertex -3.05943961 6.36251741 0.00000000
      vertex -4.25418963 6.40476522 0.00000000
      vertex -4.21432478 6.16803837 0.00000000
    endloop
  endfacet
  facet normal 0.00000000 0.00000000 1.00000000
    outer loop
      vertex -3.05943961 6.36251741 0.00000000
      vertex -3.09930292 6.59924453 0.00000000
      vertex -4.25418963 6.40476522 0.00000000
    endloop
  endfacet
  facet normal 0.00000000 0.00000000 1.00000000
    outer loop
      vertex -4.21432478 6.16803837 0.00000000
      vertex -5.40908561 6.21027666 0.00000000
      vertex -5.36921922 5.97355006 0.00000000
    endloop
  endfacet
  facet normal 0.00000000 0.00000000 1.00000000
    outer loop
      vertex -4.21432478 6.16803837 0.00000000
      vertex -4.25418963 6.40476522 0.00000000
      vertex -5.40908561 6.21027666 0.00000000
    endloop
  endfacet
  facet normal 0.00000000 0.00000000 1.00000000
    outer loop
      vertex -5.36921922 5.97355006 0.00000000
      vertex -6.56399084 6.01577883 0.00000000
      vertex -6.52412292 5.77905249 0.00000000
    endloop
  endfacet
  facet normal 0.00000000 0.00000000 1.00000000
    outer loop
      vertex -5.36921922 5.97355006 0.00000000
      vertex -5.40908561 6.21027666 0.00000000
      vertex -6.56399084 6.01577883 0.00000000
    endloop
  endfacet
  facet normal 0.00000000 0.00000000 1.00000000
    outer loop
      vertex -6.52412292 5.77905249 0.00000000
      vertex -7.71890534 5.82127174 0.00000000
      vertex -7.67903588 5.58454566 0.00000000
    endloop
  endfacet
  facet normal 0.00000000 0.00000000 1.00000000
    outer loop
      vertex -6.52412292 5.77905249 0.00000000
      vertex -6.56399084 6.01577883 0.00000000
      vertex -7.71890534 5.82127174 0.00000000
    endloop
  endfacet
  facet normal 0.00000000 0.00000000 1.00000000
    outer loop
      vertex -7.67903588 5.58454566 0.00000000
      vertex -8.87382909 5.62675539 0.00000000
      vertex -8.83395810 5.39002957 0.00000000
    endloop
  endfacet
  facet normal 0.00000000 0.00000000 1.00000000
    outer loop
      vertex -7.67903588 5.58454566 0.00000000
      vertex -7.71890534 5.82127174 0.00000000
      vertex -8.87382909 5.62675539 0.00000000
    endloop
  endfacet
  facet normal 0.00000000 0.00000000 1.00000000
    outer loop
      vertex -8.83395810 5.39002957 0.00000000
      vertex -10.02876211 5.43222978 0.00000000
      vertex -9.98888959 5.19550421 0.00000000
    endloop
  endfacet
  facet normal 0.00000000 0.00000000 1.00000000
    outer loop
      vertex -8.83395810 5.39002957 0.00000000
      vertex -8.87382909 5.62675539 0.00000000
      vertex -10.02876211 5.43222978 0.00000000
    endloop
  endfacet
  facet normal 0.00000000 0.00000000 1.00000000
    outer loop
      vertex -9.98888959 5.19550421 0.00000000
      vertex -11.18370439 5.23769490 0.00000000
      vertex -11.14383033 5.00096960 0.00000000
    endloop
  endfacet
  facet normal 0.00000000 0.00000000 1.00000000
    outer loop
      vertex -9.98888959 5.19550421 0.00000000
      vertex -10.02876211 5.43222978 0.00000000
      vertex -11.18370439 5.23769490 0.00000000
    endloop
  endfacet
  facet normal 0.00000000 0.00000000 1.00000000
    outer loop
      vertex -11.14383033 5.00096960 0.00000000
      vertex -12.34317093 5.04239024 0.00000000
      vertex -12.29426535 4.80718624 0.00000000
    endloop
  endfacet
  facet normal 0.00000000 0.00000000 1.00000000
    outer loop
      vertex -11.14383033 5.00096960 0.00000000
      vertex -11.18370439 5.23769490 0.00000000
      vertex -12.34317093 5.04239024 0.00000000
    endloop
  endfacet
  facet normal 0.00000000 0.00000000 1.00000000
    outer loop
      vertex -12.29426535 4.80718624 0.00000000
      vertex -12.74656687 4.94233006 0.00000000
      vertex -12.68184493 4.71104922 0.00000000
    endloop
  endfacet
  facet normal 0.00000000 0.00000000 1.00000000
    outer loop
      vertex -12.29426535 4.80718624 0.00000000
      vertex -12.34317093 5.04239024 0.00000000
      vertex -12.74656687 4.94233006 0.00000000
    endloop
  endfacet
  facet normal 0.00000000 0.00000000 1.00000000
    outer loop
      vertex -12.68184493 4.71104922 0.00000000
      vertex -13.12398725 4.82451010 0.00000000
      vertex -13.04494301 4.59770028 0.00000000
    endloop
  endfacet
  facet normal 0.00000000 0.00000000 1.00000000
    outer loop
      vertex -12.68184493 4.71104922 0.00000000
      vertex -12.74656687 4.94233006 0.00000000
      vertex -13.12398725 4.82451010 0.00000000
    endloop
  endfacet
  facet normal 0.00000000 0.00000000 1.00000000
    outer loop
      vertex -13.04494301 4.59770028 0.00000000
      vertex -13.47671542 4.68847107 0.00000000
      vertex -13.38227625 4.46759871 0.00000000
    endloop
  endfacet
  facet normal 0.00000000 0.00000000 1.00000000
    outer loop
      vertex -13.04494301 4.59770028 0.00000000
      vertex -13.12398725 4.82451010 0.00000000
      vertex -13.47671542 4.68847107 0.00000000
    endloop
  endfacet
  facet normal 0.00000000 0.00000000 1.00000000
    outer loop
      vertex -13.38227625 4.46759871 0.00000000
      vertex -13.80468344 4.53407060 0.00000000
      vertex -13.69391257 4.32088686 0.00000000
    endloop
  endfacet
  facet normal 0.00000000 0.00000000 1.00000000
    outer loop
      vertex -13.38227625 4.46759871 0.00000000
      vertex -13.47671542 4.68847107 0.00000000
      vertex -13.80468344 4.53407060 0.00000000
    endloop
  endfacet
  facet normal 0.00000000 0.00000000 1.00000000
    outer loop
      vertex -13.69391257 4.32088686 0.00000000
      vertex -14.10776821 4.36117335 0.00000000
      vertex -13.97997509 4.15770009 0.00000000
    endloop
  endfacet
  facet normal 0.00000000 0.00000000 1.00000000
    outer loop
      vertex -13.69391257 4.32088686 0.00000000
      vertex -13.80468344 4.53407060 0.00000000
      vertex -14.10776821 4.36117335 0.00000000
    endloop
  endfacet
  facet normal 0.00000000 0.00000000 1.00000000
    outer loop
      vertex -13.97997509 4.15770009 0.00000000
      vertex -14.38578379 4.16967317 0.00000000
      vertex -14.24064973 3.97814454 0.00000000
    endloop
  endfacet
  facet normal 0.00000000 0.00000000 1.00000000
    outer loop
      vertex -13.97997509 4.15770009 0.00000000
      vertex -14.10776821 4.36117335 0.00000000
      vertex -14.38578379 4.16967317 0.00000000
    endloop
  endfacet
  facet normal 0.00000000 0.00000000 1.00000000
    outer loop
      vertex -14.24064973 3.97814454 0.00000000
      vertex -14.63848413 3.95952098 0.00000000
      vertex -14.47618256 3.78226930 0.00000000
    endloop
  endfacet
  facet normal 0.00000000 0.00000000 1.00000000
    outer loop
      vertex -14.24064973 3.97814454 0.00000000
      vertex -14.38578379 4.16967317 0.00000000
      vertex -14.63848413 3.95952098 0.00000000
    endloop
  endfacet
  facet normal 0.00000000 0.00000000 1.00000000
    outer loop
      vertex -14.47618256 3.78226930 0.00000000
      vertex -14.86558117 3.73075199 0.00000000
      vertex -14.68686163 3.57003915 0.00000000
    endloop
  endfacet
  facet normal 0.00000000 0.00000000 1.00000000
    outer loop
      vertex -14.47618256 3.78226930 0.00000000
      vertex -14.63848413 3.95952098 0.00000000
      vertex -14.86558117 3.73075199 0.00000000
    endloop
  endfacet
  facet normal 0.00000000 0.00000000 1.00000000
    outer loop
      vertex -14.68686163 3.57003915 0.00000000
      vertex -15.06677928 3.48350251 0.00000000
      vertex -14.87298258 3.34131779 0.00000000
    endloop
  endfacet
  facet normal 0.00000000 0.00000000 1.00000000
    outer loop
      vertex -14.68686163 3.57003915 0.00000000
      vertex -14.86558117 3.73075199 0.00000000
      vertex -15.06677928 3.48350251 0.00000000
    endloop
  endfacet
  facet normal 0.00000000 0.00000000 1.00000000
    outer loop
      vertex -14.87298258 3.34131779 0.00000000
      vertex -15.24181953 3.21800650 0.00000000
      vertex -15.03480432 3.09587124 0.00000000
    endloop
  endfacet
  facet normal 0.00000000 0.00000000 1.00000000
    outer loop
      vertex -14.87298258 3.34131779 0.00000000
      vertex -15.06677928 3.48350251 0.00000000
      vertex -15.24181953 3.21800650 0.00000000
    endloop
  endfacet
  facet normal 0.00000000 0.00000000 1.00000000
    outer loop
      vertex -15.03480432 3.09587124 0.00000000
      vertex -15.39052066 2.93456842 0.00000000
      vertex -15.17250813 2.83339507 0.00000000
    endloop
  endfacet
  facet normal 0.00000000 0.00000000 1.00000000
    outer loop
      vertex -15.03480432 3.09587124 0.00000000
      vertex -15.24181953 3.21800650 0.00000000
      vertex -15.39052066 2.93456842 0.00000000
    endloop
  endfacet
  facet normal 0.00000000 0.00000000 1.00000000
    outer loop
      vertex -15.17250813 2.83339507 0.00000000
      vertex -15.51280284 2.63351886 0.00000000
      vertex -15.28617382 2.55355867 0.00000000
    endloop
  endfacet
  facet normal 0.00000000 0.00000000 1.00000000
    outer loop
      vertex -15.17250813 2.83339507 0.00000000
      vertex -15.39052066 2.93456842 0.00000000
      vertex -15.51280284 2.63351886 0.00000000
    endloop
  endfacet
  facet normal 0.00000000 0.00000000 1.00000000
    outer loop
      vertex -15.28617382 2.55355867 0.00000000
      vertex -15.60868749 2.31516727 0.00000000
      vertex -15.37577998 2.25605259 0.00000000
    endloop
  endfacet
  facet normal 0.00000000 0.00000000 1.00000000
    outer loop
      vertex -15.28617382 2.55355867 0.00000000
      vertex -15.51280284 2.63351886 0.00000000
      vertex -15.60868749 2.31516727 0.00000000
    endloop
  endfacet
  facet normal 0.00000000 0.00000000 1.00000000
    outer loop
      vertex -15.37577998 2.25605259 0.00000000
      vertex -15.67827639 1.97976597 0.00000000
      vertex -15.44122485 1.94062452 0.00000000
    endloop
  endfacet
  facet normal 0.00000000 0.00000000 1.00000000
    outer loop
      vertex -15.37577998 2.25605259 0.00000000
      vertex -15.60868749 2.31516727 0.00000000
      vertex -15.67827639 1.97976597 0.00000000
    endloop
  endfacet
  facet normal 0.00000000 0.00000000 1.00000000
    outer loop
      vertex -15.44122485 1.94062452 0.00000000
      vertex -15.72172064 1.62749270 0.00000000
      vertex -15.48235730 1.60709670 0.00000000
    endloop
  endfacet
  facet normal 0.00000000 0.00000000 1.00000000
    outer loop
      vertex -15.44122485 1.94062452 0.00000000
      vertex -15.67827639 1.97976597 0.00000000
      vertex -15.72172064 1.62749270 0.00000000
    endloop
  endfacet
  facet normal 0.00000000 0.00000000 1.00000000
    outer loop
      vertex -15.48235730 1.60709670 0.00000000
      vertex -15.73919019 1.25845085 0.00000000
      vertex -15.49900739 1.25536577 0.00000000
    endloop
  endfacet
  facet normal 0.00000000 0.00000000 1.00000000
    outer loop
      vertex -15.48235730 1.60709670 0.00000000
      vertex -15.72172064 1.62749270 0.00000000
      vertex -15.73919019 1.25845085 0.00000000
    endloop
  endfacet
  facet normal 0.00000000 0.00000000 1.00000000
    outer loop
      vertex -15.49900739 1.25536577 0.00000000
      vertex -15.73085075 0.87268107 0.00000000
      vertex -15.49100941 0.88539106 0.00000000
    endloop
  endfacet
  facet normal 0.00000000 0.00000000 1.00000000
    outer loop
      vertex -15.49900739 1.25536577 0.00000000
      vertex -15.73919019 1.25845085 0.00000000
      vertex -15.73085075 0.87268107 0.00000000
    endloop
  endfacet
  facet normal 0.00000000 0.00000000 1.00000000
    outer loop
      vertex -15.49100941 0.88539106 0.00000000
      vertex -15.69695421 0.47141216 0.00000000
      vertex -15.45811148 0.49594377 0.00000000
    endloop
  endfacet
  facet normal 0.00000000 0.00000000 1.00000000
    outer loop
      vertex -15.49100941 0.88539106 0.00000000
      vertex -15.73085075 0.87268107 0.00000000
      vertex -15.69695421 0.47141216 0.00000000
    endloop
  endfacet
  facet normal 0.00000000 0.00000000 1.00000000
    outer loop
      vertex -15.45811148 0.49594377 0.00000000
      vertex -15.65352084 0.11250340 0.00000000
      vertex -15.41519918 0.14134082 0.00000000
    endloop
  endfacet
  facet normal 0.00000000 0.00000000 1.00000000
    outer loop
      vertex -15.45811148 0.49594377 0.00000000
      vertex -15.69695421 0.47141216 0.00000000
      vertex -15.65352084 0.11250340 0.00000000
    endloop
  endfacet
  facet normal 0.00000000 0.00000000 1.00000000
    outer loop
      vertex -15.41519918 0.14134082 0.00000000
      vertex -15.61035764 -0.24424941 0.00000000
      vertex -15.37203524 -0.21541809 0.00000000
    endloop
  endfacet
  facet normal 0.00000000 0.00000000 1.00000000
    outer loop
      vertex -15.41519918 0.14134082 0.00000000
      vertex -15.65352084 0.11250340 0.00000000
      vertex -15.61035764 -0.24424941 0.00000000
    endloop
  endfacet
  facet normal 0.00000000 0.00000000 1.00000000
    outer loop
      vertex -15.37203524 -0.21541809 0.00000000
      vertex -15.56720370 -0.60100221 0.00000000
      vertex -15.32888057 -0.57217699 0.00000000
    endloop
  endfacet
  facet normal 0.00000000 0.00000000 1.00000000
    outer loop
      vertex -15.37203524 -0.21541809 0.00000000
      vertex -15.61035764 -0.24424941 0.00000000
      vertex -15.56720370 -0.60100221 0.00000000
    endloop
  endfacet
  facet normal 0.00000000 0.00000000 1.00000000
    outer loop
      vertex -15.32888057 -0.57217699 0.00000000
      vertex -15.52405903 -0.95775502 0.00000000
      vertex -15.28573515 -0.92893590 0.00000000
    endloop
  endfacet
  facet normal 0.00000000 0.00000000 1.00000000
    outer loop
      vertex -15.32888057 -0.57217699 0.00000000
      vertex -15.56720370 -0.60100221 0.00000000
      vertex -15.52405903 -0.95775502 0.00000000
    endloop
  endfacet
  facet normal 0.00000000 0.00000000 1.00000000
    outer loop
      vertex -15.28573515 -0.92893590 0.00000000
      vertex -15.48092361 -1.31450783 0.00000000
      vertex -15.24259900 -1.28569480 0.00000000
    endloop
  endfacet
  facet normal 0.00000000 0.00000000 1.00000000
    outer loop
      vertex -15.28573515 -0.92893590 0.00000000
      vertex -15.52405903 -0.95775502 0.00000000
      vertex -15.48092361 -1.31450783 0.00000000
    endloop
  endfacet
  facet normal 0.00000000 0.00000000 1.00000000
    outer loop
      vertex -15.24259900 -1.28569480 0.00000000
      vertex -15.43779746 -1.67126063 0.00000000
      vertex -15.19947211 -1.64245371 0.00000000
    endloop
  endfacet
  facet normal 0.00000000 0.00000000 1.00000000
    outer loop
      vertex -15.24259900 -1.28569480 0.00000000
      vertex -15.48092361 -1.31450783 0.00000000
      vertex -15.43779746 -1.67126063 0.00000000
    endloop
  endfacet
  facet normal 0.00000000 0.00000000 1.00000000
    outer loop
      vertex -15.19947211 -1.64245371 0.00000000
      vertex -15.39468057 -2.02801344 0.00000000
      vertex -15.15635448 -1.99921261 0.00000000
    endloop
  endfacet
  facet normal 0.00000000 0.00000000 1.00000000
    outer loop
      vertex -15.19947211 -1.64245371 0.00000000
      vertex -15.43779746 -1.67126063 0.00000000
      vertex -15.39468057 -2.02801344 0.00000000
    endloop
  endfacet
  facet normal 0.00000000 0.00000000 1.00000000
    outer loop
      vertex -15.15635448 -1.99921261 0.00000000
      vertex -15.35157293 -2.38476625 0.00000000
      vertex -15.11324611 -2.35597151 0.00000000
    endloop
  endfacet
  facet normal 0.00000000 0.00000000 1.00000000
    outer loop
      vertex -15.15635448 -1.99921261 0.00000000
      vertex -15.39468057 -2.02801344 0.00000000
      vertex -15.35157293 -2.38476625 0.00000000
    endloop
  endfacet
  facet normal 0.00000000 0.00000000 1.00000000
    outer loop
      vertex -15.11324611 -2.35597151 0.00000000
      vertex -15.30847457 -2.74151905 0.00000000
      vertex -15.07014701 -2.71273042 0.00000000
    endloop
  endfacet
  facet normal 0.00000000 0.00000000 1.00000000
    outer loop
      vertex -15.11324611 -2.35597151 0.00000000
      vertex -15.35157293 -2.38476625 0.00000000
      vertex -15.30847457 -2.74151905 0.00000000
    endloop
  endfacet
  facet normal 0.00000000 0.00000000 1.00000000
    outer loop
      vertex -15.07014701 -2.71273042 0.00000000
      vertex -15.26538546 -3.09827186 0.00000000
      vertex -15.02705716 -3.06948932 0.00000000
    endloop
  endfacet
  facet normal 0.00000000 0.00000000 1.00000000
    outer loop
      vertex -15.07014701 -2.71273042 0.00000000
      vertex -15.30847457 -2.74151905 0.00000000
      vertex -15.26538546 -3.09827186 0.00000000
    endloop
  endfacet
  facet normal 0.00000000 0.00000000 1.00000000
    outer loop
      vertex -15.02705716 -3.06948932 0.00000000
      vertex -15.22230561 -3.45502467 0.00000000
      vertex -14.98397658 -3.42624823 0.00000000
    endloop
  endfacet
  facet normal 0.00000000 0.00000000 1.00000000
    outer loop
      vertex -15.02705716 -3.06948932 0.00000000
      vertex -15.26538546 -3.09827186 0.00000000
      vertex -15.22230561 -3.45502467 0.00000000
    endloop
  endfacet
  facet normal 0.00000000 0.00000000 1.00000000
    outer loop
      vertex -14.98397658 -3.42624823 0.00000000
      vertex -15.17923503 -3.81177747 0.00000000
      vertex -14.94090526 -3.78300713 0.00000000
    endloop
  endfacet
  facet normal 0.00000000 0.00000000 1.00000000
    outer loop
      vertex -14.98397658 -3.42624823 0.00000000
      vertex -15.22230561 -3.45502467 0.00000000
      vertex -15.17923503 -3.81177747 0.00000000
    endloop
  endfacet
  facet normal 0.00000000 0.00000000 1.00000000
    outer loop
      vertex -14.94090526 -3.78300713 0.00000000
      vertex -15.13617370 -4.16853028 0.00000000
      vertex -14.89784320 -4.13976604 0.00000000
    endloop
  endfacet
  facet normal 0.00000000 0.00000000 1.00000000
    outer loop
      vertex -14.94090526 -3.78300713 0.00000000
      vertex -15.17923503 -3.81177747 0.00000000
      vertex -15.13617370 -4.16853028 0.00000000
    endloop
  endfacet
  facet normal 0.00000000 0.00000000 1.00000000
    outer loop
      vertex -14.89784320 -4.13976604 0.00000000
      vertex -15.09312164 -4.52528308 0.00000000
      vertex -14.85479040 -4.49652494 0.00000000
    endloop
  endfacet
  facet normal 0.00000000 0.00000000 1.00000000
    outer loop
      vertex -14.89784320 -4.13976604 0.00000000
      vertex -15.13617370 -4.16853028 0.00000000
      vertex -15.09312164 -4.52528308 0.00000000
    endloop
  endfacet
  facet normal 0.00000000 0.00000000 1.00000000
    outer loop
      vertex -14.85479040 -4.49652494 0.00000000
      vertex -15.05007884 -4.88203589 0.00000000
      vertex -14.81174687 -4.85328385 0.00000000
    endloop
  endfacet
  facet normal 0.00000000 0.00000000 1.00000000
    outer loop
      vertex -14.85479040 -4.49652494 0.00000000
      vertex -15.09312164 -4.52528308 0.00000000
      vertex -15.05007884 -4.88203589 0.00000000
    endloop
  endfacet
  facet normal 0.00000000 0.00000000 1.00000000
    outer loop
      vertex -14.81174687 -4.85328385 0.00000000
      vertex -15.00704530 -5.23878870 0.00000000
      vertex -14.76871259 -5.21004275 0.00000000
    endloop
  endfacet
  facet normal 0.00000000 0.00000000 1.00000000
    outer loop
      vertex -14.81174687 -4.85328385 0.00000000
      vertex -15.05007884 -4.88203589 0.00000000
      vertex -15.00704530 -5.23878870 0.00000000
    endloop
  endfacet
  facet normal 0.00000000 0.00000000 1.00000000
    outer loop
      vertex -14.76871259 -5.21004275 0.00000000
      vertex -14.96402103 -5.59554150 0.00000000
      vertex -14.72568758 -5.56680166 0.00000000
    endloop
  endfacet
  facet normal 0.00000000 0.00000000 1.00000000
    outer loop
      vertex -14.76871259 -5.21004275 0.00000000
      vertex -15.00704530 -5.23878870 0.00000000
      vertex -14.96402103 -5.59554150 0.00000000
    endloop
  endfacet
  facet normal 0.00000000 0.00000000 1.00000000
    outer loop
      vertex -14.72568758 -5.56680166 0.00000000
      vertex -14.92012687 -5.95958559 0.00000000
      vertex -14.68355096 -5.91626929 0.00000000
    endloop
  endfacet
  facet normal 0.00000000 0.00000000 1.00000000
    outer loop
      vertex -14.72568758 -5.56680166 0.00000000
      vertex -14.96402103 -5.59554150 0.00000000
      vertex -14.92012687 -5.95958559 0.00000000
    endloop
  endfacet
  facet normal 0.00000000 0.00000000 1.00000000
    outer loop
      vertex -14.68355096 -5.91626929 0.00000000
      vertex -14.82931733 -6.32718139 0.00000000
      vertex -14.59795529 -6.26275942 0.00000000
    endloop
  endfacet
  facet normal 0.00000000 0.00000000 1.00000000
    outer loop
      vertex -14.68355096 -5.91626929 0.00000000
      vertex -14.92012687 -5.95958559 0.00000000
      vertex -14.82931733 -6.32718139 0.00000000
    endloop
  endfacet
  facet normal 0.00000000 0.00000000 1.00000000
    outer loop
      vertex -14.59795529 -6.26275942 0.00000000
      vertex -14.72387228 -6.66691566 0.00000000
      vertex -14.49693206 -6.58824700 0.00000000
    endloop
  endfacet
  facet normal 0.00000000 0.00000000 1.00000000
    outer loop
      vertex -14.59795529 -6.26275942 0.00000000
      vertex -14.82931733 -6.32718139 0.00000000
      vertex -14.72387228 -6.66691566 0.00000000
    endloop
  endfacet
  facet normal 0.00000000 0.00000000 1.00000000
    outer loop
      vertex -14.49693206 -6.58824700 0.00000000
      vertex -14.60263319 -6.98284275 0.00000000
      vertex -14.38163980 -6.88867771 0.00000000
    endloop
  endfacet
  facet normal 0.00000000 0.00000000 1.00000000
    outer loop
      vertex -14.49693206 -6.58824700 0.00000000
      vertex -14.72387228 -6.66691566 0.00000000
      vertex -14.60263319 -6.98284275 0.00000000
    endloop
  endfacet
  facet normal 0.00000000 0.00000000 1.00000000
    outer loop
      vertex -14.38163980 -6.88867771 0.00000000
      vertex -14.46542588 -7.27491295 0.00000000
      vertex -14.25225268 -7.16410123 0.00000000
    endloop
  endfacet
  facet normal 0.00000000 0.00000000 1.00000000
    outer loop
      vertex -14.38163980 -6.88867771 0.00000000
      vertex -14.60263319 -6.98284275 0.00000000
      vertex -14.46542588 -7.27491295 0.00000000
    endloop
  endfacet
  facet normal 0.00000000 0.00000000 1.00000000
    outer loop
      vertex -14.25225268 -7.16410123 0.00000000
      vertex -14.31207250 -7.54301205 0.00000000
      vertex -14.10894856 -7.41463179 0.00000000
    endloop
  endfacet
  facet normal 0.00000000 0.00000000 1.00000000
    outer loop
      vertex -14.25225268 -7.16410123 0.00000000
      vertex -14.46542588 -7.27491295 0.00000000
      vertex -14.31207250 -7.54301205 0.00000000
    endloop
  endfacet
  facet normal 0.00000000 0.00000000 1.00000000
    outer loop
      vertex -14.10894856 -7.41463179 0.00000000
      vertex -14.14241773 -7.78694519 0.00000000
      vertex -13.95188277 -7.64046424 0.00000000
    endloop
  endfacet
  facet normal 0.00000000 0.00000000 1.00000000
    outer loop
      vertex -14.10894856 -7.41463179 0.00000000
      vertex -14.31207250 -7.54301205 0.00000000
      vertex -14.14241773 -7.78694519 0.00000000
    endloop
  endfacet
  facet normal 0.00000000 0.00000000 1.00000000
    outer loop
      vertex -13.95188277 -7.64046424 0.00000000
      vertex -13.95636654 -8.00643180 0.00000000
      vertex -13.78115032 -7.84187915 0.00000000
    endloop
  endfacet
  facet normal 0.00000000 0.00000000 1.00000000
    outer loop
      vertex -13.95188277 -7.64046424 0.00000000
      vertex -14.14241773 -7.78694519 0.00000000
      vertex -13.95636654 -8.00643180 0.00000000
    endloop
  endfacet
  facet normal 0.00000000 0.00000000 1.00000000
    outer loop
      vertex -13.78115032 -7.84187915 0.00000000
      vertex -13.75392691 -8.20112164 0.00000000
      vertex -13.59674323 -8.01922677 0.00000000
    endloop
  endfacet
  facet normal 0.00000000 0.00000000 1.00000000
    outer loop
      vertex -13.78115032 -7.84187915 0.00000000
      vertex -13.95636654 -8.00643180 0.00000000
      vertex -13.75392691 -8.20112164 0.00000000
    endloop
  endfacet
  facet normal 0.00000000 0.00000000 1.00000000
    outer loop
      vertex -13.59674323 -8.01922677 0.00000000
      vertex -13.53524265 -8.37063776 0.00000000
      vertex -13.39851771 -8.17288403 0.00000000
    endloop
  endfacet
  facet normal 0.00000000 0.00000000 1.00000000
    outer loop
      vertex -13.59674323 -8.01922677 0.00000000
      vertex -13.75392691 -8.20112164 0.00000000
      vertex -13.53524265 -8.37063776 0.00000000
    endloop
  endfacet
  facet normal 0.00000000 0.00000000 1.00000000
    outer loop
      vertex -13.39851771 -8.17288403 0.00000000
      vertex -13.30059806 -8.51464024 0.00000000
      vertex -13.18618944 -8.30319087 0.00000000
    endloop
  endfacet
  facet normal 0.00000000 0.00000000 1.00000000
    outer loop
      vertex -13.39851771 -8.17288403 0.00000000
      vertex -13.53524265 -8.37063776 0.00000000
      vertex -13.30059806 -8.51464024 0.00000000
    endloop
  endfacet
  facet normal 0.00000000 0.00000000 1.00000000
    outer loop
      vertex -13.18618944 -8.30319087 0.00000000
      vertex -13.05038383 -8.63289047 0.00000000
      vertex -12.95936775 -8.41038589 0.00000000
    endloop
  endfacet
  facet normal 0.00000000 0.00000000 1.00000000
    outer loop
      vertex -13.18618944 -8.30319087 0.00000000
      vertex -13.30059806 -8.51464024 0.00000000
      vertex -13.05038383 -8.63289047 0.00000000
    endloop
  endfacet
  facet normal 0.00000000 0.00000000 1.00000000
    outer loop
      vertex -12.95936775 -8.41038589 0.00000000
      vertex -12.78503163 -8.72529098 0.00000000
      vertex -12.71762095 -8.49456656 0.00000000
    endloop
  endfacet
  facet normal 0.00000000 0.00000000 1.00000000
    outer loop
      vertex -12.95936775 -8.41038589 0.00000000
      vertex -13.05038383 -8.63289047 0.00000000
      vertex -12.78503163 -8.72529098 0.00000000
    endloop
  endfacet
  facet normal 0.00000000 0.00000000 1.00000000
    outer loop
      vertex -12.71762095 -8.49456656 0.00000000
      vertex -12.50494149 -8.79188597 0.00000000
      vertex -12.46054902 -8.55568868 0.00000000
    endloop
  endfacet
  facet normal 0.00000000 0.00000000 1.00000000
    outer loop
      vertex -12.71762095 -8.49456656 0.00000000
      vertex -12.78503163 -8.72529098 0.00000000
      vertex -12.50494149 -8.79188597 0.00000000
    endloop
  endfacet
  facet normal 0.00000000 0.00000000 1.00000000
    outer loop
      vertex -12.46054902 -8.55568868 0.00000000
      vertex -12.21042754 -8.83282796 0.00000000
      vertex -12.18783783 -8.59359975 0.00000000
    endloop
  endfacet
  facet normal 0.00000000 0.00000000 1.00000000
    outer loop
      vertex -12.46054902 -8.55568868 0.00000000
      vertex -12.50494149 -8.79188597 0.00000000
      vertex -12.21042754 -8.83282796 0.00000000
    endloop
  endfacet
  facet normal 0.00000000 0.00000000 1.00000000
    outer loop
      vertex -12.18783783 -8.59359975 0.00000000
      vertex -11.90169515 -8.84832896 0.00000000
      vertex -11.89928202 -8.60808772 0.00000000
    endloop
  endfacet
  facet normal 0.00000000 0.00000000 1.00000000
    outer loop
      vertex -12.18783783 -8.59359975 0.00000000
      vertex -12.21042754 -8.83282796 0.00000000
      vertex -11.90169515 -8.84832896 0.00000000
    endloop
  endfacet
  facet normal -0.00000000 0.00000000 1.00000000
    outer loop
      vertex -11.89928202 -8.60808772 0.00000000
      vertex -11.57884629 -8.83861543 0.00000000
      vertex -11.59477959 -8.59892617 0.00000000
    endloop
  endfacet
  facet normal 0.00000000 0.00000000 1.00000000
    outer loop
      vertex -11.89928202 -8.60808772 0.00000000
      vertex -11.90169515 -8.84832896 0.00000000
      vertex -11.57884629 -8.83861543 0.00000000
    endloop
  endfacet
  facet normal -0.00000000 0.00000000 1.00000000
    outer loop
      vertex -11.59477959 -8.59892617 0.00000000
      vertex -11.24190134 -8.80389704 0.00000000
      vertex -11.27431018 -8.56590540 0.00000000
    endloop
  endfacet
  facet normal 0.00000000 0.00000000 1.00000000
    outer loop
      vertex -11.59477959 -8.59892617 0.00000000
      vertex -11.57884629 -8.83861543 0.00000000
      vertex -11.24190134 -8.80389704 0.00000000
    endloop
  endfacet
  facet normal -0.00000000 0.00000000 1.00000000
    outer loop
      vertex -11.27431018 -8.56590540 0.00000000
      vertex -10.89459508 -8.74499033 0.00000000
      vertex -10.93413902 -8.50820888 0.00000000
    endloop
  endfacet
  facet normal 0.00000000 0.00000000 1.00000000
    outer loop
      vertex -11.27431018 -8.56590540 0.00000000
      vertex -11.24190134 -8.80389704 0.00000000
      vertex -10.89459508 -8.74499033 0.00000000
    endloop
  endfacet
  facet normal -0.00000000 0.00000000 1.00000000
    outer loop
      vertex -10.93413902 -8.50820888 0.00000000
      vertex -9.63041680 -8.53715433 0.00000000
      vertex -9.66936098 -8.30027427 0.00000000
    endloop
  endfacet
  facet normal 0.00000000 0.00000000 1.00000000
    outer loop
      vertex -10.93413902 -8.50820888 0.00000000
      vertex -10.89459508 -8.74499033 0.00000000
      vertex -9.63041680 -8.53715433 0.00000000
    endloop
  endfacet
  facet normal -0.00000000 0.00000000 1.00000000
    outer loop
      vertex -9.66936098 -8.30027427 0.00000000
      vertex -8.36594777 -8.32926900 0.00000000
      vertex -8.40489223 -8.09238899 0.00000000
    endloop
  endfacet
  facet normal 0.00000000 0.00000000 1.00000000
    outer loop
      vertex -9.66936098 -8.30027427 0.00000000
      vertex -9.63041680 -8.53715433 0.00000000
      vertex -8.36594777 -8.32926900 0.00000000
    endloop
  endfacet
  facet normal -0.00000000 0.00000000 1.00000000
    outer loop
      vertex -8.40489223 -8.09238899 0.00000000
      vertex -7.10148800 -8.12138367 0.00000000
      vertex -7.14043273 -7.88450371 0.00000000
    endloop
  endfacet
  facet normal 0.00000000 0.00000000 1.00000000
    outer loop
      vertex -8.40489223 -8.09238899 0.00000000
      vertex -8.36594777 -8.32926900 0.00000000
      vertex -7.10148800 -8.12138367 0.00000000
    endloop
  endfacet
  facet normal -0.00000000 0.00000000 1.00000000
    outer loop
      vertex -7.14043273 -7.88450371 0.00000000
      vertex -5.83703749 -7.91349835 0.00000000
      vertex -5.87598250 -7.67661843 0.00000000
    endloop
  endfacet
  facet normal 0.00000000 0.00000000 1.00000000
    outer loop
      vertex -7.14043273 -7.88450371 0.00000000
      vertex -7.10148800 -8.12138367 0.00000000
      vertex -5.83703749 -7.91349835 0.00000000
    endloop
  endfacet
  facet normal -0.00000000 0.00000000 1.00000000
    outer loop
      vertex -5.87598250 -7.67661843 0.00000000
      vertex -4.57259624 -7.70561302 0.00000000
      vertex -4.61154153 -7.46873314 0.00000000
    endloop
  endfacet
  facet normal 0.00000000 0.00000000 1.00000000
    outer loop
      vertex -5.87598250 -7.67661843 0.00000000
      vertex -5.83703749 -7.91349835 0.00000000
      vertex -4.57259624 -7.70561302 0.00000000
    endloop
  endfacet
  facet normal -0.00000000 0.00000000 1.00000000
    outer loop
      vertex -4.61154153 -7.46873314 0.00000000
      vertex -3.30816425 -7.49772769 0.00000000
      vertex -3.34710982 -7.26084786 0.00000000
    endloop
  endfacet
  facet normal 0.00000000 0.00000000 1.00000000
    outer loop
      vertex -4.61154153 -7.46873314 0.00000000
      vertex -4.57259624 -7.70561302 0.00000000
      vertex -3.30816425 -7.49772769 0.00000000
    endloop
  endfacet
  facet normal -0.00000000 0.00000000 1.00000000
    outer loop
      vertex -3.34710982 -7.26084786 0.00000000
      vertex -2.04374152 -7.28984236 0.00000000
      vertex -2.08268737 -7.05296258 0.00000000
    endloop
  endfacet
  facet normal 0.00000000 0.00000000 1.00000000
    outer loop
      vertex -3.34710982 -7.26084786 0.00000000
      vertex -3.30816425 -7.49772769 0.00000000
      vertex -2.04374152 -7.28984236 0.00000000
    endloop
  endfacet
  facet normal -0.00000000 0.00000000 1.00000000
    outer loop
      vertex -2.08268737 -7.05296258 0.00000000
      vertex -0.77932806 -7.08195704 0.00000000
      vertex -0.81827418 -6.84507730 0.00000000
    endloop
  endfacet
  facet normal 0.00000000 0.00000000 1.00000000
    outer loop
      vertex -2.08268737 -7.05296258 0.00000000
      vertex -2.04374152 -7.28984236 0.00000000
      vertex -0.77932806 -7.08195704 0.00000000
    endloop
  endfacet
  facet normal -0.00000000 0.00000000 1.00000000
    outer loop
      vertex -0.81827418 -6.84507730 0.00000000
      vertex 0.48507614 -6.87407171 0.00000000
      vertex 0.44612974 -6.63719202 0.00000000
    endloop
  endfacet
  facet normal 0.00000000 0.00000000 1.00000000
    outer loop
      vertex -0.81827418 -6.84507730 0.00000000
      vertex -0.77932806 -7.08195704 0.00000000
      vertex 0.48507614 -6.87407171 0.00000000
    endloop
  endfacet
  facet normal -0.00000000 0.00000000 1.00000000
    outer loop
      vertex 0.44612974 -6.63719202 0.00000000
      vertex 1.74947108 -6.66618638 0.00000000
      vertex 1.71052441 -6.42930673 0.00000000
    endloop
  endfacet
  facet normal 0.00000000 0.00000000 1.00000000
    outer loop
      vertex 0.44612974 -6.63719202 0.00000000
      vertex 0.48507614 -6.87407171 0.00000000
      vertex 1.74947108 -6.66618638 0.00000000
    endloop
  endfacet
  facet normal -0.00000000 0.00000000 1.00000000
    outer loop
      vertex 1.71052441 -6.42930673 0.00000000
      vertex 3.01385676 -6.45830105 0.00000000
      vertex 2.97490981 -6.22142145 0.00000000
    endloop
  endfacet
  facet normal 0.00000000 0.00000000 1.00000000
    outer loop
      vertex 1.71052441 -6.42930673 0.00000000
      vertex 1.74947108 -6.66618638 0.00000000
      vertex 3.01385676 -6.45830105 0.00000000
    endloop
  endfacet
  facet normal -0.00000000 0.00000000 1.00000000
    outer loop
      vertex 2.97490981 -6.22142145 0.00000000
      vertex 4.27823318 -6.25041573 0.00000000
      vertex 4.23928595 -6.01353617 0.00000000
    endloop
  endfacet
  facet normal 0.00000000 0.00000000 1.00000000
    outer loop
      vertex 2.97490981 -6.22142145 0.00000000
      vertex 3.01385676 -6.45830105 0.00000000
      vertex 4.27823318 -6.25041573 0.00000000
    endloop
  endfacet
  facet normal -0.00000000 0.00000000 1.00000000
    outer loop
      vertex 4.23928595 -6.01353617 0.00000000
      vertex 5.54260034 -6.04253040 0.00000000
      vertex 5.50365283 -5.80565089 0.00000000
    endloop
  endfacet
  facet normal 0.00000000 0.00000000 1.00000000
    outer loop
      vertex 4.23928595 -6.01353617 0.00000000
      vertex 4.27823318 -6.25041573 0.00000000
      vertex 5.54260034 -6.04253040 0.00000000
    endloop
  endfacet
  facet normal -0.00000000 0.00000000 1.00000000
    outer loop
      vertex 5.50365283 -5.80565089 0.00000000
      vertex 6.80695823 -5.83464507 0.00000000
      vertex 6.76801044 -5.59776561 0.00000000
    endloop
  endfacet
  facet normal 0.00000000 0.00000000 1.00000000
    outer loop
      vertex 5.50365283 -5.80565089 0.00000000
      vertex 5.54260034 -6.04253040 0.00000000
      vertex 6.80695823 -5.83464507 0.00000000
    endloop
  endfacet
  facet normal -0.00000000 0.00000000 1.00000000
    outer loop
      vertex 6.76801044 -5.59776561 0.00000000
      vertex 8.07130687 -5.62675974 0.00000000
      vertex 8.03235880 -5.38988033 0.00000000
    endloop
  endfacet
  facet normal 0.00000000 0.00000000 1.00000000
    outer loop
      vertex 6.76801044 -5.59776561 0.00000000
      vertex 6.80695823 -5.83464507 0.00000000
      vertex 8.07130687 -5.62675974 0.00000000
    endloop
  endfacet
  facet normal -0.00000000 0.00000000 1.00000000
    outer loop
      vertex 8.03235880 -5.38988033 0.00000000
      vertex 9.33564624 -5.41887442 0.00000000
      vertex 9.29669789 -5.18199504 0.00000000
    endloop
  endfacet
  facet normal 0.00000000 0.00000000 1.00000000
    outer loop
      vertex 8.03235880 -5.38988033 0.00000000
      vertex 8.07130687 -5.62675974 0.00000000
      vertex 9.33564624 -5.41887442 0.00000000
    endloop
  endfacet
  facet normal -0.00000000 0.00000000 1.00000000
    outer loop
      vertex 9.29669789 -5.18199504 0.00000000
      vertex 10.59997635 -5.21098909 0.00000000
      vertex 10.56102773 -4.97410976 0.00000000
    endloop
  endfacet
  facet normal 0.00000000 0.00000000 1.00000000
    outer loop
      vertex 9.29669789 -5.18199504 0.00000000
      vertex 9.33564624 -5.41887442 0.00000000
      vertex 10.59997635 -5.21098909 0.00000000
    endloop
  endfacet
  facet normal -0.00000000 0.00000000 1.00000000
    outer loop
      vertex 10.56102773 -4.97410976 0.00000000
      vertex 11.86648051 -5.00274477 0.00000000
      vertex 11.82316499 -4.76658347 0.00000000
    endloop
  endfacet
  facet normal 0.00000000 0.00000000 1.00000000
    outer loop
      vertex 10.56102773 -4.97410976 0.00000000
      vertex 10.59997635 -5.21098909 0.00000000
      vertex 11.86648051 -5.00274477 0.00000000
    endloop
  endfacet
  facet normal -0.00000000 0.00000000 1.00000000
    outer loop
      vertex 11.82316499 -4.76658347 0.00000000
      vertex 12.33775255 -4.90729602 0.00000000
      vertex 12.28379258 -4.67329059 0.00000000
    endloop
  endfacet
  facet normal 0.00000000 0.00000000 1.00000000
    outer loop
      vertex 11.82316499 -4.76658347 0.00000000
      vertex 11.86648051 -5.00274477 0.00000000
      vertex 12.33775255 -4.90729602 0.00000000
    endloop
  endfacet
  facet normal -0.00000000 0.00000000 1.00000000
    outer loop
      vertex 12.28379258 -4.67329059 0.00000000
      vertex 12.77962520 -4.79285084 0.00000000
      vertex 12.71247090 -4.56226274 0.00000000
    endloop
  endfacet
  facet normal 0.00000000 0.00000000 1.00000000
    outer loop
      vertex 12.28379258 -4.67329059 0.00000000
      vertex 12.33775255 -4.90729602 0.00000000
      vertex 12.77962520 -4.79285084 0.00000000
    endloop
  endfacet
  facet normal -0.00000000 0.00000000 1.00000000
    outer loop
      vertex 12.71247090 -4.56226274 0.00000000
      vertex 13.19147031 -4.65940137 0.00000000
      vertex 13.10982810 -4.43350776 0.00000000
    endloop
  endfacet
  facet normal 0.00000000 0.00000000 1.00000000
    outer loop
      vertex 12.71247090 -4.56226274 0.00000000
      vertex 12.77962520 -4.79285084 0.00000000
      vertex 13.19147031 -4.65940137 0.00000000
    endloop
  endfacet
  facet normal -0.00000000 0.00000000 1.00000000
    outer loop
      vertex 13.10982810 -4.43350776 0.00000000
      vertex 13.57328127 -4.50678196 0.00000000
      vertex 13.47587077 -4.28719133 0.00000000
    endloop
  endfacet
  facet normal 0.00000000 0.00000000 1.00000000
    outer loop
      vertex 13.10982810 -4.43350776 0.00000000
      vertex 13.19147031 -4.65940137 0.00000000
      vertex 13.57328127 -4.50678196 0.00000000
    endloop
  endfacet
  facet normal -0.00000000 0.00000000 1.00000000
    outer loop
      vertex 13.47587077 -4.28719133 0.00000000
      vertex 13.92500143 -4.33480805 0.00000000
      vertex 13.81065557 -4.12349799 0.00000000
    endloop
  endfacet
  facet normal 0.00000000 0.00000000 1.00000000
    outer loop
      vertex 13.47587077 -4.28719133 0.00000000
      vertex 13.57328127 -4.50678196 0.00000000
      vertex 13.92500143 -4.33480805 0.00000000
    endloop
  endfacet
  facet normal -0.00000000 0.00000000 1.00000000
    outer loop
      vertex 13.81065557 -4.12349799 0.00000000
      vertex 14.24650346 -4.14329286 0.00000000
      vertex 14.11430982 -3.94261452 0.00000000
    endloop
  endfacet
  facet normal 0.00000000 0.00000000 1.00000000
    outer loop
      vertex 13.81065557 -4.12349799 0.00000000
      vertex 13.92500143 -4.33480805 0.00000000
      vertex 14.24650346 -4.14329286 0.00000000
    endloop
  endfacet
  facet normal 0.00000000 0.00000000 1.00000000
    outer loop
      vertex 14.11430982 -3.94261452 0.00000000
      vertex 14.53757234 -3.93207715 0.00000000
      vertex 14.38704857 -3.74470017 0.00000000
    endloop
  endfacet
  facet normal -0.00000000 0.00000000 1.00000000
    outer loop
      vertex 14.11430982 -3.94261452 0.00000000
      vertex 14.24650346 -4.14329286 0.00000000
      vertex 14.53757234 -3.93207715 0.00000000
    endloop
  endfacet
  facet normal 0.00000000 0.00000000 1.00000000
    outer loop
      vertex 14.38704857 -3.74470017 0.00000000
      vertex 14.79790158 -3.70107166 0.00000000
      vertex 14.62917828 -3.52984420 0.00000000
    endloop
  endfacet
  facet normal -0.00000000 0.00000000 1.00000000
    outer loop
      vertex 14.38704857 -3.74470017 0.00000000
      vertex 14.53757234 -3.93207715 0.00000000
      vertex 14.79790158 -3.70107166 0.00000000
    endloop
  endfacet
  facet normal 0.00000000 0.00000000 1.00000000
    outer loop
      vertex 14.62917828 -3.52984420 0.00000000
      vertex 15.02711409 -3.45030371 0.00000000
      vertex 14.84107604 -3.29801928 0.00000000
    endloop
  endfacet
  facet normal -0.00000000 0.00000000 1.00000000
    outer loop
      vertex 14.62917828 -3.52984420 0.00000000
      vertex 14.79790158 -3.70107166 0.00000000
      vertex 15.02711409 -3.45030371 0.00000000
    endloop
  endfacet
  facet normal 0.00000000 0.00000000 1.00000000
    outer loop
      vertex 14.84107604 -3.29801928 0.00000000
      vertex 15.22481303 -3.17995025 0.00000000
      vertex 15.02313871 -3.04904846 0.00000000
    endloop
  endfacet
  facet normal -0.00000000 0.00000000 1.00000000
    outer loop
      vertex 14.84107604 -3.29801928 0.00000000
      vertex 15.02711409 -3.45030371 0.00000000
      vertex 15.22481303 -3.17995025 0.00000000
    endloop
  endfacet
  facet normal 0.00000000 0.00000000 1.00000000
    outer loop
      vertex 15.02313871 -3.04904846 0.00000000
      vertex 15.39065363 -2.89033699 0.00000000
      vertex 15.17571104 -2.78260604 0.00000000
    endloop
  endfacet
  facet normal -0.00000000 0.00000000 1.00000000
    outer loop
      vertex 15.02313871 -3.04904846 0.00000000
      vertex 15.22481303 -3.17995025 0.00000000
      vertex 15.39065363 -2.89033699 0.00000000
    endloop
  endfacet
  facet normal 0.00000000 0.00000000 1.00000000
    outer loop
      vertex 15.17571104 -2.78260604 0.00000000
      vertex 15.52441115 -2.58189377 0.00000000
      vertex 15.29901779 -2.49826218 0.00000000
    endloop
  endfacet
  facet normal -0.00000000 0.00000000 1.00000000
    outer loop
      vertex 15.17571104 -2.78260604 0.00000000
      vertex 15.39065363 -2.89033699 0.00000000
      vertex 15.52441115 -2.58189377 0.00000000
    endloop
  endfacet
  facet normal 0.00000000 0.00000000 1.00000000
    outer loop
      vertex 15.29901779 -2.49826218 0.00000000
      vertex 15.62601707 -2.25507871 0.00000000
      vertex 15.39312746 -2.19555875 0.00000000
    endloop
  endfacet
  facet normal -0.00000000 0.00000000 1.00000000
    outer loop
      vertex 15.29901779 -2.49826218 0.00000000
      vertex 15.52441115 -2.58189377 0.00000000
      vertex 15.62601707 -2.25507871 0.00000000
    endloop
  endfacet
  facet normal 0.00000000 0.00000000 1.00000000
    outer loop
      vertex 15.39312746 -2.19555875 0.00000000
      vertex 15.69555080 -1.91030014 0.00000000
      vertex 15.45796066 -1.87408743 0.00000000
    endloop
  endfacet
  facet normal -0.00000000 0.00000000 1.00000000
    outer loop
      vertex 15.39312746 -2.19555875 0.00000000
      vertex 15.62601707 -2.25507871 0.00000000
      vertex 15.69555080 -1.91030014 0.00000000
    endloop
  endfacet
  facet normal 0.00000000 0.00000000 1.00000000
    outer loop
      vertex 15.45796066 -1.87408743 0.00000000
      vertex 15.73319683 -1.54786393 0.00000000
      vertex 15.49333288 -1.53354233 0.00000000
    endloop
  endfacet
  facet normal -0.00000000 0.00000000 1.00000000
    outer loop
      vertex 15.45796066 -1.87408743 0.00000000
      vertex 15.69555080 -1.91030014 0.00000000
      vertex 15.73319683 -1.54786393 0.00000000
    endloop
  endfacet
  facet normal 0.00000000 0.00000000 1.00000000
    outer loop
      vertex 15.49333288 -1.53354233 0.00000000
      vertex 15.73919019 -1.16795677 0.00000000
      vertex 15.49900911 -1.17373679 0.00000000
    endloop
  endfacet
  facet normal -0.00000000 0.00000000 1.00000000
    outer loop
      vertex 15.49333288 -1.53354233 0.00000000
      vertex 15.73319683 -1.54786393 0.00000000
      vertex 15.73919019 -1.16795677 0.00000000
    endloop
  endfacet
  facet normal 0.00000000 -0.00000000 1.00000000
    outer loop
      vertex 15.49900911 -1.17373679 0.00000000
      vertex 15.71376991 -0.77065833 0.00000000
      vertex 15.47475030 -0.79459112 0.00000000
    endloop
  endfacet
  facet normal 0.00000000 0.00000000 1.00000000
    outer loop
      vertex 15.49900911 -1.17373679 0.00000000
      vertex 15.73919019 -1.16795677 0.00000000
      vertex 15.71376991 -0.77065833 0.00000000
    endloop
  endfacet
  facet normal 0.00000000 -0.00000000 1.00000000
    outer loop
      vertex 15.47475030 -0.79459112 0.00000000
      vertex 15.65778785 -0.36064158 0.00000000
      vertex 15.41970461 -0.39143235 0.00000000
    endloop
  endfacet
  facet normal 0.00000000 0.00000000 1.00000000
    outer loop
      vertex 15.47475030 -0.79459112 0.00000000
      vertex 15.71376991 -0.77065833 0.00000000
      vertex 15.65778785 -0.36064158 0.00000000
    endloop
  endfacet
  facet normal 0.00000000 -0.00000000 1.00000000
    outer loop
      vertex 15.41970461 -0.39143235 0.00000000
      vertex 15.61720930 -0.02839174 0.00000000
      vertex 15.37892022 -0.05749712 0.00000000
    endloop
  endfacet
  facet normal 0.00000000 0.00000000 1.00000000
    outer loop
      vertex 15.41970461 -0.39143235 0.00000000
      vertex 15.65778785 -0.36064158 0.00000000
      vertex 15.61720930 -0.02839174 0.00000000
    endloop
  endfacet
  facet normal 0.00000000 -0.00000000 1.00000000
    outer loop
      vertex 15.37892022 -0.05749712 0.00000000
      vertex 15.57651827 0.30472178 0.00000000
      vertex 15.33822979 0.27561147 0.00000000
    endloop
  endfacet
  facet normal 0.00000000 0.00000000 1.00000000
    outer loop
      vertex 15.37892022 -0.05749712 0.00000000
      vertex 15.61720930 -0.02839174 0.00000000
      vertex 15.57651827 0.30472178 0.00000000
    endloop
  endfacet
  facet normal 0.00000000 -0.00000000 1.00000000
    outer loop
      vertex 15.33822979 0.27561147 0.00000000
      vertex 15.53581798 0.63785382 0.00000000
      vertex 15.29753010 0.60873858 0.00000000
    endloop
  endfacet
  facet normal 0.00000000 0.00000000 1.00000000
    outer loop
      vertex 15.33822979 0.27561147 0.00000000
      vertex 15.57651827 0.30472178 0.00000000
      vertex 15.53581798 0.63785382 0.00000000
    endloop
  endfacet
  facet normal 0.00000000 -0.00000000 1.00000000
    outer loop
      vertex 15.29753010 0.60873858 0.00000000
      vertex 15.49510843 0.97100439 0.00000000
      vertex 15.25682115 0.94188422 0.00000000
    endloop
  endfacet
  facet normal 0.00000000 0.00000000 1.00000000
    outer loop
      vertex 15.29753010 0.60873858 0.00000000
      vertex 15.53581798 0.63785382 0.00000000
      vertex 15.49510843 0.97100439 0.00000000
    endloop
  endfacet
  facet normal 0.00000000 -0.00000000 1.00000000
    outer loop
      vertex 15.25682115 0.94188422 0.00000000
      vertex 15.45438962 1.30417348 0.00000000
      vertex 15.21610294 1.27504838 0.00000000
    endloop
  endfacet
  facet normal 0.00000000 0.00000000 1.00000000
    outer loop
      vertex 15.25682115 0.94188422 0.00000000
      vertex 15.49510843 0.97100439 0.00000000
      vertex 15.45438962 1.30417348 0.00000000
    endloop
  endfacet
  facet normal 0.00000000 -0.00000000 1.00000000
    outer loop
      vertex 15.21610294 1.27504838 0.00000000
      vertex 15.41366154 1.63736110 0.00000000
      vertex 15.17537547 1.60823106 0.00000000
    endloop
  endfacet
  facet normal 0.00000000 0.00000000 1.00000000
    outer loop
      vertex 15.21610294 1.27504838 0.00000000
      vertex 15.45438962 1.30417348 0.00000000
      vertex 15.41366154 1.63736110 0.00000000
    endloop
  endfacet
  facet normal 0.00000000 -0.00000000 1.00000000
    outer loop
      vertex 15.17537547 1.60823106 0.00000000
      vertex 15.37292420 1.97056723 0.00000000
      vertex 15.13463873 1.94143227 0.00000000
    endloop
  endfacet
  facet normal 0.00000000 0.00000000 1.00000000
    outer loop
      vertex 15.17537547 1.60823106 0.00000000
      vertex 15.41366154 1.63736110 0.00000000
      vertex 15.37292420 1.97056723 0.00000000
    endloop
  endfacet
  facet normal 0.00000000 -0.00000000 1.00000000
    outer loop
      vertex 15.13463873 1.94143227 0.00000000
      vertex 15.33217760 2.30379189 0.00000000
      vertex 15.09389274 2.27465200 0.00000000
    endloop
  endfacet
  facet normal 0.00000000 0.00000000 1.00000000
    outer loop
      vertex 15.13463873 1.94143227 0.00000000
      vertex 15.37292420 1.97056723 0.00000000
      vertex 15.33217760 2.30379189 0.00000000
    endloop
  endfacet
  facet normal 0.00000000 -0.00000000 1.00000000
    outer loop
      vertex 15.09389274 2.27465200 0.00000000
      vertex 15.29142174 2.63703507 0.00000000
      vertex 15.05313748 2.60789025 0.00000000
    endloop
  endfacet
  facet normal 0.00000000 0.00000000 1.00000000
    outer loop
      vertex 15.09389274 2.27465200 0.00000000
      vertex 15.33217760 2.30379189 0.00000000
      vertex 15.29142174 2.63703507 0.00000000
    endloop
  endfacet
  facet normal 0.00000000 -0.00000000 1.00000000
    outer loop
      vertex 15.05313748 2.60789025 0.00000000
      vertex 15.25065662 2.97029678 0.00000000
      vertex 15.01237296 2.94114703 0.00000000
    endloop
  endfacet
  facet normal 0.00000000 0.00000000 1.00000000
    outer loop
      vertex 15.05313748 2.60789025 0.00000000
      vertex 15.29142174 2.63703507 0.00000000
      vertex 15.25065662 2.97029678 0.00000000
    endloop
  endfacet
  facet normal 0.00000000 -0.00000000 1.00000000
    outer loop
      vertex 15.01237296 2.94114703 0.00000000
      vertex 15.20988224 3.30357701 0.00000000
      vertex 14.97159918 3.27442233 0.00000000
    endloop
  endfacet
  facet normal 0.00000000 0.00000000 1.00000000
    outer loop
      vertex 15.01237296 2.94114703 0.00000000
      vertex 15.25065662 2.97029678 0.00000000
      vertex 15.20988224 3.30357701 0.00000000
    endloop
  endfacet
  facet normal 0.00000000 -0.00000000 1.00000000
    outer loop
      vertex 14.97159918 3.27442233 0.00000000
      vertex 15.16909859 3.63687576 0.00000000
      vertex 14.93081614 3.60771615 0.00000000
    endloop
  endfacet
  facet normal 0.00000000 0.00000000 1.00000000
    outer loop
      vertex 14.97159918 3.27442233 0.00000000
      vertex 15.20988224 3.30357701 0.00000000
      vertex 15.16909859 3.63687576 0.00000000
    endloop
  endfacet
  facet normal 0.00000000 -0.00000000 1.00000000
    outer loop
      vertex 14.93081614 3.60771615 0.00000000
      vertex 15.12830568 3.97019303 0.00000000
      vertex 14.89002383 3.94102850 0.00000000
    endloop
  endfacet
  facet normal 0.00000000 0.00000000 1.00000000
    outer loop
      vertex 14.93081614 3.60771615 0.00000000
      vertex 15.16909859 3.63687576 0.00000000
      vertex 15.12830568 3.97019303 0.00000000
    endloop
  endfacet
  facet normal 0.00000000 -0.00000000 1.00000000
    outer loop
      vertex 14.89002383 3.94102850 0.00000000
      vertex 15.08750352 4.30352883 0.00000000
      vertex 14.84922227 4.27435937 0.00000000
    endloop
  endfacet
  facet normal 0.00000000 0.00000000 1.00000000
    outer loop
      vertex 14.89002383 3.94102850 0.00000000
      vertex 15.12830568 3.97019303 0.00000000
      vertex 15.08750352 4.30352883 0.00000000
    endloop
  endfacet
  facet normal 0.00000000 -0.00000000 1.00000000
    outer loop
      vertex 14.84922227 4.27435937 0.00000000
      vertex 15.04669209 4.63688315 0.00000000
      vertex 14.80841144 4.60770876 0.00000000
    endloop
  endfacet
  facet normal 0.00000000 0.00000000 1.00000000
    outer loop
      vertex 14.84922227 4.27435937 0.00000000
      vertex 15.08750352 4.30352883 0.00000000
      vertex 15.04669209 4.63688315 0.00000000
    endloop
  endfacet
  facet normal 0.00000000 -0.00000000 1.00000000
    outer loop
      vertex 14.80841144 4.60770876 0.00000000
      vertex 15.00587139 4.97025599 0.00000000
      vertex 14.76759135 4.94107668 0.00000000
    endloop
  endfacet
  facet normal 0.00000000 0.00000000 1.00000000
    outer loop
      vertex 14.80841144 4.60770876 0.00000000
      vertex 15.04669209 4.63688315 0.00000000
      vertex 15.00587139 4.97025599 0.00000000
    endloop
  endfacet
  facet normal 0.00000000 -0.00000000 1.00000000
    outer loop
      vertex 14.76759135 4.94107668 0.00000000
      vertex 14.96504144 5.30364735 0.00000000
      vertex 14.72676200 5.27446312 0.00000000
    endloop
  endfacet
  facet normal 0.00000000 0.00000000 1.00000000
    outer loop
      vertex 14.76759135 4.94107668 0.00000000
      vertex 15.00587139 4.97025599 0.00000000
      vertex 14.96504144 5.30364735 0.00000000
    endloop
  endfacet
  facet normal 0.00000000 -0.00000000 1.00000000
    outer loop
      vertex 14.72676200 5.27446312 0.00000000
      vertex 14.92354437 5.64242792 0.00000000
      vertex 14.68658124 5.60249740 0.00000000
    endloop
  endfacet
  facet normal 0.00000000 0.00000000 1.00000000
    outer loop
      vertex 14.72676200 5.27446312 0.00000000
      vertex 14.96504144 5.30364735 0.00000000
      vertex 14.92354437 5.64242792 0.00000000
    endloop
  endfacet
  facet normal 0.00000000 -0.00000000 1.00000000
    outer loop
      vertex 14.68658124 5.60249740 0.00000000
      vertex 14.82723673 6.08988347 0.00000000
      vertex 14.59474926 6.02915853 0.00000000
    endloop
  endfacet
  facet normal 0.00000000 0.00000000 1.00000000
    outer loop
      vertex 14.68658124 5.60249740 0.00000000
      vertex 14.92354437 5.64242792 0.00000000
      vertex 14.82723673 6.08988347 0.00000000
    endloop
  endfacet
  facet normal 0.00000000 -0.00000000 1.00000000
    outer loop
      vertex 14.59474926 6.02915853 0.00000000
      vertex 14.69948278 6.50437818 0.00000000
      vertex 14.47349652 6.42256023 0.00000000
    endloop
  endfacet
  facet normal 0.00000000 0.00000000 1.00000000
    outer loop
      vertex 14.59474926 6.02915853 0.00000000
      vertex 14.82723673 6.08988347 0.00000000
      vertex 14.69948278 6.50437818 0.00000000
    endloop
  endfacet
  facet normal 0.00000000 -0.00000000 1.00000000
    outer loop
      vertex 14.47349652 6.42256023 0.00000000
      vertex 14.53984513 6.88646743 0.00000000
      vertex 14.32326039 6.78214714 0.00000000
    endloop
  endfacet
  facet normal 0.00000000 0.00000000 1.00000000
    outer loop
      vertex 14.47349652 6.42256023 0.00000000
      vertex 14.69948278 6.50437818 0.00000000
      vertex 14.53984513 6.88646743 0.00000000
    endloop
  endfacet
  facet normal 0.00000000 -0.00000000 1.00000000
    outer loop
      vertex 14.32326039 6.78214714 0.00000000
      vertex 14.34809766 7.23581380 0.00000000
      vertex 14.14426703 7.10825668 0.00000000
    endloop
  endfacet
  facet normal 0.00000000 0.00000000 1.00000000
    outer loop
      vertex 14.32326039 6.78214714 0.00000000
      vertex 14.53984513 6.88646743 0.00000000
      vertex 14.34809766 7.23581380 0.00000000
    endloop
  endfacet
  facet normal 0.00000000 0.00000000 1.00000000
    outer loop
      vertex 14.14426703 7.10825668 0.00000000
      vertex 14.12414358 7.55193592 0.00000000
      vertex 13.93661321 7.40137020 0.00000000
    endloop
  endfacet
  facet normal 0.00000000 -0.00000000 1.00000000
    outer loop
      vertex 14.14426703 7.10825668 0.00000000
      vertex 14.34809766 7.23581380 0.00000000
      vertex 14.12414358 7.55193592 0.00000000
    endloop
  endfacet
  facet normal 0.00000000 0.00000000 1.00000000
    outer loop
      vertex 13.93661321 7.40137020 0.00000000
      vertex 13.86808871 7.83426851 0.00000000
      vertex 13.70019311 7.66205299 0.00000000
    endloop
  endfacet
  facet normal 0.00000000 -0.00000000 1.00000000
    outer loop
      vertex 13.93661321 7.40137020 0.00000000
      vertex 14.12414358 7.55193592 0.00000000
      vertex 13.86808871 7.83426851 0.00000000
    endloop
  endfacet
  facet normal 0.00000000 0.00000000 1.00000000
    outer loop
      vertex 13.70019311 7.66205299 0.00000000
      vertex 13.58026827 8.08227313 0.00000000
      vertex 13.43467151 7.89084350 0.00000000
    endloop
  endfacet
  facet normal 0.00000000 -0.00000000 1.00000000
    outer loop
      vertex 13.70019311 7.66205299 0.00000000
      vertex 13.86808871 7.83426851 0.00000000
      vertex 13.58026827 8.08227313 0.00000000
    endloop
  endfacet
  facet normal 0.00000000 0.00000000 1.00000000
    outer loop
      vertex 13.43467151 7.89084350 0.00000000
      vertex 13.26119805 8.29555915 0.00000000
      vertex 13.13953262 8.08813235 0.00000000
    endloop
  endfacet
  facet normal 0.00000000 -0.00000000 1.00000000
    outer loop
      vertex 13.43467151 7.89084350 0.00000000
      vertex 13.58026827 8.08227313 0.00000000
      vertex 13.26119805 8.29555915 0.00000000
    endloop
  endfacet
  facet normal 0.00000000 0.00000000 1.00000000
    outer loop
      vertex 13.13953262 8.08813235 0.00000000
      vertex 12.91146246 8.47395836 0.00000000
      vertex 12.81419204 8.25408774 0.00000000
    endloop
  endfacet
  facet normal 0.00000000 -0.00000000 1.00000000
    outer loop
      vertex 13.13953262 8.08813235 0.00000000
      vertex 13.26119805 8.29555915 0.00000000
      vertex 12.91146246 8.47395836 0.00000000
    endloop
  endfacet
  facet normal 0.00000000 0.00000000 1.00000000
    outer loop
      vertex 12.81419204 8.25408774 0.00000000
      vertex 12.53159172 8.61752256 0.00000000
      vertex 12.45811953 8.38865789 0.00000000
    endloop
  endfacet
  facet normal 0.00000000 -0.00000000 1.00000000
    outer loop
      vertex 12.81419204 8.25408774 0.00000000
      vertex 12.91146246 8.47395836 0.00000000
      vertex 12.53159172 8.61752256 0.00000000
    endloop
  endfacet
  facet normal 0.00000000 0.00000000 1.00000000
    outer loop
      vertex 12.45811953 8.38865789 0.00000000
      vertex 12.12197982 8.72646007 0.00000000
      vertex 12.07092111 8.49163447 0.00000000
    endloop
  endfacet
  facet normal 0.00000000 -0.00000000 1.00000000
    outer loop
      vertex 12.45811953 8.38865789 0.00000000
      vertex 12.53159172 8.61752256 0.00000000
      vertex 12.12197982 8.72646007 0.00000000
    endloop
  endfacet
  facet normal 0.00000000 0.00000000 1.00000000
    outer loop
      vertex 12.07092111 8.49163447 0.00000000
      vertex 11.68286140 8.80105321 0.00000000
      vertex 11.65236216 8.56273516 0.00000000
    endloop
  endfacet
  facet normal 0.00000000 -0.00000000 1.00000000
    outer loop
      vertex 12.07092111 8.49163447 0.00000000
      vertex 12.12197982 8.72646007 0.00000000
      vertex 11.68286140 8.80105321 0.00000000
    endloop
  endfacet
  facet normal 0.00000000 0.00000000 1.00000000
    outer loop
      vertex 11.65236216 8.56273516 0.00000000
      vertex 11.21433277 8.84159087 0.00000000
      vertex 11.20234633 8.60167107 0.00000000
    endloop
  endfacet
  facet normal 0.00000000 -0.00000000 1.00000000
    outer loop
      vertex 11.65236216 8.56273516 0.00000000
      vertex 11.68286140 8.80105321 0.00000000
      vertex 11.21433277 8.84159087 0.00000000
    endloop
  endfacet
  facet normal 0.00000000 0.00000000 1.00000000
    outer loop
      vertex 11.20234633 8.60167107 0.00000000
      vertex 10.71639173 8.84832896 0.00000000
      vertex 10.72087585 8.60818629 0.00000000
    endloop
  endfacet
  facet normal 0.00000000 -0.00000000 1.00000000
    outer loop
      vertex 11.20234633 8.60167107 0.00000000
      vertex 11.21433277 8.84159087 0.00000000
      vertex 10.71639173 8.84832896 0.00000000
    endloop
  endfacet
  facet normal 0.00000000 0.00000000 1.00000000
    outer loop
      vertex 10.72087585 8.60818629 0.00000000
      vertex 10.18897675 8.82147504 0.00000000
      vertex 10.20801225 8.58207327 0.00000000
    endloop
  endfacet
  facet normal 0.00000000 0.00000000 1.00000000
    outer loop
      vertex 10.72087585 8.60818629 0.00000000
      vertex 10.71639173 8.84832896 0.00000000
      vertex 10.18897675 8.82147504 0.00000000
    endloop
  endfacet
  facet normal 0.00000000 0.00000000 1.00000000
    outer loop
      vertex 10.20801225 8.58207327 0.00000000
      vertex 9.63199709 8.76118797 0.00000000
      vertex 9.66384625 8.52317314 0.00000000
    endloop
  endfacet
  facet normal 0.00000000 0.00000000 1.00000000
    outer loop
      vertex 10.20801225 8.58207327 0.00000000
      vertex 10.18897675 8.82147504 0.00000000
      vertex 9.63199709 8.76118797 0.00000000
    endloop
  endfacet
  facet normal 0.00000000 0.00000000 1.00000000
    outer loop
      vertex 9.66384625 8.52317314 0.00000000
      vertex 9.04535265 8.66758464 0.00000000
      vertex 9.08847796 8.43136900 0.00000000
    endloop
  endfacet
  facet normal 0.00000000 0.00000000 1.00000000
    outer loop
      vertex 9.66384625 8.52317314 0.00000000
      vertex 9.63199709 8.76118797 0.00000000
      vertex 9.04535265 8.66758464 0.00000000
    endloop
  endfacet
  facet normal 0.00000000 0.00000000 1.00000000
    outer loop
      vertex 9.08847796 8.43136900 0.00000000
      vertex 8.43128407 8.54122989 0.00000000
      vertex 8.47966675 8.30609604 0.00000000
    endloop
  endfacet
  facet normal 0.00000000 0.00000000 1.00000000
    outer loop
      vertex 9.08847796 8.43136900 0.00000000
      vertex 9.04535265 8.66758464 0.00000000
      vertex 8.43128407 8.54122989 0.00000000
    endloop
  endfacet
endsolid lane_yellow_line_17
