solid lane_yellow_line_09
  facet normal 0.00000000 0.00000000 1.00000000
    outer loop
      vertex 0.16165096 0.49572592 0.00000000
      vertex -0.08225548 0.45920780 0.00000000
      vertex 0.15698504 0.43938906 0.00000000
    endloop
  endfacet
  facet normal 0.00000000 0.00000000 1.00000000
    outer loop
      vertex 0.16165096 0.49572592 0.00000000
      vertex -0.07758993 0.51554026 0.00000000
      vertex -0.08225548 0.45920780 0.00000000
    endloop
  endfacet
  facet normal 0.00000000 0.00000000 1.00000000
    outer loop
      vertex 0.15698504 0.43938906 0.00000000
      vertex -0.08692140 0.40289605 0.00000000
      vertex 0.15231839 0.38306852 0.00000000
    endloop
  endfacet
  facet normal 0.00000000 0.00000000 1.00000000
    outer loop
      vertex 0.15698504 0.43938906 0.00000000
      vertex -0.08225548 0.45920780 0.00000000
      vertex -0.08692140 0.40289605 0.00000000
    endloop
  endfacet
  facet normal 0.00000000 0.00000000 1.00000000
    outer loop
      vertex 0.15231839 0.38306852 0.00000000
      vertex -0.09158787 0.34660282 0.00000000
      vertex 0.14765120 0.32676649 0.00000000
    endloop
  endfacet
  facet normal 0.00000000 0.00000000 1.00000000
    outer loop
      vertex 0.15231839 0.38306852 0.00000000
      vertex -0.08692140 0.40289605 0.00000000
      vertex -0.09158787 0.34660282 0.00000000
    endloop
  endfacet
  facet normal 0.00000000 0.00000000 1.00000000
    outer loop
      vertex 0.14765120 0.32676649 0.00000000
      vertex -0.09625489 0.29032810 0.00000000
      vertex 0.14298345 0.27048298 0.00000000
    endloop
  endfacet
  facet normal 0.00000000 0.00000000 1.00000000
    outer loop
      vertex 0.14765120 0.32676649 0.00000000
      vertex -0.09158787 0.34660282 0.00000000
      vertex -0.09625489 0.29032810 0.00000000
    endloop
  endfacet
  facet normal 0.00000000 0.00000000 1.00000000
    outer loop
      vertex 0.14298345 0.27048298 0.00000000
      vertex -0.10092245 0.23407191 0.00000000
      vertex 0.13831516 0.21421797 0.00000000
    endloop
  endfacet
  facet normal 0.00000000 0.00000000 1.00000000
    outer loop
      vertex 0.14298345 0.27048298 0.00000000
      vertex -0.09625489 0.29032810 0.00000000
      vertex -0.10092245 0.23407191 0.00000000
    endloop
  endfacet
  facet normal 0.00000000 0.00000000 1.00000000
    outer loop
      vertex 0.13831516 0.21421797 0.00000000
      vertex -0.10559057 0.17783423 0.00000000
      vertex 0.13364631 0.15797148 0.00000000
    endloop
  endfacet
  facet normal 0.00000000 0.00000000 1.00000000
    outer loop
      vertex 0.13831516 0.21421797 0.00000000
      vertex -0.10092245 0.23407191 0.00000000
      vertex -0.10559057 0.17783423 0.00000000
    endloop
  endfacet
  facet normal 0.00000000 0.00000000 1.00000000
    outer loop
      vertex 0.13364631 0.15797148 0.00000000
      vertex -0.11025923 0.12161507 0.00000000
      vertex 0.12897691 0.10174350 0.00000000
    endloop
  endfacet
  facet normal 0.00000000 0.00000000 1.00000000
    outer loop
      vertex 0.13364631 0.15797148 0.00000000
      vertex -0.10559057 0.17783423 0.00000000
      vertex -0.11025923 0.12161507 0.00000000
    endloop
  endfacet
  facet normal 0.00000000 0.00000000 1.00000000
    outer loop
      vertex 0.12897691 0.10174350 0.00000000
      vertex -0.11492844 0.06541442 0.00000000
      vertex 0.12430697 0.04553403 0.00000000
    endloop
  endfacet
  facet normal 0.00000000 0.00000000 1.00000000
    outer loop
      vertex 0.12897691 0.10174350 0.00000000
      vertex -0.11025923 0.12161507 0.00000000
      vertex -0.11492844 0.06541442 0.00000000
    endloop
  endfacet
  facet normal 0.00000000 0.00000000 1.00000000
    outer loop
      vertex 0.12430697 0.04553403 0.00000000
      vertex -0.11959820 0.00923230 0.00000000
      vertex 0.11963647 -0.01065692 0.00000000
    endloop
  endfacet
  facet normal 0.00000000 0.00000000 1.00000000
    outer loop
      vertex 0.12430697 0.04553403 0.00000000
      vertex -0.11492844 0.06541442 0.00000000
      vertex -0.11959820 0.00923230 0.00000000
    endloop
  endfacet
  facet normal 0.00000000 0.00000000 1.00000000
    outer loop
      vertex 0.11963647 -0.01065692 0.00000000
      vertex -0.12426851 -0.04693131 0.00000000
      vertex 0.11496543 -0.06682937 0.00000000
    endloop
  endfacet
  facet normal 0.00000000 0.00000000 1.00000000
    outer loop
      vertex 0.11963647 -0.01065692 0.00000000
      vertex -0.11959820 0.00923230 0.00000000
      vertex -0.12426851 -0.04693131 0.00000000
    endloop
  endfacet
  facet normal 0.00000000 0.00000000 1.00000000
    outer loop
      vertex 0.11496543 -0.06682937 0.00000000
      vertex -0.12893937 -0.10307640 0.00000000
      vertex 0.11029383 -0.12298330 0.00000000
    endloop
  endfacet
  facet normal 0.00000000 0.00000000 1.00000000
    outer loop
      vertex 0.11496543 -0.06682937 0.00000000
      vertex -0.12426851 -0.04693131 0.00000000
      vertex -0.12893937 -0.10307640 0.00000000
    endloop
  endfacet
  facet normal 0.00000000 0.00000000 1.00000000
    outer loop
      vertex 0.11029383 -0.12298330 0.00000000
      vertex -0.13361078 -0.15920297 0.00000000
      vertex 0.10562168 -0.17911872 0.00000000
    endloop
  endfacet
  facet normal 0.00000000 0.00000000 1.00000000
    outer loop
      vertex 0.11029383 -0.12298330 0.00000000
      vertex -0.12893937 -0.10307640 0.00000000
      vertex -0.13361078 -0.15920297 0.00000000
    endloop
  endfacet
  facet normal 0.00000000 0.00000000 1.00000000
    outer loop
      vertex 0.10562168 -0.17911872 0.00000000
      vertex -0.13828274 -0.21531102 0.00000000
      vertex 0.10094899 -0.23523563 0.00000000
    endloop
  endfacet
  facet normal 0.00000000 0.00000000 1.00000000
    outer loop
      vertex 0.10562168 -0.17911872 0.00000000
      vertex -0.13361078 -0.15920297 0.00000000
      vertex -0.13828274 -0.21531102 0.00000000
    endloop
  endfacet
  facet normal 0.00000000 0.00000000 1.00000000
    outer loop
      vertex 0.10094899 -0.23523563 0.00000000
      vertex -0.14295525 -0.27140055 0.00000000
      vertex 0.09627574 -0.29133402 0.00000000
    endloop
  endfacet
  facet normal 0.00000000 0.00000000 1.00000000
    outer loop
      vertex 0.10094899 -0.23523563 0.00000000
      vertex -0.13828274 -0.21531102 0.00000000
      vertex -0.14295525 -0.27140055 0.00000000
    endloop
  endfacet
  facet normal 0.00000000 0.00000000 1.00000000
    outer loop
      vertex 0.09627574 -0.29133402 0.00000000
      vertex -0.14762831 -0.32747157 0.00000000
      vertex 0.09160195 -0.34741390 0.00000000
    endloop
  endfacet
  facet normal 0.00000000 0.00000000 1.00000000
    outer loop
      vertex 0.09627574 -0.29133402 0.00000000
      vertex -0.14295525 -0.27140055 0.00000000
      vertex -0.14762831 -0.32747157 0.00000000
    endloop
  endfacet
  facet normal 0.00000000 0.00000000 1.00000000
    outer loop
      vertex 0.09160195 -0.34741390 0.00000000
      vertex -0.15230191 -0.38352407 0.00000000
      vertex 0.08692760 -0.40347528 0.00000000
    endloop
  endfacet
  facet normal 0.00000000 0.00000000 1.00000000
    outer loop
      vertex 0.09160195 -0.34741390 0.00000000
      vertex -0.14762831 -0.32747157 0.00000000
      vertex -0.15230191 -0.38352407 0.00000000
    endloop
  endfacet
  facet normal 0.00000000 0.00000000 1.00000000
    outer loop
      vertex 0.08692760 -0.40347528 0.00000000
      vertex -0.15697607 -0.43955805 0.00000000
      vertex 0.08225271 -0.45951813 0.00000000
    endloop
  endfacet
  facet normal 0.00000000 0.00000000 1.00000000
    outer loop
      vertex 0.08692760 -0.40347528 0.00000000
      vertex -0.15230191 -0.38352407 0.00000000
      vertex -0.15697607 -0.43955805 0.00000000
    endloop
  endfacet
  facet normal 0.00000000 0.00000000 1.00000000
    outer loop
      vertex 0.08225271 -0.45951813 0.00000000
      vertex -0.16165096 -0.49557574 0.00000000
      vertex 0.07757745 -0.51554026 0.00000000
    endloop
  endfacet
  facet normal 0.00000000 0.00000000 1.00000000
    outer loop
      vertex 0.08225271 -0.45951813 0.00000000
      vertex -0.15697607 -0.43955805 0.00000000
      vertex -0.16165096 -0.49557574 0.00000000
    endloop
  endfacet
endsolid lane_yellow_line_09
