solid lane_yellow_line_15
  facet normal 0.00000000 0.00000000 1.00000000
    outer loop
      vertex 0.14276236 0.40939762 0.00000000
      vertex -0.09953861 0.37692866 0.00000000
      vertex 0.14013381 0.36329260 0.00000000
    endloop
  endfacet
  facet normal 0.00000000 0.00000000 1.00000000
    outer loop
      vertex 0.14276236 0.40939762 0.00000000
      vertex -0.09690846 0.42306177 0.00000000
      vertex -0.09953861 0.37692866 0.00000000
    endloop
  endfacet
  facet normal 0.00000000 0.00000000 1.00000000
    outer loop
      vertex 0.14013381 0.36329260 0.00000000
      vertex -0.10215975 0.33076329 0.00000000
      vertex 0.13751586 0.31718336 0.00000000
    endloop
  endfacet
  facet normal 0.00000000 0.00000000 1.00000000
    outer loop
      vertex 0.14013381 0.36329260 0.00000000
      vertex -0.09953861 0.37692866 0.00000000
      vertex -0.10215975 0.33076329 0.00000000
    endloop
  endfacet
  facet normal 0.00000000 0.00000000 1.00000000
    outer loop
      vertex 0.13751586 0.31718336 0.00000000
      vertex -0.10477107 0.28457969 0.00000000
      vertex 0.13490772 0.27105587 0.00000000
    endloop
  endfacet
  facet normal 0.00000000 0.00000000 1.00000000
    outer loop
      vertex 0.13751586 0.31718336 0.00000000
      vertex -0.10215975 0.33076329 0.00000000
      vertex -0.10477107 0.28457969 0.00000000
    endloop
  endfacet
  facet normal 0.00000000 0.00000000 1.00000000
    outer loop
      vertex 0.13490772 0.27105587 0.00000000
      vertex -0.10737257 0.23837787 0.00000000
      vertex 0.13230937 0.22491011 0.00000000
    endloop
  endfacet
  facet normal 0.00000000 0.00000000 1.00000000
    outer loop
      vertex 0.13490772 0.27105587 0.00000000
      vertex -0.10477107 0.28457969 0.00000000
      vertex -0.10737257 0.23837787 0.00000000
    endloop
  endfacet
  facet normal 0.00000000 0.00000000 1.00000000
    outer loop
      vertex 0.13230937 0.22491011 0.00000000
      vertex -0.10996426 0.19215784 0.00000000
      vertex 0.12972082 0.17874609 0.00000000
    endloop
  endfacet
  facet normal 0.00000000 0.00000000 1.00000000
    outer loop
      vertex 0.13230937 0.22491011 0.00000000
      vertex -0.10737257 0.23837787 0.00000000
      vertex -0.10996426 0.19215784 0.00000000
    endloop
  endfacet
  facet normal 0.00000000 0.00000000 1.00000000
    outer loop
      vertex 0.12972082 0.17874609 0.00000000
      vertex -0.11254613 0.14591958 0.00000000
      vertex 0.12714207 0.13256381 0.00000000
    endloop
  endfacet
  facet normal 0.00000000 0.00000000 1.00000000
    outer loop
      vertex 0.12972082 0.17874609 0.00000000
      vertex -0.10996426 0.19215784 0.00000000
      vertex -0.11254613 0.14591958 0.00000000
    endloop
  endfacet
  facet normal 0.00000000 0.00000000 1.00000000
    outer loop
      vertex 0.12714207 0.13256381 0.00000000
      vertex -0.11511820 0.09966311 0.00000000
      vertex 0.12457312 0.08636327 0.00000000
    endloop
  endfacet
  facet normal 0.00000000 0.00000000 1.00000000
    outer loop
      vertex 0.12714207 0.13256381 0.00000000
      vertex -0.11254613 0.14591958 0.00000000
      vertex -0.11511820 0.09966311 0.00000000
    endloop
  endfacet
  facet normal 0.00000000 0.00000000 1.00000000
    outer loop
      vertex 0.12457312 0.08636327 0.00000000
      vertex -0.11768044 0.05338841 0.00000000
      vertex 0.12201397 0.04014447 0.00000000
    endloop
  endfacet
  facet normal 0.00000000 0.00000000 1.00000000
    outer loop
      vertex 0.12457312 0.08636327 0.00000000
      vertex -0.11511820 0.09966311 0.00000000
      vertex -0.11768044 0.05338841 0.00000000
    endloop
  endfacet
  facet normal 0.00000000 0.00000000 1.00000000
    outer loop
      vertex 0.12201397 0.04014447 0.00000000
      vertex -0.12023287 0.00709550 0.00000000
      vertex 0.11946462 -0.00609259 0.00000000
    endloop
  endfacet
  facet normal 0.00000000 0.00000000 1.00000000
    outer loop
      vertex 0.12201397 0.04014447 0.00000000
      vertex -0.11768044 0.05338841 0.00000000
      vertex -0.12023287 0.00709550 0.00000000
    endloop
  endfacet
  facet normal 0.00000000 0.00000000 1.00000000
    outer loop
      vertex 0.11946462 -0.00609259 0.00000000
      vertex -0.12277549 -0.03921563 0.00000000
      vertex 0.11692506 -0.05234792 0.00000000
    endloop
  endfacet
  facet normal 0.00000000 0.00000000 1.00000000
    outer loop
      vertex 0.11946462 -0.00609259 0.00000000
      vertex -0.12023287 0.00709550 0.00000000
      vertex -0.12277549 -0.03921563 0.00000000
    endloop
  endfacet
  facet normal 0.00000000 0.00000000 1.00000000
    outer loop
      vertex 0.11692506 -0.05234792 0.00000000
      vertex -0.12530829 -0.08554499 0.00000000
      vertex 0.11439531 -0.09862150 0.00000000
    endloop
  endfacet
  facet normal 0.00000000 0.00000000 1.00000000
    outer loop
      vertex 0.11692506 -0.05234792 0.00000000
      vertex -0.12277549 -0.03921563 0.00000000
      vertex -0.12530829 -0.08554499 0.00000000
    endloop
  endfacet
  facet normal 0.00000000 0.00000000 1.00000000
    outer loop
      vertex 0.11439531 -0.09862150 0.00000000
      vertex -0.12783128 -0.13189256 0.00000000
      vertex 0.11187536 -0.14491335 0.00000000
    endloop
  endfacet
  facet normal 0.00000000 0.00000000 1.00000000
    outer loop
      vertex 0.11439531 -0.09862150 0.00000000
      vertex -0.12530829 -0.08554499 0.00000000
      vertex -0.12783128 -0.13189256 0.00000000
    endloop
  endfacet
  facet normal 0.00000000 0.00000000 1.00000000
    outer loop
      vertex 0.11187536 -0.14491335 0.00000000
      vertex -0.13034445 -0.17825835 0.00000000
      vertex 0.10936520 -0.19122345 0.00000000
    endloop
  endfacet
  facet normal 0.00000000 0.00000000 1.00000000
    outer loop
      vertex 0.11187536 -0.14491335 0.00000000
      vertex -0.12783128 -0.13189256 0.00000000
      vertex -0.13034445 -0.17825835 0.00000000
    endloop
  endfacet
  facet normal 0.00000000 0.00000000 1.00000000
    outer loop
      vertex 0.10936520 -0.19122345 0.00000000
      vertex -0.13284781 -0.22464236 0.00000000
      vertex 0.10686485 -0.23755182 0.00000000
    endloop
  endfacet
  facet normal 0.00000000 0.00000000 1.00000000
    outer loop
      vertex 0.10936520 -0.19122345 0.00000000
      vertex -0.13034445 -0.17825835 0.00000000
      vertex -0.13284781 -0.22464236 0.00000000
    endloop
  endfacet
  facet normal 0.00000000 0.00000000 1.00000000
    outer loop
      vertex 0.10686485 -0.23755182 0.00000000
      vertex -0.13534135 -0.27104459 0.00000000
      vertex 0.10437429 -0.28389845 0.00000000
    endloop
  endfacet
  facet normal 0.00000000 0.00000000 1.00000000
    outer loop
      vertex 0.10686485 -0.23755182 0.00000000
      vertex -0.13284781 -0.22464236 0.00000000
      vertex -0.13534135 -0.27104459 0.00000000
    endloop
  endfacet
  facet normal 0.00000000 0.00000000 1.00000000
    outer loop
      vertex 0.10437429 -0.28389845 0.00000000
      vertex -0.13782508 -0.31746504 0.00000000
      vertex 0.10189354 -0.33026334 0.00000000
    endloop
  endfacet
  facet normal 0.00000000 0.00000000 1.00000000
    outer loop
      vertex 0.10437429 -0.28389845 0.00000000
      vertex -0.13534135 -0.27104459 0.00000000
      vertex -0.13782508 -0.31746504 0.00000000
    endloop
  endfacet
  facet normal 0.00000000 0.00000000 1.00000000
    outer loop
      vertex 0.10189354 -0.33026334 0.00000000
      vertex -0.14029899 -0.36390370 0.00000000
      vertex 0.09942258 -0.37664650 0.00000000
    endloop
  endfacet
  facet normal 0.00000000 0.00000000 1.00000000
    outer loop
      vertex 0.10189354 -0.33026334 0.00000000
      vertex -0.13782508 -0.31746504 0.00000000
      vertex -0.14029899 -0.36390370 0.00000000
    endloop
  endfacet
  facet normal 0.00000000 0.00000000 1.00000000
    outer loop
      vertex 0.09942258 -0.37664650 0.00000000
      vertex -0.14276236 -0.41034673 0.00000000
      vertex 0.09696069 -0.42306177 0.00000000
    endloop
  endfacet
  facet normal 0.00000000 0.00000000 1.00000000
    outer loop
      vertex 0.09942258 -0.37664650 0.00000000
      vertex -0.14029899 -0.36390370 0.00000000
      vertex -0.14276236 -0.41034673 0.00000000
    endloop
  endfacet
endsolid lane_yellow_line_15
