solid lane_yellow_line_28
  facet normal 0.00000000 0.00000000 1.00000000
    outer loop
      vertex -0.93204161 0.33150876 0.00000000
      vertex -0.91259727 0.06084552 0.00000000
      vertex -0.81856469 0.28173802 0.00000000
    endloop
  endfacet
  facet normal 0.00000000 0.00000000 1.00000000
    outer loop
      vertex -0.93204161 0.33150876 0.00000000
      vertex -1.02846473 0.11166474 0.00000000
      vertex -0.91259727 0.06084552 0.00000000
    endloop
  endfacet
  facet normal 0.00000000 0.00000000 1.00000000
    outer loop
      vertex -0.81856469 0.28173802 0.00000000
      vertex -0.79586171 0.01264439 0.00000000
      vertex -0.70671533 0.23555445 0.00000000
    endloop
  endfacet
  facet normal 0.00000000 0.00000000 1.00000000
    outer loop
      vertex -0.81856469 0.28173802 0.00000000
      vertex -0.91259727 0.06084552 0.00000000
      vertex -0.79586171 0.01264439 0.00000000
    endloop
  endfacet
  facet normal 0.00000000 0.00000000 1.00000000
    outer loop
      vertex -0.70671533 0.23555445 0.00000000
      vertex -0.67942292 -0.03242304 0.00000000
      vertex -0.59532865 0.19244243 0.00000000
    endloop
  endfacet
  facet normal 0.00000000 0.00000000 1.00000000
    outer loop
      vertex -0.70671533 0.23555445 0.00000000
      vertex -0.79586171 0.01264439 0.00000000
      vertex -0.67942292 -0.03242304 0.00000000
    endloop
  endfacet
  facet normal 0.00000000 0.00000000 1.00000000
    outer loop
      vertex -0.59532865 0.19244243 0.00000000
      vertex -0.56328097 -0.07435201 0.00000000
      vertex -0.48440457 0.15239719 0.00000000
    endloop
  endfacet
  facet normal 0.00000000 0.00000000 1.00000000
    outer loop
      vertex -0.59532865 0.19244243 0.00000000
      vertex -0.67942292 -0.03242304 0.00000000
      vertex -0.56328097 -0.07435201 0.00000000
    endloop
  endfacet
  facet normal 0.00000000 0.00000000 1.00000000
    outer loop
      vertex -0.48440457 0.15239719 0.00000000
      vertex -0.44743637 -0.11313754 0.00000000
      vertex -0.37394259 0.11541379 0.00000000
    endloop
  endfacet
  facet normal 0.00000000 0.00000000 1.00000000
    outer loop
      vertex -0.48440457 0.15239719 0.00000000
      vertex -0.56328097 -0.07435201 0.00000000
      vertex -0.44743637 -0.11313754 0.00000000
    endloop
  endfacet
  facet normal 0.00000000 0.00000000 1.00000000
    outer loop
      vertex -0.37394259 0.11541379 0.00000000
      vertex -0.33189017 -0.14877453 0.00000000
      vertex -0.26394167 0.08148709 0.00000000
    endloop
  endfacet
  facet normal 0.00000000 0.00000000 1.00000000
    outer loop
      vertex -0.37394259 0.11541379 0.00000000
      vertex -0.44743637 -0.11313754 0.00000000
      vertex -0.33189017 -0.14877453 0.00000000
    endloop
  endfacet
  facet normal 0.00000000 0.00000000 1.00000000
    outer loop
      vertex -0.26394167 0.08148709 0.00000000
      vertex -0.21664393 -0.18125772 0.00000000
      vertex -0.15440023 0.05061185 0.00000000
    endloop
  endfacet
  facet normal 0.00000000 0.00000000 1.00000000
    outer loop
      vertex -0.26394167 0.08148709 0.00000000
      vertex -0.33189017 -0.14877453 0.00000000
      vertex -0.21664393 -0.18125772 0.00000000
    endloop
  endfacet
  facet normal 0.00000000 0.00000000 1.00000000
    outer loop
      vertex -0.15440023 0.05061185 0.00000000
      vertex -0.10169981 -0.21058180 0.00000000
      vertex -0.04531612 0.02278275 0.00000000
    endloop
  endfacet
  facet normal 0.00000000 0.00000000 1.00000000
    outer loop
      vertex -0.15440023 0.05061185 0.00000000
      vertex -0.21664393 -0.18125772 0.00000000
      vertex -0.10169981 -0.21058180 0.00000000
    endloop
  endfacet
  facet normal 0.00000000 0.00000000 1.00000000
    outer loop
      vertex -0.04531612 0.02278275 0.00000000
      vertex 0.01293939 -0.23674143 0.00000000
      vertex 0.06331346 -0.00200554 0.00000000
    endloop
  endfacet
  facet normal 0.00000000 0.00000000 1.00000000
    outer loop
      vertex -0.04531612 0.02278275 0.00000000
      vertex -0.10169981 -0.21058180 0.00000000
      vertex 0.01293939 -0.23674143 0.00000000
    endloop
  endfacet
  facet normal 0.00000000 0.00000000 1.00000000
    outer loop
      vertex 0.06331346 -0.00200554 0.00000000
      vertex 0.12727027 -0.25973134 0.00000000
      vertex 0.17149191 -0.02375830 0.00000000
    endloop
  endfacet
  facet normal 0.00000000 0.00000000 1.00000000
    outer loop
      vertex 0.06331346 -0.00200554 0.00000000
      vertex 0.01293939 -0.23674143 0.00000000
      vertex 0.12727027 -0.25973134 0.00000000
    endloop
  endfacet
  facet normal 0.00000000 0.00000000 1.00000000
    outer loop
      vertex 0.17149191 -0.02375830 0.00000000
      vertex 0.24128873 -0.27954635 0.00000000
      vertex 0.27922333 -0.04248070 0.00000000
    endloop
  endfacet
  facet normal 0.00000000 0.00000000 1.00000000
    outer loop
      vertex 0.17149191 -0.02375830 0.00000000
      vertex 0.12727027 -0.25973134 0.00000000
      vertex 0.24128873 -0.27954635 0.00000000
    endloop
  endfacet
  facet normal 0.00000000 0.00000000 1.00000000
    outer loop
      vertex 0.27922333 -0.04248070 0.00000000
      vertex 0.35499005 -0.29618150 0.00000000
      vertex 0.38651245 -0.05817771 0.00000000
    endloop
  endfacet
  facet normal 0.00000000 0.00000000 1.00000000
    outer loop
      vertex 0.27922333 -0.04248070 0.00000000
      vertex 0.24128873 -0.27954635 0.00000000
      vertex 0.35499005 -0.29618150 0.00000000
    endloop
  endfacet
  facet normal 0.00000000 0.00000000 1.00000000
    outer loop
      vertex 0.38651245 -0.05817771 0.00000000
      vertex 0.46836880 -0.30963209 0.00000000
      vertex 0.49336467 -0.07085403 0.00000000
    endloop
  endfacet
  facet normal 0.00000000 0.00000000 1.00000000
    outer loop
      vertex 0.38651245 -0.05817771 0.00000000
      vertex 0.35499005 -0.29618150 0.00000000
      vertex 0.46836880 -0.30963209 0.00000000
    endloop
  endfacet
  facet normal 0.00000000 0.00000000 1.00000000
    outer loop
      vertex 0.49336467 -0.07085403 0.00000000
      vertex 0.58141898 -0.31989376 0.00000000
      vertex 0.59978603 -0.08051400 0.00000000
    endloop
  endfacet
  facet normal 0.00000000 0.00000000 1.00000000
    outer loop
      vertex 0.49336467 -0.07085403 0.00000000
      vertex 0.46836880 -0.30963209 0.00000000
      vertex 0.58141898 -0.31989376 0.00000000
    endloop
  endfacet
  facet normal 0.00000000 0.00000000 1.00000000
    outer loop
      vertex 0.59978603 -0.08051400 0.00000000
      vertex 0.69413394 -0.32696261 0.00000000
      vertex 0.70578315 -0.08716154 0.00000000
    endloop
  endfacet
  facet normal 0.00000000 0.00000000 1.00000000
    outer loop
      vertex 0.59978603 -0.08051400 0.00000000
      vertex 0.58141898 -0.31989376 0.00000000
      vertex 0.69413394 -0.32696261 0.00000000
    endloop
  endfacet
  facet normal 0.00000000 0.00000000 1.00000000
    outer loop
      vertex 0.70578315 -0.08716154 0.00000000
      vertex 0.80650652 -0.33083522 0.00000000
      vertex 0.81136322 -0.09080007 0.00000000
    endloop
  endfacet
  facet normal 0.00000000 0.00000000 1.00000000
    outer loop
      vertex 0.70578315 -0.08716154 0.00000000
      vertex 0.69413394 -0.32696261 0.00000000
      vertex 0.80650652 -0.33083522 0.00000000
    endloop
  endfacet
  facet normal 0.00000000 0.00000000 1.00000000
    outer loop
      vertex 0.81136322 -0.09080007 0.00000000
      vertex 0.91852903 -0.33150876 0.00000000
      vertex 0.91653389 -0.09143241 0.00000000
    endloop
  endfacet
  facet normal 0.00000000 0.00000000 1.00000000
    outer loop
      vertex 0.81136322 -0.09080007 0.00000000
      vertex 0.80650652 -0.33083522 0.00000000
      vertex 0.91852903 -0.33150876 0.00000000
    endloop
  endfacet
  facet normal -0.00000000 0.00000000 1.00000000
    outer loop
      vertex 0.91653389 -0.09143241 0.00000000
      vertex 1.02846473 -0.32902017 0.00000000
      vertex 1.02303193 -0.08902163 0.00000000
    endloop
  endfacet
  facet normal 0.00000000 0.00000000 1.00000000
    outer loop
      vertex 0.91653389 -0.09143241 0.00000000
      vertex 0.91852903 -0.33150876 0.00000000
      vertex 1.02846473 -0.32902017 0.00000000
    endloop
  endfacet
endsolid lane_yellow_line_28
