solid lane_yellow_line_22
  facet normal 0.00000000 0.00000000 1.00000000
    outer loop
      vertex 0.08011897 0.82800333 0.00000000
      vertex -0.15515362 0.72498963 0.00000000
      vertex 0.08461580 0.73679794 0.00000000
    endloop
  endfacet
  facet normal 0.00000000 0.00000000 1.00000000
    outer loop
      vertex 0.08011897 0.82800333 0.00000000
      vertex -0.15964979 0.81618169 0.00000000
      vertex -0.15515362 0.72498963 0.00000000
    endloop
  endfacet
  facet normal 0.00000000 0.00000000 1.00000000
    outer loop
      vertex 0.08461580 0.73679794 0.00000000
      vertex -0.15066705 0.63378572 0.00000000
      vertex 0.08910369 0.64556735 0.00000000
    endloop
  endfacet
  facet normal 0.00000000 0.00000000 1.00000000
    outer loop
      vertex 0.08461580 0.73679794 0.00000000
      vertex -0.15515362 0.72498963 0.00000000
      vertex -0.15066705 0.63378572 0.00000000
    endloop
  endfacet
  facet normal 0.00000000 0.00000000 1.00000000
    outer loop
      vertex 0.08910369 0.64556735 0.00000000
      vertex -0.14618973 0.54256328 0.00000000
      vertex 0.09358231 0.55431825 0.00000000
    endloop
  endfacet
  facet normal 0.00000000 0.00000000 1.00000000
    outer loop
      vertex 0.08910369 0.64556735 0.00000000
      vertex -0.15066705 0.63378572 0.00000000
      vertex -0.14618973 0.54256328 0.00000000
    endloop
  endfacet
  facet normal 0.00000000 0.00000000 1.00000000
    outer loop
      vertex 0.09358231 0.55431825 0.00000000
      vertex -0.14172167 0.45132232 0.00000000
      vertex 0.09805168 0.46305063 0.00000000
    endloop
  endfacet
  facet normal 0.00000000 0.00000000 1.00000000
    outer loop
      vertex 0.09358231 0.55431825 0.00000000
      vertex -0.14618973 0.54256328 0.00000000
      vertex -0.14172167 0.45132232 0.00000000
    endloop
  endfacet
  facet normal 0.00000000 0.00000000 1.00000000
    outer loop
      vertex 0.09805168 0.46305063 0.00000000
      vertex -0.13726287 0.36006282 0.00000000
      vertex 0.10251177 0.37176449 0.00000000
    endloop
  endfacet
  facet normal 0.00000000 0.00000000 1.00000000
    outer loop
      vertex 0.09805168 0.46305063 0.00000000
      vertex -0.14172167 0.45132232 0.00000000
      vertex -0.13726287 0.36006282 0.00000000
    endloop
  endfacet
  facet normal 0.00000000 0.00000000 1.00000000
    outer loop
      vertex 0.10251177 0.37176449 0.00000000
      vertex -0.13281334 0.26878480 0.00000000
      vertex 0.10696261 0.28045983 0.00000000
    endloop
  endfacet
  facet normal 0.00000000 0.00000000 1.00000000
    outer loop
      vertex 0.10251177 0.37176449 0.00000000
      vertex -0.13726287 0.36006282 0.00000000
      vertex -0.13281334 0.26878480 0.00000000
    endloop
  endfacet
  facet normal 0.00000000 0.00000000 1.00000000
    outer loop
      vertex 0.10696261 0.28045983 0.00000000
      vertex -0.12837306 0.17748824 0.00000000
      vertex 0.11140418 0.18913665 0.00000000
    endloop
  endfacet
  facet normal 0.00000000 0.00000000 1.00000000
    outer loop
      vertex 0.10696261 0.28045983 0.00000000
      vertex -0.13281334 0.26878480 0.00000000
      vertex -0.12837306 0.17748824 0.00000000
    endloop
  endfacet
  facet normal 0.00000000 0.00000000 1.00000000
    outer loop
      vertex 0.11140418 0.18913665 0.00000000
      vertex -0.12394204 0.08617316 0.00000000
      vertex 0.11583649 0.09779496 0.00000000
    endloop
  endfacet
  facet normal 0.00000000 0.00000000 1.00000000
    outer loop
      vertex 0.11140418 0.18913665 0.00000000
      vertex -0.12837306 0.17748824 0.00000000
      vertex -0.12394204 0.08617316 0.00000000
    endloop
  endfacet
  facet normal 0.00000000 0.00000000 1.00000000
    outer loop
      vertex 0.11583649 0.09779496 0.00000000
      vertex -0.11952028 -0.00516045 0.00000000
      vertex 0.12025954 0.00643475 0.00000000
    endloop
  endfacet
  facet normal 0.00000000 0.00000000 1.00000000
    outer loop
      vertex 0.11583649 0.09779496 0.00000000
      vertex -0.12394204 0.08617316 0.00000000
      vertex -0.11952028 -0.00516045 0.00000000
    endloop
  endfacet
  facet normal 0.00000000 0.00000000 1.00000000
    outer loop
      vertex 0.12025954 0.00643475 0.00000000
      vertex -0.11510779 -0.09651259 0.00000000
      vertex 0.12467332 -0.08494399 0.00000000
    endloop
  endfacet
  facet normal 0.00000000 0.00000000 1.00000000
    outer loop
      vertex 0.12025954 0.00643475 0.00000000
      vertex -0.11952028 -0.00516045 0.00000000
      vertex -0.11510779 -0.09651259 0.00000000
    endloop
  endfacet
  facet normal 0.00000000 0.00000000 1.00000000
    outer loop
      vertex 0.12467332 -0.08494399 0.00000000
      vertex -0.11070455 -0.18788325 0.00000000
      vertex 0.12907784 -0.17634123 0.00000000
    endloop
  endfacet
  facet normal 0.00000000 0.00000000 1.00000000
    outer loop
      vertex 0.12467332 -0.08494399 0.00000000
      vertex -0.11510779 -0.09651259 0.00000000
      vertex -0.11070455 -0.18788325 0.00000000
    endloop
  endfacet
  facet normal 0.00000000 0.00000000 1.00000000
    outer loop
      vertex 0.12907784 -0.17634123 0.00000000
      vertex -0.10631057 -0.27927245 0.00000000
      vertex 0.13347310 -0.26775700 0.00000000
    endloop
  endfacet
  facet normal 0.00000000 0.00000000 1.00000000
    outer loop
      vertex 0.12907784 -0.17634123 0.00000000
      vertex -0.11070455 -0.18788325 0.00000000
      vertex -0.10631057 -0.27927245 0.00000000
    endloop
  endfacet
  facet normal 0.00000000 0.00000000 1.00000000
    outer loop
      vertex 0.13347310 -0.26775700 0.00000000
      vertex -0.10192585 -0.37068017 0.00000000
      vertex 0.13785909 -0.35919128 0.00000000
    endloop
  endfacet
  facet normal 0.00000000 0.00000000 1.00000000
    outer loop
      vertex 0.13347310 -0.26775700 0.00000000
      vertex -0.10631057 -0.27927245 0.00000000
      vertex -0.10192585 -0.37068017 0.00000000
    endloop
  endfacet
  facet normal 0.00000000 0.00000000 1.00000000
    outer loop
      vertex 0.13785909 -0.35919128 0.00000000
      vertex -0.09755039 -0.46210642 0.00000000
      vertex 0.14223582 -0.45064408 0.00000000
    endloop
  endfacet
  facet normal 0.00000000 0.00000000 1.00000000
    outer loop
      vertex 0.13785909 -0.35919128 0.00000000
      vertex -0.10192585 -0.37068017 0.00000000
      vertex -0.09755039 -0.46210642 0.00000000
    endloop
  endfacet
  facet normal 0.00000000 0.00000000 1.00000000
    outer loop
      vertex 0.14223582 -0.45064408 0.00000000
      vertex -0.09318419 -0.55355120 0.00000000
      vertex 0.14660328 -0.54211540 0.00000000
    endloop
  endfacet
  facet normal 0.00000000 0.00000000 1.00000000
    outer loop
      vertex 0.14223582 -0.45064408 0.00000000
      vertex -0.09755039 -0.46210642 0.00000000
      vertex -0.09318419 -0.55355120 0.00000000
    endloop
  endfacet
  facet normal 0.00000000 0.00000000 1.00000000
    outer loop
      vertex 0.14660328 -0.54211540 0.00000000
      vertex -0.08882725 -0.64501451 0.00000000
      vertex 0.15096149 -0.63360524 0.00000000
    endloop
  endfacet
  facet normal 0.00000000 0.00000000 1.00000000
    outer loop
      vertex 0.14660328 -0.54211540 0.00000000
      vertex -0.09318419 -0.55355120 0.00000000
      vertex -0.08882725 -0.64501451 0.00000000
    endloop
  endfacet
  facet normal 0.00000000 0.00000000 1.00000000
    outer loop
      vertex 0.15096149 -0.63360524 0.00000000
      vertex -0.08447957 -0.73649634 0.00000000
      vertex 0.15531043 -0.72511360 0.00000000
    endloop
  endfacet
  facet normal 0.00000000 0.00000000 1.00000000
    outer loop
      vertex 0.15096149 -0.63360524 0.00000000
      vertex -0.08882725 -0.64501451 0.00000000
      vertex -0.08447957 -0.73649634 0.00000000
    endloop
  endfacet
  facet normal 0.00000000 0.00000000 1.00000000
    outer loop
      vertex 0.15531043 -0.72511360 0.00000000
      vertex -0.08014084 -0.82800333 0.00000000
      vertex 0.15964979 -0.81663385 0.00000000
    endloop
  endfacet
  facet normal 0.00000000 0.00000000 1.00000000
    outer loop
      vertex 0.15531043 -0.72511360 0.00000000
      vertex -0.08447957 -0.73649634 0.00000000
      vertex -0.08014084 -0.82800333 0.00000000
    endloop
  endfacet
endsolid lane_yellow_line_22
