solid lane_yellow_line_27
  facet normal 0.00000000 0.00000000 1.00000000
    outer loop
      vertex -0.37328503 0.74251672 0.00000000
      vertex -0.55421122 0.55762562 0.00000000
      vertex -0.33571642 0.65711614 0.00000000
    endloop
  endfacet
  facet normal 0.00000000 0.00000000 1.00000000
    outer loop
      vertex -0.37328503 0.74251672 0.00000000
      vertex -0.59302282 0.64585178 0.00000000
      vertex -0.55421122 0.55762562 0.00000000
    endloop
  endfacet
  facet normal 0.00000000 0.00000000 1.00000000
    outer loop
      vertex -0.33571642 0.65711614 0.00000000
      vertex -0.51267174 0.46942418 0.00000000
      vertex -0.29681912 0.57452488 0.00000000
    endloop
  endfacet
  facet normal 0.00000000 0.00000000 1.00000000
    outer loop
      vertex -0.33571642 0.65711614 0.00000000
      vertex -0.55421122 0.55762562 0.00000000
      vertex -0.51267174 0.46942418 0.00000000
    endloop
  endfacet
  facet normal 0.00000000 0.00000000 1.00000000
    outer loop
      vertex -0.29681912 0.57452488 0.00000000
      vertex -0.46902020 0.38265220 0.00000000
      vertex -0.25597732 0.49333821 0.00000000
    endloop
  endfacet
  facet normal 0.00000000 0.00000000 1.00000000
    outer loop
      vertex -0.29681912 0.57452488 0.00000000
      vertex -0.51267174 0.46942418 0.00000000
      vertex -0.46902020 0.38265220 0.00000000
    endloop
  endfacet
  facet normal 0.00000000 0.00000000 1.00000000
    outer loop
      vertex -0.25597732 0.49333821 0.00000000
      vertex -0.42325768 0.29731594 0.00000000
      vertex -0.21318993 0.41354985 0.00000000
    endloop
  endfacet
  facet normal 0.00000000 0.00000000 1.00000000
    outer loop
      vertex -0.25597732 0.49333821 0.00000000
      vertex -0.46902020 0.38265220 0.00000000
      vertex -0.42325768 0.29731594 0.00000000
    endloop
  endfacet
  facet normal 0.00000000 0.00000000 1.00000000
    outer loop
      vertex -0.21318993 0.41354985 0.00000000
      vertex -0.37538582 0.21342169 0.00000000
      vertex -0.16845531 0.33515353 0.00000000
    endloop
  endfacet
  facet normal 0.00000000 0.00000000 1.00000000
    outer loop
      vertex -0.21318993 0.41354985 0.00000000
      vertex -0.42325768 0.29731594 0.00000000
      vertex -0.37538582 0.21342169 0.00000000
    endloop
  endfacet
  facet normal 0.00000000 0.00000000 1.00000000
    outer loop
      vertex -0.16845531 0.33515353 0.00000000
      vertex -0.32540678 0.13097567 0.00000000
      vertex -0.12177129 0.25814302 0.00000000
    endloop
  endfacet
  facet normal 0.00000000 0.00000000 1.00000000
    outer loop
      vertex -0.16845531 0.33515353 0.00000000
      vertex -0.37538582 0.21342169 0.00000000
      vertex -0.32540678 0.13097567 0.00000000
    endloop
  endfacet
  facet normal 0.00000000 0.00000000 1.00000000
    outer loop
      vertex -0.12177129 0.25814302 0.00000000
      vertex -0.27332325 0.04998400 0.00000000
      vertex -0.07313519 0.18251220 0.00000000
    endloop
  endfacet
  facet normal 0.00000000 0.00000000 1.00000000
    outer loop
      vertex -0.12177129 0.25814302 0.00000000
      vertex -0.32540678 0.13097567 0.00000000
      vertex -0.27332325 0.04998400 0.00000000
    endloop
  endfacet
  facet normal 0.00000000 0.00000000 1.00000000
    outer loop
      vertex -0.07313519 0.18251220 0.00000000
      vertex -0.21913844 -0.02954741 0.00000000
      vertex -0.02254381 0.10825516 0.00000000
    endloop
  endfacet
  facet normal 0.00000000 0.00000000 1.00000000
    outer loop
      vertex -0.07313519 0.18251220 0.00000000
      vertex -0.27332325 0.04998400 0.00000000
      vertex -0.21913844 -0.02954741 0.00000000
    endloop
  endfacet
  facet normal 0.00000000 0.00000000 1.00000000
    outer loop
      vertex -0.02254381 0.10825516 0.00000000
      vertex -0.16285601 -0.10761288 0.00000000
      vertex 0.03000653 0.03536623 0.00000000
    endloop
  endfacet
  facet normal 0.00000000 0.00000000 1.00000000
    outer loop
      vertex -0.02254381 0.10825516 0.00000000
      vertex -0.21913844 -0.02954741 0.00000000
      vertex -0.16285601 -0.10761288 0.00000000
    endloop
  endfacet
  facet normal 0.00000000 0.00000000 1.00000000
    outer loop
      vertex 0.03000653 0.03536623 0.00000000
      vertex -0.10448008 -0.18420704 0.00000000
      vertex 0.08451993 -0.03615997 0.00000000
    endloop
  endfacet
  facet normal 0.00000000 0.00000000 1.00000000
    outer loop
      vertex 0.03000653 0.03536623 0.00000000
      vertex -0.16285601 -0.10761288 0.00000000
      vertex -0.10448008 -0.18420704 0.00000000
    endloop
  endfacet
  facet normal 0.00000000 0.00000000 1.00000000
    outer loop
      vertex 0.08451993 -0.03615997 0.00000000
      vertex -0.04401515 -0.25932492 0.00000000
      vertex 0.14100090 -0.10632842 0.00000000
    endloop
  endfacet
  facet normal 0.00000000 0.00000000 1.00000000
    outer loop
      vertex 0.08451993 -0.03615997 0.00000000
      vertex -0.10448008 -0.18420704 0.00000000
      vertex -0.04401515 -0.25932492 0.00000000
    endloop
  endfacet
  facet normal 0.00000000 0.00000000 1.00000000
    outer loop
      vertex 0.14100090 -0.10632842 0.00000000
      vertex 0.01853393 -0.33296191 0.00000000
      vertex 0.19945430 -0.17514370 0.00000000
    endloop
  endfacet
  facet normal 0.00000000 0.00000000 1.00000000
    outer loop
      vertex 0.14100090 -0.10632842 0.00000000
      vertex -0.04401515 -0.25932492 0.00000000
      vertex 0.01853393 -0.33296191 0.00000000
    endloop
  endfacet
  facet normal 0.00000000 0.00000000 1.00000000
    outer loop
      vertex 0.19945430 -0.17514370 0.00000000
      vertex 0.08316202 -0.40511392 0.00000000
      vertex 0.25988524 -0.24260994 0.00000000
    endloop
  endfacet
  facet normal 0.00000000 0.00000000 1.00000000
    outer loop
      vertex 0.19945430 -0.17514370 0.00000000
      vertex 0.01853393 -0.33296191 0.00000000
      vertex 0.08316202 -0.40511392 0.00000000
    endloop
  endfacet
  facet normal 0.00000000 0.00000000 1.00000000
    outer loop
      vertex 0.25988524 -0.24260994 0.00000000
      vertex 0.14986377 -0.47577729 0.00000000
      vertex 0.32229911 -0.30873076 0.00000000
    endloop
  endfacet
  facet normal 0.00000000 0.00000000 1.00000000
    outer loop
      vertex 0.25988524 -0.24260994 0.00000000
      vertex 0.08316202 -0.40511392 0.00000000
      vertex 0.14986377 -0.47577729 0.00000000
    endloop
  endfacet
  facet normal 0.00000000 0.00000000 1.00000000
    outer loop
      vertex 0.32229911 -0.30873076 0.00000000
      vertex 0.21863365 -0.54494892 0.00000000
      vertex 0.38670141 -0.37350929 0.00000000
    endloop
  endfacet
  facet normal 0.00000000 0.00000000 1.00000000
    outer loop
      vertex 0.32229911 -0.30873076 0.00000000
      vertex 0.14986377 -0.47577729 0.00000000
      vertex 0.21863365 -0.54494892 0.00000000
    endloop
  endfacet
  facet normal 0.00000000 0.00000000 1.00000000
    outer loop
      vertex 0.38670141 -0.37350929 0.00000000
      vertex 0.28946605 -0.61262620 0.00000000
      vertex 0.45309777 -0.43694812 0.00000000
    endloop
  endfacet
  facet normal 0.00000000 0.00000000 1.00000000
    outer loop
      vertex 0.38670141 -0.37350929 0.00000000
      vertex 0.21863365 -0.54494892 0.00000000
      vertex 0.28946605 -0.61262620 0.00000000
    endloop
  endfacet
  facet normal 0.00000000 0.00000000 1.00000000
    outer loop
      vertex 0.45309777 -0.43694812 0.00000000
      vertex 0.36235529 -0.67880705 0.00000000
      vertex 0.52149384 -0.49904934 0.00000000
    endloop
  endfacet
  facet normal 0.00000000 0.00000000 1.00000000
    outer loop
      vertex 0.45309777 -0.43694812 0.00000000
      vertex 0.28946605 -0.61262620 0.00000000
      vertex 0.36235529 -0.67880705 0.00000000
    endloop
  endfacet
  facet normal 0.00000000 0.00000000 1.00000000
    outer loop
      vertex 0.52149384 -0.49904934 0.00000000
      vertex 0.43616820 -0.74251672 0.00000000
      vertex 0.59302282 -0.56078770 0.00000000
    endloop
  endfacet
  facet normal 0.00000000 0.00000000 1.00000000
    outer loop
      vertex 0.52149384 -0.49904934 0.00000000
      vertex 0.36235529 -0.67880705 0.00000000
      vertex 0.43616820 -0.74251672 0.00000000
    endloop
  endfacet
endsolid lane_yellow_line_27
