solid lane_yellow_line_07
  facet normal 0.00000000 0.00000000 1.00000000
    outer loop
      vertex 17.00121380 2.74660997 0.00000000
      vertex 15.07430817 2.66491532 0.00000000
      vertex 15.11425113 2.42820163 0.00000000
    endloop
  endfacet
  facet normal 0.00000000 0.00000000 1.00000000
    outer loop
      vertex 17.00121380 2.74660997 0.00000000
      vertex 16.96127046 2.98332359 0.00000000
      vertex 15.07430817 2.66491532 0.00000000
    endloop
  endfacet
  facet normal 0.00000000 0.00000000 1.00000000
    outer loop
      vertex 15.11425113 2.42820163 0.00000000
      vertex 13.18736458 2.34651634 0.00000000
      vertex 13.22730680 2.10980252 0.00000000
    endloop
  endfacet
  facet normal 0.00000000 0.00000000 1.00000000
    outer loop
      vertex 15.11425113 2.42820163 0.00000000
      vertex 15.07430817 2.66491532 0.00000000
      vertex 13.18736458 2.34651634 0.00000000
    endloop
  endfacet
  facet normal 0.00000000 0.00000000 1.00000000
    outer loop
      vertex 13.22730680 2.10980252 0.00000000
      vertex 11.30043952 2.02812662 0.00000000
      vertex 11.34038099 1.79141268 0.00000000
    endloop
  endfacet
  facet normal 0.00000000 0.00000000 1.00000000
    outer loop
      vertex 13.22730680 2.10980252 0.00000000
      vertex 13.18736458 2.34651634 0.00000000
      vertex 11.30043952 2.02812662 0.00000000
    endloop
  endfacet
  facet normal 0.00000000 0.00000000 1.00000000
    outer loop
      vertex 11.34038099 1.79141268 0.00000000
      vertex 9.41353298 1.70974616 0.00000000
      vertex 9.45347370 1.47303209 0.00000000
    endloop
  endfacet
  facet normal 0.00000000 0.00000000 1.00000000
    outer loop
      vertex 11.34038099 1.79141268 0.00000000
      vertex 11.30043952 2.02812662 0.00000000
      vertex 9.41353298 1.70974616 0.00000000
    endloop
  endfacet
  facet normal 0.00000000 0.00000000 1.00000000
    outer loop
      vertex 9.45347370 1.47303209 0.00000000
      vertex 7.52664497 1.39137496 0.00000000
      vertex 7.56658494 1.15466077 0.00000000
    endloop
  endfacet
  facet normal 0.00000000 0.00000000 1.00000000
    outer loop
      vertex 9.45347370 1.47303209 0.00000000
      vertex 9.41353298 1.70974616 0.00000000
      vertex 7.52664497 1.39137496 0.00000000
    endloop
  endfacet
  facet normal 0.00000000 0.00000000 1.00000000
    outer loop
      vertex 7.56658494 1.15466077 0.00000000
      vertex 5.63977548 1.07301303 0.00000000
      vertex 5.67971470 0.83629871 0.00000000
    endloop
  endfacet
  facet normal 0.00000000 0.00000000 1.00000000
    outer loop
      vertex 7.56658494 1.15466077 0.00000000
      vertex 7.52664497 1.39137496 0.00000000
      vertex 5.63977548 1.07301303 0.00000000
    endloop
  endfacet
  facet normal 0.00000000 0.00000000 1.00000000
    outer loop
      vertex 5.67971470 0.83629871 0.00000000
      vertex 3.75292451 0.75466035 0.00000000
      vertex 3.79286298 0.51794591 0.00000000
    endloop
  endfacet
  facet normal 0.00000000 0.00000000 1.00000000
    outer loop
      vertex 5.67971470 0.83629871 0.00000000
      vertex 5.63977548 1.07301303 0.00000000
      vertex 3.75292451 0.75466035 0.00000000
    endloop
  endfacet
  facet normal 0.00000000 0.00000000 1.00000000
    outer loop
      vertex 3.79286298 0.51794591 0.00000000
      vertex 1.86609206 0.43631694 0.00000000
      vertex 1.90602979 0.19960237 0.00000000
    endloop
  endfacet
  facet normal 0.00000000 0.00000000 1.00000000
    outer loop
      vertex 3.79286298 0.51794591 0.00000000
      vertex 3.75292451 0.75466035 0.00000000
      vertex 1.86609206 0.43631694 0.00000000
    endloop
  endfacet
  facet normal 0.00000000 0.00000000 1.00000000
    outer loop
      vertex 1.90602979 0.19960237 0.00000000
      vertex -0.02072186 0.11798279 0.00000000
      vertex 0.01921512 -0.11873191 0.00000000
    endloop
  endfacet
  facet normal 0.00000000 0.00000000 1.00000000
    outer loop
      vertex 1.90602979 0.19960237 0.00000000
      vertex 1.86609206 0.43631694 0.00000000
      vertex -0.02072186 0.11798279 0.00000000
    endloop
  endfacet
  facet normal 0.00000000 0.00000000 1.00000000
    outer loop
      vertex 0.01921512 -0.11873191 0.00000000
      vertex -1.90751726 -0.20034210 0.00000000
      vertex -1.86758103 -0.43705692 0.00000000
    endloop
  endfacet
  facet normal 0.00000000 0.00000000 1.00000000
    outer loop
      vertex 0.01921512 -0.11873191 0.00000000
      vertex -0.02072186 0.11798279 0.00000000
      vertex -1.90751726 -0.20034210 0.00000000
    endloop
  endfacet
  facet normal 0.00000000 0.00000000 1.00000000
    outer loop
      vertex -1.86758103 -0.43705692 0.00000000
      vertex -3.79429413 -0.51865772 0.00000000
      vertex -3.75435865 -0.75537267 0.00000000
    endloop
  endfacet
  facet normal 0.00000000 0.00000000 1.00000000
    outer loop
      vertex -1.86758103 -0.43705692 0.00000000
      vertex -1.90751726 -0.20034210 0.00000000
      vertex -3.79429413 -0.51865772 0.00000000
    endloop
  endfacet
  facet normal 0.00000000 0.00000000 1.00000000
    outer loop
      vertex -3.75435865 -0.75537267 0.00000000
      vertex -5.68105248 -0.83696409 0.00000000
      vertex -5.64111775 -1.07367917 0.00000000
    endloop
  endfacet
  facet normal 0.00000000 0.00000000 1.00000000
    outer loop
      vertex -3.75435865 -0.75537267 0.00000000
      vertex -3.79429413 -0.51865772 0.00000000
      vertex -5.68105248 -0.83696409 0.00000000
    endloop
  endfacet
  facet normal 0.00000000 0.00000000 1.00000000
    outer loop
      vertex -5.64111775 -1.07367917 0.00000000
      vertex -7.56779231 -1.15526119 0.00000000
      vertex -7.52785833 -1.39197640 0.00000000
    endloop
  endfacet
  facet normal 0.00000000 0.00000000 1.00000000
    outer loop
      vertex -5.64111775 -1.07367917 0.00000000
      vertex -5.68105248 -0.83696409 0.00000000
      vertex -7.56779231 -1.15526119 0.00000000
    endloop
  endfacet
  facet normal 0.00000000 0.00000000 1.00000000
    outer loop
      vertex -7.52785833 -1.39197640 0.00000000
      vertex -9.45451362 -1.47354903 0.00000000
      vertex -9.41458039 -1.71026436 0.00000000
    endloop
  endfacet
  facet normal 0.00000000 0.00000000 1.00000000
    outer loop
      vertex -7.52785833 -1.39197640 0.00000000
      vertex -7.56779231 -1.15526119 0.00000000
      vertex -9.45451362 -1.47354903 0.00000000
    endloop
  endfacet
  facet normal 0.00000000 0.00000000 1.00000000
    outer loop
      vertex -9.41458039 -1.71026436 0.00000000
      vertex -11.34121640 -1.79182761 0.00000000
      vertex -11.30128392 -2.02854307 0.00000000
    endloop
  endfacet
  facet normal 0.00000000 0.00000000 1.00000000
    outer loop
      vertex -9.41458039 -1.71026436 0.00000000
      vertex -9.45451362 -1.47354903 0.00000000
      vertex -11.34121640 -1.79182761 0.00000000
    endloop
  endfacet
  facet normal 0.00000000 0.00000000 1.00000000
    outer loop
      vertex -11.30128392 -2.02854307 0.00000000
      vertex -13.22790066 -2.11009693 0.00000000
      vertex -13.18796893 -2.34681252 0.00000000
    endloop
  endfacet
  facet normal 0.00000000 0.00000000 1.00000000
    outer loop
      vertex -11.30128392 -2.02854307 0.00000000
      vertex -11.34121640 -1.79182761 0.00000000
      vertex -13.22790066 -2.11009693 0.00000000
    endloop
  endfacet
  facet normal 0.00000000 0.00000000 1.00000000
    outer loop
      vertex -13.18796893 -2.34681252 0.00000000
      vertex -15.11456640 -2.42835699 0.00000000
      vertex -15.07463541 -2.66507270 0.00000000
    endloop
  endfacet
  facet normal 0.00000000 0.00000000 1.00000000
    outer loop
      vertex -13.18796893 -2.34681252 0.00000000
      vertex -13.22790066 -2.11009693 0.00000000
      vertex -15.11456640 -2.42835699 0.00000000
    endloop
  endfacet
  facet normal 0.00000000 0.00000000 1.00000000
    outer loop
      vertex -15.07463541 -2.66507270 0.00000000
      vertex -17.00121380 -2.74660782 0.00000000
      vertex -16.96128319 -2.98332359 0.00000000
    endloop
  endfacet
  facet normal 0.00000000 0.00000000 1.00000000
    outer loop
      vertex -15.07463541 -2.66507270 0.00000000
      vertex -15.11456640 -2.42835699 0.00000000
      vertex -17.00121380 -2.74660782 0.00000000
    endloop
  endfacet
endsolid lane_yellow_line_07
