solid lane_yellow_line_38
  facet normal 0.00000000 0.00000000 1.00000000
    outer loop
      vertex 4.07912888 0.56279650 0.00000000
      vertex 3.58844351 0.72385966 0.00000000
      vertex 3.62817798 0.48711088 0.00000000
    endloop
  endfacet
  facet normal 0.00000000 0.00000000 1.00000000
    outer loop
      vertex 4.07912888 0.56279650 0.00000000
      vertex 4.03939401 0.79954521 0.00000000
      vertex 3.58844351 0.72385966 0.00000000
    endloop
  endfacet
  facet normal 0.00000000 0.00000000 1.00000000
    outer loop
      vertex 3.62817798 0.48711088 0.00000000
      vertex 3.13748394 0.64817414 0.00000000
      vertex 3.17721762 0.41142523 0.00000000
    endloop
  endfacet
  facet normal 0.00000000 0.00000000 1.00000000
    outer loop
      vertex 3.62817798 0.48711088 0.00000000
      vertex 3.58844351 0.72385966 0.00000000
      vertex 3.13748394 0.64817414 0.00000000
    endloop
  endfacet
  facet normal 0.00000000 0.00000000 1.00000000
    outer loop
      vertex 3.17721762 0.41142523 0.00000000
      vertex 2.68651512 0.57248862 0.00000000
      vertex 2.72624800 0.33573957 0.00000000
    endloop
  endfacet
  facet normal 0.00000000 0.00000000 1.00000000
    outer loop
      vertex 3.17721762 0.41142523 0.00000000
      vertex 3.13748394 0.64817414 0.00000000
      vertex 2.68651512 0.57248862 0.00000000
    endloop
  endfacet
  facet normal 0.00000000 0.00000000 1.00000000
    outer loop
      vertex 2.72624800 0.33573957 0.00000000
      vertex 2.23553703 0.49680309 0.00000000
      vertex 2.27526912 0.26005392 0.00000000
    endloop
  endfacet
  facet normal 0.00000000 0.00000000 1.00000000
    outer loop
      vertex 2.72624800 0.33573957 0.00000000
      vertex 2.68651512 0.57248862 0.00000000
      vertex 2.23553703 0.49680309 0.00000000
    endloop
  endfacet
  facet normal 0.00000000 0.00000000 1.00000000
    outer loop
      vertex 2.27526912 0.26005392 0.00000000
      vertex 1.78454968 0.42111757 0.00000000
      vertex 1.82428097 0.18436826 0.00000000
    endloop
  endfacet
  facet normal 0.00000000 0.00000000 1.00000000
    outer loop
      vertex 2.27526912 0.26005392 0.00000000
      vertex 2.23553703 0.49680309 0.00000000
      vertex 1.78454968 0.42111757 0.00000000
    endloop
  endfacet
  facet normal 0.00000000 0.00000000 1.00000000
    outer loop
      vertex 1.82428097 0.18436826 0.00000000
      vertex 1.33355307 0.34543205 0.00000000
      vertex 1.37328357 0.10868261 0.00000000
    endloop
  endfacet
  facet normal 0.00000000 0.00000000 1.00000000
    outer loop
      vertex 1.82428097 0.18436826 0.00000000
      vertex 1.78454968 0.42111757 0.00000000
      vertex 1.33355307 0.34543205 0.00000000
    endloop
  endfacet
  facet normal 0.00000000 0.00000000 1.00000000
    outer loop
      vertex 1.37328357 0.10868261 0.00000000
      vertex 0.88254719 0.26974653 0.00000000
      vertex 0.92227690 0.03299695 0.00000000
    endloop
  endfacet
  facet normal 0.00000000 0.00000000 1.00000000
    outer loop
      vertex 1.37328357 0.10868261 0.00000000
      vertex 1.33355307 0.34543205 0.00000000
      vertex 0.88254719 0.26974653 0.00000000
    endloop
  endfacet
  facet normal 0.00000000 0.00000000 1.00000000
    outer loop
      vertex 0.92227690 0.03299695 0.00000000
      vertex 0.43153206 0.19406101 0.00000000
      vertex 0.47126097 -0.04268870 0.00000000
    endloop
  endfacet
  facet normal 0.00000000 0.00000000 1.00000000
    outer loop
      vertex 0.92227690 0.03299695 0.00000000
      vertex 0.88254719 0.26974653 0.00000000
      vertex 0.43153206 0.19406101 0.00000000
    endloop
  endfacet
  facet normal 0.00000000 0.00000000 1.00000000
    outer loop
      vertex 0.47126097 -0.04268870 0.00000000
      vertex -0.01949234 0.11837549 0.00000000
      vertex 0.02023578 -0.11837435 0.00000000
    endloop
  endfacet
  facet normal 0.00000000 0.00000000 1.00000000
    outer loop
      vertex 0.47126097 -0.04268870 0.00000000
      vertex 0.43153206 0.19406101 0.00000000
      vertex -0.01949234 0.11837549 0.00000000
    endloop
  endfacet
  facet normal 0.00000000 0.00000000 1.00000000
    outer loop
      vertex 0.02023578 -0.11837435 0.00000000
      vertex -0.47052600 0.04268996 0.00000000
      vertex -0.43079867 -0.19406001 0.00000000
    endloop
  endfacet
  facet normal 0.00000000 0.00000000 1.00000000
    outer loop
      vertex 0.02023578 -0.11837435 0.00000000
      vertex -0.01949234 0.11837549 0.00000000
      vertex -0.47052600 0.04268996 0.00000000
    endloop
  endfacet
  facet normal 0.00000000 0.00000000 1.00000000
    outer loop
      vertex -0.43079867 -0.19406001 0.00000000
      vertex -0.92156892 -0.03299556 0.00000000
      vertex -0.88184238 -0.26974566 0.00000000
    endloop
  endfacet
  facet normal 0.00000000 0.00000000 1.00000000
    outer loop
      vertex -0.43079867 -0.19406001 0.00000000
      vertex -0.47052600 0.04268996 0.00000000
      vertex -0.92156892 -0.03299556 0.00000000
    endloop
  endfacet
  facet normal 0.00000000 0.00000000 1.00000000
    outer loop
      vertex -0.88184238 -0.26974566 0.00000000
      vertex -1.37262110 -0.10868108 0.00000000
      vertex -1.33289536 -0.34543132 0.00000000
    endloop
  endfacet
  facet normal 0.00000000 0.00000000 1.00000000
    outer loop
      vertex -0.88184238 -0.26974566 0.00000000
      vertex -0.92156892 -0.03299556 0.00000000
      vertex -1.37262110 -0.10868108 0.00000000
    endloop
  endfacet
  facet normal 0.00000000 0.00000000 1.00000000
    outer loop
      vertex -1.33289536 -0.34543132 0.00000000
      vertex -1.82368254 -0.18436660 0.00000000
      vertex -1.78395759 -0.42111697 0.00000000
    endloop
  endfacet
  facet normal 0.00000000 0.00000000 1.00000000
    outer loop
      vertex -1.33289536 -0.34543132 0.00000000
      vertex -1.37262110 -0.10868108 0.00000000
      vertex -1.82368254 -0.18436660 0.00000000
    endloop
  endfacet
  facet normal 0.00000000 0.00000000 1.00000000
    outer loop
      vertex -1.78395759 -0.42111697 0.00000000
      vertex -2.27475324 -0.26005212 0.00000000
      vertex -2.23502909 -0.49680263 0.00000000
    endloop
  endfacet
  facet normal 0.00000000 0.00000000 1.00000000
    outer loop
      vertex -1.78395759 -0.42111697 0.00000000
      vertex -1.82368254 -0.18436660 0.00000000
      vertex -2.27475324 -0.26005212 0.00000000
    endloop
  endfacet
  facet normal 0.00000000 0.00000000 1.00000000
    outer loop
      vertex -2.23502909 -0.49680263 0.00000000
      vertex -2.72583321 -0.33573764 0.00000000
      vertex -2.68610985 -0.57248828 0.00000000
    endloop
  endfacet
  facet normal 0.00000000 0.00000000 1.00000000
    outer loop
      vertex -2.23502909 -0.49680263 0.00000000
      vertex -2.27475324 -0.26005212 0.00000000
      vertex -2.72583321 -0.33573764 0.00000000
    endloop
  endfacet
  facet normal 0.00000000 0.00000000 1.00000000
    outer loop
      vertex -2.68610985 -0.57248828 0.00000000
      vertex -3.17692244 -0.41142316 0.00000000
      vertex -3.13719987 -0.64817394 0.00000000
    endloop
  endfacet
  facet normal 0.00000000 0.00000000 1.00000000
    outer loop
      vertex -2.68610985 -0.57248828 0.00000000
      vertex -2.72583321 -0.33573764 0.00000000
      vertex -3.17692244 -0.41142316 0.00000000
    endloop
  endfacet
  facet normal 0.00000000 0.00000000 1.00000000
    outer loop
      vertex -3.13719987 -0.64817394 0.00000000
      vertex -3.62802093 -0.48710869 0.00000000
      vertex -3.58829915 -0.72385959 0.00000000
    endloop
  endfacet
  facet normal 0.00000000 0.00000000 1.00000000
    outer loop
      vertex -3.13719987 -0.64817394 0.00000000
      vertex -3.17692244 -0.41142316 0.00000000
      vertex -3.62802093 -0.48710869 0.00000000
    endloop
  endfacet
  facet normal 0.00000000 0.00000000 1.00000000
    outer loop
      vertex -3.58829915 -0.72385959 0.00000000
      vertex -4.07912888 -0.56279424 0.00000000
      vertex -4.03940750 -0.79954521 0.00000000
    endloop
  endfacet
  facet normal 0.00000000 0.00000000 1.00000000
    outer loop
      vertex -3.58829915 -0.72385959 0.00000000
      vertex -3.62802093 -0.48710869 0.00000000
      vertex -4.07912888 -0.56279424 0.00000000
    endloop
  endfacet
endsolid lane_yellow_line_38
