solid lane_yellow_line_33
  facet normal -0.00000000 0.00000000 1.00000000
    outer loop
      vertex -0.56201900 0.04257410 0.00000000
      vertex -0.46861522 -0.18583303 0.00000000
      vertex -0.50531374 0.05140543 0.00000000
    endloop
  endfacet
  facet normal 0.00000000 0.00000000 1.00000000
    outer loop
      vertex -0.56201900 0.04257410 0.00000000
      vertex -0.52507713 -0.19462647 0.00000000
      vertex -0.46861522 -0.18583303 0.00000000
    endloop
  endfacet
  facet normal -0.00000000 0.00000000 1.00000000
    outer loop
      vertex -0.50531374 0.05140543 0.00000000
      vertex -0.41180079 -0.17710406 0.00000000
      vertex -0.44801630 0.06020862 0.00000000
    endloop
  endfacet
  facet normal 0.00000000 0.00000000 1.00000000
    outer loop
      vertex -0.50531374 0.05140543 0.00000000
      vertex -0.46861522 -0.18583303 0.00000000
      vertex -0.41180079 -0.17710406 0.00000000
    endloop
  endfacet
  facet normal -0.00000000 0.00000000 1.00000000
    outer loop
      vertex -0.44801630 0.06020862 0.00000000
      vertex -0.35451029 -0.16842032 0.00000000
      vertex -0.39025026 0.06896443 0.00000000
    endloop
  endfacet
  facet normal 0.00000000 0.00000000 1.00000000
    outer loop
      vertex -0.44801630 0.06020862 0.00000000
      vertex -0.41180079 -0.17710406 0.00000000
      vertex -0.35451029 -0.16842032 0.00000000
    endloop
  endfacet
  facet normal -0.00000000 0.00000000 1.00000000
    outer loop
      vertex -0.39025026 0.06896443 0.00000000
      vertex -0.29674380 -0.15978187 0.00000000
      vertex -0.33201553 0.07767291 0.00000000
    endloop
  endfacet
  facet normal 0.00000000 0.00000000 1.00000000
    outer loop
      vertex -0.39025026 0.06896443 0.00000000
      vertex -0.35451029 -0.16842032 0.00000000
      vertex -0.29674380 -0.15978187 0.00000000
    endloop
  endfacet
  facet normal -0.00000000 0.00000000 1.00000000
    outer loop
      vertex -0.33201553 0.07767291 0.00000000
      vertex -0.23850141 -0.15118873 0.00000000
      vertex -0.27331202 0.08633408 0.00000000
    endloop
  endfacet
  facet normal 0.00000000 0.00000000 1.00000000
    outer loop
      vertex -0.33201553 0.07767291 0.00000000
      vertex -0.29674380 -0.15978187 0.00000000
      vertex -0.23850141 -0.15118873 0.00000000
    endloop
  endfacet
  facet normal -0.00000000 0.00000000 1.00000000
    outer loop
      vertex -0.27331202 0.08633408 0.00000000
      vertex -0.17978319 -0.14264094 0.00000000
      vertex -0.21413965 0.09494799 0.00000000
    endloop
  endfacet
  facet normal 0.00000000 0.00000000 1.00000000
    outer loop
      vertex -0.27331202 0.08633408 0.00000000
      vertex -0.23850141 -0.15118873 0.00000000
      vertex -0.17978319 -0.14264094 0.00000000
    endloop
  endfacet
  facet normal -0.00000000 0.00000000 1.00000000
    outer loop
      vertex -0.21413965 0.09494799 0.00000000
      vertex -0.12058921 -0.13413852 0.00000000
      vertex -0.15449836 0.10351465 0.00000000
    endloop
  endfacet
  facet normal 0.00000000 0.00000000 1.00000000
    outer loop
      vertex -0.21413965 0.09494799 0.00000000
      vertex -0.17978319 -0.14264094 0.00000000
      vertex -0.12058921 -0.13413852 0.00000000
    endloop
  endfacet
  facet normal -0.00000000 0.00000000 1.00000000
    outer loop
      vertex -0.15449836 0.10351465 0.00000000
      vertex -0.06091956 -0.12568151 0.00000000
      vertex -0.09438807 0.11203411 0.00000000
    endloop
  endfacet
  facet normal 0.00000000 0.00000000 1.00000000
    outer loop
      vertex -0.15449836 0.10351465 0.00000000
      vertex -0.12058921 -0.13413852 0.00000000
      vertex -0.06091956 -0.12568151 0.00000000
    endloop
  endfacet
  facet normal -0.00000000 0.00000000 1.00000000
    outer loop
      vertex -0.09438807 0.11203411 0.00000000
      vertex -0.00077430 -0.11726994 0.00000000
      vertex -0.03380870 0.12050639 0.00000000
    endloop
  endfacet
  facet normal 0.00000000 0.00000000 1.00000000
    outer loop
      vertex -0.09438807 0.11203411 0.00000000
      vertex -0.06091956 -0.12568151 0.00000000
      vertex -0.00077430 -0.11726994 0.00000000
    endloop
  endfacet
  facet normal -0.00000000 0.00000000 1.00000000
    outer loop
      vertex -0.03380870 0.12050639 0.00000000
      vertex 0.05984650 -0.10890384 0.00000000
      vertex 0.02723981 0.12893152 0.00000000
    endloop
  endfacet
  facet normal 0.00000000 0.00000000 1.00000000
    outer loop
      vertex -0.03380870 0.12050639 0.00000000
      vertex -0.00077430 -0.11726994 0.00000000
      vertex 0.05984650 -0.10890384 0.00000000
    endloop
  endfacet
  facet normal -0.00000000 0.00000000 1.00000000
    outer loop
      vertex 0.02723981 0.12893152 0.00000000
      vertex 0.12094276 -0.10058323 0.00000000
      vertex 0.08875753 0.13730953 0.00000000
    endloop
  endfacet
  facet normal 0.00000000 0.00000000 1.00000000
    outer loop
      vertex 0.02723981 0.12893152 0.00000000
      vertex 0.05984650 -0.10890384 0.00000000
      vertex 0.12094276 -0.10058323 0.00000000
    endloop
  endfacet
  facet normal -0.00000000 0.00000000 1.00000000
    outer loop
      vertex 0.08875753 0.13730953 0.00000000
      vertex 0.18251443 -0.09230814 0.00000000
      vertex 0.15074453 0.14564044 0.00000000
    endloop
  endfacet
  facet normal 0.00000000 0.00000000 1.00000000
    outer loop
      vertex 0.08875753 0.13730953 0.00000000
      vertex 0.12094276 -0.10058323 0.00000000
      vertex 0.18251443 -0.09230814 0.00000000
    endloop
  endfacet
  facet normal -0.00000000 0.00000000 1.00000000
    outer loop
      vertex 0.15074453 0.14564044 0.00000000
      vertex 0.24456143 -0.08407859 0.00000000
      vertex 0.21320087 0.15392428 0.00000000
    endloop
  endfacet
  facet normal 0.00000000 0.00000000 1.00000000
    outer loop
      vertex 0.15074453 0.14564044 0.00000000
      vertex 0.18251443 -0.09230814 0.00000000
      vertex 0.24456143 -0.08407859 0.00000000
    endloop
  endfacet
  facet normal -0.00000000 0.00000000 1.00000000
    outer loop
      vertex 0.21320087 0.15392428 0.00000000
      vertex 0.30708371 -0.07589461 0.00000000
      vertex 0.27612662 0.16216108 0.00000000
    endloop
  endfacet
  facet normal 0.00000000 0.00000000 1.00000000
    outer loop
      vertex 0.21320087 0.15392428 0.00000000
      vertex 0.24456143 -0.08407859 0.00000000
      vertex 0.30708371 -0.07589461 0.00000000
    endloop
  endfacet
  facet normal -0.00000000 0.00000000 1.00000000
    outer loop
      vertex 0.27612662 0.16216108 0.00000000
      vertex 0.37008120 -0.06775622 0.00000000
      vertex 0.33952184 0.17035084 0.00000000
    endloop
  endfacet
  facet normal 0.00000000 0.00000000 1.00000000
    outer loop
      vertex 0.27612662 0.16216108 0.00000000
      vertex 0.30708371 -0.07589461 0.00000000
      vertex 0.37008120 -0.06775622 0.00000000
    endloop
  endfacet
  facet normal -0.00000000 0.00000000 1.00000000
    outer loop
      vertex 0.33952184 0.17035084 0.00000000
      vertex 0.43355385 -0.05966345 0.00000000
      vertex 0.40338658 0.17849361 0.00000000
    endloop
  endfacet
  facet normal 0.00000000 0.00000000 1.00000000
    outer loop
      vertex 0.33952184 0.17035084 0.00000000
      vertex 0.37008120 -0.06775622 0.00000000
      vertex 0.43355385 -0.05966345 0.00000000
    endloop
  endfacet
  facet normal -0.00000000 0.00000000 1.00000000
    outer loop
      vertex 0.40338658 0.17849361 0.00000000
      vertex 0.49750160 -0.05161631 0.00000000
      vertex 0.46772090 0.18658940 0.00000000
    endloop
  endfacet
  facet normal 0.00000000 0.00000000 1.00000000
    outer loop
      vertex 0.40338658 0.17849361 0.00000000
      vertex 0.43355385 -0.05966345 0.00000000
      vertex 0.49750160 -0.05161631 0.00000000
    endloop
  endfacet
  facet normal -0.00000000 0.00000000 1.00000000
    outer loop
      vertex 0.46772090 0.18658940 0.00000000
      vertex 0.56201900 -0.04360308 0.00000000
      vertex 0.53243025 0.19462647 0.00000000
    endloop
  endfacet
  facet normal 0.00000000 0.00000000 1.00000000
    outer loop
      vertex 0.46772090 0.18658940 0.00000000
      vertex 0.49750160 -0.05161631 0.00000000
      vertex 0.56201900 -0.04360308 0.00000000
    endloop
  endfacet
endsolid lane_yellow_line_33
