solid lane_yellow_line_03
  facet normal 0.00000000 0.00000000 1.00000000
    outer loop
      vertex 0.57857947 -0.03128330 0.00000000
      vertex 0.47937009 0.19621021 0.00000000
      vertex 0.51634714 -0.04098488 0.00000000
    endloop
  endfacet
  facet normal 0.00000000 0.00000000 1.00000000
    outer loop
      vertex 0.57857947 -0.03128330 0.00000000
      vertex 0.54160242 0.20591179 0.00000000
      vertex 0.47937009 0.19621021 0.00000000
    endloop
  endfacet
  facet normal 0.00000000 0.00000000 1.00000000
    outer loop
      vertex 0.51634714 -0.04098488 0.00000000
      vertex 0.41713777 0.18650862 0.00000000
      vertex 0.45411481 -0.05068646 0.00000000
    endloop
  endfacet
  facet normal 0.00000000 0.00000000 1.00000000
    outer loop
      vertex 0.51634714 -0.04098488 0.00000000
      vertex 0.47937009 0.19621021 0.00000000
      vertex 0.41713777 0.18650862 0.00000000
    endloop
  endfacet
  facet normal 0.00000000 0.00000000 1.00000000
    outer loop
      vertex 0.45411481 -0.05068646 0.00000000
      vertex 0.35490544 0.17680704 0.00000000
      vertex 0.39188249 -0.06038805 0.00000000
    endloop
  endfacet
  facet normal 0.00000000 0.00000000 1.00000000
    outer loop
      vertex 0.45411481 -0.05068646 0.00000000
      vertex 0.41713777 0.18650862 0.00000000
      vertex 0.35490544 0.17680704 0.00000000
    endloop
  endfacet
  facet normal 0.00000000 0.00000000 1.00000000
    outer loop
      vertex 0.39188249 -0.06038805 0.00000000
      vertex 0.29267311 0.16710546 0.00000000
      vertex 0.32965016 -0.07008963 0.00000000
    endloop
  endfacet
  facet normal 0.00000000 0.00000000 1.00000000
    outer loop
      vertex 0.39188249 -0.06038805 0.00000000
      vertex 0.35490544 0.17680704 0.00000000
      vertex 0.29267311 0.16710546 0.00000000
    endloop
  endfacet
  facet normal 0.00000000 0.00000000 1.00000000
    outer loop
      vertex 0.32965016 -0.07008963 0.00000000
      vertex 0.23044078 0.15740387 0.00000000
      vertex 0.26741783 -0.07979121 0.00000000
    endloop
  endfacet
  facet normal 0.00000000 0.00000000 1.00000000
    outer loop
      vertex 0.32965016 -0.07008963 0.00000000
      vertex 0.29267311 0.16710546 0.00000000
      vertex 0.23044078 0.15740387 0.00000000
    endloop
  endfacet
  facet normal 0.00000000 0.00000000 1.00000000
    outer loop
      vertex 0.26741783 -0.07979121 0.00000000
      vertex 0.16820846 0.14770229 0.00000000
      vertex 0.20518551 -0.08949279 0.00000000
    endloop
  endfacet
  facet normal 0.00000000 0.00000000 1.00000000
    outer loop
      vertex 0.26741783 -0.07979121 0.00000000
      vertex 0.23044078 0.15740387 0.00000000
      vertex 0.16820846 0.14770229 0.00000000
    endloop
  endfacet
  facet normal 0.00000000 0.00000000 1.00000000
    outer loop
      vertex 0.20518551 -0.08949279 0.00000000
      vertex 0.10597613 0.13800071 0.00000000
      vertex 0.14295318 -0.09919438 0.00000000
    endloop
  endfacet
  facet normal 0.00000000 0.00000000 1.00000000
    outer loop
      vertex 0.20518551 -0.08949279 0.00000000
      vertex 0.16820846 0.14770229 0.00000000
      vertex 0.10597613 0.13800071 0.00000000
    endloop
  endfacet
  facet normal 0.00000000 0.00000000 1.00000000
    outer loop
      vertex 0.14295318 -0.09919438 0.00000000
      vertex 0.04374380 0.12829913 0.00000000
      vertex 0.08072085 -0.10889596 0.00000000
    endloop
  endfacet
  facet normal 0.00000000 0.00000000 1.00000000
    outer loop
      vertex 0.14295318 -0.09919438 0.00000000
      vertex 0.10597613 0.13800071 0.00000000
      vertex 0.04374380 0.12829913 0.00000000
    endloop
  endfacet
  facet normal 0.00000000 0.00000000 1.00000000
    outer loop
      vertex 0.08072085 -0.10889596 0.00000000
      vertex -0.01848852 0.11859754 0.00000000
      vertex 0.01848852 -0.11859754 0.00000000
    endloop
  endfacet
  facet normal 0.00000000 0.00000000 1.00000000
    outer loop
      vertex 0.08072085 -0.10889596 0.00000000
      vertex 0.04374380 0.12829913 0.00000000
      vertex -0.01848852 0.11859754 0.00000000
    endloop
  endfacet
  facet normal 0.00000000 0.00000000 1.00000000
    outer loop
      vertex 0.01848852 -0.11859754 0.00000000
      vertex -0.08072085 0.10889596 0.00000000
      vertex -0.04374380 -0.12829913 0.00000000
    endloop
  endfacet
  facet normal 0.00000000 0.00000000 1.00000000
    outer loop
      vertex 0.01848852 -0.11859754 0.00000000
      vertex -0.01848852 0.11859754 0.00000000
      vertex -0.08072085 0.10889596 0.00000000
    endloop
  endfacet
  facet normal 0.00000000 0.00000000 1.00000000
    outer loop
      vertex -0.04374380 -0.12829913 0.00000000
      vertex -0.14295318 0.09919438 0.00000000
      vertex -0.10597613 -0.13800071 0.00000000
    endloop
  endfacet
  facet normal 0.00000000 0.00000000 1.00000000
    outer loop
      vertex -0.04374380 -0.12829913 0.00000000
      vertex -0.08072085 0.10889596 0.00000000
      vertex -0.14295318 0.09919438 0.00000000
    endloop
  endfacet
  facet normal 0.00000000 0.00000000 1.00000000
    outer loop
      vertex -0.10597613 -0.13800071 0.00000000
      vertex -0.20518551 0.08949279 0.00000000
      vertex -0.16820846 -0.14770229 0.00000000
    endloop
  endfacet
  facet normal 0.00000000 0.00000000 1.00000000
    outer loop
      vertex -0.10597613 -0.13800071 0.00000000
      vertex -0.14295318 0.09919438 0.00000000
      vertex -0.20518551 0.08949279 0.00000000
    endloop
  endfacet
  facet normal 0.00000000 0.00000000 1.00000000
    outer loop
      vertex -0.16820846 -0.14770229 0.00000000
      vertex -0.26741783 0.07979121 0.00000000
      vertex -0.23044078 -0.15740387 0.00000000
    endloop
  endfacet
  facet normal 0.00000000 0.00000000 1.00000000
    outer loop
      vertex -0.16820846 -0.14770229 0.00000000
      vertex -0.20518551 0.08949279 0.00000000
      vertex -0.26741783 0.07979121 0.00000000
    endloop
  endfacet
  facet normal 0.00000000 0.00000000 1.00000000
    outer loop
      vertex -0.23044078 -0.15740387 0.00000000
      vertex -0.32965016 0.07008963 0.00000000
      vertex -0.29267311 -0.16710546 0.00000000
    endloop
  endfacet
  facet normal 0.00000000 0.00000000 1.00000000
    outer loop
      vertex -0.23044078 -0.15740387 0.00000000
      vertex -0.26741783 0.07979121 0.00000000
      vertex -0.32965016 0.07008963 0.00000000
    endloop
  endfacet
  facet normal 0.00000000 0.00000000 1.00000000
    outer loop
      vertex -0.29267311 -0.16710546 0.00000000
      vertex -0.39188249 0.06038805 0.00000000
      vertex -0.35490544 -0.17680704 0.00000000
    endloop
  endfacet
  facet normal 0.00000000 0.00000000 1.00000000
    outer loop
      vertex -0.29267311 -0.16710546 0.00000000
      vertex -0.32965016 0.07008963 0.00000000
      vertex -0.39188249 0.06038805 0.00000000
    endloop
  endfacet
  facet normal 0.00000000 0.00000000 1.00000000
    outer loop
      vertex -0.35490544 -0.17680704 0.00000000
      vertex -0.45411481 0.05068646 0.00000000
      vertex -0.41713777 -0.18650862 0.00000000
    endloop
  endfacet
  facet normal 0.00000000 0.00000000 1.00000000
    outer loop
      vertex -0.35490544 -0.17680704 0.00000000
      vertex -0.39188249 0.06038805 0.00000000
      vertex -0.45411481 0.05068646 0.00000000
    endloop
  endfacet
  facet normal 0.00000000 0.00000000 1.00000000
    outer loop
      vertex -0.41713777 -0.18650862 0.00000000
      vertex -0.51634714 0.04098488 0.00000000
      vertex -0.47937009 -0.19621021 0.00000000
    endloop
  endfacet
  facet normal 0.00000000 0.00000000 1.00000000
    outer loop
      vertex -0.41713777 -0.18650862 0.00000000
      vertex -0.45411481 0.05068646 0.00000000
      vertex -0.51634714 0.04098488 0.00000000
    endloop
  endfacet
  facet normal 0.00000000 0.00000000 1.00000000
    outer loop
      vertex -0.47937009 -0.19621021 0.00000000
      vertex -0.57857947 0.03128330 0.00000000
      vertex -0.54160242 -0.20591179 0.00000000
    endloop
  endfacet
  facet normal 0.00000000 0.00000000 1.00000000
    outer loop
      vertex -0.47937009 -0.19621021 0.00000000
      vertex -0.51634714 0.04098488 0.00000000
      vertex -0.57857947 0.03128330 0.00000000
    endloop
  endfacet
endsolid lane_yellow_line_03
