solid lane_yellow_line_02
  facet normal 0.00000000 0.00000000 1.00000000
    outer loop
      vertex 0.57220247 -0.03077320 0.00000000
      vertex 0.47310772 0.19657023 0.00000000
      vertex 0.51071364 -0.04052596 0.00000000
    endloop
  endfacet
  facet normal 0.00000000 0.00000000 1.00000000
    outer loop
      vertex 0.57220247 -0.03077320 0.00000000
      vertex 0.53459656 0.20632300 0.00000000
      vertex 0.47310772 0.19657023 0.00000000
    endloop
  endfacet
  facet normal 0.00000000 0.00000000 1.00000000
    outer loop
      vertex 0.51071364 -0.04052596 0.00000000
      vertex 0.41161889 0.18681746 0.00000000
      vertex 0.44922480 -0.05027873 0.00000000
    endloop
  endfacet
  facet normal 0.00000000 0.00000000 1.00000000
    outer loop
      vertex 0.51071364 -0.04052596 0.00000000
      vertex 0.47310772 0.19657023 0.00000000
      vertex 0.41161889 0.18681746 0.00000000
    endloop
  endfacet
  facet normal 0.00000000 0.00000000 1.00000000
    outer loop
      vertex 0.44922480 -0.05027873 0.00000000
      vertex 0.35013005 0.17706470 0.00000000
      vertex 0.38773597 -0.06003150 0.00000000
    endloop
  endfacet
  facet normal 0.00000000 0.00000000 1.00000000
    outer loop
      vertex 0.44922480 -0.05027873 0.00000000
      vertex 0.41161889 0.18681746 0.00000000
      vertex 0.35013005 0.17706470 0.00000000
    endloop
  endfacet
  facet normal 0.00000000 0.00000000 1.00000000
    outer loop
      vertex 0.38773597 -0.06003150 0.00000000
      vertex 0.28864122 0.16731193 0.00000000
      vertex 0.32624713 -0.06978426 0.00000000
    endloop
  endfacet
  facet normal 0.00000000 0.00000000 1.00000000
    outer loop
      vertex 0.38773597 -0.06003150 0.00000000
      vertex 0.35013005 0.17706470 0.00000000
      vertex 0.28864122 0.16731193 0.00000000
    endloop
  endfacet
  facet normal 0.00000000 0.00000000 1.00000000
    outer loop
      vertex 0.32624713 -0.06978426 0.00000000
      vertex 0.22715238 0.15755916 0.00000000
      vertex 0.26475830 -0.07953703 0.00000000
    endloop
  endfacet
  facet normal 0.00000000 0.00000000 1.00000000
    outer loop
      vertex 0.32624713 -0.06978426 0.00000000
      vertex 0.28864122 0.16731193 0.00000000
      vertex 0.22715238 0.15755916 0.00000000
    endloop
  endfacet
  facet normal 0.00000000 0.00000000 1.00000000
    outer loop
      vertex 0.26475830 -0.07953703 0.00000000
      vertex 0.16566355 0.14780640 0.00000000
      vertex 0.20326946 -0.08928980 0.00000000
    endloop
  endfacet
  facet normal 0.00000000 0.00000000 1.00000000
    outer loop
      vertex 0.26475830 -0.07953703 0.00000000
      vertex 0.22715238 0.15755916 0.00000000
      vertex 0.16566355 0.14780640 0.00000000
    endloop
  endfacet
  facet normal 0.00000000 0.00000000 1.00000000
    outer loop
      vertex 0.20326946 -0.08928980 0.00000000
      vertex 0.10417471 0.13805363 0.00000000
      vertex 0.14178063 -0.09904256 0.00000000
    endloop
  endfacet
  facet normal 0.00000000 0.00000000 1.00000000
    outer loop
      vertex 0.20326946 -0.08928980 0.00000000
      vertex 0.16566355 0.14780640 0.00000000
      vertex 0.10417471 0.13805363 0.00000000
    endloop
  endfacet
  facet normal 0.00000000 0.00000000 1.00000000
    outer loop
      vertex 0.14178063 -0.09904256 0.00000000
      vertex 0.04268588 0.12830086 0.00000000
      vertex 0.08029179 -0.10879533 0.00000000
    endloop
  endfacet
  facet normal 0.00000000 0.00000000 1.00000000
    outer loop
      vertex 0.14178063 -0.09904256 0.00000000
      vertex 0.10417471 0.13805363 0.00000000
      vertex 0.04268588 0.12830086 0.00000000
    endloop
  endfacet
  facet normal 0.00000000 0.00000000 1.00000000
    outer loop
      vertex 0.08029179 -0.10879533 0.00000000
      vertex -0.01880296 0.11854810 0.00000000
      vertex 0.01880296 -0.11854810 0.00000000
    endloop
  endfacet
  facet normal 0.00000000 0.00000000 1.00000000
    outer loop
      vertex 0.08029179 -0.10879533 0.00000000
      vertex 0.04268588 0.12830086 0.00000000
      vertex -0.01880296 0.11854810 0.00000000
    endloop
  endfacet
  facet normal 0.00000000 0.00000000 1.00000000
    outer loop
      vertex 0.01880296 -0.11854810 0.00000000
      vertex -0.08029179 0.10879533 0.00000000
      vertex -0.04268588 -0.12830086 0.00000000
    endloop
  endfacet
  facet normal 0.00000000 0.00000000 1.00000000
    outer loop
      vertex 0.01880296 -0.11854810 0.00000000
      vertex -0.01880296 0.11854810 0.00000000
      vertex -0.08029179 0.10879533 0.00000000
    endloop
  endfacet
  facet normal 0.00000000 0.00000000 1.00000000
    outer loop
      vertex -0.04268588 -0.12830086 0.00000000
      vertex -0.14178063 0.09904256 0.00000000
      vertex -0.10417471 -0.13805363 0.00000000
    endloop
  endfacet
  facet normal 0.00000000 0.00000000 1.00000000
    outer loop
      vertex -0.04268588 -0.12830086 0.00000000
      vertex -0.08029179 0.10879533 0.00000000
      vertex -0.14178063 0.09904256 0.00000000
    endloop
  endfacet
  facet normal 0.00000000 0.00000000 1.00000000
    outer loop
      vertex -0.10417471 -0.13805363 0.00000000
      vertex -0.20326946 0.08928980 0.00000000
      vertex -0.16566355 -0.14780640 0.00000000
    endloop
  endfacet
  facet normal 0.00000000 0.00000000 1.00000000
    outer loop
      vertex -0.10417471 -0.13805363 0.00000000
      vertex -0.14178063 0.09904256 0.00000000
      vertex -0.20326946 0.08928980 0.00000000
    endloop
  endfacet
  facet normal 0.00000000 0.00000000 1.00000000
    outer loop
      vertex -0.16566355 -0.14780640 0.00000000
      vertex -0.26475830 0.07953703 0.00000000
      vertex -0.22715238 -0.15755916 0.00000000
    endloop
  endfacet
  facet normal 0.00000000 0.00000000 1.00000000
    outer loop
      vertex -0.16566355 -0.14780640 0.00000000
      vertex -0.20326946 0.08928980 0.00000000
      vertex -0.26475830 0.07953703 0.00000000
    endloop
  endfacet
  facet normal 0.00000000 0.00000000 1.00000000
    outer loop
      vertex -0.22715238 -0.15755916 0.00000000
      vertex -0.32624713 0.06978426 0.00000000
      vertex -0.28864122 -0.16731193 0.00000000
    endloop
  endfacet
  facet normal 0.00000000 0.00000000 1.00000000
    outer loop
      vertex -0.22715238 -0.15755916 0.00000000
      vertex -0.26475830 0.07953703 0.00000000
      vertex -0.32624713 0.06978426 0.00000000
    endloop
  endfacet
  facet normal 0.00000000 0.00000000 1.00000000
    outer loop
      vertex -0.28864122 -0.16731193 0.00000000
      vertex -0.38773597 0.06003150 0.00000000
      vertex -0.35013005 -0.17706470 0.00000000
    endloop
  endfacet
  facet normal 0.00000000 0.00000000 1.00000000
    outer loop
      vertex -0.28864122 -0.16731193 0.00000000
      vertex -0.32624713 0.06978426 0.00000000
      vertex -0.38773597 0.06003150 0.00000000
    endloop
  endfacet
  facet normal 0.00000000 0.00000000 1.00000000
    outer loop
      vertex -0.35013005 -0.17706470 0.00000000
      vertex -0.44922480 0.05027873 0.00000000
      vertex -0.41161889 -0.18681746 0.00000000
    endloop
  endfacet
  facet normal 0.00000000 0.00000000 1.00000000
    outer loop
      vertex -0.35013005 -0.17706470 0.00000000
      vertex -0.38773597 0.06003150 0.00000000
      vertex -0.44922480 0.05027873 0.00000000
    endloop
  endfacet
  facet normal 0.00000000 0.00000000 1.00000000
    outer loop
      vertex -0.41161889 -0.18681746 0.00000000
      vertex -0.51071364 0.04052596 0.00000000
      vertex -0.47310772 -0.19657023 0.00000000
    endloop
  endfacet
  facet normal 0.00000000 0.00000000 1.00000000
    outer loop
      vertex -0.41161889 -0.18681746 0.00000000
      vertex -0.44922480 0.05027873 0.00000000
      vertex -0.51071364 0.04052596 0.00000000
    endloop
  endfacet
  facet normal 0.00000000 0.00000000 1.00000000
    outer loop
      vertex -0.47310772 -0.19657023 0.00000000
      vertex -0.57220247 0.03077320 0.00000000
      vertex -0.53459656 -0.20632300 0.00000000
    endloop
  endfacet
  facet normal 0.00000000 0.00000000 1.00000000
    outer loop
      vertex -0.47310772 -0.19657023 0.00000000
      vertex -0.51071364 0.04052596 0.00000000
      vertex -0.57220247 0.03077320 0.00000000
    endloop
  endfacet
endsolid lane_yellow_line_02
