solid lane_yellow_line_16
  facet normal 0.00000000 0.00000000 1.00000000
    outer loop
      vertex 17.25562293 12.38824893 0.00000000
      vertex 15.41250443 12.33588578 0.00000000
      vertex 15.45050439 12.09885242 0.00000000
    endloop
  endfacet
  facet normal 0.00000000 0.00000000 1.00000000
    outer loop
      vertex 17.25562293 12.38824893 0.00000000
      vertex 17.21762178 12.62528210 0.00000000
      vertex 15.41250443 12.33588578 0.00000000
    endloop
  endfacet
  facet normal 0.00000000 0.00000000 1.00000000
    outer loop
      vertex 15.45050439 12.09885242 0.00000000
      vertex 13.60738767 12.04650807 0.00000000
      vertex 13.64538526 11.80947433 0.00000000
    endloop
  endfacet
  facet normal 0.00000000 0.00000000 1.00000000
    outer loop
      vertex 15.45050439 12.09885242 0.00000000
      vertex 15.41250443 12.33588578 0.00000000
      vertex 13.60738767 12.04650807 0.00000000
    endloop
  endfacet
  facet normal 0.00000000 0.00000000 1.00000000
    outer loop
      vertex 13.64538526 11.80947433 0.00000000
      vertex 11.80227091 11.75714888 0.00000000
      vertex 11.84026613 11.52011476 0.00000000
    endloop
  endfacet
  facet normal 0.00000000 0.00000000 1.00000000
    outer loop
      vertex 13.64538526 11.80947433 0.00000000
      vertex 13.60738767 12.04650807 0.00000000
      vertex 11.80227091 11.75714888 0.00000000
    endloop
  endfacet
  facet normal 0.00000000 0.00000000 1.00000000
    outer loop
      vertex 11.84026613 11.52011476 0.00000000
      vertex 9.99715415 11.46780822 0.00000000
      vertex 10.03514700 11.23077371 0.00000000
    endloop
  endfacet
  facet normal 0.00000000 0.00000000 1.00000000
    outer loop
      vertex 11.84026613 11.52011476 0.00000000
      vertex 11.80227091 11.75714888 0.00000000
      vertex 9.99715415 11.46780822 0.00000000
    endloop
  endfacet
  facet normal 0.00000000 0.00000000 1.00000000
    outer loop
      vertex 10.03514700 11.23077371 0.00000000
      vertex 8.19203739 11.17848607 0.00000000
      vertex 8.23002786 10.94145119 0.00000000
    endloop
  endfacet
  facet normal 0.00000000 0.00000000 1.00000000
    outer loop
      vertex 10.03514700 11.23077371 0.00000000
      vertex 9.99715415 11.46780822 0.00000000
      vertex 8.19203739 11.17848607 0.00000000
    endloop
  endfacet
  facet normal 0.00000000 0.00000000 1.00000000
    outer loop
      vertex 8.23002786 10.94145119 0.00000000
      vertex 6.38692063 10.88918246 0.00000000
      vertex 6.42490873 10.65214720 0.00000000
    endloop
  endfacet
  facet normal 0.00000000 0.00000000 1.00000000
    outer loop
      vertex 8.23002786 10.94145119 0.00000000
      vertex 8.19203739 11.17848607 0.00000000
      vertex 6.38692063 10.88918246 0.00000000
    endloop
  endfacet
  facet normal 0.00000000 0.00000000 1.00000000
    outer loop
      vertex 6.42490873 10.65214720 0.00000000
      vertex 4.58180387 10.59989736 0.00000000
      vertex 4.61978960 10.36286172 0.00000000
    endloop
  endfacet
  facet normal 0.00000000 0.00000000 1.00000000
    outer loop
      vertex 6.42490873 10.65214720 0.00000000
      vertex 6.38692063 10.88918246 0.00000000
      vertex 4.58180387 10.59989736 0.00000000
    endloop
  endfacet
  facet normal 0.00000000 0.00000000 1.00000000
    outer loop
      vertex 4.61978960 10.36286172 0.00000000
      vertex 2.77668711 10.31063079 0.00000000
      vertex 2.81467047 10.07359477 0.00000000
    endloop
  endfacet
  facet normal 0.00000000 0.00000000 1.00000000
    outer loop
      vertex 4.61978960 10.36286172 0.00000000
      vertex 4.58180387 10.59989736 0.00000000
      vertex 2.77668711 10.31063079 0.00000000
    endloop
  endfacet
  facet normal 0.00000000 0.00000000 1.00000000
    outer loop
      vertex 2.81467047 10.07359477 0.00000000
      vertex 0.97157035 10.02138274 0.00000000
      vertex 1.00955134 9.78434634 0.00000000
    endloop
  endfacet
  facet normal 0.00000000 0.00000000 1.00000000
    outer loop
      vertex 2.81467047 10.07359477 0.00000000
      vertex 2.77668711 10.31063079 0.00000000
      vertex 0.97157035 10.02138274 0.00000000
    endloop
  endfacet
  facet normal 0.00000000 0.00000000 1.00000000
    outer loop
      vertex 1.00955134 9.78434634 0.00000000
      vertex -0.83354641 9.73215322 0.00000000
      vertex -0.79556780 9.49511644 0.00000000
    endloop
  endfacet
  facet normal 0.00000000 0.00000000 1.00000000
    outer loop
      vertex 1.00955134 9.78434634 0.00000000
      vertex 0.97157035 10.02138274 0.00000000
      vertex -0.83354641 9.73215322 0.00000000
    endloop
  endfacet
  facet normal 0.00000000 0.00000000 1.00000000
    outer loop
      vertex -0.79556780 9.49511644 0.00000000
      vertex -2.63866317 9.44294222 0.00000000
      vertex -2.60068693 9.20590506 0.00000000
    endloop
  endfacet
  facet normal 0.00000000 0.00000000 1.00000000
    outer loop
      vertex -0.79556780 9.49511644 0.00000000
      vertex -0.83354641 9.73215322 0.00000000
      vertex -2.63866317 9.44294222 0.00000000
    endloop
  endfacet
  facet normal 0.00000000 0.00000000 1.00000000
    outer loop
      vertex -2.60068693 9.20590506 0.00000000
      vertex -4.44377993 9.15374974 0.00000000
      vertex -4.40580606 8.91671220 0.00000000
    endloop
  endfacet
  facet normal 0.00000000 0.00000000 1.00000000
    outer loop
      vertex -2.60068693 9.20590506 0.00000000
      vertex -2.63866317 9.44294222 0.00000000
      vertex -4.44377993 9.15374974 0.00000000
    endloop
  endfacet
  facet normal 0.00000000 0.00000000 1.00000000
    outer loop
      vertex -4.40580606 8.91671220 0.00000000
      vertex -6.24889669 8.86457578 0.00000000
      vertex -6.21092519 8.62753786 0.00000000
    endloop
  endfacet
  facet normal 0.00000000 0.00000000 1.00000000
    outer loop
      vertex -4.40580606 8.91671220 0.00000000
      vertex -4.44377993 9.15374974 0.00000000
      vertex -6.24889669 8.86457578 0.00000000
    endloop
  endfacet
  facet normal 0.00000000 0.00000000 1.00000000
    outer loop
      vertex -6.21092519 8.62753786 0.00000000
      vertex -8.05401345 8.57542035 0.00000000
      vertex -8.01604432 8.33838205 0.00000000
    endloop
  endfacet
  facet normal 0.00000000 0.00000000 1.00000000
    outer loop
      vertex -6.21092519 8.62753786 0.00000000
      vertex -6.24889669 8.86457578 0.00000000
      vertex -8.05401345 8.57542035 0.00000000
    endloop
  endfacet
  facet normal 0.00000000 0.00000000 1.00000000
    outer loop
      vertex -8.01604432 8.33838205 0.00000000
      vertex -9.85913022 8.28628344 0.00000000
      vertex -9.82116345 8.04924476 0.00000000
    endloop
  endfacet
  facet normal 0.00000000 0.00000000 1.00000000
    outer loop
      vertex -8.01604432 8.33838205 0.00000000
      vertex -8.05401345 8.57542035 0.00000000
      vertex -9.85913022 8.28628344 0.00000000
    endloop
  endfacet
  facet normal 0.00000000 0.00000000 1.00000000
    outer loop
      vertex -9.82116345 8.04924476 0.00000000
      vertex -11.66424698 7.99716506 0.00000000
      vertex -11.62628259 7.76012600 0.00000000
    endloop
  endfacet
  facet normal 0.00000000 0.00000000 1.00000000
    outer loop
      vertex -9.82116345 8.04924476 0.00000000
      vertex -9.85913022 8.28628344 0.00000000
      vertex -11.66424698 7.99716506 0.00000000
    endloop
  endfacet
  facet normal 0.00000000 0.00000000 1.00000000
    outer loop
      vertex -11.62628259 7.76012600 0.00000000
      vertex -13.46936374 7.70806519 0.00000000
      vertex -13.43140172 7.47102575 0.00000000
    endloop
  endfacet
  facet normal 0.00000000 0.00000000 1.00000000
    outer loop
      vertex -11.62628259 7.76012600 0.00000000
      vertex -11.66424698 7.99716506 0.00000000
      vertex -13.46936374 7.70806519 0.00000000
    endloop
  endfacet
  facet normal 0.00000000 0.00000000 1.00000000
    outer loop
      vertex -13.43140172 7.47102575 0.00000000
      vertex -15.28650450 7.41705826 0.00000000
      vertex -15.22449685 7.18386962 0.00000000
    endloop
  endfacet
  facet normal 0.00000000 0.00000000 1.00000000
    outer loop
      vertex -13.43140172 7.47102575 0.00000000
      vertex -13.46936374 7.70806519 0.00000000
      vertex -15.28650450 7.41705826 0.00000000
    endloop
  endfacet
  facet normal 0.00000000 0.00000000 1.00000000
    outer loop
      vertex -15.22449685 7.18386962 0.00000000
      vertex -15.83648674 7.20941637 0.00000000
      vertex -15.74620845 6.98690111 0.00000000
    endloop
  endfacet
  facet normal 0.00000000 0.00000000 1.00000000
    outer loop
      vertex -15.22449685 7.18386962 0.00000000
      vertex -15.28650450 7.41705826 0.00000000
      vertex -15.83648674 7.20941637 0.00000000
    endloop
  endfacet
  facet normal 0.00000000 0.00000000 1.00000000
    outer loop
      vertex -15.74620845 6.98690111 0.00000000
      vertex -16.35031161 6.98618217 0.00000000
      vertex -16.24891550 6.76849712 0.00000000
    endloop
  endfacet
  facet normal 0.00000000 0.00000000 1.00000000
    outer loop
      vertex -15.74620845 6.98690111 0.00000000
      vertex -15.83648674 7.20941637 0.00000000
      vertex -16.35031161 6.98618217 0.00000000
    endloop
  endfacet
  facet normal 0.00000000 0.00000000 1.00000000
    outer loop
      vertex -16.24891550 6.76849712 0.00000000
      vertex -16.83677399 6.74397263 0.00000000
      vertex -16.72382309 6.53204069 0.00000000
    endloop
  endfacet
  facet normal 0.00000000 0.00000000 1.00000000
    outer loop
      vertex -16.24891550 6.76849712 0.00000000
      vertex -16.35031161 6.98618217 0.00000000
      vertex -16.83677399 6.74397263 0.00000000
    endloop
  endfacet
  facet normal 0.00000000 0.00000000 1.00000000
    outer loop
      vertex -16.72382309 6.53204069 0.00000000
      vertex -17.29582751 6.48274009 0.00000000
      vertex -17.17097760 6.27757950 0.00000000
    endloop
  endfacet
  facet normal 0.00000000 0.00000000 1.00000000
    outer loop
      vertex -16.72382309 6.53204069 0.00000000
      vertex -16.83677399 6.74397263 0.00000000
      vertex -17.29582751 6.48274009 0.00000000
    endloop
  endfacet
  facet normal 0.00000000 0.00000000 1.00000000
    outer loop
      vertex -17.17097760 6.27757950 0.00000000
      vertex -17.72740984 6.20244406 0.00000000
      vertex -17.59044137 6.00515401 0.00000000
    endloop
  endfacet
  facet normal 0.00000000 0.00000000 1.00000000
    outer loop
      vertex -17.17097760 6.27757950 0.00000000
      vertex -17.29582751 6.48274009 0.00000000
      vertex -17.72740984 6.20244406 0.00000000
    endloop
  endfacet
  facet normal 0.00000000 0.00000000 1.00000000
    outer loop
      vertex -17.59044137 6.00515401 0.00000000
      vertex -18.13144262 5.90305621 0.00000000
      vertex -17.98229274 5.71479257 0.00000000
    endloop
  endfacet
  facet normal 0.00000000 0.00000000 1.00000000
    outer loop
      vertex -17.59044137 6.00515401 0.00000000
      vertex -17.72740984 6.20244406 0.00000000
      vertex -18.13144262 5.90305621 0.00000000
    endloop
  endfacet
  facet normal 0.00000000 0.00000000 1.00000000
    outer loop
      vertex -17.98229274 5.71479257 0.00000000
      vertex -18.50783330 5.58456564 0.00000000
      vertex -18.34662429 5.40650608 0.00000000
    endloop
  endfacet
  facet normal 0.00000000 0.00000000 1.00000000
    outer loop
      vertex -17.98229274 5.71479257 0.00000000
      vertex -18.13144262 5.90305621 0.00000000
      vertex -18.50783330 5.58456564 0.00000000
    endloop
  endfacet
  facet normal 0.00000000 0.00000000 1.00000000
    outer loop
      vertex -18.34662429 5.40650608 0.00000000
      vertex -18.85647906 5.24698374 0.00000000
      vertex -18.68353880 5.08028314 0.00000000
    endloop
  endfacet
  facet normal 0.00000000 0.00000000 1.00000000
    outer loop
      vertex -18.34662429 5.40650608 0.00000000
      vertex -18.50783330 5.58456564 0.00000000
      vertex -18.85647906 5.24698374 0.00000000
    endloop
  endfacet
  facet normal 0.00000000 0.00000000 1.00000000
    outer loop
      vertex -18.68353880 5.08028314 0.00000000
      vertex -19.17727304 4.89034751 0.00000000
      vertex -18.99314316 4.73608676 0.00000000
    endloop
  endfacet
  facet normal 0.00000000 0.00000000 1.00000000
    outer loop
      vertex -18.68353880 5.08028314 0.00000000
      vertex -18.85647906 5.24698374 0.00000000
      vertex -19.17727304 4.89034751 0.00000000
    endloop
  endfacet
  facet normal 0.00000000 0.00000000 1.00000000
    outer loop
      vertex -18.99314316 4.73608676 0.00000000
      vertex -19.47011213 4.51472043 0.00000000
      vertex -19.27554047 4.37385344 0.00000000
    endloop
  endfacet
  facet normal 0.00000000 0.00000000 1.00000000
    outer loop
      vertex -18.99314316 4.73608676 0.00000000
      vertex -19.17727304 4.89034751 0.00000000
      vertex -19.47011213 4.51472043 0.00000000
    endloop
  endfacet
  facet normal 0.00000000 0.00000000 1.00000000
    outer loop
      vertex -19.27554047 4.37385344 0.00000000
      vertex -19.73490528 4.12019024 0.00000000
      vertex -19.53082178 3.99349547 0.00000000
    endloop
  endfacet
  facet normal 0.00000000 0.00000000 1.00000000
    outer loop
      vertex -19.27554047 4.37385344 0.00000000
      vertex -19.47011213 4.51472043 0.00000000
      vertex -19.73490528 4.12019024 0.00000000
    endloop
  endfacet
  facet normal 0.00000000 0.00000000 1.00000000
    outer loop
      vertex -19.53082178 3.99349547 0.00000000
      vertex -19.97158101 3.70686346 0.00000000
      vertex -19.75905858 3.59490630 0.00000000
    endloop
  endfacet
  facet normal 0.00000000 0.00000000 1.00000000
    outer loop
      vertex -19.53082178 3.99349547 0.00000000
      vertex -19.73490528 4.12019024 0.00000000
      vertex -19.97158101 3.70686346 0.00000000
    endloop
  endfacet
  facet normal 0.00000000 0.00000000 1.00000000
    outer loop
      vertex -19.75905858 3.59490630 0.00000000
      vertex -20.18009266 3.27485760 0.00000000
      vertex -19.96029751 3.17796845 0.00000000
    endloop
  endfacet
  facet normal 0.00000000 0.00000000 1.00000000
    outer loop
      vertex -19.75905858 3.59490630 0.00000000
      vertex -19.97158101 3.70686346 0.00000000
      vertex -20.18009266 3.27485760 0.00000000
    endloop
  endfacet
  facet normal 0.00000000 0.00000000 1.00000000
    outer loop
      vertex -19.96029751 3.17796845 0.00000000
      vertex -20.36042059 2.82429213 0.00000000
      vertex -20.13455824 2.74256243 0.00000000
    endloop
  endfacet
  facet normal 0.00000000 0.00000000 1.00000000
    outer loop
      vertex -19.96029751 3.17796845 0.00000000
      vertex -20.18009266 3.27485760 0.00000000
      vertex -20.36042059 2.82429213 0.00000000
    endloop
  endfacet
  facet normal 0.00000000 0.00000000 1.00000000
    outer loop
      vertex -20.13455824 2.74256243 0.00000000
      vertex -20.51257106 2.35527995 0.00000000
      vertex -20.28183447 2.28857533 0.00000000
    endloop
  endfacet
  facet normal 0.00000000 0.00000000 1.00000000
    outer loop
      vertex -20.13455824 2.74256243 0.00000000
      vertex -20.36042059 2.82429213 0.00000000
      vertex -20.51257106 2.35527995 0.00000000
    endloop
  endfacet
  facet normal 0.00000000 0.00000000 1.00000000
    outer loop
      vertex -20.28183447 2.28857533 0.00000000
      vertex -20.63657251 1.86792049 0.00000000
      vertex -20.40209779 1.81590776 0.00000000
    endloop
  endfacet
  facet normal 0.00000000 0.00000000 1.00000000
    outer loop
      vertex -20.28183447 2.28857533 0.00000000
      vertex -20.51257106 2.35527995 0.00000000
      vertex -20.63657251 1.86792049 0.00000000
    endloop
  endfacet
  facet normal 0.00000000 0.00000000 1.00000000
    outer loop
      vertex -20.40209779 1.81590776 0.00000000
      vertex -20.73247011 1.36229525 0.00000000
      vertex -20.49530302 1.32447818 0.00000000
    endloop
  endfacet
  facet normal 0.00000000 0.00000000 1.00000000
    outer loop
      vertex -20.40209779 1.81590776 0.00000000
      vertex -20.63657251 1.86792049 0.00000000
      vertex -20.73247011 1.36229525 0.00000000
    endloop
  endfacet
  facet normal 0.00000000 0.00000000 1.00000000
    outer loop
      vertex -20.49530302 1.32447818 0.00000000
      vertex -20.80202837 0.82527484 0.00000000
      vertex -20.55968565 0.82741598 0.00000000
    endloop
  endfacet
  facet normal 0.00000000 0.00000000 1.00000000
    outer loop
      vertex -20.49530302 1.32447818 0.00000000
      vertex -20.73247011 1.36229525 0.00000000
      vertex -20.80202837 0.82527484 0.00000000
    endloop
  endfacet
  facet normal 0.00000000 0.00000000 1.00000000
    outer loop
      vertex -20.55968565 0.82741598 0.00000000
      vertex -20.72692161 0.31619980 0.00000000
      vertex -20.48943200 0.35123545 0.00000000
    endloop
  endfacet
  facet normal 0.00000000 0.00000000 1.00000000
    outer loop
      vertex -20.55968565 0.82741598 0.00000000
      vertex -20.80202837 0.82527484 0.00000000
      vertex -20.72692161 0.31619980 0.00000000
    endloop
  endfacet
  facet normal 0.00000000 0.00000000 1.00000000
    outer loop
      vertex -20.48943200 0.35123545 0.00000000
      vertex -20.65425103 -0.17643474 0.00000000
      vertex -20.41676069 -0.14140411 0.00000000
    endloop
  endfacet
  facet normal 0.00000000 0.00000000 1.00000000
    outer loop
      vertex -20.48943200 0.35123545 0.00000000
      vertex -20.72692161 0.31619980 0.00000000
      vertex -20.65425103 -0.17643474 0.00000000
    endloop
  endfacet
  facet normal 0.00000000 0.00000000 1.00000000
    outer loop
      vertex -20.41676069 -0.14140411 0.00000000
      vertex -20.58158972 -0.66907854 0.00000000
      vertex -20.34409863 -0.63405292 0.00000000
    endloop
  endfacet
  facet normal 0.00000000 0.00000000 1.00000000
    outer loop
      vertex -20.41676069 -0.14140411 0.00000000
      vertex -20.65425103 -0.17643474 0.00000000
      vertex -20.58158972 -0.66907854 0.00000000
    endloop
  endfacet
  facet normal 0.00000000 0.00000000 1.00000000
    outer loop
      vertex -20.34409863 -0.63405292 0.00000000
      vertex -20.50893767 -1.16173160 0.00000000
      vertex -20.27144584 -1.12671100 0.00000000
    endloop
  endfacet
  facet normal 0.00000000 0.00000000 1.00000000
    outer loop
      vertex -20.34409863 -0.63405292 0.00000000
      vertex -20.58158972 -0.66907854 0.00000000
      vertex -20.50893767 -1.16173160 0.00000000
    endloop
  endfacet
  facet normal 0.00000000 0.00000000 1.00000000
    outer loop
      vertex -20.27144584 -1.12671100 0.00000000
      vertex -20.43629488 -1.65439393 0.00000000
      vertex -20.19880231 -1.61937834 0.00000000
    endloop
  endfacet
  facet normal 0.00000000 0.00000000 1.00000000
    outer loop
      vertex -20.27144584 -1.12671100 0.00000000
      vertex -20.50893767 -1.16173160 0.00000000
      vertex -20.43629488 -1.65439393 0.00000000
    endloop
  endfacet
  facet normal 0.00000000 0.00000000 1.00000000
    outer loop
      vertex -20.19880231 -1.61937834 0.00000000
      vertex -20.36366135 -2.14706552 0.00000000
      vertex -20.12616804 -2.11205494 0.00000000
    endloop
  endfacet
  facet normal 0.00000000 0.00000000 1.00000000
    outer loop
      vertex -20.19880231 -1.61937834 0.00000000
      vertex -20.43629488 -1.65439393 0.00000000
      vertex -20.36366135 -2.14706552 0.00000000
    endloop
  endfacet
  facet normal 0.00000000 0.00000000 1.00000000
    outer loop
      vertex -20.12616804 -2.11205494 0.00000000
      vertex -20.29103708 -2.63974637 0.00000000
      vertex -20.05354303 -2.60474081 0.00000000
    endloop
  endfacet
  facet normal 0.00000000 0.00000000 1.00000000
    outer loop
      vertex -20.12616804 -2.11205494 0.00000000
      vertex -20.36366135 -2.14706552 0.00000000
      vertex -20.29103708 -2.63974637 0.00000000
    endloop
  endfacet
  facet normal 0.00000000 0.00000000 1.00000000
    outer loop
      vertex -20.05354303 -2.60474081 0.00000000
      vertex -20.21842207 -3.13243648 0.00000000
      vertex -19.98092729 -3.09743593 0.00000000
    endloop
  endfacet
  facet normal 0.00000000 0.00000000 1.00000000
    outer loop
      vertex -20.05354303 -2.60474081 0.00000000
      vertex -20.29103708 -2.63974637 0.00000000
      vertex -20.21842207 -3.13243648 0.00000000
    endloop
  endfacet
  facet normal 0.00000000 0.00000000 1.00000000
    outer loop
      vertex -19.98092729 -3.09743593 0.00000000
      vertex -20.14581633 -3.62513585 0.00000000
      vertex -19.90832080 -3.59014032 0.00000000
    endloop
  endfacet
  facet normal 0.00000000 0.00000000 1.00000000
    outer loop
      vertex -19.98092729 -3.09743593 0.00000000
      vertex -20.21842207 -3.13243648 0.00000000
      vertex -20.14581633 -3.62513585 0.00000000
    endloop
  endfacet
  facet normal 0.00000000 0.00000000 1.00000000
    outer loop
      vertex -19.90832080 -3.59014032 0.00000000
      vertex -20.07321984 -4.11784448 0.00000000
      vertex -19.83572358 -4.08285396 0.00000000
    endloop
  endfacet
  facet normal 0.00000000 0.00000000 1.00000000
    outer loop
      vertex -19.90832080 -3.59014032 0.00000000
      vertex -20.14581633 -3.62513585 0.00000000
      vertex -20.07321984 -4.11784448 0.00000000
    endloop
  endfacet
  facet normal 0.00000000 0.00000000 1.00000000
    outer loop
      vertex -19.83572358 -4.08285396 0.00000000
      vertex -20.00063262 -4.61056238 0.00000000
      vertex -19.76313562 -4.57557687 0.00000000
    endloop
  endfacet
  facet normal 0.00000000 0.00000000 1.00000000
    outer loop
      vertex -19.83572358 -4.08285396 0.00000000
      vertex -20.07321984 -4.11784448 0.00000000
      vertex -20.00063262 -4.61056238 0.00000000
    endloop
  endfacet
  facet normal 0.00000000 0.00000000 1.00000000
    outer loop
      vertex -19.76313562 -4.57557687 0.00000000
      vertex -19.92805466 -5.10328954 0.00000000
      vertex -19.69055692 -5.06830904 0.00000000
    endloop
  endfacet
  facet normal 0.00000000 0.00000000 1.00000000
    outer loop
      vertex -19.76313562 -4.57557687 0.00000000
      vertex -20.00063262 -4.61056238 0.00000000
      vertex -19.92805466 -5.10328954 0.00000000
    endloop
  endfacet
  facet normal 0.00000000 0.00000000 1.00000000
    outer loop
      vertex -19.69055692 -5.06830904 0.00000000
      vertex -19.85548596 -5.59602596 0.00000000
      vertex -19.61798748 -5.56105047 0.00000000
    endloop
  endfacet
  facet normal 0.00000000 0.00000000 1.00000000
    outer loop
      vertex -19.69055692 -5.06830904 0.00000000
      vertex -19.92805466 -5.10328954 0.00000000
      vertex -19.85548596 -5.59602596 0.00000000
    endloop
  endfacet
  facet normal 0.00000000 0.00000000 1.00000000
    outer loop
      vertex -19.61798748 -5.56105047 0.00000000
      vertex -19.78292652 -6.08877164 0.00000000
      vertex -19.54542731 -6.05380117 0.00000000
    endloop
  endfacet
  facet normal 0.00000000 0.00000000 1.00000000
    outer loop
      vertex -19.61798748 -5.56105047 0.00000000
      vertex -19.85548596 -5.59602596 0.00000000
      vertex -19.78292652 -6.08877164 0.00000000
    endloop
  endfacet
  facet normal 0.00000000 0.00000000 1.00000000
    outer loop
      vertex -19.54542731 -6.05380117 0.00000000
      vertex -19.71037635 -6.58152658 0.00000000
      vertex -19.47287640 -6.54656112 0.00000000
    endloop
  endfacet
  facet normal 0.00000000 0.00000000 1.00000000
    outer loop
      vertex -19.54542731 -6.05380117 0.00000000
      vertex -19.78292652 -6.08877164 0.00000000
      vertex -19.71037635 -6.58152658 0.00000000
    endloop
  endfacet
  facet normal 0.00000000 0.00000000 1.00000000
    outer loop
      vertex -19.47287640 -6.54656112 0.00000000
      vertex -19.63783543 -7.07429078 0.00000000
      vertex -19.40033474 -7.03933034 0.00000000
    endloop
  endfacet
  facet normal 0.00000000 0.00000000 1.00000000
    outer loop
      vertex -19.47287640 -6.54656112 0.00000000
      vertex -19.71037635 -6.58152658 0.00000000
      vertex -19.63783543 -7.07429078 0.00000000
    endloop
  endfacet
  facet normal 0.00000000 0.00000000 1.00000000
    outer loop
      vertex -19.40033474 -7.03933034 0.00000000
      vertex -19.56530378 -7.56706425 0.00000000
      vertex -19.32780235 -7.53210882 0.00000000
    endloop
  endfacet
  facet normal 0.00000000 0.00000000 1.00000000
    outer loop
      vertex -19.40033474 -7.03933034 0.00000000
      vertex -19.63783543 -7.07429078 0.00000000
      vertex -19.56530378 -7.56706425 0.00000000
    endloop
  endfacet
  facet normal 0.00000000 0.00000000 1.00000000
    outer loop
      vertex -19.32780235 -7.53210882 0.00000000
      vertex -19.49106003 -8.07154345 0.00000000
      vertex -19.25700058 -8.01320008 0.00000000
    endloop
  endfacet
  facet normal 0.00000000 0.00000000 1.00000000
    outer loop
      vertex -19.32780235 -7.53210882 0.00000000
      vertex -19.56530378 -7.56706425 0.00000000
      vertex -19.49106003 -8.07154345 0.00000000
    endloop
  endfacet
  facet normal 0.00000000 0.00000000 1.00000000
    outer loop
      vertex -19.25700058 -8.01320008 0.00000000
      vertex -19.34261621 -8.48793029 0.00000000
      vertex -19.11907652 -8.40007887 0.00000000
    endloop
  endfacet
  facet normal 0.00000000 0.00000000 1.00000000
    outer loop
      vertex -19.25700058 -8.01320008 0.00000000
      vertex -19.49106003 -8.07154345 0.00000000
      vertex -19.34261621 -8.48793029 0.00000000
    endloop
  endfacet
  facet normal 0.00000000 0.00000000 1.00000000
    outer loop
      vertex -19.11907652 -8.40007887 0.00000000
      vertex -19.17436794 -8.87881598 0.00000000
      vertex -18.95701999 -8.77657948 0.00000000
    endloop
  endfacet
  facet normal 0.00000000 0.00000000 1.00000000
    outer loop
      vertex -19.11907652 -8.40007887 0.00000000
      vertex -19.34261621 -8.48793029 0.00000000
      vertex -19.17436794 -8.87881598 0.00000000
    endloop
  endfacet
  facet normal 0.00000000 0.00000000 1.00000000
    outer loop
      vertex -18.95701999 -8.77657948 0.00000000
      vertex -18.98356081 -9.25177477 0.00000000
      vertex -18.77358540 -9.13512763 0.00000000
    endloop
  endfacet
  facet normal 0.00000000 0.00000000 1.00000000
    outer loop
      vertex -18.95701999 -8.77657948 0.00000000
      vertex -19.17436794 -8.87881598 0.00000000
      vertex -18.98356081 -9.25177477 0.00000000
    endloop
  endfacet
  facet normal 0.00000000 0.00000000 1.00000000
    outer loop
      vertex -18.77358540 -9.13512763 0.00000000
      vertex -18.77019852 -9.60669656 0.00000000
      vertex -18.56876908 -9.47583345 0.00000000
    endloop
  endfacet
  facet normal 0.00000000 0.00000000 1.00000000
    outer loop
      vertex -18.77358540 -9.13512763 0.00000000
      vertex -18.98356081 -9.25177477 0.00000000
      vertex -18.77019852 -9.60669656 0.00000000
    endloop
  endfacet
  facet normal 0.00000000 0.00000000 1.00000000
    outer loop
      vertex -18.56876908 -9.47583345 0.00000000
      vertex -18.53431028 -9.94346702 0.00000000
      vertex -18.34254179 -9.79881127 0.00000000
    endloop
  endfacet
  facet normal 0.00000000 0.00000000 1.00000000
    outer loop
      vertex -18.56876908 -9.47583345 0.00000000
      vertex -18.77019852 -9.60669656 0.00000000
      vertex -18.53431028 -9.94346702 0.00000000
    endloop
  endfacet
  facet normal 0.00000000 0.00000000 1.00000000
    outer loop
      vertex -18.34254179 -9.79881127 0.00000000
      vertex -18.27595122 -10.26197588 0.00000000
      vertex -18.09484840 -10.10417134 0.00000000
    endloop
  endfacet
  facet normal 0.00000000 0.00000000 1.00000000
    outer loop
      vertex -18.34254179 -9.79881127 0.00000000
      vertex -18.53431028 -9.94346702 0.00000000
      vertex -18.27595122 -10.26197588 0.00000000
    endloop
  endfacet
  facet normal 0.00000000 0.00000000 1.00000000
    outer loop
      vertex -18.09484840 -10.10417134 0.00000000
      vertex -17.99519961 -10.56212538 0.00000000
      vertex -17.82561067 -10.39201143 0.00000000
    endloop
  endfacet
  facet normal 0.00000000 0.00000000 1.00000000
    outer loop
      vertex -18.09484840 -10.10417134 0.00000000
      vertex -18.27595122 -10.26197588 0.00000000
      vertex -17.99519961 -10.56212538 0.00000000
    endloop
  endfacet
  facet normal 0.00000000 0.00000000 1.00000000
    outer loop
      vertex -17.82561067 -10.39201143 0.00000000
      vertex -17.69215119 -10.84383735 0.00000000
      vertex -17.53473283 -10.66240970 0.00000000
    endloop
  endfacet
  facet normal 0.00000000 0.00000000 1.00000000
    outer loop
      vertex -17.82561067 -10.39201143 0.00000000
      vertex -17.99519961 -10.56212538 0.00000000
      vertex -17.69215119 -10.84383735 0.00000000
    endloop
  endfacet
  facet normal 0.00000000 0.00000000 1.00000000
    outer loop
      vertex -17.53473283 -10.66240970 0.00000000
      vertex -17.36691164 -11.10705793 0.00000000
      vertex -17.22210922 -10.91542004 0.00000000
    endloop
  endfacet
  facet normal 0.00000000 0.00000000 1.00000000
    outer loop
      vertex -17.53473283 -10.66240970 0.00000000
      vertex -17.69215119 -10.84383735 0.00000000
      vertex -17.36691164 -11.10705793 0.00000000
    endloop
  endfacet
  facet normal 0.00000000 0.00000000 1.00000000
    outer loop
      vertex -17.22210922 -10.91542004 0.00000000
      vertex -17.01958835 -11.35175911 0.00000000
      vertex -16.88763242 -11.15107043 0.00000000
    endloop
  endfacet
  facet normal 0.00000000 0.00000000 1.00000000
    outer loop
      vertex -17.22210922 -10.91542004 0.00000000
      vertex -17.36691164 -11.10705793 0.00000000
      vertex -17.01958835 -11.35175911 0.00000000
    endloop
  endfacet
  facet normal 0.00000000 0.00000000 1.00000000
    outer loop
      vertex -16.88763242 -11.15107043 0.00000000
      vertex -16.65028300 -11.57793743 0.00000000
      vertex -16.53120078 -11.36936434 0.00000000
    endloop
  endfacet
  facet normal 0.00000000 0.00000000 1.00000000
    outer loop
      vertex -16.88763242 -11.15107043 0.00000000
      vertex -17.01958835 -11.35175911 0.00000000
      vertex -16.65028300 -11.57793743 0.00000000
    endloop
  endfacet
  facet normal 0.00000000 0.00000000 1.00000000
    outer loop
      vertex -16.53120078 -11.36936434 0.00000000
      vertex -16.25908573 -11.78561034 0.00000000
      vertex -16.15272415 -11.57028431 0.00000000
    endloop
  endfacet
  facet normal 0.00000000 0.00000000 1.00000000
    outer loop
      vertex -16.53120078 -11.36936434 0.00000000
      vertex -16.65028300 -11.57793743 0.00000000
      vertex -16.25908573 -11.78561034 0.00000000
    endloop
  endfacet
  facet normal 0.00000000 0.00000000 1.00000000
    outer loop
      vertex -16.15272415 -11.57028431 0.00000000
      vertex -15.84607163 -11.97481131 0.00000000
      vertex -15.75212745 -11.75379689 0.00000000
    endloop
  endfacet
  facet normal 0.00000000 0.00000000 1.00000000
    outer loop
      vertex -16.15272415 -11.57028431 0.00000000
      vertex -16.25908573 -11.78561034 0.00000000
      vertex -15.84607163 -11.97481131 0.00000000
    endloop
  endfacet
  facet normal 0.00000000 0.00000000 1.00000000
    outer loop
      vertex -15.75212745 -11.75379689 0.00000000
      vertex -15.41129926 -12.14558456 0.00000000
      vertex -15.32935210 -11.91985785 0.00000000
    endloop
  endfacet
  facet normal 0.00000000 0.00000000 1.00000000
    outer loop
      vertex -15.75212745 -11.75379689 0.00000000
      vertex -15.84607163 -11.97481131 0.00000000
      vertex -15.41129926 -12.14558456 0.00000000
    endloop
  endfacet
  facet normal 0.00000000 0.00000000 1.00000000
    outer loop
      vertex -15.32935210 -11.91985785 0.00000000
      vertex -14.95481103 -12.29798023 0.00000000
      vertex -14.88435569 -12.06841705 0.00000000
    endloop
  endfacet
  facet normal 0.00000000 0.00000000 1.00000000
    outer loop
      vertex -15.32935210 -11.91985785 0.00000000
      vertex -15.41129926 -12.14558456 0.00000000
      vertex -14.95481103 -12.29798023 0.00000000
    endloop
  endfacet
  facet normal 0.00000000 0.00000000 1.00000000
    outer loop
      vertex -14.88435569 -12.06841705 0.00000000
      vertex -14.47663470 -12.43205041 0.00000000
      vertex -14.41711048 -12.19942239 0.00000000
    endloop
  endfacet
  facet normal 0.00000000 0.00000000 1.00000000
    outer loop
      vertex -14.88435569 -12.06841705 0.00000000
      vertex -14.95481103 -12.29798023 0.00000000
      vertex -14.47663470 -12.43205041 0.00000000
    endloop
  endfacet
  facet normal 0.00000000 0.00000000 1.00000000
    outer loop
      vertex -14.41711048 -12.19942239 0.00000000
      vertex -13.97678562 -12.54784616 0.00000000
      vertex -13.92760111 -12.31282283 0.00000000
    endloop
  endfacet
  facet normal 0.00000000 0.00000000 1.00000000
    outer loop
      vertex -14.41711048 -12.19942239 0.00000000
      vertex -14.47663470 -12.43205041 0.00000000
      vertex -13.97678562 -12.54784616 0.00000000
    endloop
  endfacet
  facet normal 0.00000000 0.00000000 1.00000000
    outer loop
      vertex -13.92760111 -12.31282283 0.00000000
      vertex -13.43894960 -12.64846866 0.00000000
      vertex -13.43214177 -12.40551718 0.00000000
    endloop
  endfacet
  facet normal 0.00000000 0.00000000 1.00000000
    outer loop
      vertex -13.92760111 -12.31282283 0.00000000
      vertex -13.97678562 -12.54784616 0.00000000
      vertex -13.43894960 -12.64846866 0.00000000
    endloop
  endfacet
  facet normal -0.00000000 0.00000000 1.00000000
    outer loop
      vertex -13.43214177 -12.40551718 0.00000000
      vertex -13.08320092 -12.60234920 0.00000000
      vertex -13.11406458 -12.36428147 0.00000000
    endloop
  endfacet
  facet normal 0.00000000 0.00000000 1.00000000
    outer loop
      vertex -13.43214177 -12.40551718 0.00000000
      vertex -13.43894960 -12.64846866 0.00000000
      vertex -13.08320092 -12.60234920 0.00000000
    endloop
  endfacet
  facet normal -0.00000000 0.00000000 1.00000000
    outer loop
      vertex -13.11406458 -12.36428147 0.00000000
      vertex -12.74629683 -12.55867156 0.00000000
      vertex -12.77716133 -12.32060394 0.00000000
    endloop
  endfacet
  facet normal 0.00000000 0.00000000 1.00000000
    outer loop
      vertex -13.11406458 -12.36428147 0.00000000
      vertex -13.08320092 -12.60234920 0.00000000
      vertex -12.74629683 -12.55867156 0.00000000
    endloop
  endfacet
  facet normal -0.00000000 0.00000000 1.00000000
    outer loop
      vertex -12.77716133 -12.32060394 0.00000000
      vertex -12.40940201 -12.51499392 0.00000000
      vertex -12.44026734 -12.27692640 0.00000000
    endloop
  endfacet
  facet normal 0.00000000 0.00000000 1.00000000
    outer loop
      vertex -12.77716133 -12.32060394 0.00000000
      vertex -12.74629683 -12.55867156 0.00000000
      vertex -12.40940201 -12.51499392 0.00000000
    endloop
  endfacet
  facet normal -0.00000000 0.00000000 1.00000000
    outer loop
      vertex -12.44026734 -12.27692640 0.00000000
      vertex -12.07251644 -12.47131628 0.00000000
      vertex -12.10338261 -12.23324887 0.00000000
    endloop
  endfacet
  facet normal 0.00000000 0.00000000 1.00000000
    outer loop
      vertex -12.44026734 -12.27692640 0.00000000
      vertex -12.40940201 -12.51499392 0.00000000
      vertex -12.07251644 -12.47131628 0.00000000
    endloop
  endfacet
  facet normal -0.00000000 0.00000000 1.00000000
    outer loop
      vertex -12.10338261 -12.23324887 0.00000000
      vertex -11.73564014 -12.42763864 0.00000000
      vertex -11.76650714 -12.18957134 0.00000000
    endloop
  endfacet
  facet normal 0.00000000 0.00000000 1.00000000
    outer loop
      vertex -12.10338261 -12.23324887 0.00000000
      vertex -12.07251644 -12.47131628 0.00000000
      vertex -11.73564014 -12.42763864 0.00000000
    endloop
  endfacet
  facet normal -0.00000000 0.00000000 1.00000000
    outer loop
      vertex -11.76650714 -12.18957134 0.00000000
      vertex -11.39877310 -12.38396100 0.00000000
      vertex -11.42964093 -12.14589381 0.00000000
    endloop
  endfacet
  facet normal 0.00000000 0.00000000 1.00000000
    outer loop
      vertex -11.76650714 -12.18957134 0.00000000
      vertex -11.73564014 -12.42763864 0.00000000
      vertex -11.39877310 -12.38396100 0.00000000
    endloop
  endfacet
  facet normal -0.00000000 0.00000000 1.00000000
    outer loop
      vertex -11.42964093 -12.14589381 0.00000000
      vertex -11.06191532 -12.34028336 0.00000000
      vertex -11.09278399 -12.10221628 0.00000000
    endloop
  endfacet
  facet normal 0.00000000 0.00000000 1.00000000
    outer loop
      vertex -11.42964093 -12.14589381 0.00000000
      vertex -11.39877310 -12.38396100 0.00000000
      vertex -11.06191532 -12.34028336 0.00000000
    endloop
  endfacet
  facet normal -0.00000000 0.00000000 1.00000000
    outer loop
      vertex -11.09278399 -12.10221628 0.00000000
      vertex -10.72506680 -12.29660572 0.00000000
      vertex -10.75593631 -12.05853874 0.00000000
    endloop
  endfacet
  facet normal 0.00000000 0.00000000 1.00000000
    outer loop
      vertex -11.09278399 -12.10221628 0.00000000
      vertex -11.06191532 -12.34028336 0.00000000
      vertex -10.72506680 -12.29660572 0.00000000
    endloop
  endfacet
  facet normal -0.00000000 0.00000000 1.00000000
    outer loop
      vertex -10.75593631 -12.05853874 0.00000000
      vertex -10.38822754 -12.25292808 0.00000000
      vertex -10.41909788 -12.01486121 0.00000000
    endloop
  endfacet
  facet normal 0.00000000 0.00000000 1.00000000
    outer loop
      vertex -10.75593631 -12.05853874 0.00000000
      vertex -10.72506680 -12.29660572 0.00000000
      vertex -10.38822754 -12.25292808 0.00000000
    endloop
  endfacet
  facet normal -0.00000000 0.00000000 1.00000000
    outer loop
      vertex -10.41909788 -12.01486121 0.00000000
      vertex -10.05139755 -12.20925044 0.00000000
      vertex -10.08226872 -11.97118368 0.00000000
    endloop
  endfacet
  facet normal 0.00000000 0.00000000 1.00000000
    outer loop
      vertex -10.41909788 -12.01486121 0.00000000
      vertex -10.38822754 -12.25292808 0.00000000
      vertex -10.05139755 -12.20925044 0.00000000
    endloop
  endfacet
  facet normal -0.00000000 0.00000000 1.00000000
    outer loop
      vertex -10.08226872 -11.97118368 0.00000000
      vertex -9.71457682 -12.16557280 0.00000000
      vertex -9.74544882 -11.92750615 0.00000000
    endloop
  endfacet
  facet normal 0.00000000 0.00000000 1.00000000
    outer loop
      vertex -10.08226872 -11.97118368 0.00000000
      vertex -10.05139755 -12.20925044 0.00000000
      vertex -9.71457682 -12.16557280 0.00000000
    endloop
  endfacet
  facet normal -0.00000000 0.00000000 1.00000000
    outer loop
      vertex -9.74544882 -11.92750615 0.00000000
      vertex -9.37776534 -12.12189516 0.00000000
      vertex -9.40863819 -11.88382862 0.00000000
    endloop
  endfacet
  facet normal 0.00000000 0.00000000 1.00000000
    outer loop
      vertex -9.74544882 -11.92750615 0.00000000
      vertex -9.71457682 -12.16557280 0.00000000
      vertex -9.37776534 -12.12189516 0.00000000
    endloop
  endfacet
  facet normal -0.00000000 0.00000000 1.00000000
    outer loop
      vertex -9.40863819 -11.88382862 0.00000000
      vertex -9.04096313 -12.07821752 0.00000000
      vertex -9.07183681 -11.84015109 0.00000000
    endloop
  endfacet
  facet normal 0.00000000 0.00000000 1.00000000
    outer loop
      vertex -9.40863819 -11.88382862 0.00000000
      vertex -9.37776534 -12.12189516 0.00000000
      vertex -9.04096313 -12.07821752 0.00000000
    endloop
  endfacet
  facet normal -0.00000000 0.00000000 1.00000000
    outer loop
      vertex -9.07183681 -11.84015109 0.00000000
      vertex -8.70417018 -12.03453988 0.00000000
      vertex -8.73504470 -11.79647355 0.00000000
    endloop
  endfacet
  facet normal 0.00000000 0.00000000 1.00000000
    outer loop
      vertex -9.07183681 -11.84015109 0.00000000
      vertex -9.04096313 -12.07821752 0.00000000
      vertex -8.70417018 -12.03453988 0.00000000
    endloop
  endfacet
  facet normal -0.00000000 0.00000000 1.00000000
    outer loop
      vertex -8.73504470 -11.79647355 0.00000000
      vertex -8.36738650 -11.99086224 0.00000000
      vertex -8.39826184 -11.75279602 0.00000000
    endloop
  endfacet
  facet normal 0.00000000 0.00000000 1.00000000
    outer loop
      vertex -8.73504470 -11.79647355 0.00000000
      vertex -8.70417018 -12.03453988 0.00000000
      vertex -8.36738650 -11.99086224 0.00000000
    endloop
  endfacet
  facet normal -0.00000000 0.00000000 1.00000000
    outer loop
      vertex -8.39826184 -11.75279602 0.00000000
      vertex -8.03061207 -11.94718460 0.00000000
      vertex -8.06148825 -11.70911849 0.00000000
    endloop
  endfacet
  facet normal 0.00000000 0.00000000 1.00000000
    outer loop
      vertex -8.39826184 -11.75279602 0.00000000
      vertex -8.36738650 -11.99086224 0.00000000
      vertex -8.03061207 -11.94718460 0.00000000
    endloop
  endfacet
  facet normal -0.00000000 0.00000000 1.00000000
    outer loop
      vertex -8.06148825 -11.70911849 0.00000000
      vertex -7.69384691 -11.90350696 0.00000000
      vertex -7.72472393 -11.66544096 0.00000000
    endloop
  endfacet
  facet normal 0.00000000 0.00000000 1.00000000
    outer loop
      vertex -8.06148825 -11.70911849 0.00000000
      vertex -8.03061207 -11.94718460 0.00000000
      vertex -7.69384691 -11.90350696 0.00000000
    endloop
  endfacet
  facet normal -0.00000000 0.00000000 1.00000000
    outer loop
      vertex -7.72472393 -11.66544096 0.00000000
      vertex -7.35708555 -11.85982861 0.00000000
      vertex -7.38797431 -11.62176413 0.00000000
    endloop
  endfacet
  facet normal 0.00000000 0.00000000 1.00000000
    outer loop
      vertex -7.72472393 -11.66544096 0.00000000
      vertex -7.69384691 -11.90350696 0.00000000
      vertex -7.35708555 -11.85982861 0.00000000
    endloop
  endfacet
  facet normal -0.00000000 0.00000000 1.00000000
    outer loop
      vertex -7.38797431 -11.62176413 0.00000000
      vertex -7.17591917 -11.83631359 0.00000000
      vertex -7.21444091 -11.59923986 0.00000000
    endloop
  endfacet
  facet normal 0.00000000 0.00000000 1.00000000
    outer loop
      vertex -7.38797431 -11.62176413 0.00000000
      vertex -7.35708555 -11.85982861 0.00000000
      vertex -7.17591917 -11.83631359 0.00000000
    endloop
  endfacet
  facet normal -0.00000000 0.00000000 1.00000000
    outer loop
      vertex -7.21444091 -11.59923986 0.00000000
      vertex -7.00229226 -11.80236591 0.00000000
      vertex -7.05681833 -11.56842136 0.00000000
    endloop
  endfacet
  facet normal 0.00000000 0.00000000 1.00000000
    outer loop
      vertex -7.21444091 -11.59923986 0.00000000
      vertex -7.17591917 -11.83631359 0.00000000
      vertex -7.00229226 -11.80236591 0.00000000
    endloop
  endfacet
  facet normal -0.00000000 0.00000000 1.00000000
    outer loop
      vertex -7.05681833 -11.56842136 0.00000000
      vertex -6.83958328 -11.75822974 0.00000000
      vertex -6.91172815 -11.52906443 0.00000000
    endloop
  endfacet
  facet normal 0.00000000 0.00000000 1.00000000
    outer loop
      vertex -7.05681833 -11.56842136 0.00000000
      vertex -7.00229226 -11.80236591 0.00000000
      vertex -6.83958328 -11.75822974 0.00000000
    endloop
  endfacet
  facet normal -0.00000000 0.00000000 1.00000000
    outer loop
      vertex -6.91172815 -11.52906443 0.00000000
      vertex -6.68784705 -11.70368239 0.00000000
      vertex -6.77911551 -11.48139178 0.00000000
    endloop
  endfacet
  facet normal 0.00000000 0.00000000 1.00000000
    outer loop
      vertex -6.91172815 -11.52906443 0.00000000
      vertex -6.83958328 -11.75822974 0.00000000
      vertex -6.68784705 -11.70368239 0.00000000
    endloop
  endfacet
  facet normal -0.00000000 0.00000000 1.00000000
    outer loop
      vertex -6.77911551 -11.48139178 0.00000000
      vertex -6.54722928 -11.63849504 0.00000000
      vertex -6.65883472 -11.42563222 0.00000000
    endloop
  endfacet
  facet normal 0.00000000 0.00000000 1.00000000
    outer loop
      vertex -6.77911551 -11.48139178 0.00000000
      vertex -6.68784705 -11.70368239 0.00000000
      vertex -6.54722928 -11.63849504 0.00000000
    endloop
  endfacet
  facet normal -0.00000000 0.00000000 1.00000000
    outer loop
      vertex -6.65883472 -11.42563222 0.00000000
      vertex -6.41798938 -11.56247246 0.00000000
      vertex -6.55062637 -11.36198100 0.00000000
    endloop
  endfacet
  facet normal 0.00000000 0.00000000 1.00000000
    outer loop
      vertex -6.65883472 -11.42563222 0.00000000
      vertex -6.54722928 -11.63849504 0.00000000
      vertex -6.41798938 -11.56247246 0.00000000
    endloop
  endfacet
  facet normal -0.00000000 0.00000000 1.00000000
    outer loop
      vertex -6.55062637 -11.36198100 0.00000000
      vertex -6.30050298 -11.47550934 0.00000000
      vertex -6.45411483 -11.29054341 0.00000000
    endloop
  endfacet
  facet normal 0.00000000 0.00000000 1.00000000
    outer loop
      vertex -6.55062637 -11.36198100 0.00000000
      vertex -6.41798938 -11.56247246 0.00000000
      vertex -6.30050298 -11.47550934 0.00000000
    endloop
  endfacet
  facet normal -0.00000000 0.00000000 1.00000000
    outer loop
      vertex -6.45411483 -11.29054341 0.00000000
      vertex -6.19522850 -11.37764921 0.00000000
      vertex -6.36884167 -11.21127592 0.00000000
    endloop
  endfacet
  facet normal 0.00000000 0.00000000 1.00000000
    outer loop
      vertex -6.45411483 -11.29054341 0.00000000
      vertex -6.30050298 -11.47550934 0.00000000
      vertex -6.19522850 -11.37764921 0.00000000
    endloop
  endfacet
  facet normal -0.00000000 0.00000000 1.00000000
    outer loop
      vertex -6.36884167 -11.21127592 0.00000000
      vertex -6.10263390 -11.26911921 0.00000000
      vertex -6.29433894 -11.12395140 0.00000000
    endloop
  endfacet
  facet normal 0.00000000 0.00000000 1.00000000
    outer loop
      vertex -6.36884167 -11.21127592 0.00000000
      vertex -6.19522850 -11.37764921 0.00000000
      vertex -6.10263390 -11.26911921 0.00000000
    endloop
  endfacet
  facet normal -0.00000000 0.00000000 1.00000000
    outer loop
      vertex -6.29433894 -11.12395140 0.00000000
      vertex -6.02310274 -11.15031475 0.00000000
      vertex -6.23022308 -11.02817444 0.00000000
    endloop
  endfacet
  facet normal 0.00000000 0.00000000 1.00000000
    outer loop
      vertex -6.29433894 -11.12395140 0.00000000
      vertex -6.10263390 -11.26911921 0.00000000
      vertex -6.02310274 -11.15031475 0.00000000
    endloop
  endfacet
  facet normal 0.00000000 0.00000000 1.00000000
    outer loop
      vertex -6.23022308 -11.02817444 0.00000000
      vertex -5.95685779 -11.02172972 0.00000000
      vertex -6.17627131 -10.92345115 0.00000000
    endloop
  endfacet
  facet normal -0.00000000 0.00000000 1.00000000
    outer loop
      vertex -6.23022308 -11.02817444 0.00000000
      vertex -6.02310274 -11.15031475 0.00000000
      vertex -5.95685779 -11.02172972 0.00000000
    endloop
  endfacet
  facet normal 0.00000000 0.00000000 1.00000000
    outer loop
      vertex -6.17627131 -10.92345115 0.00000000
      vertex -5.90393469 -10.88385910 0.00000000
      vertex -6.13244801 -10.80928653 0.00000000
    endloop
  endfacet
  facet normal -0.00000000 0.00000000 1.00000000
    outer loop
      vertex -6.17627131 -10.92345115 0.00000000
      vertex -5.95685779 -11.02172972 0.00000000
      vertex -5.90393469 -10.88385910 0.00000000
    endloop
  endfacet
  facet normal 0.00000000 0.00000000 1.00000000
    outer loop
      vertex -6.13244801 -10.80928653 0.00000000
      vertex -5.86421048 -10.73711445 0.00000000
      vertex -6.09887611 -10.68526905 0.00000000
    endloop
  endfacet
  facet normal -0.00000000 0.00000000 1.00000000
    outer loop
      vertex -6.13244801 -10.80928653 0.00000000
      vertex -5.90393469 -10.88385910 0.00000000
      vertex -5.86421048 -10.73711445 0.00000000
    endloop
  endfacet
  facet normal 0.00000000 0.00000000 1.00000000
    outer loop
      vertex -6.09887611 -10.68526905 0.00000000
      vertex -5.83746410 -10.58177972 0.00000000
      vertex -6.07577669 -10.55111473 0.00000000
    endloop
  endfacet
  facet normal -0.00000000 0.00000000 1.00000000
    outer loop
      vertex -6.09887611 -10.68526905 0.00000000
      vertex -5.86421048 -10.73711445 0.00000000
      vertex -5.83746410 -10.58177972 0.00000000
    endloop
  endfacet
  facet normal 0.00000000 0.00000000 1.00000000
    outer loop
      vertex -6.07577669 -10.55111473 0.00000000
      vertex -5.82343885 -10.41800906 0.00000000
      vertex -6.06340646 -10.40666946 0.00000000
    endloop
  endfacet
  facet normal -0.00000000 0.00000000 1.00000000
    outer loop
      vertex -6.07577669 -10.55111473 0.00000000
      vertex -5.83746410 -10.58177972 0.00000000
      vertex -5.82343885 -10.41800906 0.00000000
    endloop
  endfacet
  facet normal 0.00000000 0.00000000 1.00000000
    outer loop
      vertex -6.06340646 -10.40666946 0.00000000
      vertex -5.82188801 -10.24585109 0.00000000
      vertex -6.06201212 -10.25188458 0.00000000
    endloop
  endfacet
  facet normal -0.00000000 0.00000000 1.00000000
    outer loop
      vertex -6.06340646 -10.40666946 0.00000000
      vertex -5.82343885 -10.41800906 0.00000000
      vertex -5.82188801 -10.24585109 0.00000000
    endloop
  endfacet
  facet normal 0.00000000 -0.00000000 1.00000000
    outer loop
      vertex -6.06201212 -10.25188458 0.00000000
      vertex -5.83259937 -10.06528196 0.00000000
      vertex -6.07180588 -10.08678396 0.00000000
    endloop
  endfacet
  facet normal 0.00000000 0.00000000 1.00000000
    outer loop
      vertex -6.06201212 -10.25188458 0.00000000
      vertex -5.82188801 -10.24585109 0.00000000
      vertex -5.83259937 -10.06528196 0.00000000
    endloop
  endfacet
  facet normal 0.00000000 -0.00000000 1.00000000
    outer loop
      vertex -6.07180588 -10.08678396 0.00000000
      vertex -5.85471836 -9.88191246 0.00000000
      vertex -6.09364233 -9.90575680 0.00000000
    endloop
  endfacet
  facet normal 0.00000000 0.00000000 1.00000000
    outer loop
      vertex -6.07180588 -10.08678396 0.00000000
      vertex -5.83259937 -10.06528196 0.00000000
      vertex -5.85471836 -9.88191246 0.00000000
    endloop
  endfacet
  facet normal 0.00000000 -0.00000000 1.00000000
    outer loop
      vertex -6.09364233 -9.90575680 0.00000000
      vertex -5.91103782 -9.16952946 0.00000000
      vertex -6.15035113 -9.18844905 0.00000000
    endloop
  endfacet
  facet normal 0.00000000 0.00000000 1.00000000
    outer loop
      vertex -6.09364233 -9.90575680 0.00000000
      vertex -5.85471836 -9.88191246 0.00000000
      vertex -5.91103782 -9.16952946 0.00000000
    endloop
  endfacet
  facet normal 0.00000000 -0.00000000 1.00000000
    outer loop
      vertex -6.15035113 -9.18844905 0.00000000
      vertex -5.96755195 -8.45468408 0.00000000
      vertex -6.20686525 -8.47360367 0.00000000
    endloop
  endfacet
  facet normal 0.00000000 0.00000000 1.00000000
    outer loop
      vertex -6.15035113 -9.18844905 0.00000000
      vertex -5.91103782 -9.16952946 0.00000000
      vertex -5.96755195 -8.45468408 0.00000000
    endloop
  endfacet
  facet normal 0.00000000 -0.00000000 1.00000000
    outer loop
      vertex -6.20686525 -8.47360367 0.00000000
      vertex -6.02406607 -7.73983870 0.00000000
      vertex -6.26337938 -7.75875829 0.00000000
    endloop
  endfacet
  facet normal 0.00000000 0.00000000 1.00000000
    outer loop
      vertex -6.20686525 -8.47360367 0.00000000
      vertex -5.96755195 -8.45468408 0.00000000
      vertex -6.02406607 -7.73983870 0.00000000
    endloop
  endfacet
  facet normal 0.00000000 -0.00000000 1.00000000
    outer loop
      vertex -6.26337938 -7.75875829 0.00000000
      vertex -6.08058020 -7.02499332 0.00000000
      vertex -6.31989351 -7.04391292 0.00000000
    endloop
  endfacet
  facet normal 0.00000000 0.00000000 1.00000000
    outer loop
      vertex -6.26337938 -7.75875829 0.00000000
      vertex -6.02406607 -7.73983870 0.00000000
      vertex -6.08058020 -7.02499332 0.00000000
    endloop
  endfacet
  facet normal 0.00000000 -0.00000000 1.00000000
    outer loop
      vertex -6.31989351 -7.04391292 0.00000000
      vertex -6.13709433 -6.31014795 0.00000000
      vertex -6.37640764 -6.32906754 0.00000000
    endloop
  endfacet
  facet normal 0.00000000 0.00000000 1.00000000
    outer loop
      vertex -6.31989351 -7.04391292 0.00000000
      vertex -6.08058020 -7.02499332 0.00000000
      vertex -6.13709433 -6.31014795 0.00000000
    endloop
  endfacet
  facet normal 0.00000000 -0.00000000 1.00000000
    outer loop
      vertex -6.37640764 -6.32906754 0.00000000
      vertex -6.19360846 -5.59530257 0.00000000
      vertex -6.43292177 -5.61422216 0.00000000
    endloop
  endfacet
  facet normal 0.00000000 0.00000000 1.00000000
    outer loop
      vertex -6.37640764 -6.32906754 0.00000000
      vertex -6.13709433 -6.31014795 0.00000000
      vertex -6.19360846 -5.59530257 0.00000000
    endloop
  endfacet
  facet normal 0.00000000 -0.00000000 1.00000000
    outer loop
      vertex -6.43292177 -5.61422216 0.00000000
      vertex -6.25012259 -4.88045719 0.00000000
      vertex -6.48943590 -4.89937678 0.00000000
    endloop
  endfacet
  facet normal 0.00000000 0.00000000 1.00000000
    outer loop
      vertex -6.43292177 -5.61422216 0.00000000
      vertex -6.19360846 -5.59530257 0.00000000
      vertex -6.25012259 -4.88045719 0.00000000
    endloop
  endfacet
  facet normal 0.00000000 -0.00000000 1.00000000
    outer loop
      vertex -6.48943590 -4.89937678 0.00000000
      vertex -6.30663672 -4.16561181 0.00000000
      vertex -6.54595003 -4.18453140 0.00000000
    endloop
  endfacet
  facet normal 0.00000000 0.00000000 1.00000000
    outer loop
      vertex -6.48943590 -4.89937678 0.00000000
      vertex -6.25012259 -4.88045719 0.00000000
      vertex -6.30663672 -4.16561181 0.00000000
    endloop
  endfacet
  facet normal 0.00000000 -0.00000000 1.00000000
    outer loop
      vertex -6.54595003 -4.18453140 0.00000000
      vertex -6.36315085 -3.45076643 0.00000000
      vertex -6.60246415 -3.46968603 0.00000000
    endloop
  endfacet
  facet normal 0.00000000 0.00000000 1.00000000
    outer loop
      vertex -6.54595003 -4.18453140 0.00000000
      vertex -6.30663672 -4.16561181 0.00000000
      vertex -6.36315085 -3.45076643 0.00000000
    endloop
  endfacet
  facet normal 0.00000000 -0.00000000 1.00000000
    outer loop
      vertex -6.60246415 -3.46968603 0.00000000
      vertex -6.41966497 -2.73592106 0.00000000
      vertex -6.65897828 -2.75484065 0.00000000
    endloop
  endfacet
  facet normal 0.00000000 0.00000000 1.00000000
    outer loop
      vertex -6.60246415 -3.46968603 0.00000000
      vertex -6.36315085 -3.45076643 0.00000000
      vertex -6.41966497 -2.73592106 0.00000000
    endloop
  endfacet
  facet normal 0.00000000 -0.00000000 1.00000000
    outer loop
      vertex -6.65897828 -2.75484065 0.00000000
      vertex -6.47617910 -2.02107568 0.00000000
      vertex -6.71549241 -2.03999527 0.00000000
    endloop
  endfacet
  facet normal 0.00000000 0.00000000 1.00000000
    outer loop
      vertex -6.65897828 -2.75484065 0.00000000
      vertex -6.41966497 -2.73592106 0.00000000
      vertex -6.47617910 -2.02107568 0.00000000
    endloop
  endfacet
  facet normal 0.00000000 -0.00000000 1.00000000
    outer loop
      vertex -6.71549241 -2.03999527 0.00000000
      vertex -6.53269323 -1.30623030 0.00000000
      vertex -6.77200654 -1.32514989 0.00000000
    endloop
  endfacet
  facet normal 0.00000000 0.00000000 1.00000000
    outer loop
      vertex -6.71549241 -2.03999527 0.00000000
      vertex -6.47617910 -2.02107568 0.00000000
      vertex -6.53269323 -1.30623030 0.00000000
    endloop
  endfacet
  facet normal 0.00000000 -0.00000000 1.00000000
    outer loop
      vertex -6.77200654 -1.32514989 0.00000000
      vertex -6.58920736 -0.59138492 0.00000000
      vertex -6.82852067 -0.61030451 0.00000000
    endloop
  endfacet
  facet normal 0.00000000 0.00000000 1.00000000
    outer loop
      vertex -6.77200654 -1.32514989 0.00000000
      vertex -6.53269323 -1.30623030 0.00000000
      vertex -6.58920736 -0.59138492 0.00000000
    endloop
  endfacet
  facet normal 0.00000000 -0.00000000 1.00000000
    outer loop
      vertex -6.82852067 -0.61030451 0.00000000
      vertex -6.64572149 0.12346046 0.00000000
      vertex -6.88503480 0.10454086 0.00000000
    endloop
  endfacet
  facet normal 0.00000000 0.00000000 1.00000000
    outer loop
      vertex -6.82852067 -0.61030451 0.00000000
      vertex -6.58920736 -0.59138492 0.00000000
      vertex -6.64572149 0.12346046 0.00000000
    endloop
  endfacet
  facet normal 0.00000000 -0.00000000 1.00000000
    outer loop
      vertex -6.88503480 0.10454086 0.00000000
      vertex -6.70223562 0.83830584 0.00000000
      vertex -6.94154893 0.81938624 0.00000000
    endloop
  endfacet
  facet normal 0.00000000 0.00000000 1.00000000
    outer loop
      vertex -6.88503480 0.10454086 0.00000000
      vertex -6.64572149 0.12346046 0.00000000
      vertex -6.70223562 0.83830584 0.00000000
    endloop
  endfacet
  facet normal 0.00000000 -0.00000000 1.00000000
    outer loop
      vertex -6.94154893 0.81938624 0.00000000
      vertex -6.75874975 1.55315121 0.00000000
      vertex -6.99806305 1.53423162 0.00000000
    endloop
  endfacet
  facet normal 0.00000000 0.00000000 1.00000000
    outer loop
      vertex -6.94154893 0.81938624 0.00000000
      vertex -6.70223562 0.83830584 0.00000000
      vertex -6.75874975 1.55315121 0.00000000
    endloop
  endfacet
  facet normal 0.00000000 -0.00000000 1.00000000
    outer loop
      vertex -6.99806305 1.53423162 0.00000000
      vertex -6.81526387 2.26799659 0.00000000
      vertex -7.05457718 2.24907700 0.00000000
    endloop
  endfacet
  facet normal 0.00000000 0.00000000 1.00000000
    outer loop
      vertex -6.99806305 1.53423162 0.00000000
      vertex -6.75874975 1.55315121 0.00000000
      vertex -6.81526387 2.26799659 0.00000000
    endloop
  endfacet
  facet normal 0.00000000 -0.00000000 1.00000000
    outer loop
      vertex -7.05457718 2.24907700 0.00000000
      vertex -6.86261798 2.86697714 0.00000000
      vertex -7.12025133 3.07978721 0.00000000
    endloop
  endfacet
  facet normal 0.00000000 0.00000000 1.00000000
    outer loop
      vertex -7.05457718 2.24907700 0.00000000
      vertex -6.81526387 2.26799659 0.00000000
      vertex -6.86261798 2.86697714 0.00000000
    endloop
  endfacet
  facet normal -0.00000000 0.00000000 1.00000000
    outer loop
      vertex -7.12025133 3.07978721 0.00000000
      vertex -5.59577812 3.00829259 0.00000000
      vertex -5.62239076 3.24687293 0.00000000
    endloop
  endfacet
  facet normal 0.00000000 0.00000000 1.00000000
    outer loop
      vertex -7.12025133 3.07978721 0.00000000
      vertex -6.86261798 2.86697714 0.00000000
      vertex -5.59577812 3.00829259 0.00000000
    endloop
  endfacet
  facet normal -0.00000000 0.00000000 1.00000000
    outer loop
      vertex -5.62239076 3.24687293 0.00000000
      vertex -4.21341951 3.16248382 0.00000000
      vertex -4.24003041 3.40106435 0.00000000
    endloop
  endfacet
  facet normal 0.00000000 0.00000000 1.00000000
    outer loop
      vertex -5.62239076 3.24687293 0.00000000
      vertex -5.59577812 3.00829259 0.00000000
      vertex -4.21341951 3.16248382 0.00000000
    endloop
  endfacet
  facet normal -0.00000000 0.00000000 1.00000000
    outer loop
      vertex -4.24003041 3.40106435 0.00000000
      vertex -2.83105165 3.31666578 0.00000000
      vertex -2.85766079 3.55524651 0.00000000
    endloop
  endfacet
  facet normal 0.00000000 0.00000000 1.00000000
    outer loop
      vertex -4.24003041 3.40106435 0.00000000
      vertex -4.21341951 3.16248382 0.00000000
      vertex -2.83105165 3.31666578 0.00000000
    endloop
  endfacet
  facet normal -0.00000000 0.00000000 1.00000000
    outer loop
      vertex -2.85766079 3.55524651 0.00000000
      vertex -1.44867453 3.47083849 0.00000000
      vertex -1.47528191 3.70941941 0.00000000
    endloop
  endfacet
  facet normal 0.00000000 0.00000000 1.00000000
    outer loop
      vertex -2.85766079 3.55524651 0.00000000
      vertex -2.83105165 3.31666578 0.00000000
      vertex -1.44867453 3.47083849 0.00000000
    endloop
  endfacet
  facet normal -0.00000000 0.00000000 1.00000000
    outer loop
      vertex -1.47528191 3.70941941 0.00000000
      vertex -0.06628814 3.62500193 0.00000000
      vertex -0.09289377 3.86358305 0.00000000
    endloop
  endfacet
  facet normal 0.00000000 0.00000000 1.00000000
    outer loop
      vertex -1.47528191 3.70941941 0.00000000
      vertex -1.44867453 3.47083849 0.00000000
      vertex -0.06628814 3.62500193 0.00000000
    endloop
  endfacet
  facet normal -0.00000000 0.00000000 1.00000000
    outer loop
      vertex -0.09289377 3.86358305 0.00000000
      vertex 1.31610751 3.77915611 0.00000000
      vertex 1.28950363 4.01773743 0.00000000
    endloop
  endfacet
  facet normal 0.00000000 0.00000000 1.00000000
    outer loop
      vertex -0.09289377 3.86358305 0.00000000
      vertex -0.06628814 3.62500193 0.00000000
      vertex 1.31610751 3.77915611 0.00000000
    endloop
  endfacet
  facet normal -0.00000000 0.00000000 1.00000000
    outer loop
      vertex 1.28950363 4.01773743 0.00000000
      vertex 2.69851242 3.93330103 0.00000000
      vertex 2.67191030 4.17188255 0.00000000
    endloop
  endfacet
  facet normal 0.00000000 0.00000000 1.00000000
    outer loop
      vertex 1.28950363 4.01773743 0.00000000
      vertex 1.31610751 3.77915611 0.00000000
      vertex 2.69851242 3.93330103 0.00000000
    endloop
  endfacet
  facet normal -0.00000000 0.00000000 1.00000000
    outer loop
      vertex 2.67191030 4.17188255 0.00000000
      vertex 4.08092659 4.08743669 0.00000000
      vertex 4.05432622 4.32601840 0.00000000
    endloop
  endfacet
  facet normal 0.00000000 0.00000000 1.00000000
    outer loop
      vertex 2.67191030 4.17188255 0.00000000
      vertex 2.69851242 3.93330103 0.00000000
      vertex 4.08092659 4.08743669 0.00000000
    endloop
  endfacet
  facet normal -0.00000000 0.00000000 1.00000000
    outer loop
      vertex 4.05432622 4.32601840 0.00000000
      vertex 5.46335002 4.24156309 0.00000000
      vertex 5.43675141 4.48014499 0.00000000
    endloop
  endfacet
  facet normal 0.00000000 0.00000000 1.00000000
    outer loop
      vertex 4.05432622 4.32601840 0.00000000
      vertex 4.08092659 4.08743669 0.00000000
      vertex 5.46335002 4.24156309 0.00000000
    endloop
  endfacet
  facet normal -0.00000000 0.00000000 1.00000000
    outer loop
      vertex 5.43675141 4.48014499 0.00000000
      vertex 6.84578271 4.39568022 0.00000000
      vertex 6.81918586 4.63426232 0.00000000
    endloop
  endfacet
  facet normal 0.00000000 0.00000000 1.00000000
    outer loop
      vertex 5.43675141 4.48014499 0.00000000
      vertex 5.46335002 4.24156309 0.00000000
      vertex 6.84578271 4.39568022 0.00000000
    endloop
  endfacet
  facet normal -0.00000000 0.00000000 1.00000000
    outer loop
      vertex 6.81918586 4.63426232 0.00000000
      vertex 8.22822467 4.54978810 0.00000000
      vertex 8.20162957 4.78837039 0.00000000
    endloop
  endfacet
  facet normal 0.00000000 0.00000000 1.00000000
    outer loop
      vertex 6.81918586 4.63426232 0.00000000
      vertex 6.84578271 4.39568022 0.00000000
      vertex 8.22822467 4.54978810 0.00000000
    endloop
  endfacet
  facet normal -0.00000000 0.00000000 1.00000000
    outer loop
      vertex 8.20162957 4.78837039 0.00000000
      vertex 9.61067589 4.70388671 0.00000000
      vertex 9.58408254 4.94246920 0.00000000
    endloop
  endfacet
  facet normal 0.00000000 0.00000000 1.00000000
    outer loop
      vertex 8.20162957 4.78837039 0.00000000
      vertex 8.22822467 4.54978810 0.00000000
      vertex 9.61067589 4.70388671 0.00000000
    endloop
  endfacet
  facet normal -0.00000000 0.00000000 1.00000000
    outer loop
      vertex 9.58408254 4.94246920 0.00000000
      vertex 10.99313636 4.85797606 0.00000000
      vertex 10.96654477 5.09655875 0.00000000
    endloop
  endfacet
  facet normal 0.00000000 0.00000000 1.00000000
    outer loop
      vertex 9.58408254 4.94246920 0.00000000
      vertex 9.61067589 4.70388671 0.00000000
      vertex 10.99313636 4.85797606 0.00000000
    endloop
  endfacet
  facet normal -0.00000000 0.00000000 1.00000000
    outer loop
      vertex 10.96654477 5.09655875 0.00000000
      vertex 12.37560610 5.01205615 0.00000000
      vertex 12.34901627 5.25063903 0.00000000
    endloop
  endfacet
  facet normal 0.00000000 0.00000000 1.00000000
    outer loop
      vertex 10.96654477 5.09655875 0.00000000
      vertex 10.99313636 4.85797606 0.00000000
      vertex 12.37560610 5.01205615 0.00000000
    endloop
  endfacet
  facet normal -0.00000000 0.00000000 1.00000000
    outer loop
      vertex 12.34901627 5.25063903 0.00000000
      vertex 13.75808511 5.16612698 0.00000000
      vertex 13.73149703 5.40471005 0.00000000
    endloop
  endfacet
  facet normal 0.00000000 0.00000000 1.00000000
    outer loop
      vertex 12.34901627 5.25063903 0.00000000
      vertex 12.37560610 5.01205615 0.00000000
      vertex 13.75808511 5.16612698 0.00000000
    endloop
  endfacet
  facet normal -0.00000000 0.00000000 1.00000000
    outer loop
      vertex 13.73149703 5.40471005 0.00000000
      vertex 15.14057337 5.32018854 0.00000000
      vertex 15.11398704 5.55877182 0.00000000
    endloop
  endfacet
  facet normal 0.00000000 0.00000000 1.00000000
    outer loop
      vertex 13.73149703 5.40471005 0.00000000
      vertex 13.75808511 5.16612698 0.00000000
      vertex 15.14057337 5.32018854 0.00000000
    endloop
  endfacet
  facet normal -0.00000000 0.00000000 1.00000000
    outer loop
      vertex 15.11398704 5.55877182 0.00000000
      vertex 16.52307090 5.47424085 0.00000000
      vertex 16.49648632 5.71282432 0.00000000
    endloop
  endfacet
  facet normal 0.00000000 0.00000000 1.00000000
    outer loop
      vertex 15.11398704 5.55877182 0.00000000
      vertex 15.14057337 5.32018854 0.00000000
      vertex 16.52307090 5.47424085 0.00000000
    endloop
  endfacet
  facet normal -0.00000000 0.00000000 1.00000000
    outer loop
      vertex 16.49648632 5.71282432 0.00000000
      vertex 17.90798720 5.62855237 0.00000000
      vertex 17.87658535 5.86659908 0.00000000
    endloop
  endfacet
  facet normal 0.00000000 0.00000000 1.00000000
    outer loop
      vertex 16.49648632 5.71282432 0.00000000
      vertex 16.52307090 5.47424085 0.00000000
      vertex 17.90798720 5.62855237 0.00000000
    endloop
  endfacet
  facet normal -0.00000000 0.00000000 1.00000000
    outer loop
      vertex 17.87658535 5.86659908 0.00000000
      vertex 18.19895602 5.67292971 0.00000000
      vertex 18.15862089 5.90961395 0.00000000
    endloop
  endfacet
  facet normal 0.00000000 0.00000000 1.00000000
    outer loop
      vertex 17.87658535 5.86659908 0.00000000
      vertex 17.90798720 5.62855237 0.00000000
      vertex 18.19895602 5.67292971 0.00000000
    endloop
  endfacet
  facet normal -0.00000000 0.00000000 1.00000000
    outer loop
      vertex 18.15862089 5.90961395 0.00000000
      vertex 18.47431565 5.72481458 0.00000000
      vertex 18.42531344 5.95986573 0.00000000
    endloop
  endfacet
  facet normal 0.00000000 0.00000000 1.00000000
    outer loop
      vertex 18.15862089 5.90961395 0.00000000
      vertex 18.19895602 5.67292971 0.00000000
      vertex 18.47431565 5.72481458 0.00000000
    endloop
  endfacet
  facet normal -0.00000000 0.00000000 1.00000000
    outer loop
      vertex 18.42531344 5.95986573 0.00000000
      vertex 18.73462391 5.78434326 0.00000000
      vertex 18.67610518 6.01721812 0.00000000
    endloop
  endfacet
  facet normal 0.00000000 0.00000000 1.00000000
    outer loop
      vertex 18.42531344 5.95986573 0.00000000
      vertex 18.47431565 5.72481458 0.00000000
      vertex 18.73462391 5.78434326 0.00000000
    endloop
  endfacet
  facet normal -0.00000000 0.00000000 1.00000000
    outer loop
      vertex 18.67610518 6.01721812 0.00000000
      vertex 18.97991829 5.85158713 0.00000000
      vertex 18.91095861 6.08159975 0.00000000
    endloop
  endfacet
  facet normal 0.00000000 0.00000000 1.00000000
    outer loop
      vertex 18.67610518 6.01721812 0.00000000
      vertex 18.73462391 5.78434326 0.00000000
      vertex 18.97991829 5.85158713 0.00000000
    endloop
  endfacet
  facet normal -0.00000000 0.00000000 1.00000000
    outer loop
      vertex 18.91095861 6.08159975 0.00000000
      vertex 19.21023124 5.92663436 0.00000000
      vertex 19.12984129 6.15292244 0.00000000
    endloop
  endfacet
  facet normal 0.00000000 0.00000000 1.00000000
    outer loop
      vertex 18.91095861 6.08159975 0.00000000
      vertex 18.97991829 5.85158713 0.00000000
      vertex 19.21023124 5.92663436 0.00000000
    endloop
  endfacet
  facet normal -0.00000000 0.00000000 1.00000000
    outer loop
      vertex 19.12984129 6.15292244 0.00000000
      vertex 19.42558423 6.00959193 0.00000000
      vertex 19.33273175 6.23107923 0.00000000
    endloop
  endfacet
  facet normal 0.00000000 0.00000000 1.00000000
    outer loop
      vertex 19.12984129 6.15292244 0.00000000
      vertex 19.21023124 5.92663436 0.00000000
      vertex 19.42558423 6.00959193 0.00000000
    endloop
  endfacet
  facet normal -0.00000000 0.00000000 1.00000000
    outer loop
      vertex 19.33273175 6.23107923 0.00000000
      vertex 19.62597926 6.10058604 0.00000000
      vertex 19.51962799 6.31594390 0.00000000
    endloop
  endfacet
  facet normal 0.00000000 0.00000000 1.00000000
    outer loop
      vertex 19.33273175 6.23107923 0.00000000
      vertex 19.42558423 6.00959193 0.00000000
      vertex 19.62597926 6.10058604 0.00000000
    endloop
  endfacet
  facet normal -0.00000000 0.00000000 1.00000000
    outer loop
      vertex 19.51962799 6.31594390 0.00000000
      vertex 19.81138733 6.19975948 0.00000000
      vertex 19.69055900 6.40737366 0.00000000
    endloop
  endfacet
  facet normal 0.00000000 0.00000000 1.00000000
    outer loop
      vertex 19.51962799 6.31594390 0.00000000
      vertex 19.62597926 6.10058604 0.00000000
      vertex 19.81138733 6.19975948 0.00000000
    endloop
  endfacet
  facet normal -0.00000000 0.00000000 1.00000000
    outer loop
      vertex 19.69055900 6.40737366 0.00000000
      vertex 19.98173463 6.30726354 0.00000000
      vertex 19.84559861 6.50521723 0.00000000
    endloop
  endfacet
  facet normal 0.00000000 0.00000000 1.00000000
    outer loop
      vertex 19.69055900 6.40737366 0.00000000
      vertex 19.81138733 6.19975948 0.00000000
      vertex 19.98173463 6.30726354 0.00000000
    endloop
  endfacet
  facet normal -0.00000000 0.00000000 1.00000000
    outer loop
      vertex 19.84559861 6.50521723 0.00000000
      vertex 20.13688851 6.42324218 0.00000000
      vertex 19.98487945 6.60933066 0.00000000
    endloop
  endfacet
  facet normal 0.00000000 0.00000000 1.00000000
    outer loop
      vertex 19.84559861 6.50521723 0.00000000
      vertex 19.98173463 6.30726354 0.00000000
      vertex 20.13688851 6.42324218 0.00000000
    endloop
  endfacet
  facet normal -0.00000000 0.00000000 1.00000000
    outer loop
      vertex 19.98487945 6.60933066 0.00000000
      vertex 20.27664791 6.54780681 0.00000000
      vertex 20.10860259 6.71960251 0.00000000
    endloop
  endfacet
  facet normal 0.00000000 0.00000000 1.00000000
    outer loop
      vertex 19.98487945 6.60933066 0.00000000
      vertex 20.13688851 6.42324218 0.00000000
      vertex 20.27664791 6.54780681 0.00000000
    endloop
  endfacet
  facet normal -0.00000000 0.00000000 1.00000000
    outer loop
      vertex 20.10860259 6.71960251 0.00000000
      vertex 20.40074507 6.68100354 0.00000000
      vertex 20.21703578 6.83598669 0.00000000
    endloop
  endfacet
  facet normal 0.00000000 0.00000000 1.00000000
    outer loop
      vertex 20.10860259 6.71960251 0.00000000
      vertex 20.27664791 6.54780681 0.00000000
      vertex 20.40074507 6.68100354 0.00000000
    endloop
  endfacet
  facet normal -0.00000000 0.00000000 1.00000000
    outer loop
      vertex 20.21703578 6.83598669 0.00000000
      vertex 20.50886554 6.82277971 0.00000000
      vertex 20.31049348 6.95853587 0.00000000
    endloop
  endfacet
  facet normal 0.00000000 0.00000000 1.00000000
    outer loop
      vertex 20.21703578 6.83598669 0.00000000
      vertex 20.40074507 6.68100354 0.00000000
      vertex 20.50886554 6.82277971 0.00000000
    endloop
  endfacet
  facet normal 0.00000000 0.00000000 1.00000000
    outer loop
      vertex 20.31049348 6.95853587 0.00000000
      vertex 20.60068870 6.97296238 0.00000000
      vertex 20.38929631 7.08742296 0.00000000
    endloop
  endfacet
  facet normal -0.00000000 0.00000000 1.00000000
    outer loop
      vertex 20.31049348 6.95853587 0.00000000
      vertex 20.50886554 6.82277971 0.00000000
      vertex 20.60068870 6.97296238 0.00000000
    endloop
  endfacet
  facet normal 0.00000000 0.00000000 1.00000000
    outer loop
      vertex 20.38929631 7.08742296 0.00000000
      vertex 20.67594151 7.13126225 0.00000000
      vertex 20.45371730 7.22293728 0.00000000
    endloop
  endfacet
  facet normal -0.00000000 0.00000000 1.00000000
    outer loop
      vertex 20.38929631 7.08742296 0.00000000
      vertex 20.60068870 6.97296238 0.00000000
      vertex 20.67594151 7.13126225 0.00000000
    endloop
  endfacet
  facet normal 0.00000000 0.00000000 1.00000000
    outer loop
      vertex 20.45371730 7.22293728 0.00000000
      vertex 20.73444851 7.29730867 0.00000000
      vertex 20.50393194 7.36544949 0.00000000
    endloop
  endfacet
  facet normal -0.00000000 0.00000000 1.00000000
    outer loop
      vertex 20.45371730 7.22293728 0.00000000
      vertex 20.67594151 7.13126225 0.00000000
      vertex 20.73444851 7.29730867 0.00000000
    endloop
  endfacet
  facet normal 0.00000000 0.00000000 1.00000000
    outer loop
      vertex 20.50393194 7.36544949 0.00000000
      vertex 20.77615899 7.47070744 0.00000000
      vertex 20.53999090 7.51535376 0.00000000
    endloop
  endfacet
  facet normal -0.00000000 0.00000000 1.00000000
    outer loop
      vertex 20.50393194 7.36544949 0.00000000
      vertex 20.73444851 7.29730867 0.00000000
      vertex 20.77615899 7.47070744 0.00000000
    endloop
  endfacet
  facet normal 0.00000000 0.00000000 1.00000000
    outer loop
      vertex 20.53999090 7.51535376 0.00000000
      vertex 20.80202837 7.65749926 0.00000000
      vertex 20.56093877 7.66660942 0.00000000
    endloop
  endfacet
  facet normal -0.00000000 0.00000000 1.00000000
    outer loop
      vertex 20.53999090 7.51535376 0.00000000
      vertex 20.77615899 7.47070744 0.00000000
      vertex 20.80202837 7.65749926 0.00000000
    endloop
  endfacet
  facet normal 0.00000000 -0.00000000 1.00000000
    outer loop
      vertex 20.56093877 7.66660942 0.00000000
      vertex 20.79095129 7.83570577 0.00000000
      vertex 20.55135328 7.82081935 0.00000000
    endloop
  endfacet
  facet normal -0.00000000 0.00000000 1.00000000
    outer loop
      vertex 20.56093877 7.66660942 0.00000000
      vertex 20.80202837 7.65749926 0.00000000
      vertex 20.79095129 7.83570577 0.00000000
    endloop
  endfacet
  facet normal 0.00000000 -0.00000000 1.00000000
    outer loop
      vertex 20.55135328 7.82081935 0.00000000
      vertex 20.78062968 8.00190734 0.00000000
      vertex 20.54103084 7.98703422 0.00000000
    endloop
  endfacet
  facet normal 0.00000000 0.00000000 1.00000000
    outer loop
      vertex 20.55135328 7.82081935 0.00000000
      vertex 20.79095129 7.83570577 0.00000000
      vertex 20.78062968 8.00190734 0.00000000
    endloop
  endfacet
  facet normal 0.00000000 -0.00000000 1.00000000
    outer loop
      vertex 20.54103084 7.98703422 0.00000000
      vertex 20.77031733 8.16810891 0.00000000
      vertex 20.53071767 8.15324908 0.00000000
    endloop
  endfacet
  facet normal 0.00000000 0.00000000 1.00000000
    outer loop
      vertex 20.54103084 7.98703422 0.00000000
      vertex 20.78062968 8.00190734 0.00000000
      vertex 20.77031733 8.16810891 0.00000000
    endloop
  endfacet
  facet normal 0.00000000 -0.00000000 1.00000000
    outer loop
      vertex 20.53071767 8.15324908 0.00000000
      vertex 20.76001424 8.33431048 0.00000000
      vertex 20.52041375 8.31946395 0.00000000
    endloop
  endfacet
  facet normal 0.00000000 0.00000000 1.00000000
    outer loop
      vertex 20.53071767 8.15324908 0.00000000
      vertex 20.77031733 8.16810891 0.00000000
      vertex 20.76001424 8.33431048 0.00000000
    endloop
  endfacet
  facet normal 0.00000000 -0.00000000 1.00000000
    outer loop
      vertex 20.52041375 8.31946395 0.00000000
      vertex 20.74972041 8.50051205 0.00000000
      vertex 20.51011910 8.48567882 0.00000000
    endloop
  endfacet
  facet normal 0.00000000 0.00000000 1.00000000
    outer loop
      vertex 20.52041375 8.31946395 0.00000000
      vertex 20.76001424 8.33431048 0.00000000
      vertex 20.74972041 8.50051205 0.00000000
    endloop
  endfacet
  facet normal 0.00000000 -0.00000000 1.00000000
    outer loop
      vertex 20.51011910 8.48567882 0.00000000
      vertex 20.73943584 8.66671362 0.00000000
      vertex 20.49983371 8.65189369 0.00000000
    endloop
  endfacet
  facet normal 0.00000000 0.00000000 1.00000000
    outer loop
      vertex 20.51011910 8.48567882 0.00000000
      vertex 20.74972041 8.50051205 0.00000000
      vertex 20.73943584 8.66671362 0.00000000
    endloop
  endfacet
  facet normal 0.00000000 -0.00000000 1.00000000
    outer loop
      vertex 20.49983371 8.65189369 0.00000000
      vertex 20.72916054 8.83291518 0.00000000
      vertex 20.48955758 8.81810856 0.00000000
    endloop
  endfacet
  facet normal 0.00000000 0.00000000 1.00000000
    outer loop
      vertex 20.49983371 8.65189369 0.00000000
      vertex 20.73943584 8.66671362 0.00000000
      vertex 20.72916054 8.83291518 0.00000000
    endloop
  endfacet
  facet normal 0.00000000 -0.00000000 1.00000000
    outer loop
      vertex 20.48955758 8.81810856 0.00000000
      vertex 20.71889449 8.99911675 0.00000000
      vertex 20.47929072 8.98432343 0.00000000
    endloop
  endfacet
  facet normal 0.00000000 0.00000000 1.00000000
    outer loop
      vertex 20.48955758 8.81810856 0.00000000
      vertex 20.72916054 8.83291518 0.00000000
      vertex 20.71889449 8.99911675 0.00000000
    endloop
  endfacet
  facet normal 0.00000000 -0.00000000 1.00000000
    outer loop
      vertex 20.47929072 8.98432343 0.00000000
      vertex 20.70863771 9.16531832 0.00000000
      vertex 20.46903311 9.15053830 0.00000000
    endloop
  endfacet
  facet normal 0.00000000 0.00000000 1.00000000
    outer loop
      vertex 20.47929072 8.98432343 0.00000000
      vertex 20.71889449 8.99911675 0.00000000
      vertex 20.70863771 9.16531832 0.00000000
    endloop
  endfacet
  facet normal 0.00000000 -0.00000000 1.00000000
    outer loop
      vertex 20.46903311 9.15053830 0.00000000
      vertex 20.69839019 9.33151989 0.00000000
      vertex 20.45878477 9.31675317 0.00000000
    endloop
  endfacet
  facet normal 0.00000000 0.00000000 1.00000000
    outer loop
      vertex 20.46903311 9.15053830 0.00000000
      vertex 20.70863771 9.16531832 0.00000000
      vertex 20.69839019 9.33151989 0.00000000
    endloop
  endfacet
  facet normal 0.00000000 -0.00000000 1.00000000
    outer loop
      vertex 20.45878477 9.31675317 0.00000000
      vertex 20.68815192 9.49772146 0.00000000
      vertex 20.44854569 9.48296804 0.00000000
    endloop
  endfacet
  facet normal 0.00000000 0.00000000 1.00000000
    outer loop
      vertex 20.45878477 9.31675317 0.00000000
      vertex 20.69839019 9.33151989 0.00000000
      vertex 20.68815192 9.49772146 0.00000000
    endloop
  endfacet
  facet normal 0.00000000 -0.00000000 1.00000000
    outer loop
      vertex 20.44854569 9.48296804 0.00000000
      vertex 20.67792292 9.66392303 0.00000000
      vertex 20.43831587 9.64918291 0.00000000
    endloop
  endfacet
  facet normal 0.00000000 0.00000000 1.00000000
    outer loop
      vertex 20.44854569 9.48296804 0.00000000
      vertex 20.68815192 9.49772146 0.00000000
      vertex 20.67792292 9.66392303 0.00000000
    endloop
  endfacet
  facet normal 0.00000000 -0.00000000 1.00000000
    outer loop
      vertex 20.43831587 9.64918291 0.00000000
      vertex 20.66770319 9.83012459 0.00000000
      vertex 20.42809532 9.81539778 0.00000000
    endloop
  endfacet
  facet normal 0.00000000 0.00000000 1.00000000
    outer loop
      vertex 20.43831587 9.64918291 0.00000000
      vertex 20.67792292 9.66392303 0.00000000
      vertex 20.66770319 9.83012459 0.00000000
    endloop
  endfacet
  facet normal 0.00000000 -0.00000000 1.00000000
    outer loop
      vertex 20.42809532 9.81539778 0.00000000
      vertex 20.65749271 9.99632616 0.00000000
      vertex 20.41788402 9.98161264 0.00000000
    endloop
  endfacet
  facet normal 0.00000000 0.00000000 1.00000000
    outer loop
      vertex 20.42809532 9.81539778 0.00000000
      vertex 20.66770319 9.83012459 0.00000000
      vertex 20.65749271 9.99632616 0.00000000
    endloop
  endfacet
  facet normal 0.00000000 -0.00000000 1.00000000
    outer loop
      vertex 20.41788402 9.98161264 0.00000000
      vertex 20.64729149 10.16252773 0.00000000
      vertex 20.40768199 10.14782751 0.00000000
    endloop
  endfacet
  facet normal 0.00000000 0.00000000 1.00000000
    outer loop
      vertex 20.41788402 9.98161264 0.00000000
      vertex 20.65749271 9.99632616 0.00000000
      vertex 20.64729149 10.16252773 0.00000000
    endloop
  endfacet
  facet normal 0.00000000 -0.00000000 1.00000000
    outer loop
      vertex 20.40768199 10.14782751 0.00000000
      vertex 20.63709954 10.32872930 0.00000000
      vertex 20.39748922 10.31404238 0.00000000
    endloop
  endfacet
  facet normal 0.00000000 0.00000000 1.00000000
    outer loop
      vertex 20.40768199 10.14782751 0.00000000
      vertex 20.64729149 10.16252773 0.00000000
      vertex 20.63709954 10.32872930 0.00000000
    endloop
  endfacet
  facet normal 0.00000000 -0.00000000 1.00000000
    outer loop
      vertex 20.39748922 10.31404238 0.00000000
      vertex 20.62691684 10.49493087 0.00000000
      vertex 20.38730571 10.48025725 0.00000000
    endloop
  endfacet
  facet normal 0.00000000 0.00000000 1.00000000
    outer loop
      vertex 20.39748922 10.31404238 0.00000000
      vertex 20.63709954 10.32872930 0.00000000
      vertex 20.62691684 10.49493087 0.00000000
    endloop
  endfacet
  facet normal 0.00000000 -0.00000000 1.00000000
    outer loop
      vertex 20.38730571 10.48025725 0.00000000
      vertex 20.61644829 10.66595369 0.00000000
      vertex 20.37742658 10.64165086 0.00000000
    endloop
  endfacet
  facet normal 0.00000000 0.00000000 1.00000000
    outer loop
      vertex 20.38730571 10.48025725 0.00000000
      vertex 20.62691684 10.49493087 0.00000000
      vertex 20.61644829 10.66595369 0.00000000
    endloop
  endfacet
  facet normal 0.00000000 -0.00000000 1.00000000
    outer loop
      vertex 20.37742658 10.64165086 0.00000000
      vertex 20.58163469 10.91030543 0.00000000
      vertex 20.34544571 10.86612004 0.00000000
    endloop
  endfacet
  facet normal 0.00000000 0.00000000 1.00000000
    outer loop
      vertex 20.37742658 10.64165086 0.00000000
      vertex 20.61644829 10.66595369 0.00000000
      vertex 20.58163469 10.91030543 0.00000000
    endloop
  endfacet
  facet normal 0.00000000 -0.00000000 1.00000000
    outer loop
      vertex 20.34544571 10.86612004 0.00000000
      vertex 20.52830339 11.13977571 0.00000000
      vertex 20.29708491 11.07420358 0.00000000
    endloop
  endfacet
  facet normal 0.00000000 0.00000000 1.00000000
    outer loop
      vertex 20.34544571 10.86612004 0.00000000
      vertex 20.58163469 10.91030543 0.00000000
      vertex 20.52830339 11.13977571 0.00000000
    endloop
  endfacet
  facet normal 0.00000000 -0.00000000 1.00000000
    outer loop
      vertex 20.29708491 11.07420358 0.00000000
      vertex 20.45617022 11.35433619 0.00000000
      vertex 20.23262838 11.26592987 0.00000000
    endloop
  endfacet
  facet normal 0.00000000 0.00000000 1.00000000
    outer loop
      vertex 20.29708491 11.07420358 0.00000000
      vertex 20.52830339 11.13977571 0.00000000
      vertex 20.45617022 11.35433619 0.00000000
    endloop
  endfacet
  facet normal 0.00000000 -0.00000000 1.00000000
    outer loop
      vertex 20.23262838 11.26592987 0.00000000
      vertex 20.36502078 11.55366776 0.00000000
      vertex 20.15229051 11.44161798 0.00000000
    endloop
  endfacet
  facet normal 0.00000000 0.00000000 1.00000000
    outer loop
      vertex 20.23262838 11.26592987 0.00000000
      vertex 20.45617022 11.35433619 0.00000000
      vertex 20.36502078 11.55366776 0.00000000
    endloop
  endfacet
  facet normal 0.00000000 -0.00000000 1.00000000
    outer loop
      vertex 20.15229051 11.44161798 0.00000000
      vertex 20.25475764 11.73732091 0.00000000
      vertex 20.05616872 11.60171743 0.00000000
    endloop
  endfacet
  facet normal 0.00000000 0.00000000 1.00000000
    outer loop
      vertex 20.15229051 11.44161798 0.00000000
      vertex 20.36502078 11.55366776 0.00000000
      vertex 20.25475764 11.73732091 0.00000000
    endloop
  endfacet
  facet normal 0.00000000 -0.00000000 1.00000000
    outer loop
      vertex 20.05616872 11.60171743 0.00000000
      vertex 20.12546288 11.90477082 0.00000000
      vertex 19.94418094 11.74675305 0.00000000
    endloop
  endfacet
  facet normal 0.00000000 0.00000000 1.00000000
    outer loop
      vertex 20.05616872 11.60171743 0.00000000
      vertex 20.25475764 11.73732091 0.00000000
      vertex 20.12546288 11.90477082 0.00000000
    endloop
  endfacet
  facet normal 0.00000000 -0.00000000 1.00000000
    outer loop
      vertex 19.94418094 11.74675305 0.00000000
      vertex 19.97742004 12.05551438 0.00000000
      vertex 19.81604362 11.87722795 0.00000000
    endloop
  endfacet
  facet normal 0.00000000 0.00000000 1.00000000
    outer loop
      vertex 19.94418094 11.74675305 0.00000000
      vertex 20.12546288 11.90477082 0.00000000
      vertex 19.97742004 12.05551438 0.00000000
    endloop
  endfacet
  facet normal 0.00000000 0.00000000 1.00000000
    outer loop
      vertex 19.81604362 11.87722795 0.00000000
      vertex 19.81107321 12.18917426 0.00000000
      vertex 19.67131268 11.99351944 0.00000000
    endloop
  endfacet
  facet normal 0.00000000 -0.00000000 1.00000000
    outer loop
      vertex 19.81604362 11.87722795 0.00000000
      vertex 19.97742004 12.05551438 0.00000000
      vertex 19.81107321 12.18917426 0.00000000
    endloop
  endfacet
  facet normal 0.00000000 0.00000000 1.00000000
    outer loop
      vertex 19.67131268 11.99351944 0.00000000
      vertex 19.62693454 12.30556472 0.00000000
      vertex 19.50947596 12.09581328 0.00000000
    endloop
  endfacet
  facet normal 0.00000000 -0.00000000 1.00000000
    outer loop
      vertex 19.67131268 11.99351944 0.00000000
      vertex 19.81107321 12.18917426 0.00000000
      vertex 19.62693454 12.30556472 0.00000000
    endloop
  endfacet
  facet normal 0.00000000 0.00000000 1.00000000
    outer loop
      vertex 19.50947596 12.09581328 0.00000000
      vertex 19.42548140 12.40469433 0.00000000
      vertex 19.33005611 12.18410090 0.00000000
    endloop
  endfacet
  facet normal 0.00000000 -0.00000000 1.00000000
    outer loop
      vertex 19.50947596 12.09581328 0.00000000
      vertex 19.62693454 12.30556472 0.00000000
      vertex 19.42548140 12.40469433 0.00000000
    endloop
  endfacet
  facet normal 0.00000000 0.00000000 1.00000000
    outer loop
      vertex 19.33005611 12.18410090 0.00000000
      vertex 19.20708423 12.48671732 0.00000000
      vertex 19.13268267 12.25822805 0.00000000
    endloop
  endfacet
  facet normal 0.00000000 -0.00000000 1.00000000
    outer loop
      vertex 19.33005611 12.18410090 0.00000000
      vertex 19.42548140 12.40469433 0.00000000
      vertex 19.20708423 12.48671732 0.00000000
    endloop
  endfacet
  facet normal 0.00000000 0.00000000 1.00000000
    outer loop
      vertex 19.13268267 12.25822805 0.00000000
      vertex 18.97198118 12.55186590 0.00000000
      vertex 18.91711750 12.31796255 0.00000000
    endloop
  endfacet
  facet normal 0.00000000 -0.00000000 1.00000000
    outer loop
      vertex 19.13268267 12.25822805 0.00000000
      vertex 19.20708423 12.48671732 0.00000000
      vertex 18.97198118 12.55186590 0.00000000
    endloop
  endfacet
  facet normal 0.00000000 0.00000000 1.00000000
    outer loop
      vertex 18.91711750 12.31796255 0.00000000
      vertex 18.72028989 12.60039141 0.00000000
      vertex 18.68324295 12.36305303 0.00000000
    endloop
  endfacet
  facet normal 0.00000000 -0.00000000 1.00000000
    outer loop
      vertex 18.91711750 12.31796255 0.00000000
      vertex 18.97198118 12.55186590 0.00000000
      vertex 18.72028989 12.60039141 0.00000000
    endloop
  endfacet
  facet normal 0.00000000 0.00000000 1.00000000
    outer loop
      vertex 18.68324295 12.36305303 0.00000000
      vertex 18.45203728 12.63252673 0.00000000
      vertex 18.43103211 12.39326663 0.00000000
    endloop
  endfacet
  facet normal 0.00000000 -0.00000000 1.00000000
    outer loop
      vertex 18.68324295 12.36305303 0.00000000
      vertex 18.72028989 12.60039141 0.00000000
      vertex 18.45203728 12.63252673 0.00000000
    endloop
  endfacet
  facet normal 0.00000000 0.00000000 1.00000000
    outer loop
      vertex 18.43103211 12.39326663 0.00000000
      vertex 18.16719157 12.64846866 0.00000000
      vertex 18.16051676 12.40840654 0.00000000
    endloop
  endfacet
  facet normal 0.00000000 -0.00000000 1.00000000
    outer loop
      vertex 18.43103211 12.39326663 0.00000000
      vertex 18.45203728 12.63252673 0.00000000
      vertex 18.16719157 12.64846866 0.00000000
    endloop
  endfacet
  facet normal 0.00000000 0.00000000 1.00000000
    outer loop
      vertex 18.16051676 12.40840654 0.00000000
      vertex 17.86568849 12.64837405 0.00000000
      vertex 17.87176116 12.40831593 0.00000000
    endloop
  endfacet
  facet normal 0.00000000 -0.00000000 1.00000000
    outer loop
      vertex 18.16051676 12.40840654 0.00000000
      vertex 18.16719157 12.64846866 0.00000000
      vertex 17.86568849 12.64837405 0.00000000
    endloop
  endfacet
  facet normal 0.00000000 0.00000000 1.00000000
    outer loop
      vertex 17.87176116 12.40831593 0.00000000
      vertex 17.54744963 12.63236310 0.00000000
      vertex 17.56484374 12.39287457 0.00000000
    endloop
  endfacet
  facet normal 0.00000000 0.00000000 1.00000000
    outer loop
      vertex 17.87176116 12.40831593 0.00000000
      vertex 17.86568849 12.64837405 0.00000000
      vertex 17.54744963 12.63236310 0.00000000
    endloop
  endfacet
  facet normal 0.00000000 0.00000000 1.00000000
    outer loop
      vertex 17.56484374 12.39287457 0.00000000
      vertex 17.21476543 12.60075091 0.00000000
      vertex 17.23747403 12.36176737 0.00000000
    endloop
  endfacet
  facet normal 0.00000000 0.00000000 1.00000000
    outer loop
      vertex 17.56484374 12.39287457 0.00000000
      vertex 17.54744963 12.63236310 0.00000000
      vertex 17.21476543 12.60075091 0.00000000
    endloop
  endfacet
endsolid lane_yellow_line_16
