solid lane_yellow_line_06
  facet normal 0.00000000 0.00000000 1.00000000
    outer loop
      vertex 0.46299697 -0.04152477 0.00000000
      vertex 0.37248084 0.18636646 0.00000000
      vertex 0.41373730 -0.05012184 0.00000000
    endloop
  endfacet
  facet normal 0.00000000 0.00000000 1.00000000
    outer loop
      vertex 0.46299697 -0.04152477 0.00000000
      vertex 0.42172426 0.19496069 0.00000000
      vertex 0.37248084 0.18636646 0.00000000
    endloop
  endfacet
  facet normal 0.00000000 0.00000000 1.00000000
    outer loop
      vertex 0.41373730 -0.05012184 0.00000000
      vertex 0.32325554 0.17778237 0.00000000
      vertex 0.36447950 -0.05871160 0.00000000
    endloop
  endfacet
  facet normal 0.00000000 0.00000000 1.00000000
    outer loop
      vertex 0.41373730 -0.05012184 0.00000000
      vertex 0.37248084 0.18636646 0.00000000
      vertex 0.32325554 0.17778237 0.00000000
    endloop
  endfacet
  facet normal 0.00000000 0.00000000 1.00000000
    outer loop
      vertex 0.36447950 -0.05871160 0.00000000
      vertex 0.27404025 0.16920700 0.00000000
      vertex 0.31523168 -0.06729264 0.00000000
    endloop
  endfacet
  facet normal 0.00000000 0.00000000 1.00000000
    outer loop
      vertex 0.36447950 -0.05871160 0.00000000
      vertex 0.32325554 0.17778237 0.00000000
      vertex 0.27404025 0.16920700 0.00000000
    endloop
  endfacet
  facet normal 0.00000000 0.00000000 1.00000000
    outer loop
      vertex 0.31523168 -0.06729264 0.00000000
      vertex 0.22483496 0.16064034 0.00000000
      vertex 0.26599386 -0.07586496 0.00000000
    endloop
  endfacet
  facet normal 0.00000000 0.00000000 1.00000000
    outer loop
      vertex 0.31523168 -0.06729264 0.00000000
      vertex 0.27404025 0.16920700 0.00000000
      vertex 0.22483496 0.16064034 0.00000000
    endloop
  endfacet
  facet normal 0.00000000 0.00000000 1.00000000
    outer loop
      vertex 0.26599386 -0.07586496 0.00000000
      vertex 0.17563967 0.15208239 0.00000000
      vertex 0.21676602 -0.08442857 0.00000000
    endloop
  endfacet
  facet normal 0.00000000 0.00000000 1.00000000
    outer loop
      vertex 0.26599386 -0.07586496 0.00000000
      vertex 0.22483496 0.16064034 0.00000000
      vertex 0.17563967 0.15208239 0.00000000
    endloop
  endfacet
  facet normal 0.00000000 0.00000000 1.00000000
    outer loop
      vertex 0.21676602 -0.08442857 0.00000000
      vertex 0.12645439 0.14353316 0.00000000
      vertex 0.16754816 -0.09298346 0.00000000
    endloop
  endfacet
  facet normal 0.00000000 0.00000000 1.00000000
    outer loop
      vertex 0.21676602 -0.08442857 0.00000000
      vertex 0.17563967 0.15208239 0.00000000
      vertex 0.12645439 0.14353316 0.00000000
    endloop
  endfacet
  facet normal 0.00000000 0.00000000 1.00000000
    outer loop
      vertex 0.16754816 -0.09298346 0.00000000
      vertex 0.07727911 0.13499265 0.00000000
      vertex 0.11834030 -0.10152963 0.00000000
    endloop
  endfacet
  facet normal 0.00000000 0.00000000 1.00000000
    outer loop
      vertex 0.16754816 -0.09298346 0.00000000
      vertex 0.12645439 0.14353316 0.00000000
      vertex 0.07727911 0.13499265 0.00000000
    endloop
  endfacet
  facet normal 0.00000000 0.00000000 1.00000000
    outer loop
      vertex 0.11834030 -0.10152963 0.00000000
      vertex 0.02811383 0.12646086 0.00000000
      vertex 0.06914242 -0.11006708 0.00000000
    endloop
  endfacet
  facet normal 0.00000000 0.00000000 1.00000000
    outer loop
      vertex 0.11834030 -0.10152963 0.00000000
      vertex 0.07727911 0.13499265 0.00000000
      vertex 0.02811383 0.12646086 0.00000000
    endloop
  endfacet
  facet normal 0.00000000 0.00000000 1.00000000
    outer loop
      vertex 0.06914242 -0.11006708 0.00000000
      vertex -0.02104145 0.11793778 0.00000000
      vertex 0.01995453 -0.11859581 0.00000000
    endloop
  endfacet
  facet normal 0.00000000 0.00000000 1.00000000
    outer loop
      vertex 0.06914242 -0.11006708 0.00000000
      vertex 0.02811383 0.12646086 0.00000000
      vertex -0.02104145 0.11793778 0.00000000
    endloop
  endfacet
  facet normal 0.00000000 0.00000000 1.00000000
    outer loop
      vertex 0.01995453 -0.11859581 0.00000000
      vertex -0.07018672 0.10942342 0.00000000
      vertex -0.02922337 -0.12711583 0.00000000
    endloop
  endfacet
  facet normal 0.00000000 0.00000000 1.00000000
    outer loop
      vertex 0.01995453 -0.11859581 0.00000000
      vertex -0.02104145 0.11793778 0.00000000
      vertex -0.07018672 0.10942342 0.00000000
    endloop
  endfacet
  facet normal 0.00000000 0.00000000 1.00000000
    outer loop
      vertex -0.02922337 -0.12711583 0.00000000
      vertex -0.11932199 0.10091777 0.00000000
      vertex -0.07839129 -0.13562713 0.00000000
    endloop
  endfacet
  facet normal 0.00000000 0.00000000 1.00000000
    outer loop
      vertex -0.02922337 -0.12711583 0.00000000
      vertex -0.07018672 0.10942342 0.00000000
      vertex -0.11932199 0.10091777 0.00000000
    endloop
  endfacet
  facet normal 0.00000000 0.00000000 1.00000000
    outer loop
      vertex -0.07839129 -0.13562713 0.00000000
      vertex -0.16844725 0.09242084 0.00000000
      vertex -0.12754922 -0.14412971 0.00000000
    endloop
  endfacet
  facet normal 0.00000000 0.00000000 1.00000000
    outer loop
      vertex -0.07839129 -0.13562713 0.00000000
      vertex -0.11932199 0.10091777 0.00000000
      vertex -0.16844725 0.09242084 0.00000000
    endloop
  endfacet
  facet normal 0.00000000 0.00000000 1.00000000
    outer loop
      vertex -0.12754922 -0.14412971 0.00000000
      vertex -0.21756251 0.08393263 0.00000000
      vertex -0.17669716 -0.15262357 0.00000000
    endloop
  endfacet
  facet normal 0.00000000 0.00000000 1.00000000
    outer loop
      vertex -0.12754922 -0.14412971 0.00000000
      vertex -0.16844725 0.09242084 0.00000000
      vertex -0.21756251 0.08393263 0.00000000
    endloop
  endfacet
  facet normal 0.00000000 0.00000000 1.00000000
    outer loop
      vertex -0.17669716 -0.15262357 0.00000000
      vertex -0.26666777 0.07545313 0.00000000
      vertex -0.22583511 -0.16110871 0.00000000
    endloop
  endfacet
  facet normal 0.00000000 0.00000000 1.00000000
    outer loop
      vertex -0.17669716 -0.15262357 0.00000000
      vertex -0.21756251 0.08393263 0.00000000
      vertex -0.26666777 0.07545313 0.00000000
    endloop
  endfacet
  facet normal 0.00000000 0.00000000 1.00000000
    outer loop
      vertex -0.22583511 -0.16110871 0.00000000
      vertex -0.31576303 0.06698235 0.00000000
      vertex -0.27496307 -0.16958513 0.00000000
    endloop
  endfacet
  facet normal 0.00000000 0.00000000 1.00000000
    outer loop
      vertex -0.22583511 -0.16110871 0.00000000
      vertex -0.26666777 0.07545313 0.00000000
      vertex -0.31576303 0.06698235 0.00000000
    endloop
  endfacet
  facet normal 0.00000000 0.00000000 1.00000000
    outer loop
      vertex -0.27496307 -0.16958513 0.00000000
      vertex -0.36484828 0.05852028 0.00000000
      vertex -0.32408105 -0.17805284 0.00000000
    endloop
  endfacet
  facet normal 0.00000000 0.00000000 1.00000000
    outer loop
      vertex -0.27496307 -0.16958513 0.00000000
      vertex -0.31576303 0.06698235 0.00000000
      vertex -0.36484828 0.05852028 0.00000000
    endloop
  endfacet
  facet normal 0.00000000 0.00000000 1.00000000
    outer loop
      vertex -0.32408105 -0.17805284 0.00000000
      vertex -0.41392353 0.05006694 0.00000000
      vertex -0.37318904 -0.18651183 0.00000000
    endloop
  endfacet
  facet normal 0.00000000 0.00000000 1.00000000
    outer loop
      vertex -0.32408105 -0.17805284 0.00000000
      vertex -0.36484828 0.05852028 0.00000000
      vertex -0.41392353 0.05006694 0.00000000
    endloop
  endfacet
  facet normal 0.00000000 0.00000000 1.00000000
    outer loop
      vertex -0.37318904 -0.18651183 0.00000000
      vertex -0.46299697 0.04162089 0.00000000
      vertex -0.42227885 -0.19496069 0.00000000
    endloop
  endfacet
  facet normal 0.00000000 0.00000000 1.00000000
    outer loop
      vertex -0.37318904 -0.18651183 0.00000000
      vertex -0.41392353 0.05006694 0.00000000
      vertex -0.46299697 0.04162089 0.00000000
    endloop
  endfacet
endsolid lane_yellow_line_06
