solid mark_crosswalk_02
  facet normal 0.00000000 0.00000000 1.00000000
    outer loop
      vertex -3.37134284 1.10397599 0.00000000
      vertex -3.37134284 -1.10397599 0.00000000
      vertex -2.92183046 -1.10397599 0.00000000
    endloop
  endfacet
  facet normal 0.00000000 -0.00000000 1.00000000
    outer loop
      vertex -2.92183046 -1.10397599 0.00000000
      vertex -2.92183046 1.10397599 0.00000000
      vertex -3.37134284 1.10397599 0.00000000
    endloop
  endfacet
  facet normal 0.00000000 0.00000000 1.00000000
    outer loop
      vertex -2.47231808 1.10397599 0.00000000
      vertex -2.47231808 -1.10397599 0.00000000
      vertex -2.02280570 -1.10397599 0.00000000
    endloop
  endfacet
  facet normal 0.00000000 -0.00000000 1.00000000
    outer loop
      vertex -2.02280570 -1.10397599 0.00000000
      vertex -2.02280570 1.10397599 0.00000000
      vertex -2.47231808 1.10397599 0.00000000
    endloop
  endfacet
  facet normal 0.00000000 0.00000000 1.00000000
    outer loop
      vertex -1.57329332 1.10397599 0.00000000
      vertex -1.57329332 -1.10397599 0.00000000
      vertex -1.12378095 -1.10397599 0.00000000
    endloop
  endfacet
  facet normal 0.00000000 -0.00000000 1.00000000
    outer loop
      vertex -1.12378095 -1.10397599 0.00000000
      vertex -1.12378095 1.10397599 0.00000000
      vertex -1.57329332 1.10397599 0.00000000
    endloop
  endfacet
  facet normal 0.00000000 0.00000000 1.00000000
    outer loop
      vertex -0.67426857 1.10397599 0.00000000
      vertex -0.67426857 -1.10397599 0.00000000
      vertex -0.22475619 -1.10397599 0.00000000
    endloop
  endfacet
  facet normal 0.00000000 -0.00000000 1.00000000
    outer loop
      vertex -0.22475619 -1.10397599 0.00000000
      vertex -0.22475619 1.10397599 0.00000000
      vertex -0.67426857 1.10397599 0.00000000
    endloop
  endfacet
  facet normal 0.00000000 0.00000000 1.00000000
    outer loop
      vertex 0.22475619 1.10397599 0.00000000
      vertex 0.22475619 -1.10397599 0.00000000
      vertex 0.67426857 -1.10397599 0.00000000
    endloop
  endfacet
  facet normal 0.00000000 -0.00000000 1.00000000
    outer loop
      vertex 0.67426857 -1.10397599 0.00000000
      vertex 0.67426857 1.10397599 0.00000000
      vertex 0.22475619 1.10397599 0.00000000
    endloop
  endfacet
  facet normal 0.00000000 0.00000000 1.00000000
    outer loop
      vertex 1.12378095 1.10397599 0.00000000
      vertex 1.12378095 -1.10397599 0.00000000
      vertex 1.57329332 -1.10397599 0.00000000
    endloop
  endfacet
  facet normal 0.00000000 -0.00000000 1.00000000
    outer loop
      vertex 1.57329332 -1.10397599 0.00000000
      vertex 1.57329332 1.10397599 0.00000000
      vertex 1.12378095 1.10397599 0.00000000
    endloop
  endfacet
  facet normal 0.00000000 0.00000000 1.00000000
    outer loop
      vertex 2.02280570 1.10397599 0.00000000
      vertex 2.02280570 -1.10397599 0.00000000
      vertex 2.47231808 -1.10397599 0.00000000
    endloop
  endfacet
  facet normal 0.00000000 -0.00000000 1.00000000
    outer loop
      vertex 2.47231808 -1.10397599 0.00000000
      vertex 2.47231808 1.10397599 0.00000000
      vertex 2.02280570 1.10397599 0.00000000
    endloop
  endfacet
  facet normal 0.00000000 0.00000000 1.00000000
    outer loop
      vertex 2.92183046 1.10397599 0.00000000
      vertex 2.92183046 -1.10397599 0.00000000
      vertex 3.37134284 -1.10397599 0.00000000
    endloop
  endfacet
  facet normal 0.00000000 -0.00000000 1.00000000
    outer loop
      vertex 3.37134284 -1.10397599 0.00000000
      vertex 3.37134284 1.10397599 0.00000000
      vertex 2.92183046 1.10397599 0.00000000
    endloop
  endfacet
endsolid mark_crosswalk_02
