solid mark_crosswalk_00
  facet normal 0.00000000 0.00000000 1.00000000
    outer loop
      vertex -3.85146287 1.18199550 0.00000000
      vertex -3.85146287 -1.18199550 0.00000000
      vertex -3.39834959 -1.18199550 0.00000000
    endloop
  endfacet
  facet normal 0.00000000 0.00000000 1.00000000
    outer loop
      vertex -3.39834959 -1.18199550 0.00000000
      vertex -3.39834959 1.18199550 0.00000000
      vertex -3.85146287 1.18199550 0.00000000
    endloop
  endfacet
  facet normal 0.00000000 0.00000000 1.00000000
    outer loop
      vertex -2.94523631 1.18199550 0.00000000
      vertex -2.94523631 -1.18199550 0.00000000
      vertex -2.49212303 -1.18199550 0.00000000
    endloop
  endfacet
  facet normal 0.00000000 0.00000000 1.00000000
    outer loop
      vertex -2.49212303 -1.18199550 0.00000000
      vertex -2.49212303 1.18199550 0.00000000
      vertex -2.94523631 1.18199550 0.00000000
    endloop
  endfacet
  facet normal 0.00000000 0.00000000 1.00000000
    outer loop
      vertex -2.03900975 1.18199550 0.00000000
      vertex -2.03900975 -1.18199550 0.00000000
      vertex -1.58589647 -1.18199550 0.00000000
    endloop
  endfacet
  facet normal 0.00000000 0.00000000 1.00000000
    outer loop
      vertex -1.58589647 -1.18199550 0.00000000
      vertex -1.58589647 1.18199550 0.00000000
      vertex -2.03900975 1.18199550 0.00000000
    endloop
  endfacet
  facet normal 0.00000000 0.00000000 1.00000000
    outer loop
      vertex -1.13278320 1.18199550 0.00000000
      vertex -1.13278320 -1.18199550 0.00000000
      vertex -0.67966992 -1.18199550 0.00000000
    endloop
  endfacet
  facet normal 0.00000000 0.00000000 1.00000000
    outer loop
      vertex -0.67966992 -1.18199550 0.00000000
      vertex -0.67966992 1.18199550 0.00000000
      vertex -1.13278320 1.18199550 0.00000000
    endloop
  endfacet
  facet normal 0.00000000 0.00000000 1.00000000
    outer loop
      vertex -0.22655664 1.18199550 0.00000000
      vertex -0.22655664 -1.18199550 0.00000000
      vertex 0.22655664 -1.18199550 0.00000000
    endloop
  endfacet
  facet normal 0.00000000 0.00000000 1.00000000
    outer loop
      vertex 0.22655664 -1.18199550 0.00000000
      vertex 0.22655664 1.18199550 0.00000000
      vertex -0.22655664 1.18199550 0.00000000
    endloop
  endfacet
  facet normal 0.00000000 0.00000000 1.00000000
    outer loop
      vertex 0.67966992 1.18199550 0.00000000
      vertex 0.67966992 -1.18199550 0.00000000
      vertex 1.13278320 -1.18199550 0.00000000
    endloop
  endfacet
  facet normal 0.00000000 0.00000000 1.00000000
    outer loop
      vertex 1.13278320 -1.18199550 0.00000000
      vertex 1.13278320 1.18199550 0.00000000
      vertex 0.67966992 1.18199550 0.00000000
    endloop
  endfacet
  facet normal 0.00000000 0.00000000 1.00000000
    outer loop
      vertex 1.58589647 1.18199550 0.00000000
      vertex 1.58589647 -1.18199550 0.00000000
      vertex 2.03900975 -1.18199550 0.00000000
    endloop
  endfacet
  facet normal 0.00000000 0.00000000 1.00000000
    outer loop
      vertex 2.03900975 -1.18199550 0.00000000
      vertex 2.03900975 1.18199550 0.00000000
      vertex 1.58589647 1.18199550 0.00000000
    endloop
  endfacet
  facet normal 0.00000000 0.00000000 1.00000000
    outer loop
      vertex 2.49212303 1.18199550 0.00000000
      vertex 2.49212303 -1.18199550 0.00000000
      vertex 2.94523631 -1.18199550 0.00000000
    endloop
  endfacet
  facet normal 0.00000000 0.00000000 1.00000000
    outer loop
      vertex 2.94523631 -1.18199550 0.00000000
      vertex 2.94523631 1.18199550 0.00000000
      vertex 2.49212303 1.18199550 0.00000000
    endloop
  endfacet
  facet normal 0.00000000 0.00000000 1.00000000
    outer loop
      vertex 3.39834959 1.18199550 0.00000000
      vertex 3.39834959 -1.18199550 0.00000000
      vertex 3.85146287 -1.18199550 0.00000000
    endloop
  endfacet
  facet normal 0.00000000 0.00000000 1.00000000
    outer loop
      vertex 3.85146287 -1.18199550 0.00000000
      vertex 3.85146287 1.18199550 0.00000000
      vertex 3.39834959 1.18199550 0.00000000
    endloop
  endfacet
endsolid mark_crosswalk_00
