solid mark_stop_line_07
  facet normal 0.00000000 0.00000000 1.00000000
    outer loop
      vertex -1.93548387 0.28447112 0.00000000
      vertex -1.93548387 -0.28447112 0.00000000
      vertex 1.93548387 -0.28447112 0.00000000
    endloop
  endfacet
  facet normal 0.00000000 0.00000000 1.00000000
    outer loop
      vertex 1.93548387 -0.28447112 0.00000000
      vertex 1.93548387 0.28447112 0.00000000
      vertex -1.93548387 0.28447112 0.00000000
    endloop
  endfacet
endsolid mark_stop_line_07
