solid mark_stop_line_05
  facet normal 0.00000000 0.00000000 1.00000000
    outer loop
      vertex -2.57014254 0.28927232 0.00000000
      vertex -2.57014254 -0.28927232 0.00000000
      vertex 2.57014254 -0.28927232 0.00000000
    endloop
  endfacet
  facet normal 0.00000000 0.00000000 1.00000000
    outer loop
      vertex 2.57014254 -0.28927232 0.00000000
      vertex 2.57014254 0.28927232 0.00000000
      vertex -2.57014254 0.28927232 0.00000000
    endloop
  endfacet
endsolid mark_stop_line_05
