solid mark_stop_line_00
  facet normal 0.00000000 0.00000000 1.00000000
    outer loop
      vertex -2.50262566 0.17764441 0.00000000
      vertex -2.50262566 -0.17764441 0.00000000
      vertex 2.50262566 -0.17764441 0.00000000
    endloop
  endfacet
  facet normal 0.00000000 -0.00000000 1.00000000
    outer loop
      vertex 2.50262566 -0.17764441 0.00000000
      vertex 2.50262566 0.17764441 0.00000000
      vertex -2.50262566 0.17764441 0.00000000
    endloop
  endfacet
endsolid mark_stop_line_00
