solid mark_crosswalk_05
  facet normal 0.00000000 0.00000000 1.00000000
    outer loop
      vertex -3.00375094 1.10397599 0.00000000
      vertex -3.00375094 -1.10397599 0.00000000
      vertex -2.54163541 -1.10397599 0.00000000
    endloop
  endfacet
  facet normal 0.00000000 0.00000000 1.00000000
    outer loop
      vertex -2.54163541 -1.10397599 0.00000000
      vertex -2.54163541 1.10397599 0.00000000
      vertex -3.00375094 1.10397599 0.00000000
    endloop
  endfacet
  facet normal 0.00000000 0.00000000 1.00000000
    outer loop
      vertex -2.07951988 1.10397599 0.00000000
      vertex -2.07951988 -1.10397599 0.00000000
      vertex -1.61740435 -1.10397599 0.00000000
    endloop
  endfacet
  facet normal 0.00000000 -0.00000000 1.00000000
    outer loop
      vertex -1.61740435 -1.10397599 0.00000000
      vertex -1.61740435 1.10397599 0.00000000
      vertex -2.07951988 1.10397599 0.00000000
    endloop
  endfacet
  facet normal 0.00000000 0.00000000 1.00000000
    outer loop
      vertex -1.15528882 1.10397599 0.00000000
      vertex -1.15528882 -1.10397599 0.00000000
      vertex -0.69317329 -1.10397599 0.00000000
    endloop
  endfacet
  facet normal 0.00000000 -0.00000000 1.00000000
    outer loop
      vertex -0.69317329 -1.10397599 0.00000000
      vertex -0.69317329 1.10397599 0.00000000
      vertex -1.15528882 1.10397599 0.00000000
    endloop
  endfacet
  facet normal 0.00000000 0.00000000 1.00000000
    outer loop
      vertex -0.23105776 1.10397599 0.00000000
      vertex -0.23105776 -1.10397599 0.00000000
      vertex 0.23105776 -1.10397599 0.00000000
    endloop
  endfacet
  facet normal 0.00000000 -0.00000000 1.00000000
    outer loop
      vertex 0.23105776 -1.10397599 0.00000000
      vertex 0.23105776 1.10397599 0.00000000
      vertex -0.23105776 1.10397599 0.00000000
    endloop
  endfacet
  facet normal 0.00000000 0.00000000 1.00000000
    outer loop
      vertex 0.69317329 1.10397599 0.00000000
      vertex 0.69317329 -1.10397599 0.00000000
      vertex 1.15528882 -1.10397599 0.00000000
    endloop
  endfacet
  facet normal 0.00000000 -0.00000000 1.00000000
    outer loop
      vertex 1.15528882 -1.10397599 0.00000000
      vertex 1.15528882 1.10397599 0.00000000
      vertex 0.69317329 1.10397599 0.00000000
    endloop
  endfacet
  facet normal 0.00000000 0.00000000 1.00000000
    outer loop
      vertex 1.61740435 1.10397599 0.00000000
      vertex 1.61740435 -1.10397599 0.00000000
      vertex 2.07951988 -1.10397599 0.00000000
    endloop
  endfacet
  facet normal 0.00000000 0.00000000 1.00000000
    outer loop
      vertex 2.07951988 -1.10397599 0.00000000
      vertex 2.07951988 1.10397599 0.00000000
      vertex 1.61740435 1.10397599 0.00000000
    endloop
  endfacet
  facet normal 0.00000000 0.00000000 1.00000000
    outer loop
      vertex 2.54163541 1.10397599 0.00000000
      vertex 2.54163541 -1.10397599 0.00000000
      vertex 3.00375094 -1.10397599 0.00000000
    endloop
  endfacet
  facet normal 0.00000000 0.00000000 1.00000000
    outer loop
      vertex 3.00375094 -1.10397599 0.00000000
      vertex 3.00375094 1.10397599 0.00000000
      vertex 2.54163541 1.10397599 0.00000000
    endloop
  endfacet
endsolid mark_crosswalk_05
