solid road_arrow_template_12
  facet normal -0.00000000 0.00000000 1.00000000
    outer loop
      vertex 0.06499096 -0.95642681 0.00000000
      vertex 0.08394666 -1.31468793 0.00000000
      vertex 0.37741040 -0.76393053 0.00000000
    endloop
  endfacet
  facet normal 0.00000000 0.00000000 1.00000000
    outer loop
      vertex 0.37741040 -0.76393053 0.00000000
      vertex 0.02746642 -0.24721601 0.00000000
      vertex 0.04835637 -0.64203439 0.00000000
    endloop
  endfacet
  facet normal 0.00000000 -0.00000000 1.00000000
    outer loop
      vertex 0.06499096 -0.95642681 0.00000000
      vertex 0.37741040 -0.76393053 0.00000000
      vertex 0.04835637 -0.64203439 0.00000000
    endloop
  endfacet
  facet normal 0.00000000 0.00000000 1.00000000
    outer loop
      vertex 0.06499096 -0.95642681 0.00000000
      vertex 0.04835637 -0.64203439 0.00000000
      vertex -0.14560988 -0.57897800 0.00000000
    endloop
  endfacet
  facet normal 0.00000000 0.00000000 1.00000000
    outer loop
      vertex -0.14560988 -0.57897800 0.00000000
      vertex -0.24580427 1.31468793 0.00000000
      vertex -0.37741040 1.30772461 0.00000000
    endloop
  endfacet
  facet normal 0.00000000 0.00000000 1.00000000
    outer loop
      vertex -0.14560988 -0.57897800 0.00000000
      vertex -0.37741040 1.30772461 0.00000000
      vertex -0.27334750 -0.65905583 0.00000000
    endloop
  endfacet
  facet normal 0.00000000 0.00000000 1.00000000
    outer loop
      vertex 0.06499096 -0.95642681 0.00000000
      vertex -0.14560988 -0.57897800 0.00000000
      vertex -0.27334750 -0.65905583 0.00000000
    endloop
  endfacet
  facet normal 0.00000000 0.00000000 1.00000000
    outer loop
      vertex -0.27334750 -0.65905583 0.00000000
      vertex -0.16054220 -0.85104911 0.00000000
      vertex 0.06499096 -0.95642681 0.00000000
    endloop
  endfacet
endsolid road_arrow_template_12
