solid traffic_light_left_arrow
  facet normal 1.00000000 0.00000000 0.00000000
    outer loop
      vertex 0.00900000 0.15500000 0.00000000
      vertex 0.00900000 0.01500000 0.14000000
      vertex 0.00900000 -0.02000000 0.10500000
    endloop
  endfacet
  facet normal 1.00000000 0.00000000 0.00000000
    outer loop
      vertex 0.00900000 0.15500000 0.00000000
      vertex 0.00900000 -0.02000000 0.10500000
      vertex 0.00900000 0.09000000 0.00000000
    endloop
  endfacet
  facet normal 1.00000000 0.00000000 0.00000000
    outer loop
      vertex 0.00900000 0.01500000 -0.14000000
      vertex 0.00900000 0.15500000 0.00000000
      vertex 0.00900000 0.09000000 0.00000000
    endloop
  endfacet
  facet normal 1.00000000 0.00000000 0.00000000
    outer loop
      vertex 0.00900000 0.09000000 0.00000000
      vertex 0.00900000 -0.02000000 -0.10500000
      vertex 0.00900000 0.01500000 -0.14000000
    endloop
  endfacet
  facet normal -1.00000000 0.00000000 0.00000000
    outer loop
      vertex -0.00900000 -0.02000000 0.10500000
      vertex -0.00900000 0.01500000 0.14000000
      vertex -0.00900000 0.15500000 0.00000000
    endloop
  endfacet
  facet normal -1.00000000 0.00000000 0.00000000
    outer loop
      vertex -0.00900000 0.09000000 0.00000000
      vertex -0.00900000 -0.02000000 0.10500000
      vertex -0.00900000 0.15500000 0.00000000
    endloop
  endfacet
  facet normal -1.00000000 0.00000000 -0.00000000
    outer loop
      vertex -0.00900000 0.09000000 0.00000000
      vertex -0.00900000 0.15500000 0.00000000
      vertex -0.00900000 0.01500000 -0.14000000
    endloop
  endfacet
  facet normal -1.00000000 0.00000000 0.00000000
    outer loop
      vertex -0.00900000 0.01500000 -0.14000000
      vertex -0.00900000 -0.02000000 -0.10500000
      vertex -0.00900000 0.09000000 0.00000000
    endloop
  endfacet
  facet normal 0.00000000 -0.70710678 -0.70710678
    outer loop
      vertex 0.00900000 0.15500000 0.00000000
      vertex 0.00900000 0.01500000 0.14000000
      vertex -0.00900000 0.01500000 0.14000000
    endloop
  endfacet
  facet normal -0.00000000 -0.70710678 -0.70710678
    outer loop
      vertex 0.00900000 0.15500000 0.00000000
      vertex -0.00900000 0.01500000 0.14000000
      vertex -0.00900000 0.15500000 0.00000000
    endloop
  endfacet
  facet normal 0.00000000 0.70710678 -0.70710678
    outer loop
      vertex 0.00900000 0.01500000 0.14000000
      vertex 0.00900000 -0.02000000 0.10500000
      vertex -0.00900000 -0.02000000 0.10500000
    endloop
  endfacet
  facet normal 0.00000000 0.70710678 -0.70710678
    outer loop
      vertex 0.00900000 0.01500000 0.14000000
      vertex -0.00900000 -0.02000000 0.10500000
      vertex -0.00900000 0.01500000 0.14000000
    endloop
  endfacet
  facet normal 0.00000000 0.69047575 0.72335554
    outer loop
      vertex 0.00900000 -0.02000000 0.10500000
      vertex 0.00900000 0.09000000 0.00000000
      vertex -0.00900000 0.09000000 0.00000000
    endloop
  endfacet
  facet normal 0.00000000 0.69047575 0.72335554
    outer loop
      vertex 0.00900000 -0.02000000 0.10500000
      vertex -0.00900000 0.09000000 0.00000000
      vertex -0.00900000 -0.02000000 0.10500000
    endloop
  endfacet
  facet normal 0.00000000 0.69047575 -0.72335554
    outer loop
      vertex 0.00900000 0.09000000 0.00000000
      vertex 0.00900000 -0.02000000 -0.10500000
      vertex -0.00900000 -0.02000000 -0.10500000
    endloop
  endfacet
  facet normal 0.00000000 0.69047575 -0.72335554
    outer loop
      vertex 0.00900000 0.09000000 0.00000000
      vertex -0.00900000 -0.02000000 -0.10500000
      vertex -0.00900000 0.09000000 0.00000000
    endloop
  endfacet
  facet normal 0.00000000 0.70710678 0.70710678
    outer loop
      vertex 0.00900000 -0.02000000 -0.10500000
      vertex 0.00900000 0.01500000 -0.14000000
      vertex -0.00900000 0.01500000 -0.14000000
    endloop
  endfacet
  facet normal 0.00000000 0.70710678 0.70710678
    outer loop
      vertex 0.00900000 -0.02000000 -0.10500000
      vertex -0.00900000 0.01500000 -0.14000000
      vertex -0.00900000 -0.02000000 -0.10500000
    endloop
  endfacet
  facet normal 0.00000000 -0.70710678 0.70710678
    outer loop
      vertex 0.00900000 0.01500000 -0.14000000
      vertex 0.00900000 0.15500000 0.00000000
      vertex -0.00900000 0.15500000 0.00000000
    endloop
  endfacet
  facet normal 0.00000000 -0.70710678 0.70710678
    outer loop
      vertex 0.00900000 0.01500000 -0.14000000
      vertex -0.00900000 0.15500000 0.00000000
      vertex -0.00900000 0.01500000 -0.14000000
    endloop
  endfacet
  facet normal 1.00000000 0.00000000 -0.00000000
    outer loop
      vertex 0.00900000 0.02000000 -0.03500000
      vertex 0.00900000 0.02000000 0.03500000
      vertex 0.00900000 -0.16000000 0.03500000
    endloop
  endfacet
  facet normal 1.00000000 0.00000000 0.00000000
    outer loop
      vertex 0.00900000 -0.16000000 0.03500000
      vertex 0.00900000 -0.16000000 -0.03500000
      vertex 0.00900000 0.02000000 -0.03500000
    endloop
  endfacet
  facet normal -1.00000000 0.00000000 0.00000000
    outer loop
      vertex -0.00900000 -0.16000000 0.03500000
      vertex -0.00900000 0.02000000 0.03500000
      vertex -0.00900000 0.02000000 -0.03500000
    endloop
  endfacet
  facet normal -1.00000000 0.00000000 0.00000000
    outer loop
      vertex -0.00900000 0.02000000 -0.03500000
      vertex -0.00900000 -0.16000000 -0.03500000
      vertex -0.00900000 -0.16000000 0.03500000
    endloop
  endfacet
  facet normal 0.00000000 -0.00000000 -1.00000000
    outer loop
      vertex 0.00900000 0.02000000 0.03500000
      vertex 0.00900000 -0.16000000 0.03500000
      vertex -0.00900000 -0.16000000 0.03500000
    endloop
  endfacet
  facet normal -0.00000000 0.00000000 -1.00000000
    outer loop
      vertex 0.00900000 0.02000000 0.03500000
      vertex -0.00900000 -0.16000000 0.03500000
      vertex -0.00900000 0.02000000 0.03500000
    endloop
  endfacet
  facet normal 0.00000000 1.00000000 0.00000000
    outer loop
      vertex 0.00900000 -0.16000000 0.03500000
      vertex 0.00900000 -0.16000000 -0.03500000
      vertex -0.00900000 -0.16000000 -0.03500000
    endloop
  endfacet
  facet normal 0.00000000 1.00000000 0.00000000
    outer loop
      vertex 0.00900000 -0.16000000 0.03500000
      vertex -0.00900000 -0.16000000 -0.03500000
      vertex -0.00900000 -0.16000000 0.03500000
    endloop
  endfacet
  facet normal 0.00000000 -0.00000000 1.00000000
    outer loop
      vertex 0.00900000 -0.16000000 -0.03500000
      vertex 0.00900000 0.02000000 -0.03500000
      vertex -0.00900000 0.02000000 -0.03500000
    endloop
  endfacet
  facet normal 0.00000000 0.00000000 1.00000000
    outer loop
      vertex 0.00900000 -0.16000000 -0.03500000
      vertex -0.00900000 0.02000000 -0.03500000
      vertex -0.00900000 -0.16000000 -0.03500000
    endloop
  endfacet
  facet normal 0.00000000 -1.00000000 0.00000000
    outer loop
      vertex 0.00900000 0.02000000 -0.03500000
      vertex 0.00900000 0.02000000 0.03500000
      vertex -0.00900000 0.02000000 0.03500000
    endloop
  endfacet
  facet normal 0.00000000 -1.00000000 0.00000000
    outer loop
      vertex 0.00900000 0.02000000 -0.03500000
      vertex -0.00900000 0.02000000 0.03500000
      vertex -0.00900000 0.02000000 -0.03500000
    endloop
  endfacet
endsolid traffic_light_left_arrow
