solid traffic_cone_stripe
  facet normal 0.95851090 0.12619035 0.25560291
    outer loop
      vertex 0.13500000 0.00000000 0.48000000
      vertex 0.13039999 0.03494057 0.48000000
      vertex 0.09176295 0.02458781 0.63000000
    endloop
  endfacet
  facet normal 0.95851090 0.12619035 0.25560291
    outer loop
      vertex 0.13500000 0.00000000 0.48000000
      vertex 0.09176295 0.02458781 0.63000000
      vertex 0.09500000 0.00000000 0.63000000
    endloop
  endfacet
  facet normal 0.00000000 0.00000000 -1.00000000
    outer loop
      vertex 0.00000000 0.00000000 0.48000000
      vertex 0.13039999 0.03494057 0.48000000
      vertex 0.13500000 0.00000000 0.48000000
    endloop
  endfacet
  facet normal 0.00000000 0.00000000 1.00000000
    outer loop
      vertex 0.00000000 0.00000000 0.63000000
      vertex 0.09500000 0.00000000 0.63000000
      vertex 0.09176295 0.02458781 0.63000000
    endloop
  endfacet
  facet normal 0.89318997 0.36997140 0.25560291
    outer loop
      vertex 0.13039999 0.03494057 0.48000000
      vertex 0.11691343 0.06750000 0.48000000
      vertex 0.08227241 0.04750000 0.63000000
    endloop
  endfacet
  facet normal 0.89318997 0.36997140 0.25560291
    outer loop
      vertex 0.13039999 0.03494057 0.48000000
      vertex 0.08227241 0.04750000 0.63000000
      vertex 0.09176295 0.02458781 0.63000000
    endloop
  endfacet
  facet normal 0.00000000 0.00000000 -1.00000000
    outer loop
      vertex 0.00000000 0.00000000 0.48000000
      vertex 0.11691343 0.06750000 0.48000000
      vertex 0.13039999 0.03494057 0.48000000
    endloop
  endfacet
  facet normal 0.00000000 0.00000000 1.00000000
    outer loop
      vertex 0.00000000 0.00000000 0.63000000
      vertex 0.09176295 0.02458781 0.63000000
      vertex 0.08227241 0.04750000 0.63000000
    endloop
  endfacet
  facet normal 0.76699961 0.58853950 0.25560291
    outer loop
      vertex 0.11691343 0.06750000 0.48000000
      vertex 0.09545942 0.09545942 0.48000000
      vertex 0.06717514 0.06717514 0.63000000
    endloop
  endfacet
  facet normal 0.76699961 0.58853950 0.25560291
    outer loop
      vertex 0.11691343 0.06750000 0.48000000
      vertex 0.06717514 0.06717514 0.63000000
      vertex 0.08227241 0.04750000 0.63000000
    endloop
  endfacet
  facet normal 0.00000000 0.00000000 -1.00000000
    outer loop
      vertex 0.00000000 0.00000000 0.48000000
      vertex 0.09545942 0.09545942 0.48000000
      vertex 0.11691343 0.06750000 0.48000000
    endloop
  endfacet
  facet normal 0.00000000 0.00000000 1.00000000
    outer loop
      vertex 0.00000000 0.00000000 0.63000000
      vertex 0.08227241 0.04750000 0.63000000
      vertex 0.06717514 0.06717514 0.63000000
    endloop
  endfacet
  facet normal 0.58853950 0.76699961 0.25560291
    outer loop
      vertex 0.09545942 0.09545942 0.48000000
      vertex 0.06750000 0.11691343 0.48000000
      vertex 0.04750000 0.08227241 0.63000000
    endloop
  endfacet
  facet normal 0.58853950 0.76699961 0.25560291
    outer loop
      vertex 0.09545942 0.09545942 0.48000000
      vertex 0.04750000 0.08227241 0.63000000
      vertex 0.06717514 0.06717514 0.63000000
    endloop
  endfacet
  facet normal 0.00000000 0.00000000 -1.00000000
    outer loop
      vertex 0.00000000 0.00000000 0.48000000
      vertex 0.06750000 0.11691343 0.48000000
      vertex 0.09545942 0.09545942 0.48000000
    endloop
  endfacet
  facet normal 0.00000000 0.00000000 1.00000000
    outer loop
      vertex 0.00000000 0.00000000 0.63000000
      vertex 0.06717514 0.06717514 0.63000000
      vertex 0.04750000 0.08227241 0.63000000
    endloop
  endfacet
  facet normal 0.36997140 0.89318997 0.25560291
    outer loop
      vertex 0.06750000 0.11691343 0.48000000
      vertex 0.03494057 0.13039999 0.48000000
      vertex 0.02458781 0.09176295 0.63000000
    endloop
  endfacet
  facet normal 0.36997140 0.89318997 0.25560291
    outer loop
      vertex 0.06750000 0.11691343 0.48000000
      vertex 0.02458781 0.09176295 0.63000000
      vertex 0.04750000 0.08227241 0.63000000
    endloop
  endfacet
  facet normal 0.00000000 0.00000000 -1.00000000
    outer loop
      vertex 0.00000000 0.00000000 0.48000000
      vertex 0.03494057 0.13039999 0.48000000
      vertex 0.06750000 0.11691343 0.48000000
    endloop
  endfacet
  facet normal 0.00000000 0.00000000 1.00000000
    outer loop
      vertex 0.00000000 0.00000000 0.63000000
      vertex 0.04750000 0.08227241 0.63000000
      vertex 0.02458781 0.09176295 0.63000000
    endloop
  endfacet
  facet normal 0.12619035 0.95851090 0.25560291
    outer loop
      vertex 0.03494057 0.13039999 0.48000000
      vertex 0.00000000 0.13500000 0.48000000
      vertex 0.00000000 0.09500000 0.63000000
    endloop
  endfacet
  facet normal 0.12619035 0.95851090 0.25560291
    outer loop
      vertex 0.03494057 0.13039999 0.48000000
      vertex 0.00000000 0.09500000 0.63000000
      vertex 0.02458781 0.09176295 0.63000000
    endloop
  endfacet
  facet normal 0.00000000 0.00000000 -1.00000000
    outer loop
      vertex 0.00000000 0.00000000 0.48000000
      vertex 0.00000000 0.13500000 0.48000000
      vertex 0.03494057 0.13039999 0.48000000
    endloop
  endfacet
  facet normal 0.00000000 0.00000000 1.00000000
    outer loop
      vertex 0.00000000 0.00000000 0.63000000
      vertex 0.02458781 0.09176295 0.63000000
      vertex 0.00000000 0.09500000 0.63000000
    endloop
  endfacet
  facet normal -0.12619035 0.95851090 0.25560291
    outer loop
      vertex 0.00000000 0.13500000 0.48000000
      vertex -0.03494057 0.13039999 0.48000000
      vertex -0.02458781 0.09176295 0.63000000
    endloop
  endfacet
  facet normal -0.12619035 0.95851090 0.25560291
    outer loop
      vertex 0.00000000 0.13500000 0.48000000
      vertex -0.02458781 0.09176295 0.63000000
      vertex 0.00000000 0.09500000 0.63000000
    endloop
  endfacet
  facet normal 0.00000000 0.00000000 -1.00000000
    outer loop
      vertex 0.00000000 0.00000000 0.48000000
      vertex -0.03494057 0.13039999 0.48000000
      vertex 0.00000000 0.13500000 0.48000000
    endloop
  endfacet
  facet normal 0.00000000 -0.00000000 1.00000000
    outer loop
      vertex 0.00000000 0.00000000 0.63000000
      vertex 0.00000000 0.09500000 0.63000000
      vertex -0.02458781 0.09176295 0.63000000
    endloop
  endfacet
  facet normal -0.36997140 0.89318997 0.25560291
    outer loop
      vertex -0.03494057 0.13039999 0.48000000
      vertex -0.06750000 0.11691343 0.48000000
      vertex -0.04750000 0.08227241 0.63000000
    endloop
  endfacet
  facet normal -0.36997140 0.89318997 0.25560291
    outer loop
      vertex -0.03494057 0.13039999 0.48000000
      vertex -0.04750000 0.08227241 0.63000000
      vertex -0.02458781 0.09176295 0.63000000
    endloop
  endfacet
  facet normal 0.00000000 0.00000000 -1.00000000
    outer loop
      vertex 0.00000000 0.00000000 0.48000000
      vertex -0.06750000 0.11691343 0.48000000
      vertex -0.03494057 0.13039999 0.48000000
    endloop
  endfacet
  facet normal 0.00000000 0.00000000 1.00000000
    outer loop
      vertex 0.00000000 0.00000000 0.63000000
      vertex -0.02458781 0.09176295 0.63000000
      vertex -0.04750000 0.08227241 0.63000000
    endloop
  endfacet
  facet normal -0.58853950 0.76699961 0.25560291
    outer loop
      vertex -0.06750000 0.11691343 0.48000000
      vertex -0.09545942 0.09545942 0.48000000
      vertex -0.06717514 0.06717514 0.63000000
    endloop
  endfacet
  facet normal -0.58853950 0.76699961 0.25560291
    outer loop
      vertex -0.06750000 0.11691343 0.48000000
      vertex -0.06717514 0.06717514 0.63000000
      vertex -0.04750000 0.08227241 0.63000000
    endloop
  endfacet
  facet normal 0.00000000 0.00000000 -1.00000000
    outer loop
      vertex 0.00000000 0.00000000 0.48000000
      vertex -0.09545942 0.09545942 0.48000000
      vertex -0.06750000 0.11691343 0.48000000
    endloop
  endfacet
  facet normal 0.00000000 0.00000000 1.00000000
    outer loop
      vertex 0.00000000 0.00000000 0.63000000
      vertex -0.04750000 0.08227241 0.63000000
      vertex -0.06717514 0.06717514 0.63000000
    endloop
  endfacet
  facet normal -0.76699961 0.58853950 0.25560291
    outer loop
      vertex -0.09545942 0.09545942 0.48000000
      vertex -0.11691343 0.06750000 0.48000000
      vertex -0.08227241 0.04750000 0.63000000
    endloop
  endfacet
  facet normal -0.76699961 0.58853950 0.25560291
    outer loop
      vertex -0.09545942 0.09545942 0.48000000
      vertex -0.08227241 0.04750000 0.63000000
      vertex -0.06717514 0.06717514 0.63000000
    endloop
  endfacet
  facet normal 0.00000000 0.00000000 -1.00000000
    outer loop
      vertex 0.00000000 0.00000000 0.48000000
      vertex -0.11691343 0.06750000 0.48000000
      vertex -0.09545942 0.09545942 0.48000000
    endloop
  endfacet
  facet normal 0.00000000 0.00000000 1.00000000
    outer loop
      vertex 0.00000000 0.00000000 0.63000000
      vertex -0.06717514 0.06717514 0.63000000
      vertex -0.08227241 0.04750000 0.63000000
    endloop
  endfacet
  facet normal -0.89318997 0.36997140 0.25560291
    outer loop
      vertex -0.11691343 0.06750000 0.48000000
      vertex -0.13039999 0.03494057 0.48000000
      vertex -0.09176295 0.02458781 0.63000000
    endloop
  endfacet
  facet normal -0.89318997 0.36997140 0.25560291
    outer loop
      vertex -0.11691343 0.06750000 0.48000000
      vertex -0.09176295 0.02458781 0.63000000
      vertex -0.08227241 0.04750000 0.63000000
    endloop
  endfacet
  facet normal 0.00000000 0.00000000 -1.00000000
    outer loop
      vertex 0.00000000 0.00000000 0.48000000
      vertex -0.13039999 0.03494057 0.48000000
      vertex -0.11691343 0.06750000 0.48000000
    endloop
  endfacet
  facet normal 0.00000000 0.00000000 1.00000000
    outer loop
      vertex 0.00000000 0.00000000 0.63000000
      vertex -0.08227241 0.04750000 0.63000000
      vertex -0.09176295 0.02458781 0.63000000
    endloop
  endfacet
  facet normal -0.95851090 0.12619035 0.25560291
    outer loop
      vertex -0.13039999 0.03494057 0.48000000
      vertex -0.13500000 0.00000000 0.48000000
      vertex -0.09500000 0.00000000 0.63000000
    endloop
  endfacet
  facet normal -0.95851090 0.12619035 0.25560291
    outer loop
      vertex -0.13039999 0.03494057 0.48000000
      vertex -0.09500000 0.00000000 0.63000000
      vertex -0.09176295 0.02458781 0.63000000
    endloop
  endfacet
  facet normal 0.00000000 0.00000000 -1.00000000
    outer loop
      vertex 0.00000000 0.00000000 0.48000000
      vertex -0.13500000 0.00000000 0.48000000
      vertex -0.13039999 0.03494057 0.48000000
    endloop
  endfacet
  facet normal 0.00000000 0.00000000 1.00000000
    outer loop
      vertex 0.00000000 0.00000000 0.63000000
      vertex -0.09176295 0.02458781 0.63000000
      vertex -0.09500000 0.00000000 0.63000000
    endloop
  endfacet
  facet normal -0.95851090 -0.12619035 0.25560291
    outer loop
      vertex -0.13500000 0.00000000 0.48000000
      vertex -0.13039999 -0.03494057 0.48000000
      vertex -0.09176295 -0.02458781 0.63000000
    endloop
  endfacet
  facet normal -0.95851090 -0.12619035 0.25560291
    outer loop
      vertex -0.13500000 0.00000000 0.48000000
      vertex -0.09176295 -0.02458781 0.63000000
      vertex -0.09500000 0.00000000 0.63000000
    endloop
  endfacet
  facet normal -0.00000000 0.00000000 -1.00000000
    outer loop
      vertex 0.00000000 0.00000000 0.48000000
      vertex -0.13039999 -0.03494057 0.48000000
      vertex -0.13500000 0.00000000 0.48000000
    endloop
  endfacet
  facet normal 0.00000000 0.00000000 1.00000000
    outer loop
      vertex 0.00000000 0.00000000 0.63000000
      vertex -0.09500000 0.00000000 0.63000000
      vertex -0.09176295 -0.02458781 0.63000000
    endloop
  endfacet
  facet normal -0.89318997 -0.36997140 0.25560291
    outer loop
      vertex -0.13039999 -0.03494057 0.48000000
      vertex -0.11691343 -0.06750000 0.48000000
      vertex -0.08227241 -0.04750000 0.63000000
    endloop
  endfacet
  facet normal -0.89318997 -0.36997140 0.25560291
    outer loop
      vertex -0.13039999 -0.03494057 0.48000000
      vertex -0.08227241 -0.04750000 0.63000000
      vertex -0.09176295 -0.02458781 0.63000000
    endloop
  endfacet
  facet normal 0.00000000 0.00000000 -1.00000000
    outer loop
      vertex 0.00000000 0.00000000 0.48000000
      vertex -0.11691343 -0.06750000 0.48000000
      vertex -0.13039999 -0.03494057 0.48000000
    endloop
  endfacet
  facet normal 0.00000000 0.00000000 1.00000000
    outer loop
      vertex 0.00000000 0.00000000 0.63000000
      vertex -0.09176295 -0.02458781 0.63000000
      vertex -0.08227241 -0.04750000 0.63000000
    endloop
  endfacet
  facet normal -0.76699961 -0.58853950 0.25560291
    outer loop
      vertex -0.11691343 -0.06750000 0.48000000
      vertex -0.09545942 -0.09545942 0.48000000
      vertex -0.06717514 -0.06717514 0.63000000
    endloop
  endfacet
  facet normal -0.76699961 -0.58853950 0.25560291
    outer loop
      vertex -0.11691343 -0.06750000 0.48000000
      vertex -0.06717514 -0.06717514 0.63000000
      vertex -0.08227241 -0.04750000 0.63000000
    endloop
  endfacet
  facet normal 0.00000000 0.00000000 -1.00000000
    outer loop
      vertex 0.00000000 0.00000000 0.48000000
      vertex -0.09545942 -0.09545942 0.48000000
      vertex -0.11691343 -0.06750000 0.48000000
    endloop
  endfacet
  facet normal 0.00000000 0.00000000 1.00000000
    outer loop
      vertex 0.00000000 0.00000000 0.63000000
      vertex -0.08227241 -0.04750000 0.63000000
      vertex -0.06717514 -0.06717514 0.63000000
    endloop
  endfacet
  facet normal -0.58853950 -0.76699961 0.25560291
    outer loop
      vertex -0.09545942 -0.09545942 0.48000000
      vertex -0.06750000 -0.11691343 0.48000000
      vertex -0.04750000 -0.08227241 0.63000000
    endloop
  endfacet
  facet normal -0.58853950 -0.76699961 0.25560291
    outer loop
      vertex -0.09545942 -0.09545942 0.48000000
      vertex -0.04750000 -0.08227241 0.63000000
      vertex -0.06717514 -0.06717514 0.63000000
    endloop
  endfacet
  facet normal 0.00000000 0.00000000 -1.00000000
    outer loop
      vertex 0.00000000 0.00000000 0.48000000
      vertex -0.06750000 -0.11691343 0.48000000
      vertex -0.09545942 -0.09545942 0.48000000
    endloop
  endfacet
  facet normal 0.00000000 0.00000000 1.00000000
    outer loop
      vertex 0.00000000 0.00000000 0.63000000
      vertex -0.06717514 -0.06717514 0.63000000
      vertex -0.04750000 -0.08227241 0.63000000
    endloop
  endfacet
  facet normal -0.36997140 -0.89318997 0.25560291
    outer loop
      vertex -0.06750000 -0.11691343 0.48000000
      vertex -0.03494057 -0.13039999 0.48000000
      vertex -0.02458781 -0.09176295 0.63000000
    endloop
  endfacet
  facet normal -0.36997140 -0.89318997 0.25560291
    outer loop
      vertex -0.06750000 -0.11691343 0.48000000
      vertex -0.02458781 -0.09176295 0.63000000
      vertex -0.04750000 -0.08227241 0.63000000
    endloop
  endfacet
  facet normal 0.00000000 0.00000000 -1.00000000
    outer loop
      vertex 0.00000000 0.00000000 0.48000000
      vertex -0.03494057 -0.13039999 0.48000000
      vertex -0.06750000 -0.11691343 0.48000000
    endloop
  endfacet
  facet normal 0.00000000 0.00000000 1.00000000
    outer loop
      vertex 0.00000000 0.00000000 0.63000000
      vertex -0.04750000 -0.08227241 0.63000000
      vertex -0.02458781 -0.09176295 0.63000000
    endloop
  endfacet
  facet normal -0.12619035 -0.95851090 0.25560291
    outer loop
      vertex -0.03494057 -0.13039999 0.48000000
      vertex -0.00000000 -0.13500000 0.48000000
      vertex -0.00000000 -0.09500000 0.63000000
    endloop
  endfacet
  facet normal -0.12619035 -0.95851090 0.25560291
    outer loop
      vertex -0.03494057 -0.13039999 0.48000000
      vertex -0.00000000 -0.09500000 0.63000000
      vertex -0.02458781 -0.09176295 0.63000000
    endloop
  endfacet
  facet normal 0.00000000 0.00000000 -1.00000000
    outer loop
      vertex 0.00000000 0.00000000 0.48000000
      vertex -0.00000000 -0.13500000 0.48000000
      vertex -0.03494057 -0.13039999 0.48000000
    endloop
  endfacet
  facet normal 0.00000000 0.00000000 1.00000000
    outer loop
      vertex 0.00000000 0.00000000 0.63000000
      vertex -0.02458781 -0.09176295 0.63000000
      vertex -0.00000000 -0.09500000 0.63000000
    endloop
  endfacet
  facet normal 0.12619035 -0.95851090 0.25560291
    outer loop
      vertex -0.00000000 -0.13500000 0.48000000
      vertex 0.03494057 -0.13039999 0.48000000
      vertex 0.02458781 -0.09176295 0.63000000
    endloop
  endfacet
  facet normal 0.12619035 -0.95851090 0.25560291
    outer loop
      vertex -0.00000000 -0.13500000 0.48000000
      vertex 0.02458781 -0.09176295 0.63000000
      vertex -0.00000000 -0.09500000 0.63000000
    endloop
  endfacet
  facet normal 0.00000000 -0.00000000 -1.00000000
    outer loop
      vertex 0.00000000 0.00000000 0.48000000
      vertex 0.03494057 -0.13039999 0.48000000
      vertex -0.00000000 -0.13500000 0.48000000
    endloop
  endfacet
  facet normal 0.00000000 0.00000000 1.00000000
    outer loop
      vertex 0.00000000 0.00000000 0.63000000
      vertex -0.00000000 -0.09500000 0.63000000
      vertex 0.02458781 -0.09176295 0.63000000
    endloop
  endfacet
  facet normal 0.36997140 -0.89318997 0.25560291
    outer loop
      vertex 0.03494057 -0.13039999 0.48000000
      vertex 0.06750000 -0.11691343 0.48000000
      vertex 0.04750000 -0.08227241 0.63000000
    endloop
  endfacet
  facet normal 0.36997140 -0.89318997 0.25560291
    outer loop
      vertex 0.03494057 -0.13039999 0.48000000
      vertex 0.04750000 -0.08227241 0.63000000
      vertex 0.02458781 -0.09176295 0.63000000
    endloop
  endfacet
  facet normal 0.00000000 0.00000000 -1.00000000
    outer loop
      vertex 0.00000000 0.00000000 0.48000000
      vertex 0.06750000 -0.11691343 0.48000000
      vertex 0.03494057 -0.13039999 0.48000000
    endloop
  endfacet
  facet normal 0.00000000 0.00000000 1.00000000
    outer loop
      vertex 0.00000000 0.00000000 0.63000000
      vertex 0.02458781 -0.09176295 0.63000000
      vertex 0.04750000 -0.08227241 0.63000000
    endloop
  endfacet
  facet normal 0.58853950 -0.76699961 0.25560291
    outer loop
      vertex 0.06750000 -0.11691343 0.48000000
      vertex 0.09545942 -0.09545942 0.48000000
      vertex 0.06717514 -0.06717514 0.63000000
    endloop
  endfacet
  facet normal 0.58853950 -0.76699961 0.25560291
    outer loop
      vertex 0.06750000 -0.11691343 0.48000000
      vertex 0.06717514 -0.06717514 0.63000000
      vertex 0.04750000 -0.08227241 0.63000000
    endloop
  endfacet
  facet normal 0.00000000 0.00000000 -1.00000000
    outer loop
      vertex 0.00000000 0.00000000 0.48000000
      vertex 0.09545942 -0.09545942 0.48000000
      vertex 0.06750000 -0.11691343 0.48000000
    endloop
  endfacet
  facet normal 0.00000000 0.00000000 1.00000000
    outer loop
      vertex 0.00000000 0.00000000 0.63000000
      vertex 0.04750000 -0.08227241 0.63000000
      vertex 0.06717514 -0.06717514 0.63000000
    endloop
  endfacet
  facet normal 0.76699961 -0.58853950 0.25560291
    outer loop
      vertex 0.09545942 -0.09545942 0.48000000
      vertex 0.11691343 -0.06750000 0.48000000
      vertex 0.08227241 -0.04750000 0.63000000
    endloop
  endfacet
  facet normal 0.76699961 -0.58853950 0.25560291
    outer loop
      vertex 0.09545942 -0.09545942 0.48000000
      vertex 0.08227241 -0.04750000 0.63000000
      vertex 0.06717514 -0.06717514 0.63000000
    endloop
  endfacet
  facet normal 0.00000000 0.00000000 -1.00000000
    outer loop
      vertex 0.00000000 0.00000000 0.48000000
      vertex 0.11691343 -0.06750000 0.48000000
      vertex 0.09545942 -0.09545942 0.48000000
    endloop
  endfacet
  facet normal 0.00000000 0.00000000 1.00000000
    outer loop
      vertex 0.00000000 0.00000000 0.63000000
      vertex 0.06717514 -0.06717514 0.63000000
      vertex 0.08227241 -0.04750000 0.63000000
    endloop
  endfacet
  facet normal 0.89318997 -0.36997140 0.25560291
    outer loop
      vertex 0.11691343 -0.06750000 0.48000000
      vertex 0.13039999 -0.03494057 0.48000000
      vertex 0.09176295 -0.02458781 0.63000000
    endloop
  endfacet
  facet normal 0.89318997 -0.36997140 0.25560291
    outer loop
      vertex 0.11691343 -0.06750000 0.48000000
      vertex 0.09176295 -0.02458781 0.63000000
      vertex 0.08227241 -0.04750000 0.63000000
    endloop
  endfacet
  facet normal 0.00000000 0.00000000 -1.00000000
    outer loop
      vertex 0.00000000 0.00000000 0.48000000
      vertex 0.13039999 -0.03494057 0.48000000
      vertex 0.11691343 -0.06750000 0.48000000
    endloop
  endfacet
  facet normal 0.00000000 0.00000000 1.00000000
    outer loop
      vertex 0.00000000 0.00000000 0.63000000
      vertex 0.08227241 -0.04750000 0.63000000
      vertex 0.09176295 -0.02458781 0.63000000
    endloop
  endfacet
  facet normal 0.95851090 -0.12619035 0.25560291
    outer loop
      vertex 0.13039999 -0.03494057 0.48000000
      vertex 0.13500000 0.00000000 0.48000000
      vertex 0.09500000 0.00000000 0.63000000
    endloop
  endfacet
  facet normal 0.95851090 -0.12619035 0.25560291
    outer loop
      vertex 0.13039999 -0.03494057 0.48000000
      vertex 0.09500000 0.00000000 0.63000000
      vertex 0.09176295 -0.02458781 0.63000000
    endloop
  endfacet
  facet normal 0.00000000 0.00000000 -1.00000000
    outer loop
      vertex 0.00000000 0.00000000 0.48000000
      vertex 0.13500000 0.00000000 0.48000000
      vertex 0.13039999 -0.03494057 0.48000000
    endloop
  endfacet
  facet normal -0.00000000 0.00000000 1.00000000
    outer loop
      vertex 0.00000000 0.00000000 0.63000000
      vertex 0.09176295 -0.02458781 0.63000000
      vertex 0.09500000 0.00000000 0.63000000
    endloop
  endfacet
endsolid traffic_cone_stripe
