solid traffic_cone_upper
  facet normal 0.97201020 0.12796757 0.19702910
    outer loop
      vertex 0.09500000 0.00000000 0.63000000
      vertex 0.09176295 0.02458781 0.63000000
      vertex 0.01931852 0.00517638 1.00000000
    endloop
  endfacet
  facet normal 0.97201020 0.12796757 0.19702910
    outer loop
      vertex 0.09500000 0.00000000 0.63000000
      vertex 0.01931852 0.00517638 1.00000000
      vertex 0.02000000 0.00000000 1.00000000
    endloop
  endfacet
  facet normal 0.00000000 0.00000000 -1.00000000
    outer loop
      vertex 0.00000000 0.00000000 0.63000000
      vertex 0.09176295 0.02458781 0.63000000
      vertex 0.09500000 0.00000000 0.63000000
    endloop
  endfacet
  facet normal 0.00000000 0.00000000 1.00000000
    outer loop
      vertex 0.00000000 0.00000000 1.00000000
      vertex 0.02000000 0.00000000 1.00000000
      vertex 0.01931852 0.00517638 1.00000000
    endloop
  endfacet
  facet normal 0.90576931 0.37518193 0.19702910
    outer loop
      vertex 0.09176295 0.02458781 0.63000000
      vertex 0.08227241 0.04750000 0.63000000
      vertex 0.01732051 0.01000000 1.00000000
    endloop
  endfacet
  facet normal 0.90576931 0.37518193 0.19702910
    outer loop
      vertex 0.09176295 0.02458781 0.63000000
      vertex 0.01732051 0.01000000 1.00000000
      vertex 0.01931852 0.00517638 1.00000000
    endloop
  endfacet
  facet normal 0.00000000 0.00000000 -1.00000000
    outer loop
      vertex 0.00000000 0.00000000 0.63000000
      vertex 0.08227241 0.04750000 0.63000000
      vertex 0.09176295 0.02458781 0.63000000
    endloop
  endfacet
  facet normal 0.00000000 0.00000000 1.00000000
    outer loop
      vertex 0.00000000 0.00000000 1.00000000
      vertex 0.01931852 0.00517638 1.00000000
      vertex 0.01732051 0.01000000 1.00000000
    endloop
  endfacet
  facet normal 0.77780174 0.59682827 0.19702910
    outer loop
      vertex 0.08227241 0.04750000 0.63000000
      vertex 0.06717514 0.06717514 0.63000000
      vertex 0.01414214 0.01414214 1.00000000
    endloop
  endfacet
  facet normal 0.77780174 0.59682827 0.19702910
    outer loop
      vertex 0.08227241 0.04750000 0.63000000
      vertex 0.01414214 0.01414214 1.00000000
      vertex 0.01732051 0.01000000 1.00000000
    endloop
  endfacet
  facet normal 0.00000000 0.00000000 -1.00000000
    outer loop
      vertex 0.00000000 0.00000000 0.63000000
      vertex 0.06717514 0.06717514 0.63000000
      vertex 0.08227241 0.04750000 0.63000000
    endloop
  endfacet
  facet normal 0.00000000 0.00000000 1.00000000
    outer loop
      vertex 0.00000000 0.00000000 1.00000000
      vertex 0.01732051 0.01000000 1.00000000
      vertex 0.01414214 0.01414214 1.00000000
    endloop
  endfacet
  facet normal 0.59682827 0.77780174 0.19702910
    outer loop
      vertex 0.06717514 0.06717514 0.63000000
      vertex 0.04750000 0.08227241 0.63000000
      vertex 0.01000000 0.01732051 1.00000000
    endloop
  endfacet
  facet normal 0.59682827 0.77780174 0.19702910
    outer loop
      vertex 0.06717514 0.06717514 0.63000000
      vertex 0.01000000 0.01732051 1.00000000
      vertex 0.01414214 0.01414214 1.00000000
    endloop
  endfacet
  facet normal 0.00000000 0.00000000 -1.00000000
    outer loop
      vertex 0.00000000 0.00000000 0.63000000
      vertex 0.04750000 0.08227241 0.63000000
      vertex 0.06717514 0.06717514 0.63000000
    endloop
  endfacet
  facet normal 0.00000000 0.00000000 1.00000000
    outer loop
      vertex 0.00000000 0.00000000 1.00000000
      vertex 0.01414214 0.01414214 1.00000000
      vertex 0.01000000 0.01732051 1.00000000
    endloop
  endfacet
  facet normal 0.37518193 0.90576931 0.19702910
    outer loop
      vertex 0.04750000 0.08227241 0.63000000
      vertex 0.02458781 0.09176295 0.63000000
      vertex 0.00517638 0.01931852 1.00000000
    endloop
  endfacet
  facet normal 0.37518193 0.90576931 0.19702910
    outer loop
      vertex 0.04750000 0.08227241 0.63000000
      vertex 0.00517638 0.01931852 1.00000000
      vertex 0.01000000 0.01732051 1.00000000
    endloop
  endfacet
  facet normal 0.00000000 0.00000000 -1.00000000
    outer loop
      vertex 0.00000000 0.00000000 0.63000000
      vertex 0.02458781 0.09176295 0.63000000
      vertex 0.04750000 0.08227241 0.63000000
    endloop
  endfacet
  facet normal 0.00000000 0.00000000 1.00000000
    outer loop
      vertex 0.00000000 0.00000000 1.00000000
      vertex 0.01000000 0.01732051 1.00000000
      vertex 0.00517638 0.01931852 1.00000000
    endloop
  endfacet
  facet normal 0.12796757 0.97201020 0.19702910
    outer loop
      vertex 0.02458781 0.09176295 0.63000000
      vertex 0.00000000 0.09500000 0.63000000
      vertex 0.00000000 0.02000000 1.00000000
    endloop
  endfacet
  facet normal 0.12796757 0.97201020 0.19702910
    outer loop
      vertex 0.02458781 0.09176295 0.63000000
      vertex 0.00000000 0.02000000 1.00000000
      vertex 0.00517638 0.01931852 1.00000000
    endloop
  endfacet
  facet normal 0.00000000 0.00000000 -1.00000000
    outer loop
      vertex 0.00000000 0.00000000 0.63000000
      vertex 0.00000000 0.09500000 0.63000000
      vertex 0.02458781 0.09176295 0.63000000
    endloop
  endfacet
  facet normal 0.00000000 0.00000000 1.00000000
    outer loop
      vertex 0.00000000 0.00000000 1.00000000
      vertex 0.00517638 0.01931852 1.00000000
      vertex 0.00000000 0.02000000 1.00000000
    endloop
  endfacet
  facet normal -0.12796757 0.97201020 0.19702910
    outer loop
      vertex 0.00000000 0.09500000 0.63000000
      vertex -0.02458781 0.09176295 0.63000000
      vertex -0.00517638 0.01931852 1.00000000
    endloop
  endfacet
  facet normal -0.12796757 0.97201020 0.19702910
    outer loop
      vertex 0.00000000 0.09500000 0.63000000
      vertex -0.00517638 0.01931852 1.00000000
      vertex 0.00000000 0.02000000 1.00000000
    endloop
  endfacet
  facet normal 0.00000000 0.00000000 -1.00000000
    outer loop
      vertex 0.00000000 0.00000000 0.63000000
      vertex -0.02458781 0.09176295 0.63000000
      vertex 0.00000000 0.09500000 0.63000000
    endloop
  endfacet
  facet normal 0.00000000 -0.00000000 1.00000000
    outer loop
      vertex 0.00000000 0.00000000 1.00000000
      vertex 0.00000000 0.02000000 1.00000000
      vertex -0.00517638 0.01931852 1.00000000
    endloop
  endfacet
  facet normal -0.37518193 0.90576931 0.19702910
    outer loop
      vertex -0.02458781 0.09176295 0.63000000
      vertex -0.04750000 0.08227241 0.63000000
      vertex -0.01000000 0.01732051 1.00000000
    endloop
  endfacet
  facet normal -0.37518193 0.90576931 0.19702910
    outer loop
      vertex -0.02458781 0.09176295 0.63000000
      vertex -0.01000000 0.01732051 1.00000000
      vertex -0.00517638 0.01931852 1.00000000
    endloop
  endfacet
  facet normal 0.00000000 0.00000000 -1.00000000
    outer loop
      vertex 0.00000000 0.00000000 0.63000000
      vertex -0.04750000 0.08227241 0.63000000
      vertex -0.02458781 0.09176295 0.63000000
    endloop
  endfacet
  facet normal 0.00000000 0.00000000 1.00000000
    outer loop
      vertex 0.00000000 0.00000000 1.00000000
      vertex -0.00517638 0.01931852 1.00000000
      vertex -0.01000000 0.01732051 1.00000000
    endloop
  endfacet
  facet normal -0.59682827 0.77780174 0.19702910
    outer loop
      vertex -0.04750000 0.08227241 0.63000000
      vertex -0.06717514 0.06717514 0.63000000
      vertex -0.01414214 0.01414214 1.00000000
    endloop
  endfacet
  facet normal -0.59682827 0.77780174 0.19702910
    outer loop
      vertex -0.04750000 0.08227241 0.63000000
      vertex -0.01414214 0.01414214 1.00000000
      vertex -0.01000000 0.01732051 1.00000000
    endloop
  endfacet
  facet normal 0.00000000 0.00000000 -1.00000000
    outer loop
      vertex 0.00000000 0.00000000 0.63000000
      vertex -0.06717514 0.06717514 0.63000000
      vertex -0.04750000 0.08227241 0.63000000
    endloop
  endfacet
  facet normal 0.00000000 0.00000000 1.00000000
    outer loop
      vertex 0.00000000 0.00000000 1.00000000
      vertex -0.01000000 0.01732051 1.00000000
      vertex -0.01414214 0.01414214 1.00000000
    endloop
  endfacet
  facet normal -0.77780174 0.59682827 0.19702910
    outer loop
      vertex -0.06717514 0.06717514 0.63000000
      vertex -0.08227241 0.04750000 0.63000000
      vertex -0.01732051 0.01000000 1.00000000
    endloop
  endfacet
  facet normal -0.77780174 0.59682827 0.19702910
    outer loop
      vertex -0.06717514 0.06717514 0.63000000
      vertex -0.01732051 0.01000000 1.00000000
      vertex -0.01414214 0.01414214 1.00000000
    endloop
  endfacet
  facet normal 0.00000000 0.00000000 -1.00000000
    outer loop
      vertex 0.00000000 0.00000000 0.63000000
      vertex -0.08227241 0.04750000 0.63000000
      vertex -0.06717514 0.06717514 0.63000000
    endloop
  endfacet
  facet normal 0.00000000 0.00000000 1.00000000
    outer loop
      vertex 0.00000000 0.00000000 1.00000000
      vertex -0.01414214 0.01414214 1.00000000
      vertex -0.01732051 0.01000000 1.00000000
    endloop
  endfacet
  facet normal -0.90576931 0.37518193 0.19702910
    outer loop
      vertex -0.08227241 0.04750000 0.63000000
      vertex -0.09176295 0.02458781 0.63000000
      vertex -0.01931852 0.00517638 1.00000000
    endloop
  endfacet
  facet normal -0.90576931 0.37518193 0.19702910
    outer loop
      vertex -0.08227241 0.04750000 0.63000000
      vertex -0.01931852 0.00517638 1.00000000
      vertex -0.01732051 0.01000000 1.00000000
    endloop
  endfacet
  facet normal 0.00000000 0.00000000 -1.00000000
    outer loop
      vertex 0.00000000 0.00000000 0.63000000
      vertex -0.09176295 0.02458781 0.63000000
      vertex -0.08227241 0.04750000 0.63000000
    endloop
  endfacet
  facet normal 0.00000000 0.00000000 1.00000000
    outer loop
      vertex 0.00000000 0.00000000 1.00000000
      vertex -0.01732051 0.01000000 1.00000000
      vertex -0.01931852 0.00517638 1.00000000
    endloop
  endfacet
  facet normal -0.97201020 0.12796757 0.19702910
    outer loop
      vertex -0.09176295 0.02458781 0.63000000
      vertex -0.09500000 0.00000000 0.63000000
      vertex -0.02000000 0.00000000 1.00000000
    endloop
  endfacet
  facet normal -0.97201020 0.12796757 0.19702910
    outer loop
      vertex -0.09176295 0.02458781 0.63000000
      vertex -0.02000000 0.00000000 1.00000000
      vertex -0.01931852 0.00517638 1.00000000
    endloop
  endfacet
  facet normal 0.00000000 0.00000000 -1.00000000
    outer loop
      vertex 0.00000000 0.00000000 0.63000000
      vertex -0.09500000 0.00000000 0.63000000
      vertex -0.09176295 0.02458781 0.63000000
    endloop
  endfacet
  facet normal 0.00000000 0.00000000 1.00000000
    outer loop
      vertex 0.00000000 0.00000000 1.00000000
      vertex -0.01931852 0.00517638 1.00000000
      vertex -0.02000000 0.00000000 1.00000000
    endloop
  endfacet
  facet normal -0.97201020 -0.12796757 0.19702910
    outer loop
      vertex -0.09500000 0.00000000 0.63000000
      vertex -0.09176295 -0.02458781 0.63000000
      vertex -0.01931852 -0.00517638 1.00000000
    endloop
  endfacet
  facet normal -0.97201020 -0.12796757 0.19702910
    outer loop
      vertex -0.09500000 0.00000000 0.63000000
      vertex -0.01931852 -0.00517638 1.00000000
      vertex -0.02000000 0.00000000 1.00000000
    endloop
  endfacet
  facet normal -0.00000000 0.00000000 -1.00000000
    outer loop
      vertex 0.00000000 0.00000000 0.63000000
      vertex -0.09176295 -0.02458781 0.63000000
      vertex -0.09500000 0.00000000 0.63000000
    endloop
  endfacet
  facet normal 0.00000000 0.00000000 1.00000000
    outer loop
      vertex 0.00000000 0.00000000 1.00000000
      vertex -0.02000000 0.00000000 1.00000000
      vertex -0.01931852 -0.00517638 1.00000000
    endloop
  endfacet
  facet normal -0.90576931 -0.37518193 0.19702910
    outer loop
      vertex -0.09176295 -0.02458781 0.63000000
      vertex -0.08227241 -0.04750000 0.63000000
      vertex -0.01732051 -0.01000000 1.00000000
    endloop
  endfacet
  facet normal -0.90576931 -0.37518193 0.19702910
    outer loop
      vertex -0.09176295 -0.02458781 0.63000000
      vertex -0.01732051 -0.01000000 1.00000000
      vertex -0.01931852 -0.00517638 1.00000000
    endloop
  endfacet
  facet normal 0.00000000 0.00000000 -1.00000000
    outer loop
      vertex 0.00000000 0.00000000 0.63000000
      vertex -0.08227241 -0.04750000 0.63000000
      vertex -0.09176295 -0.02458781 0.63000000
    endloop
  endfacet
  facet normal 0.00000000 0.00000000 1.00000000
    outer loop
      vertex 0.00000000 0.00000000 1.00000000
      vertex -0.01931852 -0.00517638 1.00000000
      vertex -0.01732051 -0.01000000 1.00000000
    endloop
  endfacet
  facet normal -0.77780174 -0.59682827 0.19702910
    outer loop
      vertex -0.08227241 -0.04750000 0.63000000
      vertex -0.06717514 -0.06717514 0.63000000
      vertex -0.01414214 -0.01414214 1.00000000
    endloop
  endfacet
  facet normal -0.77780174 -0.59682827 0.19702910
    outer loop
      vertex -0.08227241 -0.04750000 0.63000000
      vertex -0.01414214 -0.01414214 1.00000000
      vertex -0.01732051 -0.01000000 1.00000000
    endloop
  endfacet
  facet normal 0.00000000 0.00000000 -1.00000000
    outer loop
      vertex 0.00000000 0.00000000 0.63000000
      vertex -0.06717514 -0.06717514 0.63000000
      vertex -0.08227241 -0.04750000 0.63000000
    endloop
  endfacet
  facet normal 0.00000000 0.00000000 1.00000000
    outer loop
      vertex 0.00000000 0.00000000 1.00000000
      vertex -0.01732051 -0.01000000 1.00000000
      vertex -0.01414214 -0.01414214 1.00000000
    endloop
  endfacet
  facet normal -0.59682827 -0.77780174 0.19702910
    outer loop
      vertex -0.06717514 -0.06717514 0.63000000
      vertex -0.04750000 -0.08227241 0.63000000
      vertex -0.01000000 -0.01732051 1.00000000
    endloop
  endfacet
  facet normal -0.59682827 -0.77780174 0.19702910
    outer loop
      vertex -0.06717514 -0.06717514 0.63000000
      vertex -0.01000000 -0.01732051 1.00000000
      vertex -0.01414214 -0.01414214 1.00000000
    endloop
  endfacet
  facet normal 0.00000000 0.00000000 -1.00000000
    outer loop
      vertex 0.00000000 0.00000000 0.63000000
      vertex -0.04750000 -0.08227241 0.63000000
      vertex -0.06717514 -0.06717514 0.63000000
    endloop
  endfacet
  facet normal 0.00000000 0.00000000 1.00000000
    outer loop
      vertex 0.00000000 0.00000000 1.00000000
      vertex -0.01414214 -0.01414214 1.00000000
      vertex -0.01000000 -0.01732051 1.00000000
    endloop
  endfacet
  facet normal -0.37518193 -0.90576931 0.19702910
    outer loop
      vertex -0.04750000 -0.08227241 0.63000000
      vertex -0.02458781 -0.09176295 0.63000000
      vertex -0.00517638 -0.01931852 1.00000000
    endloop
  endfacet
  facet normal -0.37518193 -0.90576931 0.19702910
    outer loop
      vertex -0.04750000 -0.08227241 0.63000000
      vertex -0.00517638 -0.01931852 1.00000000
      vertex -0.01000000 -0.01732051 1.00000000
    endloop
  endfacet
  facet normal 0.00000000 0.00000000 -1.00000000
    outer loop
      vertex 0.00000000 0.00000000 0.63000000
      vertex -0.02458781 -0.09176295 0.63000000
      vertex -0.04750000 -0.08227241 0.63000000
    endloop
  endfacet
  facet normal 0.00000000 0.00000000 1.00000000
    outer loop
      vertex 0.00000000 0.00000000 1.00000000
      vertex -0.01000000 -0.01732051 1.00000000
      vertex -0.00517638 -0.01931852 1.00000000
    endloop
  endfacet
  facet normal -0.12796757 -0.97201020 0.19702910
    outer loop
      vertex -0.02458781 -0.09176295 0.63000000
      vertex -0.00000000 -0.09500000 0.63000000
      vertex -0.00000000 -0.02000000 1.00000000
    endloop
  endfacet
  facet normal -0.12796757 -0.97201020 0.19702910
    outer loop
      vertex -0.02458781 -0.09176295 0.63000000
      vertex -0.00000000 -0.02000000 1.00000000
      vertex -0.00517638 -0.01931852 1.00000000
    endloop
  endfacet
  facet normal 0.00000000 0.00000000 -1.00000000
    outer loop
      vertex 0.00000000 0.00000000 0.63000000
      vertex -0.00000000 -0.09500000 0.63000000
      vertex -0.02458781 -0.09176295 0.63000000
    endloop
  endfacet
  facet normal 0.00000000 0.00000000 1.00000000
    outer loop
      vertex 0.00000000 0.00000000 1.00000000
      vertex -0.00517638 -0.01931852 1.00000000
      vertex -0.00000000 -0.02000000 1.00000000
    endloop
  endfacet
  facet normal 0.12796757 -0.97201020 0.19702910
    outer loop
      vertex -0.00000000 -0.09500000 0.63000000
      vertex 0.02458781 -0.09176295 0.63000000
      vertex 0.00517638 -0.01931852 1.00000000
    endloop
  endfacet
  facet normal 0.12796757 -0.97201020 0.19702910
    outer loop
      vertex -0.00000000 -0.09500000 0.63000000
      vertex 0.00517638 -0.01931852 1.00000000
      vertex -0.00000000 -0.02000000 1.00000000
    endloop
  endfacet
  facet normal 0.00000000 -0.00000000 -1.00000000
    outer loop
      vertex 0.00000000 0.00000000 0.63000000
      vertex 0.02458781 -0.09176295 0.63000000
      vertex -0.00000000 -0.09500000 0.63000000
    endloop
  endfacet
  facet normal 0.00000000 0.00000000 1.00000000
    outer loop
      vertex 0.00000000 0.00000000 1.00000000
      vertex -0.00000000 -0.02000000 1.00000000
      vertex 0.00517638 -0.01931852 1.00000000
    endloop
  endfacet
  facet normal 0.37518193 -0.90576931 0.19702910
    outer loop
      vertex 0.02458781 -0.09176295 0.63000000
      vertex 0.04750000 -0.08227241 0.63000000
      vertex 0.01000000 -0.01732051 1.00000000
    endloop
  endfacet
  facet normal 0.37518193 -0.90576931 0.19702910
    outer loop
      vertex 0.02458781 -0.09176295 0.63000000
      vertex 0.01000000 -0.01732051 1.00000000
      vertex 0.00517638 -0.01931852 1.00000000
    endloop
  endfacet
  facet normal 0.00000000 0.00000000 -1.00000000
    outer loop
      vertex 0.00000000 0.00000000 0.63000000
      vertex 0.04750000 -0.08227241 0.63000000
      vertex 0.02458781 -0.09176295 0.63000000
    endloop
  endfacet
  facet normal 0.00000000 0.00000000 1.00000000
    outer loop
      vertex 0.00000000 0.00000000 1.00000000
      vertex 0.00517638 -0.01931852 1.00000000
      vertex 0.01000000 -0.01732051 1.00000000
    endloop
  endfacet
  facet normal 0.59682827 -0.77780174 0.19702910
    outer loop
      vertex 0.04750000 -0.08227241 0.63000000
      vertex 0.06717514 -0.06717514 0.63000000
      vertex 0.01414214 -0.01414214 1.00000000
    endloop
  endfacet
  facet normal 0.59682827 -0.77780174 0.19702910
    outer loop
      vertex 0.04750000 -0.08227241 0.63000000
      vertex 0.01414214 -0.01414214 1.00000000
      vertex 0.01000000 -0.01732051 1.00000000
    endloop
  endfacet
  facet normal 0.00000000 0.00000000 -1.00000000
    outer loop
      vertex 0.00000000 0.00000000 0.63000000
      vertex 0.06717514 -0.06717514 0.63000000
      vertex 0.04750000 -0.08227241 0.63000000
    endloop
  endfacet
  facet normal 0.00000000 0.00000000 1.00000000
    outer loop
      vertex 0.00000000 0.00000000 1.00000000
      vertex 0.01000000 -0.01732051 1.00000000
      vertex 0.01414214 -0.01414214 1.00000000
    endloop
  endfacet
  facet normal 0.77780174 -0.59682827 0.19702910
    outer loop
      vertex 0.06717514 -0.06717514 0.63000000
      vertex 0.08227241 -0.04750000 0.63000000
      vertex 0.01732051 -0.01000000 1.00000000
    endloop
  endfacet
  facet normal 0.77780174 -0.59682827 0.19702910
    outer loop
      vertex 0.06717514 -0.06717514 0.63000000
      vertex 0.01732051 -0.01000000 1.00000000
      vertex 0.01414214 -0.01414214 1.00000000
    endloop
  endfacet
  facet normal 0.00000000 0.00000000 -1.00000000
    outer loop
      vertex 0.00000000 0.00000000 0.63000000
      vertex 0.08227241 -0.04750000 0.63000000
      vertex 0.06717514 -0.06717514 0.63000000
    endloop
  endfacet
  facet normal 0.00000000 0.00000000 1.00000000
    outer loop
      vertex 0.00000000 0.00000000 1.00000000
      vertex 0.01414214 -0.01414214 1.00000000
      vertex 0.01732051 -0.01000000 1.00000000
    endloop
  endfacet
  facet normal 0.90576931 -0.37518193 0.19702910
    outer loop
      vertex 0.08227241 -0.04750000 0.63000000
      vertex 0.09176295 -0.02458781 0.63000000
      vertex 0.01931852 -0.00517638 1.00000000
    endloop
  endfacet
  facet normal 0.90576931 -0.37518193 0.19702910
    outer loop
      vertex 0.08227241 -0.04750000 0.63000000
      vertex 0.01931852 -0.00517638 1.00000000
      vertex 0.01732051 -0.01000000 1.00000000
    endloop
  endfacet
  facet normal 0.00000000 0.00000000 -1.00000000
    outer loop
      vertex 0.00000000 0.00000000 0.63000000
      vertex 0.09176295 -0.02458781 0.63000000
      vertex 0.08227241 -0.04750000 0.63000000
    endloop
  endfacet
  facet normal 0.00000000 0.00000000 1.00000000
    outer loop
      vertex 0.00000000 0.00000000 1.00000000
      vertex 0.01732051 -0.01000000 1.00000000
      vertex 0.01931852 -0.00517638 1.00000000
    endloop
  endfacet
  facet normal 0.97201020 -0.12796757 0.19702910
    outer loop
      vertex 0.09176295 -0.02458781 0.63000000
      vertex 0.09500000 0.00000000 0.63000000
      vertex 0.02000000 0.00000000 1.00000000
    endloop
  endfacet
  facet normal 0.97201020 -0.12796757 0.19702910
    outer loop
      vertex 0.09176295 -0.02458781 0.63000000
      vertex 0.02000000 0.00000000 1.00000000
      vertex 0.01931852 -0.00517638 1.00000000
    endloop
  endfacet
  facet normal 0.00000000 0.00000000 -1.00000000
    outer loop
      vertex 0.00000000 0.00000000 0.63000000
      vertex 0.09500000 0.00000000 0.63000000
      vertex 0.09176295 -0.02458781 0.63000000
    endloop
  endfacet
  facet normal -0.00000000 0.00000000 1.00000000
    outer loop
      vertex 0.00000000 0.00000000 1.00000000
      vertex 0.01931852 -0.00517638 1.00000000
      vertex 0.02000000 0.00000000 1.00000000
    endloop
  endfacet
endsolid traffic_cone_upper
