solid traffic_cone_lower
  facet normal 0.96232513 0.12669251 0.24058128
    outer loop
      vertex 0.24000000 0.00000000 0.06000000
      vertex 0.23182220 0.06211657 0.06000000
      vertex 0.13039999 0.03494057 0.48000000
    endloop
  endfacet
  facet normal 0.96232513 0.12669251 0.24058128
    outer loop
      vertex 0.24000000 0.00000000 0.06000000
      vertex 0.13039999 0.03494057 0.48000000
      vertex 0.13500000 0.00000000 0.48000000
    endloop
  endfacet
  facet normal 0.00000000 0.00000000 -1.00000000
    outer loop
      vertex 0.00000000 0.00000000 0.06000000
      vertex 0.23182220 0.06211657 0.06000000
      vertex 0.24000000 0.00000000 0.06000000
    endloop
  endfacet
  facet normal 0.00000000 0.00000000 1.00000000
    outer loop
      vertex 0.00000000 0.00000000 0.48000000
      vertex 0.13500000 0.00000000 0.48000000
      vertex 0.13039999 0.03494057 0.48000000
    endloop
  endfacet
  facet normal 0.89674426 0.37144364 0.24058128
    outer loop
      vertex 0.23182220 0.06211657 0.06000000
      vertex 0.20784610 0.12000000 0.06000000
      vertex 0.11691343 0.06750000 0.48000000
    endloop
  endfacet
  facet normal 0.89674426 0.37144364 0.24058128
    outer loop
      vertex 0.23182220 0.06211657 0.06000000
      vertex 0.11691343 0.06750000 0.48000000
      vertex 0.13039999 0.03494057 0.48000000
    endloop
  endfacet
  facet normal 0.00000000 0.00000000 -1.00000000
    outer loop
      vertex 0.00000000 0.00000000 0.06000000
      vertex 0.20784610 0.12000000 0.06000000
      vertex 0.23182220 0.06211657 0.06000000
    endloop
  endfacet
  facet normal 0.00000000 0.00000000 1.00000000
    outer loop
      vertex 0.00000000 0.00000000 0.48000000
      vertex 0.13039999 0.03494057 0.48000000
      vertex 0.11691343 0.06750000 0.48000000
    endloop
  endfacet
  facet normal 0.77005176 0.59088149 0.24058128
    outer loop
      vertex 0.20784610 0.12000000 0.06000000
      vertex 0.16970563 0.16970563 0.06000000
      vertex 0.09545942 0.09545942 0.48000000
    endloop
  endfacet
  facet normal 0.77005176 0.59088149 0.24058128
    outer loop
      vertex 0.20784610 0.12000000 0.06000000
      vertex 0.09545942 0.09545942 0.48000000
      vertex 0.11691343 0.06750000 0.48000000
    endloop
  endfacet
  facet normal 0.00000000 0.00000000 -1.00000000
    outer loop
      vertex 0.00000000 0.00000000 0.06000000
      vertex 0.16970563 0.16970563 0.06000000
      vertex 0.20784610 0.12000000 0.06000000
    endloop
  endfacet
  facet normal 0.00000000 0.00000000 1.00000000
    outer loop
      vertex 0.00000000 0.00000000 0.48000000
      vertex 0.11691343 0.06750000 0.48000000
      vertex 0.09545942 0.09545942 0.48000000
    endloop
  endfacet
  facet normal 0.59088149 0.77005176 0.24058128
    outer loop
      vertex 0.16970563 0.16970563 0.06000000
      vertex 0.12000000 0.20784610 0.06000000
      vertex 0.06750000 0.11691343 0.48000000
    endloop
  endfacet
  facet normal 0.59088149 0.77005176 0.24058128
    outer loop
      vertex 0.16970563 0.16970563 0.06000000
      vertex 0.06750000 0.11691343 0.48000000
      vertex 0.09545942 0.09545942 0.48000000
    endloop
  endfacet
  facet normal 0.00000000 0.00000000 -1.00000000
    outer loop
      vertex 0.00000000 0.00000000 0.06000000
      vertex 0.12000000 0.20784610 0.06000000
      vertex 0.16970563 0.16970563 0.06000000
    endloop
  endfacet
  facet normal 0.00000000 0.00000000 1.00000000
    outer loop
      vertex 0.00000000 0.00000000 0.48000000
      vertex 0.09545942 0.09545942 0.48000000
      vertex 0.06750000 0.11691343 0.48000000
    endloop
  endfacet
  facet normal 0.37144364 0.89674426 0.24058128
    outer loop
      vertex 0.12000000 0.20784610 0.06000000
      vertex 0.06211657 0.23182220 0.06000000
      vertex 0.03494057 0.13039999 0.48000000
    endloop
  endfacet
  facet normal 0.37144364 0.89674426 0.24058128
    outer loop
      vertex 0.12000000 0.20784610 0.06000000
      vertex 0.03494057 0.13039999 0.48000000
      vertex 0.06750000 0.11691343 0.48000000
    endloop
  endfacet
  facet normal 0.00000000 0.00000000 -1.00000000
    outer loop
      vertex 0.00000000 0.00000000 0.06000000
      vertex 0.06211657 0.23182220 0.06000000
      vertex 0.12000000 0.20784610 0.06000000
    endloop
  endfacet
  facet normal 0.00000000 0.00000000 1.00000000
    outer loop
      vertex 0.00000000 0.00000000 0.48000000
      vertex 0.06750000 0.11691343 0.48000000
      vertex 0.03494057 0.13039999 0.48000000
    endloop
  endfacet
  facet normal 0.12669251 0.96232513 0.24058128
    outer loop
      vertex 0.06211657 0.23182220 0.06000000
      vertex 0.00000000 0.24000000 0.06000000
      vertex 0.00000000 0.13500000 0.48000000
    endloop
  endfacet
  facet normal 0.12669251 0.96232513 0.24058128
    outer loop
      vertex 0.06211657 0.23182220 0.06000000
      vertex 0.00000000 0.13500000 0.48000000
      vertex 0.03494057 0.13039999 0.48000000
    endloop
  endfacet
  facet normal 0.00000000 0.00000000 -1.00000000
    outer loop
      vertex 0.00000000 0.00000000 0.06000000
      vertex 0.00000000 0.24000000 0.06000000
      vertex 0.06211657 0.23182220 0.06000000
    endloop
  endfacet
  facet normal 0.00000000 0.00000000 1.00000000
    outer loop
      vertex 0.00000000 0.00000000 0.48000000
      vertex 0.03494057 0.13039999 0.48000000
      vertex 0.00000000 0.13500000 0.48000000
    endloop
  endfacet
  facet normal -0.12669251 0.96232513 0.24058128
    outer loop
      vertex 0.00000000 0.24000000 0.06000000
      vertex -0.06211657 0.23182220 0.06000000
      vertex -0.03494057 0.13039999 0.48000000
    endloop
  endfacet
  facet normal -0.12669251 0.96232513 0.24058128
    outer loop
      vertex 0.00000000 0.24000000 0.06000000
      vertex -0.03494057 0.13039999 0.48000000
      vertex 0.00000000 0.13500000 0.48000000
    endloop
  endfacet
  facet normal 0.00000000 0.00000000 -1.00000000
    outer loop
      vertex 0.00000000 0.00000000 0.06000000
      vertex -0.06211657 0.23182220 0.06000000
      vertex 0.00000000 0.24000000 0.06000000
    endloop
  endfacet
  facet normal 0.00000000 -0.00000000 1.00000000
    outer loop
      vertex 0.00000000 0.00000000 0.48000000
      vertex 0.00000000 0.13500000 0.48000000
      vertex -0.03494057 0.13039999 0.48000000
    endloop
  endfacet
  facet normal -0.37144364 0.89674426 0.24058128
    outer loop
      vertex -0.06211657 0.23182220 0.06000000
      vertex -0.12000000 0.20784610 0.06000000
      vertex -0.06750000 0.11691343 0.48000000
    endloop
  endfacet
  facet normal -0.37144364 0.89674426 0.24058128
    outer loop
      vertex -0.06211657 0.23182220 0.06000000
      vertex -0.06750000 0.11691343 0.48000000
      vertex -0.03494057 0.13039999 0.48000000
    endloop
  endfacet
  facet normal 0.00000000 0.00000000 -1.00000000
    outer loop
      vertex 0.00000000 0.00000000 0.06000000
      vertex -0.12000000 0.20784610 0.06000000
      vertex -0.06211657 0.23182220 0.06000000
    endloop
  endfacet
  facet normal 0.00000000 0.00000000 1.00000000
    outer loop
      vertex 0.00000000 0.00000000 0.48000000
      vertex -0.03494057 0.13039999 0.48000000
      vertex -0.06750000 0.11691343 0.48000000
    endloop
  endfacet
  facet normal -0.59088149 0.77005176 0.24058128
    outer loop
      vertex -0.12000000 0.20784610 0.06000000
      vertex -0.16970563 0.16970563 0.06000000
      vertex -0.09545942 0.09545942 0.48000000
    endloop
  endfacet
  facet normal -0.59088149 0.77005176 0.24058128
    outer loop
      vertex -0.12000000 0.20784610 0.06000000
      vertex -0.09545942 0.09545942 0.48000000
      vertex -0.06750000 0.11691343 0.48000000
    endloop
  endfacet
  facet normal 0.00000000 0.00000000 -1.00000000
    outer loop
      vertex 0.00000000 0.00000000 0.06000000
      vertex -0.16970563 0.16970563 0.06000000
      vertex -0.12000000 0.20784610 0.06000000
    endloop
  endfacet
  facet normal 0.00000000 0.00000000 1.00000000
    outer loop
      vertex 0.00000000 0.00000000 0.48000000
      vertex -0.06750000 0.11691343 0.48000000
      vertex -0.09545942 0.09545942 0.48000000
    endloop
  endfacet
  facet normal -0.77005176 0.59088149 0.24058128
    outer loop
      vertex -0.16970563 0.16970563 0.06000000
      vertex -0.20784610 0.12000000 0.06000000
      vertex -0.11691343 0.06750000 0.48000000
    endloop
  endfacet
  facet normal -0.77005176 0.59088149 0.24058128
    outer loop
      vertex -0.16970563 0.16970563 0.06000000
      vertex -0.11691343 0.06750000 0.48000000
      vertex -0.09545942 0.09545942 0.48000000
    endloop
  endfacet
  facet normal 0.00000000 0.00000000 -1.00000000
    outer loop
      vertex 0.00000000 0.00000000 0.06000000
      vertex -0.20784610 0.12000000 0.06000000
      vertex -0.16970563 0.16970563 0.06000000
    endloop
  endfacet
  facet normal 0.00000000 0.00000000 1.00000000
    outer loop
      vertex 0.00000000 0.00000000 0.48000000
      vertex -0.09545942 0.09545942 0.48000000
      vertex -0.11691343 0.06750000 0.48000000
    endloop
  endfacet
  facet normal -0.89674426 0.37144364 0.24058128
    outer loop
      vertex -0.20784610 0.12000000 0.06000000
      vertex -0.23182220 0.06211657 0.06000000
      vertex -0.13039999 0.03494057 0.48000000
    endloop
  endfacet
  facet normal -0.89674426 0.37144364 0.24058128
    outer loop
      vertex -0.20784610 0.12000000 0.06000000
      vertex -0.13039999 0.03494057 0.48000000
      vertex -0.11691343 0.06750000 0.48000000
    endloop
  endfacet
  facet normal 0.00000000 0.00000000 -1.00000000
    outer loop
      vertex 0.00000000 0.00000000 0.06000000
      vertex -0.23182220 0.06211657 0.06000000
      vertex -0.20784610 0.12000000 0.06000000
    endloop
  endfacet
  facet normal 0.00000000 0.00000000 1.00000000
    outer loop
      vertex 0.00000000 0.00000000 0.48000000
      vertex -0.11691343 0.06750000 0.48000000
      vertex -0.13039999 0.03494057 0.48000000
    endloop
  endfacet
  facet normal -0.96232513 0.12669251 0.24058128
    outer loop
      vertex -0.23182220 0.06211657 0.06000000
      vertex -0.24000000 0.00000000 0.06000000
      vertex -0.13500000 0.00000000 0.48000000
    endloop
  endfacet
  facet normal -0.96232513 0.12669251 0.24058128
    outer loop
      vertex -0.23182220 0.06211657 0.06000000
      vertex -0.13500000 0.00000000 0.48000000
      vertex -0.13039999 0.03494057 0.48000000
    endloop
  endfacet
  facet normal 0.00000000 0.00000000 -1.00000000
    outer loop
      vertex 0.00000000 0.00000000 0.06000000
      vertex -0.24000000 0.00000000 0.06000000
      vertex -0.23182220 0.06211657 0.06000000
    endloop
  endfacet
  facet normal 0.00000000 0.00000000 1.00000000
    outer loop
      vertex 0.00000000 0.00000000 0.48000000
      vertex -0.13039999 0.03494057 0.48000000
      vertex -0.13500000 0.00000000 0.48000000
    endloop
  endfacet
  facet normal -0.96232513 -0.12669251 0.24058128
    outer loop
      vertex -0.24000000 0.00000000 0.06000000
      vertex -0.23182220 -0.06211657 0.06000000
      vertex -0.13039999 -0.03494057 0.48000000
    endloop
  endfacet
  facet normal -0.96232513 -0.12669251 0.24058128
    outer loop
      vertex -0.24000000 0.00000000 0.06000000
      vertex -0.13039999 -0.03494057 0.48000000
      vertex -0.13500000 0.00000000 0.48000000
    endloop
  endfacet
  facet normal -0.00000000 0.00000000 -1.00000000
    outer loop
      vertex 0.00000000 0.00000000 0.06000000
      vertex -0.23182220 -0.06211657 0.06000000
      vertex -0.24000000 0.00000000 0.06000000
    endloop
  endfacet
  facet normal 0.00000000 0.00000000 1.00000000
    outer loop
      vertex 0.00000000 0.00000000 0.48000000
      vertex -0.13500000 0.00000000 0.48000000
      vertex -0.13039999 -0.03494057 0.48000000
    endloop
  endfacet
  facet normal -0.89674426 -0.37144364 0.24058128
    outer loop
      vertex -0.23182220 -0.06211657 0.06000000
      vertex -0.20784610 -0.12000000 0.06000000
      vertex -0.11691343 -0.06750000 0.48000000
    endloop
  endfacet
  facet normal -0.89674426 -0.37144364 0.24058128
    outer loop
      vertex -0.23182220 -0.06211657 0.06000000
      vertex -0.11691343 -0.06750000 0.48000000
      vertex -0.13039999 -0.03494057 0.48000000
    endloop
  endfacet
  facet normal 0.00000000 0.00000000 -1.00000000
    outer loop
      vertex 0.00000000 0.00000000 0.06000000
      vertex -0.20784610 -0.12000000 0.06000000
      vertex -0.23182220 -0.06211657 0.06000000
    endloop
  endfacet
  facet normal 0.00000000 0.00000000 1.00000000
    outer loop
      vertex 0.00000000 0.00000000 0.48000000
      vertex -0.13039999 -0.03494057 0.48000000
      vertex -0.11691343 -0.06750000 0.48000000
    endloop
  endfacet
  facet normal -0.77005176 -0.59088149 0.24058128
    outer loop
      vertex -0.20784610 -0.12000000 0.06000000
      vertex -0.16970563 -0.16970563 0.06000000
      vertex -0.09545942 -0.09545942 0.48000000
    endloop
  endfacet
  facet normal -0.77005176 -0.59088149 0.24058128
    outer loop
      vertex -0.20784610 -0.12000000 0.06000000
      vertex -0.09545942 -0.09545942 0.48000000
      vertex -0.11691343 -0.06750000 0.48000000
    endloop
  endfacet
  facet normal 0.00000000 0.00000000 -1.00000000
    outer loop
      vertex 0.00000000 0.00000000 0.06000000
      vertex -0.16970563 -0.16970563 0.06000000
      vertex -0.20784610 -0.12000000 0.06000000
    endloop
  endfacet
  facet normal 0.00000000 0.00000000 1.00000000
    outer loop
      vertex 0.00000000 0.00000000 0.48000000
      vertex -0.11691343 -0.06750000 0.48000000
      vertex -0.09545942 -0.09545942 0.48000000
    endloop
  endfacet
  facet normal -0.59088149 -0.77005176 0.24058128
    outer loop
      vertex -0.16970563 -0.16970563 0.06000000
      vertex -0.12000000 -0.20784610 0.06000000
      vertex -0.06750000 -0.11691343 0.48000000
    endloop
  endfacet
  facet normal -0.59088149 -0.77005176 0.24058128
    outer loop
      vertex -0.16970563 -0.16970563 0.06000000
      vertex -0.06750000 -0.11691343 0.48000000
      vertex -0.09545942 -0.09545942 0.48000000
    endloop
  endfacet
  facet normal 0.00000000 0.00000000 -1.00000000
    outer loop
      vertex 0.00000000 0.00000000 0.06000000
      vertex -0.12000000 -0.20784610 0.06000000
      vertex -0.16970563 -0.16970563 0.06000000
    endloop
  endfacet
  facet normal 0.00000000 0.00000000 1.00000000
    outer loop
      vertex 0.00000000 0.00000000 0.48000000
      vertex -0.09545942 -0.09545942 0.48000000
      vertex -0.06750000 -0.11691343 0.48000000
    endloop
  endfacet
  facet normal -0.37144364 -0.89674426 0.24058128
    outer loop
      vertex -0.12000000 -0.20784610 0.06000000
      vertex -0.06211657 -0.23182220 0.06000000
      vertex -0.03494057 -0.13039999 0.48000000
    endloop
  endfacet
  facet normal -0.37144364 -0.89674426 0.24058128
    outer loop
      vertex -0.12000000 -0.20784610 0.06000000
      vertex -0.03494057 -0.13039999 0.48000000
      vertex -0.06750000 -0.11691343 0.48000000
    endloop
  endfacet
  facet normal 0.00000000 0.00000000 -1.00000000
    outer loop
      vertex 0.00000000 0.00000000 0.06000000
      vertex -0.06211657 -0.23182220 0.06000000
      vertex -0.12000000 -0.20784610 0.06000000
    endloop
  endfacet
  facet normal 0.00000000 0.00000000 1.00000000
    outer loop
      vertex 0.00000000 0.00000000 0.48000000
      vertex -0.06750000 -0.11691343 0.48000000
      vertex -0.03494057 -0.13039999 0.48000000
    endloop
  endfacet
  facet normal -0.12669251 -0.96232513 0.24058128
    outer loop
      vertex -0.06211657 -0.23182220 0.06000000
      vertex -0.00000000 -0.24000000 0.06000000
      vertex -0.00000000 -0.13500000 0.48000000
    endloop
  endfacet
  facet normal -0.12669251 -0.96232513 0.24058128
    outer loop
      vertex -0.06211657 -0.23182220 0.06000000
      vertex -0.00000000 -0.13500000 0.48000000
      vertex -0.03494057 -0.13039999 0.48000000
    endloop
  endfacet
  facet normal 0.00000000 0.00000000 -1.00000000
    outer loop
      vertex 0.00000000 0.00000000 0.06000000
      vertex -0.00000000 -0.24000000 0.06000000
      vertex -0.06211657 -0.23182220 0.06000000
    endloop
  endfacet
  facet normal 0.00000000 0.00000000 1.00000000
    outer loop
      vertex 0.00000000 0.00000000 0.48000000
      vertex -0.03494057 -0.13039999 0.48000000
      vertex -0.00000000 -0.13500000 0.48000000
    endloop
  endfacet
  facet normal 0.12669251 -0.96232513 0.24058128
    outer loop
      vertex -0.00000000 -0.24000000 0.06000000
      vertex 0.06211657 -0.23182220 0.06000000
      vertex 0.03494057 -0.13039999 0.48000000
    endloop
  endfacet
  facet normal 0.12669251 -0.96232513 0.24058128
    outer loop
      vertex -0.00000000 -0.24000000 0.06000000
      vertex 0.03494057 -0.13039999 0.48000000
      vertex -0.00000000 -0.13500000 0.48000000
    endloop
  endfacet
  facet normal 0.00000000 -0.00000000 -1.00000000
    outer loop
      vertex 0.00000000 0.00000000 0.06000000
      vertex 0.06211657 -0.23182220 0.06000000
      vertex -0.00000000 -0.24000000 0.06000000
    endloop
  endfacet
  facet normal 0.00000000 0.00000000 1.00000000
    outer loop
      vertex 0.00000000 0.00000000 0.48000000
      vertex -0.00000000 -0.13500000 0.48000000
      vertex 0.03494057 -0.13039999 0.48000000
    endloop
  endfacet
  facet normal 0.37144364 -0.89674426 0.24058128
    outer loop
      vertex 0.06211657 -0.23182220 0.06000000
      vertex 0.12000000 -0.20784610 0.06000000
      vertex 0.06750000 -0.11691343 0.48000000
    endloop
  endfacet
  facet normal 0.37144364 -0.89674426 0.24058128
    outer loop
      vertex 0.06211657 -0.23182220 0.06000000
      vertex 0.06750000 -0.11691343 0.48000000
      vertex 0.03494057 -0.13039999 0.48000000
    endloop
  endfacet
  facet normal 0.00000000 0.00000000 -1.00000000
    outer loop
      vertex 0.00000000 0.00000000 0.06000000
      vertex 0.12000000 -0.20784610 0.06000000
      vertex 0.06211657 -0.23182220 0.06000000
    endloop
  endfacet
  facet normal 0.00000000 0.00000000 1.00000000
    outer loop
      vertex 0.00000000 0.00000000 0.48000000
      vertex 0.03494057 -0.13039999 0.48000000
      vertex 0.06750000 -0.11691343 0.48000000
    endloop
  endfacet
  facet normal 0.59088149 -0.77005176 0.24058128
    outer loop
      vertex 0.12000000 -0.20784610 0.06000000
      vertex 0.16970563 -0.16970563 0.06000000
      vertex 0.09545942 -0.09545942 0.48000000
    endloop
  endfacet
  facet normal 0.59088149 -0.77005176 0.24058128
    outer loop
      vertex 0.12000000 -0.20784610 0.06000000
      vertex 0.09545942 -0.09545942 0.48000000
      vertex 0.06750000 -0.11691343 0.48000000
    endloop
  endfacet
  facet normal 0.00000000 0.00000000 -1.00000000
    outer loop
      vertex 0.00000000 0.00000000 0.06000000
      vertex 0.16970563 -0.16970563 0.06000000
      vertex 0.12000000 -0.20784610 0.06000000
    endloop
  endfacet
  facet normal 0.00000000 0.00000000 1.00000000
    outer loop
      vertex 0.00000000 0.00000000 0.48000000
      vertex 0.06750000 -0.11691343 0.48000000
      vertex 0.09545942 -0.09545942 0.48000000
    endloop
  endfacet
  facet normal 0.77005176 -0.59088149 0.24058128
    outer loop
      vertex 0.16970563 -0.16970563 0.06000000
      vertex 0.20784610 -0.12000000 0.06000000
      vertex 0.11691343 -0.06750000 0.48000000
    endloop
  endfacet
  facet normal 0.77005176 -0.59088149 0.24058128
    outer loop
      vertex 0.16970563 -0.16970563 0.06000000
      vertex 0.11691343 -0.06750000 0.48000000
      vertex 0.09545942 -0.09545942 0.48000000
    endloop
  endfacet
  facet normal 0.00000000 0.00000000 -1.00000000
    outer loop
      vertex 0.00000000 0.00000000 0.06000000
      vertex 0.20784610 -0.12000000 0.06000000
      vertex 0.16970563 -0.16970563 0.06000000
    endloop
  endfacet
  facet normal 0.00000000 0.00000000 1.00000000
    outer loop
      vertex 0.00000000 0.00000000 0.48000000
      vertex 0.09545942 -0.09545942 0.48000000
      vertex 0.11691343 -0.06750000 0.48000000
    endloop
  endfacet
  facet normal 0.89674426 -0.37144364 0.24058128
    outer loop
      vertex 0.20784610 -0.12000000 0.06000000
      vertex 0.23182220 -0.06211657 0.06000000
      vertex 0.13039999 -0.03494057 0.48000000
    endloop
  endfacet
  facet normal 0.89674426 -0.37144364 0.24058128
    outer loop
      vertex 0.20784610 -0.12000000 0.06000000
      vertex 0.13039999 -0.03494057 0.48000000
      vertex 0.11691343 -0.06750000 0.48000000
    endloop
  endfacet
  facet normal 0.00000000 0.00000000 -1.00000000
    outer loop
      vertex 0.00000000 0.00000000 0.06000000
      vertex 0.23182220 -0.06211657 0.06000000
      vertex 0.20784610 -0.12000000 0.06000000
    endloop
  endfacet
  facet normal 0.00000000 0.00000000 1.00000000
    outer loop
      vertex 0.00000000 0.00000000 0.48000000
      vertex 0.11691343 -0.06750000 0.48000000
      vertex 0.13039999 -0.03494057 0.48000000
    endloop
  endfacet
  facet normal 0.96232513 -0.12669251 0.24058128
    outer loop
      vertex 0.23182220 -0.06211657 0.06000000
      vertex 0.24000000 0.00000000 0.06000000
      vertex 0.13500000 0.00000000 0.48000000
    endloop
  endfacet
  facet normal 0.96232513 -0.12669251 0.24058128
    outer loop
      vertex 0.23182220 -0.06211657 0.06000000
      vertex 0.13500000 0.00000000 0.48000000
      vertex 0.13039999 -0.03494057 0.48000000
    endloop
  endfacet
  facet normal 0.00000000 0.00000000 -1.00000000
    outer loop
      vertex 0.00000000 0.00000000 0.06000000
      vertex 0.24000000 0.00000000 0.06000000
      vertex 0.23182220 -0.06211657 0.06000000
    endloop
  endfacet
  facet normal -0.00000000 0.00000000 1.00000000
    outer loop
      vertex 0.00000000 0.00000000 0.48000000
      vertex 0.13039999 -0.03494057 0.48000000
      vertex 0.13500000 0.00000000 0.48000000
    endloop
  endfacet
endsolid traffic_cone_lower
